%TF.GenerationSoftware,KiCad,Pcbnew,7.0.1*%
%TF.CreationDate,2023-03-18T19:20:35+00:00*%
%TF.ProjectId,KOSMO-POLY6-JACKS,4b4f534d-4f2d-4504-9f4c-59362d4a4143,v0.1.2*%
%TF.SameCoordinates,Original*%
%TF.FileFunction,Copper,L1,Top*%
%TF.FilePolarity,Positive*%
%FSLAX46Y46*%
G04 Gerber Fmt 4.6, Leading zero omitted, Abs format (unit mm)*
G04 Created by KiCad (PCBNEW 7.0.1) date 2023-03-18 19:20:35*
%MOMM*%
%LPD*%
G01*
G04 APERTURE LIST*
G04 Aperture macros list*
%AMRoundRect*
0 Rectangle with rounded corners*
0 $1 Rounding radius*
0 $2 $3 $4 $5 $6 $7 $8 $9 X,Y pos of 4 corners*
0 Add a 4 corners polygon primitive as box body*
4,1,4,$2,$3,$4,$5,$6,$7,$8,$9,$2,$3,0*
0 Add four circle primitives for the rounded corners*
1,1,$1+$1,$2,$3*
1,1,$1+$1,$4,$5*
1,1,$1+$1,$6,$7*
1,1,$1+$1,$8,$9*
0 Add four rect primitives between the rounded corners*
20,1,$1+$1,$2,$3,$4,$5,0*
20,1,$1+$1,$4,$5,$6,$7,0*
20,1,$1+$1,$6,$7,$8,$9,0*
20,1,$1+$1,$8,$9,$2,$3,0*%
G04 Aperture macros list end*
%ADD10C,0.300000*%
%TA.AperFunction,NonConductor*%
%ADD11C,0.300000*%
%TD*%
%TA.AperFunction,ComponentPad*%
%ADD12RoundRect,0.250000X-0.600000X-0.600000X0.600000X-0.600000X0.600000X0.600000X-0.600000X0.600000X0*%
%TD*%
%TA.AperFunction,ComponentPad*%
%ADD13C,1.700000*%
%TD*%
%TA.AperFunction,ComponentPad*%
%ADD14C,5.600000*%
%TD*%
%TA.AperFunction,ComponentPad*%
%ADD15RoundRect,0.250000X0.600000X-0.600000X0.600000X0.600000X-0.600000X0.600000X-0.600000X-0.600000X0*%
%TD*%
%TA.AperFunction,ComponentPad*%
%ADD16R,4.500000X4.500000*%
%TD*%
%TA.AperFunction,ComponentPad*%
%ADD17C,4.500000*%
%TD*%
%TA.AperFunction,ViaPad*%
%ADD18C,0.800000*%
%TD*%
%TA.AperFunction,Conductor*%
%ADD19C,0.250000*%
%TD*%
G04 APERTURE END LIST*
D10*
D11*
X86768000Y-23134142D02*
X86625143Y-23277000D01*
X86625143Y-23277000D02*
X86196571Y-23419857D01*
X86196571Y-23419857D02*
X85910857Y-23419857D01*
X85910857Y-23419857D02*
X85482286Y-23277000D01*
X85482286Y-23277000D02*
X85196571Y-22991285D01*
X85196571Y-22991285D02*
X85053714Y-22705571D01*
X85053714Y-22705571D02*
X84910857Y-22134142D01*
X84910857Y-22134142D02*
X84910857Y-21705571D01*
X84910857Y-21705571D02*
X85053714Y-21134142D01*
X85053714Y-21134142D02*
X85196571Y-20848428D01*
X85196571Y-20848428D02*
X85482286Y-20562714D01*
X85482286Y-20562714D02*
X85910857Y-20419857D01*
X85910857Y-20419857D02*
X86196571Y-20419857D01*
X86196571Y-20419857D02*
X86625143Y-20562714D01*
X86625143Y-20562714D02*
X86768000Y-20705571D01*
X89482286Y-23419857D02*
X88053714Y-23419857D01*
X88053714Y-23419857D02*
X88053714Y-20419857D01*
X90339428Y-22562714D02*
X91768000Y-22562714D01*
X90053714Y-23419857D02*
X91053714Y-20419857D01*
X91053714Y-20419857D02*
X92053714Y-23419857D01*
X93625143Y-21991285D02*
X93625143Y-23419857D01*
X92625143Y-20419857D02*
X93625143Y-21991285D01*
X93625143Y-21991285D02*
X94625143Y-20419857D01*
X95196572Y-20419857D02*
X96910858Y-20419857D01*
X96053715Y-23419857D02*
X96053715Y-20419857D01*
X97910857Y-20419857D02*
X97910857Y-22848428D01*
X97910857Y-22848428D02*
X98053714Y-23134142D01*
X98053714Y-23134142D02*
X98196572Y-23277000D01*
X98196572Y-23277000D02*
X98482286Y-23419857D01*
X98482286Y-23419857D02*
X99053714Y-23419857D01*
X99053714Y-23419857D02*
X99339429Y-23277000D01*
X99339429Y-23277000D02*
X99482286Y-23134142D01*
X99482286Y-23134142D02*
X99625143Y-22848428D01*
X99625143Y-22848428D02*
X99625143Y-20419857D01*
X101053714Y-23419857D02*
X101053714Y-20419857D01*
X101053714Y-20419857D02*
X102768000Y-23419857D01*
X102768000Y-23419857D02*
X102768000Y-20419857D01*
X104196571Y-21848428D02*
X105196571Y-21848428D01*
X105625143Y-23419857D02*
X104196571Y-23419857D01*
X104196571Y-23419857D02*
X104196571Y-20419857D01*
X104196571Y-20419857D02*
X105625143Y-20419857D01*
D12*
%TO.P,GATE_OUT1,1,Pin_1*%
%TO.N,GATE_OUT0-N*%
X58538000Y-31435000D03*
D13*
%TO.P,GATE_OUT1,2,Pin_2*%
%TO.N,GATE_OUT3-N*%
X61078000Y-31435000D03*
%TO.P,GATE_OUT1,3,Pin_3*%
%TO.N,GATE_OUT1-N*%
X58538000Y-33975000D03*
%TO.P,GATE_OUT1,4,Pin_4*%
%TO.N,GATE_OUT4-N*%
X61078000Y-33975000D03*
%TO.P,GATE_OUT1,5,Pin_5*%
%TO.N,GATE_OUT2-N*%
X58538000Y-36515000D03*
%TO.P,GATE_OUT1,6,Pin_6*%
%TO.N,GATE_OUT5-N*%
X61078000Y-36515000D03*
%TO.P,GATE_OUT1,7,Pin_7*%
%TO.N,GND-S*%
X58538000Y-39055000D03*
%TO.P,GATE_OUT1,8,Pin_8*%
X61078000Y-39055000D03*
%TD*%
D14*
%TO.P,H1,1,1*%
%TO.N,Net-(H1-Pad1)*%
X119657000Y-19835000D03*
%TD*%
%TO.P,H2,1,1*%
%TO.N,Net-(H1-Pad1)*%
X57657000Y-19837000D03*
%TD*%
%TO.P,H3,1,1*%
%TO.N,Net-(H1-Pad1)*%
X57669000Y-186831000D03*
%TD*%
%TO.P,H4,1,1*%
%TO.N,Net-(H1-Pad1)*%
X119655000Y-186829000D03*
%TD*%
D12*
%TO.P,PULSE_IN1,1,Pin_1*%
%TO.N,PULSE_OUT0-S*%
X115743000Y-31435000D03*
D13*
%TO.P,PULSE_IN1,2,Pin_2*%
%TO.N,PULSE_OUT3-S*%
X118283000Y-31435000D03*
%TO.P,PULSE_IN1,3,Pin_3*%
%TO.N,PULSE_OUT1-S*%
X115743000Y-33975000D03*
%TO.P,PULSE_IN1,4,Pin_4*%
%TO.N,PULSE_OUT4-S*%
X118283000Y-33975000D03*
%TO.P,PULSE_IN1,5,Pin_5*%
%TO.N,PULSE_OUT2-S*%
X115743000Y-36515000D03*
%TO.P,PULSE_IN1,6,Pin_6*%
%TO.N,PULSE_OUT5-S*%
X118283000Y-36515000D03*
%TO.P,PULSE_IN1,7,Pin_7*%
%TO.N,GND-S*%
X115743000Y-39055000D03*
%TO.P,PULSE_IN1,8,Pin_8*%
X118283000Y-39055000D03*
%TD*%
D12*
%TO.P,PULSE_OUT1,1,Pin_1*%
%TO.N,PULSE_OUT0-N*%
X80538000Y-31435000D03*
D13*
%TO.P,PULSE_OUT1,2,Pin_2*%
%TO.N,PULSE_OUT3-N*%
X83078000Y-31435000D03*
%TO.P,PULSE_OUT1,3,Pin_3*%
%TO.N,PULSE_OUT1-N*%
X80538000Y-33975000D03*
%TO.P,PULSE_OUT1,4,Pin_4*%
%TO.N,PULSE_OUT4-N*%
X83078000Y-33975000D03*
%TO.P,PULSE_OUT1,5,Pin_5*%
%TO.N,PULSE_OUT2-N*%
X80538000Y-36515000D03*
%TO.P,PULSE_OUT1,6,Pin_6*%
%TO.N,PULSE_OUT5-N*%
X83078000Y-36515000D03*
%TO.P,PULSE_OUT1,7,Pin_7*%
%TO.N,GND-S*%
X80538000Y-39055000D03*
%TO.P,PULSE_OUT1,8,Pin_8*%
X83078000Y-39055000D03*
%TD*%
D12*
%TO.P,RAMP_IN1,1,Pin_1*%
%TO.N,RAMP_OUT0-S*%
X104743000Y-31435000D03*
D13*
%TO.P,RAMP_IN1,2,Pin_2*%
%TO.N,RAMP_OUT3-S*%
X107283000Y-31435000D03*
%TO.P,RAMP_IN1,3,Pin_3*%
%TO.N,RAMP_OUT1-S*%
X104743000Y-33975000D03*
%TO.P,RAMP_IN1,4,Pin_4*%
%TO.N,RAMP_OUT4-S*%
X107283000Y-33975000D03*
%TO.P,RAMP_IN1,5,Pin_5*%
%TO.N,RAMP_OUT2-S*%
X104743000Y-36515000D03*
%TO.P,RAMP_IN1,6,Pin_6*%
%TO.N,RAMP_OUT5-S*%
X107283000Y-36515000D03*
%TO.P,RAMP_IN1,7,Pin_7*%
%TO.N,GND-S*%
X104743000Y-39055000D03*
%TO.P,RAMP_IN1,8,Pin_8*%
X107283000Y-39055000D03*
%TD*%
D12*
%TO.P,RAMP_OUT1,1,Pin_1*%
%TO.N,RAMP_OUT0-N*%
X69538000Y-31435000D03*
D13*
%TO.P,RAMP_OUT1,2,Pin_2*%
%TO.N,RAMP_OUT3-N*%
X72078000Y-31435000D03*
%TO.P,RAMP_OUT1,3,Pin_3*%
%TO.N,RAMP_OUT1-N*%
X69538000Y-33975000D03*
%TO.P,RAMP_OUT1,4,Pin_4*%
%TO.N,RAMP_OUT4-N*%
X72078000Y-33975000D03*
%TO.P,RAMP_OUT1,5,Pin_5*%
%TO.N,RAMP_OUT2-N*%
X69538000Y-36515000D03*
%TO.P,RAMP_OUT1,6,Pin_6*%
%TO.N,RAMP_OUT5-N*%
X72078000Y-36515000D03*
%TO.P,RAMP_OUT1,7,Pin_7*%
%TO.N,GND-S*%
X69538000Y-39055000D03*
%TO.P,RAMP_OUT1,8,Pin_8*%
X72078000Y-39055000D03*
%TD*%
D15*
%TO.P,PowerIN1,1,Pin_1*%
%TO.N,+12V*%
X72973000Y-186988000D03*
D13*
%TO.P,PowerIN1,2,Pin_2*%
%TO.N,-12V*%
X72973000Y-184448000D03*
%TO.P,PowerIN1,3,Pin_3*%
%TO.N,+5V*%
X75513000Y-186988000D03*
%TO.P,PowerIN1,4,Pin_4*%
%TO.N,+3V3*%
X75513000Y-184448000D03*
%TO.P,PowerIN1,5,Pin_5*%
%TO.N,GND-S*%
X78053000Y-186988000D03*
%TO.P,PowerIN1,6,Pin_6*%
X78053000Y-184448000D03*
%TD*%
D15*
%TO.P,PowerOUT1,1,Pin_1*%
%TO.N,+12V*%
X98368000Y-187057000D03*
D13*
%TO.P,PowerOUT1,2,Pin_2*%
%TO.N,-12V*%
X98368000Y-184517000D03*
%TO.P,PowerOUT1,3,Pin_3*%
%TO.N,+5V*%
X100908000Y-187057000D03*
%TO.P,PowerOUT1,4,Pin_4*%
%TO.N,+3V3*%
X100908000Y-184517000D03*
%TO.P,PowerOUT1,5,Pin_5*%
%TO.N,GND-S*%
X103448000Y-187057000D03*
%TO.P,PowerOUT1,6,Pin_6*%
X103448000Y-184517000D03*
%TD*%
D12*
%TO.P,GATE_IN1,1,Pin_1*%
%TO.N,GATE_OUT0-S*%
X93743000Y-31435000D03*
D13*
%TO.P,GATE_IN1,2,Pin_2*%
%TO.N,GATE_OUT3-S*%
X96283000Y-31435000D03*
%TO.P,GATE_IN1,3,Pin_3*%
%TO.N,GATE_OUT1-S*%
X93743000Y-33975000D03*
%TO.P,GATE_IN1,4,Pin_4*%
%TO.N,GATE_OUT4-S*%
X96283000Y-33975000D03*
%TO.P,GATE_IN1,5,Pin_5*%
%TO.N,GATE_OUT2-S*%
X93743000Y-36515000D03*
%TO.P,GATE_IN1,6,Pin_6*%
%TO.N,GATE_OUT5-S*%
X96283000Y-36515000D03*
%TO.P,GATE_IN1,7,Pin_7*%
%TO.N,GND-S*%
X93743000Y-39055000D03*
%TO.P,GATE_IN1,8,Pin_8*%
X96283000Y-39055000D03*
%TD*%
D16*
%TO.P,J1,G*%
%TO.N,GND-S*%
X94181000Y-52666000D03*
D17*
%TO.P,J1,S*%
%TO.N,unconnected-(J1-PadS)*%
X89101000Y-63334000D03*
%TO.P,J1,SN*%
%TO.N,unconnected-(J1-PadSN)*%
X95197000Y-59778000D03*
%TO.P,J1,T*%
%TO.N,RAMP_OUT0-S*%
X83132000Y-56476000D03*
%TO.P,J1,TN*%
%TO.N,RAMP_OUT0-N*%
X87069000Y-51142000D03*
%TD*%
D16*
%TO.P,J2,G*%
%TO.N,GND-S*%
X117181000Y-52666000D03*
D17*
%TO.P,J2,S*%
%TO.N,unconnected-(J2-PadS)*%
X112101000Y-63334000D03*
%TO.P,J2,SN*%
%TO.N,unconnected-(J2-PadSN)*%
X118197000Y-59778000D03*
%TO.P,J2,T*%
%TO.N,PULSE_OUT0-S*%
X106132000Y-56476000D03*
%TO.P,J2,TN*%
%TO.N,PULSE_OUT0-N*%
X110069000Y-51142000D03*
%TD*%
D16*
%TO.P,J3,G*%
%TO.N,GND-S*%
X71181000Y-52666000D03*
D17*
%TO.P,J3,S*%
%TO.N,unconnected-(J3-PadS)*%
X66101000Y-63334000D03*
%TO.P,J3,SN*%
%TO.N,unconnected-(J3-PadSN)*%
X72197000Y-59778000D03*
%TO.P,J3,T*%
%TO.N,GATE_OUT0-S*%
X60132000Y-56476000D03*
%TO.P,J3,TN*%
%TO.N,GATE_OUT0-N*%
X64069000Y-51142000D03*
%TD*%
D16*
%TO.P,J4,G*%
%TO.N,GND-S*%
X94181000Y-75666000D03*
D17*
%TO.P,J4,S*%
%TO.N,unconnected-(J4-PadS)*%
X89101000Y-86334000D03*
%TO.P,J4,SN*%
%TO.N,unconnected-(J4-PadSN)*%
X95197000Y-82778000D03*
%TO.P,J4,T*%
%TO.N,RAMP_OUT1-S*%
X83132000Y-79476000D03*
%TO.P,J4,TN*%
%TO.N,RAMP_OUT1-N*%
X87069000Y-74142000D03*
%TD*%
D16*
%TO.P,J5,G*%
%TO.N,GND-S*%
X117181000Y-75666000D03*
D17*
%TO.P,J5,S*%
%TO.N,unconnected-(J5-PadS)*%
X112101000Y-86334000D03*
%TO.P,J5,SN*%
%TO.N,unconnected-(J5-PadSN)*%
X118197000Y-82778000D03*
%TO.P,J5,T*%
%TO.N,PULSE_OUT1-S*%
X106132000Y-79476000D03*
%TO.P,J5,TN*%
%TO.N,PULSE_OUT1-N*%
X110069000Y-74142000D03*
%TD*%
D16*
%TO.P,J6,G*%
%TO.N,GND-S*%
X71181000Y-75666000D03*
D17*
%TO.P,J6,S*%
%TO.N,unconnected-(J6-PadS)*%
X66101000Y-86334000D03*
%TO.P,J6,SN*%
%TO.N,unconnected-(J6-PadSN)*%
X72197000Y-82778000D03*
%TO.P,J6,T*%
%TO.N,GATE_OUT1-S*%
X60132000Y-79476000D03*
%TO.P,J6,TN*%
%TO.N,GATE_OUT1-N*%
X64069000Y-74142000D03*
%TD*%
D16*
%TO.P,J7,G*%
%TO.N,GND-S*%
X94181000Y-98666000D03*
D17*
%TO.P,J7,S*%
%TO.N,unconnected-(J7-PadS)*%
X89101000Y-109334000D03*
%TO.P,J7,SN*%
%TO.N,unconnected-(J7-PadSN)*%
X95197000Y-105778000D03*
%TO.P,J7,T*%
%TO.N,RAMP_OUT2-S*%
X83132000Y-102476000D03*
%TO.P,J7,TN*%
%TO.N,RAMP_OUT2-N*%
X87069000Y-97142000D03*
%TD*%
D16*
%TO.P,J8,G*%
%TO.N,GND-S*%
X117181000Y-98666000D03*
D17*
%TO.P,J8,S*%
%TO.N,unconnected-(J8-PadS)*%
X112101000Y-109334000D03*
%TO.P,J8,SN*%
%TO.N,unconnected-(J8-PadSN)*%
X118197000Y-105778000D03*
%TO.P,J8,T*%
%TO.N,PULSE_OUT2-S*%
X106132000Y-102476000D03*
%TO.P,J8,TN*%
%TO.N,PULSE_OUT2-N*%
X110069000Y-97142000D03*
%TD*%
D16*
%TO.P,J9,G*%
%TO.N,GND-S*%
X71181000Y-98666000D03*
D17*
%TO.P,J9,S*%
%TO.N,unconnected-(J9-PadS)*%
X66101000Y-109334000D03*
%TO.P,J9,SN*%
%TO.N,unconnected-(J9-PadSN)*%
X72197000Y-105778000D03*
%TO.P,J9,T*%
%TO.N,GATE_OUT2-S*%
X60132000Y-102476000D03*
%TO.P,J9,TN*%
%TO.N,GATE_OUT2-N*%
X64069000Y-97142000D03*
%TD*%
D16*
%TO.P,J10,G*%
%TO.N,GND-S*%
X94181000Y-121666000D03*
D17*
%TO.P,J10,S*%
%TO.N,unconnected-(J10-PadS)*%
X89101000Y-132334000D03*
%TO.P,J10,SN*%
%TO.N,unconnected-(J10-PadSN)*%
X95197000Y-128778000D03*
%TO.P,J10,T*%
%TO.N,RAMP_OUT3-S*%
X83132000Y-125476000D03*
%TO.P,J10,TN*%
%TO.N,RAMP_OUT3-N*%
X87069000Y-120142000D03*
%TD*%
D16*
%TO.P,J11,G*%
%TO.N,GND-S*%
X117181000Y-121666000D03*
D17*
%TO.P,J11,S*%
%TO.N,unconnected-(J11-PadS)*%
X112101000Y-132334000D03*
%TO.P,J11,SN*%
%TO.N,unconnected-(J11-PadSN)*%
X118197000Y-128778000D03*
%TO.P,J11,T*%
%TO.N,PULSE_OUT3-S*%
X106132000Y-125476000D03*
%TO.P,J11,TN*%
%TO.N,PULSE_OUT3-N*%
X110069000Y-120142000D03*
%TD*%
D16*
%TO.P,J12,G*%
%TO.N,GND-S*%
X71181000Y-121666000D03*
D17*
%TO.P,J12,S*%
%TO.N,unconnected-(J12-PadS)*%
X66101000Y-132334000D03*
%TO.P,J12,SN*%
%TO.N,unconnected-(J12-PadSN)*%
X72197000Y-128778000D03*
%TO.P,J12,T*%
%TO.N,GATE_OUT3-S*%
X60132000Y-125476000D03*
%TO.P,J12,TN*%
%TO.N,GATE_OUT3-N*%
X64069000Y-120142000D03*
%TD*%
D16*
%TO.P,J13,G*%
%TO.N,GND-S*%
X94181000Y-144666000D03*
D17*
%TO.P,J13,S*%
%TO.N,unconnected-(J13-PadS)*%
X89101000Y-155334000D03*
%TO.P,J13,SN*%
%TO.N,unconnected-(J13-PadSN)*%
X95197000Y-151778000D03*
%TO.P,J13,T*%
%TO.N,RAMP_OUT4-S*%
X83132000Y-148476000D03*
%TO.P,J13,TN*%
%TO.N,RAMP_OUT4-N*%
X87069000Y-143142000D03*
%TD*%
D16*
%TO.P,J14,G*%
%TO.N,GND-S*%
X117181000Y-144666000D03*
D17*
%TO.P,J14,S*%
%TO.N,unconnected-(J14-PadS)*%
X112101000Y-155334000D03*
%TO.P,J14,SN*%
%TO.N,unconnected-(J14-PadSN)*%
X118197000Y-151778000D03*
%TO.P,J14,T*%
%TO.N,PULSE_OUT4-S*%
X106132000Y-148476000D03*
%TO.P,J14,TN*%
%TO.N,PULSE_OUT4-N*%
X110069000Y-143142000D03*
%TD*%
D16*
%TO.P,J15,G*%
%TO.N,GND-S*%
X71181000Y-144666000D03*
D17*
%TO.P,J15,S*%
%TO.N,unconnected-(J15-PadS)*%
X66101000Y-155334000D03*
%TO.P,J15,SN*%
%TO.N,unconnected-(J15-PadSN)*%
X72197000Y-151778000D03*
%TO.P,J15,T*%
%TO.N,GATE_OUT4-S*%
X60132000Y-148476000D03*
%TO.P,J15,TN*%
%TO.N,GATE_OUT4-N*%
X64069000Y-143142000D03*
%TD*%
D16*
%TO.P,J16,G*%
%TO.N,GND-S*%
X94181000Y-167666000D03*
D17*
%TO.P,J16,S*%
%TO.N,unconnected-(J16-PadS)*%
X89101000Y-178334000D03*
%TO.P,J16,SN*%
%TO.N,unconnected-(J16-PadSN)*%
X95197000Y-174778000D03*
%TO.P,J16,T*%
%TO.N,RAMP_OUT5-S*%
X83132000Y-171476000D03*
%TO.P,J16,TN*%
%TO.N,RAMP_OUT5-N*%
X87069000Y-166142000D03*
%TD*%
D16*
%TO.P,J17,G*%
%TO.N,GND-S*%
X117181000Y-167666000D03*
D17*
%TO.P,J17,S*%
%TO.N,unconnected-(J17-PadS)*%
X112101000Y-178334000D03*
%TO.P,J17,SN*%
%TO.N,unconnected-(J17-PadSN)*%
X118197000Y-174778000D03*
%TO.P,J17,T*%
%TO.N,PULSE_OUT5-S*%
X106132000Y-171476000D03*
%TO.P,J17,TN*%
%TO.N,PULSE_OUT5-N*%
X110069000Y-166142000D03*
%TD*%
D16*
%TO.P,J18,G*%
%TO.N,GND-S*%
X71181000Y-167666000D03*
D17*
%TO.P,J18,S*%
%TO.N,unconnected-(J18-PadS)*%
X66101000Y-178334000D03*
%TO.P,J18,SN*%
%TO.N,unconnected-(J18-PadSN)*%
X72197000Y-174778000D03*
%TO.P,J18,T*%
%TO.N,GATE_OUT5-S*%
X60132000Y-171476000D03*
%TO.P,J18,TN*%
%TO.N,GATE_OUT5-N*%
X64069000Y-166142000D03*
%TD*%
D18*
%TO.N,RAMP_OUT1-N*%
X77678900Y-64751900D03*
%TO.N,RAMP_OUT2-N*%
X76358300Y-86431300D03*
%TD*%
D19*
%TO.N,GND-S*%
X94181000Y-121666000D02*
X94181000Y-119090700D01*
X94181000Y-167666000D02*
X92390600Y-167666000D01*
X118283000Y-39055000D02*
X118283000Y-39166400D01*
X71181000Y-55241300D02*
X69621600Y-56800700D01*
X78053000Y-184448000D02*
X78053000Y-176952300D01*
X91605700Y-167666000D02*
X82319400Y-176952300D01*
X115609500Y-117519200D02*
X115609500Y-102812800D01*
X115606100Y-94515800D02*
X115606100Y-79816200D01*
X71181000Y-78241300D02*
X69582500Y-79839800D01*
X117181000Y-119090700D02*
X115609500Y-117519200D01*
X118283000Y-39166400D02*
X117181000Y-40268400D01*
X117181000Y-50090700D02*
X117181000Y-40268400D01*
X69619600Y-140529300D02*
X71181000Y-142090700D01*
X104743000Y-39055000D02*
X107283000Y-39055000D01*
X92621700Y-56800600D02*
X94181000Y-55241300D01*
X96283000Y-39055000D02*
X93743000Y-39055000D01*
X71181000Y-52666000D02*
X71181000Y-55241300D01*
X72078000Y-49193700D02*
X71181000Y-50090700D01*
X92390600Y-167666000D02*
X92390600Y-149031700D01*
X78053000Y-186988000D02*
X78053000Y-184448000D01*
X117181000Y-98666000D02*
X117181000Y-96090700D01*
X92610000Y-117519700D02*
X92610000Y-102812300D01*
X82319400Y-176952300D02*
X78053000Y-176952300D01*
X115609500Y-102812800D02*
X117181000Y-101241300D01*
X71181000Y-121666000D02*
X71181000Y-124241300D01*
X71181000Y-75666000D02*
X71181000Y-73090700D01*
X69621600Y-56800700D02*
X69621600Y-71531300D01*
X92390600Y-149031700D02*
X94181000Y-147241300D01*
X92610000Y-102812300D02*
X94181000Y-101241300D01*
X115606100Y-79816200D02*
X117181000Y-78241300D01*
X117181000Y-121666000D02*
X117181000Y-119090700D01*
X71181000Y-52666000D02*
X71181000Y-50090700D01*
X94181000Y-73090700D02*
X92621700Y-71531400D01*
X69621600Y-71531300D02*
X71181000Y-73090700D01*
X117181000Y-40268400D02*
X116956400Y-40268400D01*
X116956400Y-40268400D02*
X115743000Y-39055000D01*
X117181000Y-52666000D02*
X117181000Y-50090700D01*
X72078000Y-39055000D02*
X72078000Y-49193700D01*
X69619600Y-125802700D02*
X69619600Y-140529300D01*
X103448000Y-187057000D02*
X103448000Y-184517000D01*
X94181000Y-52666000D02*
X94181000Y-55241300D01*
X94181000Y-119090700D02*
X92610000Y-117519700D01*
X71181000Y-98666000D02*
X71181000Y-96090700D01*
X78053000Y-176952300D02*
X71342000Y-170241300D01*
X71181000Y-144666000D02*
X71181000Y-142090700D01*
X94181000Y-144666000D02*
X94181000Y-147241300D01*
X71181000Y-75666000D02*
X71181000Y-78241300D01*
X117181000Y-96090700D02*
X115606100Y-94515800D01*
X71342000Y-170241300D02*
X71181000Y-170241300D01*
X94181000Y-75666000D02*
X94181000Y-73090700D01*
X93743000Y-39055000D02*
X83078000Y-39055000D01*
X117181000Y-75666000D02*
X117181000Y-78241300D01*
X71181000Y-167666000D02*
X71181000Y-170241300D01*
X92621700Y-71531400D02*
X92621700Y-56800600D01*
X92390600Y-167666000D02*
X91605700Y-167666000D01*
X69582500Y-79839800D02*
X69582500Y-94492200D01*
X71181000Y-124241300D02*
X69619600Y-125802700D01*
X94181000Y-98666000D02*
X94181000Y-101241300D01*
X117181000Y-98666000D02*
X117181000Y-101241300D01*
X69582500Y-94492200D02*
X71181000Y-96090700D01*
%TO.N,RAMP_OUT0-S*%
X90056200Y-51832900D02*
X85413100Y-56476000D01*
X85413100Y-56476000D02*
X83132000Y-56476000D01*
X104743000Y-31435000D02*
X104743000Y-32257300D01*
X90056200Y-46944100D02*
X90056200Y-51832900D01*
X104743000Y-32257300D02*
X90056200Y-46944100D01*
%TO.N,PULSE_OUT0-S*%
X112680100Y-34497900D02*
X112680100Y-52173000D01*
X112680100Y-52173000D02*
X108377100Y-56476000D01*
X115743000Y-31435000D02*
X112680100Y-34497900D01*
X108377100Y-56476000D02*
X106132000Y-56476000D01*
%TO.N,RAMP_OUT1-S*%
X90599800Y-48118200D02*
X104743000Y-33975000D01*
X90599800Y-56609800D02*
X90599800Y-48118200D01*
X83132000Y-79476000D02*
X83132000Y-64077600D01*
X83132000Y-64077600D02*
X90599800Y-56609800D01*
%TO.N,PULSE_OUT1-S*%
X113550100Y-36167900D02*
X113550100Y-53794600D01*
X113550100Y-53794600D02*
X106132000Y-61212700D01*
X106132000Y-61212700D02*
X106132000Y-79476000D01*
X115743000Y-33975000D02*
X113550100Y-36167900D01*
%TO.N,RAMP_OUT2-S*%
X86525600Y-93553900D02*
X86525600Y-78327600D01*
X91682800Y-73170400D02*
X91682800Y-60083800D01*
X86525600Y-78327600D02*
X91682800Y-73170400D01*
X91682800Y-60083800D02*
X91604400Y-60005400D01*
X91604400Y-60005400D02*
X91604400Y-49653600D01*
X83132000Y-102476000D02*
X83132000Y-96947500D01*
X83132000Y-96947500D02*
X86525600Y-93553900D01*
X91604400Y-49653600D02*
X104743000Y-36515000D01*
%TO.N,PULSE_OUT2-S*%
X114089300Y-73763900D02*
X109525600Y-78327600D01*
X114680100Y-60737500D02*
X114680100Y-70625500D01*
X106132000Y-96946100D02*
X106132000Y-102476000D01*
X114101500Y-38156500D02*
X114101500Y-60158900D01*
X109525600Y-78327600D02*
X109525600Y-93552500D01*
X109525600Y-93552500D02*
X106132000Y-96946100D01*
X114101500Y-60158900D02*
X114680100Y-60737500D01*
X115743000Y-36515000D02*
X114101500Y-38156500D01*
X114089300Y-71216300D02*
X114089300Y-73763900D01*
X114680100Y-70625500D02*
X114089300Y-71216300D01*
%TO.N,RAMP_OUT4-S*%
X90486100Y-142093300D02*
X90486100Y-143367100D01*
X105918400Y-37040600D02*
X105174000Y-37785000D01*
X98131600Y-43988200D02*
X98131600Y-134447800D01*
X104334800Y-37785000D02*
X98131600Y-43988200D01*
X98131600Y-134447800D02*
X90486100Y-142093300D01*
X90486100Y-143367100D02*
X85377200Y-148476000D01*
X105918400Y-35339600D02*
X105918400Y-37040600D01*
X85377200Y-148476000D02*
X83132000Y-148476000D01*
X107283000Y-33975000D02*
X105918400Y-35339600D01*
X105174000Y-37785000D02*
X104334800Y-37785000D01*
%TO.N,PULSE_OUT4-S*%
X116163400Y-37784300D02*
X115330700Y-37784300D01*
X115130500Y-71448900D02*
X114593600Y-71985800D01*
X114714400Y-104678800D02*
X114714400Y-119138800D01*
X114714000Y-81678400D02*
X114714000Y-96139200D01*
X114688200Y-142165000D02*
X108377200Y-148476000D01*
X114593600Y-81558000D02*
X114714000Y-81678400D01*
X108377200Y-148476000D02*
X106132000Y-148476000D01*
X114593500Y-96259700D02*
X114593500Y-104557900D01*
X114593500Y-104557900D02*
X114714400Y-104678800D01*
X114714400Y-119138800D02*
X114564900Y-119288300D01*
X117013000Y-36934700D02*
X116163400Y-37784300D01*
X115330700Y-37784300D02*
X114551900Y-38563100D01*
X114551900Y-38563100D02*
X114551900Y-55241400D01*
X114593600Y-71985800D02*
X114593600Y-81558000D01*
X114688200Y-131068600D02*
X114688200Y-142165000D01*
X114551900Y-55241400D02*
X115130500Y-55820000D01*
X114714000Y-96139200D02*
X114593500Y-96259700D01*
X118283000Y-33975000D02*
X117013000Y-35245000D01*
X117013000Y-35245000D02*
X117013000Y-36934700D01*
X114564900Y-119288300D02*
X114564900Y-130945300D01*
X115130500Y-55820000D02*
X115130500Y-71448900D01*
X114564900Y-130945300D02*
X114688200Y-131068600D01*
%TO.N,PULSE_OUT5-S*%
X120783300Y-159069900D02*
X108377200Y-171476000D01*
X120783300Y-39015300D02*
X120783300Y-159069900D01*
X118283000Y-36515000D02*
X120783300Y-39015300D01*
X108377200Y-171476000D02*
X106132000Y-171476000D01*
%TO.N,RAMP_OUT5-S*%
X108490100Y-37722100D02*
X108490100Y-39510200D01*
X102162900Y-45837400D02*
X102162900Y-131371700D01*
X91593600Y-141941000D02*
X91593600Y-150558000D01*
X108490100Y-39510200D02*
X102162900Y-45837400D01*
X107283000Y-36515000D02*
X108490100Y-37722100D01*
X91680200Y-150644600D02*
X91680200Y-165173000D01*
X91593600Y-150558000D02*
X91680200Y-150644600D01*
X91680200Y-165173000D02*
X85377200Y-171476000D01*
X102162900Y-131371700D02*
X91593600Y-141941000D01*
X85377200Y-171476000D02*
X83132000Y-171476000D01*
%TO.N,GATE_OUT2-N*%
X63178400Y-96251400D02*
X64069000Y-97142000D01*
X63178400Y-78042800D02*
X63178400Y-96251400D01*
X61438600Y-52448600D02*
X62763600Y-53773600D01*
X61549600Y-32759700D02*
X62740400Y-33950500D01*
X61450700Y-72947700D02*
X61450700Y-76315100D01*
X59902600Y-33449400D02*
X60592300Y-32759700D01*
X61438600Y-49809700D02*
X61438600Y-52448600D01*
X62763600Y-71634800D02*
X61450700Y-72947700D01*
X61450700Y-76315100D02*
X63178400Y-78042800D01*
X59902600Y-35150400D02*
X59902600Y-33449400D01*
X62740400Y-48507900D02*
X61438600Y-49809700D01*
X58538000Y-36515000D02*
X59902600Y-35150400D01*
X62740400Y-33950500D02*
X62740400Y-48507900D01*
X62763600Y-53773600D02*
X62763600Y-71634800D01*
X60592300Y-32759700D02*
X61549600Y-32759700D01*
%TO.N,GATE_OUT3-N*%
X63525600Y-101327600D02*
X63525600Y-119598600D01*
X67784300Y-57748700D02*
X68697000Y-58661400D01*
X61078000Y-31435000D02*
X67784300Y-38141300D01*
X68703100Y-84159900D02*
X68703100Y-96150100D01*
X68703100Y-96150100D02*
X63525600Y-101327600D01*
X67784300Y-38141300D02*
X67784300Y-57748700D01*
X68582900Y-84039700D02*
X68703100Y-84159900D01*
X68697000Y-73156200D02*
X68582900Y-73270300D01*
X68582900Y-73270300D02*
X68582900Y-84039700D01*
X63525600Y-119598600D02*
X64069000Y-120142000D01*
X68697000Y-58661400D02*
X68697000Y-73156200D01*
%TO.N,RAMP_OUT0-N*%
X78990800Y-43063800D02*
X87069000Y-51142000D01*
X69538000Y-31435000D02*
X70717200Y-30255800D01*
X72592400Y-30255800D02*
X78990800Y-36654200D01*
X78990800Y-36654200D02*
X78990800Y-43063800D01*
X70717200Y-30255800D02*
X72592400Y-30255800D01*
%TO.N,PULSE_OUT0-N*%
X83168500Y-28804500D02*
X80538000Y-31435000D01*
X110069000Y-51142000D02*
X110324600Y-50886400D01*
X107621700Y-28804500D02*
X83168500Y-28804500D01*
X110324600Y-50886400D02*
X110324600Y-31507400D01*
X110324600Y-31507400D02*
X107621700Y-28804500D01*
%TO.N,RAMP_OUT1-N*%
X77678900Y-37900000D02*
X77678900Y-64751900D01*
X72563300Y-32784400D02*
X77678900Y-37900000D01*
X69538000Y-33975000D02*
X70728600Y-32784400D01*
X70728600Y-32784400D02*
X72563300Y-32784400D01*
%TO.N,RAMP_OUT2-N*%
X69538000Y-36515000D02*
X70753300Y-35299700D01*
X76358300Y-39129600D02*
X76358300Y-86431300D01*
X70753300Y-35299700D02*
X72528400Y-35299700D01*
X72528400Y-35299700D02*
X76358300Y-39129600D01*
%TO.N,RAMP_OUT3-N*%
X78487100Y-111560100D02*
X87069000Y-120142000D01*
X78487100Y-37844100D02*
X78487100Y-111560100D01*
X72078000Y-31435000D02*
X78487100Y-37844100D01*
%TO.N,PULSE_OUT3-N*%
X109841100Y-31668700D02*
X109841100Y-47144500D01*
X103514100Y-53471500D02*
X103514100Y-113587100D01*
X107493600Y-29321200D02*
X109841100Y-31668700D01*
X109841100Y-47144500D02*
X103514100Y-53471500D01*
X85191800Y-29321200D02*
X107493600Y-29321200D01*
X103514100Y-113587100D02*
X110069000Y-120142000D01*
X83078000Y-31435000D02*
X85191800Y-29321200D01*
%TO.N,RAMP_OUT4-N*%
X77274900Y-133347900D02*
X77274900Y-66503800D01*
X77274900Y-66503800D02*
X76947700Y-66176600D01*
X76947700Y-38844700D02*
X72078000Y-33975000D01*
X87069000Y-143142000D02*
X77274900Y-133347900D01*
X76947700Y-66176600D02*
X76947700Y-38844700D01*
%TO.N,PULSE_OUT4-N*%
X103063700Y-46210400D02*
X109390800Y-39883300D01*
X110069000Y-143142000D02*
X103063700Y-136136700D01*
X103063700Y-136136700D02*
X103063700Y-46210400D01*
X109390800Y-39883300D02*
X109390800Y-31855300D01*
X107317400Y-29781900D02*
X87271100Y-29781900D01*
X87271100Y-29781900D02*
X83078000Y-33975000D01*
X109390800Y-31855300D02*
X107317400Y-29781900D01*
%TO.N,RAMP_OUT5-N*%
X72078000Y-36515000D02*
X74772400Y-39209400D01*
X74772400Y-39209400D02*
X74772400Y-153845400D01*
X74772400Y-153845400D02*
X87069000Y-166142000D01*
%TO.N,PULSE_OUT5-N*%
X102613300Y-158686300D02*
X102613300Y-46023900D01*
X105581600Y-30235400D02*
X89357600Y-30235400D01*
X102613300Y-46023900D02*
X108940500Y-39696700D01*
X106818700Y-32705000D02*
X106013500Y-31899800D01*
X107741100Y-32705000D02*
X106818700Y-32705000D01*
X106013500Y-30667300D02*
X105581600Y-30235400D01*
X110069000Y-166142000D02*
X102613300Y-158686300D01*
X106013500Y-31899800D02*
X106013500Y-30667300D01*
X108940500Y-33904400D02*
X107741100Y-32705000D01*
X108940500Y-39696700D02*
X108940500Y-33904400D01*
X89357600Y-30235400D02*
X83078000Y-36515000D01*
%TO.N,+12V*%
X74209800Y-188224800D02*
X72973000Y-186988000D01*
X98368000Y-187057000D02*
X97200200Y-188224800D01*
X97200200Y-188224800D02*
X74209800Y-188224800D01*
%TO.N,Net-(H1-Pad1)*%
X56655700Y-185817700D02*
X56655700Y-20838300D01*
X56655700Y-20838300D02*
X57657000Y-19837000D01*
X57669000Y-186831000D02*
X56655700Y-185817700D01*
%TO.N,GATE_OUT4-N*%
X62284800Y-48249800D02*
X57556300Y-52978300D01*
X62284800Y-35181800D02*
X62284800Y-48249800D01*
X61078000Y-33975000D02*
X62284800Y-35181800D01*
X57556300Y-52978300D02*
X57556300Y-136629300D01*
X57556300Y-136629300D02*
X64069000Y-143142000D01*
%TO.N,GATE_OUT5-N*%
X59808000Y-37785000D02*
X59808000Y-50018300D01*
X57106000Y-52720300D02*
X57106000Y-159179000D01*
X61078000Y-36515000D02*
X59808000Y-37785000D01*
X57106000Y-159179000D02*
X64069000Y-166142000D01*
X59808000Y-50018300D02*
X57106000Y-52720300D01*
%TD*%
%TA.AperFunction,Conductor*%
%TO.N,GND-S*%
G36*
X123230000Y-16111613D02*
G01*
X123275387Y-16157000D01*
X123292000Y-16219000D01*
X123292000Y-189624638D01*
X123282561Y-189672091D01*
X123255681Y-189712319D01*
X122420319Y-190547681D01*
X122380091Y-190574561D01*
X122332638Y-190584000D01*
X56949362Y-190584000D01*
X56901909Y-190574561D01*
X56861681Y-190547681D01*
X56485592Y-190171592D01*
X56453102Y-190114488D01*
X56454348Y-190048800D01*
X56488979Y-189992969D01*
X56547274Y-189962667D01*
X56612863Y-189966401D01*
X56782583Y-190023587D01*
X57132958Y-190100711D01*
X57454632Y-190135695D01*
X57489617Y-190139500D01*
X57489618Y-190139500D01*
X57848382Y-190139500D01*
X57848383Y-190139500D01*
X57880242Y-190136035D01*
X58205042Y-190100711D01*
X58555417Y-190023587D01*
X58895401Y-189909033D01*
X59221005Y-189758393D01*
X59528414Y-189573431D01*
X59814023Y-189356317D01*
X60074484Y-189109595D01*
X60306742Y-188836159D01*
X60508075Y-188539215D01*
X60632067Y-188305342D01*
X60676123Y-188222244D01*
X60808915Y-187888962D01*
X60851780Y-187734576D01*
X60904895Y-187543274D01*
X60962936Y-187189237D01*
X60982359Y-186831000D01*
X60962936Y-186472763D01*
X60904895Y-186118726D01*
X60848555Y-185915809D01*
X60808915Y-185773037D01*
X60676123Y-185439755D01*
X60508077Y-185122789D01*
X60508075Y-185122785D01*
X60306742Y-184825841D01*
X60306740Y-184825838D01*
X60074483Y-184552404D01*
X59964266Y-184448000D01*
X71609843Y-184448000D01*
X71628435Y-184672363D01*
X71628435Y-184672366D01*
X71628436Y-184672368D01*
X71678623Y-184870553D01*
X71683705Y-184890618D01*
X71774138Y-185096788D01*
X71774140Y-185096791D01*
X71897278Y-185285268D01*
X72037655Y-185437757D01*
X72049762Y-185450908D01*
X72087517Y-185480294D01*
X72126992Y-185533381D01*
X72133553Y-185599211D01*
X72105331Y-185659045D01*
X72062327Y-185687839D01*
X72062598Y-185688277D01*
X72050875Y-185695507D01*
X72050361Y-185695852D01*
X72050265Y-185695883D01*
X71899345Y-185788971D01*
X71773971Y-185914345D01*
X71680884Y-186065263D01*
X71625112Y-186233573D01*
X71614500Y-186337455D01*
X71614500Y-187638544D01*
X71625112Y-187742425D01*
X71680884Y-187910736D01*
X71680885Y-187910738D01*
X71705560Y-187950742D01*
X71773971Y-188061654D01*
X71899345Y-188187028D01*
X71899347Y-188187029D01*
X71899348Y-188187030D01*
X72050262Y-188280115D01*
X72126394Y-188305342D01*
X72218573Y-188335887D01*
X72228202Y-188336870D01*
X72322455Y-188346500D01*
X73384233Y-188346499D01*
X73431686Y-188355938D01*
X73471914Y-188382818D01*
X73702710Y-188613614D01*
X73715759Y-188629901D01*
X73717799Y-188631816D01*
X73717800Y-188631818D01*
X73767501Y-188678490D01*
X73770234Y-188681138D01*
X73790030Y-188700934D01*
X73793293Y-188703465D01*
X73802169Y-188711045D01*
X73834479Y-188741386D01*
X73852372Y-188751222D01*
X73868631Y-188761903D01*
X73884759Y-188774413D01*
X73925425Y-188792010D01*
X73935906Y-188797146D01*
X73941882Y-188800431D01*
X73974740Y-188818495D01*
X73994510Y-188823571D01*
X74012915Y-188829871D01*
X74031655Y-188837981D01*
X74075418Y-188844911D01*
X74086845Y-188847278D01*
X74129770Y-188858300D01*
X74150191Y-188858300D01*
X74169588Y-188859826D01*
X74178355Y-188861215D01*
X74189742Y-188863019D01*
X74189742Y-188863018D01*
X74189743Y-188863019D01*
X74233849Y-188858849D01*
X74245518Y-188858300D01*
X97116567Y-188858300D01*
X97137308Y-188860589D01*
X97140105Y-188860501D01*
X97140109Y-188860502D01*
X97208217Y-188858360D01*
X97212113Y-188858300D01*
X97240054Y-188858300D01*
X97240056Y-188858300D01*
X97244156Y-188857781D01*
X97255806Y-188856864D01*
X97300089Y-188855473D01*
X97319698Y-188849775D01*
X97338731Y-188845833D01*
X97358997Y-188843274D01*
X97400206Y-188826957D01*
X97411237Y-188823180D01*
X97453793Y-188810818D01*
X97471360Y-188800428D01*
X97488832Y-188791868D01*
X97507817Y-188784352D01*
X97543675Y-188758298D01*
X97553423Y-188751896D01*
X97591562Y-188729342D01*
X97606000Y-188714903D01*
X97620788Y-188702272D01*
X97637307Y-188690272D01*
X97665559Y-188656119D01*
X97673403Y-188647499D01*
X97869084Y-188451818D01*
X97909313Y-188424938D01*
X97956766Y-188415499D01*
X99018545Y-188415499D01*
X99070484Y-188410193D01*
X99122426Y-188404887D01*
X99290738Y-188349115D01*
X99441652Y-188256030D01*
X99567030Y-188130652D01*
X99660115Y-187979738D01*
X99660247Y-187979338D01*
X99662206Y-187976344D01*
X99667723Y-187967402D01*
X99667963Y-187967550D01*
X99695125Y-187926060D01*
X99751853Y-187897118D01*
X99815465Y-187900150D01*
X99869182Y-187934357D01*
X99965834Y-188039347D01*
X99984760Y-188059906D01*
X100162424Y-188198189D01*
X100360426Y-188305342D01*
X100573365Y-188378444D01*
X100795431Y-188415500D01*
X101020569Y-188415500D01*
X101242635Y-188378444D01*
X101455574Y-188305342D01*
X101653576Y-188198189D01*
X101687320Y-188171925D01*
X102686625Y-188171925D01*
X102770420Y-188230599D01*
X102984507Y-188330430D01*
X103212681Y-188391569D01*
X103448000Y-188412157D01*
X103683318Y-188391569D01*
X103911492Y-188330430D01*
X104125576Y-188230600D01*
X104209373Y-188171925D01*
X103448000Y-187410553D01*
X102686625Y-188171925D01*
X101687320Y-188171925D01*
X101831240Y-188059906D01*
X101983722Y-187894268D01*
X102077748Y-187750349D01*
X102121664Y-187709595D01*
X102179563Y-187694188D01*
X102237927Y-187707726D01*
X102283131Y-187747049D01*
X102333072Y-187818373D01*
X102333073Y-187818373D01*
X103094447Y-187057001D01*
X103801553Y-187057001D01*
X104562925Y-187818373D01*
X104621600Y-187734576D01*
X104721430Y-187520492D01*
X104782569Y-187292318D01*
X104803157Y-187057000D01*
X104783209Y-186828999D01*
X116341640Y-186828999D01*
X116361063Y-187187230D01*
X116419106Y-187541278D01*
X116515084Y-187886962D01*
X116647876Y-188220244D01*
X116756399Y-188424938D01*
X116815925Y-188537215D01*
X116890692Y-188647488D01*
X117017259Y-188834161D01*
X117249516Y-189107595D01*
X117509975Y-189354316D01*
X117795586Y-189571431D01*
X118102995Y-189756393D01*
X118428599Y-189907033D01*
X118768583Y-190021587D01*
X119118958Y-190098711D01*
X119440632Y-190133695D01*
X119475617Y-190137500D01*
X119475618Y-190137500D01*
X119834382Y-190137500D01*
X119834383Y-190137500D01*
X119866242Y-190134035D01*
X120191042Y-190098711D01*
X120541417Y-190021587D01*
X120881401Y-189907033D01*
X121207005Y-189756393D01*
X121514414Y-189571431D01*
X121800023Y-189354317D01*
X122060484Y-189107595D01*
X122292742Y-188834159D01*
X122494075Y-188537215D01*
X122595186Y-188346499D01*
X122662123Y-188220244D01*
X122794915Y-187886962D01*
X122832845Y-187750351D01*
X122890895Y-187541274D01*
X122948936Y-187187237D01*
X122968359Y-186829000D01*
X122948936Y-186470763D01*
X122890895Y-186116726D01*
X122829626Y-185896055D01*
X122794915Y-185771037D01*
X122662123Y-185437755D01*
X122494077Y-185120789D01*
X122494075Y-185120785D01*
X122292742Y-184823841D01*
X122292740Y-184823838D01*
X122060483Y-184550404D01*
X121800024Y-184303683D01*
X121514413Y-184086568D01*
X121207002Y-183901605D01*
X120923450Y-183770421D01*
X120881401Y-183750967D01*
X120541417Y-183636413D01*
X120541416Y-183636412D01*
X120541414Y-183636412D01*
X120328819Y-183589616D01*
X120191042Y-183559289D01*
X120012712Y-183539894D01*
X119834383Y-183520500D01*
X119834382Y-183520500D01*
X119475618Y-183520500D01*
X119475617Y-183520500D01*
X119118958Y-183559289D01*
X118768585Y-183636412D01*
X118640023Y-183679730D01*
X118428599Y-183750967D01*
X118428596Y-183750968D01*
X118428594Y-183750969D01*
X118102997Y-183901605D01*
X117795586Y-184086568D01*
X117509975Y-184303683D01*
X117249516Y-184550404D01*
X117017259Y-184823838D01*
X116815922Y-185120789D01*
X116647876Y-185437755D01*
X116515084Y-185771037D01*
X116420794Y-186110643D01*
X116419105Y-186116726D01*
X116407430Y-186187940D01*
X116361063Y-186470769D01*
X116341640Y-186828999D01*
X104783209Y-186828999D01*
X104782569Y-186821681D01*
X104721430Y-186593507D01*
X104621599Y-186379421D01*
X104562926Y-186295626D01*
X104562925Y-186295625D01*
X103801553Y-187057000D01*
X103801553Y-187057001D01*
X103094447Y-187057001D01*
X103094447Y-187057000D01*
X102333073Y-186295626D01*
X102283133Y-186366950D01*
X102237929Y-186406273D01*
X102179565Y-186419812D01*
X102121665Y-186404405D01*
X102077748Y-186363649D01*
X101983723Y-186219732D01*
X101905041Y-186134262D01*
X101831240Y-186054094D01*
X101687316Y-185942072D01*
X102686625Y-185942072D01*
X103448000Y-186703447D01*
X103448001Y-186703447D01*
X104209373Y-185942073D01*
X104209373Y-185942072D01*
X104132969Y-185888574D01*
X104094103Y-185844256D01*
X104080092Y-185786999D01*
X104094103Y-185729742D01*
X104132969Y-185685424D01*
X104209373Y-185631925D01*
X103448000Y-184870553D01*
X102686625Y-185631925D01*
X102763031Y-185685425D01*
X102801897Y-185729744D01*
X102815907Y-185787001D01*
X102801896Y-185844258D01*
X102763029Y-185888576D01*
X102686625Y-185942072D01*
X101687316Y-185942072D01*
X101653576Y-185915811D01*
X101617067Y-185896053D01*
X101569563Y-185850474D01*
X101552086Y-185787000D01*
X101569563Y-185723526D01*
X101617067Y-185677946D01*
X101653576Y-185658189D01*
X101831240Y-185519906D01*
X101983722Y-185354268D01*
X102077748Y-185210349D01*
X102121664Y-185169595D01*
X102179563Y-185154188D01*
X102237927Y-185167726D01*
X102283131Y-185207049D01*
X102333072Y-185278373D01*
X102333073Y-185278373D01*
X103094447Y-184517001D01*
X103801553Y-184517001D01*
X104562925Y-185278373D01*
X104621600Y-185194576D01*
X104721430Y-184980492D01*
X104782569Y-184752318D01*
X104803157Y-184517000D01*
X104782569Y-184281681D01*
X104721430Y-184053507D01*
X104621599Y-183839421D01*
X104562926Y-183755626D01*
X104562925Y-183755625D01*
X103801553Y-184517000D01*
X103801553Y-184517001D01*
X103094447Y-184517001D01*
X103094447Y-184517000D01*
X102333073Y-183755626D01*
X102283133Y-183826950D01*
X102237929Y-183866273D01*
X102179565Y-183879812D01*
X102121665Y-183864405D01*
X102077748Y-183823649D01*
X101983723Y-183679732D01*
X101872845Y-183559289D01*
X101831240Y-183514094D01*
X101687316Y-183402072D01*
X102686625Y-183402072D01*
X103448000Y-184163447D01*
X103448001Y-184163447D01*
X104209373Y-183402073D01*
X104209373Y-183402072D01*
X104125580Y-183343400D01*
X103911492Y-183243569D01*
X103683318Y-183182430D01*
X103448000Y-183161842D01*
X103212681Y-183182430D01*
X102984507Y-183243569D01*
X102770422Y-183343399D01*
X102686625Y-183402072D01*
X101687316Y-183402072D01*
X101653576Y-183375811D01*
X101455574Y-183268658D01*
X101455573Y-183268657D01*
X101455572Y-183268657D01*
X101242636Y-183195556D01*
X101020569Y-183158500D01*
X100795431Y-183158500D01*
X100573363Y-183195556D01*
X100360427Y-183268657D01*
X100162424Y-183375811D01*
X99984760Y-183514094D01*
X99832275Y-183679734D01*
X99741807Y-183818205D01*
X99697016Y-183859438D01*
X99637998Y-183874383D01*
X99578981Y-183859437D01*
X99534190Y-183818204D01*
X99443722Y-183679732D01*
X99405684Y-183638412D01*
X99291240Y-183514094D01*
X99113576Y-183375811D01*
X98915574Y-183268658D01*
X98915573Y-183268657D01*
X98915572Y-183268657D01*
X98702636Y-183195556D01*
X98480569Y-183158500D01*
X98255431Y-183158500D01*
X98033363Y-183195556D01*
X97820427Y-183268657D01*
X97622424Y-183375811D01*
X97444760Y-183514094D01*
X97292279Y-183679730D01*
X97169138Y-183868211D01*
X97098000Y-184030393D01*
X97078704Y-184074384D01*
X97056150Y-184163447D01*
X97023435Y-184292636D01*
X97004843Y-184517000D01*
X97023435Y-184741363D01*
X97023435Y-184741366D01*
X97023436Y-184741368D01*
X97066517Y-184911492D01*
X97078705Y-184959618D01*
X97169138Y-185165788D01*
X97169140Y-185165791D01*
X97292278Y-185354268D01*
X97381240Y-185450906D01*
X97444762Y-185519908D01*
X97482517Y-185549294D01*
X97521992Y-185602381D01*
X97528553Y-185668211D01*
X97500331Y-185728045D01*
X97457327Y-185756839D01*
X97457598Y-185757277D01*
X97445875Y-185764507D01*
X97445361Y-185764852D01*
X97445265Y-185764883D01*
X97294345Y-185857971D01*
X97168971Y-185983345D01*
X97075884Y-186134263D01*
X97020112Y-186302573D01*
X97010400Y-186397643D01*
X97009710Y-186404405D01*
X97009500Y-186406456D01*
X97009500Y-187467300D01*
X96992887Y-187529300D01*
X96947500Y-187574687D01*
X96885500Y-187591300D01*
X79450569Y-187591300D01*
X79395725Y-187578512D01*
X79352193Y-187542786D01*
X79328952Y-187491491D01*
X79330794Y-187435206D01*
X79387569Y-187223318D01*
X79408157Y-186987999D01*
X79387569Y-186752681D01*
X79326430Y-186524507D01*
X79226599Y-186310421D01*
X79167926Y-186226626D01*
X79167925Y-186226625D01*
X78140680Y-187253871D01*
X78085093Y-187285965D01*
X78020905Y-187285965D01*
X77965318Y-187253871D01*
X76938073Y-186226626D01*
X76888133Y-186297950D01*
X76842929Y-186337273D01*
X76784565Y-186350812D01*
X76726665Y-186335405D01*
X76682748Y-186294649D01*
X76588723Y-186150732D01*
X76510041Y-186065262D01*
X76436240Y-185985094D01*
X76292316Y-185873072D01*
X77291625Y-185873072D01*
X78053000Y-186634447D01*
X78053001Y-186634447D01*
X78814373Y-185873073D01*
X78814373Y-185873072D01*
X78737969Y-185819574D01*
X78699103Y-185775256D01*
X78685092Y-185717999D01*
X78699103Y-185660742D01*
X78737969Y-185616424D01*
X78814373Y-185562925D01*
X78053000Y-184801553D01*
X77291625Y-185562925D01*
X77368031Y-185616425D01*
X77406897Y-185660744D01*
X77420907Y-185718001D01*
X77406896Y-185775258D01*
X77368029Y-185819576D01*
X77291625Y-185873072D01*
X76292316Y-185873072D01*
X76258576Y-185846811D01*
X76222067Y-185827053D01*
X76174563Y-185781474D01*
X76157086Y-185718000D01*
X76174563Y-185654526D01*
X76222067Y-185608946D01*
X76258576Y-185589189D01*
X76436240Y-185450906D01*
X76588722Y-185285268D01*
X76682748Y-185141349D01*
X76726664Y-185100595D01*
X76784563Y-185085188D01*
X76842927Y-185098726D01*
X76888131Y-185138049D01*
X76938072Y-185209373D01*
X76938073Y-185209373D01*
X77699447Y-184448001D01*
X78406553Y-184448001D01*
X79167925Y-185209373D01*
X79226600Y-185125576D01*
X79326430Y-184911492D01*
X79387569Y-184683318D01*
X79408157Y-184448000D01*
X79387569Y-184212681D01*
X79326430Y-183984507D01*
X79226599Y-183770421D01*
X79167926Y-183686626D01*
X79167925Y-183686625D01*
X78406553Y-184448000D01*
X78406553Y-184448001D01*
X77699447Y-184448001D01*
X77699447Y-184448000D01*
X76938073Y-183686626D01*
X76888133Y-183757950D01*
X76842929Y-183797273D01*
X76784565Y-183810812D01*
X76726665Y-183795405D01*
X76682748Y-183754649D01*
X76588723Y-183610732D01*
X76503043Y-183517661D01*
X76436240Y-183445094D01*
X76292316Y-183333072D01*
X77291625Y-183333072D01*
X78053000Y-184094447D01*
X78053001Y-184094447D01*
X78814373Y-183333073D01*
X78814373Y-183333072D01*
X78730580Y-183274400D01*
X78516492Y-183174569D01*
X78288318Y-183113430D01*
X78053000Y-183092842D01*
X77817681Y-183113430D01*
X77589507Y-183174569D01*
X77375422Y-183274399D01*
X77291625Y-183333072D01*
X76292316Y-183333072D01*
X76258576Y-183306811D01*
X76060574Y-183199658D01*
X76060573Y-183199657D01*
X76060572Y-183199657D01*
X75847636Y-183126556D01*
X75625569Y-183089500D01*
X75400431Y-183089500D01*
X75178363Y-183126556D01*
X74965427Y-183199657D01*
X74767424Y-183306811D01*
X74589760Y-183445094D01*
X74437279Y-183610730D01*
X74346809Y-183749205D01*
X74302017Y-183790438D01*
X74243000Y-183805383D01*
X74183983Y-183790438D01*
X74139191Y-183749205D01*
X74093802Y-183679732D01*
X74048722Y-183610732D01*
X73896240Y-183445094D01*
X73718576Y-183306811D01*
X73520574Y-183199658D01*
X73520573Y-183199657D01*
X73520572Y-183199657D01*
X73307636Y-183126556D01*
X73085569Y-183089500D01*
X72860431Y-183089500D01*
X72638363Y-183126556D01*
X72425427Y-183199657D01*
X72227424Y-183306811D01*
X72049760Y-183445094D01*
X71897279Y-183610730D01*
X71774138Y-183799211D01*
X71703329Y-183960643D01*
X71683704Y-184005384D01*
X71663145Y-184086569D01*
X71628435Y-184223636D01*
X71609843Y-184448000D01*
X59964266Y-184448000D01*
X59814024Y-184305683D01*
X59528413Y-184088568D01*
X59221002Y-183903605D01*
X58933127Y-183770421D01*
X58895401Y-183752967D01*
X58555417Y-183638413D01*
X58555416Y-183638412D01*
X58555414Y-183638412D01*
X58342819Y-183591616D01*
X58205042Y-183561289D01*
X58026712Y-183541894D01*
X57848383Y-183522500D01*
X57848382Y-183522500D01*
X57489618Y-183522500D01*
X57426606Y-183529352D01*
X57359111Y-183517661D01*
X57308121Y-183471917D01*
X57289200Y-183406080D01*
X57289200Y-178333999D01*
X63337457Y-178333999D01*
X63357607Y-178667108D01*
X63417763Y-178995364D01*
X63517040Y-179313958D01*
X63517042Y-179313963D01*
X63517043Y-179313965D01*
X63654005Y-179618282D01*
X63826650Y-179903871D01*
X64032459Y-180166567D01*
X64268433Y-180402541D01*
X64531129Y-180608350D01*
X64816718Y-180780995D01*
X65121035Y-180917957D01*
X65439641Y-181017238D01*
X65767892Y-181077393D01*
X66101000Y-181097542D01*
X66434108Y-181077393D01*
X66762359Y-181017238D01*
X67080965Y-180917957D01*
X67385282Y-180780995D01*
X67670871Y-180608350D01*
X67933567Y-180402541D01*
X68169541Y-180166567D01*
X68375350Y-179903871D01*
X68547995Y-179618282D01*
X68684957Y-179313965D01*
X68784238Y-178995359D01*
X68844393Y-178667108D01*
X68864542Y-178334000D01*
X68864542Y-178333999D01*
X86337457Y-178333999D01*
X86357607Y-178667108D01*
X86417763Y-178995364D01*
X86517040Y-179313958D01*
X86517042Y-179313963D01*
X86517043Y-179313965D01*
X86654005Y-179618282D01*
X86826650Y-179903871D01*
X87032459Y-180166567D01*
X87268433Y-180402541D01*
X87531129Y-180608350D01*
X87816718Y-180780995D01*
X88121035Y-180917957D01*
X88439641Y-181017238D01*
X88767892Y-181077393D01*
X89101000Y-181097542D01*
X89434108Y-181077393D01*
X89762359Y-181017238D01*
X90080965Y-180917957D01*
X90385282Y-180780995D01*
X90670871Y-180608350D01*
X90933567Y-180402541D01*
X91169541Y-180166567D01*
X91375350Y-179903871D01*
X91547995Y-179618282D01*
X91684957Y-179313965D01*
X91784238Y-178995359D01*
X91844393Y-178667108D01*
X91864542Y-178334000D01*
X91864542Y-178333999D01*
X109337457Y-178333999D01*
X109357607Y-178667108D01*
X109417763Y-178995364D01*
X109517040Y-179313958D01*
X109517042Y-179313963D01*
X109517043Y-179313965D01*
X109654005Y-179618282D01*
X109826650Y-179903871D01*
X110032459Y-180166567D01*
X110268433Y-180402541D01*
X110531129Y-180608350D01*
X110816718Y-180780995D01*
X111121035Y-180917957D01*
X111439641Y-181017238D01*
X111767892Y-181077393D01*
X112101000Y-181097542D01*
X112434108Y-181077393D01*
X112762359Y-181017238D01*
X113080965Y-180917957D01*
X113385282Y-180780995D01*
X113670871Y-180608350D01*
X113933567Y-180402541D01*
X114169541Y-180166567D01*
X114375350Y-179903871D01*
X114547995Y-179618282D01*
X114684957Y-179313965D01*
X114784238Y-178995359D01*
X114844393Y-178667108D01*
X114864542Y-178334000D01*
X114844393Y-178000892D01*
X114784238Y-177672641D01*
X114684957Y-177354035D01*
X114547995Y-177049718D01*
X114375350Y-176764129D01*
X114169541Y-176501433D01*
X113933567Y-176265459D01*
X113670871Y-176059650D01*
X113385282Y-175887005D01*
X113080965Y-175750043D01*
X113080963Y-175750042D01*
X113080958Y-175750040D01*
X112762364Y-175650763D01*
X112434108Y-175590607D01*
X112101000Y-175570457D01*
X111767891Y-175590607D01*
X111439635Y-175650763D01*
X111121041Y-175750040D01*
X110816717Y-175887005D01*
X110531128Y-176059650D01*
X110268430Y-176265461D01*
X110032461Y-176501430D01*
X109826650Y-176764128D01*
X109654005Y-177049717D01*
X109517040Y-177354041D01*
X109417763Y-177672635D01*
X109357607Y-178000891D01*
X109337457Y-178333999D01*
X91864542Y-178333999D01*
X91844393Y-178000892D01*
X91784238Y-177672641D01*
X91684957Y-177354035D01*
X91547995Y-177049718D01*
X91375350Y-176764129D01*
X91169541Y-176501433D01*
X90933567Y-176265459D01*
X90670871Y-176059650D01*
X90385282Y-175887005D01*
X90080965Y-175750043D01*
X90080963Y-175750042D01*
X90080958Y-175750040D01*
X89762364Y-175650763D01*
X89434108Y-175590607D01*
X89101000Y-175570457D01*
X88767891Y-175590607D01*
X88439635Y-175650763D01*
X88121041Y-175750040D01*
X87816717Y-175887005D01*
X87531128Y-176059650D01*
X87268430Y-176265461D01*
X87032461Y-176501430D01*
X86826650Y-176764128D01*
X86654005Y-177049717D01*
X86517040Y-177354041D01*
X86417763Y-177672635D01*
X86357607Y-178000891D01*
X86337457Y-178333999D01*
X68864542Y-178333999D01*
X68844393Y-178000892D01*
X68784238Y-177672641D01*
X68684957Y-177354035D01*
X68547995Y-177049718D01*
X68375350Y-176764129D01*
X68169541Y-176501433D01*
X67933567Y-176265459D01*
X67670871Y-176059650D01*
X67385282Y-175887005D01*
X67080965Y-175750043D01*
X67080963Y-175750042D01*
X67080958Y-175750040D01*
X66762364Y-175650763D01*
X66434108Y-175590607D01*
X66101000Y-175570457D01*
X65767891Y-175590607D01*
X65439635Y-175650763D01*
X65121041Y-175750040D01*
X64816717Y-175887005D01*
X64531128Y-176059650D01*
X64268430Y-176265461D01*
X64032461Y-176501430D01*
X63826650Y-176764128D01*
X63654005Y-177049717D01*
X63517040Y-177354041D01*
X63417763Y-177672635D01*
X63357607Y-178000891D01*
X63337457Y-178333999D01*
X57289200Y-178333999D01*
X57289200Y-174777999D01*
X69433457Y-174777999D01*
X69453607Y-175111108D01*
X69513763Y-175439364D01*
X69613040Y-175757958D01*
X69613042Y-175757963D01*
X69613043Y-175757965D01*
X69750005Y-176062282D01*
X69922650Y-176347871D01*
X70128459Y-176610567D01*
X70364433Y-176846541D01*
X70627129Y-177052350D01*
X70912718Y-177224995D01*
X71217035Y-177361957D01*
X71535641Y-177461238D01*
X71863892Y-177521393D01*
X72197000Y-177541542D01*
X72530108Y-177521393D01*
X72858359Y-177461238D01*
X73176965Y-177361957D01*
X73481282Y-177224995D01*
X73766871Y-177052350D01*
X74029567Y-176846541D01*
X74265541Y-176610567D01*
X74471350Y-176347871D01*
X74643995Y-176062282D01*
X74780957Y-175757965D01*
X74880238Y-175439359D01*
X74940393Y-175111108D01*
X74960542Y-174778000D01*
X74960542Y-174777999D01*
X92433457Y-174777999D01*
X92453607Y-175111108D01*
X92513763Y-175439364D01*
X92613040Y-175757958D01*
X92613042Y-175757963D01*
X92613043Y-175757965D01*
X92750005Y-176062282D01*
X92922650Y-176347871D01*
X93128459Y-176610567D01*
X93364433Y-176846541D01*
X93627129Y-177052350D01*
X93912718Y-177224995D01*
X94217035Y-177361957D01*
X94535641Y-177461238D01*
X94863892Y-177521393D01*
X95197000Y-177541542D01*
X95530108Y-177521393D01*
X95858359Y-177461238D01*
X96176965Y-177361957D01*
X96481282Y-177224995D01*
X96766871Y-177052350D01*
X97029567Y-176846541D01*
X97265541Y-176610567D01*
X97471350Y-176347871D01*
X97643995Y-176062282D01*
X97780957Y-175757965D01*
X97880238Y-175439359D01*
X97940393Y-175111108D01*
X97960542Y-174778000D01*
X97960542Y-174777999D01*
X115433457Y-174777999D01*
X115453607Y-175111108D01*
X115513763Y-175439364D01*
X115613040Y-175757958D01*
X115613042Y-175757963D01*
X115613043Y-175757965D01*
X115750005Y-176062282D01*
X115922650Y-176347871D01*
X116128459Y-176610567D01*
X116364433Y-176846541D01*
X116627129Y-177052350D01*
X116912718Y-177224995D01*
X117217035Y-177361957D01*
X117535641Y-177461238D01*
X117863892Y-177521393D01*
X118197000Y-177541542D01*
X118530108Y-177521393D01*
X118858359Y-177461238D01*
X119176965Y-177361957D01*
X119481282Y-177224995D01*
X119766871Y-177052350D01*
X120029567Y-176846541D01*
X120265541Y-176610567D01*
X120471350Y-176347871D01*
X120643995Y-176062282D01*
X120780957Y-175757965D01*
X120880238Y-175439359D01*
X120940393Y-175111108D01*
X120960542Y-174778000D01*
X120940393Y-174444892D01*
X120880238Y-174116641D01*
X120780957Y-173798035D01*
X120643995Y-173493718D01*
X120471350Y-173208129D01*
X120265541Y-172945433D01*
X120029567Y-172709459D01*
X119766871Y-172503650D01*
X119481282Y-172331005D01*
X119176965Y-172194043D01*
X119176963Y-172194042D01*
X119176958Y-172194040D01*
X118858364Y-172094763D01*
X118530108Y-172034607D01*
X118197000Y-172014457D01*
X117863891Y-172034607D01*
X117535635Y-172094763D01*
X117217041Y-172194040D01*
X116912717Y-172331005D01*
X116627128Y-172503650D01*
X116364430Y-172709461D01*
X116128461Y-172945430D01*
X115922650Y-173208128D01*
X115750005Y-173493717D01*
X115613040Y-173798041D01*
X115513763Y-174116635D01*
X115453607Y-174444891D01*
X115433457Y-174777999D01*
X97960542Y-174777999D01*
X97940393Y-174444892D01*
X97880238Y-174116641D01*
X97780957Y-173798035D01*
X97643995Y-173493718D01*
X97471350Y-173208129D01*
X97265541Y-172945433D01*
X97029567Y-172709459D01*
X96766871Y-172503650D01*
X96481282Y-172331005D01*
X96176965Y-172194043D01*
X96176963Y-172194042D01*
X96176958Y-172194040D01*
X95858364Y-172094763D01*
X95530108Y-172034607D01*
X95197000Y-172014457D01*
X94863891Y-172034607D01*
X94535635Y-172094763D01*
X94217041Y-172194040D01*
X93912717Y-172331005D01*
X93627128Y-172503650D01*
X93364430Y-172709461D01*
X93128461Y-172945430D01*
X92922650Y-173208128D01*
X92750005Y-173493717D01*
X92613040Y-173798041D01*
X92513763Y-174116635D01*
X92453607Y-174444891D01*
X92433457Y-174777999D01*
X74960542Y-174777999D01*
X74940393Y-174444892D01*
X74880238Y-174116641D01*
X74780957Y-173798035D01*
X74643995Y-173493718D01*
X74471350Y-173208129D01*
X74265541Y-172945433D01*
X74029567Y-172709459D01*
X73766871Y-172503650D01*
X73481282Y-172331005D01*
X73176965Y-172194043D01*
X73176963Y-172194042D01*
X73176958Y-172194040D01*
X72858364Y-172094763D01*
X72530108Y-172034607D01*
X72197000Y-172014457D01*
X71863891Y-172034607D01*
X71535635Y-172094763D01*
X71217041Y-172194040D01*
X70912717Y-172331005D01*
X70627128Y-172503650D01*
X70364430Y-172709461D01*
X70128461Y-172945430D01*
X69922650Y-173208128D01*
X69750005Y-173493717D01*
X69613040Y-173798041D01*
X69513763Y-174116635D01*
X69453607Y-174444891D01*
X69433457Y-174777999D01*
X57289200Y-174777999D01*
X57289200Y-172440041D01*
X57308664Y-172373346D01*
X57360946Y-172327589D01*
X57429633Y-172317135D01*
X57493160Y-172345266D01*
X57531585Y-172403151D01*
X57548040Y-172455958D01*
X57548042Y-172455963D01*
X57548043Y-172455965D01*
X57685005Y-172760282D01*
X57857650Y-173045871D01*
X58063459Y-173308567D01*
X58299433Y-173544541D01*
X58562129Y-173750350D01*
X58847718Y-173922995D01*
X59152035Y-174059957D01*
X59470641Y-174159238D01*
X59798892Y-174219393D01*
X60132000Y-174239542D01*
X60465108Y-174219393D01*
X60793359Y-174159238D01*
X61111965Y-174059957D01*
X61416282Y-173922995D01*
X61701871Y-173750350D01*
X61964567Y-173544541D01*
X62200541Y-173308567D01*
X62406350Y-173045871D01*
X62578995Y-172760282D01*
X62715957Y-172455965D01*
X62815238Y-172137359D01*
X62875393Y-171809108D01*
X62895542Y-171476000D01*
X62875393Y-171142892D01*
X62815238Y-170814641D01*
X62715957Y-170496035D01*
X62578995Y-170191718D01*
X62406350Y-169906129D01*
X62200541Y-169643433D01*
X61964567Y-169407459D01*
X61701871Y-169201650D01*
X61416282Y-169029005D01*
X61111965Y-168892043D01*
X61111963Y-168892042D01*
X61111958Y-168892040D01*
X60793364Y-168792763D01*
X60465108Y-168732607D01*
X60132000Y-168712457D01*
X59798891Y-168732607D01*
X59470635Y-168792763D01*
X59152041Y-168892040D01*
X58847717Y-169029005D01*
X58562128Y-169201650D01*
X58299430Y-169407461D01*
X58063461Y-169643430D01*
X57857650Y-169906128D01*
X57685005Y-170191717D01*
X57548040Y-170496041D01*
X57531585Y-170548849D01*
X57493160Y-170606734D01*
X57429633Y-170634865D01*
X57360946Y-170624411D01*
X57308664Y-170578654D01*
X57289200Y-170511959D01*
X57289200Y-160557466D01*
X57302715Y-160501171D01*
X57340315Y-160457148D01*
X57393802Y-160434993D01*
X57451518Y-160439535D01*
X57500881Y-160469785D01*
X61653834Y-164622738D01*
X61682957Y-164668791D01*
X61689525Y-164722883D01*
X61672270Y-164774568D01*
X61622007Y-164857712D01*
X61485040Y-165162041D01*
X61385763Y-165480635D01*
X61325607Y-165808891D01*
X61305457Y-166142000D01*
X61325607Y-166475108D01*
X61385763Y-166803364D01*
X61485040Y-167121958D01*
X61485042Y-167121963D01*
X61485043Y-167121965D01*
X61622005Y-167426282D01*
X61794650Y-167711871D01*
X62000459Y-167974567D01*
X62236433Y-168210541D01*
X62499129Y-168416350D01*
X62784718Y-168588995D01*
X63089035Y-168725957D01*
X63089040Y-168725958D01*
X63089041Y-168725959D01*
X63248337Y-168775597D01*
X63407641Y-168825238D01*
X63735892Y-168885393D01*
X64069000Y-168905542D01*
X64402108Y-168885393D01*
X64730359Y-168825238D01*
X65048965Y-168725957D01*
X65353282Y-168588995D01*
X65638871Y-168416350D01*
X65901567Y-168210541D01*
X66137541Y-167974567D01*
X66183425Y-167916000D01*
X68431000Y-167916000D01*
X68431000Y-169963824D01*
X68437402Y-170023375D01*
X68487647Y-170158089D01*
X68573811Y-170273188D01*
X68688910Y-170359352D01*
X68823624Y-170409597D01*
X68883176Y-170416000D01*
X70931000Y-170416000D01*
X70931000Y-167916000D01*
X71431000Y-167916000D01*
X71431000Y-170416000D01*
X73478824Y-170416000D01*
X73538375Y-170409597D01*
X73673089Y-170359352D01*
X73788188Y-170273188D01*
X73874352Y-170158089D01*
X73924597Y-170023375D01*
X73931000Y-169963824D01*
X73931000Y-167916000D01*
X71431000Y-167916000D01*
X70931000Y-167916000D01*
X68431000Y-167916000D01*
X66183425Y-167916000D01*
X66343350Y-167711871D01*
X66515995Y-167426282D01*
X66520623Y-167416000D01*
X68431000Y-167416000D01*
X70931000Y-167416000D01*
X70931000Y-164916000D01*
X71431000Y-164916000D01*
X71431000Y-167416000D01*
X73931000Y-167416000D01*
X73931000Y-165368176D01*
X73924597Y-165308624D01*
X73874352Y-165173910D01*
X73788188Y-165058811D01*
X73673089Y-164972647D01*
X73538375Y-164922402D01*
X73478824Y-164916000D01*
X71431000Y-164916000D01*
X70931000Y-164916000D01*
X68883176Y-164916000D01*
X68823624Y-164922402D01*
X68688910Y-164972647D01*
X68573811Y-165058811D01*
X68487647Y-165173910D01*
X68437402Y-165308624D01*
X68431000Y-165368176D01*
X68431000Y-167416000D01*
X66520623Y-167416000D01*
X66652957Y-167121965D01*
X66752238Y-166803359D01*
X66812393Y-166475108D01*
X66832542Y-166142000D01*
X66812393Y-165808892D01*
X66752238Y-165480641D01*
X66652957Y-165162035D01*
X66515995Y-164857718D01*
X66343350Y-164572129D01*
X66137541Y-164309433D01*
X65901567Y-164073459D01*
X65638871Y-163867650D01*
X65353282Y-163695005D01*
X65048965Y-163558043D01*
X65048963Y-163558042D01*
X65048958Y-163558040D01*
X64730364Y-163458763D01*
X64402108Y-163398607D01*
X64069000Y-163378457D01*
X63735891Y-163398607D01*
X63407635Y-163458763D01*
X63089041Y-163558040D01*
X62784712Y-163695007D01*
X62701568Y-163745270D01*
X62649883Y-163762525D01*
X62595791Y-163755957D01*
X62549738Y-163726834D01*
X57775819Y-158952914D01*
X57748939Y-158912686D01*
X57739500Y-158865233D01*
X57739500Y-155333999D01*
X63337457Y-155333999D01*
X63357607Y-155667108D01*
X63417763Y-155995364D01*
X63517040Y-156313958D01*
X63517042Y-156313963D01*
X63517043Y-156313965D01*
X63654005Y-156618282D01*
X63826650Y-156903871D01*
X64032459Y-157166567D01*
X64268433Y-157402541D01*
X64531129Y-157608350D01*
X64816718Y-157780995D01*
X65121035Y-157917957D01*
X65439641Y-158017238D01*
X65767892Y-158077393D01*
X66101000Y-158097542D01*
X66434108Y-158077393D01*
X66762359Y-158017238D01*
X67080965Y-157917957D01*
X67385282Y-157780995D01*
X67670871Y-157608350D01*
X67933567Y-157402541D01*
X68169541Y-157166567D01*
X68375350Y-156903871D01*
X68547995Y-156618282D01*
X68684957Y-156313965D01*
X68784238Y-155995359D01*
X68844393Y-155667108D01*
X68864542Y-155334000D01*
X68844393Y-155000892D01*
X68784238Y-154672641D01*
X68684957Y-154354035D01*
X68547995Y-154049718D01*
X68375350Y-153764129D01*
X68169541Y-153501433D01*
X67933567Y-153265459D01*
X67670871Y-153059650D01*
X67385282Y-152887005D01*
X67080965Y-152750043D01*
X67080963Y-152750042D01*
X67080958Y-152750040D01*
X66762364Y-152650763D01*
X66434108Y-152590607D01*
X66101000Y-152570457D01*
X65767891Y-152590607D01*
X65439635Y-152650763D01*
X65121041Y-152750040D01*
X64816717Y-152887005D01*
X64531128Y-153059650D01*
X64268430Y-153265461D01*
X64032461Y-153501430D01*
X63826650Y-153764128D01*
X63654005Y-154049717D01*
X63517040Y-154354041D01*
X63417763Y-154672635D01*
X63357607Y-155000891D01*
X63337457Y-155333999D01*
X57739500Y-155333999D01*
X57739500Y-150254402D01*
X57754408Y-150195454D01*
X57795546Y-150150680D01*
X57853024Y-150130845D01*
X57913021Y-150140720D01*
X57961110Y-150177928D01*
X58063459Y-150308567D01*
X58299433Y-150544541D01*
X58562129Y-150750350D01*
X58847718Y-150922995D01*
X59152035Y-151059957D01*
X59470641Y-151159238D01*
X59798892Y-151219393D01*
X60132000Y-151239542D01*
X60465108Y-151219393D01*
X60793359Y-151159238D01*
X61111965Y-151059957D01*
X61416282Y-150922995D01*
X61701871Y-150750350D01*
X61964567Y-150544541D01*
X62200541Y-150308567D01*
X62406350Y-150045871D01*
X62578995Y-149760282D01*
X62715957Y-149455965D01*
X62815238Y-149137359D01*
X62875393Y-148809108D01*
X62895542Y-148476000D01*
X62875393Y-148142892D01*
X62815238Y-147814641D01*
X62715957Y-147496035D01*
X62578995Y-147191718D01*
X62406350Y-146906129D01*
X62200541Y-146643433D01*
X61964567Y-146407459D01*
X61701871Y-146201650D01*
X61416282Y-146029005D01*
X61111965Y-145892043D01*
X61111963Y-145892042D01*
X61111958Y-145892040D01*
X60793364Y-145792763D01*
X60465108Y-145732607D01*
X60132000Y-145712457D01*
X59798891Y-145732607D01*
X59470635Y-145792763D01*
X59152041Y-145892040D01*
X58847717Y-146029005D01*
X58562128Y-146201650D01*
X58299430Y-146407461D01*
X58063461Y-146643430D01*
X57961111Y-146774071D01*
X57913021Y-146811280D01*
X57853024Y-146821155D01*
X57795546Y-146801320D01*
X57754408Y-146756546D01*
X57739500Y-146697598D01*
X57739500Y-138007766D01*
X57753015Y-137951471D01*
X57790615Y-137907448D01*
X57844102Y-137885293D01*
X57901818Y-137889835D01*
X57951181Y-137920085D01*
X61653834Y-141622738D01*
X61682957Y-141668791D01*
X61689525Y-141722883D01*
X61672270Y-141774568D01*
X61622007Y-141857712D01*
X61485040Y-142162041D01*
X61385763Y-142480635D01*
X61325607Y-142808891D01*
X61305457Y-143142000D01*
X61325607Y-143475108D01*
X61385763Y-143803364D01*
X61485040Y-144121958D01*
X61485042Y-144121963D01*
X61485043Y-144121965D01*
X61622005Y-144426282D01*
X61794650Y-144711871D01*
X62000459Y-144974567D01*
X62236433Y-145210541D01*
X62499129Y-145416350D01*
X62784718Y-145588995D01*
X63089035Y-145725957D01*
X63089040Y-145725958D01*
X63089041Y-145725959D01*
X63248337Y-145775597D01*
X63407641Y-145825238D01*
X63735892Y-145885393D01*
X64069000Y-145905542D01*
X64402108Y-145885393D01*
X64730359Y-145825238D01*
X65048965Y-145725957D01*
X65353282Y-145588995D01*
X65638871Y-145416350D01*
X65901567Y-145210541D01*
X66137541Y-144974567D01*
X66183425Y-144916000D01*
X68431000Y-144916000D01*
X68431000Y-146963824D01*
X68437402Y-147023375D01*
X68487647Y-147158089D01*
X68573811Y-147273188D01*
X68688910Y-147359352D01*
X68823624Y-147409597D01*
X68883176Y-147416000D01*
X70931000Y-147416000D01*
X70931000Y-144916000D01*
X68431000Y-144916000D01*
X66183425Y-144916000D01*
X66343350Y-144711871D01*
X66515995Y-144426282D01*
X66520623Y-144416000D01*
X68431000Y-144416000D01*
X70931000Y-144416000D01*
X70931000Y-141916000D01*
X68883176Y-141916000D01*
X68823624Y-141922402D01*
X68688910Y-141972647D01*
X68573811Y-142058811D01*
X68487647Y-142173910D01*
X68437402Y-142308624D01*
X68431000Y-142368176D01*
X68431000Y-144416000D01*
X66520623Y-144416000D01*
X66652957Y-144121965D01*
X66752238Y-143803359D01*
X66812393Y-143475108D01*
X66832542Y-143142000D01*
X66812393Y-142808892D01*
X66752238Y-142480641D01*
X66677014Y-142239238D01*
X66652959Y-142162041D01*
X66652958Y-142162040D01*
X66652957Y-142162035D01*
X66515995Y-141857718D01*
X66343350Y-141572129D01*
X66137541Y-141309433D01*
X65901567Y-141073459D01*
X65638871Y-140867650D01*
X65353282Y-140695005D01*
X65048965Y-140558043D01*
X65048963Y-140558042D01*
X65048958Y-140558040D01*
X64730364Y-140458763D01*
X64402108Y-140398607D01*
X64069000Y-140378457D01*
X63735891Y-140398607D01*
X63407635Y-140458763D01*
X63089041Y-140558040D01*
X62784712Y-140695007D01*
X62701568Y-140745270D01*
X62649883Y-140762525D01*
X62595791Y-140755957D01*
X62549738Y-140726834D01*
X58226119Y-136403214D01*
X58199239Y-136362986D01*
X58189800Y-136315533D01*
X58189800Y-132334000D01*
X63337457Y-132334000D01*
X63357607Y-132667108D01*
X63417763Y-132995364D01*
X63517040Y-133313958D01*
X63517042Y-133313963D01*
X63517043Y-133313965D01*
X63654005Y-133618282D01*
X63826650Y-133903871D01*
X64032459Y-134166567D01*
X64268433Y-134402541D01*
X64531129Y-134608350D01*
X64816718Y-134780995D01*
X65121035Y-134917957D01*
X65439641Y-135017238D01*
X65767892Y-135077393D01*
X66101000Y-135097542D01*
X66434108Y-135077393D01*
X66762359Y-135017238D01*
X67080965Y-134917957D01*
X67385282Y-134780995D01*
X67670871Y-134608350D01*
X67933567Y-134402541D01*
X68169541Y-134166567D01*
X68375350Y-133903871D01*
X68547995Y-133618282D01*
X68684957Y-133313965D01*
X68784238Y-132995359D01*
X68844393Y-132667108D01*
X68864542Y-132334000D01*
X68844393Y-132000892D01*
X68784238Y-131672641D01*
X68684957Y-131354035D01*
X68547995Y-131049718D01*
X68375350Y-130764129D01*
X68169541Y-130501433D01*
X67933567Y-130265459D01*
X67670871Y-130059650D01*
X67385282Y-129887005D01*
X67080965Y-129750043D01*
X67080963Y-129750042D01*
X67080958Y-129750040D01*
X66762364Y-129650763D01*
X66434108Y-129590607D01*
X66101000Y-129570457D01*
X65767891Y-129590607D01*
X65439635Y-129650763D01*
X65121041Y-129750040D01*
X64816717Y-129887005D01*
X64531128Y-130059650D01*
X64268430Y-130265461D01*
X64032461Y-130501430D01*
X63826650Y-130764128D01*
X63654005Y-131049717D01*
X63517040Y-131354041D01*
X63417763Y-131672635D01*
X63357607Y-132000891D01*
X63337457Y-132334000D01*
X58189800Y-132334000D01*
X58189800Y-127713320D01*
X58208664Y-127647575D01*
X58259517Y-127601833D01*
X58326886Y-127590012D01*
X58390271Y-127615708D01*
X58562129Y-127750350D01*
X58847718Y-127922995D01*
X59152035Y-128059957D01*
X59470641Y-128159238D01*
X59798892Y-128219393D01*
X60111850Y-128238323D01*
X60131999Y-128239542D01*
X60131999Y-128239541D01*
X60132000Y-128239542D01*
X60465108Y-128219393D01*
X60793359Y-128159238D01*
X61111965Y-128059957D01*
X61416282Y-127922995D01*
X61701871Y-127750350D01*
X61964567Y-127544541D01*
X62200541Y-127308567D01*
X62406350Y-127045871D01*
X62578995Y-126760282D01*
X62715957Y-126455965D01*
X62815238Y-126137359D01*
X62875393Y-125809108D01*
X62895542Y-125476000D01*
X62875393Y-125142892D01*
X62815238Y-124814641D01*
X62715957Y-124496035D01*
X62578995Y-124191718D01*
X62406350Y-123906129D01*
X62200541Y-123643433D01*
X61964567Y-123407459D01*
X61701871Y-123201650D01*
X61416282Y-123029005D01*
X61111965Y-122892043D01*
X61111963Y-122892042D01*
X61111958Y-122892040D01*
X60793364Y-122792763D01*
X60465108Y-122732607D01*
X60132000Y-122712457D01*
X59798891Y-122732607D01*
X59470635Y-122792763D01*
X59152041Y-122892040D01*
X58847717Y-123029005D01*
X58562128Y-123201650D01*
X58460034Y-123281635D01*
X58390271Y-123336291D01*
X58326886Y-123361988D01*
X58259517Y-123350167D01*
X58208664Y-123304425D01*
X58189800Y-123238680D01*
X58189800Y-104713320D01*
X58208664Y-104647575D01*
X58259517Y-104601833D01*
X58326886Y-104590012D01*
X58390271Y-104615708D01*
X58562129Y-104750350D01*
X58847718Y-104922995D01*
X59152035Y-105059957D01*
X59470641Y-105159238D01*
X59798892Y-105219393D01*
X60132000Y-105239542D01*
X60465108Y-105219393D01*
X60793359Y-105159238D01*
X61111965Y-105059957D01*
X61416282Y-104922995D01*
X61701871Y-104750350D01*
X61964567Y-104544541D01*
X62200541Y-104308567D01*
X62406350Y-104045871D01*
X62578995Y-103760282D01*
X62655025Y-103591349D01*
X62697660Y-103540192D01*
X62760613Y-103518468D01*
X62825726Y-103532445D01*
X62874217Y-103578092D01*
X62892100Y-103642242D01*
X62892100Y-117566505D01*
X62883133Y-117612802D01*
X62857529Y-117652403D01*
X62818992Y-117679579D01*
X62800218Y-117688028D01*
X62784719Y-117695004D01*
X62499128Y-117867650D01*
X62236430Y-118073461D01*
X62000461Y-118309430D01*
X61794650Y-118572128D01*
X61622005Y-118857717D01*
X61485040Y-119162041D01*
X61385763Y-119480635D01*
X61325607Y-119808891D01*
X61305457Y-120142000D01*
X61325607Y-120475108D01*
X61385763Y-120803364D01*
X61485040Y-121121958D01*
X61485042Y-121121963D01*
X61485043Y-121121965D01*
X61622005Y-121426282D01*
X61794650Y-121711871D01*
X62000459Y-121974567D01*
X62236433Y-122210541D01*
X62499129Y-122416350D01*
X62784718Y-122588995D01*
X63089035Y-122725957D01*
X63089040Y-122725958D01*
X63089041Y-122725959D01*
X63248338Y-122775597D01*
X63407641Y-122825238D01*
X63735892Y-122885393D01*
X64069000Y-122905542D01*
X64402108Y-122885393D01*
X64730359Y-122825238D01*
X65048965Y-122725957D01*
X65353282Y-122588995D01*
X65638871Y-122416350D01*
X65901567Y-122210541D01*
X66137541Y-121974567D01*
X66183425Y-121916000D01*
X68431000Y-121916000D01*
X68431000Y-123963824D01*
X68437402Y-124023375D01*
X68487647Y-124158089D01*
X68573811Y-124273188D01*
X68688910Y-124359352D01*
X68823624Y-124409597D01*
X68883176Y-124416000D01*
X70931000Y-124416000D01*
X70931000Y-121916000D01*
X68431000Y-121916000D01*
X66183425Y-121916000D01*
X66343350Y-121711871D01*
X66515995Y-121426282D01*
X66520623Y-121416000D01*
X68431000Y-121416000D01*
X70931000Y-121416000D01*
X70931000Y-118916000D01*
X68883176Y-118916000D01*
X68823624Y-118922402D01*
X68688910Y-118972647D01*
X68573811Y-119058811D01*
X68487647Y-119173910D01*
X68437402Y-119308624D01*
X68431000Y-119368176D01*
X68431000Y-121416000D01*
X66520623Y-121416000D01*
X66652957Y-121121965D01*
X66752238Y-120803359D01*
X66812393Y-120475108D01*
X66832542Y-120142000D01*
X66812393Y-119808892D01*
X66752238Y-119480641D01*
X66683935Y-119261447D01*
X66652959Y-119162041D01*
X66652958Y-119162040D01*
X66652957Y-119162035D01*
X66515995Y-118857718D01*
X66343350Y-118572129D01*
X66137541Y-118309433D01*
X65901567Y-118073459D01*
X65638871Y-117867650D01*
X65353282Y-117695005D01*
X65048965Y-117558043D01*
X65048963Y-117558042D01*
X65048958Y-117558040D01*
X64730364Y-117458763D01*
X64402108Y-117398607D01*
X64275611Y-117390955D01*
X64216826Y-117371986D01*
X64174486Y-117327007D01*
X64159100Y-117267182D01*
X64159100Y-111571555D01*
X64177964Y-111505810D01*
X64228817Y-111460068D01*
X64296186Y-111448247D01*
X64359571Y-111473943D01*
X64531129Y-111608350D01*
X64816718Y-111780995D01*
X65121035Y-111917957D01*
X65439641Y-112017238D01*
X65767892Y-112077393D01*
X66101000Y-112097542D01*
X66434108Y-112077393D01*
X66762359Y-112017238D01*
X67080965Y-111917957D01*
X67385282Y-111780995D01*
X67670871Y-111608350D01*
X67933567Y-111402541D01*
X68169541Y-111166567D01*
X68375350Y-110903871D01*
X68547995Y-110618282D01*
X68684957Y-110313965D01*
X68784238Y-109995359D01*
X68844393Y-109667108D01*
X68864542Y-109334000D01*
X68844393Y-109000892D01*
X68784238Y-108672641D01*
X68684957Y-108354035D01*
X68547995Y-108049718D01*
X68375350Y-107764129D01*
X68169541Y-107501433D01*
X67933567Y-107265459D01*
X67670871Y-107059650D01*
X67385282Y-106887005D01*
X67080965Y-106750043D01*
X67080963Y-106750042D01*
X67080958Y-106750040D01*
X66762364Y-106650763D01*
X66632957Y-106627048D01*
X66434108Y-106590607D01*
X66101000Y-106570457D01*
X65767891Y-106590607D01*
X65439635Y-106650763D01*
X65121041Y-106750040D01*
X64816717Y-106887005D01*
X64531128Y-107059650D01*
X64446164Y-107126216D01*
X64359571Y-107194056D01*
X64296186Y-107219753D01*
X64228817Y-107207932D01*
X64177964Y-107162190D01*
X64159100Y-107096445D01*
X64159100Y-101641366D01*
X64168539Y-101593913D01*
X64195419Y-101553685D01*
X66160110Y-99588994D01*
X66833103Y-98916000D01*
X68431000Y-98916000D01*
X68431000Y-100963824D01*
X68437402Y-101023375D01*
X68487647Y-101158089D01*
X68573811Y-101273188D01*
X68688910Y-101359352D01*
X68823624Y-101409597D01*
X68883176Y-101416000D01*
X70931000Y-101416000D01*
X70931000Y-98916000D01*
X68431000Y-98916000D01*
X66833103Y-98916000D01*
X68219319Y-97529783D01*
X68268682Y-97499534D01*
X68326398Y-97494992D01*
X68379885Y-97517147D01*
X68417485Y-97561170D01*
X68431000Y-97617465D01*
X68431000Y-98416000D01*
X70931000Y-98416000D01*
X70931000Y-95916000D01*
X69460600Y-95916000D01*
X69398600Y-95899387D01*
X69353213Y-95854000D01*
X69336600Y-95792000D01*
X69336600Y-84243528D01*
X69338888Y-84222792D01*
X69338800Y-84219994D01*
X69338801Y-84219991D01*
X69336660Y-84151900D01*
X69336600Y-84148006D01*
X69336600Y-84120046D01*
X69336081Y-84115939D01*
X69335164Y-84104288D01*
X69333773Y-84060010D01*
X69328078Y-84040411D01*
X69324133Y-84021362D01*
X69321574Y-84001103D01*
X69305263Y-83959907D01*
X69301480Y-83948858D01*
X69289118Y-83906306D01*
X69278722Y-83888728D01*
X69270167Y-83871266D01*
X69262652Y-83852283D01*
X69240082Y-83821218D01*
X69222469Y-83786651D01*
X69216400Y-83748333D01*
X69216400Y-83181272D01*
X69231189Y-83122544D01*
X69272029Y-83077824D01*
X69329178Y-83057781D01*
X69389004Y-83067194D01*
X69437236Y-83103820D01*
X69462369Y-83158920D01*
X69513763Y-83439364D01*
X69613040Y-83757958D01*
X69613042Y-83757963D01*
X69613043Y-83757965D01*
X69750005Y-84062282D01*
X69922650Y-84347871D01*
X70128459Y-84610567D01*
X70364433Y-84846541D01*
X70627129Y-85052350D01*
X70912718Y-85224995D01*
X71217035Y-85361957D01*
X71535641Y-85461238D01*
X71863892Y-85521393D01*
X72197000Y-85541542D01*
X72530108Y-85521393D01*
X72858359Y-85461238D01*
X73176965Y-85361957D01*
X73481282Y-85224995D01*
X73766871Y-85052350D01*
X73938428Y-84917943D01*
X74001814Y-84892247D01*
X74069183Y-84904068D01*
X74120036Y-84949810D01*
X74138900Y-85015555D01*
X74138900Y-96195904D01*
X74120162Y-96261447D01*
X74069611Y-96307181D01*
X74002526Y-96319285D01*
X73939180Y-96294100D01*
X73898718Y-96239238D01*
X73874352Y-96173910D01*
X73788188Y-96058811D01*
X73673089Y-95972647D01*
X73538375Y-95922402D01*
X73478824Y-95916000D01*
X71431000Y-95916000D01*
X71431000Y-101416000D01*
X73478824Y-101416000D01*
X73538375Y-101409597D01*
X73673089Y-101359352D01*
X73788188Y-101273188D01*
X73874352Y-101158089D01*
X73898718Y-101092762D01*
X73939180Y-101037900D01*
X74002526Y-101012715D01*
X74069611Y-101024819D01*
X74120162Y-101070553D01*
X74138900Y-101136096D01*
X74138900Y-103540445D01*
X74120036Y-103606190D01*
X74069183Y-103651932D01*
X74001814Y-103663753D01*
X73938428Y-103638056D01*
X73766871Y-103503650D01*
X73481282Y-103331005D01*
X73176965Y-103194043D01*
X73176963Y-103194042D01*
X73176958Y-103194040D01*
X72858364Y-103094763D01*
X72530108Y-103034607D01*
X72197000Y-103014457D01*
X71863891Y-103034607D01*
X71535635Y-103094763D01*
X71217041Y-103194040D01*
X70912717Y-103331005D01*
X70627128Y-103503650D01*
X70364430Y-103709461D01*
X70128461Y-103945430D01*
X69922650Y-104208128D01*
X69750005Y-104493717D01*
X69613040Y-104798041D01*
X69513763Y-105116635D01*
X69453607Y-105444891D01*
X69433457Y-105778000D01*
X69453607Y-106111108D01*
X69513763Y-106439364D01*
X69613040Y-106757958D01*
X69613042Y-106757963D01*
X69613043Y-106757965D01*
X69750005Y-107062282D01*
X69922650Y-107347871D01*
X70128459Y-107610567D01*
X70364433Y-107846541D01*
X70627129Y-108052350D01*
X70912718Y-108224995D01*
X71217035Y-108361957D01*
X71535641Y-108461238D01*
X71863892Y-108521393D01*
X72197000Y-108541542D01*
X72530108Y-108521393D01*
X72858359Y-108461238D01*
X73176965Y-108361957D01*
X73481282Y-108224995D01*
X73766871Y-108052350D01*
X73938428Y-107917943D01*
X74001814Y-107892247D01*
X74069183Y-107904068D01*
X74120036Y-107949810D01*
X74138900Y-108015555D01*
X74138900Y-119195904D01*
X74120162Y-119261447D01*
X74069611Y-119307181D01*
X74002526Y-119319285D01*
X73939180Y-119294100D01*
X73898718Y-119239238D01*
X73874352Y-119173910D01*
X73788188Y-119058811D01*
X73673089Y-118972647D01*
X73538375Y-118922402D01*
X73478824Y-118916000D01*
X71431000Y-118916000D01*
X71431000Y-124416000D01*
X73478824Y-124416000D01*
X73538375Y-124409597D01*
X73673089Y-124359352D01*
X73788188Y-124273188D01*
X73874352Y-124158089D01*
X73898718Y-124092762D01*
X73939180Y-124037900D01*
X74002526Y-124012715D01*
X74069611Y-124024819D01*
X74120162Y-124070553D01*
X74138900Y-124136096D01*
X74138900Y-126540445D01*
X74120036Y-126606190D01*
X74069183Y-126651932D01*
X74001814Y-126663753D01*
X73938428Y-126638056D01*
X73766871Y-126503650D01*
X73481282Y-126331005D01*
X73176965Y-126194043D01*
X73176963Y-126194042D01*
X73176958Y-126194040D01*
X72858364Y-126094763D01*
X72530108Y-126034607D01*
X72197000Y-126014457D01*
X71863891Y-126034607D01*
X71535635Y-126094763D01*
X71217041Y-126194040D01*
X70912717Y-126331005D01*
X70627128Y-126503650D01*
X70364430Y-126709461D01*
X70128461Y-126945430D01*
X69922650Y-127208128D01*
X69750005Y-127493717D01*
X69613040Y-127798041D01*
X69513763Y-128116635D01*
X69453607Y-128444891D01*
X69433457Y-128778000D01*
X69453607Y-129111108D01*
X69513763Y-129439364D01*
X69613040Y-129757958D01*
X69613042Y-129757963D01*
X69613043Y-129757965D01*
X69750005Y-130062282D01*
X69922650Y-130347871D01*
X70128459Y-130610567D01*
X70364433Y-130846541D01*
X70627129Y-131052350D01*
X70912718Y-131224995D01*
X71217035Y-131361957D01*
X71535641Y-131461238D01*
X71863892Y-131521393D01*
X72197000Y-131541542D01*
X72530108Y-131521393D01*
X72858359Y-131461238D01*
X73176965Y-131361957D01*
X73481282Y-131224995D01*
X73766871Y-131052350D01*
X73938428Y-130917943D01*
X74001814Y-130892247D01*
X74069183Y-130904068D01*
X74120036Y-130949810D01*
X74138900Y-131015555D01*
X74138900Y-142195904D01*
X74120162Y-142261447D01*
X74069611Y-142307181D01*
X74002526Y-142319285D01*
X73939180Y-142294100D01*
X73898718Y-142239238D01*
X73874352Y-142173910D01*
X73788188Y-142058811D01*
X73673089Y-141972647D01*
X73538375Y-141922402D01*
X73478824Y-141916000D01*
X71431000Y-141916000D01*
X71431000Y-147416000D01*
X73478824Y-147416000D01*
X73538375Y-147409597D01*
X73673089Y-147359352D01*
X73788188Y-147273188D01*
X73874352Y-147158089D01*
X73898718Y-147092762D01*
X73939180Y-147037900D01*
X74002526Y-147012715D01*
X74069611Y-147024819D01*
X74120162Y-147070553D01*
X74138900Y-147136096D01*
X74138900Y-149540445D01*
X74120036Y-149606190D01*
X74069183Y-149651932D01*
X74001814Y-149663753D01*
X73938428Y-149638056D01*
X73766871Y-149503650D01*
X73481282Y-149331005D01*
X73176965Y-149194043D01*
X73176963Y-149194042D01*
X73176958Y-149194040D01*
X72858364Y-149094763D01*
X72530108Y-149034607D01*
X72197000Y-149014457D01*
X71863891Y-149034607D01*
X71535635Y-149094763D01*
X71217041Y-149194040D01*
X70912717Y-149331005D01*
X70627128Y-149503650D01*
X70364430Y-149709461D01*
X70128461Y-149945430D01*
X69922650Y-150208128D01*
X69750005Y-150493717D01*
X69613040Y-150798041D01*
X69513763Y-151116635D01*
X69453607Y-151444891D01*
X69433457Y-151778000D01*
X69453607Y-152111108D01*
X69513763Y-152439364D01*
X69613040Y-152757958D01*
X69613042Y-152757963D01*
X69613043Y-152757965D01*
X69750005Y-153062282D01*
X69922650Y-153347871D01*
X70128459Y-153610567D01*
X70364433Y-153846541D01*
X70627129Y-154052350D01*
X70912718Y-154224995D01*
X71217035Y-154361957D01*
X71535641Y-154461238D01*
X71863892Y-154521393D01*
X72197000Y-154541542D01*
X72530108Y-154521393D01*
X72858359Y-154461238D01*
X73176965Y-154361957D01*
X73481282Y-154224995D01*
X73766871Y-154052350D01*
X73952511Y-153906910D01*
X74012028Y-153881686D01*
X74076156Y-153889846D01*
X74127462Y-153929173D01*
X74152003Y-153988979D01*
X74153925Y-154004198D01*
X74170238Y-154045401D01*
X74174021Y-154056449D01*
X74186382Y-154098993D01*
X74196774Y-154116566D01*
X74205331Y-154134033D01*
X74212848Y-154153018D01*
X74238891Y-154188863D01*
X74245305Y-154198627D01*
X74267858Y-154236762D01*
X74282290Y-154251194D01*
X74294926Y-154265989D01*
X74306926Y-154282505D01*
X74341067Y-154310749D01*
X74349708Y-154318612D01*
X84653834Y-164622738D01*
X84682957Y-164668791D01*
X84689525Y-164722883D01*
X84672270Y-164774568D01*
X84622007Y-164857712D01*
X84485040Y-165162041D01*
X84385763Y-165480635D01*
X84325607Y-165808891D01*
X84305457Y-166142000D01*
X84325607Y-166475108D01*
X84385763Y-166803364D01*
X84485040Y-167121958D01*
X84485042Y-167121963D01*
X84485043Y-167121965D01*
X84622005Y-167426282D01*
X84794650Y-167711871D01*
X85000459Y-167974567D01*
X85236433Y-168210541D01*
X85499129Y-168416350D01*
X85784718Y-168588995D01*
X86089035Y-168725957D01*
X86089040Y-168725958D01*
X86089041Y-168725959D01*
X86248337Y-168775597D01*
X86407641Y-168825238D01*
X86735892Y-168885393D01*
X86777722Y-168887923D01*
X86831802Y-168904061D01*
X86873129Y-168942495D01*
X86893141Y-168995264D01*
X86887694Y-169051437D01*
X86857916Y-169099378D01*
X85761208Y-170196085D01*
X85713976Y-170225621D01*
X85658581Y-170231500D01*
X85606202Y-170212535D01*
X85567410Y-170172554D01*
X85406349Y-169906128D01*
X85200541Y-169643433D01*
X84964567Y-169407459D01*
X84701871Y-169201650D01*
X84416282Y-169029005D01*
X84111965Y-168892043D01*
X84111963Y-168892042D01*
X84111958Y-168892040D01*
X83793364Y-168792763D01*
X83465108Y-168732607D01*
X83132000Y-168712457D01*
X82798891Y-168732607D01*
X82470635Y-168792763D01*
X82152041Y-168892040D01*
X81847717Y-169029005D01*
X81562128Y-169201650D01*
X81299430Y-169407461D01*
X81063461Y-169643430D01*
X80857650Y-169906128D01*
X80685005Y-170191717D01*
X80548040Y-170496041D01*
X80448763Y-170814635D01*
X80388607Y-171142891D01*
X80368457Y-171475999D01*
X80388607Y-171809108D01*
X80448763Y-172137364D01*
X80548040Y-172455958D01*
X80548042Y-172455963D01*
X80548043Y-172455965D01*
X80685005Y-172760282D01*
X80857650Y-173045871D01*
X81063459Y-173308567D01*
X81299433Y-173544541D01*
X81562129Y-173750350D01*
X81847718Y-173922995D01*
X82152035Y-174059957D01*
X82470641Y-174159238D01*
X82798892Y-174219393D01*
X83132000Y-174239542D01*
X83465108Y-174219393D01*
X83793359Y-174159238D01*
X84111965Y-174059957D01*
X84416282Y-173922995D01*
X84701871Y-173750350D01*
X84964567Y-173544541D01*
X85200541Y-173308567D01*
X85406350Y-173045871D01*
X85578995Y-172760282D01*
X85715957Y-172455965D01*
X85815238Y-172137359D01*
X85853932Y-171926209D01*
X85866104Y-171890937D01*
X85888217Y-171860885D01*
X89833103Y-167916000D01*
X91431000Y-167916000D01*
X91431000Y-169963824D01*
X91437402Y-170023375D01*
X91487647Y-170158089D01*
X91573811Y-170273188D01*
X91688910Y-170359352D01*
X91823624Y-170409597D01*
X91883176Y-170416000D01*
X93931000Y-170416000D01*
X93931000Y-167916000D01*
X94431000Y-167916000D01*
X94431000Y-170416000D01*
X96478824Y-170416000D01*
X96538375Y-170409597D01*
X96673089Y-170359352D01*
X96788188Y-170273188D01*
X96874352Y-170158089D01*
X96924597Y-170023375D01*
X96931000Y-169963824D01*
X96931000Y-167916000D01*
X94431000Y-167916000D01*
X93931000Y-167916000D01*
X91431000Y-167916000D01*
X89833103Y-167916000D01*
X91219318Y-166529785D01*
X91268682Y-166499535D01*
X91326398Y-166494993D01*
X91379885Y-166517148D01*
X91417485Y-166561171D01*
X91431000Y-166617466D01*
X91431000Y-167416000D01*
X93931000Y-167416000D01*
X93931000Y-164916000D01*
X94431000Y-164916000D01*
X94431000Y-167416000D01*
X96931000Y-167416000D01*
X96931000Y-165368176D01*
X96924597Y-165308624D01*
X96874352Y-165173910D01*
X96788188Y-165058811D01*
X96673089Y-164972647D01*
X96538375Y-164922402D01*
X96478824Y-164916000D01*
X94431000Y-164916000D01*
X93931000Y-164916000D01*
X92437700Y-164916000D01*
X92375700Y-164899387D01*
X92330313Y-164854000D01*
X92313700Y-164792000D01*
X92313700Y-152612071D01*
X92333164Y-152545376D01*
X92385446Y-152499619D01*
X92454133Y-152489165D01*
X92517661Y-152517296D01*
X92556085Y-152575181D01*
X92613040Y-152757958D01*
X92613042Y-152757963D01*
X92613043Y-152757965D01*
X92750005Y-153062282D01*
X92922650Y-153347871D01*
X93128459Y-153610567D01*
X93364433Y-153846541D01*
X93627129Y-154052350D01*
X93912718Y-154224995D01*
X94217035Y-154361957D01*
X94535641Y-154461238D01*
X94863892Y-154521393D01*
X95197000Y-154541542D01*
X95530108Y-154521393D01*
X95858359Y-154461238D01*
X96176965Y-154361957D01*
X96481282Y-154224995D01*
X96766871Y-154052350D01*
X97029567Y-153846541D01*
X97265541Y-153610567D01*
X97471350Y-153347871D01*
X97643995Y-153062282D01*
X97780957Y-152757965D01*
X97880238Y-152439359D01*
X97940393Y-152111108D01*
X97960542Y-151778000D01*
X97940393Y-151444892D01*
X97880238Y-151116641D01*
X97780957Y-150798035D01*
X97643995Y-150493718D01*
X97471350Y-150208129D01*
X97265541Y-149945433D01*
X97029567Y-149709459D01*
X96766871Y-149503650D01*
X96481282Y-149331005D01*
X96176965Y-149194043D01*
X96176963Y-149194042D01*
X96176958Y-149194040D01*
X95858364Y-149094763D01*
X95530108Y-149034607D01*
X95197000Y-149014457D01*
X94863891Y-149034607D01*
X94535635Y-149094763D01*
X94217041Y-149194040D01*
X93912717Y-149331005D01*
X93627128Y-149503650D01*
X93364430Y-149709461D01*
X93128461Y-149945430D01*
X92922650Y-150208128D01*
X92750005Y-150493717D01*
X92613040Y-150798041D01*
X92556085Y-150980819D01*
X92517661Y-151038704D01*
X92454133Y-151066835D01*
X92385446Y-151056381D01*
X92333164Y-151010624D01*
X92313700Y-150943929D01*
X92313700Y-150728233D01*
X92315989Y-150707490D01*
X92315901Y-150704694D01*
X92315902Y-150704691D01*
X92313760Y-150636568D01*
X92313700Y-150632674D01*
X92313700Y-150604747D01*
X92313700Y-150604744D01*
X92313182Y-150600647D01*
X92312265Y-150588998D01*
X92310874Y-150544711D01*
X92305174Y-150525094D01*
X92301233Y-150506064D01*
X92298674Y-150485803D01*
X92282363Y-150444607D01*
X92278581Y-150433560D01*
X92274050Y-150417965D01*
X92266218Y-150391007D01*
X92261561Y-150383133D01*
X92255826Y-150373434D01*
X92247267Y-150355963D01*
X92235808Y-150327021D01*
X92227100Y-150281373D01*
X92227100Y-147540000D01*
X92243713Y-147478000D01*
X92289100Y-147432613D01*
X92351100Y-147416000D01*
X93931000Y-147416000D01*
X93931000Y-144916000D01*
X94431000Y-144916000D01*
X94431000Y-147416000D01*
X96478824Y-147416000D01*
X96538375Y-147409597D01*
X96673089Y-147359352D01*
X96788188Y-147273188D01*
X96874352Y-147158089D01*
X96924597Y-147023375D01*
X96931000Y-146963824D01*
X96931000Y-144916000D01*
X94431000Y-144916000D01*
X93931000Y-144916000D01*
X93931000Y-141916000D01*
X94431000Y-141916000D01*
X94431000Y-144416000D01*
X96931000Y-144416000D01*
X96931000Y-142368176D01*
X96924597Y-142308624D01*
X96874352Y-142173910D01*
X96788188Y-142058811D01*
X96673089Y-141972647D01*
X96538375Y-141922402D01*
X96478824Y-141916000D01*
X94431000Y-141916000D01*
X93931000Y-141916000D01*
X92813866Y-141916000D01*
X92757571Y-141902485D01*
X92713548Y-141864885D01*
X92691393Y-141811398D01*
X92695935Y-141753682D01*
X92726185Y-141704319D01*
X101768119Y-132662385D01*
X101817482Y-132632135D01*
X101875198Y-132627593D01*
X101928685Y-132649748D01*
X101966285Y-132693771D01*
X101979800Y-132750066D01*
X101979800Y-158602667D01*
X101977510Y-158623408D01*
X101979739Y-158694317D01*
X101979800Y-158698213D01*
X101979800Y-158726155D01*
X101980318Y-158730256D01*
X101981234Y-158741897D01*
X101982626Y-158786188D01*
X101988322Y-158805792D01*
X101992267Y-158824844D01*
X101994825Y-158845098D01*
X102011138Y-158886301D01*
X102014921Y-158897349D01*
X102027282Y-158939893D01*
X102037674Y-158957466D01*
X102046231Y-158974933D01*
X102053748Y-158993918D01*
X102079791Y-159029763D01*
X102086205Y-159039527D01*
X102108758Y-159077662D01*
X102123190Y-159092094D01*
X102135826Y-159106889D01*
X102147826Y-159123405D01*
X102181967Y-159151649D01*
X102190608Y-159159512D01*
X107653834Y-164622738D01*
X107682957Y-164668791D01*
X107689525Y-164722883D01*
X107672270Y-164774568D01*
X107622007Y-164857712D01*
X107485040Y-165162041D01*
X107385763Y-165480635D01*
X107325607Y-165808891D01*
X107305457Y-166142000D01*
X107325607Y-166475108D01*
X107385763Y-166803364D01*
X107485040Y-167121958D01*
X107485042Y-167121963D01*
X107485043Y-167121965D01*
X107622005Y-167426282D01*
X107794650Y-167711871D01*
X108000459Y-167974567D01*
X108236433Y-168210541D01*
X108499129Y-168416350D01*
X108784718Y-168588995D01*
X109089035Y-168725957D01*
X109089040Y-168725958D01*
X109089041Y-168725959D01*
X109248337Y-168775597D01*
X109407641Y-168825238D01*
X109735892Y-168885393D01*
X109777721Y-168887923D01*
X109831801Y-168904061D01*
X109873128Y-168942495D01*
X109893140Y-168995264D01*
X109887693Y-169051437D01*
X109857915Y-169099378D01*
X108761208Y-170196085D01*
X108713976Y-170225621D01*
X108658581Y-170231500D01*
X108606202Y-170212535D01*
X108567410Y-170172554D01*
X108406349Y-169906128D01*
X108200541Y-169643433D01*
X107964567Y-169407459D01*
X107701871Y-169201650D01*
X107416282Y-169029005D01*
X107111965Y-168892043D01*
X107111963Y-168892042D01*
X107111958Y-168892040D01*
X106793364Y-168792763D01*
X106465108Y-168732607D01*
X106132000Y-168712457D01*
X105798891Y-168732607D01*
X105470635Y-168792763D01*
X105152041Y-168892040D01*
X104847717Y-169029005D01*
X104562128Y-169201650D01*
X104299430Y-169407461D01*
X104063461Y-169643430D01*
X103857650Y-169906128D01*
X103685005Y-170191717D01*
X103548040Y-170496041D01*
X103448763Y-170814635D01*
X103388607Y-171142891D01*
X103368457Y-171475999D01*
X103388607Y-171809108D01*
X103448763Y-172137364D01*
X103548040Y-172455958D01*
X103548042Y-172455963D01*
X103548043Y-172455965D01*
X103685005Y-172760282D01*
X103857650Y-173045871D01*
X104063459Y-173308567D01*
X104299433Y-173544541D01*
X104562129Y-173750350D01*
X104847718Y-173922995D01*
X105152035Y-174059957D01*
X105470641Y-174159238D01*
X105798892Y-174219393D01*
X106132000Y-174239542D01*
X106465108Y-174219393D01*
X106793359Y-174159238D01*
X107111965Y-174059957D01*
X107416282Y-173922995D01*
X107701871Y-173750350D01*
X107964567Y-173544541D01*
X108200541Y-173308567D01*
X108406350Y-173045871D01*
X108578995Y-172760282D01*
X108715957Y-172455965D01*
X108815238Y-172137359D01*
X108853932Y-171926209D01*
X108866104Y-171890937D01*
X108888217Y-171860885D01*
X112833103Y-167916000D01*
X114431000Y-167916000D01*
X114431000Y-169963824D01*
X114437402Y-170023375D01*
X114487647Y-170158089D01*
X114573811Y-170273188D01*
X114688910Y-170359352D01*
X114823624Y-170409597D01*
X114883176Y-170416000D01*
X116931000Y-170416000D01*
X116931000Y-167916000D01*
X117431000Y-167916000D01*
X117431000Y-170416000D01*
X119478824Y-170416000D01*
X119538375Y-170409597D01*
X119673089Y-170359352D01*
X119788188Y-170273188D01*
X119874352Y-170158089D01*
X119924597Y-170023375D01*
X119931000Y-169963824D01*
X119931000Y-167916000D01*
X117431000Y-167916000D01*
X116931000Y-167916000D01*
X114431000Y-167916000D01*
X112833103Y-167916000D01*
X114219320Y-166529783D01*
X114268682Y-166499534D01*
X114326398Y-166494992D01*
X114379885Y-166517147D01*
X114417485Y-166561170D01*
X114431000Y-166617465D01*
X114431000Y-167416000D01*
X116931000Y-167416000D01*
X116931000Y-164916000D01*
X117431000Y-164916000D01*
X117431000Y-167416000D01*
X119931000Y-167416000D01*
X119931000Y-165368176D01*
X119924597Y-165308624D01*
X119874352Y-165173910D01*
X119788188Y-165058811D01*
X119673089Y-164972647D01*
X119538375Y-164922402D01*
X119478824Y-164916000D01*
X117431000Y-164916000D01*
X116931000Y-164916000D01*
X116132466Y-164916000D01*
X116076171Y-164902485D01*
X116032148Y-164864885D01*
X116009993Y-164811398D01*
X116014535Y-164753682D01*
X116044785Y-164704319D01*
X117554344Y-163194758D01*
X121172118Y-159576985D01*
X121188397Y-159563944D01*
X121190314Y-159561902D01*
X121190318Y-159561900D01*
X121236991Y-159512196D01*
X121239639Y-159509464D01*
X121259435Y-159489670D01*
X121261979Y-159486388D01*
X121269551Y-159477524D01*
X121299886Y-159445221D01*
X121309719Y-159427332D01*
X121320400Y-159411072D01*
X121332914Y-159394941D01*
X121350507Y-159354281D01*
X121355643Y-159343795D01*
X121376995Y-159304960D01*
X121382073Y-159285177D01*
X121388370Y-159266785D01*
X121396481Y-159248045D01*
X121403412Y-159204276D01*
X121405778Y-159192853D01*
X121416800Y-159149930D01*
X121416800Y-159129516D01*
X121418327Y-159110117D01*
X121420088Y-159098997D01*
X121421520Y-159089957D01*
X121417350Y-159045843D01*
X121416800Y-159034174D01*
X121416800Y-39098933D01*
X121419089Y-39078191D01*
X121419001Y-39075394D01*
X121419002Y-39075391D01*
X121416860Y-39007282D01*
X121416800Y-39003387D01*
X121416800Y-38975446D01*
X121416282Y-38971349D01*
X121415364Y-38959690D01*
X121413973Y-38915410D01*
X121408278Y-38895811D01*
X121404333Y-38876762D01*
X121401774Y-38856503D01*
X121385462Y-38815304D01*
X121381677Y-38804250D01*
X121377284Y-38789128D01*
X121369318Y-38761707D01*
X121366307Y-38756616D01*
X121358924Y-38744131D01*
X121350364Y-38726657D01*
X121342852Y-38707684D01*
X121342852Y-38707683D01*
X121316810Y-38671840D01*
X121310395Y-38662073D01*
X121287844Y-38623939D01*
X121287842Y-38623937D01*
X121273401Y-38609496D01*
X121260769Y-38594705D01*
X121248774Y-38578195D01*
X121248772Y-38578193D01*
X121214624Y-38549943D01*
X121205996Y-38542091D01*
X119632062Y-36968157D01*
X119600192Y-36913393D01*
X119599538Y-36850037D01*
X119627564Y-36739368D01*
X119646156Y-36515000D01*
X119627564Y-36290632D01*
X119572296Y-36072384D01*
X119483002Y-35868812D01*
X119481861Y-35866211D01*
X119481860Y-35866209D01*
X119358722Y-35677732D01*
X119206240Y-35512094D01*
X119028576Y-35373811D01*
X118992067Y-35354053D01*
X118944563Y-35308474D01*
X118927086Y-35245000D01*
X118944563Y-35181526D01*
X118992067Y-35135946D01*
X119028576Y-35116189D01*
X119206240Y-34977906D01*
X119358722Y-34812268D01*
X119481860Y-34623791D01*
X119572296Y-34417616D01*
X119627564Y-34199368D01*
X119646156Y-33975000D01*
X119627564Y-33750632D01*
X119572296Y-33532384D01*
X119481860Y-33326209D01*
X119358722Y-33137732D01*
X119206240Y-32972094D01*
X119028576Y-32833811D01*
X119028575Y-32833810D01*
X118992067Y-32814053D01*
X118944562Y-32768471D01*
X118927086Y-32704997D01*
X118944564Y-32641523D01*
X118992067Y-32595946D01*
X119028576Y-32576189D01*
X119206240Y-32437906D01*
X119358722Y-32272268D01*
X119481860Y-32083791D01*
X119572296Y-31877616D01*
X119627564Y-31659368D01*
X119646156Y-31435000D01*
X119627564Y-31210632D01*
X119572296Y-30992384D01*
X119481860Y-30786209D01*
X119358722Y-30597732D01*
X119206240Y-30432094D01*
X119028576Y-30293811D01*
X118830574Y-30186658D01*
X118830573Y-30186657D01*
X118830572Y-30186657D01*
X118617636Y-30113556D01*
X118395569Y-30076500D01*
X118170431Y-30076500D01*
X117948363Y-30113556D01*
X117735427Y-30186657D01*
X117537424Y-30293811D01*
X117359760Y-30432094D01*
X117244182Y-30557643D01*
X117190465Y-30591849D01*
X117126854Y-30594881D01*
X117070127Y-30565940D01*
X117042964Y-30524449D01*
X117042723Y-30524598D01*
X117037199Y-30515643D01*
X117035247Y-30512660D01*
X117035115Y-30512262D01*
X116942030Y-30361348D01*
X116942029Y-30361347D01*
X116942028Y-30361345D01*
X116816654Y-30235971D01*
X116665736Y-30142884D01*
X116497426Y-30087112D01*
X116403173Y-30077483D01*
X116393544Y-30076500D01*
X115092455Y-30076500D01*
X114988574Y-30087112D01*
X114820263Y-30142884D01*
X114669345Y-30235971D01*
X114543971Y-30361345D01*
X114450884Y-30512263D01*
X114395112Y-30680573D01*
X114384500Y-30784456D01*
X114384500Y-31846232D01*
X114375061Y-31893685D01*
X114348181Y-31933913D01*
X112291280Y-33990813D01*
X112274996Y-34003861D01*
X112226439Y-34055568D01*
X112223733Y-34058361D01*
X112203961Y-34078133D01*
X112201421Y-34081408D01*
X112193852Y-34090269D01*
X112163514Y-34122577D01*
X112153682Y-34140463D01*
X112143001Y-34156723D01*
X112130485Y-34172859D01*
X112112886Y-34213528D01*
X112107748Y-34224017D01*
X112086403Y-34262843D01*
X112081326Y-34282618D01*
X112075025Y-34301023D01*
X112066918Y-34319756D01*
X112059988Y-34363510D01*
X112057620Y-34374946D01*
X112046600Y-34417870D01*
X112046600Y-34438284D01*
X112045073Y-34457683D01*
X112041880Y-34477841D01*
X112046050Y-34521957D01*
X112046600Y-34533626D01*
X112046600Y-48932414D01*
X112027736Y-48998159D01*
X111976883Y-49043901D01*
X111909514Y-49055722D01*
X111846128Y-49030025D01*
X111638871Y-48867650D01*
X111353282Y-48695005D01*
X111048965Y-48558043D01*
X111048963Y-48558042D01*
X111048960Y-48558041D01*
X111045205Y-48556871D01*
X110999871Y-48531300D01*
X110969024Y-48489377D01*
X110958100Y-48438487D01*
X110958100Y-31591033D01*
X110960389Y-31570290D01*
X110960301Y-31567494D01*
X110960302Y-31567491D01*
X110958160Y-31499368D01*
X110958100Y-31495474D01*
X110958100Y-31467547D01*
X110958100Y-31467544D01*
X110957582Y-31463447D01*
X110956665Y-31451798D01*
X110955274Y-31407511D01*
X110949574Y-31387894D01*
X110945633Y-31368864D01*
X110943074Y-31348603D01*
X110926763Y-31307407D01*
X110922981Y-31296360D01*
X110910618Y-31253808D01*
X110910618Y-31253807D01*
X110900222Y-31236229D01*
X110891669Y-31218771D01*
X110884152Y-31199783D01*
X110858103Y-31163930D01*
X110851699Y-31154180D01*
X110829142Y-31116038D01*
X110814707Y-31101603D01*
X110802069Y-31086806D01*
X110790072Y-31070293D01*
X110755924Y-31042043D01*
X110747285Y-31034181D01*
X108128788Y-28415683D01*
X108115744Y-28399401D01*
X108064048Y-28350856D01*
X108061251Y-28348145D01*
X108041473Y-28328367D01*
X108038195Y-28325824D01*
X108029322Y-28318245D01*
X107997021Y-28287914D01*
X107979133Y-28278080D01*
X107962869Y-28267396D01*
X107946740Y-28254885D01*
X107906077Y-28237289D01*
X107895583Y-28232148D01*
X107856762Y-28210805D01*
X107845086Y-28207807D01*
X107836984Y-28205727D01*
X107818579Y-28199426D01*
X107799845Y-28191319D01*
X107799843Y-28191318D01*
X107799842Y-28191318D01*
X107756083Y-28184387D01*
X107744643Y-28182018D01*
X107701731Y-28171000D01*
X107701730Y-28171000D01*
X107681316Y-28171000D01*
X107661917Y-28169473D01*
X107641758Y-28166280D01*
X107641757Y-28166280D01*
X107615120Y-28168798D01*
X107597643Y-28170450D01*
X107585974Y-28171000D01*
X83252134Y-28171000D01*
X83231391Y-28168710D01*
X83160470Y-28170939D01*
X83156575Y-28171000D01*
X83128641Y-28171000D01*
X83124537Y-28171518D01*
X83112905Y-28172433D01*
X83068610Y-28173825D01*
X83049001Y-28179522D01*
X83029961Y-28183465D01*
X83009705Y-28186025D01*
X82968505Y-28202336D01*
X82957461Y-28206117D01*
X82914910Y-28218481D01*
X82914907Y-28218482D01*
X82897327Y-28228877D01*
X82879870Y-28237430D01*
X82860878Y-28244949D01*
X82825034Y-28270991D01*
X82815277Y-28277401D01*
X82777138Y-28299957D01*
X82762700Y-28314395D01*
X82747911Y-28327025D01*
X82731394Y-28339025D01*
X82703144Y-28373173D01*
X82695283Y-28381811D01*
X81036913Y-30040181D01*
X80996685Y-30067061D01*
X80949232Y-30076500D01*
X79887455Y-30076500D01*
X79783574Y-30087112D01*
X79615263Y-30142884D01*
X79464345Y-30235971D01*
X79338971Y-30361345D01*
X79245884Y-30512263D01*
X79190112Y-30680573D01*
X79179500Y-30784455D01*
X79179500Y-32085544D01*
X79190112Y-32189425D01*
X79245884Y-32357736D01*
X79338971Y-32508654D01*
X79464345Y-32634028D01*
X79464347Y-32634029D01*
X79464348Y-32634030D01*
X79615262Y-32727115D01*
X79615357Y-32727146D01*
X79615857Y-32727481D01*
X79627598Y-32734723D01*
X79627327Y-32735161D01*
X79670327Y-32763951D01*
X79698551Y-32823784D01*
X79691993Y-32889614D01*
X79652519Y-32942704D01*
X79614759Y-32972095D01*
X79462279Y-33137730D01*
X79339138Y-33326211D01*
X79248705Y-33532381D01*
X79193435Y-33750636D01*
X79174843Y-33975000D01*
X79193435Y-34199363D01*
X79193435Y-34199366D01*
X79193436Y-34199368D01*
X79248704Y-34417616D01*
X79253328Y-34428158D01*
X79339138Y-34623788D01*
X79339140Y-34623791D01*
X79462278Y-34812268D01*
X79614760Y-34977906D01*
X79792424Y-35116189D01*
X79792426Y-35116190D01*
X79828931Y-35135946D01*
X79876436Y-35181527D01*
X79893913Y-35245000D01*
X79876436Y-35308473D01*
X79828931Y-35354054D01*
X79792426Y-35373809D01*
X79614760Y-35512094D01*
X79462279Y-35677730D01*
X79339135Y-35866215D01*
X79338734Y-35867131D01*
X79337438Y-35868812D01*
X79333520Y-35874811D01*
X79333053Y-35874506D01*
X79302347Y-35914379D01*
X79248111Y-35939176D01*
X79188572Y-35935788D01*
X79137500Y-35904996D01*
X76175209Y-32942705D01*
X73099488Y-29866983D01*
X73086444Y-29850701D01*
X73034748Y-29802156D01*
X73031951Y-29799445D01*
X73012173Y-29779667D01*
X73008895Y-29777124D01*
X73000022Y-29769545D01*
X72967721Y-29739214D01*
X72949833Y-29729380D01*
X72933569Y-29718696D01*
X72917440Y-29706185D01*
X72876777Y-29688589D01*
X72866283Y-29683448D01*
X72827462Y-29662105D01*
X72815786Y-29659107D01*
X72807684Y-29657027D01*
X72789279Y-29650726D01*
X72786864Y-29649681D01*
X72770545Y-29642619D01*
X72770543Y-29642618D01*
X72770542Y-29642618D01*
X72726783Y-29635687D01*
X72715343Y-29633318D01*
X72672431Y-29622300D01*
X72672430Y-29622300D01*
X72652016Y-29622300D01*
X72632617Y-29620773D01*
X72612458Y-29617580D01*
X72612457Y-29617580D01*
X72585820Y-29620098D01*
X72568343Y-29621750D01*
X72556674Y-29622300D01*
X70800834Y-29622300D01*
X70780091Y-29620010D01*
X70709170Y-29622239D01*
X70705275Y-29622300D01*
X70677341Y-29622300D01*
X70673237Y-29622818D01*
X70661605Y-29623733D01*
X70617310Y-29625125D01*
X70597696Y-29630823D01*
X70578660Y-29634765D01*
X70558406Y-29637325D01*
X70517216Y-29653632D01*
X70506170Y-29657413D01*
X70463607Y-29669779D01*
X70446028Y-29680176D01*
X70428564Y-29688732D01*
X70419820Y-29692194D01*
X70409582Y-29696248D01*
X70373739Y-29722289D01*
X70363982Y-29728698D01*
X70325838Y-29751257D01*
X70311400Y-29765695D01*
X70296611Y-29778325D01*
X70280094Y-29790325D01*
X70251844Y-29824473D01*
X70243983Y-29833111D01*
X70036913Y-30040181D01*
X69996685Y-30067061D01*
X69949232Y-30076500D01*
X68887455Y-30076500D01*
X68783574Y-30087112D01*
X68615263Y-30142884D01*
X68464345Y-30235971D01*
X68338971Y-30361345D01*
X68245884Y-30512263D01*
X68190112Y-30680573D01*
X68179500Y-30784455D01*
X68179500Y-32085544D01*
X68190112Y-32189425D01*
X68245884Y-32357736D01*
X68338971Y-32508654D01*
X68464345Y-32634028D01*
X68464347Y-32634029D01*
X68464348Y-32634030D01*
X68615262Y-32727115D01*
X68615357Y-32727146D01*
X68615857Y-32727481D01*
X68627598Y-32734723D01*
X68627327Y-32735161D01*
X68670327Y-32763951D01*
X68698551Y-32823784D01*
X68691993Y-32889614D01*
X68652519Y-32942704D01*
X68614759Y-32972095D01*
X68462279Y-33137730D01*
X68339138Y-33326211D01*
X68248705Y-33532381D01*
X68193435Y-33750636D01*
X68174843Y-33974999D01*
X68193435Y-34199363D01*
X68193435Y-34199366D01*
X68193436Y-34199368D01*
X68248704Y-34417616D01*
X68253328Y-34428158D01*
X68339138Y-34623788D01*
X68339140Y-34623791D01*
X68462278Y-34812268D01*
X68614760Y-34977906D01*
X68792424Y-35116189D01*
X68792426Y-35116190D01*
X68828931Y-35135946D01*
X68876436Y-35181527D01*
X68893913Y-35245000D01*
X68876436Y-35308473D01*
X68828931Y-35354054D01*
X68792426Y-35373809D01*
X68614760Y-35512094D01*
X68462279Y-35677730D01*
X68339138Y-35866211D01*
X68248705Y-36072381D01*
X68193435Y-36290636D01*
X68174843Y-36514999D01*
X68193435Y-36739363D01*
X68193436Y-36739365D01*
X68193436Y-36739368D01*
X68238757Y-36918338D01*
X68248705Y-36957618D01*
X68339138Y-37163788D01*
X68339140Y-37163791D01*
X68462278Y-37352268D01*
X68614760Y-37517906D01*
X68792424Y-37656189D01*
X68835697Y-37679607D01*
X68881336Y-37722156D01*
X68900475Y-37781546D01*
X68888266Y-37842738D01*
X68847801Y-37890237D01*
X68776625Y-37940072D01*
X69538000Y-38701447D01*
X69538001Y-38701447D01*
X70299373Y-37940073D01*
X70299373Y-37940072D01*
X70228198Y-37890235D01*
X70187733Y-37842736D01*
X70175525Y-37781544D01*
X70194665Y-37722154D01*
X70240299Y-37679608D01*
X70283576Y-37656189D01*
X70461240Y-37517906D01*
X70613722Y-37352268D01*
X70704190Y-37213795D01*
X70748982Y-37172561D01*
X70808000Y-37157616D01*
X70867018Y-37172561D01*
X70911809Y-37213795D01*
X71002277Y-37352267D01*
X71014388Y-37365422D01*
X71154760Y-37517906D01*
X71332424Y-37656189D01*
X71375697Y-37679607D01*
X71421336Y-37722156D01*
X71440475Y-37781546D01*
X71428266Y-37842738D01*
X71387801Y-37890237D01*
X71316625Y-37940072D01*
X72078000Y-38701447D01*
X73192925Y-39816373D01*
X73251600Y-39732576D01*
X73351430Y-39518492D01*
X73412569Y-39290318D01*
X73433226Y-39054214D01*
X73458378Y-38989535D01*
X73514343Y-38948499D01*
X73583592Y-38943960D01*
X73644435Y-38977340D01*
X74102581Y-39435486D01*
X74129461Y-39475714D01*
X74138900Y-39523167D01*
X74138900Y-50195904D01*
X74120162Y-50261447D01*
X74069611Y-50307181D01*
X74002526Y-50319285D01*
X73939180Y-50294100D01*
X73898718Y-50239238D01*
X73874352Y-50173910D01*
X73788188Y-50058811D01*
X73673089Y-49972647D01*
X73538375Y-49922402D01*
X73478824Y-49916000D01*
X71431000Y-49916000D01*
X71431000Y-55416000D01*
X73478824Y-55416000D01*
X73538375Y-55409597D01*
X73673089Y-55359352D01*
X73788188Y-55273188D01*
X73874352Y-55158089D01*
X73898718Y-55092762D01*
X73939180Y-55037900D01*
X74002526Y-55012715D01*
X74069611Y-55024819D01*
X74120162Y-55070553D01*
X74138900Y-55136096D01*
X74138900Y-57540445D01*
X74120036Y-57606190D01*
X74069183Y-57651932D01*
X74001814Y-57663753D01*
X73938428Y-57638056D01*
X73766871Y-57503650D01*
X73481282Y-57331005D01*
X73176965Y-57194043D01*
X73176963Y-57194042D01*
X73176958Y-57194040D01*
X72858364Y-57094763D01*
X72530108Y-57034607D01*
X72197000Y-57014457D01*
X71863891Y-57034607D01*
X71535635Y-57094763D01*
X71217041Y-57194040D01*
X70912717Y-57331005D01*
X70627128Y-57503650D01*
X70364430Y-57709461D01*
X70128461Y-57945430D01*
X69922650Y-58208128D01*
X69750005Y-58493717D01*
X69613040Y-58798041D01*
X69572885Y-58926906D01*
X69534461Y-58984791D01*
X69470933Y-59012922D01*
X69402246Y-59002468D01*
X69349964Y-58956711D01*
X69330500Y-58890016D01*
X69330500Y-58745034D01*
X69332789Y-58724291D01*
X69332701Y-58721495D01*
X69332702Y-58721492D01*
X69330560Y-58653369D01*
X69330500Y-58649475D01*
X69330500Y-58621547D01*
X69330500Y-58621544D01*
X69329982Y-58617447D01*
X69329065Y-58605798D01*
X69329002Y-58603780D01*
X69327674Y-58561511D01*
X69321974Y-58541894D01*
X69318033Y-58522864D01*
X69315474Y-58502603D01*
X69299163Y-58461407D01*
X69295381Y-58450360D01*
X69283018Y-58407808D01*
X69283018Y-58407807D01*
X69272622Y-58390229D01*
X69264069Y-58372771D01*
X69256552Y-58353783D01*
X69230503Y-58317930D01*
X69224099Y-58308180D01*
X69201542Y-58270038D01*
X69187107Y-58255603D01*
X69174469Y-58240806D01*
X69162472Y-58224293D01*
X69128324Y-58196043D01*
X69119685Y-58188181D01*
X68454119Y-57522614D01*
X68427239Y-57482386D01*
X68417800Y-57434933D01*
X68417800Y-55404122D01*
X68436305Y-55338955D01*
X68486295Y-55293238D01*
X68552852Y-55280616D01*
X68616110Y-55304855D01*
X68688908Y-55359351D01*
X68823624Y-55409597D01*
X68883176Y-55416000D01*
X70931000Y-55416000D01*
X70931000Y-49916000D01*
X68883176Y-49916000D01*
X68823624Y-49922402D01*
X68688908Y-49972648D01*
X68616110Y-50027145D01*
X68552852Y-50051384D01*
X68486295Y-50038762D01*
X68436305Y-49993045D01*
X68417800Y-49927878D01*
X68417800Y-40169925D01*
X68776625Y-40169925D01*
X68860420Y-40228599D01*
X69074507Y-40328430D01*
X69302681Y-40389569D01*
X69538000Y-40410157D01*
X69773318Y-40389569D01*
X70001492Y-40328430D01*
X70215576Y-40228600D01*
X70299373Y-40169925D01*
X71316625Y-40169925D01*
X71400420Y-40228599D01*
X71614507Y-40328430D01*
X71842681Y-40389569D01*
X72078000Y-40410157D01*
X72313318Y-40389569D01*
X72541492Y-40328430D01*
X72755576Y-40228600D01*
X72839373Y-40169925D01*
X72078000Y-39408553D01*
X71316625Y-40169925D01*
X70299373Y-40169925D01*
X69538000Y-39408553D01*
X68776625Y-40169925D01*
X68417800Y-40169925D01*
X68417800Y-39873008D01*
X68427239Y-39825555D01*
X68454119Y-39785327D01*
X69184447Y-39055001D01*
X69891553Y-39055001D01*
X70652925Y-39816373D01*
X70706424Y-39739969D01*
X70750742Y-39701103D01*
X70807999Y-39687092D01*
X70865256Y-39701103D01*
X70909574Y-39739969D01*
X70963072Y-39816373D01*
X70963073Y-39816373D01*
X71724447Y-39055001D01*
X71724447Y-39055000D01*
X70963072Y-38293625D01*
X70963072Y-38293626D01*
X70909574Y-38370030D01*
X70865256Y-38408896D01*
X70807999Y-38422907D01*
X70750742Y-38408896D01*
X70706424Y-38370030D01*
X70652925Y-38293626D01*
X70652925Y-38293625D01*
X69891553Y-39055000D01*
X69891553Y-39055001D01*
X69184447Y-39055001D01*
X69184447Y-39055000D01*
X68454119Y-38324671D01*
X68427239Y-38284443D01*
X68417800Y-38236990D01*
X68417800Y-38224928D01*
X68420088Y-38204192D01*
X68420000Y-38201394D01*
X68420001Y-38201391D01*
X68417860Y-38133300D01*
X68417800Y-38129406D01*
X68417800Y-38101446D01*
X68417281Y-38097339D01*
X68416364Y-38085688D01*
X68414973Y-38041410D01*
X68409278Y-38021811D01*
X68405333Y-38002762D01*
X68402774Y-37982503D01*
X68386463Y-37941307D01*
X68382680Y-37930258D01*
X68370318Y-37887706D01*
X68359922Y-37870128D01*
X68351367Y-37852666D01*
X68343852Y-37833683D01*
X68317812Y-37797842D01*
X68311398Y-37788078D01*
X68297716Y-37764943D01*
X68288842Y-37749937D01*
X68274406Y-37735501D01*
X68261770Y-37720707D01*
X68257782Y-37715218D01*
X68249772Y-37704193D01*
X68215624Y-37675943D01*
X68206996Y-37668091D01*
X62427062Y-31888157D01*
X62395192Y-31833393D01*
X62394538Y-31770037D01*
X62422564Y-31659368D01*
X62441156Y-31435000D01*
X62422564Y-31210632D01*
X62367296Y-30992384D01*
X62276860Y-30786209D01*
X62153722Y-30597732D01*
X62001240Y-30432094D01*
X61823576Y-30293811D01*
X61625574Y-30186658D01*
X61625573Y-30186657D01*
X61625572Y-30186657D01*
X61412636Y-30113556D01*
X61190569Y-30076500D01*
X60965431Y-30076500D01*
X60743363Y-30113556D01*
X60530427Y-30186657D01*
X60332424Y-30293811D01*
X60154760Y-30432094D01*
X60039182Y-30557643D01*
X59985465Y-30591849D01*
X59921854Y-30594881D01*
X59865127Y-30565940D01*
X59837964Y-30524449D01*
X59837723Y-30524598D01*
X59832199Y-30515643D01*
X59830247Y-30512660D01*
X59830115Y-30512262D01*
X59737030Y-30361348D01*
X59737029Y-30361347D01*
X59737028Y-30361345D01*
X59611654Y-30235971D01*
X59460736Y-30142884D01*
X59292426Y-30087112D01*
X59198173Y-30077483D01*
X59188544Y-30076500D01*
X57887455Y-30076500D01*
X57783574Y-30087112D01*
X57615261Y-30142885D01*
X57478296Y-30227366D01*
X57415904Y-30245798D01*
X57352768Y-30230104D01*
X57306266Y-30184606D01*
X57289200Y-30121827D01*
X57289200Y-23263225D01*
X57308121Y-23197388D01*
X57359111Y-23151644D01*
X57426606Y-23139952D01*
X57477618Y-23145500D01*
X57836382Y-23145500D01*
X57836383Y-23145500D01*
X57887395Y-23139952D01*
X58193042Y-23106711D01*
X58543417Y-23029587D01*
X58883401Y-22915033D01*
X59209005Y-22764393D01*
X59516414Y-22579431D01*
X59802023Y-22362317D01*
X60062484Y-22115595D01*
X60294742Y-21842159D01*
X60496075Y-21545215D01*
X60588684Y-21370534D01*
X60664123Y-21228244D01*
X60796915Y-20894962D01*
X60819748Y-20812721D01*
X60892895Y-20549274D01*
X60950936Y-20195237D01*
X60970359Y-19837000D01*
X60950936Y-19478763D01*
X60908503Y-19219929D01*
X83327358Y-19219929D01*
X83327358Y-24844071D01*
X107208643Y-24844071D01*
X107208643Y-19834999D01*
X116343640Y-19834999D01*
X116363063Y-20193230D01*
X116421106Y-20547278D01*
X116517084Y-20892962D01*
X116649876Y-21226244D01*
X116817922Y-21543210D01*
X117019259Y-21840161D01*
X117251516Y-22113595D01*
X117511975Y-22360316D01*
X117797586Y-22577431D01*
X118104995Y-22762393D01*
X118430599Y-22913033D01*
X118770583Y-23027587D01*
X119120958Y-23104711D01*
X119442632Y-23139695D01*
X119477617Y-23143500D01*
X119477618Y-23143500D01*
X119836382Y-23143500D01*
X119836383Y-23143500D01*
X119869005Y-23139952D01*
X120193042Y-23104711D01*
X120543417Y-23027587D01*
X120883401Y-22913033D01*
X121209005Y-22762393D01*
X121516414Y-22577431D01*
X121802023Y-22360317D01*
X122062484Y-22113595D01*
X122294742Y-21840159D01*
X122496075Y-21543215D01*
X122588684Y-21368534D01*
X122664123Y-21226244D01*
X122796915Y-20892962D01*
X122819748Y-20810721D01*
X122892895Y-20547274D01*
X122950936Y-20193237D01*
X122970359Y-19835000D01*
X122950936Y-19476763D01*
X122892895Y-19122726D01*
X122842582Y-18941518D01*
X122796915Y-18777037D01*
X122664123Y-18443755D01*
X122496077Y-18126789D01*
X122496075Y-18126785D01*
X122294742Y-17829841D01*
X122294740Y-17829838D01*
X122062483Y-17556404D01*
X121802024Y-17309683D01*
X121516413Y-17092568D01*
X121209002Y-16907605D01*
X120883405Y-16756969D01*
X120883406Y-16756969D01*
X120883401Y-16756967D01*
X120543417Y-16642413D01*
X120543416Y-16642412D01*
X120543414Y-16642412D01*
X120330819Y-16595616D01*
X120193042Y-16565289D01*
X120014712Y-16545894D01*
X119836383Y-16526500D01*
X119836382Y-16526500D01*
X119477618Y-16526500D01*
X119477617Y-16526500D01*
X119120958Y-16565289D01*
X118770585Y-16642412D01*
X118597722Y-16700656D01*
X118430599Y-16756967D01*
X118430596Y-16756968D01*
X118430594Y-16756969D01*
X118104997Y-16907605D01*
X117797586Y-17092568D01*
X117511975Y-17309683D01*
X117251516Y-17556404D01*
X117019259Y-17829838D01*
X116817922Y-18126789D01*
X116649876Y-18443755D01*
X116517084Y-18777037D01*
X116421106Y-19122721D01*
X116421105Y-19122726D01*
X116367890Y-19447320D01*
X116363063Y-19476769D01*
X116343640Y-19834999D01*
X107208643Y-19834999D01*
X107208643Y-19219929D01*
X83327358Y-19219929D01*
X60908503Y-19219929D01*
X60892895Y-19124726D01*
X60842582Y-18943518D01*
X60796915Y-18779037D01*
X60664123Y-18445755D01*
X60496077Y-18128789D01*
X60496075Y-18128785D01*
X60294742Y-17831841D01*
X60294740Y-17831838D01*
X60062483Y-17558404D01*
X59802024Y-17311683D01*
X59516413Y-17094568D01*
X59209002Y-16909605D01*
X58883405Y-16758969D01*
X58883406Y-16758969D01*
X58883401Y-16758967D01*
X58543417Y-16644413D01*
X58543416Y-16644412D01*
X58543414Y-16644412D01*
X58330819Y-16597616D01*
X58193042Y-16567289D01*
X58014712Y-16547894D01*
X57836383Y-16528500D01*
X57836382Y-16528500D01*
X57477618Y-16528500D01*
X57477617Y-16528500D01*
X57120958Y-16567289D01*
X56770585Y-16644412D01*
X56597722Y-16702656D01*
X56430599Y-16758967D01*
X56430596Y-16758968D01*
X56430594Y-16758969D01*
X56104997Y-16909605D01*
X55797586Y-17094568D01*
X55511975Y-17311683D01*
X55251516Y-17558404D01*
X55019259Y-17831838D01*
X54817922Y-18128789D01*
X54649876Y-18445755D01*
X54517084Y-18779037D01*
X54421660Y-19122726D01*
X54421105Y-19124726D01*
X54367890Y-19449320D01*
X54363063Y-19478769D01*
X54343640Y-19836999D01*
X54363063Y-20195230D01*
X54421106Y-20549278D01*
X54517084Y-20894962D01*
X54649876Y-21228244D01*
X54817922Y-21545210D01*
X55019259Y-21842161D01*
X55251516Y-22115595D01*
X55511975Y-22362316D01*
X55794955Y-22577431D01*
X55797586Y-22579431D01*
X55962129Y-22678433D01*
X56006142Y-22723655D01*
X56022200Y-22784683D01*
X56022200Y-183890537D01*
X56006143Y-183951565D01*
X55962129Y-183996786D01*
X55921313Y-184021344D01*
X55809586Y-184088568D01*
X55523975Y-184305683D01*
X55263516Y-184552404D01*
X55031259Y-184825838D01*
X54829922Y-185122789D01*
X54661876Y-185439755D01*
X54529084Y-185773037D01*
X54433660Y-186116726D01*
X54433105Y-186118726D01*
X54396959Y-186339209D01*
X54375063Y-186472769D01*
X54355640Y-186830999D01*
X54375063Y-187189230D01*
X54433106Y-187543281D01*
X54528356Y-187886341D01*
X54528879Y-187950742D01*
X54497031Y-188006719D01*
X54441402Y-188039172D01*
X54376999Y-188039347D01*
X54321195Y-188007195D01*
X53894319Y-187580319D01*
X53867439Y-187540091D01*
X53858000Y-187492638D01*
X53858000Y-16219000D01*
X53874613Y-16157000D01*
X53920000Y-16111613D01*
X53982000Y-16095000D01*
X123168000Y-16095000D01*
X123230000Y-16111613D01*
G37*
%TD.AperFunction*%
%TA.AperFunction,Conductor*%
G36*
X115380026Y-128885913D02*
G01*
X115426531Y-128928384D01*
X115446174Y-128988223D01*
X115453607Y-129111108D01*
X115513763Y-129439364D01*
X115613040Y-129757958D01*
X115613042Y-129757963D01*
X115613043Y-129757965D01*
X115750005Y-130062282D01*
X115922650Y-130347871D01*
X116128459Y-130610567D01*
X116364433Y-130846541D01*
X116627129Y-131052350D01*
X116912718Y-131224995D01*
X117217035Y-131361957D01*
X117535641Y-131461238D01*
X117863892Y-131521393D01*
X118197000Y-131541542D01*
X118530108Y-131521393D01*
X118858359Y-131461238D01*
X119176965Y-131361957D01*
X119481282Y-131224995D01*
X119766871Y-131052350D01*
X119949329Y-130909402D01*
X120012714Y-130883707D01*
X120080083Y-130895528D01*
X120130936Y-130941270D01*
X120149800Y-131007015D01*
X120149800Y-142225128D01*
X120131062Y-142290671D01*
X120080511Y-142336405D01*
X120013426Y-142348509D01*
X119950080Y-142323324D01*
X119909618Y-142268462D01*
X119874352Y-142173910D01*
X119788188Y-142058811D01*
X119673089Y-141972647D01*
X119538375Y-141922402D01*
X119478824Y-141916000D01*
X117431000Y-141916000D01*
X117431000Y-147416000D01*
X119478824Y-147416000D01*
X119538375Y-147409597D01*
X119673089Y-147359352D01*
X119788188Y-147273188D01*
X119874352Y-147158089D01*
X119909618Y-147063538D01*
X119950080Y-147008676D01*
X120013426Y-146983491D01*
X120080511Y-146995595D01*
X120131062Y-147041329D01*
X120149800Y-147106872D01*
X120149800Y-149548985D01*
X120130936Y-149614730D01*
X120080083Y-149660472D01*
X120012714Y-149672293D01*
X119949329Y-149646597D01*
X119766871Y-149503650D01*
X119481282Y-149331005D01*
X119176965Y-149194043D01*
X119176963Y-149194042D01*
X119176958Y-149194040D01*
X118858364Y-149094763D01*
X118530108Y-149034607D01*
X118197000Y-149014457D01*
X117863891Y-149034607D01*
X117535635Y-149094763D01*
X117217041Y-149194040D01*
X116912717Y-149331005D01*
X116627128Y-149503650D01*
X116364430Y-149709461D01*
X116128461Y-149945430D01*
X115922650Y-150208128D01*
X115750005Y-150493717D01*
X115613040Y-150798041D01*
X115513763Y-151116635D01*
X115453607Y-151444891D01*
X115433457Y-151778000D01*
X115453607Y-152111108D01*
X115513763Y-152439364D01*
X115613040Y-152757958D01*
X115613042Y-152757963D01*
X115613043Y-152757965D01*
X115750005Y-153062282D01*
X115922650Y-153347871D01*
X116128459Y-153610567D01*
X116364433Y-153846541D01*
X116627129Y-154052350D01*
X116912718Y-154224995D01*
X117217035Y-154361957D01*
X117535641Y-154461238D01*
X117863892Y-154521393D01*
X118197000Y-154541542D01*
X118530108Y-154521393D01*
X118858359Y-154461238D01*
X119176965Y-154361957D01*
X119481282Y-154224995D01*
X119766871Y-154052350D01*
X119949329Y-153909402D01*
X120012714Y-153883707D01*
X120080083Y-153895528D01*
X120130936Y-153941270D01*
X120149800Y-154007015D01*
X120149800Y-158756134D01*
X120140361Y-158803587D01*
X120113481Y-158843815D01*
X113026378Y-165930916D01*
X112978437Y-165960694D01*
X112922264Y-165966141D01*
X112869495Y-165946129D01*
X112831061Y-165904802D01*
X112814923Y-165850722D01*
X112812393Y-165808892D01*
X112752238Y-165480641D01*
X112652957Y-165162035D01*
X112515995Y-164857718D01*
X112343350Y-164572129D01*
X112137541Y-164309433D01*
X111901567Y-164073459D01*
X111638871Y-163867650D01*
X111353282Y-163695005D01*
X111048965Y-163558043D01*
X111048963Y-163558042D01*
X111048958Y-163558040D01*
X110730364Y-163458763D01*
X110402108Y-163398607D01*
X110069000Y-163378457D01*
X109735891Y-163398607D01*
X109407635Y-163458763D01*
X109089041Y-163558040D01*
X108784712Y-163695007D01*
X108701568Y-163745270D01*
X108649883Y-163762525D01*
X108595791Y-163755957D01*
X108549738Y-163726834D01*
X103283119Y-158460214D01*
X103256239Y-158419986D01*
X103246800Y-158372533D01*
X103246800Y-155333999D01*
X109337457Y-155333999D01*
X109357607Y-155667108D01*
X109417763Y-155995364D01*
X109517040Y-156313958D01*
X109517042Y-156313963D01*
X109517043Y-156313965D01*
X109654005Y-156618282D01*
X109826650Y-156903871D01*
X110032459Y-157166567D01*
X110268433Y-157402541D01*
X110531129Y-157608350D01*
X110816718Y-157780995D01*
X111121035Y-157917957D01*
X111439641Y-158017238D01*
X111767892Y-158077393D01*
X112101000Y-158097542D01*
X112434108Y-158077393D01*
X112762359Y-158017238D01*
X113080965Y-157917957D01*
X113385282Y-157780995D01*
X113670871Y-157608350D01*
X113933567Y-157402541D01*
X114169541Y-157166567D01*
X114375350Y-156903871D01*
X114547995Y-156618282D01*
X114684957Y-156313965D01*
X114784238Y-155995359D01*
X114844393Y-155667108D01*
X114864542Y-155334000D01*
X114844393Y-155000892D01*
X114784238Y-154672641D01*
X114684957Y-154354035D01*
X114547995Y-154049718D01*
X114375350Y-153764129D01*
X114169541Y-153501433D01*
X113933567Y-153265459D01*
X113670871Y-153059650D01*
X113385282Y-152887005D01*
X113080965Y-152750043D01*
X113080963Y-152750042D01*
X113080958Y-152750040D01*
X112762364Y-152650763D01*
X112434108Y-152590607D01*
X112101000Y-152570457D01*
X111767891Y-152590607D01*
X111439635Y-152650763D01*
X111121041Y-152750040D01*
X110816717Y-152887005D01*
X110531128Y-153059650D01*
X110268430Y-153265461D01*
X110032461Y-153501430D01*
X109826650Y-153764128D01*
X109654005Y-154049717D01*
X109517040Y-154354041D01*
X109417763Y-154672635D01*
X109357607Y-155000891D01*
X109337457Y-155333999D01*
X103246800Y-155333999D01*
X103246800Y-149303973D01*
X103266264Y-149237278D01*
X103318546Y-149191521D01*
X103387233Y-149181067D01*
X103450761Y-149209198D01*
X103489185Y-149267083D01*
X103548040Y-149455958D01*
X103548042Y-149455963D01*
X103548043Y-149455965D01*
X103685005Y-149760282D01*
X103857650Y-150045871D01*
X104063459Y-150308567D01*
X104299433Y-150544541D01*
X104562129Y-150750350D01*
X104847718Y-150922995D01*
X105152035Y-151059957D01*
X105470641Y-151159238D01*
X105798892Y-151219393D01*
X106132000Y-151239542D01*
X106465108Y-151219393D01*
X106793359Y-151159238D01*
X107111965Y-151059957D01*
X107416282Y-150922995D01*
X107701871Y-150750350D01*
X107964567Y-150544541D01*
X108200541Y-150308567D01*
X108406350Y-150045871D01*
X108578995Y-149760282D01*
X108715957Y-149455965D01*
X108815238Y-149137359D01*
X108853932Y-148926209D01*
X108866104Y-148890937D01*
X108888217Y-148860885D01*
X112833103Y-144916000D01*
X114431000Y-144916000D01*
X114431000Y-146963824D01*
X114437402Y-147023375D01*
X114487647Y-147158089D01*
X114573811Y-147273188D01*
X114688910Y-147359352D01*
X114823624Y-147409597D01*
X114883176Y-147416000D01*
X116931000Y-147416000D01*
X116931000Y-144916000D01*
X114431000Y-144916000D01*
X112833103Y-144916000D01*
X114219318Y-143529785D01*
X114268682Y-143499535D01*
X114326398Y-143494993D01*
X114379885Y-143517148D01*
X114417485Y-143561171D01*
X114431000Y-143617466D01*
X114431000Y-144416000D01*
X116931000Y-144416000D01*
X116931000Y-141916000D01*
X115445700Y-141916000D01*
X115383700Y-141899387D01*
X115338313Y-141854000D01*
X115321700Y-141792000D01*
X115321700Y-131152234D01*
X115323989Y-131131491D01*
X115323901Y-131128695D01*
X115323902Y-131128692D01*
X115321760Y-131060569D01*
X115321700Y-131056675D01*
X115321700Y-131028747D01*
X115321700Y-131028744D01*
X115321182Y-131024647D01*
X115320265Y-131012998D01*
X115320077Y-131007015D01*
X115318874Y-130968711D01*
X115313177Y-130949101D01*
X115309233Y-130930060D01*
X115306674Y-130909803D01*
X115290361Y-130868602D01*
X115286586Y-130857575D01*
X115274219Y-130815007D01*
X115263822Y-130797428D01*
X115255264Y-130779957D01*
X115247752Y-130760983D01*
X115222080Y-130725649D01*
X115204469Y-130691084D01*
X115198400Y-130652766D01*
X115198400Y-128995710D01*
X115214394Y-128934794D01*
X115258250Y-128889593D01*
X115318655Y-128871767D01*
X115380026Y-128885913D01*
G37*
%TD.AperFunction*%
%TA.AperFunction,Conductor*%
G36*
X79282918Y-44270935D02*
G01*
X79332281Y-44301185D01*
X84653834Y-49622738D01*
X84682957Y-49668791D01*
X84689525Y-49722883D01*
X84672270Y-49774568D01*
X84622007Y-49857712D01*
X84485040Y-50162041D01*
X84385763Y-50480635D01*
X84325607Y-50808891D01*
X84305457Y-51142000D01*
X84325607Y-51475108D01*
X84385763Y-51803364D01*
X84485040Y-52121958D01*
X84485042Y-52121963D01*
X84485043Y-52121965D01*
X84622005Y-52426282D01*
X84794650Y-52711871D01*
X85000459Y-52974567D01*
X85236433Y-53210541D01*
X85499129Y-53416350D01*
X85784718Y-53588995D01*
X86089035Y-53725957D01*
X86089040Y-53725958D01*
X86089041Y-53725959D01*
X86114538Y-53733904D01*
X86407641Y-53825238D01*
X86735892Y-53885393D01*
X86811577Y-53889971D01*
X86865654Y-53906108D01*
X86906981Y-53944542D01*
X86926994Y-53997311D01*
X86921547Y-54053484D01*
X86891769Y-54101425D01*
X85774733Y-55218460D01*
X85727501Y-55247996D01*
X85672105Y-55253875D01*
X85619726Y-55234910D01*
X85580935Y-55194929D01*
X85578998Y-55191725D01*
X85578995Y-55191718D01*
X85406350Y-54906129D01*
X85200541Y-54643433D01*
X84964567Y-54407459D01*
X84701871Y-54201650D01*
X84416282Y-54029005D01*
X84111965Y-53892043D01*
X84111963Y-53892042D01*
X84111958Y-53892040D01*
X83793364Y-53792763D01*
X83465108Y-53732607D01*
X83132000Y-53712457D01*
X82798891Y-53732607D01*
X82470635Y-53792763D01*
X82152041Y-53892040D01*
X81847717Y-54029005D01*
X81562128Y-54201650D01*
X81299430Y-54407461D01*
X81063461Y-54643430D01*
X80857650Y-54906128D01*
X80685005Y-55191717D01*
X80548040Y-55496041D01*
X80448763Y-55814635D01*
X80388607Y-56142891D01*
X80368457Y-56475999D01*
X80388606Y-56809107D01*
X80388607Y-56809108D01*
X80412599Y-56940029D01*
X80448763Y-57137364D01*
X80548040Y-57455958D01*
X80548042Y-57455963D01*
X80548043Y-57455965D01*
X80685005Y-57760282D01*
X80857650Y-58045871D01*
X81063459Y-58308567D01*
X81299433Y-58544541D01*
X81562129Y-58750350D01*
X81847718Y-58922995D01*
X82152035Y-59059957D01*
X82470641Y-59159238D01*
X82798892Y-59219393D01*
X83132000Y-59239542D01*
X83465108Y-59219393D01*
X83793359Y-59159238D01*
X84111965Y-59059957D01*
X84416282Y-58922995D01*
X84701871Y-58750350D01*
X84964567Y-58544541D01*
X85200541Y-58308567D01*
X85406350Y-58045871D01*
X85578995Y-57760282D01*
X85715957Y-57455965D01*
X85797576Y-57194040D01*
X85815237Y-57137363D01*
X85815238Y-57137359D01*
X85845575Y-56971813D01*
X85872000Y-56915126D01*
X85878465Y-56907312D01*
X85886301Y-56898701D01*
X89754618Y-53030386D01*
X89803982Y-53000136D01*
X89861698Y-52995594D01*
X89915185Y-53017749D01*
X89952785Y-53061772D01*
X89966300Y-53118067D01*
X89966300Y-56296034D01*
X89956861Y-56343487D01*
X89929981Y-56383715D01*
X82743180Y-63570513D01*
X82726896Y-63583561D01*
X82678339Y-63635268D01*
X82675633Y-63638061D01*
X82655861Y-63657833D01*
X82653321Y-63661108D01*
X82645752Y-63669969D01*
X82615414Y-63702277D01*
X82605582Y-63720163D01*
X82594901Y-63736423D01*
X82582385Y-63752559D01*
X82564786Y-63793228D01*
X82559648Y-63803717D01*
X82538303Y-63842543D01*
X82533226Y-63862318D01*
X82526926Y-63880719D01*
X82524118Y-63887207D01*
X82518818Y-63899456D01*
X82511888Y-63943210D01*
X82509520Y-63954646D01*
X82498500Y-63997570D01*
X82498500Y-64017984D01*
X82496973Y-64037383D01*
X82493780Y-64057541D01*
X82497950Y-64101657D01*
X82498500Y-64113326D01*
X82498500Y-76692840D01*
X82487576Y-76743731D01*
X82456727Y-76785655D01*
X82411390Y-76811225D01*
X82152041Y-76892040D01*
X81847717Y-77029005D01*
X81562128Y-77201650D01*
X81299430Y-77407461D01*
X81063461Y-77643430D01*
X80857650Y-77906128D01*
X80685005Y-78191717D01*
X80548040Y-78496041D01*
X80448763Y-78814635D01*
X80388607Y-79142891D01*
X80368457Y-79475999D01*
X80388607Y-79809108D01*
X80448763Y-80137364D01*
X80548040Y-80455958D01*
X80548042Y-80455963D01*
X80548043Y-80455965D01*
X80685005Y-80760282D01*
X80857650Y-81045871D01*
X81063459Y-81308567D01*
X81299433Y-81544541D01*
X81562129Y-81750350D01*
X81847718Y-81922995D01*
X82152035Y-82059957D01*
X82470641Y-82159238D01*
X82798892Y-82219393D01*
X83132000Y-82239542D01*
X83465108Y-82219393D01*
X83793359Y-82159238D01*
X84111965Y-82059957D01*
X84416282Y-81922995D01*
X84701871Y-81750350D01*
X84964567Y-81544541D01*
X85200541Y-81308567D01*
X85406350Y-81045871D01*
X85578995Y-80760282D01*
X85655025Y-80591349D01*
X85697660Y-80540192D01*
X85760613Y-80518468D01*
X85825726Y-80532445D01*
X85874217Y-80578092D01*
X85892100Y-80642242D01*
X85892100Y-93240134D01*
X85882661Y-93287587D01*
X85855781Y-93327815D01*
X82743180Y-96440413D01*
X82726896Y-96453461D01*
X82678339Y-96505168D01*
X82675633Y-96507961D01*
X82655861Y-96527733D01*
X82653321Y-96531008D01*
X82645752Y-96539869D01*
X82615414Y-96572177D01*
X82607151Y-96587206D01*
X82606352Y-96588663D01*
X82605582Y-96590063D01*
X82594901Y-96606323D01*
X82582385Y-96622459D01*
X82564786Y-96663128D01*
X82559648Y-96673617D01*
X82538303Y-96712443D01*
X82533226Y-96732218D01*
X82526925Y-96750623D01*
X82518818Y-96769356D01*
X82511888Y-96813110D01*
X82509520Y-96824546D01*
X82498500Y-96867470D01*
X82498500Y-96887884D01*
X82496973Y-96907283D01*
X82494002Y-96926043D01*
X82493780Y-96927443D01*
X82495546Y-96946129D01*
X82497950Y-96971557D01*
X82498500Y-96983226D01*
X82498500Y-99692840D01*
X82487576Y-99743731D01*
X82456727Y-99785655D01*
X82411390Y-99811225D01*
X82152041Y-99892040D01*
X81847717Y-100029005D01*
X81562128Y-100201650D01*
X81299430Y-100407461D01*
X81063461Y-100643430D01*
X80857650Y-100906128D01*
X80685005Y-101191717D01*
X80548040Y-101496041D01*
X80448763Y-101814635D01*
X80388607Y-102142891D01*
X80368457Y-102475999D01*
X80388607Y-102809108D01*
X80448763Y-103137364D01*
X80548040Y-103455958D01*
X80548042Y-103455963D01*
X80548043Y-103455965D01*
X80685005Y-103760282D01*
X80857650Y-104045871D01*
X81063459Y-104308567D01*
X81299433Y-104544541D01*
X81562129Y-104750350D01*
X81847718Y-104922995D01*
X82152035Y-105059957D01*
X82470641Y-105159238D01*
X82798892Y-105219393D01*
X83132000Y-105239542D01*
X83465108Y-105219393D01*
X83793359Y-105159238D01*
X84111965Y-105059957D01*
X84416282Y-104922995D01*
X84701871Y-104750350D01*
X84964567Y-104544541D01*
X85200541Y-104308567D01*
X85406350Y-104045871D01*
X85578995Y-103760282D01*
X85715957Y-103455965D01*
X85815238Y-103137359D01*
X85875393Y-102809108D01*
X85895542Y-102476000D01*
X85875393Y-102142892D01*
X85815238Y-101814641D01*
X85715957Y-101496035D01*
X85578995Y-101191718D01*
X85406350Y-100906129D01*
X85200541Y-100643433D01*
X84964567Y-100407459D01*
X84701871Y-100201650D01*
X84416282Y-100029005D01*
X84111965Y-99892043D01*
X84111963Y-99892042D01*
X84111958Y-99892040D01*
X83852610Y-99811225D01*
X83807273Y-99785655D01*
X83776424Y-99743731D01*
X83765500Y-99692840D01*
X83765500Y-97261266D01*
X83774939Y-97213813D01*
X83801816Y-97173587D01*
X84104658Y-96870745D01*
X84155443Y-96840045D01*
X84214685Y-96836461D01*
X84268807Y-96860819D01*
X84305409Y-96907538D01*
X84316108Y-96965916D01*
X84305457Y-97141999D01*
X84325607Y-97475108D01*
X84385763Y-97803364D01*
X84485040Y-98121958D01*
X84485042Y-98121963D01*
X84485043Y-98121965D01*
X84622005Y-98426282D01*
X84794650Y-98711871D01*
X85000459Y-98974567D01*
X85236433Y-99210541D01*
X85499129Y-99416350D01*
X85784718Y-99588995D01*
X86089035Y-99725957D01*
X86089040Y-99725958D01*
X86089041Y-99725959D01*
X86146074Y-99743731D01*
X86407641Y-99825238D01*
X86735892Y-99885393D01*
X87069000Y-99905542D01*
X87402108Y-99885393D01*
X87730359Y-99825238D01*
X88048965Y-99725957D01*
X88353282Y-99588995D01*
X88638871Y-99416350D01*
X88901567Y-99210541D01*
X89137541Y-98974567D01*
X89183425Y-98916000D01*
X91431000Y-98916000D01*
X91431000Y-100963824D01*
X91437402Y-101023375D01*
X91487647Y-101158089D01*
X91573811Y-101273188D01*
X91688910Y-101359352D01*
X91823624Y-101409597D01*
X91883176Y-101416000D01*
X93931000Y-101416000D01*
X93931000Y-98916000D01*
X94431000Y-98916000D01*
X94431000Y-101416000D01*
X96478824Y-101416000D01*
X96538375Y-101409597D01*
X96673089Y-101359352D01*
X96788188Y-101273188D01*
X96874352Y-101158089D01*
X96924597Y-101023375D01*
X96931000Y-100963824D01*
X96931000Y-98916000D01*
X94431000Y-98916000D01*
X93931000Y-98916000D01*
X91431000Y-98916000D01*
X89183425Y-98916000D01*
X89343350Y-98711871D01*
X89515995Y-98426282D01*
X89520623Y-98416000D01*
X91431000Y-98416000D01*
X93931000Y-98416000D01*
X93931000Y-95916000D01*
X94431000Y-95916000D01*
X94431000Y-98416000D01*
X96931000Y-98416000D01*
X96931000Y-96368176D01*
X96924597Y-96308624D01*
X96874352Y-96173910D01*
X96788188Y-96058811D01*
X96673089Y-95972647D01*
X96538375Y-95922402D01*
X96478824Y-95916000D01*
X94431000Y-95916000D01*
X93931000Y-95916000D01*
X91883176Y-95916000D01*
X91823624Y-95922402D01*
X91688910Y-95972647D01*
X91573811Y-96058811D01*
X91487647Y-96173910D01*
X91437402Y-96308624D01*
X91431000Y-96368176D01*
X91431000Y-98416000D01*
X89520623Y-98416000D01*
X89652957Y-98121965D01*
X89752238Y-97803359D01*
X89812393Y-97475108D01*
X89832542Y-97142000D01*
X89812393Y-96808892D01*
X89752238Y-96480641D01*
X89683935Y-96261447D01*
X89652959Y-96162041D01*
X89652958Y-96162040D01*
X89652957Y-96162035D01*
X89515995Y-95857718D01*
X89343350Y-95572129D01*
X89137541Y-95309433D01*
X88901567Y-95073459D01*
X88638871Y-94867650D01*
X88353282Y-94695005D01*
X88048965Y-94558043D01*
X88048963Y-94558042D01*
X88048958Y-94558040D01*
X87730364Y-94458763D01*
X87596897Y-94434304D01*
X87402108Y-94398607D01*
X87402107Y-94398606D01*
X87068999Y-94378457D01*
X86892916Y-94389108D01*
X86834538Y-94378409D01*
X86787819Y-94341807D01*
X86763461Y-94287685D01*
X86767045Y-94228444D01*
X86797747Y-94177655D01*
X86914416Y-94060986D01*
X86930697Y-94047944D01*
X86932614Y-94045902D01*
X86932618Y-94045900D01*
X86979306Y-93996179D01*
X86981923Y-93993479D01*
X87001734Y-93973670D01*
X87004272Y-93970397D01*
X87011841Y-93961534D01*
X87042186Y-93929221D01*
X87052022Y-93911327D01*
X87062702Y-93895068D01*
X87075213Y-93878941D01*
X87092811Y-93838272D01*
X87097941Y-93827800D01*
X87119295Y-93788960D01*
X87124372Y-93769182D01*
X87130672Y-93750782D01*
X87138781Y-93732045D01*
X87145712Y-93688276D01*
X87148078Y-93676853D01*
X87159100Y-93633930D01*
X87159100Y-93613516D01*
X87160627Y-93594117D01*
X87160849Y-93592717D01*
X87163820Y-93573957D01*
X87159650Y-93529843D01*
X87159100Y-93518174D01*
X87159100Y-88571555D01*
X87177964Y-88505810D01*
X87228817Y-88460068D01*
X87296186Y-88448247D01*
X87359571Y-88473943D01*
X87531129Y-88608350D01*
X87816718Y-88780995D01*
X88121035Y-88917957D01*
X88439641Y-89017238D01*
X88767892Y-89077393D01*
X89101000Y-89097542D01*
X89434108Y-89077393D01*
X89762359Y-89017238D01*
X90080965Y-88917957D01*
X90385282Y-88780995D01*
X90670871Y-88608350D01*
X90933567Y-88402541D01*
X91169541Y-88166567D01*
X91375350Y-87903871D01*
X91547995Y-87618282D01*
X91684957Y-87313965D01*
X91784238Y-86995359D01*
X91844393Y-86667108D01*
X91864542Y-86334000D01*
X91844393Y-86000892D01*
X91784238Y-85672641D01*
X91684957Y-85354035D01*
X91547995Y-85049718D01*
X91375350Y-84764129D01*
X91169541Y-84501433D01*
X90933567Y-84265459D01*
X90670871Y-84059650D01*
X90385282Y-83887005D01*
X90080965Y-83750043D01*
X90080963Y-83750042D01*
X90080958Y-83750040D01*
X89762364Y-83650763D01*
X89434108Y-83590607D01*
X89101000Y-83570457D01*
X88767891Y-83590607D01*
X88439635Y-83650763D01*
X88121041Y-83750040D01*
X87816717Y-83887005D01*
X87531128Y-84059650D01*
X87454039Y-84120046D01*
X87359571Y-84194056D01*
X87296186Y-84219753D01*
X87228817Y-84207932D01*
X87177964Y-84162190D01*
X87159100Y-84096445D01*
X87159100Y-78641366D01*
X87168539Y-78593913D01*
X87195419Y-78553685D01*
X89180411Y-76568693D01*
X89833103Y-75916000D01*
X91431000Y-75916000D01*
X91431000Y-77963824D01*
X91437402Y-78023375D01*
X91487647Y-78158089D01*
X91573811Y-78273188D01*
X91688910Y-78359352D01*
X91823624Y-78409597D01*
X91883176Y-78416000D01*
X93931000Y-78416000D01*
X93931000Y-75916000D01*
X94431000Y-75916000D01*
X94431000Y-78416000D01*
X96478824Y-78416000D01*
X96538375Y-78409597D01*
X96673089Y-78359352D01*
X96788188Y-78273188D01*
X96874352Y-78158089D01*
X96924597Y-78023375D01*
X96931000Y-77963824D01*
X96931000Y-75916000D01*
X94431000Y-75916000D01*
X93931000Y-75916000D01*
X91431000Y-75916000D01*
X89833103Y-75916000D01*
X91219319Y-74529783D01*
X91268682Y-74499534D01*
X91326398Y-74494992D01*
X91379885Y-74517147D01*
X91417485Y-74561170D01*
X91431000Y-74617465D01*
X91431000Y-75416000D01*
X93931000Y-75416000D01*
X93931000Y-72916000D01*
X94431000Y-72916000D01*
X94431000Y-75416000D01*
X96931000Y-75416000D01*
X96931000Y-73368176D01*
X96924597Y-73308624D01*
X96874352Y-73173910D01*
X96788188Y-73058811D01*
X96673089Y-72972647D01*
X96538375Y-72922402D01*
X96478824Y-72916000D01*
X94431000Y-72916000D01*
X93931000Y-72916000D01*
X92440300Y-72916000D01*
X92378300Y-72899387D01*
X92332913Y-72854000D01*
X92316300Y-72792000D01*
X92316300Y-60620415D01*
X92335764Y-60553720D01*
X92388046Y-60507963D01*
X92456733Y-60497509D01*
X92520260Y-60525640D01*
X92558685Y-60583525D01*
X92613040Y-60757958D01*
X92613042Y-60757963D01*
X92613043Y-60757965D01*
X92750005Y-61062282D01*
X92922650Y-61347871D01*
X93128459Y-61610567D01*
X93364433Y-61846541D01*
X93627129Y-62052350D01*
X93912718Y-62224995D01*
X94217035Y-62361957D01*
X94535641Y-62461238D01*
X94863892Y-62521393D01*
X95197000Y-62541542D01*
X95530108Y-62521393D01*
X95858359Y-62461238D01*
X96176965Y-62361957D01*
X96481282Y-62224995D01*
X96766871Y-62052350D01*
X97029567Y-61846541D01*
X97265541Y-61610567D01*
X97276490Y-61596590D01*
X97324578Y-61559383D01*
X97384575Y-61549508D01*
X97442053Y-61569343D01*
X97483192Y-61614117D01*
X97498100Y-61673065D01*
X97498100Y-80882935D01*
X97483192Y-80941883D01*
X97442053Y-80986657D01*
X97384575Y-81006492D01*
X97324578Y-80996617D01*
X97276490Y-80959409D01*
X97265541Y-80945433D01*
X97029567Y-80709459D01*
X96766871Y-80503650D01*
X96481282Y-80331005D01*
X96176965Y-80194043D01*
X96176963Y-80194042D01*
X96176958Y-80194040D01*
X95858364Y-80094763D01*
X95530108Y-80034607D01*
X95197000Y-80014457D01*
X94863891Y-80034607D01*
X94535635Y-80094763D01*
X94217041Y-80194040D01*
X93912717Y-80331005D01*
X93627128Y-80503650D01*
X93364430Y-80709461D01*
X93128461Y-80945430D01*
X92922650Y-81208128D01*
X92750005Y-81493717D01*
X92613040Y-81798041D01*
X92513763Y-82116635D01*
X92453607Y-82444891D01*
X92433457Y-82778000D01*
X92453607Y-83111108D01*
X92513763Y-83439364D01*
X92613040Y-83757958D01*
X92613042Y-83757963D01*
X92613043Y-83757965D01*
X92750005Y-84062282D01*
X92922650Y-84347871D01*
X93128459Y-84610567D01*
X93364433Y-84846541D01*
X93627129Y-85052350D01*
X93912718Y-85224995D01*
X94217035Y-85361957D01*
X94535641Y-85461238D01*
X94863892Y-85521393D01*
X95197000Y-85541542D01*
X95530108Y-85521393D01*
X95858359Y-85461238D01*
X96176965Y-85361957D01*
X96481282Y-85224995D01*
X96766871Y-85052350D01*
X97029567Y-84846541D01*
X97265541Y-84610567D01*
X97276490Y-84596590D01*
X97324578Y-84559383D01*
X97384575Y-84549508D01*
X97442053Y-84569343D01*
X97483192Y-84614117D01*
X97498100Y-84673065D01*
X97498100Y-103882935D01*
X97483192Y-103941883D01*
X97442053Y-103986657D01*
X97384575Y-104006492D01*
X97324578Y-103996617D01*
X97276490Y-103959409D01*
X97265541Y-103945433D01*
X97029567Y-103709459D01*
X96766871Y-103503650D01*
X96481282Y-103331005D01*
X96176965Y-103194043D01*
X96176963Y-103194042D01*
X96176958Y-103194040D01*
X95858364Y-103094763D01*
X95530108Y-103034607D01*
X95197000Y-103014457D01*
X94863891Y-103034607D01*
X94535635Y-103094763D01*
X94217041Y-103194040D01*
X93912717Y-103331005D01*
X93627128Y-103503650D01*
X93364430Y-103709461D01*
X93128461Y-103945430D01*
X92922650Y-104208128D01*
X92750005Y-104493717D01*
X92613040Y-104798041D01*
X92513763Y-105116635D01*
X92453607Y-105444891D01*
X92433457Y-105778000D01*
X92453607Y-106111108D01*
X92513763Y-106439364D01*
X92613040Y-106757958D01*
X92613042Y-106757963D01*
X92613043Y-106757965D01*
X92750005Y-107062282D01*
X92922650Y-107347871D01*
X93128459Y-107610567D01*
X93364433Y-107846541D01*
X93627129Y-108052350D01*
X93912718Y-108224995D01*
X94217035Y-108361957D01*
X94535641Y-108461238D01*
X94863892Y-108521393D01*
X95197000Y-108541542D01*
X95530108Y-108521393D01*
X95858359Y-108461238D01*
X96176965Y-108361957D01*
X96481282Y-108224995D01*
X96766871Y-108052350D01*
X97029567Y-107846541D01*
X97265541Y-107610567D01*
X97276490Y-107596590D01*
X97324578Y-107559383D01*
X97384575Y-107549508D01*
X97442053Y-107569343D01*
X97483192Y-107614117D01*
X97498100Y-107673065D01*
X97498100Y-126882935D01*
X97483192Y-126941883D01*
X97442053Y-126986657D01*
X97384575Y-127006492D01*
X97324578Y-126996617D01*
X97276490Y-126959409D01*
X97265541Y-126945433D01*
X97029567Y-126709459D01*
X96766871Y-126503650D01*
X96481282Y-126331005D01*
X96176965Y-126194043D01*
X96176963Y-126194042D01*
X96176958Y-126194040D01*
X95858364Y-126094763D01*
X95530108Y-126034607D01*
X95197000Y-126014457D01*
X94863891Y-126034607D01*
X94535635Y-126094763D01*
X94217041Y-126194040D01*
X93912717Y-126331005D01*
X93627128Y-126503650D01*
X93364430Y-126709461D01*
X93128461Y-126945430D01*
X92922650Y-127208128D01*
X92750005Y-127493717D01*
X92613040Y-127798041D01*
X92513763Y-128116635D01*
X92453607Y-128444891D01*
X92433457Y-128778000D01*
X92453607Y-129111108D01*
X92513763Y-129439364D01*
X92613040Y-129757958D01*
X92613042Y-129757963D01*
X92613043Y-129757965D01*
X92750005Y-130062282D01*
X92922650Y-130347871D01*
X93128459Y-130610567D01*
X93364433Y-130846541D01*
X93627129Y-131052350D01*
X93912718Y-131224995D01*
X94217035Y-131361957D01*
X94535641Y-131461238D01*
X94863892Y-131521393D01*
X95197000Y-131541542D01*
X95530108Y-131521393D01*
X95858359Y-131461238D01*
X96176965Y-131361957D01*
X96481282Y-131224995D01*
X96766871Y-131052350D01*
X97029567Y-130846541D01*
X97265541Y-130610567D01*
X97276490Y-130596590D01*
X97324578Y-130559383D01*
X97384575Y-130549508D01*
X97442053Y-130569343D01*
X97483192Y-130614117D01*
X97498100Y-130673065D01*
X97498100Y-134134034D01*
X97488661Y-134181487D01*
X97461781Y-134221715D01*
X90097280Y-141586213D01*
X90080996Y-141599261D01*
X90032439Y-141650968D01*
X90029733Y-141653761D01*
X90009961Y-141673533D01*
X90007421Y-141676808D01*
X89999852Y-141685669D01*
X89969514Y-141717977D01*
X89959682Y-141735863D01*
X89949001Y-141752123D01*
X89936485Y-141768259D01*
X89918886Y-141808928D01*
X89913748Y-141819417D01*
X89892403Y-141858243D01*
X89887326Y-141878018D01*
X89881025Y-141896423D01*
X89872918Y-141915156D01*
X89865988Y-141958910D01*
X89863620Y-141970346D01*
X89852600Y-142013270D01*
X89852600Y-142027972D01*
X89834717Y-142092122D01*
X89786226Y-142137769D01*
X89721113Y-142151746D01*
X89658160Y-142130022D01*
X89615524Y-142078863D01*
X89612995Y-142073243D01*
X89515995Y-141857718D01*
X89343350Y-141572129D01*
X89137541Y-141309433D01*
X88901567Y-141073459D01*
X88638871Y-140867650D01*
X88353282Y-140695005D01*
X88048965Y-140558043D01*
X88048963Y-140558042D01*
X88048958Y-140558040D01*
X87730364Y-140458763D01*
X87402108Y-140398607D01*
X87069000Y-140378457D01*
X86735891Y-140398607D01*
X86407635Y-140458763D01*
X86089041Y-140558040D01*
X85784712Y-140695007D01*
X85701568Y-140745270D01*
X85649883Y-140762525D01*
X85595791Y-140755957D01*
X85549738Y-140726834D01*
X77944719Y-133121814D01*
X77917839Y-133081586D01*
X77908400Y-133034133D01*
X77908400Y-132333999D01*
X86337457Y-132333999D01*
X86357607Y-132667108D01*
X86417763Y-132995364D01*
X86517040Y-133313958D01*
X86517042Y-133313963D01*
X86517043Y-133313965D01*
X86654005Y-133618282D01*
X86826650Y-133903871D01*
X87032459Y-134166567D01*
X87268433Y-134402541D01*
X87531129Y-134608350D01*
X87816718Y-134780995D01*
X88121035Y-134917957D01*
X88439641Y-135017238D01*
X88767892Y-135077393D01*
X89101000Y-135097542D01*
X89434108Y-135077393D01*
X89762359Y-135017238D01*
X90080965Y-134917957D01*
X90385282Y-134780995D01*
X90670871Y-134608350D01*
X90933567Y-134402541D01*
X91169541Y-134166567D01*
X91375350Y-133903871D01*
X91547995Y-133618282D01*
X91684957Y-133313965D01*
X91784238Y-132995359D01*
X91844393Y-132667108D01*
X91864542Y-132334000D01*
X91844393Y-132000892D01*
X91784238Y-131672641D01*
X91684957Y-131354035D01*
X91547995Y-131049718D01*
X91375350Y-130764129D01*
X91169541Y-130501433D01*
X90933567Y-130265459D01*
X90670871Y-130059650D01*
X90385282Y-129887005D01*
X90080965Y-129750043D01*
X90080963Y-129750042D01*
X90080958Y-129750040D01*
X89762364Y-129650763D01*
X89434108Y-129590607D01*
X89101000Y-129570457D01*
X88767891Y-129590607D01*
X88439635Y-129650763D01*
X88121041Y-129750040D01*
X87816717Y-129887005D01*
X87531128Y-130059650D01*
X87268430Y-130265461D01*
X87032461Y-130501430D01*
X86826650Y-130764128D01*
X86654005Y-131049717D01*
X86517040Y-131354041D01*
X86417763Y-131672635D01*
X86357607Y-132000891D01*
X86337457Y-132333999D01*
X77908400Y-132333999D01*
X77908400Y-125475999D01*
X80368457Y-125475999D01*
X80388607Y-125809108D01*
X80448763Y-126137364D01*
X80548040Y-126455958D01*
X80548042Y-126455963D01*
X80548043Y-126455965D01*
X80685005Y-126760282D01*
X80857650Y-127045871D01*
X81063459Y-127308567D01*
X81299433Y-127544541D01*
X81562129Y-127750350D01*
X81847718Y-127922995D01*
X82152035Y-128059957D01*
X82470641Y-128159238D01*
X82798892Y-128219393D01*
X83111850Y-128238323D01*
X83131999Y-128239542D01*
X83131999Y-128239541D01*
X83132000Y-128239542D01*
X83465108Y-128219393D01*
X83793359Y-128159238D01*
X84111965Y-128059957D01*
X84416282Y-127922995D01*
X84701871Y-127750350D01*
X84964567Y-127544541D01*
X85200541Y-127308567D01*
X85406350Y-127045871D01*
X85578995Y-126760282D01*
X85715957Y-126455965D01*
X85815238Y-126137359D01*
X85875393Y-125809108D01*
X85895542Y-125476000D01*
X85875393Y-125142892D01*
X85815238Y-124814641D01*
X85715957Y-124496035D01*
X85578995Y-124191718D01*
X85406350Y-123906129D01*
X85200541Y-123643433D01*
X84964567Y-123407459D01*
X84701871Y-123201650D01*
X84416282Y-123029005D01*
X84111965Y-122892043D01*
X84111963Y-122892042D01*
X84111958Y-122892040D01*
X83793364Y-122792763D01*
X83465108Y-122732607D01*
X83132000Y-122712457D01*
X82798891Y-122732607D01*
X82470635Y-122792763D01*
X82152041Y-122892040D01*
X81847717Y-123029005D01*
X81562128Y-123201650D01*
X81299430Y-123407461D01*
X81063461Y-123643430D01*
X80857650Y-123906128D01*
X80685005Y-124191717D01*
X80548040Y-124496041D01*
X80448763Y-124814635D01*
X80388607Y-125142891D01*
X80368457Y-125475999D01*
X77908400Y-125475999D01*
X77908400Y-112176666D01*
X77921915Y-112120371D01*
X77959515Y-112076348D01*
X78013002Y-112054193D01*
X78070718Y-112058735D01*
X78120081Y-112088985D01*
X84653834Y-118622738D01*
X84682957Y-118668791D01*
X84689525Y-118722883D01*
X84672270Y-118774568D01*
X84622007Y-118857712D01*
X84485040Y-119162041D01*
X84385763Y-119480635D01*
X84325607Y-119808891D01*
X84305457Y-120142000D01*
X84325607Y-120475108D01*
X84385763Y-120803364D01*
X84485040Y-121121958D01*
X84485042Y-121121963D01*
X84485043Y-121121965D01*
X84622005Y-121426282D01*
X84794650Y-121711871D01*
X85000459Y-121974567D01*
X85236433Y-122210541D01*
X85499129Y-122416350D01*
X85784718Y-122588995D01*
X86089035Y-122725957D01*
X86089040Y-122725958D01*
X86089041Y-122725959D01*
X86248338Y-122775597D01*
X86407641Y-122825238D01*
X86735892Y-122885393D01*
X87069000Y-122905542D01*
X87402108Y-122885393D01*
X87730359Y-122825238D01*
X88048965Y-122725957D01*
X88353282Y-122588995D01*
X88638871Y-122416350D01*
X88901567Y-122210541D01*
X89137541Y-121974567D01*
X89183425Y-121916000D01*
X91431000Y-121916000D01*
X91431000Y-123963824D01*
X91437402Y-124023375D01*
X91487647Y-124158089D01*
X91573811Y-124273188D01*
X91688910Y-124359352D01*
X91823624Y-124409597D01*
X91883176Y-124416000D01*
X93931000Y-124416000D01*
X93931000Y-121916000D01*
X94431000Y-121916000D01*
X94431000Y-124416000D01*
X96478824Y-124416000D01*
X96538375Y-124409597D01*
X96673089Y-124359352D01*
X96788188Y-124273188D01*
X96874352Y-124158089D01*
X96924597Y-124023375D01*
X96931000Y-123963824D01*
X96931000Y-121916000D01*
X94431000Y-121916000D01*
X93931000Y-121916000D01*
X91431000Y-121916000D01*
X89183425Y-121916000D01*
X89343350Y-121711871D01*
X89515995Y-121426282D01*
X89520623Y-121416000D01*
X91431000Y-121416000D01*
X93931000Y-121416000D01*
X93931000Y-118916000D01*
X94431000Y-118916000D01*
X94431000Y-121416000D01*
X96931000Y-121416000D01*
X96931000Y-119368176D01*
X96924597Y-119308624D01*
X96874352Y-119173910D01*
X96788188Y-119058811D01*
X96673089Y-118972647D01*
X96538375Y-118922402D01*
X96478824Y-118916000D01*
X94431000Y-118916000D01*
X93931000Y-118916000D01*
X91883176Y-118916000D01*
X91823624Y-118922402D01*
X91688910Y-118972647D01*
X91573811Y-119058811D01*
X91487647Y-119173910D01*
X91437402Y-119308624D01*
X91431000Y-119368176D01*
X91431000Y-121416000D01*
X89520623Y-121416000D01*
X89652957Y-121121965D01*
X89752238Y-120803359D01*
X89812393Y-120475108D01*
X89832542Y-120142000D01*
X89812393Y-119808892D01*
X89752238Y-119480641D01*
X89683935Y-119261447D01*
X89652959Y-119162041D01*
X89652958Y-119162040D01*
X89652957Y-119162035D01*
X89515995Y-118857718D01*
X89343350Y-118572129D01*
X89137541Y-118309433D01*
X88901567Y-118073459D01*
X88638871Y-117867650D01*
X88353282Y-117695005D01*
X88048965Y-117558043D01*
X88048963Y-117558042D01*
X88048958Y-117558040D01*
X87730364Y-117458763D01*
X87402108Y-117398607D01*
X87069000Y-117378457D01*
X86735891Y-117398607D01*
X86407635Y-117458763D01*
X86089041Y-117558040D01*
X86070233Y-117566505D01*
X85784718Y-117695005D01*
X85732067Y-117726834D01*
X85701570Y-117745270D01*
X85649885Y-117762525D01*
X85595793Y-117755957D01*
X85549739Y-117726834D01*
X79156919Y-111334014D01*
X79130039Y-111293786D01*
X79120600Y-111246333D01*
X79120600Y-109333999D01*
X86337457Y-109333999D01*
X86357607Y-109667108D01*
X86417763Y-109995364D01*
X86517040Y-110313958D01*
X86517042Y-110313963D01*
X86517043Y-110313965D01*
X86654005Y-110618282D01*
X86826650Y-110903871D01*
X87032459Y-111166567D01*
X87268433Y-111402541D01*
X87531129Y-111608350D01*
X87816718Y-111780995D01*
X88121035Y-111917957D01*
X88439641Y-112017238D01*
X88767892Y-112077393D01*
X89101000Y-112097542D01*
X89434108Y-112077393D01*
X89762359Y-112017238D01*
X90080965Y-111917957D01*
X90385282Y-111780995D01*
X90670871Y-111608350D01*
X90933567Y-111402541D01*
X91169541Y-111166567D01*
X91375350Y-110903871D01*
X91547995Y-110618282D01*
X91684957Y-110313965D01*
X91784238Y-109995359D01*
X91844393Y-109667108D01*
X91864542Y-109334000D01*
X91844393Y-109000892D01*
X91784238Y-108672641D01*
X91684957Y-108354035D01*
X91547995Y-108049718D01*
X91375350Y-107764129D01*
X91169541Y-107501433D01*
X90933567Y-107265459D01*
X90670871Y-107059650D01*
X90385282Y-106887005D01*
X90080965Y-106750043D01*
X90080963Y-106750042D01*
X90080958Y-106750040D01*
X89762364Y-106650763D01*
X89632957Y-106627048D01*
X89434108Y-106590607D01*
X89101000Y-106570457D01*
X88767891Y-106590607D01*
X88439635Y-106650763D01*
X88121041Y-106750040D01*
X87816717Y-106887005D01*
X87531128Y-107059650D01*
X87268430Y-107265461D01*
X87032461Y-107501430D01*
X86826650Y-107764128D01*
X86654005Y-108049717D01*
X86517040Y-108354041D01*
X86417763Y-108672635D01*
X86357607Y-109000891D01*
X86337457Y-109333999D01*
X79120600Y-109333999D01*
X79120600Y-44388866D01*
X79134115Y-44332571D01*
X79171715Y-44288548D01*
X79225202Y-44266393D01*
X79282918Y-44270935D01*
G37*
%TD.AperFunction*%
%TA.AperFunction,Conductor*%
G36*
X106433370Y-37575199D02*
G01*
X106537424Y-37656189D01*
X106580697Y-37679607D01*
X106626336Y-37722156D01*
X106645475Y-37781546D01*
X106633266Y-37842738D01*
X106592801Y-37890237D01*
X106521625Y-37940072D01*
X107548871Y-38967318D01*
X107580965Y-39022905D01*
X107580965Y-39087093D01*
X107548871Y-39142680D01*
X106521625Y-40169925D01*
X106605421Y-40228600D01*
X106629313Y-40239741D01*
X106675285Y-40276636D01*
X106699025Y-40330590D01*
X106695170Y-40389410D01*
X106664590Y-40439804D01*
X101774080Y-45330313D01*
X101757796Y-45343361D01*
X101709239Y-45395068D01*
X101706533Y-45397861D01*
X101686761Y-45417633D01*
X101684221Y-45420908D01*
X101676652Y-45429769D01*
X101646314Y-45462077D01*
X101636482Y-45479963D01*
X101625801Y-45496223D01*
X101613285Y-45512359D01*
X101595686Y-45553028D01*
X101590548Y-45563517D01*
X101569203Y-45602343D01*
X101564126Y-45622118D01*
X101557825Y-45640523D01*
X101549718Y-45659256D01*
X101542788Y-45703010D01*
X101540420Y-45714446D01*
X101529400Y-45757370D01*
X101529400Y-45777784D01*
X101527873Y-45797183D01*
X101524680Y-45817341D01*
X101528850Y-45861457D01*
X101529400Y-45873126D01*
X101529400Y-131057933D01*
X101519961Y-131105386D01*
X101493081Y-131145614D01*
X98976781Y-133661914D01*
X98927418Y-133692164D01*
X98869702Y-133696706D01*
X98816215Y-133674551D01*
X98778615Y-133630528D01*
X98765100Y-133574233D01*
X98765100Y-44301966D01*
X98774539Y-44254513D01*
X98801419Y-44214285D01*
X98926200Y-44089504D01*
X102845778Y-40169925D01*
X103981625Y-40169925D01*
X104065420Y-40228599D01*
X104279507Y-40328430D01*
X104507681Y-40389569D01*
X104743000Y-40410157D01*
X104978318Y-40389569D01*
X105206492Y-40328430D01*
X105420576Y-40228600D01*
X105504373Y-40169925D01*
X104743000Y-39408553D01*
X103981625Y-40169925D01*
X102845778Y-40169925D01*
X103353143Y-39662560D01*
X103403531Y-39631984D01*
X103462351Y-39628129D01*
X103516305Y-39651869D01*
X103553201Y-39697840D01*
X103569400Y-39732580D01*
X103628073Y-39816373D01*
X104655318Y-38789128D01*
X104710905Y-38757034D01*
X104775093Y-38757034D01*
X104830680Y-38789128D01*
X105857925Y-39816373D01*
X105911424Y-39739969D01*
X105955742Y-39701103D01*
X106012999Y-39687092D01*
X106070256Y-39701103D01*
X106114574Y-39739969D01*
X106168072Y-39816373D01*
X106168073Y-39816373D01*
X106929447Y-39055001D01*
X106929447Y-39055000D01*
X106168072Y-38293625D01*
X106168072Y-38293626D01*
X106114574Y-38370030D01*
X106070256Y-38408896D01*
X106012999Y-38422907D01*
X105955742Y-38408896D01*
X105911424Y-38370031D01*
X105795433Y-38204379D01*
X105774317Y-38151227D01*
X105779302Y-38094251D01*
X105809323Y-38045579D01*
X106269531Y-37585371D01*
X106320195Y-37554708D01*
X106379304Y-37551038D01*
X106433370Y-37575199D01*
G37*
%TD.AperFunction*%
%TA.AperFunction,Conductor*%
G36*
X115551861Y-106627048D02*
G01*
X115590285Y-106684933D01*
X115613040Y-106757958D01*
X115613042Y-106757963D01*
X115613043Y-106757965D01*
X115750005Y-107062282D01*
X115922650Y-107347871D01*
X116128459Y-107610567D01*
X116364433Y-107846541D01*
X116627129Y-108052350D01*
X116912718Y-108224995D01*
X117217035Y-108361957D01*
X117535641Y-108461238D01*
X117863892Y-108521393D01*
X118197000Y-108541542D01*
X118530108Y-108521393D01*
X118858359Y-108461238D01*
X119176965Y-108361957D01*
X119481282Y-108224995D01*
X119766871Y-108052350D01*
X119949329Y-107909402D01*
X120012714Y-107883707D01*
X120080083Y-107895528D01*
X120130936Y-107941270D01*
X120149800Y-108007015D01*
X120149800Y-119225128D01*
X120131062Y-119290671D01*
X120080511Y-119336405D01*
X120013426Y-119348509D01*
X119950080Y-119323324D01*
X119909618Y-119268462D01*
X119874352Y-119173910D01*
X119788188Y-119058811D01*
X119673089Y-118972647D01*
X119538375Y-118922402D01*
X119478824Y-118916000D01*
X117431000Y-118916000D01*
X117431000Y-124416000D01*
X119478824Y-124416000D01*
X119538375Y-124409597D01*
X119673089Y-124359352D01*
X119788188Y-124273188D01*
X119874352Y-124158089D01*
X119909618Y-124063538D01*
X119950080Y-124008676D01*
X120013426Y-123983491D01*
X120080511Y-123995595D01*
X120131062Y-124041329D01*
X120149800Y-124106872D01*
X120149800Y-126548985D01*
X120130936Y-126614730D01*
X120080083Y-126660472D01*
X120012714Y-126672293D01*
X119949329Y-126646597D01*
X119766871Y-126503650D01*
X119481282Y-126331005D01*
X119176965Y-126194043D01*
X119176963Y-126194042D01*
X119176958Y-126194040D01*
X118858364Y-126094763D01*
X118530108Y-126034607D01*
X118197000Y-126014457D01*
X117863891Y-126034607D01*
X117535635Y-126094763D01*
X117217041Y-126194040D01*
X116912717Y-126331005D01*
X116627128Y-126503650D01*
X116364430Y-126709461D01*
X116128461Y-126945430D01*
X115922650Y-127208128D01*
X115750005Y-127493717D01*
X115613040Y-127798041D01*
X115513763Y-128116635D01*
X115453607Y-128444891D01*
X115446174Y-128567777D01*
X115426531Y-128627616D01*
X115380026Y-128670087D01*
X115318655Y-128684233D01*
X115258250Y-128666407D01*
X115214394Y-128621206D01*
X115198400Y-128560290D01*
X115198400Y-124540000D01*
X115215013Y-124478000D01*
X115260400Y-124432613D01*
X115322400Y-124416000D01*
X116931000Y-124416000D01*
X116931000Y-118916000D01*
X115471900Y-118916000D01*
X115409900Y-118899387D01*
X115364513Y-118854000D01*
X115347900Y-118792000D01*
X115347900Y-106721823D01*
X115367364Y-106655128D01*
X115419646Y-106609371D01*
X115488333Y-106598917D01*
X115551861Y-106627048D01*
G37*
%TD.AperFunction*%
%TA.AperFunction,Conductor*%
G36*
X115551461Y-83625764D02*
G01*
X115589885Y-83683649D01*
X115613040Y-83757958D01*
X115613042Y-83757963D01*
X115613043Y-83757965D01*
X115750005Y-84062282D01*
X115922650Y-84347871D01*
X116128459Y-84610567D01*
X116364433Y-84846541D01*
X116627129Y-85052350D01*
X116912718Y-85224995D01*
X117217035Y-85361957D01*
X117535641Y-85461238D01*
X117863892Y-85521393D01*
X118197000Y-85541542D01*
X118530108Y-85521393D01*
X118858359Y-85461238D01*
X119176965Y-85361957D01*
X119481282Y-85224995D01*
X119766871Y-85052350D01*
X119949329Y-84909402D01*
X120012714Y-84883707D01*
X120080083Y-84895528D01*
X120130936Y-84941270D01*
X120149800Y-85007015D01*
X120149800Y-96225128D01*
X120131062Y-96290671D01*
X120080511Y-96336405D01*
X120013426Y-96348509D01*
X119950080Y-96323324D01*
X119909618Y-96268462D01*
X119874352Y-96173910D01*
X119788188Y-96058811D01*
X119673089Y-95972647D01*
X119538375Y-95922402D01*
X119478824Y-95916000D01*
X117431000Y-95916000D01*
X117431000Y-101416000D01*
X119478824Y-101416000D01*
X119538375Y-101409597D01*
X119673089Y-101359352D01*
X119788188Y-101273188D01*
X119874352Y-101158089D01*
X119909618Y-101063538D01*
X119950080Y-101008676D01*
X120013426Y-100983491D01*
X120080511Y-100995595D01*
X120131062Y-101041329D01*
X120149800Y-101106872D01*
X120149800Y-103548985D01*
X120130936Y-103614730D01*
X120080083Y-103660472D01*
X120012714Y-103672293D01*
X119949329Y-103646597D01*
X119766871Y-103503650D01*
X119481282Y-103331005D01*
X119176965Y-103194043D01*
X119176963Y-103194042D01*
X119176958Y-103194040D01*
X118858364Y-103094763D01*
X118530108Y-103034607D01*
X118197000Y-103014457D01*
X117863891Y-103034607D01*
X117535635Y-103094763D01*
X117217041Y-103194040D01*
X116912717Y-103331005D01*
X116627128Y-103503650D01*
X116364430Y-103709461D01*
X116128461Y-103945430D01*
X115922650Y-104208128D01*
X115750005Y-104493717D01*
X115613040Y-104798041D01*
X115590285Y-104871067D01*
X115551861Y-104928952D01*
X115488333Y-104957083D01*
X115419646Y-104946629D01*
X115367364Y-104900872D01*
X115347900Y-104834177D01*
X115347900Y-104762428D01*
X115350188Y-104741692D01*
X115350100Y-104738894D01*
X115350101Y-104738891D01*
X115347960Y-104670800D01*
X115347900Y-104666906D01*
X115347900Y-104638946D01*
X115347381Y-104634839D01*
X115346464Y-104623188D01*
X115346229Y-104615709D01*
X115345073Y-104578910D01*
X115339378Y-104559311D01*
X115335433Y-104540262D01*
X115332874Y-104520003D01*
X115316563Y-104478807D01*
X115312780Y-104467758D01*
X115300418Y-104425206D01*
X115290022Y-104407628D01*
X115281467Y-104390166D01*
X115273952Y-104371183D01*
X115273950Y-104371180D01*
X115250681Y-104339153D01*
X115233069Y-104304587D01*
X115227000Y-104266269D01*
X115227000Y-101540000D01*
X115243613Y-101478000D01*
X115289000Y-101432613D01*
X115351000Y-101416000D01*
X116931000Y-101416000D01*
X116931000Y-95916000D01*
X115471500Y-95916000D01*
X115409500Y-95899387D01*
X115364113Y-95854000D01*
X115347500Y-95792000D01*
X115347500Y-83720539D01*
X115366964Y-83653844D01*
X115419246Y-83608087D01*
X115487933Y-83597633D01*
X115551461Y-83625764D01*
G37*
%TD.AperFunction*%
%TA.AperFunction,Conductor*%
G36*
X69534461Y-60571209D02*
G01*
X69572885Y-60629094D01*
X69613040Y-60757958D01*
X69613042Y-60757963D01*
X69613043Y-60757965D01*
X69750005Y-61062282D01*
X69922650Y-61347871D01*
X70128459Y-61610567D01*
X70364433Y-61846541D01*
X70627129Y-62052350D01*
X70912718Y-62224995D01*
X71217035Y-62361957D01*
X71535641Y-62461238D01*
X71863892Y-62521393D01*
X72197000Y-62541542D01*
X72530108Y-62521393D01*
X72858359Y-62461238D01*
X73176965Y-62361957D01*
X73481282Y-62224995D01*
X73766871Y-62052350D01*
X73938428Y-61917943D01*
X74001814Y-61892247D01*
X74069183Y-61904068D01*
X74120036Y-61949810D01*
X74138900Y-62015555D01*
X74138900Y-73195904D01*
X74120162Y-73261447D01*
X74069611Y-73307181D01*
X74002526Y-73319285D01*
X73939180Y-73294100D01*
X73898718Y-73239238D01*
X73874352Y-73173910D01*
X73788188Y-73058811D01*
X73673089Y-72972647D01*
X73538375Y-72922402D01*
X73478824Y-72916000D01*
X71431000Y-72916000D01*
X71431000Y-78416000D01*
X73478824Y-78416000D01*
X73538375Y-78409597D01*
X73673089Y-78359352D01*
X73788188Y-78273188D01*
X73874352Y-78158089D01*
X73898718Y-78092762D01*
X73939180Y-78037900D01*
X74002526Y-78012715D01*
X74069611Y-78024819D01*
X74120162Y-78070553D01*
X74138900Y-78136096D01*
X74138900Y-80540445D01*
X74120036Y-80606190D01*
X74069183Y-80651932D01*
X74001814Y-80663753D01*
X73938428Y-80638056D01*
X73766871Y-80503650D01*
X73481282Y-80331005D01*
X73176965Y-80194043D01*
X73176963Y-80194042D01*
X73176958Y-80194040D01*
X72858364Y-80094763D01*
X72530108Y-80034607D01*
X72197000Y-80014457D01*
X71863891Y-80034607D01*
X71535635Y-80094763D01*
X71217041Y-80194040D01*
X70912717Y-80331005D01*
X70627128Y-80503650D01*
X70364430Y-80709461D01*
X70128461Y-80945430D01*
X69922650Y-81208128D01*
X69750005Y-81493717D01*
X69613040Y-81798041D01*
X69513763Y-82116635D01*
X69462369Y-82397080D01*
X69437236Y-82452180D01*
X69389004Y-82488806D01*
X69329178Y-82498219D01*
X69272029Y-82478176D01*
X69231189Y-82433456D01*
X69216400Y-82374728D01*
X69216400Y-78540000D01*
X69233013Y-78478000D01*
X69278400Y-78432613D01*
X69340400Y-78416000D01*
X70931000Y-78416000D01*
X70931000Y-72916000D01*
X69454500Y-72916000D01*
X69392500Y-72899387D01*
X69347113Y-72854000D01*
X69330500Y-72792000D01*
X69330500Y-60665984D01*
X69349964Y-60599289D01*
X69402246Y-60553532D01*
X69470933Y-60543078D01*
X69534461Y-60571209D01*
G37*
%TD.AperFunction*%
%TA.AperFunction,Conductor*%
G36*
X115937521Y-61391026D02*
G01*
X115985611Y-61428235D01*
X115999341Y-61445760D01*
X116128459Y-61610567D01*
X116364433Y-61846541D01*
X116627129Y-62052350D01*
X116912718Y-62224995D01*
X117217035Y-62361957D01*
X117535641Y-62461238D01*
X117863892Y-62521393D01*
X118197000Y-62541542D01*
X118530108Y-62521393D01*
X118858359Y-62461238D01*
X119176965Y-62361957D01*
X119481282Y-62224995D01*
X119766871Y-62052350D01*
X119949329Y-61909402D01*
X120012714Y-61883707D01*
X120080083Y-61895528D01*
X120130936Y-61941270D01*
X120149800Y-62007015D01*
X120149800Y-73225128D01*
X120131062Y-73290671D01*
X120080511Y-73336405D01*
X120013426Y-73348509D01*
X119950080Y-73323324D01*
X119909618Y-73268462D01*
X119874352Y-73173910D01*
X119788188Y-73058811D01*
X119673089Y-72972647D01*
X119538375Y-72922402D01*
X119478824Y-72916000D01*
X117431000Y-72916000D01*
X117431000Y-78416000D01*
X119478824Y-78416000D01*
X119538375Y-78409597D01*
X119673089Y-78359352D01*
X119788188Y-78273188D01*
X119874352Y-78158089D01*
X119909618Y-78063538D01*
X119950080Y-78008676D01*
X120013426Y-77983491D01*
X120080511Y-77995595D01*
X120131062Y-78041329D01*
X120149800Y-78106872D01*
X120149800Y-80548985D01*
X120130936Y-80614730D01*
X120080083Y-80660472D01*
X120012714Y-80672293D01*
X119949329Y-80646597D01*
X119766871Y-80503650D01*
X119481282Y-80331005D01*
X119176965Y-80194043D01*
X119176963Y-80194042D01*
X119176958Y-80194040D01*
X118858364Y-80094763D01*
X118530108Y-80034607D01*
X118197000Y-80014457D01*
X117863891Y-80034607D01*
X117535635Y-80094763D01*
X117217041Y-80194040D01*
X116912717Y-80331005D01*
X116627128Y-80503650D01*
X116364430Y-80709461D01*
X116128461Y-80945430D01*
X115922650Y-81208128D01*
X115750005Y-81493717D01*
X115613040Y-81798041D01*
X115589885Y-81872351D01*
X115551461Y-81930236D01*
X115487933Y-81958367D01*
X115419246Y-81947913D01*
X115366964Y-81902156D01*
X115347500Y-81835461D01*
X115347500Y-81762033D01*
X115349789Y-81741291D01*
X115349701Y-81738494D01*
X115349702Y-81738491D01*
X115347560Y-81670382D01*
X115347500Y-81666487D01*
X115347500Y-81638546D01*
X115346982Y-81634449D01*
X115346064Y-81622790D01*
X115344673Y-81578510D01*
X115338978Y-81558911D01*
X115335033Y-81539862D01*
X115332474Y-81519603D01*
X115316162Y-81478404D01*
X115312377Y-81467350D01*
X115302952Y-81434908D01*
X115300018Y-81424807D01*
X115297007Y-81419716D01*
X115289624Y-81407231D01*
X115281064Y-81389757D01*
X115273551Y-81370781D01*
X115250783Y-81339444D01*
X115233169Y-81304877D01*
X115227100Y-81266558D01*
X115227100Y-78540000D01*
X115243713Y-78478000D01*
X115289100Y-78432613D01*
X115351100Y-78416000D01*
X116931000Y-78416000D01*
X116931000Y-72916000D01*
X115351100Y-72916000D01*
X115289100Y-72899387D01*
X115243713Y-72854000D01*
X115227100Y-72792000D01*
X115227100Y-72299566D01*
X115236539Y-72252113D01*
X115263416Y-72211887D01*
X115519320Y-71955982D01*
X115535598Y-71942943D01*
X115537514Y-71940902D01*
X115537518Y-71940900D01*
X115584206Y-71891179D01*
X115586823Y-71888479D01*
X115606634Y-71868670D01*
X115609172Y-71865397D01*
X115616741Y-71856534D01*
X115647086Y-71824221D01*
X115656922Y-71806327D01*
X115667602Y-71790068D01*
X115680113Y-71773941D01*
X115697711Y-71733272D01*
X115702841Y-71722800D01*
X115724195Y-71683960D01*
X115729272Y-71664182D01*
X115735572Y-71645782D01*
X115743681Y-71627045D01*
X115750612Y-71583276D01*
X115752978Y-71571853D01*
X115764000Y-71528930D01*
X115764000Y-71508516D01*
X115765527Y-71489117D01*
X115765602Y-71488640D01*
X115768720Y-71468957D01*
X115764550Y-71424843D01*
X115764000Y-71413174D01*
X115764000Y-61504708D01*
X115778908Y-61445760D01*
X115820046Y-61400986D01*
X115877524Y-61381151D01*
X115937521Y-61391026D01*
G37*
%TD.AperFunction*%
%TA.AperFunction,Conductor*%
G36*
X97446985Y-44854848D02*
G01*
X97484585Y-44898871D01*
X97498100Y-44955166D01*
X97498100Y-57882935D01*
X97483192Y-57941883D01*
X97442053Y-57986657D01*
X97384575Y-58006492D01*
X97324578Y-57996617D01*
X97276490Y-57959409D01*
X97265541Y-57945433D01*
X97029567Y-57709459D01*
X96766871Y-57503650D01*
X96481282Y-57331005D01*
X96176965Y-57194043D01*
X96176963Y-57194042D01*
X96176958Y-57194040D01*
X95858364Y-57094763D01*
X95530108Y-57034607D01*
X95197000Y-57014457D01*
X94863891Y-57034607D01*
X94535635Y-57094763D01*
X94217041Y-57194040D01*
X93912717Y-57331005D01*
X93627128Y-57503650D01*
X93364430Y-57709461D01*
X93128461Y-57945430D01*
X92922650Y-58208128D01*
X92750005Y-58493717D01*
X92613040Y-58798041D01*
X92513763Y-59116635D01*
X92483869Y-59279760D01*
X92458736Y-59334860D01*
X92410504Y-59371486D01*
X92350678Y-59380899D01*
X92293529Y-59360856D01*
X92252689Y-59316136D01*
X92237900Y-59257408D01*
X92237900Y-55540000D01*
X92254513Y-55478000D01*
X92299900Y-55432613D01*
X92361900Y-55416000D01*
X93931000Y-55416000D01*
X93931000Y-52916000D01*
X94431000Y-52916000D01*
X94431000Y-55416000D01*
X96478824Y-55416000D01*
X96538375Y-55409597D01*
X96673089Y-55359352D01*
X96788188Y-55273188D01*
X96874352Y-55158089D01*
X96924597Y-55023375D01*
X96931000Y-54963824D01*
X96931000Y-52916000D01*
X94431000Y-52916000D01*
X93931000Y-52916000D01*
X93931000Y-49916000D01*
X94431000Y-49916000D01*
X94431000Y-52416000D01*
X96931000Y-52416000D01*
X96931000Y-50368176D01*
X96924597Y-50308624D01*
X96874352Y-50173910D01*
X96788188Y-50058811D01*
X96673089Y-49972647D01*
X96538375Y-49922402D01*
X96478824Y-49916000D01*
X94431000Y-49916000D01*
X93931000Y-49916000D01*
X92537266Y-49916000D01*
X92480971Y-49902485D01*
X92436948Y-49864885D01*
X92414793Y-49811398D01*
X92419335Y-49753682D01*
X92449585Y-49704319D01*
X97286419Y-44867485D01*
X97335782Y-44837235D01*
X97393498Y-44832693D01*
X97446985Y-44854848D01*
G37*
%TD.AperFunction*%
%TA.AperFunction,Conductor*%
G36*
X117427017Y-37570255D02*
G01*
X117537424Y-37656189D01*
X117580697Y-37679607D01*
X117626336Y-37722156D01*
X117645475Y-37781546D01*
X117633266Y-37842738D01*
X117592801Y-37890237D01*
X117521625Y-37940072D01*
X118283000Y-38701447D01*
X119397925Y-39816373D01*
X119456600Y-39732576D01*
X119556430Y-39518492D01*
X119617569Y-39290318D01*
X119638226Y-39054213D01*
X119663378Y-38989534D01*
X119719343Y-38948498D01*
X119788592Y-38943959D01*
X119849435Y-38977339D01*
X120113481Y-39241385D01*
X120140361Y-39281613D01*
X120149800Y-39329066D01*
X120149800Y-50225128D01*
X120131062Y-50290671D01*
X120080511Y-50336405D01*
X120013426Y-50348509D01*
X119950080Y-50323324D01*
X119909618Y-50268462D01*
X119874352Y-50173910D01*
X119788188Y-50058811D01*
X119673089Y-49972647D01*
X119538375Y-49922402D01*
X119478824Y-49916000D01*
X117431000Y-49916000D01*
X117431000Y-55416000D01*
X119478824Y-55416000D01*
X119538375Y-55409597D01*
X119673089Y-55359352D01*
X119788188Y-55273188D01*
X119874352Y-55158089D01*
X119909618Y-55063538D01*
X119950080Y-55008676D01*
X120013426Y-54983491D01*
X120080511Y-54995595D01*
X120131062Y-55041329D01*
X120149800Y-55106872D01*
X120149800Y-57548985D01*
X120130936Y-57614730D01*
X120080083Y-57660472D01*
X120012714Y-57672293D01*
X119949329Y-57646597D01*
X119766871Y-57503650D01*
X119481282Y-57331005D01*
X119176965Y-57194043D01*
X119176963Y-57194042D01*
X119176958Y-57194040D01*
X118858364Y-57094763D01*
X118530108Y-57034607D01*
X118197000Y-57014457D01*
X117863891Y-57034607D01*
X117535635Y-57094763D01*
X117217041Y-57194040D01*
X116912717Y-57331005D01*
X116627128Y-57503650D01*
X116364430Y-57709461D01*
X116128461Y-57945430D01*
X115985611Y-58127765D01*
X115937521Y-58164974D01*
X115877524Y-58174849D01*
X115820046Y-58155014D01*
X115778908Y-58110240D01*
X115764000Y-58051292D01*
X115764000Y-55903633D01*
X115766289Y-55882890D01*
X115766201Y-55880094D01*
X115766202Y-55880091D01*
X115764060Y-55811968D01*
X115764000Y-55808074D01*
X115764000Y-55780147D01*
X115764000Y-55780144D01*
X115763482Y-55776047D01*
X115762565Y-55764398D01*
X115761174Y-55720111D01*
X115755474Y-55700494D01*
X115751533Y-55681464D01*
X115748974Y-55661203D01*
X115732663Y-55620007D01*
X115728881Y-55608960D01*
X115718897Y-55574596D01*
X115715990Y-55517723D01*
X115738812Y-55465548D01*
X115782547Y-55429077D01*
X115837973Y-55416000D01*
X116931000Y-55416000D01*
X116931000Y-49916000D01*
X115309400Y-49916000D01*
X115247400Y-49899387D01*
X115202013Y-49854000D01*
X115185400Y-49792000D01*
X115185400Y-40464815D01*
X115198188Y-40409971D01*
X115233914Y-40366439D01*
X115285209Y-40343198D01*
X115341494Y-40345040D01*
X115507681Y-40389569D01*
X115743000Y-40410157D01*
X115978318Y-40389569D01*
X116206492Y-40328430D01*
X116420576Y-40228600D01*
X116504373Y-40169925D01*
X117521625Y-40169925D01*
X117605420Y-40228599D01*
X117819507Y-40328430D01*
X118047681Y-40389569D01*
X118283000Y-40410157D01*
X118518318Y-40389569D01*
X118746492Y-40328430D01*
X118960576Y-40228600D01*
X119044373Y-40169925D01*
X118283000Y-39408553D01*
X117521625Y-40169925D01*
X116504373Y-40169925D01*
X115477128Y-39142680D01*
X115445034Y-39087093D01*
X115445034Y-39022905D01*
X115477128Y-38967318D01*
X115655318Y-38789128D01*
X115710905Y-38757034D01*
X115775093Y-38757034D01*
X115830680Y-38789128D01*
X116857925Y-39816373D01*
X116911424Y-39739969D01*
X116955742Y-39701103D01*
X117012999Y-39687092D01*
X117070256Y-39701103D01*
X117114574Y-39739969D01*
X117168072Y-39816373D01*
X117168073Y-39816373D01*
X117929447Y-39055001D01*
X117929447Y-39054999D01*
X117168073Y-38293625D01*
X117168072Y-38293626D01*
X117114574Y-38370030D01*
X117070256Y-38408896D01*
X117012999Y-38422907D01*
X116955743Y-38408897D01*
X116911424Y-38370031D01*
X116790779Y-38197733D01*
X116769663Y-38144581D01*
X116774648Y-38087605D01*
X116804669Y-38038933D01*
X117263177Y-37580426D01*
X117313841Y-37549763D01*
X117372949Y-37546093D01*
X117427017Y-37570255D01*
G37*
%TD.AperFunction*%
%TA.AperFunction,Conductor*%
G36*
X57455396Y-37365440D02*
G01*
X57504429Y-37398056D01*
X57614760Y-37517906D01*
X57792424Y-37656189D01*
X57835697Y-37679607D01*
X57881336Y-37722156D01*
X57900475Y-37781546D01*
X57888266Y-37842738D01*
X57847801Y-37890237D01*
X57776625Y-37940072D01*
X58803871Y-38967318D01*
X58835965Y-39022905D01*
X58835965Y-39087093D01*
X58803871Y-39142680D01*
X57776625Y-40169925D01*
X57860420Y-40228599D01*
X58074507Y-40328430D01*
X58302681Y-40389569D01*
X58538000Y-40410157D01*
X58773318Y-40389569D01*
X59011970Y-40325623D01*
X59012426Y-40327326D01*
X59058612Y-40318663D01*
X59117126Y-40337817D01*
X59159214Y-40382755D01*
X59174500Y-40442397D01*
X59174500Y-49704534D01*
X59165061Y-49751987D01*
X59138181Y-49792215D01*
X57500881Y-51429514D01*
X57451518Y-51459764D01*
X57393802Y-51464306D01*
X57340315Y-51442151D01*
X57302715Y-51398128D01*
X57289200Y-51341833D01*
X57289200Y-39939983D01*
X57307662Y-39874886D01*
X57357549Y-39829172D01*
X57422751Y-39816695D01*
X58184447Y-39055001D01*
X58184447Y-39055000D01*
X57422750Y-38293303D01*
X57357549Y-38280827D01*
X57307662Y-38235113D01*
X57289200Y-38170016D01*
X57289200Y-37482040D01*
X57303184Y-37424834D01*
X57341983Y-37380531D01*
X57396845Y-37359123D01*
X57455396Y-37365440D01*
G37*
%TD.AperFunction*%
%TA.AperFunction,Conductor*%
G36*
X92322500Y-30885513D02*
G01*
X92367887Y-30930900D01*
X92384500Y-30992900D01*
X92384500Y-32085544D01*
X92395112Y-32189425D01*
X92450884Y-32357736D01*
X92543971Y-32508654D01*
X92669345Y-32634028D01*
X92669347Y-32634029D01*
X92669348Y-32634030D01*
X92820262Y-32727115D01*
X92820357Y-32727146D01*
X92820857Y-32727481D01*
X92832598Y-32734723D01*
X92832327Y-32735161D01*
X92875327Y-32763951D01*
X92903551Y-32823784D01*
X92896993Y-32889614D01*
X92857519Y-32942704D01*
X92819759Y-32972095D01*
X92667279Y-33137730D01*
X92544138Y-33326211D01*
X92453705Y-33532381D01*
X92398435Y-33750636D01*
X92379843Y-33975000D01*
X92398435Y-34199363D01*
X92398435Y-34199366D01*
X92398436Y-34199368D01*
X92453704Y-34417616D01*
X92458328Y-34428158D01*
X92544138Y-34623788D01*
X92544140Y-34623791D01*
X92667278Y-34812268D01*
X92819760Y-34977906D01*
X92997424Y-35116189D01*
X92997426Y-35116190D01*
X93033931Y-35135946D01*
X93081436Y-35181527D01*
X93098913Y-35245000D01*
X93081436Y-35308473D01*
X93033931Y-35354054D01*
X92997426Y-35373809D01*
X92819760Y-35512094D01*
X92667279Y-35677730D01*
X92544138Y-35866211D01*
X92453705Y-36072381D01*
X92398435Y-36290636D01*
X92379843Y-36514999D01*
X92398435Y-36739363D01*
X92398436Y-36739365D01*
X92398436Y-36739368D01*
X92443757Y-36918338D01*
X92453705Y-36957618D01*
X92544138Y-37163788D01*
X92544140Y-37163791D01*
X92667278Y-37352268D01*
X92819760Y-37517906D01*
X92997424Y-37656189D01*
X93040697Y-37679607D01*
X93086336Y-37722156D01*
X93105475Y-37781546D01*
X93093266Y-37842738D01*
X93052801Y-37890237D01*
X92981625Y-37940072D01*
X93743000Y-38701447D01*
X93743001Y-38701447D01*
X94504373Y-37940073D01*
X94504373Y-37940072D01*
X94433198Y-37890235D01*
X94392733Y-37842736D01*
X94380525Y-37781544D01*
X94399665Y-37722154D01*
X94445299Y-37679608D01*
X94488576Y-37656189D01*
X94666240Y-37517906D01*
X94818722Y-37352268D01*
X94909190Y-37213795D01*
X94953982Y-37172561D01*
X95013000Y-37157616D01*
X95072018Y-37172561D01*
X95116809Y-37213795D01*
X95207277Y-37352267D01*
X95219388Y-37365422D01*
X95359760Y-37517906D01*
X95537424Y-37656189D01*
X95580697Y-37679607D01*
X95626336Y-37722156D01*
X95645475Y-37781546D01*
X95633266Y-37842738D01*
X95592801Y-37890237D01*
X95521625Y-37940072D01*
X96283000Y-38701447D01*
X96283001Y-38701447D01*
X97044373Y-37940073D01*
X97044373Y-37940072D01*
X96973198Y-37890235D01*
X96932733Y-37842736D01*
X96920525Y-37781544D01*
X96939665Y-37722154D01*
X96985299Y-37679608D01*
X97028576Y-37656189D01*
X97206240Y-37517906D01*
X97358722Y-37352268D01*
X97481860Y-37163791D01*
X97572296Y-36957616D01*
X97627564Y-36739368D01*
X97646156Y-36515000D01*
X97627564Y-36290632D01*
X97572296Y-36072384D01*
X97483002Y-35868812D01*
X97481861Y-35866211D01*
X97481860Y-35866209D01*
X97358722Y-35677732D01*
X97206240Y-35512094D01*
X97028576Y-35373811D01*
X96992067Y-35354053D01*
X96944563Y-35308474D01*
X96927086Y-35245000D01*
X96944563Y-35181526D01*
X96992067Y-35135946D01*
X97028576Y-35116189D01*
X97206240Y-34977906D01*
X97358722Y-34812268D01*
X97481860Y-34623791D01*
X97572296Y-34417616D01*
X97627564Y-34199368D01*
X97646156Y-33975000D01*
X97627564Y-33750632D01*
X97572296Y-33532384D01*
X97481860Y-33326209D01*
X97358722Y-33137732D01*
X97206240Y-32972094D01*
X97028576Y-32833811D01*
X97028575Y-32833810D01*
X96992067Y-32814053D01*
X96944562Y-32768471D01*
X96927086Y-32704997D01*
X96944564Y-32641523D01*
X96992067Y-32595946D01*
X97028576Y-32576189D01*
X97206240Y-32437906D01*
X97358722Y-32272268D01*
X97481860Y-32083791D01*
X97572296Y-31877616D01*
X97627564Y-31659368D01*
X97646156Y-31435000D01*
X97627564Y-31210632D01*
X97580134Y-31023339D01*
X97578980Y-30967453D01*
X97602488Y-30916738D01*
X97645881Y-30881500D01*
X97700341Y-30868900D01*
X103260500Y-30868900D01*
X103322500Y-30885513D01*
X103367887Y-30930900D01*
X103384500Y-30992900D01*
X103384500Y-32085544D01*
X103395112Y-32189425D01*
X103450884Y-32357736D01*
X103450885Y-32357738D01*
X103512249Y-32457224D01*
X103530005Y-32509121D01*
X103523638Y-32563600D01*
X103494391Y-32610002D01*
X97667803Y-38436589D01*
X97617409Y-38467169D01*
X97558589Y-38471024D01*
X97504635Y-38447283D01*
X97467739Y-38401312D01*
X97456597Y-38377418D01*
X97397926Y-38293626D01*
X97397925Y-38293625D01*
X96283000Y-39408553D01*
X95521625Y-40169925D01*
X95605418Y-40228598D01*
X95629311Y-40239739D01*
X95675283Y-40276634D01*
X95699024Y-40330588D01*
X95695169Y-40389409D01*
X95664589Y-40439803D01*
X89667380Y-46437013D01*
X89651096Y-46450061D01*
X89602539Y-46501768D01*
X89599833Y-46504561D01*
X89580061Y-46524333D01*
X89577521Y-46527608D01*
X89569952Y-46536469D01*
X89539614Y-46568777D01*
X89529782Y-46586663D01*
X89519101Y-46602923D01*
X89506585Y-46619059D01*
X89488986Y-46659728D01*
X89483848Y-46670217D01*
X89462503Y-46709043D01*
X89457426Y-46728818D01*
X89451125Y-46747223D01*
X89443018Y-46765956D01*
X89436088Y-46809710D01*
X89433720Y-46821146D01*
X89422700Y-46864070D01*
X89422700Y-46884484D01*
X89421173Y-46903883D01*
X89417980Y-46924041D01*
X89422150Y-46968157D01*
X89422700Y-46979826D01*
X89422700Y-49314073D01*
X89407792Y-49373021D01*
X89366654Y-49417795D01*
X89309176Y-49437630D01*
X89249179Y-49427755D01*
X89201090Y-49390547D01*
X89137539Y-49309431D01*
X88901569Y-49073461D01*
X88901569Y-49073460D01*
X88901567Y-49073459D01*
X88638871Y-48867650D01*
X88353282Y-48695005D01*
X88048965Y-48558043D01*
X88048963Y-48558042D01*
X88048958Y-48558040D01*
X87730364Y-48458763D01*
X87402108Y-48398607D01*
X87069000Y-48378457D01*
X86735891Y-48398607D01*
X86407635Y-48458763D01*
X86089041Y-48558040D01*
X85784712Y-48695007D01*
X85701568Y-48745270D01*
X85649883Y-48762525D01*
X85595791Y-48755957D01*
X85549738Y-48726834D01*
X82620087Y-45797183D01*
X79660619Y-42837714D01*
X79633739Y-42797486D01*
X79624300Y-42750033D01*
X79624300Y-40301468D01*
X79642291Y-40237140D01*
X79691043Y-40191479D01*
X79756410Y-40177733D01*
X79819423Y-40199893D01*
X79860420Y-40228599D01*
X80074507Y-40328430D01*
X80302681Y-40389569D01*
X80538000Y-40410157D01*
X80773318Y-40389569D01*
X81001492Y-40328430D01*
X81215576Y-40228600D01*
X81299373Y-40169925D01*
X82316625Y-40169925D01*
X82400420Y-40228599D01*
X82614507Y-40328430D01*
X82842681Y-40389569D01*
X83078000Y-40410157D01*
X83313318Y-40389569D01*
X83541492Y-40328430D01*
X83755576Y-40228600D01*
X83839373Y-40169925D01*
X92981625Y-40169925D01*
X93065420Y-40228599D01*
X93279507Y-40328430D01*
X93507681Y-40389569D01*
X93743000Y-40410157D01*
X93978318Y-40389569D01*
X94206492Y-40328430D01*
X94420576Y-40228600D01*
X94504373Y-40169925D01*
X93743000Y-39408553D01*
X92981625Y-40169925D01*
X83839373Y-40169925D01*
X83078000Y-39408553D01*
X82316625Y-40169925D01*
X81299373Y-40169925D01*
X80272128Y-39142680D01*
X80240034Y-39087092D01*
X80240034Y-39055000D01*
X80891553Y-39055000D01*
X81652925Y-39816373D01*
X81706424Y-39739969D01*
X81750742Y-39701103D01*
X81807999Y-39687092D01*
X81865256Y-39701103D01*
X81909574Y-39739969D01*
X81963072Y-39816373D01*
X81963073Y-39816373D01*
X82724447Y-39055001D01*
X83431553Y-39055001D01*
X84192925Y-39816373D01*
X84251600Y-39732576D01*
X84351430Y-39518492D01*
X84412569Y-39290318D01*
X84433157Y-39055000D01*
X92387842Y-39055000D01*
X92408430Y-39290318D01*
X92469569Y-39518492D01*
X92569400Y-39732580D01*
X92628073Y-39816373D01*
X93389447Y-39055001D01*
X94096553Y-39055001D01*
X94857925Y-39816373D01*
X94911424Y-39739969D01*
X94955742Y-39701103D01*
X95012999Y-39687092D01*
X95070256Y-39701103D01*
X95114574Y-39739969D01*
X95168072Y-39816373D01*
X95168073Y-39816373D01*
X95929447Y-39055001D01*
X95929447Y-39055000D01*
X95168072Y-38293625D01*
X95168072Y-38293626D01*
X95114574Y-38370030D01*
X95070256Y-38408896D01*
X95012999Y-38422907D01*
X94955742Y-38408896D01*
X94911424Y-38370030D01*
X94857925Y-38293626D01*
X94857925Y-38293625D01*
X94096553Y-39055000D01*
X94096553Y-39055001D01*
X93389447Y-39055001D01*
X93389447Y-39055000D01*
X92628072Y-38293625D01*
X92569399Y-38377422D01*
X92469569Y-38591507D01*
X92408430Y-38819681D01*
X92387842Y-39055000D01*
X84433157Y-39055000D01*
X84412569Y-38819681D01*
X84351430Y-38591507D01*
X84251599Y-38377421D01*
X84192926Y-38293626D01*
X84192925Y-38293625D01*
X83431553Y-39055000D01*
X83431553Y-39055001D01*
X82724447Y-39055001D01*
X82724447Y-39055000D01*
X81963072Y-38293625D01*
X81963072Y-38293626D01*
X81909574Y-38370030D01*
X81865256Y-38408896D01*
X81807999Y-38422907D01*
X81750742Y-38408896D01*
X81706424Y-38370030D01*
X81652925Y-38293626D01*
X81652925Y-38293625D01*
X80891553Y-39055000D01*
X80240034Y-39055000D01*
X80240034Y-39022905D01*
X80272128Y-38967318D01*
X80538000Y-38701447D01*
X81299373Y-37940073D01*
X81299373Y-37940072D01*
X81228198Y-37890235D01*
X81187733Y-37842736D01*
X81175525Y-37781544D01*
X81194665Y-37722154D01*
X81240299Y-37679608D01*
X81283576Y-37656189D01*
X81461240Y-37517906D01*
X81613722Y-37352268D01*
X81704190Y-37213795D01*
X81748982Y-37172561D01*
X81808000Y-37157616D01*
X81867018Y-37172561D01*
X81911809Y-37213795D01*
X82002277Y-37352267D01*
X82014388Y-37365422D01*
X82154760Y-37517906D01*
X82332424Y-37656189D01*
X82375697Y-37679607D01*
X82421336Y-37722156D01*
X82440475Y-37781546D01*
X82428266Y-37842738D01*
X82387801Y-37890237D01*
X82316625Y-37940072D01*
X83078000Y-38701447D01*
X83078001Y-38701447D01*
X83839373Y-37940073D01*
X83839373Y-37940072D01*
X83768198Y-37890235D01*
X83727733Y-37842736D01*
X83715525Y-37781544D01*
X83734665Y-37722154D01*
X83780299Y-37679608D01*
X83823576Y-37656189D01*
X84001240Y-37517906D01*
X84153722Y-37352268D01*
X84276860Y-37163791D01*
X84367296Y-36957616D01*
X84422564Y-36739368D01*
X84441156Y-36515000D01*
X84435332Y-36444722D01*
X84422564Y-36290632D01*
X84394538Y-36179962D01*
X84395192Y-36116604D01*
X84427060Y-36061842D01*
X89583684Y-30905219D01*
X89623913Y-30878339D01*
X89671366Y-30868900D01*
X92260500Y-30868900D01*
X92322500Y-30885513D01*
G37*
%TD.AperFunction*%
%TD*%
M02*
