%TF.GenerationSoftware,KiCad,Pcbnew,7.0.1*%
%TF.CreationDate,2023-03-18T19:20:35+00:00*%
%TF.ProjectId,KOSMO-POLY6-JACKS,4b4f534d-4f2d-4504-9f4c-59362d4a4143,v0.1.2*%
%TF.SameCoordinates,Original*%
%TF.FileFunction,Legend,Bot*%
%TF.FilePolarity,Positive*%
%FSLAX46Y46*%
G04 Gerber Fmt 4.6, Leading zero omitted, Abs format (unit mm)*
G04 Created by KiCad (PCBNEW 7.0.1) date 2023-03-18 19:20:35*
%MOMM*%
%LPD*%
G01*
G04 APERTURE LIST*
%ADD10C,0.150000*%
%ADD11C,0.120000*%
G04 APERTURE END LIST*
D10*
X55077619Y-169559951D02*
X55791904Y-169559951D01*
X55791904Y-169559951D02*
X55934761Y-169512332D01*
X55934761Y-169512332D02*
X56030000Y-169417094D01*
X56030000Y-169417094D02*
X56077619Y-169274237D01*
X56077619Y-169274237D02*
X56077619Y-169178999D01*
X56077619Y-170512332D02*
X56077619Y-170036142D01*
X56077619Y-170036142D02*
X55077619Y-170036142D01*
X55982380Y-171417094D02*
X56030000Y-171369475D01*
X56030000Y-171369475D02*
X56077619Y-171226618D01*
X56077619Y-171226618D02*
X56077619Y-171131380D01*
X56077619Y-171131380D02*
X56030000Y-170988523D01*
X56030000Y-170988523D02*
X55934761Y-170893285D01*
X55934761Y-170893285D02*
X55839523Y-170845666D01*
X55839523Y-170845666D02*
X55649047Y-170798047D01*
X55649047Y-170798047D02*
X55506190Y-170798047D01*
X55506190Y-170798047D02*
X55315714Y-170845666D01*
X55315714Y-170845666D02*
X55220476Y-170893285D01*
X55220476Y-170893285D02*
X55125238Y-170988523D01*
X55125238Y-170988523D02*
X55077619Y-171131380D01*
X55077619Y-171131380D02*
X55077619Y-171226618D01*
X55077619Y-171226618D02*
X55125238Y-171369475D01*
X55125238Y-171369475D02*
X55172857Y-171417094D01*
X55077619Y-172131380D02*
X55791904Y-172131380D01*
X55791904Y-172131380D02*
X55934761Y-172083761D01*
X55934761Y-172083761D02*
X56030000Y-171988523D01*
X56030000Y-171988523D02*
X56077619Y-171845666D01*
X56077619Y-171845666D02*
X56077619Y-171750428D01*
X56077619Y-173083761D02*
X56077619Y-172607571D01*
X56077619Y-172607571D02*
X55077619Y-172607571D01*
X55982380Y-173988523D02*
X56030000Y-173940904D01*
X56030000Y-173940904D02*
X56077619Y-173798047D01*
X56077619Y-173798047D02*
X56077619Y-173702809D01*
X56077619Y-173702809D02*
X56030000Y-173559952D01*
X56030000Y-173559952D02*
X55934761Y-173464714D01*
X55934761Y-173464714D02*
X55839523Y-173417095D01*
X55839523Y-173417095D02*
X55649047Y-173369476D01*
X55649047Y-173369476D02*
X55506190Y-173369476D01*
X55506190Y-173369476D02*
X55315714Y-173417095D01*
X55315714Y-173417095D02*
X55220476Y-173464714D01*
X55220476Y-173464714D02*
X55125238Y-173559952D01*
X55125238Y-173559952D02*
X55077619Y-173702809D01*
X55077619Y-173702809D02*
X55077619Y-173798047D01*
X55077619Y-173798047D02*
X55125238Y-173940904D01*
X55125238Y-173940904D02*
X55172857Y-173988523D01*
X55077619Y-174702809D02*
X55791904Y-174702809D01*
X55791904Y-174702809D02*
X55934761Y-174655190D01*
X55934761Y-174655190D02*
X56030000Y-174559952D01*
X56030000Y-174559952D02*
X56077619Y-174417095D01*
X56077619Y-174417095D02*
X56077619Y-174321857D01*
X56077619Y-175655190D02*
X56077619Y-175179000D01*
X56077619Y-175179000D02*
X55077619Y-175179000D01*
X55982380Y-176559952D02*
X56030000Y-176512333D01*
X56030000Y-176512333D02*
X56077619Y-176369476D01*
X56077619Y-176369476D02*
X56077619Y-176274238D01*
X56077619Y-176274238D02*
X56030000Y-176131381D01*
X56030000Y-176131381D02*
X55934761Y-176036143D01*
X55934761Y-176036143D02*
X55839523Y-175988524D01*
X55839523Y-175988524D02*
X55649047Y-175940905D01*
X55649047Y-175940905D02*
X55506190Y-175940905D01*
X55506190Y-175940905D02*
X55315714Y-175988524D01*
X55315714Y-175988524D02*
X55220476Y-176036143D01*
X55220476Y-176036143D02*
X55125238Y-176131381D01*
X55125238Y-176131381D02*
X55077619Y-176274238D01*
X55077619Y-176274238D02*
X55077619Y-176369476D01*
X55077619Y-176369476D02*
X55125238Y-176512333D01*
X55125238Y-176512333D02*
X55172857Y-176559952D01*
X55077619Y-177274238D02*
X55791904Y-177274238D01*
X55791904Y-177274238D02*
X55934761Y-177226619D01*
X55934761Y-177226619D02*
X56030000Y-177131381D01*
X56030000Y-177131381D02*
X56077619Y-176988524D01*
X56077619Y-176988524D02*
X56077619Y-176893286D01*
X56077619Y-178226619D02*
X56077619Y-177750429D01*
X56077619Y-177750429D02*
X55077619Y-177750429D01*
X55982380Y-179131381D02*
X56030000Y-179083762D01*
X56030000Y-179083762D02*
X56077619Y-178940905D01*
X56077619Y-178940905D02*
X56077619Y-178845667D01*
X56077619Y-178845667D02*
X56030000Y-178702810D01*
X56030000Y-178702810D02*
X55934761Y-178607572D01*
X55934761Y-178607572D02*
X55839523Y-178559953D01*
X55839523Y-178559953D02*
X55649047Y-178512334D01*
X55649047Y-178512334D02*
X55506190Y-178512334D01*
X55506190Y-178512334D02*
X55315714Y-178559953D01*
X55315714Y-178559953D02*
X55220476Y-178607572D01*
X55220476Y-178607572D02*
X55125238Y-178702810D01*
X55125238Y-178702810D02*
X55077619Y-178845667D01*
X55077619Y-178845667D02*
X55077619Y-178940905D01*
X55077619Y-178940905D02*
X55125238Y-179083762D01*
X55125238Y-179083762D02*
X55172857Y-179131381D01*
%TO.C,J1*%
X89180333Y-58986619D02*
X89180333Y-59700904D01*
X89180333Y-59700904D02*
X89227952Y-59843761D01*
X89227952Y-59843761D02*
X89323190Y-59939000D01*
X89323190Y-59939000D02*
X89466047Y-59986619D01*
X89466047Y-59986619D02*
X89561285Y-59986619D01*
X88180333Y-59986619D02*
X88751761Y-59986619D01*
X88466047Y-59986619D02*
X88466047Y-58986619D01*
X88466047Y-58986619D02*
X88561285Y-59129476D01*
X88561285Y-59129476D02*
X88656523Y-59224714D01*
X88656523Y-59224714D02*
X88751761Y-59272333D01*
X92577190Y-57954619D02*
X92910523Y-57478428D01*
X93148618Y-57954619D02*
X93148618Y-56954619D01*
X93148618Y-56954619D02*
X92767666Y-56954619D01*
X92767666Y-56954619D02*
X92672428Y-57002238D01*
X92672428Y-57002238D02*
X92624809Y-57049857D01*
X92624809Y-57049857D02*
X92577190Y-57145095D01*
X92577190Y-57145095D02*
X92577190Y-57287952D01*
X92577190Y-57287952D02*
X92624809Y-57383190D01*
X92624809Y-57383190D02*
X92672428Y-57430809D01*
X92672428Y-57430809D02*
X92767666Y-57478428D01*
X92767666Y-57478428D02*
X93148618Y-57478428D01*
X92196237Y-57668904D02*
X91720047Y-57668904D01*
X92291475Y-57954619D02*
X91958142Y-56954619D01*
X91958142Y-56954619D02*
X91624809Y-57954619D01*
X91291475Y-57954619D02*
X91291475Y-56954619D01*
X91291475Y-56954619D02*
X90958142Y-57668904D01*
X90958142Y-57668904D02*
X90624809Y-56954619D01*
X90624809Y-56954619D02*
X90624809Y-57954619D01*
X90148618Y-57954619D02*
X90148618Y-56954619D01*
X90148618Y-56954619D02*
X89767666Y-56954619D01*
X89767666Y-56954619D02*
X89672428Y-57002238D01*
X89672428Y-57002238D02*
X89624809Y-57049857D01*
X89624809Y-57049857D02*
X89577190Y-57145095D01*
X89577190Y-57145095D02*
X89577190Y-57287952D01*
X89577190Y-57287952D02*
X89624809Y-57383190D01*
X89624809Y-57383190D02*
X89672428Y-57430809D01*
X89672428Y-57430809D02*
X89767666Y-57478428D01*
X89767666Y-57478428D02*
X90148618Y-57478428D01*
X89386714Y-58049857D02*
X88624809Y-58049857D01*
X88196237Y-56954619D02*
X88005761Y-56954619D01*
X88005761Y-56954619D02*
X87910523Y-57002238D01*
X87910523Y-57002238D02*
X87815285Y-57097476D01*
X87815285Y-57097476D02*
X87767666Y-57287952D01*
X87767666Y-57287952D02*
X87767666Y-57621285D01*
X87767666Y-57621285D02*
X87815285Y-57811761D01*
X87815285Y-57811761D02*
X87910523Y-57907000D01*
X87910523Y-57907000D02*
X88005761Y-57954619D01*
X88005761Y-57954619D02*
X88196237Y-57954619D01*
X88196237Y-57954619D02*
X88291475Y-57907000D01*
X88291475Y-57907000D02*
X88386713Y-57811761D01*
X88386713Y-57811761D02*
X88434332Y-57621285D01*
X88434332Y-57621285D02*
X88434332Y-57287952D01*
X88434332Y-57287952D02*
X88386713Y-57097476D01*
X88386713Y-57097476D02*
X88291475Y-57002238D01*
X88291475Y-57002238D02*
X88196237Y-56954619D01*
X87339094Y-56954619D02*
X87339094Y-57764142D01*
X87339094Y-57764142D02*
X87291475Y-57859380D01*
X87291475Y-57859380D02*
X87243856Y-57907000D01*
X87243856Y-57907000D02*
X87148618Y-57954619D01*
X87148618Y-57954619D02*
X86958142Y-57954619D01*
X86958142Y-57954619D02*
X86862904Y-57907000D01*
X86862904Y-57907000D02*
X86815285Y-57859380D01*
X86815285Y-57859380D02*
X86767666Y-57764142D01*
X86767666Y-57764142D02*
X86767666Y-56954619D01*
X86434332Y-56954619D02*
X85862904Y-56954619D01*
X86148618Y-57954619D02*
X86148618Y-56954619D01*
X85339094Y-56954619D02*
X85243856Y-56954619D01*
X85243856Y-56954619D02*
X85148618Y-57002238D01*
X85148618Y-57002238D02*
X85100999Y-57049857D01*
X85100999Y-57049857D02*
X85053380Y-57145095D01*
X85053380Y-57145095D02*
X85005761Y-57335571D01*
X85005761Y-57335571D02*
X85005761Y-57573666D01*
X85005761Y-57573666D02*
X85053380Y-57764142D01*
X85053380Y-57764142D02*
X85100999Y-57859380D01*
X85100999Y-57859380D02*
X85148618Y-57907000D01*
X85148618Y-57907000D02*
X85243856Y-57954619D01*
X85243856Y-57954619D02*
X85339094Y-57954619D01*
X85339094Y-57954619D02*
X85434332Y-57907000D01*
X85434332Y-57907000D02*
X85481951Y-57859380D01*
X85481951Y-57859380D02*
X85529570Y-57764142D01*
X85529570Y-57764142D02*
X85577189Y-57573666D01*
X85577189Y-57573666D02*
X85577189Y-57335571D01*
X85577189Y-57335571D02*
X85529570Y-57145095D01*
X85529570Y-57145095D02*
X85481951Y-57049857D01*
X85481951Y-57049857D02*
X85434332Y-57002238D01*
X85434332Y-57002238D02*
X85339094Y-56954619D01*
%TO.C,J2*%
X112180333Y-58986619D02*
X112180333Y-59700904D01*
X112180333Y-59700904D02*
X112227952Y-59843761D01*
X112227952Y-59843761D02*
X112323190Y-59939000D01*
X112323190Y-59939000D02*
X112466047Y-59986619D01*
X112466047Y-59986619D02*
X112561285Y-59986619D01*
X111751761Y-59081857D02*
X111704142Y-59034238D01*
X111704142Y-59034238D02*
X111608904Y-58986619D01*
X111608904Y-58986619D02*
X111370809Y-58986619D01*
X111370809Y-58986619D02*
X111275571Y-59034238D01*
X111275571Y-59034238D02*
X111227952Y-59081857D01*
X111227952Y-59081857D02*
X111180333Y-59177095D01*
X111180333Y-59177095D02*
X111180333Y-59272333D01*
X111180333Y-59272333D02*
X111227952Y-59415190D01*
X111227952Y-59415190D02*
X111799380Y-59986619D01*
X111799380Y-59986619D02*
X111180333Y-59986619D01*
X116505761Y-57954619D02*
X116505761Y-56954619D01*
X116505761Y-56954619D02*
X116124809Y-56954619D01*
X116124809Y-56954619D02*
X116029571Y-57002238D01*
X116029571Y-57002238D02*
X115981952Y-57049857D01*
X115981952Y-57049857D02*
X115934333Y-57145095D01*
X115934333Y-57145095D02*
X115934333Y-57287952D01*
X115934333Y-57287952D02*
X115981952Y-57383190D01*
X115981952Y-57383190D02*
X116029571Y-57430809D01*
X116029571Y-57430809D02*
X116124809Y-57478428D01*
X116124809Y-57478428D02*
X116505761Y-57478428D01*
X115505761Y-56954619D02*
X115505761Y-57764142D01*
X115505761Y-57764142D02*
X115458142Y-57859380D01*
X115458142Y-57859380D02*
X115410523Y-57907000D01*
X115410523Y-57907000D02*
X115315285Y-57954619D01*
X115315285Y-57954619D02*
X115124809Y-57954619D01*
X115124809Y-57954619D02*
X115029571Y-57907000D01*
X115029571Y-57907000D02*
X114981952Y-57859380D01*
X114981952Y-57859380D02*
X114934333Y-57764142D01*
X114934333Y-57764142D02*
X114934333Y-56954619D01*
X113981952Y-57954619D02*
X114458142Y-57954619D01*
X114458142Y-57954619D02*
X114458142Y-56954619D01*
X113696237Y-57907000D02*
X113553380Y-57954619D01*
X113553380Y-57954619D02*
X113315285Y-57954619D01*
X113315285Y-57954619D02*
X113220047Y-57907000D01*
X113220047Y-57907000D02*
X113172428Y-57859380D01*
X113172428Y-57859380D02*
X113124809Y-57764142D01*
X113124809Y-57764142D02*
X113124809Y-57668904D01*
X113124809Y-57668904D02*
X113172428Y-57573666D01*
X113172428Y-57573666D02*
X113220047Y-57526047D01*
X113220047Y-57526047D02*
X113315285Y-57478428D01*
X113315285Y-57478428D02*
X113505761Y-57430809D01*
X113505761Y-57430809D02*
X113600999Y-57383190D01*
X113600999Y-57383190D02*
X113648618Y-57335571D01*
X113648618Y-57335571D02*
X113696237Y-57240333D01*
X113696237Y-57240333D02*
X113696237Y-57145095D01*
X113696237Y-57145095D02*
X113648618Y-57049857D01*
X113648618Y-57049857D02*
X113600999Y-57002238D01*
X113600999Y-57002238D02*
X113505761Y-56954619D01*
X113505761Y-56954619D02*
X113267666Y-56954619D01*
X113267666Y-56954619D02*
X113124809Y-57002238D01*
X112696237Y-57430809D02*
X112362904Y-57430809D01*
X112220047Y-57954619D02*
X112696237Y-57954619D01*
X112696237Y-57954619D02*
X112696237Y-56954619D01*
X112696237Y-56954619D02*
X112220047Y-56954619D01*
X112029571Y-58049857D02*
X111267666Y-58049857D01*
X110839094Y-56954619D02*
X110648618Y-56954619D01*
X110648618Y-56954619D02*
X110553380Y-57002238D01*
X110553380Y-57002238D02*
X110458142Y-57097476D01*
X110458142Y-57097476D02*
X110410523Y-57287952D01*
X110410523Y-57287952D02*
X110410523Y-57621285D01*
X110410523Y-57621285D02*
X110458142Y-57811761D01*
X110458142Y-57811761D02*
X110553380Y-57907000D01*
X110553380Y-57907000D02*
X110648618Y-57954619D01*
X110648618Y-57954619D02*
X110839094Y-57954619D01*
X110839094Y-57954619D02*
X110934332Y-57907000D01*
X110934332Y-57907000D02*
X111029570Y-57811761D01*
X111029570Y-57811761D02*
X111077189Y-57621285D01*
X111077189Y-57621285D02*
X111077189Y-57287952D01*
X111077189Y-57287952D02*
X111029570Y-57097476D01*
X111029570Y-57097476D02*
X110934332Y-57002238D01*
X110934332Y-57002238D02*
X110839094Y-56954619D01*
X109981951Y-56954619D02*
X109981951Y-57764142D01*
X109981951Y-57764142D02*
X109934332Y-57859380D01*
X109934332Y-57859380D02*
X109886713Y-57907000D01*
X109886713Y-57907000D02*
X109791475Y-57954619D01*
X109791475Y-57954619D02*
X109600999Y-57954619D01*
X109600999Y-57954619D02*
X109505761Y-57907000D01*
X109505761Y-57907000D02*
X109458142Y-57859380D01*
X109458142Y-57859380D02*
X109410523Y-57764142D01*
X109410523Y-57764142D02*
X109410523Y-56954619D01*
X109077189Y-56954619D02*
X108505761Y-56954619D01*
X108791475Y-57954619D02*
X108791475Y-56954619D01*
X107981951Y-56954619D02*
X107886713Y-56954619D01*
X107886713Y-56954619D02*
X107791475Y-57002238D01*
X107791475Y-57002238D02*
X107743856Y-57049857D01*
X107743856Y-57049857D02*
X107696237Y-57145095D01*
X107696237Y-57145095D02*
X107648618Y-57335571D01*
X107648618Y-57335571D02*
X107648618Y-57573666D01*
X107648618Y-57573666D02*
X107696237Y-57764142D01*
X107696237Y-57764142D02*
X107743856Y-57859380D01*
X107743856Y-57859380D02*
X107791475Y-57907000D01*
X107791475Y-57907000D02*
X107886713Y-57954619D01*
X107886713Y-57954619D02*
X107981951Y-57954619D01*
X107981951Y-57954619D02*
X108077189Y-57907000D01*
X108077189Y-57907000D02*
X108124808Y-57859380D01*
X108124808Y-57859380D02*
X108172427Y-57764142D01*
X108172427Y-57764142D02*
X108220046Y-57573666D01*
X108220046Y-57573666D02*
X108220046Y-57335571D01*
X108220046Y-57335571D02*
X108172427Y-57145095D01*
X108172427Y-57145095D02*
X108124808Y-57049857D01*
X108124808Y-57049857D02*
X108077189Y-57002238D01*
X108077189Y-57002238D02*
X107981951Y-56954619D01*
%TO.C,J3*%
X66180333Y-58986619D02*
X66180333Y-59700904D01*
X66180333Y-59700904D02*
X66227952Y-59843761D01*
X66227952Y-59843761D02*
X66323190Y-59939000D01*
X66323190Y-59939000D02*
X66466047Y-59986619D01*
X66466047Y-59986619D02*
X66561285Y-59986619D01*
X65799380Y-58986619D02*
X65180333Y-58986619D01*
X65180333Y-58986619D02*
X65513666Y-59367571D01*
X65513666Y-59367571D02*
X65370809Y-59367571D01*
X65370809Y-59367571D02*
X65275571Y-59415190D01*
X65275571Y-59415190D02*
X65227952Y-59462809D01*
X65227952Y-59462809D02*
X65180333Y-59558047D01*
X65180333Y-59558047D02*
X65180333Y-59796142D01*
X65180333Y-59796142D02*
X65227952Y-59891380D01*
X65227952Y-59891380D02*
X65275571Y-59939000D01*
X65275571Y-59939000D02*
X65370809Y-59986619D01*
X65370809Y-59986619D02*
X65656523Y-59986619D01*
X65656523Y-59986619D02*
X65751761Y-59939000D01*
X65751761Y-59939000D02*
X65799380Y-59891380D01*
X69386714Y-57002238D02*
X69481952Y-56954619D01*
X69481952Y-56954619D02*
X69624809Y-56954619D01*
X69624809Y-56954619D02*
X69767666Y-57002238D01*
X69767666Y-57002238D02*
X69862904Y-57097476D01*
X69862904Y-57097476D02*
X69910523Y-57192714D01*
X69910523Y-57192714D02*
X69958142Y-57383190D01*
X69958142Y-57383190D02*
X69958142Y-57526047D01*
X69958142Y-57526047D02*
X69910523Y-57716523D01*
X69910523Y-57716523D02*
X69862904Y-57811761D01*
X69862904Y-57811761D02*
X69767666Y-57907000D01*
X69767666Y-57907000D02*
X69624809Y-57954619D01*
X69624809Y-57954619D02*
X69529571Y-57954619D01*
X69529571Y-57954619D02*
X69386714Y-57907000D01*
X69386714Y-57907000D02*
X69339095Y-57859380D01*
X69339095Y-57859380D02*
X69339095Y-57526047D01*
X69339095Y-57526047D02*
X69529571Y-57526047D01*
X68958142Y-57668904D02*
X68481952Y-57668904D01*
X69053380Y-57954619D02*
X68720047Y-56954619D01*
X68720047Y-56954619D02*
X68386714Y-57954619D01*
X68196237Y-56954619D02*
X67624809Y-56954619D01*
X67910523Y-57954619D02*
X67910523Y-56954619D01*
X67291475Y-57430809D02*
X66958142Y-57430809D01*
X66815285Y-57954619D02*
X67291475Y-57954619D01*
X67291475Y-57954619D02*
X67291475Y-56954619D01*
X67291475Y-56954619D02*
X66815285Y-56954619D01*
X66624809Y-58049857D02*
X65862904Y-58049857D01*
X65434332Y-56954619D02*
X65243856Y-56954619D01*
X65243856Y-56954619D02*
X65148618Y-57002238D01*
X65148618Y-57002238D02*
X65053380Y-57097476D01*
X65053380Y-57097476D02*
X65005761Y-57287952D01*
X65005761Y-57287952D02*
X65005761Y-57621285D01*
X65005761Y-57621285D02*
X65053380Y-57811761D01*
X65053380Y-57811761D02*
X65148618Y-57907000D01*
X65148618Y-57907000D02*
X65243856Y-57954619D01*
X65243856Y-57954619D02*
X65434332Y-57954619D01*
X65434332Y-57954619D02*
X65529570Y-57907000D01*
X65529570Y-57907000D02*
X65624808Y-57811761D01*
X65624808Y-57811761D02*
X65672427Y-57621285D01*
X65672427Y-57621285D02*
X65672427Y-57287952D01*
X65672427Y-57287952D02*
X65624808Y-57097476D01*
X65624808Y-57097476D02*
X65529570Y-57002238D01*
X65529570Y-57002238D02*
X65434332Y-56954619D01*
X64577189Y-56954619D02*
X64577189Y-57764142D01*
X64577189Y-57764142D02*
X64529570Y-57859380D01*
X64529570Y-57859380D02*
X64481951Y-57907000D01*
X64481951Y-57907000D02*
X64386713Y-57954619D01*
X64386713Y-57954619D02*
X64196237Y-57954619D01*
X64196237Y-57954619D02*
X64100999Y-57907000D01*
X64100999Y-57907000D02*
X64053380Y-57859380D01*
X64053380Y-57859380D02*
X64005761Y-57764142D01*
X64005761Y-57764142D02*
X64005761Y-56954619D01*
X63672427Y-56954619D02*
X63100999Y-56954619D01*
X63386713Y-57954619D02*
X63386713Y-56954619D01*
X62577189Y-56954619D02*
X62481951Y-56954619D01*
X62481951Y-56954619D02*
X62386713Y-57002238D01*
X62386713Y-57002238D02*
X62339094Y-57049857D01*
X62339094Y-57049857D02*
X62291475Y-57145095D01*
X62291475Y-57145095D02*
X62243856Y-57335571D01*
X62243856Y-57335571D02*
X62243856Y-57573666D01*
X62243856Y-57573666D02*
X62291475Y-57764142D01*
X62291475Y-57764142D02*
X62339094Y-57859380D01*
X62339094Y-57859380D02*
X62386713Y-57907000D01*
X62386713Y-57907000D02*
X62481951Y-57954619D01*
X62481951Y-57954619D02*
X62577189Y-57954619D01*
X62577189Y-57954619D02*
X62672427Y-57907000D01*
X62672427Y-57907000D02*
X62720046Y-57859380D01*
X62720046Y-57859380D02*
X62767665Y-57764142D01*
X62767665Y-57764142D02*
X62815284Y-57573666D01*
X62815284Y-57573666D02*
X62815284Y-57335571D01*
X62815284Y-57335571D02*
X62767665Y-57145095D01*
X62767665Y-57145095D02*
X62720046Y-57049857D01*
X62720046Y-57049857D02*
X62672427Y-57002238D01*
X62672427Y-57002238D02*
X62577189Y-56954619D01*
%TO.C,J4*%
X89180333Y-81986619D02*
X89180333Y-82700904D01*
X89180333Y-82700904D02*
X89227952Y-82843761D01*
X89227952Y-82843761D02*
X89323190Y-82939000D01*
X89323190Y-82939000D02*
X89466047Y-82986619D01*
X89466047Y-82986619D02*
X89561285Y-82986619D01*
X88275571Y-82319952D02*
X88275571Y-82986619D01*
X88513666Y-81939000D02*
X88751761Y-82653285D01*
X88751761Y-82653285D02*
X88132714Y-82653285D01*
X92577190Y-80954619D02*
X92910523Y-80478428D01*
X93148618Y-80954619D02*
X93148618Y-79954619D01*
X93148618Y-79954619D02*
X92767666Y-79954619D01*
X92767666Y-79954619D02*
X92672428Y-80002238D01*
X92672428Y-80002238D02*
X92624809Y-80049857D01*
X92624809Y-80049857D02*
X92577190Y-80145095D01*
X92577190Y-80145095D02*
X92577190Y-80287952D01*
X92577190Y-80287952D02*
X92624809Y-80383190D01*
X92624809Y-80383190D02*
X92672428Y-80430809D01*
X92672428Y-80430809D02*
X92767666Y-80478428D01*
X92767666Y-80478428D02*
X93148618Y-80478428D01*
X92196237Y-80668904D02*
X91720047Y-80668904D01*
X92291475Y-80954619D02*
X91958142Y-79954619D01*
X91958142Y-79954619D02*
X91624809Y-80954619D01*
X91291475Y-80954619D02*
X91291475Y-79954619D01*
X91291475Y-79954619D02*
X90958142Y-80668904D01*
X90958142Y-80668904D02*
X90624809Y-79954619D01*
X90624809Y-79954619D02*
X90624809Y-80954619D01*
X90148618Y-80954619D02*
X90148618Y-79954619D01*
X90148618Y-79954619D02*
X89767666Y-79954619D01*
X89767666Y-79954619D02*
X89672428Y-80002238D01*
X89672428Y-80002238D02*
X89624809Y-80049857D01*
X89624809Y-80049857D02*
X89577190Y-80145095D01*
X89577190Y-80145095D02*
X89577190Y-80287952D01*
X89577190Y-80287952D02*
X89624809Y-80383190D01*
X89624809Y-80383190D02*
X89672428Y-80430809D01*
X89672428Y-80430809D02*
X89767666Y-80478428D01*
X89767666Y-80478428D02*
X90148618Y-80478428D01*
X89386714Y-81049857D02*
X88624809Y-81049857D01*
X88196237Y-79954619D02*
X88005761Y-79954619D01*
X88005761Y-79954619D02*
X87910523Y-80002238D01*
X87910523Y-80002238D02*
X87815285Y-80097476D01*
X87815285Y-80097476D02*
X87767666Y-80287952D01*
X87767666Y-80287952D02*
X87767666Y-80621285D01*
X87767666Y-80621285D02*
X87815285Y-80811761D01*
X87815285Y-80811761D02*
X87910523Y-80907000D01*
X87910523Y-80907000D02*
X88005761Y-80954619D01*
X88005761Y-80954619D02*
X88196237Y-80954619D01*
X88196237Y-80954619D02*
X88291475Y-80907000D01*
X88291475Y-80907000D02*
X88386713Y-80811761D01*
X88386713Y-80811761D02*
X88434332Y-80621285D01*
X88434332Y-80621285D02*
X88434332Y-80287952D01*
X88434332Y-80287952D02*
X88386713Y-80097476D01*
X88386713Y-80097476D02*
X88291475Y-80002238D01*
X88291475Y-80002238D02*
X88196237Y-79954619D01*
X87339094Y-79954619D02*
X87339094Y-80764142D01*
X87339094Y-80764142D02*
X87291475Y-80859380D01*
X87291475Y-80859380D02*
X87243856Y-80907000D01*
X87243856Y-80907000D02*
X87148618Y-80954619D01*
X87148618Y-80954619D02*
X86958142Y-80954619D01*
X86958142Y-80954619D02*
X86862904Y-80907000D01*
X86862904Y-80907000D02*
X86815285Y-80859380D01*
X86815285Y-80859380D02*
X86767666Y-80764142D01*
X86767666Y-80764142D02*
X86767666Y-79954619D01*
X86434332Y-79954619D02*
X85862904Y-79954619D01*
X86148618Y-80954619D02*
X86148618Y-79954619D01*
X85005761Y-80954619D02*
X85577189Y-80954619D01*
X85291475Y-80954619D02*
X85291475Y-79954619D01*
X85291475Y-79954619D02*
X85386713Y-80097476D01*
X85386713Y-80097476D02*
X85481951Y-80192714D01*
X85481951Y-80192714D02*
X85577189Y-80240333D01*
%TO.C,J5*%
X112180333Y-81986619D02*
X112180333Y-82700904D01*
X112180333Y-82700904D02*
X112227952Y-82843761D01*
X112227952Y-82843761D02*
X112323190Y-82939000D01*
X112323190Y-82939000D02*
X112466047Y-82986619D01*
X112466047Y-82986619D02*
X112561285Y-82986619D01*
X111227952Y-81986619D02*
X111704142Y-81986619D01*
X111704142Y-81986619D02*
X111751761Y-82462809D01*
X111751761Y-82462809D02*
X111704142Y-82415190D01*
X111704142Y-82415190D02*
X111608904Y-82367571D01*
X111608904Y-82367571D02*
X111370809Y-82367571D01*
X111370809Y-82367571D02*
X111275571Y-82415190D01*
X111275571Y-82415190D02*
X111227952Y-82462809D01*
X111227952Y-82462809D02*
X111180333Y-82558047D01*
X111180333Y-82558047D02*
X111180333Y-82796142D01*
X111180333Y-82796142D02*
X111227952Y-82891380D01*
X111227952Y-82891380D02*
X111275571Y-82939000D01*
X111275571Y-82939000D02*
X111370809Y-82986619D01*
X111370809Y-82986619D02*
X111608904Y-82986619D01*
X111608904Y-82986619D02*
X111704142Y-82939000D01*
X111704142Y-82939000D02*
X111751761Y-82891380D01*
X116505761Y-80954619D02*
X116505761Y-79954619D01*
X116505761Y-79954619D02*
X116124809Y-79954619D01*
X116124809Y-79954619D02*
X116029571Y-80002238D01*
X116029571Y-80002238D02*
X115981952Y-80049857D01*
X115981952Y-80049857D02*
X115934333Y-80145095D01*
X115934333Y-80145095D02*
X115934333Y-80287952D01*
X115934333Y-80287952D02*
X115981952Y-80383190D01*
X115981952Y-80383190D02*
X116029571Y-80430809D01*
X116029571Y-80430809D02*
X116124809Y-80478428D01*
X116124809Y-80478428D02*
X116505761Y-80478428D01*
X115505761Y-79954619D02*
X115505761Y-80764142D01*
X115505761Y-80764142D02*
X115458142Y-80859380D01*
X115458142Y-80859380D02*
X115410523Y-80907000D01*
X115410523Y-80907000D02*
X115315285Y-80954619D01*
X115315285Y-80954619D02*
X115124809Y-80954619D01*
X115124809Y-80954619D02*
X115029571Y-80907000D01*
X115029571Y-80907000D02*
X114981952Y-80859380D01*
X114981952Y-80859380D02*
X114934333Y-80764142D01*
X114934333Y-80764142D02*
X114934333Y-79954619D01*
X113981952Y-80954619D02*
X114458142Y-80954619D01*
X114458142Y-80954619D02*
X114458142Y-79954619D01*
X113696237Y-80907000D02*
X113553380Y-80954619D01*
X113553380Y-80954619D02*
X113315285Y-80954619D01*
X113315285Y-80954619D02*
X113220047Y-80907000D01*
X113220047Y-80907000D02*
X113172428Y-80859380D01*
X113172428Y-80859380D02*
X113124809Y-80764142D01*
X113124809Y-80764142D02*
X113124809Y-80668904D01*
X113124809Y-80668904D02*
X113172428Y-80573666D01*
X113172428Y-80573666D02*
X113220047Y-80526047D01*
X113220047Y-80526047D02*
X113315285Y-80478428D01*
X113315285Y-80478428D02*
X113505761Y-80430809D01*
X113505761Y-80430809D02*
X113600999Y-80383190D01*
X113600999Y-80383190D02*
X113648618Y-80335571D01*
X113648618Y-80335571D02*
X113696237Y-80240333D01*
X113696237Y-80240333D02*
X113696237Y-80145095D01*
X113696237Y-80145095D02*
X113648618Y-80049857D01*
X113648618Y-80049857D02*
X113600999Y-80002238D01*
X113600999Y-80002238D02*
X113505761Y-79954619D01*
X113505761Y-79954619D02*
X113267666Y-79954619D01*
X113267666Y-79954619D02*
X113124809Y-80002238D01*
X112696237Y-80430809D02*
X112362904Y-80430809D01*
X112220047Y-80954619D02*
X112696237Y-80954619D01*
X112696237Y-80954619D02*
X112696237Y-79954619D01*
X112696237Y-79954619D02*
X112220047Y-79954619D01*
X112029571Y-81049857D02*
X111267666Y-81049857D01*
X110839094Y-79954619D02*
X110648618Y-79954619D01*
X110648618Y-79954619D02*
X110553380Y-80002238D01*
X110553380Y-80002238D02*
X110458142Y-80097476D01*
X110458142Y-80097476D02*
X110410523Y-80287952D01*
X110410523Y-80287952D02*
X110410523Y-80621285D01*
X110410523Y-80621285D02*
X110458142Y-80811761D01*
X110458142Y-80811761D02*
X110553380Y-80907000D01*
X110553380Y-80907000D02*
X110648618Y-80954619D01*
X110648618Y-80954619D02*
X110839094Y-80954619D01*
X110839094Y-80954619D02*
X110934332Y-80907000D01*
X110934332Y-80907000D02*
X111029570Y-80811761D01*
X111029570Y-80811761D02*
X111077189Y-80621285D01*
X111077189Y-80621285D02*
X111077189Y-80287952D01*
X111077189Y-80287952D02*
X111029570Y-80097476D01*
X111029570Y-80097476D02*
X110934332Y-80002238D01*
X110934332Y-80002238D02*
X110839094Y-79954619D01*
X109981951Y-79954619D02*
X109981951Y-80764142D01*
X109981951Y-80764142D02*
X109934332Y-80859380D01*
X109934332Y-80859380D02*
X109886713Y-80907000D01*
X109886713Y-80907000D02*
X109791475Y-80954619D01*
X109791475Y-80954619D02*
X109600999Y-80954619D01*
X109600999Y-80954619D02*
X109505761Y-80907000D01*
X109505761Y-80907000D02*
X109458142Y-80859380D01*
X109458142Y-80859380D02*
X109410523Y-80764142D01*
X109410523Y-80764142D02*
X109410523Y-79954619D01*
X109077189Y-79954619D02*
X108505761Y-79954619D01*
X108791475Y-80954619D02*
X108791475Y-79954619D01*
X107648618Y-80954619D02*
X108220046Y-80954619D01*
X107934332Y-80954619D02*
X107934332Y-79954619D01*
X107934332Y-79954619D02*
X108029570Y-80097476D01*
X108029570Y-80097476D02*
X108124808Y-80192714D01*
X108124808Y-80192714D02*
X108220046Y-80240333D01*
%TO.C,J6*%
X66180333Y-81986619D02*
X66180333Y-82700904D01*
X66180333Y-82700904D02*
X66227952Y-82843761D01*
X66227952Y-82843761D02*
X66323190Y-82939000D01*
X66323190Y-82939000D02*
X66466047Y-82986619D01*
X66466047Y-82986619D02*
X66561285Y-82986619D01*
X65275571Y-81986619D02*
X65466047Y-81986619D01*
X65466047Y-81986619D02*
X65561285Y-82034238D01*
X65561285Y-82034238D02*
X65608904Y-82081857D01*
X65608904Y-82081857D02*
X65704142Y-82224714D01*
X65704142Y-82224714D02*
X65751761Y-82415190D01*
X65751761Y-82415190D02*
X65751761Y-82796142D01*
X65751761Y-82796142D02*
X65704142Y-82891380D01*
X65704142Y-82891380D02*
X65656523Y-82939000D01*
X65656523Y-82939000D02*
X65561285Y-82986619D01*
X65561285Y-82986619D02*
X65370809Y-82986619D01*
X65370809Y-82986619D02*
X65275571Y-82939000D01*
X65275571Y-82939000D02*
X65227952Y-82891380D01*
X65227952Y-82891380D02*
X65180333Y-82796142D01*
X65180333Y-82796142D02*
X65180333Y-82558047D01*
X65180333Y-82558047D02*
X65227952Y-82462809D01*
X65227952Y-82462809D02*
X65275571Y-82415190D01*
X65275571Y-82415190D02*
X65370809Y-82367571D01*
X65370809Y-82367571D02*
X65561285Y-82367571D01*
X65561285Y-82367571D02*
X65656523Y-82415190D01*
X65656523Y-82415190D02*
X65704142Y-82462809D01*
X65704142Y-82462809D02*
X65751761Y-82558047D01*
X69386714Y-80002238D02*
X69481952Y-79954619D01*
X69481952Y-79954619D02*
X69624809Y-79954619D01*
X69624809Y-79954619D02*
X69767666Y-80002238D01*
X69767666Y-80002238D02*
X69862904Y-80097476D01*
X69862904Y-80097476D02*
X69910523Y-80192714D01*
X69910523Y-80192714D02*
X69958142Y-80383190D01*
X69958142Y-80383190D02*
X69958142Y-80526047D01*
X69958142Y-80526047D02*
X69910523Y-80716523D01*
X69910523Y-80716523D02*
X69862904Y-80811761D01*
X69862904Y-80811761D02*
X69767666Y-80907000D01*
X69767666Y-80907000D02*
X69624809Y-80954619D01*
X69624809Y-80954619D02*
X69529571Y-80954619D01*
X69529571Y-80954619D02*
X69386714Y-80907000D01*
X69386714Y-80907000D02*
X69339095Y-80859380D01*
X69339095Y-80859380D02*
X69339095Y-80526047D01*
X69339095Y-80526047D02*
X69529571Y-80526047D01*
X68958142Y-80668904D02*
X68481952Y-80668904D01*
X69053380Y-80954619D02*
X68720047Y-79954619D01*
X68720047Y-79954619D02*
X68386714Y-80954619D01*
X68196237Y-79954619D02*
X67624809Y-79954619D01*
X67910523Y-80954619D02*
X67910523Y-79954619D01*
X67291475Y-80430809D02*
X66958142Y-80430809D01*
X66815285Y-80954619D02*
X67291475Y-80954619D01*
X67291475Y-80954619D02*
X67291475Y-79954619D01*
X67291475Y-79954619D02*
X66815285Y-79954619D01*
X66624809Y-81049857D02*
X65862904Y-81049857D01*
X65434332Y-79954619D02*
X65243856Y-79954619D01*
X65243856Y-79954619D02*
X65148618Y-80002238D01*
X65148618Y-80002238D02*
X65053380Y-80097476D01*
X65053380Y-80097476D02*
X65005761Y-80287952D01*
X65005761Y-80287952D02*
X65005761Y-80621285D01*
X65005761Y-80621285D02*
X65053380Y-80811761D01*
X65053380Y-80811761D02*
X65148618Y-80907000D01*
X65148618Y-80907000D02*
X65243856Y-80954619D01*
X65243856Y-80954619D02*
X65434332Y-80954619D01*
X65434332Y-80954619D02*
X65529570Y-80907000D01*
X65529570Y-80907000D02*
X65624808Y-80811761D01*
X65624808Y-80811761D02*
X65672427Y-80621285D01*
X65672427Y-80621285D02*
X65672427Y-80287952D01*
X65672427Y-80287952D02*
X65624808Y-80097476D01*
X65624808Y-80097476D02*
X65529570Y-80002238D01*
X65529570Y-80002238D02*
X65434332Y-79954619D01*
X64577189Y-79954619D02*
X64577189Y-80764142D01*
X64577189Y-80764142D02*
X64529570Y-80859380D01*
X64529570Y-80859380D02*
X64481951Y-80907000D01*
X64481951Y-80907000D02*
X64386713Y-80954619D01*
X64386713Y-80954619D02*
X64196237Y-80954619D01*
X64196237Y-80954619D02*
X64100999Y-80907000D01*
X64100999Y-80907000D02*
X64053380Y-80859380D01*
X64053380Y-80859380D02*
X64005761Y-80764142D01*
X64005761Y-80764142D02*
X64005761Y-79954619D01*
X63672427Y-79954619D02*
X63100999Y-79954619D01*
X63386713Y-80954619D02*
X63386713Y-79954619D01*
X62243856Y-80954619D02*
X62815284Y-80954619D01*
X62529570Y-80954619D02*
X62529570Y-79954619D01*
X62529570Y-79954619D02*
X62624808Y-80097476D01*
X62624808Y-80097476D02*
X62720046Y-80192714D01*
X62720046Y-80192714D02*
X62815284Y-80240333D01*
%TO.C,J7*%
X89180333Y-104986619D02*
X89180333Y-105700904D01*
X89180333Y-105700904D02*
X89227952Y-105843761D01*
X89227952Y-105843761D02*
X89323190Y-105939000D01*
X89323190Y-105939000D02*
X89466047Y-105986619D01*
X89466047Y-105986619D02*
X89561285Y-105986619D01*
X88799380Y-104986619D02*
X88132714Y-104986619D01*
X88132714Y-104986619D02*
X88561285Y-105986619D01*
X92577190Y-103954619D02*
X92910523Y-103478428D01*
X93148618Y-103954619D02*
X93148618Y-102954619D01*
X93148618Y-102954619D02*
X92767666Y-102954619D01*
X92767666Y-102954619D02*
X92672428Y-103002238D01*
X92672428Y-103002238D02*
X92624809Y-103049857D01*
X92624809Y-103049857D02*
X92577190Y-103145095D01*
X92577190Y-103145095D02*
X92577190Y-103287952D01*
X92577190Y-103287952D02*
X92624809Y-103383190D01*
X92624809Y-103383190D02*
X92672428Y-103430809D01*
X92672428Y-103430809D02*
X92767666Y-103478428D01*
X92767666Y-103478428D02*
X93148618Y-103478428D01*
X92196237Y-103668904D02*
X91720047Y-103668904D01*
X92291475Y-103954619D02*
X91958142Y-102954619D01*
X91958142Y-102954619D02*
X91624809Y-103954619D01*
X91291475Y-103954619D02*
X91291475Y-102954619D01*
X91291475Y-102954619D02*
X90958142Y-103668904D01*
X90958142Y-103668904D02*
X90624809Y-102954619D01*
X90624809Y-102954619D02*
X90624809Y-103954619D01*
X90148618Y-103954619D02*
X90148618Y-102954619D01*
X90148618Y-102954619D02*
X89767666Y-102954619D01*
X89767666Y-102954619D02*
X89672428Y-103002238D01*
X89672428Y-103002238D02*
X89624809Y-103049857D01*
X89624809Y-103049857D02*
X89577190Y-103145095D01*
X89577190Y-103145095D02*
X89577190Y-103287952D01*
X89577190Y-103287952D02*
X89624809Y-103383190D01*
X89624809Y-103383190D02*
X89672428Y-103430809D01*
X89672428Y-103430809D02*
X89767666Y-103478428D01*
X89767666Y-103478428D02*
X90148618Y-103478428D01*
X89386714Y-104049857D02*
X88624809Y-104049857D01*
X88196237Y-102954619D02*
X88005761Y-102954619D01*
X88005761Y-102954619D02*
X87910523Y-103002238D01*
X87910523Y-103002238D02*
X87815285Y-103097476D01*
X87815285Y-103097476D02*
X87767666Y-103287952D01*
X87767666Y-103287952D02*
X87767666Y-103621285D01*
X87767666Y-103621285D02*
X87815285Y-103811761D01*
X87815285Y-103811761D02*
X87910523Y-103907000D01*
X87910523Y-103907000D02*
X88005761Y-103954619D01*
X88005761Y-103954619D02*
X88196237Y-103954619D01*
X88196237Y-103954619D02*
X88291475Y-103907000D01*
X88291475Y-103907000D02*
X88386713Y-103811761D01*
X88386713Y-103811761D02*
X88434332Y-103621285D01*
X88434332Y-103621285D02*
X88434332Y-103287952D01*
X88434332Y-103287952D02*
X88386713Y-103097476D01*
X88386713Y-103097476D02*
X88291475Y-103002238D01*
X88291475Y-103002238D02*
X88196237Y-102954619D01*
X87339094Y-102954619D02*
X87339094Y-103764142D01*
X87339094Y-103764142D02*
X87291475Y-103859380D01*
X87291475Y-103859380D02*
X87243856Y-103907000D01*
X87243856Y-103907000D02*
X87148618Y-103954619D01*
X87148618Y-103954619D02*
X86958142Y-103954619D01*
X86958142Y-103954619D02*
X86862904Y-103907000D01*
X86862904Y-103907000D02*
X86815285Y-103859380D01*
X86815285Y-103859380D02*
X86767666Y-103764142D01*
X86767666Y-103764142D02*
X86767666Y-102954619D01*
X86434332Y-102954619D02*
X85862904Y-102954619D01*
X86148618Y-103954619D02*
X86148618Y-102954619D01*
X85577189Y-103049857D02*
X85529570Y-103002238D01*
X85529570Y-103002238D02*
X85434332Y-102954619D01*
X85434332Y-102954619D02*
X85196237Y-102954619D01*
X85196237Y-102954619D02*
X85100999Y-103002238D01*
X85100999Y-103002238D02*
X85053380Y-103049857D01*
X85053380Y-103049857D02*
X85005761Y-103145095D01*
X85005761Y-103145095D02*
X85005761Y-103240333D01*
X85005761Y-103240333D02*
X85053380Y-103383190D01*
X85053380Y-103383190D02*
X85624808Y-103954619D01*
X85624808Y-103954619D02*
X85005761Y-103954619D01*
%TO.C,J8*%
X112180333Y-104986619D02*
X112180333Y-105700904D01*
X112180333Y-105700904D02*
X112227952Y-105843761D01*
X112227952Y-105843761D02*
X112323190Y-105939000D01*
X112323190Y-105939000D02*
X112466047Y-105986619D01*
X112466047Y-105986619D02*
X112561285Y-105986619D01*
X111561285Y-105415190D02*
X111656523Y-105367571D01*
X111656523Y-105367571D02*
X111704142Y-105319952D01*
X111704142Y-105319952D02*
X111751761Y-105224714D01*
X111751761Y-105224714D02*
X111751761Y-105177095D01*
X111751761Y-105177095D02*
X111704142Y-105081857D01*
X111704142Y-105081857D02*
X111656523Y-105034238D01*
X111656523Y-105034238D02*
X111561285Y-104986619D01*
X111561285Y-104986619D02*
X111370809Y-104986619D01*
X111370809Y-104986619D02*
X111275571Y-105034238D01*
X111275571Y-105034238D02*
X111227952Y-105081857D01*
X111227952Y-105081857D02*
X111180333Y-105177095D01*
X111180333Y-105177095D02*
X111180333Y-105224714D01*
X111180333Y-105224714D02*
X111227952Y-105319952D01*
X111227952Y-105319952D02*
X111275571Y-105367571D01*
X111275571Y-105367571D02*
X111370809Y-105415190D01*
X111370809Y-105415190D02*
X111561285Y-105415190D01*
X111561285Y-105415190D02*
X111656523Y-105462809D01*
X111656523Y-105462809D02*
X111704142Y-105510428D01*
X111704142Y-105510428D02*
X111751761Y-105605666D01*
X111751761Y-105605666D02*
X111751761Y-105796142D01*
X111751761Y-105796142D02*
X111704142Y-105891380D01*
X111704142Y-105891380D02*
X111656523Y-105939000D01*
X111656523Y-105939000D02*
X111561285Y-105986619D01*
X111561285Y-105986619D02*
X111370809Y-105986619D01*
X111370809Y-105986619D02*
X111275571Y-105939000D01*
X111275571Y-105939000D02*
X111227952Y-105891380D01*
X111227952Y-105891380D02*
X111180333Y-105796142D01*
X111180333Y-105796142D02*
X111180333Y-105605666D01*
X111180333Y-105605666D02*
X111227952Y-105510428D01*
X111227952Y-105510428D02*
X111275571Y-105462809D01*
X111275571Y-105462809D02*
X111370809Y-105415190D01*
X116505761Y-103954619D02*
X116505761Y-102954619D01*
X116505761Y-102954619D02*
X116124809Y-102954619D01*
X116124809Y-102954619D02*
X116029571Y-103002238D01*
X116029571Y-103002238D02*
X115981952Y-103049857D01*
X115981952Y-103049857D02*
X115934333Y-103145095D01*
X115934333Y-103145095D02*
X115934333Y-103287952D01*
X115934333Y-103287952D02*
X115981952Y-103383190D01*
X115981952Y-103383190D02*
X116029571Y-103430809D01*
X116029571Y-103430809D02*
X116124809Y-103478428D01*
X116124809Y-103478428D02*
X116505761Y-103478428D01*
X115505761Y-102954619D02*
X115505761Y-103764142D01*
X115505761Y-103764142D02*
X115458142Y-103859380D01*
X115458142Y-103859380D02*
X115410523Y-103907000D01*
X115410523Y-103907000D02*
X115315285Y-103954619D01*
X115315285Y-103954619D02*
X115124809Y-103954619D01*
X115124809Y-103954619D02*
X115029571Y-103907000D01*
X115029571Y-103907000D02*
X114981952Y-103859380D01*
X114981952Y-103859380D02*
X114934333Y-103764142D01*
X114934333Y-103764142D02*
X114934333Y-102954619D01*
X113981952Y-103954619D02*
X114458142Y-103954619D01*
X114458142Y-103954619D02*
X114458142Y-102954619D01*
X113696237Y-103907000D02*
X113553380Y-103954619D01*
X113553380Y-103954619D02*
X113315285Y-103954619D01*
X113315285Y-103954619D02*
X113220047Y-103907000D01*
X113220047Y-103907000D02*
X113172428Y-103859380D01*
X113172428Y-103859380D02*
X113124809Y-103764142D01*
X113124809Y-103764142D02*
X113124809Y-103668904D01*
X113124809Y-103668904D02*
X113172428Y-103573666D01*
X113172428Y-103573666D02*
X113220047Y-103526047D01*
X113220047Y-103526047D02*
X113315285Y-103478428D01*
X113315285Y-103478428D02*
X113505761Y-103430809D01*
X113505761Y-103430809D02*
X113600999Y-103383190D01*
X113600999Y-103383190D02*
X113648618Y-103335571D01*
X113648618Y-103335571D02*
X113696237Y-103240333D01*
X113696237Y-103240333D02*
X113696237Y-103145095D01*
X113696237Y-103145095D02*
X113648618Y-103049857D01*
X113648618Y-103049857D02*
X113600999Y-103002238D01*
X113600999Y-103002238D02*
X113505761Y-102954619D01*
X113505761Y-102954619D02*
X113267666Y-102954619D01*
X113267666Y-102954619D02*
X113124809Y-103002238D01*
X112696237Y-103430809D02*
X112362904Y-103430809D01*
X112220047Y-103954619D02*
X112696237Y-103954619D01*
X112696237Y-103954619D02*
X112696237Y-102954619D01*
X112696237Y-102954619D02*
X112220047Y-102954619D01*
X112029571Y-104049857D02*
X111267666Y-104049857D01*
X110839094Y-102954619D02*
X110648618Y-102954619D01*
X110648618Y-102954619D02*
X110553380Y-103002238D01*
X110553380Y-103002238D02*
X110458142Y-103097476D01*
X110458142Y-103097476D02*
X110410523Y-103287952D01*
X110410523Y-103287952D02*
X110410523Y-103621285D01*
X110410523Y-103621285D02*
X110458142Y-103811761D01*
X110458142Y-103811761D02*
X110553380Y-103907000D01*
X110553380Y-103907000D02*
X110648618Y-103954619D01*
X110648618Y-103954619D02*
X110839094Y-103954619D01*
X110839094Y-103954619D02*
X110934332Y-103907000D01*
X110934332Y-103907000D02*
X111029570Y-103811761D01*
X111029570Y-103811761D02*
X111077189Y-103621285D01*
X111077189Y-103621285D02*
X111077189Y-103287952D01*
X111077189Y-103287952D02*
X111029570Y-103097476D01*
X111029570Y-103097476D02*
X110934332Y-103002238D01*
X110934332Y-103002238D02*
X110839094Y-102954619D01*
X109981951Y-102954619D02*
X109981951Y-103764142D01*
X109981951Y-103764142D02*
X109934332Y-103859380D01*
X109934332Y-103859380D02*
X109886713Y-103907000D01*
X109886713Y-103907000D02*
X109791475Y-103954619D01*
X109791475Y-103954619D02*
X109600999Y-103954619D01*
X109600999Y-103954619D02*
X109505761Y-103907000D01*
X109505761Y-103907000D02*
X109458142Y-103859380D01*
X109458142Y-103859380D02*
X109410523Y-103764142D01*
X109410523Y-103764142D02*
X109410523Y-102954619D01*
X109077189Y-102954619D02*
X108505761Y-102954619D01*
X108791475Y-103954619D02*
X108791475Y-102954619D01*
X108220046Y-103049857D02*
X108172427Y-103002238D01*
X108172427Y-103002238D02*
X108077189Y-102954619D01*
X108077189Y-102954619D02*
X107839094Y-102954619D01*
X107839094Y-102954619D02*
X107743856Y-103002238D01*
X107743856Y-103002238D02*
X107696237Y-103049857D01*
X107696237Y-103049857D02*
X107648618Y-103145095D01*
X107648618Y-103145095D02*
X107648618Y-103240333D01*
X107648618Y-103240333D02*
X107696237Y-103383190D01*
X107696237Y-103383190D02*
X108267665Y-103954619D01*
X108267665Y-103954619D02*
X107648618Y-103954619D01*
%TO.C,J9*%
X66180333Y-104986619D02*
X66180333Y-105700904D01*
X66180333Y-105700904D02*
X66227952Y-105843761D01*
X66227952Y-105843761D02*
X66323190Y-105939000D01*
X66323190Y-105939000D02*
X66466047Y-105986619D01*
X66466047Y-105986619D02*
X66561285Y-105986619D01*
X65656523Y-105986619D02*
X65466047Y-105986619D01*
X65466047Y-105986619D02*
X65370809Y-105939000D01*
X65370809Y-105939000D02*
X65323190Y-105891380D01*
X65323190Y-105891380D02*
X65227952Y-105748523D01*
X65227952Y-105748523D02*
X65180333Y-105558047D01*
X65180333Y-105558047D02*
X65180333Y-105177095D01*
X65180333Y-105177095D02*
X65227952Y-105081857D01*
X65227952Y-105081857D02*
X65275571Y-105034238D01*
X65275571Y-105034238D02*
X65370809Y-104986619D01*
X65370809Y-104986619D02*
X65561285Y-104986619D01*
X65561285Y-104986619D02*
X65656523Y-105034238D01*
X65656523Y-105034238D02*
X65704142Y-105081857D01*
X65704142Y-105081857D02*
X65751761Y-105177095D01*
X65751761Y-105177095D02*
X65751761Y-105415190D01*
X65751761Y-105415190D02*
X65704142Y-105510428D01*
X65704142Y-105510428D02*
X65656523Y-105558047D01*
X65656523Y-105558047D02*
X65561285Y-105605666D01*
X65561285Y-105605666D02*
X65370809Y-105605666D01*
X65370809Y-105605666D02*
X65275571Y-105558047D01*
X65275571Y-105558047D02*
X65227952Y-105510428D01*
X65227952Y-105510428D02*
X65180333Y-105415190D01*
X69386714Y-103002238D02*
X69481952Y-102954619D01*
X69481952Y-102954619D02*
X69624809Y-102954619D01*
X69624809Y-102954619D02*
X69767666Y-103002238D01*
X69767666Y-103002238D02*
X69862904Y-103097476D01*
X69862904Y-103097476D02*
X69910523Y-103192714D01*
X69910523Y-103192714D02*
X69958142Y-103383190D01*
X69958142Y-103383190D02*
X69958142Y-103526047D01*
X69958142Y-103526047D02*
X69910523Y-103716523D01*
X69910523Y-103716523D02*
X69862904Y-103811761D01*
X69862904Y-103811761D02*
X69767666Y-103907000D01*
X69767666Y-103907000D02*
X69624809Y-103954619D01*
X69624809Y-103954619D02*
X69529571Y-103954619D01*
X69529571Y-103954619D02*
X69386714Y-103907000D01*
X69386714Y-103907000D02*
X69339095Y-103859380D01*
X69339095Y-103859380D02*
X69339095Y-103526047D01*
X69339095Y-103526047D02*
X69529571Y-103526047D01*
X68958142Y-103668904D02*
X68481952Y-103668904D01*
X69053380Y-103954619D02*
X68720047Y-102954619D01*
X68720047Y-102954619D02*
X68386714Y-103954619D01*
X68196237Y-102954619D02*
X67624809Y-102954619D01*
X67910523Y-103954619D02*
X67910523Y-102954619D01*
X67291475Y-103430809D02*
X66958142Y-103430809D01*
X66815285Y-103954619D02*
X67291475Y-103954619D01*
X67291475Y-103954619D02*
X67291475Y-102954619D01*
X67291475Y-102954619D02*
X66815285Y-102954619D01*
X66624809Y-104049857D02*
X65862904Y-104049857D01*
X65434332Y-102954619D02*
X65243856Y-102954619D01*
X65243856Y-102954619D02*
X65148618Y-103002238D01*
X65148618Y-103002238D02*
X65053380Y-103097476D01*
X65053380Y-103097476D02*
X65005761Y-103287952D01*
X65005761Y-103287952D02*
X65005761Y-103621285D01*
X65005761Y-103621285D02*
X65053380Y-103811761D01*
X65053380Y-103811761D02*
X65148618Y-103907000D01*
X65148618Y-103907000D02*
X65243856Y-103954619D01*
X65243856Y-103954619D02*
X65434332Y-103954619D01*
X65434332Y-103954619D02*
X65529570Y-103907000D01*
X65529570Y-103907000D02*
X65624808Y-103811761D01*
X65624808Y-103811761D02*
X65672427Y-103621285D01*
X65672427Y-103621285D02*
X65672427Y-103287952D01*
X65672427Y-103287952D02*
X65624808Y-103097476D01*
X65624808Y-103097476D02*
X65529570Y-103002238D01*
X65529570Y-103002238D02*
X65434332Y-102954619D01*
X64577189Y-102954619D02*
X64577189Y-103764142D01*
X64577189Y-103764142D02*
X64529570Y-103859380D01*
X64529570Y-103859380D02*
X64481951Y-103907000D01*
X64481951Y-103907000D02*
X64386713Y-103954619D01*
X64386713Y-103954619D02*
X64196237Y-103954619D01*
X64196237Y-103954619D02*
X64100999Y-103907000D01*
X64100999Y-103907000D02*
X64053380Y-103859380D01*
X64053380Y-103859380D02*
X64005761Y-103764142D01*
X64005761Y-103764142D02*
X64005761Y-102954619D01*
X63672427Y-102954619D02*
X63100999Y-102954619D01*
X63386713Y-103954619D02*
X63386713Y-102954619D01*
X62815284Y-103049857D02*
X62767665Y-103002238D01*
X62767665Y-103002238D02*
X62672427Y-102954619D01*
X62672427Y-102954619D02*
X62434332Y-102954619D01*
X62434332Y-102954619D02*
X62339094Y-103002238D01*
X62339094Y-103002238D02*
X62291475Y-103049857D01*
X62291475Y-103049857D02*
X62243856Y-103145095D01*
X62243856Y-103145095D02*
X62243856Y-103240333D01*
X62243856Y-103240333D02*
X62291475Y-103383190D01*
X62291475Y-103383190D02*
X62862903Y-103954619D01*
X62862903Y-103954619D02*
X62243856Y-103954619D01*
%TO.C,J10*%
X89656523Y-127986619D02*
X89656523Y-128700904D01*
X89656523Y-128700904D02*
X89704142Y-128843761D01*
X89704142Y-128843761D02*
X89799380Y-128939000D01*
X89799380Y-128939000D02*
X89942237Y-128986619D01*
X89942237Y-128986619D02*
X90037475Y-128986619D01*
X88656523Y-128986619D02*
X89227951Y-128986619D01*
X88942237Y-128986619D02*
X88942237Y-127986619D01*
X88942237Y-127986619D02*
X89037475Y-128129476D01*
X89037475Y-128129476D02*
X89132713Y-128224714D01*
X89132713Y-128224714D02*
X89227951Y-128272333D01*
X88037475Y-127986619D02*
X87942237Y-127986619D01*
X87942237Y-127986619D02*
X87846999Y-128034238D01*
X87846999Y-128034238D02*
X87799380Y-128081857D01*
X87799380Y-128081857D02*
X87751761Y-128177095D01*
X87751761Y-128177095D02*
X87704142Y-128367571D01*
X87704142Y-128367571D02*
X87704142Y-128605666D01*
X87704142Y-128605666D02*
X87751761Y-128796142D01*
X87751761Y-128796142D02*
X87799380Y-128891380D01*
X87799380Y-128891380D02*
X87846999Y-128939000D01*
X87846999Y-128939000D02*
X87942237Y-128986619D01*
X87942237Y-128986619D02*
X88037475Y-128986619D01*
X88037475Y-128986619D02*
X88132713Y-128939000D01*
X88132713Y-128939000D02*
X88180332Y-128891380D01*
X88180332Y-128891380D02*
X88227951Y-128796142D01*
X88227951Y-128796142D02*
X88275570Y-128605666D01*
X88275570Y-128605666D02*
X88275570Y-128367571D01*
X88275570Y-128367571D02*
X88227951Y-128177095D01*
X88227951Y-128177095D02*
X88180332Y-128081857D01*
X88180332Y-128081857D02*
X88132713Y-128034238D01*
X88132713Y-128034238D02*
X88037475Y-127986619D01*
X92577190Y-126954619D02*
X92910523Y-126478428D01*
X93148618Y-126954619D02*
X93148618Y-125954619D01*
X93148618Y-125954619D02*
X92767666Y-125954619D01*
X92767666Y-125954619D02*
X92672428Y-126002238D01*
X92672428Y-126002238D02*
X92624809Y-126049857D01*
X92624809Y-126049857D02*
X92577190Y-126145095D01*
X92577190Y-126145095D02*
X92577190Y-126287952D01*
X92577190Y-126287952D02*
X92624809Y-126383190D01*
X92624809Y-126383190D02*
X92672428Y-126430809D01*
X92672428Y-126430809D02*
X92767666Y-126478428D01*
X92767666Y-126478428D02*
X93148618Y-126478428D01*
X92196237Y-126668904D02*
X91720047Y-126668904D01*
X92291475Y-126954619D02*
X91958142Y-125954619D01*
X91958142Y-125954619D02*
X91624809Y-126954619D01*
X91291475Y-126954619D02*
X91291475Y-125954619D01*
X91291475Y-125954619D02*
X90958142Y-126668904D01*
X90958142Y-126668904D02*
X90624809Y-125954619D01*
X90624809Y-125954619D02*
X90624809Y-126954619D01*
X90148618Y-126954619D02*
X90148618Y-125954619D01*
X90148618Y-125954619D02*
X89767666Y-125954619D01*
X89767666Y-125954619D02*
X89672428Y-126002238D01*
X89672428Y-126002238D02*
X89624809Y-126049857D01*
X89624809Y-126049857D02*
X89577190Y-126145095D01*
X89577190Y-126145095D02*
X89577190Y-126287952D01*
X89577190Y-126287952D02*
X89624809Y-126383190D01*
X89624809Y-126383190D02*
X89672428Y-126430809D01*
X89672428Y-126430809D02*
X89767666Y-126478428D01*
X89767666Y-126478428D02*
X90148618Y-126478428D01*
X89386714Y-127049857D02*
X88624809Y-127049857D01*
X88196237Y-125954619D02*
X88005761Y-125954619D01*
X88005761Y-125954619D02*
X87910523Y-126002238D01*
X87910523Y-126002238D02*
X87815285Y-126097476D01*
X87815285Y-126097476D02*
X87767666Y-126287952D01*
X87767666Y-126287952D02*
X87767666Y-126621285D01*
X87767666Y-126621285D02*
X87815285Y-126811761D01*
X87815285Y-126811761D02*
X87910523Y-126907000D01*
X87910523Y-126907000D02*
X88005761Y-126954619D01*
X88005761Y-126954619D02*
X88196237Y-126954619D01*
X88196237Y-126954619D02*
X88291475Y-126907000D01*
X88291475Y-126907000D02*
X88386713Y-126811761D01*
X88386713Y-126811761D02*
X88434332Y-126621285D01*
X88434332Y-126621285D02*
X88434332Y-126287952D01*
X88434332Y-126287952D02*
X88386713Y-126097476D01*
X88386713Y-126097476D02*
X88291475Y-126002238D01*
X88291475Y-126002238D02*
X88196237Y-125954619D01*
X87339094Y-125954619D02*
X87339094Y-126764142D01*
X87339094Y-126764142D02*
X87291475Y-126859380D01*
X87291475Y-126859380D02*
X87243856Y-126907000D01*
X87243856Y-126907000D02*
X87148618Y-126954619D01*
X87148618Y-126954619D02*
X86958142Y-126954619D01*
X86958142Y-126954619D02*
X86862904Y-126907000D01*
X86862904Y-126907000D02*
X86815285Y-126859380D01*
X86815285Y-126859380D02*
X86767666Y-126764142D01*
X86767666Y-126764142D02*
X86767666Y-125954619D01*
X86434332Y-125954619D02*
X85862904Y-125954619D01*
X86148618Y-126954619D02*
X86148618Y-125954619D01*
X85624808Y-125954619D02*
X85005761Y-125954619D01*
X85005761Y-125954619D02*
X85339094Y-126335571D01*
X85339094Y-126335571D02*
X85196237Y-126335571D01*
X85196237Y-126335571D02*
X85100999Y-126383190D01*
X85100999Y-126383190D02*
X85053380Y-126430809D01*
X85053380Y-126430809D02*
X85005761Y-126526047D01*
X85005761Y-126526047D02*
X85005761Y-126764142D01*
X85005761Y-126764142D02*
X85053380Y-126859380D01*
X85053380Y-126859380D02*
X85100999Y-126907000D01*
X85100999Y-126907000D02*
X85196237Y-126954619D01*
X85196237Y-126954619D02*
X85481951Y-126954619D01*
X85481951Y-126954619D02*
X85577189Y-126907000D01*
X85577189Y-126907000D02*
X85624808Y-126859380D01*
%TO.C,J11*%
X112656523Y-127986619D02*
X112656523Y-128700904D01*
X112656523Y-128700904D02*
X112704142Y-128843761D01*
X112704142Y-128843761D02*
X112799380Y-128939000D01*
X112799380Y-128939000D02*
X112942237Y-128986619D01*
X112942237Y-128986619D02*
X113037475Y-128986619D01*
X111656523Y-128986619D02*
X112227951Y-128986619D01*
X111942237Y-128986619D02*
X111942237Y-127986619D01*
X111942237Y-127986619D02*
X112037475Y-128129476D01*
X112037475Y-128129476D02*
X112132713Y-128224714D01*
X112132713Y-128224714D02*
X112227951Y-128272333D01*
X110704142Y-128986619D02*
X111275570Y-128986619D01*
X110989856Y-128986619D02*
X110989856Y-127986619D01*
X110989856Y-127986619D02*
X111085094Y-128129476D01*
X111085094Y-128129476D02*
X111180332Y-128224714D01*
X111180332Y-128224714D02*
X111275570Y-128272333D01*
X116505761Y-126954619D02*
X116505761Y-125954619D01*
X116505761Y-125954619D02*
X116124809Y-125954619D01*
X116124809Y-125954619D02*
X116029571Y-126002238D01*
X116029571Y-126002238D02*
X115981952Y-126049857D01*
X115981952Y-126049857D02*
X115934333Y-126145095D01*
X115934333Y-126145095D02*
X115934333Y-126287952D01*
X115934333Y-126287952D02*
X115981952Y-126383190D01*
X115981952Y-126383190D02*
X116029571Y-126430809D01*
X116029571Y-126430809D02*
X116124809Y-126478428D01*
X116124809Y-126478428D02*
X116505761Y-126478428D01*
X115505761Y-125954619D02*
X115505761Y-126764142D01*
X115505761Y-126764142D02*
X115458142Y-126859380D01*
X115458142Y-126859380D02*
X115410523Y-126907000D01*
X115410523Y-126907000D02*
X115315285Y-126954619D01*
X115315285Y-126954619D02*
X115124809Y-126954619D01*
X115124809Y-126954619D02*
X115029571Y-126907000D01*
X115029571Y-126907000D02*
X114981952Y-126859380D01*
X114981952Y-126859380D02*
X114934333Y-126764142D01*
X114934333Y-126764142D02*
X114934333Y-125954619D01*
X113981952Y-126954619D02*
X114458142Y-126954619D01*
X114458142Y-126954619D02*
X114458142Y-125954619D01*
X113696237Y-126907000D02*
X113553380Y-126954619D01*
X113553380Y-126954619D02*
X113315285Y-126954619D01*
X113315285Y-126954619D02*
X113220047Y-126907000D01*
X113220047Y-126907000D02*
X113172428Y-126859380D01*
X113172428Y-126859380D02*
X113124809Y-126764142D01*
X113124809Y-126764142D02*
X113124809Y-126668904D01*
X113124809Y-126668904D02*
X113172428Y-126573666D01*
X113172428Y-126573666D02*
X113220047Y-126526047D01*
X113220047Y-126526047D02*
X113315285Y-126478428D01*
X113315285Y-126478428D02*
X113505761Y-126430809D01*
X113505761Y-126430809D02*
X113600999Y-126383190D01*
X113600999Y-126383190D02*
X113648618Y-126335571D01*
X113648618Y-126335571D02*
X113696237Y-126240333D01*
X113696237Y-126240333D02*
X113696237Y-126145095D01*
X113696237Y-126145095D02*
X113648618Y-126049857D01*
X113648618Y-126049857D02*
X113600999Y-126002238D01*
X113600999Y-126002238D02*
X113505761Y-125954619D01*
X113505761Y-125954619D02*
X113267666Y-125954619D01*
X113267666Y-125954619D02*
X113124809Y-126002238D01*
X112696237Y-126430809D02*
X112362904Y-126430809D01*
X112220047Y-126954619D02*
X112696237Y-126954619D01*
X112696237Y-126954619D02*
X112696237Y-125954619D01*
X112696237Y-125954619D02*
X112220047Y-125954619D01*
X112029571Y-127049857D02*
X111267666Y-127049857D01*
X110839094Y-125954619D02*
X110648618Y-125954619D01*
X110648618Y-125954619D02*
X110553380Y-126002238D01*
X110553380Y-126002238D02*
X110458142Y-126097476D01*
X110458142Y-126097476D02*
X110410523Y-126287952D01*
X110410523Y-126287952D02*
X110410523Y-126621285D01*
X110410523Y-126621285D02*
X110458142Y-126811761D01*
X110458142Y-126811761D02*
X110553380Y-126907000D01*
X110553380Y-126907000D02*
X110648618Y-126954619D01*
X110648618Y-126954619D02*
X110839094Y-126954619D01*
X110839094Y-126954619D02*
X110934332Y-126907000D01*
X110934332Y-126907000D02*
X111029570Y-126811761D01*
X111029570Y-126811761D02*
X111077189Y-126621285D01*
X111077189Y-126621285D02*
X111077189Y-126287952D01*
X111077189Y-126287952D02*
X111029570Y-126097476D01*
X111029570Y-126097476D02*
X110934332Y-126002238D01*
X110934332Y-126002238D02*
X110839094Y-125954619D01*
X109981951Y-125954619D02*
X109981951Y-126764142D01*
X109981951Y-126764142D02*
X109934332Y-126859380D01*
X109934332Y-126859380D02*
X109886713Y-126907000D01*
X109886713Y-126907000D02*
X109791475Y-126954619D01*
X109791475Y-126954619D02*
X109600999Y-126954619D01*
X109600999Y-126954619D02*
X109505761Y-126907000D01*
X109505761Y-126907000D02*
X109458142Y-126859380D01*
X109458142Y-126859380D02*
X109410523Y-126764142D01*
X109410523Y-126764142D02*
X109410523Y-125954619D01*
X109077189Y-125954619D02*
X108505761Y-125954619D01*
X108791475Y-126954619D02*
X108791475Y-125954619D01*
X108267665Y-125954619D02*
X107648618Y-125954619D01*
X107648618Y-125954619D02*
X107981951Y-126335571D01*
X107981951Y-126335571D02*
X107839094Y-126335571D01*
X107839094Y-126335571D02*
X107743856Y-126383190D01*
X107743856Y-126383190D02*
X107696237Y-126430809D01*
X107696237Y-126430809D02*
X107648618Y-126526047D01*
X107648618Y-126526047D02*
X107648618Y-126764142D01*
X107648618Y-126764142D02*
X107696237Y-126859380D01*
X107696237Y-126859380D02*
X107743856Y-126907000D01*
X107743856Y-126907000D02*
X107839094Y-126954619D01*
X107839094Y-126954619D02*
X108124808Y-126954619D01*
X108124808Y-126954619D02*
X108220046Y-126907000D01*
X108220046Y-126907000D02*
X108267665Y-126859380D01*
%TO.C,J12*%
X66656523Y-127986619D02*
X66656523Y-128700904D01*
X66656523Y-128700904D02*
X66704142Y-128843761D01*
X66704142Y-128843761D02*
X66799380Y-128939000D01*
X66799380Y-128939000D02*
X66942237Y-128986619D01*
X66942237Y-128986619D02*
X67037475Y-128986619D01*
X65656523Y-128986619D02*
X66227951Y-128986619D01*
X65942237Y-128986619D02*
X65942237Y-127986619D01*
X65942237Y-127986619D02*
X66037475Y-128129476D01*
X66037475Y-128129476D02*
X66132713Y-128224714D01*
X66132713Y-128224714D02*
X66227951Y-128272333D01*
X65275570Y-128081857D02*
X65227951Y-128034238D01*
X65227951Y-128034238D02*
X65132713Y-127986619D01*
X65132713Y-127986619D02*
X64894618Y-127986619D01*
X64894618Y-127986619D02*
X64799380Y-128034238D01*
X64799380Y-128034238D02*
X64751761Y-128081857D01*
X64751761Y-128081857D02*
X64704142Y-128177095D01*
X64704142Y-128177095D02*
X64704142Y-128272333D01*
X64704142Y-128272333D02*
X64751761Y-128415190D01*
X64751761Y-128415190D02*
X65323189Y-128986619D01*
X65323189Y-128986619D02*
X64704142Y-128986619D01*
X69386714Y-126002238D02*
X69481952Y-125954619D01*
X69481952Y-125954619D02*
X69624809Y-125954619D01*
X69624809Y-125954619D02*
X69767666Y-126002238D01*
X69767666Y-126002238D02*
X69862904Y-126097476D01*
X69862904Y-126097476D02*
X69910523Y-126192714D01*
X69910523Y-126192714D02*
X69958142Y-126383190D01*
X69958142Y-126383190D02*
X69958142Y-126526047D01*
X69958142Y-126526047D02*
X69910523Y-126716523D01*
X69910523Y-126716523D02*
X69862904Y-126811761D01*
X69862904Y-126811761D02*
X69767666Y-126907000D01*
X69767666Y-126907000D02*
X69624809Y-126954619D01*
X69624809Y-126954619D02*
X69529571Y-126954619D01*
X69529571Y-126954619D02*
X69386714Y-126907000D01*
X69386714Y-126907000D02*
X69339095Y-126859380D01*
X69339095Y-126859380D02*
X69339095Y-126526047D01*
X69339095Y-126526047D02*
X69529571Y-126526047D01*
X68958142Y-126668904D02*
X68481952Y-126668904D01*
X69053380Y-126954619D02*
X68720047Y-125954619D01*
X68720047Y-125954619D02*
X68386714Y-126954619D01*
X68196237Y-125954619D02*
X67624809Y-125954619D01*
X67910523Y-126954619D02*
X67910523Y-125954619D01*
X67291475Y-126430809D02*
X66958142Y-126430809D01*
X66815285Y-126954619D02*
X67291475Y-126954619D01*
X67291475Y-126954619D02*
X67291475Y-125954619D01*
X67291475Y-125954619D02*
X66815285Y-125954619D01*
X66624809Y-127049857D02*
X65862904Y-127049857D01*
X65434332Y-125954619D02*
X65243856Y-125954619D01*
X65243856Y-125954619D02*
X65148618Y-126002238D01*
X65148618Y-126002238D02*
X65053380Y-126097476D01*
X65053380Y-126097476D02*
X65005761Y-126287952D01*
X65005761Y-126287952D02*
X65005761Y-126621285D01*
X65005761Y-126621285D02*
X65053380Y-126811761D01*
X65053380Y-126811761D02*
X65148618Y-126907000D01*
X65148618Y-126907000D02*
X65243856Y-126954619D01*
X65243856Y-126954619D02*
X65434332Y-126954619D01*
X65434332Y-126954619D02*
X65529570Y-126907000D01*
X65529570Y-126907000D02*
X65624808Y-126811761D01*
X65624808Y-126811761D02*
X65672427Y-126621285D01*
X65672427Y-126621285D02*
X65672427Y-126287952D01*
X65672427Y-126287952D02*
X65624808Y-126097476D01*
X65624808Y-126097476D02*
X65529570Y-126002238D01*
X65529570Y-126002238D02*
X65434332Y-125954619D01*
X64577189Y-125954619D02*
X64577189Y-126764142D01*
X64577189Y-126764142D02*
X64529570Y-126859380D01*
X64529570Y-126859380D02*
X64481951Y-126907000D01*
X64481951Y-126907000D02*
X64386713Y-126954619D01*
X64386713Y-126954619D02*
X64196237Y-126954619D01*
X64196237Y-126954619D02*
X64100999Y-126907000D01*
X64100999Y-126907000D02*
X64053380Y-126859380D01*
X64053380Y-126859380D02*
X64005761Y-126764142D01*
X64005761Y-126764142D02*
X64005761Y-125954619D01*
X63672427Y-125954619D02*
X63100999Y-125954619D01*
X63386713Y-126954619D02*
X63386713Y-125954619D01*
X62862903Y-125954619D02*
X62243856Y-125954619D01*
X62243856Y-125954619D02*
X62577189Y-126335571D01*
X62577189Y-126335571D02*
X62434332Y-126335571D01*
X62434332Y-126335571D02*
X62339094Y-126383190D01*
X62339094Y-126383190D02*
X62291475Y-126430809D01*
X62291475Y-126430809D02*
X62243856Y-126526047D01*
X62243856Y-126526047D02*
X62243856Y-126764142D01*
X62243856Y-126764142D02*
X62291475Y-126859380D01*
X62291475Y-126859380D02*
X62339094Y-126907000D01*
X62339094Y-126907000D02*
X62434332Y-126954619D01*
X62434332Y-126954619D02*
X62720046Y-126954619D01*
X62720046Y-126954619D02*
X62815284Y-126907000D01*
X62815284Y-126907000D02*
X62862903Y-126859380D01*
%TO.C,J13*%
X89656523Y-150986619D02*
X89656523Y-151700904D01*
X89656523Y-151700904D02*
X89704142Y-151843761D01*
X89704142Y-151843761D02*
X89799380Y-151939000D01*
X89799380Y-151939000D02*
X89942237Y-151986619D01*
X89942237Y-151986619D02*
X90037475Y-151986619D01*
X88656523Y-151986619D02*
X89227951Y-151986619D01*
X88942237Y-151986619D02*
X88942237Y-150986619D01*
X88942237Y-150986619D02*
X89037475Y-151129476D01*
X89037475Y-151129476D02*
X89132713Y-151224714D01*
X89132713Y-151224714D02*
X89227951Y-151272333D01*
X88323189Y-150986619D02*
X87704142Y-150986619D01*
X87704142Y-150986619D02*
X88037475Y-151367571D01*
X88037475Y-151367571D02*
X87894618Y-151367571D01*
X87894618Y-151367571D02*
X87799380Y-151415190D01*
X87799380Y-151415190D02*
X87751761Y-151462809D01*
X87751761Y-151462809D02*
X87704142Y-151558047D01*
X87704142Y-151558047D02*
X87704142Y-151796142D01*
X87704142Y-151796142D02*
X87751761Y-151891380D01*
X87751761Y-151891380D02*
X87799380Y-151939000D01*
X87799380Y-151939000D02*
X87894618Y-151986619D01*
X87894618Y-151986619D02*
X88180332Y-151986619D01*
X88180332Y-151986619D02*
X88275570Y-151939000D01*
X88275570Y-151939000D02*
X88323189Y-151891380D01*
X92577190Y-149954619D02*
X92910523Y-149478428D01*
X93148618Y-149954619D02*
X93148618Y-148954619D01*
X93148618Y-148954619D02*
X92767666Y-148954619D01*
X92767666Y-148954619D02*
X92672428Y-149002238D01*
X92672428Y-149002238D02*
X92624809Y-149049857D01*
X92624809Y-149049857D02*
X92577190Y-149145095D01*
X92577190Y-149145095D02*
X92577190Y-149287952D01*
X92577190Y-149287952D02*
X92624809Y-149383190D01*
X92624809Y-149383190D02*
X92672428Y-149430809D01*
X92672428Y-149430809D02*
X92767666Y-149478428D01*
X92767666Y-149478428D02*
X93148618Y-149478428D01*
X92196237Y-149668904D02*
X91720047Y-149668904D01*
X92291475Y-149954619D02*
X91958142Y-148954619D01*
X91958142Y-148954619D02*
X91624809Y-149954619D01*
X91291475Y-149954619D02*
X91291475Y-148954619D01*
X91291475Y-148954619D02*
X90958142Y-149668904D01*
X90958142Y-149668904D02*
X90624809Y-148954619D01*
X90624809Y-148954619D02*
X90624809Y-149954619D01*
X90148618Y-149954619D02*
X90148618Y-148954619D01*
X90148618Y-148954619D02*
X89767666Y-148954619D01*
X89767666Y-148954619D02*
X89672428Y-149002238D01*
X89672428Y-149002238D02*
X89624809Y-149049857D01*
X89624809Y-149049857D02*
X89577190Y-149145095D01*
X89577190Y-149145095D02*
X89577190Y-149287952D01*
X89577190Y-149287952D02*
X89624809Y-149383190D01*
X89624809Y-149383190D02*
X89672428Y-149430809D01*
X89672428Y-149430809D02*
X89767666Y-149478428D01*
X89767666Y-149478428D02*
X90148618Y-149478428D01*
X89386714Y-150049857D02*
X88624809Y-150049857D01*
X88196237Y-148954619D02*
X88005761Y-148954619D01*
X88005761Y-148954619D02*
X87910523Y-149002238D01*
X87910523Y-149002238D02*
X87815285Y-149097476D01*
X87815285Y-149097476D02*
X87767666Y-149287952D01*
X87767666Y-149287952D02*
X87767666Y-149621285D01*
X87767666Y-149621285D02*
X87815285Y-149811761D01*
X87815285Y-149811761D02*
X87910523Y-149907000D01*
X87910523Y-149907000D02*
X88005761Y-149954619D01*
X88005761Y-149954619D02*
X88196237Y-149954619D01*
X88196237Y-149954619D02*
X88291475Y-149907000D01*
X88291475Y-149907000D02*
X88386713Y-149811761D01*
X88386713Y-149811761D02*
X88434332Y-149621285D01*
X88434332Y-149621285D02*
X88434332Y-149287952D01*
X88434332Y-149287952D02*
X88386713Y-149097476D01*
X88386713Y-149097476D02*
X88291475Y-149002238D01*
X88291475Y-149002238D02*
X88196237Y-148954619D01*
X87339094Y-148954619D02*
X87339094Y-149764142D01*
X87339094Y-149764142D02*
X87291475Y-149859380D01*
X87291475Y-149859380D02*
X87243856Y-149907000D01*
X87243856Y-149907000D02*
X87148618Y-149954619D01*
X87148618Y-149954619D02*
X86958142Y-149954619D01*
X86958142Y-149954619D02*
X86862904Y-149907000D01*
X86862904Y-149907000D02*
X86815285Y-149859380D01*
X86815285Y-149859380D02*
X86767666Y-149764142D01*
X86767666Y-149764142D02*
X86767666Y-148954619D01*
X86434332Y-148954619D02*
X85862904Y-148954619D01*
X86148618Y-149954619D02*
X86148618Y-148954619D01*
X85100999Y-149287952D02*
X85100999Y-149954619D01*
X85339094Y-148907000D02*
X85577189Y-149621285D01*
X85577189Y-149621285D02*
X84958142Y-149621285D01*
%TO.C,J14*%
X112656523Y-150986619D02*
X112656523Y-151700904D01*
X112656523Y-151700904D02*
X112704142Y-151843761D01*
X112704142Y-151843761D02*
X112799380Y-151939000D01*
X112799380Y-151939000D02*
X112942237Y-151986619D01*
X112942237Y-151986619D02*
X113037475Y-151986619D01*
X111656523Y-151986619D02*
X112227951Y-151986619D01*
X111942237Y-151986619D02*
X111942237Y-150986619D01*
X111942237Y-150986619D02*
X112037475Y-151129476D01*
X112037475Y-151129476D02*
X112132713Y-151224714D01*
X112132713Y-151224714D02*
X112227951Y-151272333D01*
X110799380Y-151319952D02*
X110799380Y-151986619D01*
X111037475Y-150939000D02*
X111275570Y-151653285D01*
X111275570Y-151653285D02*
X110656523Y-151653285D01*
X116505761Y-149954619D02*
X116505761Y-148954619D01*
X116505761Y-148954619D02*
X116124809Y-148954619D01*
X116124809Y-148954619D02*
X116029571Y-149002238D01*
X116029571Y-149002238D02*
X115981952Y-149049857D01*
X115981952Y-149049857D02*
X115934333Y-149145095D01*
X115934333Y-149145095D02*
X115934333Y-149287952D01*
X115934333Y-149287952D02*
X115981952Y-149383190D01*
X115981952Y-149383190D02*
X116029571Y-149430809D01*
X116029571Y-149430809D02*
X116124809Y-149478428D01*
X116124809Y-149478428D02*
X116505761Y-149478428D01*
X115505761Y-148954619D02*
X115505761Y-149764142D01*
X115505761Y-149764142D02*
X115458142Y-149859380D01*
X115458142Y-149859380D02*
X115410523Y-149907000D01*
X115410523Y-149907000D02*
X115315285Y-149954619D01*
X115315285Y-149954619D02*
X115124809Y-149954619D01*
X115124809Y-149954619D02*
X115029571Y-149907000D01*
X115029571Y-149907000D02*
X114981952Y-149859380D01*
X114981952Y-149859380D02*
X114934333Y-149764142D01*
X114934333Y-149764142D02*
X114934333Y-148954619D01*
X113981952Y-149954619D02*
X114458142Y-149954619D01*
X114458142Y-149954619D02*
X114458142Y-148954619D01*
X113696237Y-149907000D02*
X113553380Y-149954619D01*
X113553380Y-149954619D02*
X113315285Y-149954619D01*
X113315285Y-149954619D02*
X113220047Y-149907000D01*
X113220047Y-149907000D02*
X113172428Y-149859380D01*
X113172428Y-149859380D02*
X113124809Y-149764142D01*
X113124809Y-149764142D02*
X113124809Y-149668904D01*
X113124809Y-149668904D02*
X113172428Y-149573666D01*
X113172428Y-149573666D02*
X113220047Y-149526047D01*
X113220047Y-149526047D02*
X113315285Y-149478428D01*
X113315285Y-149478428D02*
X113505761Y-149430809D01*
X113505761Y-149430809D02*
X113600999Y-149383190D01*
X113600999Y-149383190D02*
X113648618Y-149335571D01*
X113648618Y-149335571D02*
X113696237Y-149240333D01*
X113696237Y-149240333D02*
X113696237Y-149145095D01*
X113696237Y-149145095D02*
X113648618Y-149049857D01*
X113648618Y-149049857D02*
X113600999Y-149002238D01*
X113600999Y-149002238D02*
X113505761Y-148954619D01*
X113505761Y-148954619D02*
X113267666Y-148954619D01*
X113267666Y-148954619D02*
X113124809Y-149002238D01*
X112696237Y-149430809D02*
X112362904Y-149430809D01*
X112220047Y-149954619D02*
X112696237Y-149954619D01*
X112696237Y-149954619D02*
X112696237Y-148954619D01*
X112696237Y-148954619D02*
X112220047Y-148954619D01*
X112029571Y-150049857D02*
X111267666Y-150049857D01*
X110839094Y-148954619D02*
X110648618Y-148954619D01*
X110648618Y-148954619D02*
X110553380Y-149002238D01*
X110553380Y-149002238D02*
X110458142Y-149097476D01*
X110458142Y-149097476D02*
X110410523Y-149287952D01*
X110410523Y-149287952D02*
X110410523Y-149621285D01*
X110410523Y-149621285D02*
X110458142Y-149811761D01*
X110458142Y-149811761D02*
X110553380Y-149907000D01*
X110553380Y-149907000D02*
X110648618Y-149954619D01*
X110648618Y-149954619D02*
X110839094Y-149954619D01*
X110839094Y-149954619D02*
X110934332Y-149907000D01*
X110934332Y-149907000D02*
X111029570Y-149811761D01*
X111029570Y-149811761D02*
X111077189Y-149621285D01*
X111077189Y-149621285D02*
X111077189Y-149287952D01*
X111077189Y-149287952D02*
X111029570Y-149097476D01*
X111029570Y-149097476D02*
X110934332Y-149002238D01*
X110934332Y-149002238D02*
X110839094Y-148954619D01*
X109981951Y-148954619D02*
X109981951Y-149764142D01*
X109981951Y-149764142D02*
X109934332Y-149859380D01*
X109934332Y-149859380D02*
X109886713Y-149907000D01*
X109886713Y-149907000D02*
X109791475Y-149954619D01*
X109791475Y-149954619D02*
X109600999Y-149954619D01*
X109600999Y-149954619D02*
X109505761Y-149907000D01*
X109505761Y-149907000D02*
X109458142Y-149859380D01*
X109458142Y-149859380D02*
X109410523Y-149764142D01*
X109410523Y-149764142D02*
X109410523Y-148954619D01*
X109077189Y-148954619D02*
X108505761Y-148954619D01*
X108791475Y-149954619D02*
X108791475Y-148954619D01*
X107743856Y-149287952D02*
X107743856Y-149954619D01*
X107981951Y-148907000D02*
X108220046Y-149621285D01*
X108220046Y-149621285D02*
X107600999Y-149621285D01*
%TO.C,J15*%
X66656523Y-150986619D02*
X66656523Y-151700904D01*
X66656523Y-151700904D02*
X66704142Y-151843761D01*
X66704142Y-151843761D02*
X66799380Y-151939000D01*
X66799380Y-151939000D02*
X66942237Y-151986619D01*
X66942237Y-151986619D02*
X67037475Y-151986619D01*
X65656523Y-151986619D02*
X66227951Y-151986619D01*
X65942237Y-151986619D02*
X65942237Y-150986619D01*
X65942237Y-150986619D02*
X66037475Y-151129476D01*
X66037475Y-151129476D02*
X66132713Y-151224714D01*
X66132713Y-151224714D02*
X66227951Y-151272333D01*
X64751761Y-150986619D02*
X65227951Y-150986619D01*
X65227951Y-150986619D02*
X65275570Y-151462809D01*
X65275570Y-151462809D02*
X65227951Y-151415190D01*
X65227951Y-151415190D02*
X65132713Y-151367571D01*
X65132713Y-151367571D02*
X64894618Y-151367571D01*
X64894618Y-151367571D02*
X64799380Y-151415190D01*
X64799380Y-151415190D02*
X64751761Y-151462809D01*
X64751761Y-151462809D02*
X64704142Y-151558047D01*
X64704142Y-151558047D02*
X64704142Y-151796142D01*
X64704142Y-151796142D02*
X64751761Y-151891380D01*
X64751761Y-151891380D02*
X64799380Y-151939000D01*
X64799380Y-151939000D02*
X64894618Y-151986619D01*
X64894618Y-151986619D02*
X65132713Y-151986619D01*
X65132713Y-151986619D02*
X65227951Y-151939000D01*
X65227951Y-151939000D02*
X65275570Y-151891380D01*
X69386714Y-149002238D02*
X69481952Y-148954619D01*
X69481952Y-148954619D02*
X69624809Y-148954619D01*
X69624809Y-148954619D02*
X69767666Y-149002238D01*
X69767666Y-149002238D02*
X69862904Y-149097476D01*
X69862904Y-149097476D02*
X69910523Y-149192714D01*
X69910523Y-149192714D02*
X69958142Y-149383190D01*
X69958142Y-149383190D02*
X69958142Y-149526047D01*
X69958142Y-149526047D02*
X69910523Y-149716523D01*
X69910523Y-149716523D02*
X69862904Y-149811761D01*
X69862904Y-149811761D02*
X69767666Y-149907000D01*
X69767666Y-149907000D02*
X69624809Y-149954619D01*
X69624809Y-149954619D02*
X69529571Y-149954619D01*
X69529571Y-149954619D02*
X69386714Y-149907000D01*
X69386714Y-149907000D02*
X69339095Y-149859380D01*
X69339095Y-149859380D02*
X69339095Y-149526047D01*
X69339095Y-149526047D02*
X69529571Y-149526047D01*
X68958142Y-149668904D02*
X68481952Y-149668904D01*
X69053380Y-149954619D02*
X68720047Y-148954619D01*
X68720047Y-148954619D02*
X68386714Y-149954619D01*
X68196237Y-148954619D02*
X67624809Y-148954619D01*
X67910523Y-149954619D02*
X67910523Y-148954619D01*
X67291475Y-149430809D02*
X66958142Y-149430809D01*
X66815285Y-149954619D02*
X67291475Y-149954619D01*
X67291475Y-149954619D02*
X67291475Y-148954619D01*
X67291475Y-148954619D02*
X66815285Y-148954619D01*
X66624809Y-150049857D02*
X65862904Y-150049857D01*
X65434332Y-148954619D02*
X65243856Y-148954619D01*
X65243856Y-148954619D02*
X65148618Y-149002238D01*
X65148618Y-149002238D02*
X65053380Y-149097476D01*
X65053380Y-149097476D02*
X65005761Y-149287952D01*
X65005761Y-149287952D02*
X65005761Y-149621285D01*
X65005761Y-149621285D02*
X65053380Y-149811761D01*
X65053380Y-149811761D02*
X65148618Y-149907000D01*
X65148618Y-149907000D02*
X65243856Y-149954619D01*
X65243856Y-149954619D02*
X65434332Y-149954619D01*
X65434332Y-149954619D02*
X65529570Y-149907000D01*
X65529570Y-149907000D02*
X65624808Y-149811761D01*
X65624808Y-149811761D02*
X65672427Y-149621285D01*
X65672427Y-149621285D02*
X65672427Y-149287952D01*
X65672427Y-149287952D02*
X65624808Y-149097476D01*
X65624808Y-149097476D02*
X65529570Y-149002238D01*
X65529570Y-149002238D02*
X65434332Y-148954619D01*
X64577189Y-148954619D02*
X64577189Y-149764142D01*
X64577189Y-149764142D02*
X64529570Y-149859380D01*
X64529570Y-149859380D02*
X64481951Y-149907000D01*
X64481951Y-149907000D02*
X64386713Y-149954619D01*
X64386713Y-149954619D02*
X64196237Y-149954619D01*
X64196237Y-149954619D02*
X64100999Y-149907000D01*
X64100999Y-149907000D02*
X64053380Y-149859380D01*
X64053380Y-149859380D02*
X64005761Y-149764142D01*
X64005761Y-149764142D02*
X64005761Y-148954619D01*
X63672427Y-148954619D02*
X63100999Y-148954619D01*
X63386713Y-149954619D02*
X63386713Y-148954619D01*
X62339094Y-149287952D02*
X62339094Y-149954619D01*
X62577189Y-148907000D02*
X62815284Y-149621285D01*
X62815284Y-149621285D02*
X62196237Y-149621285D01*
%TO.C,J16*%
X89656523Y-173986619D02*
X89656523Y-174700904D01*
X89656523Y-174700904D02*
X89704142Y-174843761D01*
X89704142Y-174843761D02*
X89799380Y-174939000D01*
X89799380Y-174939000D02*
X89942237Y-174986619D01*
X89942237Y-174986619D02*
X90037475Y-174986619D01*
X88656523Y-174986619D02*
X89227951Y-174986619D01*
X88942237Y-174986619D02*
X88942237Y-173986619D01*
X88942237Y-173986619D02*
X89037475Y-174129476D01*
X89037475Y-174129476D02*
X89132713Y-174224714D01*
X89132713Y-174224714D02*
X89227951Y-174272333D01*
X87799380Y-173986619D02*
X87989856Y-173986619D01*
X87989856Y-173986619D02*
X88085094Y-174034238D01*
X88085094Y-174034238D02*
X88132713Y-174081857D01*
X88132713Y-174081857D02*
X88227951Y-174224714D01*
X88227951Y-174224714D02*
X88275570Y-174415190D01*
X88275570Y-174415190D02*
X88275570Y-174796142D01*
X88275570Y-174796142D02*
X88227951Y-174891380D01*
X88227951Y-174891380D02*
X88180332Y-174939000D01*
X88180332Y-174939000D02*
X88085094Y-174986619D01*
X88085094Y-174986619D02*
X87894618Y-174986619D01*
X87894618Y-174986619D02*
X87799380Y-174939000D01*
X87799380Y-174939000D02*
X87751761Y-174891380D01*
X87751761Y-174891380D02*
X87704142Y-174796142D01*
X87704142Y-174796142D02*
X87704142Y-174558047D01*
X87704142Y-174558047D02*
X87751761Y-174462809D01*
X87751761Y-174462809D02*
X87799380Y-174415190D01*
X87799380Y-174415190D02*
X87894618Y-174367571D01*
X87894618Y-174367571D02*
X88085094Y-174367571D01*
X88085094Y-174367571D02*
X88180332Y-174415190D01*
X88180332Y-174415190D02*
X88227951Y-174462809D01*
X88227951Y-174462809D02*
X88275570Y-174558047D01*
X92577190Y-172954619D02*
X92910523Y-172478428D01*
X93148618Y-172954619D02*
X93148618Y-171954619D01*
X93148618Y-171954619D02*
X92767666Y-171954619D01*
X92767666Y-171954619D02*
X92672428Y-172002238D01*
X92672428Y-172002238D02*
X92624809Y-172049857D01*
X92624809Y-172049857D02*
X92577190Y-172145095D01*
X92577190Y-172145095D02*
X92577190Y-172287952D01*
X92577190Y-172287952D02*
X92624809Y-172383190D01*
X92624809Y-172383190D02*
X92672428Y-172430809D01*
X92672428Y-172430809D02*
X92767666Y-172478428D01*
X92767666Y-172478428D02*
X93148618Y-172478428D01*
X92196237Y-172668904D02*
X91720047Y-172668904D01*
X92291475Y-172954619D02*
X91958142Y-171954619D01*
X91958142Y-171954619D02*
X91624809Y-172954619D01*
X91291475Y-172954619D02*
X91291475Y-171954619D01*
X91291475Y-171954619D02*
X90958142Y-172668904D01*
X90958142Y-172668904D02*
X90624809Y-171954619D01*
X90624809Y-171954619D02*
X90624809Y-172954619D01*
X90148618Y-172954619D02*
X90148618Y-171954619D01*
X90148618Y-171954619D02*
X89767666Y-171954619D01*
X89767666Y-171954619D02*
X89672428Y-172002238D01*
X89672428Y-172002238D02*
X89624809Y-172049857D01*
X89624809Y-172049857D02*
X89577190Y-172145095D01*
X89577190Y-172145095D02*
X89577190Y-172287952D01*
X89577190Y-172287952D02*
X89624809Y-172383190D01*
X89624809Y-172383190D02*
X89672428Y-172430809D01*
X89672428Y-172430809D02*
X89767666Y-172478428D01*
X89767666Y-172478428D02*
X90148618Y-172478428D01*
X89386714Y-173049857D02*
X88624809Y-173049857D01*
X88196237Y-171954619D02*
X88005761Y-171954619D01*
X88005761Y-171954619D02*
X87910523Y-172002238D01*
X87910523Y-172002238D02*
X87815285Y-172097476D01*
X87815285Y-172097476D02*
X87767666Y-172287952D01*
X87767666Y-172287952D02*
X87767666Y-172621285D01*
X87767666Y-172621285D02*
X87815285Y-172811761D01*
X87815285Y-172811761D02*
X87910523Y-172907000D01*
X87910523Y-172907000D02*
X88005761Y-172954619D01*
X88005761Y-172954619D02*
X88196237Y-172954619D01*
X88196237Y-172954619D02*
X88291475Y-172907000D01*
X88291475Y-172907000D02*
X88386713Y-172811761D01*
X88386713Y-172811761D02*
X88434332Y-172621285D01*
X88434332Y-172621285D02*
X88434332Y-172287952D01*
X88434332Y-172287952D02*
X88386713Y-172097476D01*
X88386713Y-172097476D02*
X88291475Y-172002238D01*
X88291475Y-172002238D02*
X88196237Y-171954619D01*
X87339094Y-171954619D02*
X87339094Y-172764142D01*
X87339094Y-172764142D02*
X87291475Y-172859380D01*
X87291475Y-172859380D02*
X87243856Y-172907000D01*
X87243856Y-172907000D02*
X87148618Y-172954619D01*
X87148618Y-172954619D02*
X86958142Y-172954619D01*
X86958142Y-172954619D02*
X86862904Y-172907000D01*
X86862904Y-172907000D02*
X86815285Y-172859380D01*
X86815285Y-172859380D02*
X86767666Y-172764142D01*
X86767666Y-172764142D02*
X86767666Y-171954619D01*
X86434332Y-171954619D02*
X85862904Y-171954619D01*
X86148618Y-172954619D02*
X86148618Y-171954619D01*
X85053380Y-171954619D02*
X85529570Y-171954619D01*
X85529570Y-171954619D02*
X85577189Y-172430809D01*
X85577189Y-172430809D02*
X85529570Y-172383190D01*
X85529570Y-172383190D02*
X85434332Y-172335571D01*
X85434332Y-172335571D02*
X85196237Y-172335571D01*
X85196237Y-172335571D02*
X85100999Y-172383190D01*
X85100999Y-172383190D02*
X85053380Y-172430809D01*
X85053380Y-172430809D02*
X85005761Y-172526047D01*
X85005761Y-172526047D02*
X85005761Y-172764142D01*
X85005761Y-172764142D02*
X85053380Y-172859380D01*
X85053380Y-172859380D02*
X85100999Y-172907000D01*
X85100999Y-172907000D02*
X85196237Y-172954619D01*
X85196237Y-172954619D02*
X85434332Y-172954619D01*
X85434332Y-172954619D02*
X85529570Y-172907000D01*
X85529570Y-172907000D02*
X85577189Y-172859380D01*
%TO.C,J17*%
X112656523Y-173986619D02*
X112656523Y-174700904D01*
X112656523Y-174700904D02*
X112704142Y-174843761D01*
X112704142Y-174843761D02*
X112799380Y-174939000D01*
X112799380Y-174939000D02*
X112942237Y-174986619D01*
X112942237Y-174986619D02*
X113037475Y-174986619D01*
X111656523Y-174986619D02*
X112227951Y-174986619D01*
X111942237Y-174986619D02*
X111942237Y-173986619D01*
X111942237Y-173986619D02*
X112037475Y-174129476D01*
X112037475Y-174129476D02*
X112132713Y-174224714D01*
X112132713Y-174224714D02*
X112227951Y-174272333D01*
X111323189Y-173986619D02*
X110656523Y-173986619D01*
X110656523Y-173986619D02*
X111085094Y-174986619D01*
X116505761Y-172954619D02*
X116505761Y-171954619D01*
X116505761Y-171954619D02*
X116124809Y-171954619D01*
X116124809Y-171954619D02*
X116029571Y-172002238D01*
X116029571Y-172002238D02*
X115981952Y-172049857D01*
X115981952Y-172049857D02*
X115934333Y-172145095D01*
X115934333Y-172145095D02*
X115934333Y-172287952D01*
X115934333Y-172287952D02*
X115981952Y-172383190D01*
X115981952Y-172383190D02*
X116029571Y-172430809D01*
X116029571Y-172430809D02*
X116124809Y-172478428D01*
X116124809Y-172478428D02*
X116505761Y-172478428D01*
X115505761Y-171954619D02*
X115505761Y-172764142D01*
X115505761Y-172764142D02*
X115458142Y-172859380D01*
X115458142Y-172859380D02*
X115410523Y-172907000D01*
X115410523Y-172907000D02*
X115315285Y-172954619D01*
X115315285Y-172954619D02*
X115124809Y-172954619D01*
X115124809Y-172954619D02*
X115029571Y-172907000D01*
X115029571Y-172907000D02*
X114981952Y-172859380D01*
X114981952Y-172859380D02*
X114934333Y-172764142D01*
X114934333Y-172764142D02*
X114934333Y-171954619D01*
X113981952Y-172954619D02*
X114458142Y-172954619D01*
X114458142Y-172954619D02*
X114458142Y-171954619D01*
X113696237Y-172907000D02*
X113553380Y-172954619D01*
X113553380Y-172954619D02*
X113315285Y-172954619D01*
X113315285Y-172954619D02*
X113220047Y-172907000D01*
X113220047Y-172907000D02*
X113172428Y-172859380D01*
X113172428Y-172859380D02*
X113124809Y-172764142D01*
X113124809Y-172764142D02*
X113124809Y-172668904D01*
X113124809Y-172668904D02*
X113172428Y-172573666D01*
X113172428Y-172573666D02*
X113220047Y-172526047D01*
X113220047Y-172526047D02*
X113315285Y-172478428D01*
X113315285Y-172478428D02*
X113505761Y-172430809D01*
X113505761Y-172430809D02*
X113600999Y-172383190D01*
X113600999Y-172383190D02*
X113648618Y-172335571D01*
X113648618Y-172335571D02*
X113696237Y-172240333D01*
X113696237Y-172240333D02*
X113696237Y-172145095D01*
X113696237Y-172145095D02*
X113648618Y-172049857D01*
X113648618Y-172049857D02*
X113600999Y-172002238D01*
X113600999Y-172002238D02*
X113505761Y-171954619D01*
X113505761Y-171954619D02*
X113267666Y-171954619D01*
X113267666Y-171954619D02*
X113124809Y-172002238D01*
X112696237Y-172430809D02*
X112362904Y-172430809D01*
X112220047Y-172954619D02*
X112696237Y-172954619D01*
X112696237Y-172954619D02*
X112696237Y-171954619D01*
X112696237Y-171954619D02*
X112220047Y-171954619D01*
X112029571Y-173049857D02*
X111267666Y-173049857D01*
X110839094Y-171954619D02*
X110648618Y-171954619D01*
X110648618Y-171954619D02*
X110553380Y-172002238D01*
X110553380Y-172002238D02*
X110458142Y-172097476D01*
X110458142Y-172097476D02*
X110410523Y-172287952D01*
X110410523Y-172287952D02*
X110410523Y-172621285D01*
X110410523Y-172621285D02*
X110458142Y-172811761D01*
X110458142Y-172811761D02*
X110553380Y-172907000D01*
X110553380Y-172907000D02*
X110648618Y-172954619D01*
X110648618Y-172954619D02*
X110839094Y-172954619D01*
X110839094Y-172954619D02*
X110934332Y-172907000D01*
X110934332Y-172907000D02*
X111029570Y-172811761D01*
X111029570Y-172811761D02*
X111077189Y-172621285D01*
X111077189Y-172621285D02*
X111077189Y-172287952D01*
X111077189Y-172287952D02*
X111029570Y-172097476D01*
X111029570Y-172097476D02*
X110934332Y-172002238D01*
X110934332Y-172002238D02*
X110839094Y-171954619D01*
X109981951Y-171954619D02*
X109981951Y-172764142D01*
X109981951Y-172764142D02*
X109934332Y-172859380D01*
X109934332Y-172859380D02*
X109886713Y-172907000D01*
X109886713Y-172907000D02*
X109791475Y-172954619D01*
X109791475Y-172954619D02*
X109600999Y-172954619D01*
X109600999Y-172954619D02*
X109505761Y-172907000D01*
X109505761Y-172907000D02*
X109458142Y-172859380D01*
X109458142Y-172859380D02*
X109410523Y-172764142D01*
X109410523Y-172764142D02*
X109410523Y-171954619D01*
X109077189Y-171954619D02*
X108505761Y-171954619D01*
X108791475Y-172954619D02*
X108791475Y-171954619D01*
X107696237Y-171954619D02*
X108172427Y-171954619D01*
X108172427Y-171954619D02*
X108220046Y-172430809D01*
X108220046Y-172430809D02*
X108172427Y-172383190D01*
X108172427Y-172383190D02*
X108077189Y-172335571D01*
X108077189Y-172335571D02*
X107839094Y-172335571D01*
X107839094Y-172335571D02*
X107743856Y-172383190D01*
X107743856Y-172383190D02*
X107696237Y-172430809D01*
X107696237Y-172430809D02*
X107648618Y-172526047D01*
X107648618Y-172526047D02*
X107648618Y-172764142D01*
X107648618Y-172764142D02*
X107696237Y-172859380D01*
X107696237Y-172859380D02*
X107743856Y-172907000D01*
X107743856Y-172907000D02*
X107839094Y-172954619D01*
X107839094Y-172954619D02*
X108077189Y-172954619D01*
X108077189Y-172954619D02*
X108172427Y-172907000D01*
X108172427Y-172907000D02*
X108220046Y-172859380D01*
%TO.C,J18*%
X66656523Y-173986619D02*
X66656523Y-174700904D01*
X66656523Y-174700904D02*
X66704142Y-174843761D01*
X66704142Y-174843761D02*
X66799380Y-174939000D01*
X66799380Y-174939000D02*
X66942237Y-174986619D01*
X66942237Y-174986619D02*
X67037475Y-174986619D01*
X65656523Y-174986619D02*
X66227951Y-174986619D01*
X65942237Y-174986619D02*
X65942237Y-173986619D01*
X65942237Y-173986619D02*
X66037475Y-174129476D01*
X66037475Y-174129476D02*
X66132713Y-174224714D01*
X66132713Y-174224714D02*
X66227951Y-174272333D01*
X65085094Y-174415190D02*
X65180332Y-174367571D01*
X65180332Y-174367571D02*
X65227951Y-174319952D01*
X65227951Y-174319952D02*
X65275570Y-174224714D01*
X65275570Y-174224714D02*
X65275570Y-174177095D01*
X65275570Y-174177095D02*
X65227951Y-174081857D01*
X65227951Y-174081857D02*
X65180332Y-174034238D01*
X65180332Y-174034238D02*
X65085094Y-173986619D01*
X65085094Y-173986619D02*
X64894618Y-173986619D01*
X64894618Y-173986619D02*
X64799380Y-174034238D01*
X64799380Y-174034238D02*
X64751761Y-174081857D01*
X64751761Y-174081857D02*
X64704142Y-174177095D01*
X64704142Y-174177095D02*
X64704142Y-174224714D01*
X64704142Y-174224714D02*
X64751761Y-174319952D01*
X64751761Y-174319952D02*
X64799380Y-174367571D01*
X64799380Y-174367571D02*
X64894618Y-174415190D01*
X64894618Y-174415190D02*
X65085094Y-174415190D01*
X65085094Y-174415190D02*
X65180332Y-174462809D01*
X65180332Y-174462809D02*
X65227951Y-174510428D01*
X65227951Y-174510428D02*
X65275570Y-174605666D01*
X65275570Y-174605666D02*
X65275570Y-174796142D01*
X65275570Y-174796142D02*
X65227951Y-174891380D01*
X65227951Y-174891380D02*
X65180332Y-174939000D01*
X65180332Y-174939000D02*
X65085094Y-174986619D01*
X65085094Y-174986619D02*
X64894618Y-174986619D01*
X64894618Y-174986619D02*
X64799380Y-174939000D01*
X64799380Y-174939000D02*
X64751761Y-174891380D01*
X64751761Y-174891380D02*
X64704142Y-174796142D01*
X64704142Y-174796142D02*
X64704142Y-174605666D01*
X64704142Y-174605666D02*
X64751761Y-174510428D01*
X64751761Y-174510428D02*
X64799380Y-174462809D01*
X64799380Y-174462809D02*
X64894618Y-174415190D01*
X69386714Y-172002238D02*
X69481952Y-171954619D01*
X69481952Y-171954619D02*
X69624809Y-171954619D01*
X69624809Y-171954619D02*
X69767666Y-172002238D01*
X69767666Y-172002238D02*
X69862904Y-172097476D01*
X69862904Y-172097476D02*
X69910523Y-172192714D01*
X69910523Y-172192714D02*
X69958142Y-172383190D01*
X69958142Y-172383190D02*
X69958142Y-172526047D01*
X69958142Y-172526047D02*
X69910523Y-172716523D01*
X69910523Y-172716523D02*
X69862904Y-172811761D01*
X69862904Y-172811761D02*
X69767666Y-172907000D01*
X69767666Y-172907000D02*
X69624809Y-172954619D01*
X69624809Y-172954619D02*
X69529571Y-172954619D01*
X69529571Y-172954619D02*
X69386714Y-172907000D01*
X69386714Y-172907000D02*
X69339095Y-172859380D01*
X69339095Y-172859380D02*
X69339095Y-172526047D01*
X69339095Y-172526047D02*
X69529571Y-172526047D01*
X68958142Y-172668904D02*
X68481952Y-172668904D01*
X69053380Y-172954619D02*
X68720047Y-171954619D01*
X68720047Y-171954619D02*
X68386714Y-172954619D01*
X68196237Y-171954619D02*
X67624809Y-171954619D01*
X67910523Y-172954619D02*
X67910523Y-171954619D01*
X67291475Y-172430809D02*
X66958142Y-172430809D01*
X66815285Y-172954619D02*
X67291475Y-172954619D01*
X67291475Y-172954619D02*
X67291475Y-171954619D01*
X67291475Y-171954619D02*
X66815285Y-171954619D01*
X66624809Y-173049857D02*
X65862904Y-173049857D01*
X65434332Y-171954619D02*
X65243856Y-171954619D01*
X65243856Y-171954619D02*
X65148618Y-172002238D01*
X65148618Y-172002238D02*
X65053380Y-172097476D01*
X65053380Y-172097476D02*
X65005761Y-172287952D01*
X65005761Y-172287952D02*
X65005761Y-172621285D01*
X65005761Y-172621285D02*
X65053380Y-172811761D01*
X65053380Y-172811761D02*
X65148618Y-172907000D01*
X65148618Y-172907000D02*
X65243856Y-172954619D01*
X65243856Y-172954619D02*
X65434332Y-172954619D01*
X65434332Y-172954619D02*
X65529570Y-172907000D01*
X65529570Y-172907000D02*
X65624808Y-172811761D01*
X65624808Y-172811761D02*
X65672427Y-172621285D01*
X65672427Y-172621285D02*
X65672427Y-172287952D01*
X65672427Y-172287952D02*
X65624808Y-172097476D01*
X65624808Y-172097476D02*
X65529570Y-172002238D01*
X65529570Y-172002238D02*
X65434332Y-171954619D01*
X64577189Y-171954619D02*
X64577189Y-172764142D01*
X64577189Y-172764142D02*
X64529570Y-172859380D01*
X64529570Y-172859380D02*
X64481951Y-172907000D01*
X64481951Y-172907000D02*
X64386713Y-172954619D01*
X64386713Y-172954619D02*
X64196237Y-172954619D01*
X64196237Y-172954619D02*
X64100999Y-172907000D01*
X64100999Y-172907000D02*
X64053380Y-172859380D01*
X64053380Y-172859380D02*
X64005761Y-172764142D01*
X64005761Y-172764142D02*
X64005761Y-171954619D01*
X63672427Y-171954619D02*
X63100999Y-171954619D01*
X63386713Y-172954619D02*
X63386713Y-171954619D01*
X62291475Y-171954619D02*
X62767665Y-171954619D01*
X62767665Y-171954619D02*
X62815284Y-172430809D01*
X62815284Y-172430809D02*
X62767665Y-172383190D01*
X62767665Y-172383190D02*
X62672427Y-172335571D01*
X62672427Y-172335571D02*
X62434332Y-172335571D01*
X62434332Y-172335571D02*
X62339094Y-172383190D01*
X62339094Y-172383190D02*
X62291475Y-172430809D01*
X62291475Y-172430809D02*
X62243856Y-172526047D01*
X62243856Y-172526047D02*
X62243856Y-172764142D01*
X62243856Y-172764142D02*
X62291475Y-172859380D01*
X62291475Y-172859380D02*
X62339094Y-172907000D01*
X62339094Y-172907000D02*
X62434332Y-172954619D01*
X62434332Y-172954619D02*
X62672427Y-172954619D01*
X62672427Y-172954619D02*
X62767665Y-172907000D01*
X62767665Y-172907000D02*
X62815284Y-172859380D01*
D11*
%TO.C,J1*%
X80973000Y-49110000D02*
X80973000Y-64858000D01*
X80973000Y-64858000D02*
X96721000Y-64858000D01*
X94181000Y-49110000D02*
X80973000Y-49110000D01*
X96721000Y-51142000D02*
X94181000Y-49110000D01*
X96721000Y-64858000D02*
X96727000Y-51148000D01*
%TO.C,J2*%
X103973000Y-49110000D02*
X103973000Y-64858000D01*
X103973000Y-64858000D02*
X119721000Y-64858000D01*
X117181000Y-49110000D02*
X103973000Y-49110000D01*
X119721000Y-51142000D02*
X117181000Y-49110000D01*
X119721000Y-64858000D02*
X119727000Y-51148000D01*
%TO.C,J3*%
X57973000Y-49110000D02*
X57973000Y-64858000D01*
X57973000Y-64858000D02*
X73721000Y-64858000D01*
X71181000Y-49110000D02*
X57973000Y-49110000D01*
X73721000Y-51142000D02*
X71181000Y-49110000D01*
X73721000Y-64858000D02*
X73727000Y-51148000D01*
%TO.C,J4*%
X80973000Y-72110000D02*
X80973000Y-87858000D01*
X80973000Y-87858000D02*
X96721000Y-87858000D01*
X94181000Y-72110000D02*
X80973000Y-72110000D01*
X96721000Y-74142000D02*
X94181000Y-72110000D01*
X96721000Y-87858000D02*
X96727000Y-74148000D01*
%TO.C,J5*%
X103973000Y-72110000D02*
X103973000Y-87858000D01*
X103973000Y-87858000D02*
X119721000Y-87858000D01*
X117181000Y-72110000D02*
X103973000Y-72110000D01*
X119721000Y-74142000D02*
X117181000Y-72110000D01*
X119721000Y-87858000D02*
X119727000Y-74148000D01*
%TO.C,J6*%
X57973000Y-72110000D02*
X57973000Y-87858000D01*
X57973000Y-87858000D02*
X73721000Y-87858000D01*
X71181000Y-72110000D02*
X57973000Y-72110000D01*
X73721000Y-74142000D02*
X71181000Y-72110000D01*
X73721000Y-87858000D02*
X73727000Y-74148000D01*
%TO.C,J7*%
X80973000Y-95110000D02*
X80973000Y-110858000D01*
X80973000Y-110858000D02*
X96721000Y-110858000D01*
X94181000Y-95110000D02*
X80973000Y-95110000D01*
X96721000Y-97142000D02*
X94181000Y-95110000D01*
X96721000Y-110858000D02*
X96727000Y-97148000D01*
%TO.C,J8*%
X103973000Y-95110000D02*
X103973000Y-110858000D01*
X103973000Y-110858000D02*
X119721000Y-110858000D01*
X117181000Y-95110000D02*
X103973000Y-95110000D01*
X119721000Y-97142000D02*
X117181000Y-95110000D01*
X119721000Y-110858000D02*
X119727000Y-97148000D01*
%TO.C,J9*%
X57973000Y-95110000D02*
X57973000Y-110858000D01*
X57973000Y-110858000D02*
X73721000Y-110858000D01*
X71181000Y-95110000D02*
X57973000Y-95110000D01*
X73721000Y-97142000D02*
X71181000Y-95110000D01*
X73721000Y-110858000D02*
X73727000Y-97148000D01*
%TO.C,J10*%
X80973000Y-118110000D02*
X80973000Y-133858000D01*
X80973000Y-133858000D02*
X96721000Y-133858000D01*
X94181000Y-118110000D02*
X80973000Y-118110000D01*
X96721000Y-120142000D02*
X94181000Y-118110000D01*
X96721000Y-133858000D02*
X96727000Y-120148000D01*
%TO.C,J11*%
X103973000Y-118110000D02*
X103973000Y-133858000D01*
X103973000Y-133858000D02*
X119721000Y-133858000D01*
X117181000Y-118110000D02*
X103973000Y-118110000D01*
X119721000Y-120142000D02*
X117181000Y-118110000D01*
X119721000Y-133858000D02*
X119727000Y-120148000D01*
%TO.C,J12*%
X57973000Y-118110000D02*
X57973000Y-133858000D01*
X57973000Y-133858000D02*
X73721000Y-133858000D01*
X71181000Y-118110000D02*
X57973000Y-118110000D01*
X73721000Y-120142000D02*
X71181000Y-118110000D01*
X73721000Y-133858000D02*
X73727000Y-120148000D01*
%TO.C,J13*%
X80973000Y-141110000D02*
X80973000Y-156858000D01*
X80973000Y-156858000D02*
X96721000Y-156858000D01*
X94181000Y-141110000D02*
X80973000Y-141110000D01*
X96721000Y-143142000D02*
X94181000Y-141110000D01*
X96721000Y-156858000D02*
X96727000Y-143148000D01*
%TO.C,J14*%
X103973000Y-141110000D02*
X103973000Y-156858000D01*
X103973000Y-156858000D02*
X119721000Y-156858000D01*
X117181000Y-141110000D02*
X103973000Y-141110000D01*
X119721000Y-143142000D02*
X117181000Y-141110000D01*
X119721000Y-156858000D02*
X119727000Y-143148000D01*
%TO.C,J15*%
X57973000Y-141110000D02*
X57973000Y-156858000D01*
X57973000Y-156858000D02*
X73721000Y-156858000D01*
X71181000Y-141110000D02*
X57973000Y-141110000D01*
X73721000Y-143142000D02*
X71181000Y-141110000D01*
X73721000Y-156858000D02*
X73727000Y-143148000D01*
%TO.C,J16*%
X80973000Y-164110000D02*
X80973000Y-179858000D01*
X80973000Y-179858000D02*
X96721000Y-179858000D01*
X94181000Y-164110000D02*
X80973000Y-164110000D01*
X96721000Y-166142000D02*
X94181000Y-164110000D01*
X96721000Y-179858000D02*
X96727000Y-166148000D01*
%TO.C,J17*%
X103973000Y-164110000D02*
X103973000Y-179858000D01*
X103973000Y-179858000D02*
X119721000Y-179858000D01*
X117181000Y-164110000D02*
X103973000Y-164110000D01*
X119721000Y-166142000D02*
X117181000Y-164110000D01*
X119721000Y-179858000D02*
X119727000Y-166148000D01*
%TO.C,J18*%
X57973000Y-164110000D02*
X57973000Y-179858000D01*
X57973000Y-179858000D02*
X73721000Y-179858000D01*
X71181000Y-164110000D02*
X57973000Y-164110000D01*
X73721000Y-166142000D02*
X71181000Y-164110000D01*
X73721000Y-179858000D02*
X73727000Y-166148000D01*
%TD*%
M02*
