%TF.GenerationSoftware,KiCad,Pcbnew,(5.1.7)-1*%
%TF.CreationDate,2023-03-06T21:23:01+00:00*%
%TF.ProjectId,KOSMO-POLY6-JACKS,4b4f534d-4f2d-4504-9f4c-59362d4a4143,v0.1.1*%
%TF.SameCoordinates,Original*%
%TF.FileFunction,Legend,Bot*%
%TF.FilePolarity,Positive*%
%FSLAX46Y46*%
G04 Gerber Fmt 4.6, Leading zero omitted, Abs format (unit mm)*
G04 Created by KiCad (PCBNEW (5.1.7)-1) date 2023-03-06 21:23:01*
%MOMM*%
%LPD*%
G01*
G04 APERTURE LIST*
%ADD10C,0.150000*%
%ADD11C,0.120000*%
G04 APERTURE END LIST*
D10*
X55067380Y-169559952D02*
X55781666Y-169559952D01*
X55924523Y-169512333D01*
X56019761Y-169417095D01*
X56067380Y-169274238D01*
X56067380Y-169179000D01*
X56067380Y-170512333D02*
X56067380Y-170036142D01*
X55067380Y-170036142D01*
X55972142Y-171417095D02*
X56019761Y-171369476D01*
X56067380Y-171226619D01*
X56067380Y-171131380D01*
X56019761Y-170988523D01*
X55924523Y-170893285D01*
X55829285Y-170845666D01*
X55638809Y-170798047D01*
X55495952Y-170798047D01*
X55305476Y-170845666D01*
X55210238Y-170893285D01*
X55115000Y-170988523D01*
X55067380Y-171131380D01*
X55067380Y-171226619D01*
X55115000Y-171369476D01*
X55162619Y-171417095D01*
X55067380Y-172131380D02*
X55781666Y-172131380D01*
X55924523Y-172083761D01*
X56019761Y-171988523D01*
X56067380Y-171845666D01*
X56067380Y-171750428D01*
X56067380Y-173083761D02*
X56067380Y-172607571D01*
X55067380Y-172607571D01*
X55972142Y-173988523D02*
X56019761Y-173940904D01*
X56067380Y-173798047D01*
X56067380Y-173702809D01*
X56019761Y-173559952D01*
X55924523Y-173464714D01*
X55829285Y-173417095D01*
X55638809Y-173369476D01*
X55495952Y-173369476D01*
X55305476Y-173417095D01*
X55210238Y-173464714D01*
X55115000Y-173559952D01*
X55067380Y-173702809D01*
X55067380Y-173798047D01*
X55115000Y-173940904D01*
X55162619Y-173988523D01*
X55067380Y-174702809D02*
X55781666Y-174702809D01*
X55924523Y-174655190D01*
X56019761Y-174559952D01*
X56067380Y-174417095D01*
X56067380Y-174321857D01*
X56067380Y-175655190D02*
X56067380Y-175179000D01*
X55067380Y-175179000D01*
X55972142Y-176559952D02*
X56019761Y-176512333D01*
X56067380Y-176369476D01*
X56067380Y-176274238D01*
X56019761Y-176131380D01*
X55924523Y-176036142D01*
X55829285Y-175988523D01*
X55638809Y-175940904D01*
X55495952Y-175940904D01*
X55305476Y-175988523D01*
X55210238Y-176036142D01*
X55115000Y-176131380D01*
X55067380Y-176274238D01*
X55067380Y-176369476D01*
X55115000Y-176512333D01*
X55162619Y-176559952D01*
X55067380Y-177274238D02*
X55781666Y-177274238D01*
X55924523Y-177226619D01*
X56019761Y-177131380D01*
X56067380Y-176988523D01*
X56067380Y-176893285D01*
X56067380Y-178226619D02*
X56067380Y-177750428D01*
X55067380Y-177750428D01*
X55972142Y-179131380D02*
X56019761Y-179083761D01*
X56067380Y-178940904D01*
X56067380Y-178845666D01*
X56019761Y-178702809D01*
X55924523Y-178607571D01*
X55829285Y-178559952D01*
X55638809Y-178512333D01*
X55495952Y-178512333D01*
X55305476Y-178559952D01*
X55210238Y-178607571D01*
X55115000Y-178702809D01*
X55067380Y-178845666D01*
X55067380Y-178940904D01*
X55115000Y-179083761D01*
X55162619Y-179131380D01*
D11*
%TO.C,J18*%
X57973000Y-179858000D02*
X73721000Y-179858000D01*
X73721000Y-179858000D02*
X73727000Y-166148000D01*
X73721000Y-166142000D02*
X71181000Y-164110000D01*
X71181000Y-164110000D02*
X57973000Y-164110000D01*
X57973000Y-164110000D02*
X57973000Y-179858000D01*
%TO.C,J17*%
X103973000Y-179858000D02*
X119721000Y-179858000D01*
X119721000Y-179858000D02*
X119727000Y-166148000D01*
X119721000Y-166142000D02*
X117181000Y-164110000D01*
X117181000Y-164110000D02*
X103973000Y-164110000D01*
X103973000Y-164110000D02*
X103973000Y-179858000D01*
%TO.C,J16*%
X80973000Y-179858000D02*
X96721000Y-179858000D01*
X96721000Y-179858000D02*
X96727000Y-166148000D01*
X96721000Y-166142000D02*
X94181000Y-164110000D01*
X94181000Y-164110000D02*
X80973000Y-164110000D01*
X80973000Y-164110000D02*
X80973000Y-179858000D01*
%TO.C,J15*%
X57973000Y-156858000D02*
X73721000Y-156858000D01*
X73721000Y-156858000D02*
X73727000Y-143148000D01*
X73721000Y-143142000D02*
X71181000Y-141110000D01*
X71181000Y-141110000D02*
X57973000Y-141110000D01*
X57973000Y-141110000D02*
X57973000Y-156858000D01*
%TO.C,J14*%
X103973000Y-156858000D02*
X119721000Y-156858000D01*
X119721000Y-156858000D02*
X119727000Y-143148000D01*
X119721000Y-143142000D02*
X117181000Y-141110000D01*
X117181000Y-141110000D02*
X103973000Y-141110000D01*
X103973000Y-141110000D02*
X103973000Y-156858000D01*
%TO.C,J13*%
X80973000Y-156858000D02*
X96721000Y-156858000D01*
X96721000Y-156858000D02*
X96727000Y-143148000D01*
X96721000Y-143142000D02*
X94181000Y-141110000D01*
X94181000Y-141110000D02*
X80973000Y-141110000D01*
X80973000Y-141110000D02*
X80973000Y-156858000D01*
%TO.C,J12*%
X57973000Y-133858000D02*
X73721000Y-133858000D01*
X73721000Y-133858000D02*
X73727000Y-120148000D01*
X73721000Y-120142000D02*
X71181000Y-118110000D01*
X71181000Y-118110000D02*
X57973000Y-118110000D01*
X57973000Y-118110000D02*
X57973000Y-133858000D01*
%TO.C,J11*%
X103973000Y-133858000D02*
X119721000Y-133858000D01*
X119721000Y-133858000D02*
X119727000Y-120148000D01*
X119721000Y-120142000D02*
X117181000Y-118110000D01*
X117181000Y-118110000D02*
X103973000Y-118110000D01*
X103973000Y-118110000D02*
X103973000Y-133858000D01*
%TO.C,J10*%
X80973000Y-133858000D02*
X96721000Y-133858000D01*
X96721000Y-133858000D02*
X96727000Y-120148000D01*
X96721000Y-120142000D02*
X94181000Y-118110000D01*
X94181000Y-118110000D02*
X80973000Y-118110000D01*
X80973000Y-118110000D02*
X80973000Y-133858000D01*
%TO.C,J9*%
X57973000Y-110858000D02*
X73721000Y-110858000D01*
X73721000Y-110858000D02*
X73727000Y-97148000D01*
X73721000Y-97142000D02*
X71181000Y-95110000D01*
X71181000Y-95110000D02*
X57973000Y-95110000D01*
X57973000Y-95110000D02*
X57973000Y-110858000D01*
%TO.C,J8*%
X103973000Y-110858000D02*
X119721000Y-110858000D01*
X119721000Y-110858000D02*
X119727000Y-97148000D01*
X119721000Y-97142000D02*
X117181000Y-95110000D01*
X117181000Y-95110000D02*
X103973000Y-95110000D01*
X103973000Y-95110000D02*
X103973000Y-110858000D01*
%TO.C,J7*%
X80973000Y-110858000D02*
X96721000Y-110858000D01*
X96721000Y-110858000D02*
X96727000Y-97148000D01*
X96721000Y-97142000D02*
X94181000Y-95110000D01*
X94181000Y-95110000D02*
X80973000Y-95110000D01*
X80973000Y-95110000D02*
X80973000Y-110858000D01*
%TO.C,J6*%
X57973000Y-87858000D02*
X73721000Y-87858000D01*
X73721000Y-87858000D02*
X73727000Y-74148000D01*
X73721000Y-74142000D02*
X71181000Y-72110000D01*
X71181000Y-72110000D02*
X57973000Y-72110000D01*
X57973000Y-72110000D02*
X57973000Y-87858000D01*
%TO.C,J5*%
X103973000Y-87858000D02*
X119721000Y-87858000D01*
X119721000Y-87858000D02*
X119727000Y-74148000D01*
X119721000Y-74142000D02*
X117181000Y-72110000D01*
X117181000Y-72110000D02*
X103973000Y-72110000D01*
X103973000Y-72110000D02*
X103973000Y-87858000D01*
%TO.C,J4*%
X80973000Y-87858000D02*
X96721000Y-87858000D01*
X96721000Y-87858000D02*
X96727000Y-74148000D01*
X96721000Y-74142000D02*
X94181000Y-72110000D01*
X94181000Y-72110000D02*
X80973000Y-72110000D01*
X80973000Y-72110000D02*
X80973000Y-87858000D01*
%TO.C,J3*%
X57973000Y-64858000D02*
X73721000Y-64858000D01*
X73721000Y-64858000D02*
X73727000Y-51148000D01*
X73721000Y-51142000D02*
X71181000Y-49110000D01*
X71181000Y-49110000D02*
X57973000Y-49110000D01*
X57973000Y-49110000D02*
X57973000Y-64858000D01*
%TO.C,J2*%
X103973000Y-64858000D02*
X119721000Y-64858000D01*
X119721000Y-64858000D02*
X119727000Y-51148000D01*
X119721000Y-51142000D02*
X117181000Y-49110000D01*
X117181000Y-49110000D02*
X103973000Y-49110000D01*
X103973000Y-49110000D02*
X103973000Y-64858000D01*
%TO.C,J1*%
X80973000Y-64858000D02*
X96721000Y-64858000D01*
X96721000Y-64858000D02*
X96727000Y-51148000D01*
X96721000Y-51142000D02*
X94181000Y-49110000D01*
X94181000Y-49110000D02*
X80973000Y-49110000D01*
X80973000Y-49110000D02*
X80973000Y-64858000D01*
%TO.C,J18*%
D10*
X66656523Y-173976380D02*
X66656523Y-174690666D01*
X66704142Y-174833523D01*
X66799380Y-174928761D01*
X66942238Y-174976380D01*
X67037476Y-174976380D01*
X65656523Y-174976380D02*
X66227952Y-174976380D01*
X65942238Y-174976380D02*
X65942238Y-173976380D01*
X66037476Y-174119238D01*
X66132714Y-174214476D01*
X66227952Y-174262095D01*
X65085095Y-174404952D02*
X65180333Y-174357333D01*
X65227952Y-174309714D01*
X65275571Y-174214476D01*
X65275571Y-174166857D01*
X65227952Y-174071619D01*
X65180333Y-174024000D01*
X65085095Y-173976380D01*
X64894619Y-173976380D01*
X64799380Y-174024000D01*
X64751761Y-174071619D01*
X64704142Y-174166857D01*
X64704142Y-174214476D01*
X64751761Y-174309714D01*
X64799380Y-174357333D01*
X64894619Y-174404952D01*
X65085095Y-174404952D01*
X65180333Y-174452571D01*
X65227952Y-174500190D01*
X65275571Y-174595428D01*
X65275571Y-174785904D01*
X65227952Y-174881142D01*
X65180333Y-174928761D01*
X65085095Y-174976380D01*
X64894619Y-174976380D01*
X64799380Y-174928761D01*
X64751761Y-174881142D01*
X64704142Y-174785904D01*
X64704142Y-174595428D01*
X64751761Y-174500190D01*
X64799380Y-174452571D01*
X64894619Y-174404952D01*
X69386714Y-171992000D02*
X69481952Y-171944380D01*
X69624809Y-171944380D01*
X69767666Y-171992000D01*
X69862904Y-172087238D01*
X69910523Y-172182476D01*
X69958142Y-172372952D01*
X69958142Y-172515809D01*
X69910523Y-172706285D01*
X69862904Y-172801523D01*
X69767666Y-172896761D01*
X69624809Y-172944380D01*
X69529571Y-172944380D01*
X69386714Y-172896761D01*
X69339095Y-172849142D01*
X69339095Y-172515809D01*
X69529571Y-172515809D01*
X68958142Y-172658666D02*
X68481952Y-172658666D01*
X69053380Y-172944380D02*
X68720047Y-171944380D01*
X68386714Y-172944380D01*
X68196238Y-171944380D02*
X67624809Y-171944380D01*
X67910523Y-172944380D02*
X67910523Y-171944380D01*
X67291476Y-172420571D02*
X66958142Y-172420571D01*
X66815285Y-172944380D02*
X67291476Y-172944380D01*
X67291476Y-171944380D01*
X66815285Y-171944380D01*
X66624809Y-173039619D02*
X65862904Y-173039619D01*
X65434333Y-171944380D02*
X65243857Y-171944380D01*
X65148619Y-171992000D01*
X65053380Y-172087238D01*
X65005761Y-172277714D01*
X65005761Y-172611047D01*
X65053380Y-172801523D01*
X65148619Y-172896761D01*
X65243857Y-172944380D01*
X65434333Y-172944380D01*
X65529571Y-172896761D01*
X65624809Y-172801523D01*
X65672428Y-172611047D01*
X65672428Y-172277714D01*
X65624809Y-172087238D01*
X65529571Y-171992000D01*
X65434333Y-171944380D01*
X64577190Y-171944380D02*
X64577190Y-172753904D01*
X64529571Y-172849142D01*
X64481952Y-172896761D01*
X64386714Y-172944380D01*
X64196238Y-172944380D01*
X64101000Y-172896761D01*
X64053380Y-172849142D01*
X64005761Y-172753904D01*
X64005761Y-171944380D01*
X63672428Y-171944380D02*
X63101000Y-171944380D01*
X63386714Y-172944380D02*
X63386714Y-171944380D01*
X62291476Y-171944380D02*
X62767666Y-171944380D01*
X62815285Y-172420571D01*
X62767666Y-172372952D01*
X62672428Y-172325333D01*
X62434333Y-172325333D01*
X62339095Y-172372952D01*
X62291476Y-172420571D01*
X62243857Y-172515809D01*
X62243857Y-172753904D01*
X62291476Y-172849142D01*
X62339095Y-172896761D01*
X62434333Y-172944380D01*
X62672428Y-172944380D01*
X62767666Y-172896761D01*
X62815285Y-172849142D01*
%TO.C,J17*%
X112656523Y-173976380D02*
X112656523Y-174690666D01*
X112704142Y-174833523D01*
X112799380Y-174928761D01*
X112942238Y-174976380D01*
X113037476Y-174976380D01*
X111656523Y-174976380D02*
X112227952Y-174976380D01*
X111942238Y-174976380D02*
X111942238Y-173976380D01*
X112037476Y-174119238D01*
X112132714Y-174214476D01*
X112227952Y-174262095D01*
X111323190Y-173976380D02*
X110656523Y-173976380D01*
X111085095Y-174976380D01*
X116505761Y-172944380D02*
X116505761Y-171944380D01*
X116124809Y-171944380D01*
X116029571Y-171992000D01*
X115981952Y-172039619D01*
X115934333Y-172134857D01*
X115934333Y-172277714D01*
X115981952Y-172372952D01*
X116029571Y-172420571D01*
X116124809Y-172468190D01*
X116505761Y-172468190D01*
X115505761Y-171944380D02*
X115505761Y-172753904D01*
X115458142Y-172849142D01*
X115410523Y-172896761D01*
X115315285Y-172944380D01*
X115124809Y-172944380D01*
X115029571Y-172896761D01*
X114981952Y-172849142D01*
X114934333Y-172753904D01*
X114934333Y-171944380D01*
X113981952Y-172944380D02*
X114458142Y-172944380D01*
X114458142Y-171944380D01*
X113696238Y-172896761D02*
X113553380Y-172944380D01*
X113315285Y-172944380D01*
X113220047Y-172896761D01*
X113172428Y-172849142D01*
X113124809Y-172753904D01*
X113124809Y-172658666D01*
X113172428Y-172563428D01*
X113220047Y-172515809D01*
X113315285Y-172468190D01*
X113505761Y-172420571D01*
X113601000Y-172372952D01*
X113648619Y-172325333D01*
X113696238Y-172230095D01*
X113696238Y-172134857D01*
X113648619Y-172039619D01*
X113601000Y-171992000D01*
X113505761Y-171944380D01*
X113267666Y-171944380D01*
X113124809Y-171992000D01*
X112696238Y-172420571D02*
X112362904Y-172420571D01*
X112220047Y-172944380D02*
X112696238Y-172944380D01*
X112696238Y-171944380D01*
X112220047Y-171944380D01*
X112029571Y-173039619D02*
X111267666Y-173039619D01*
X110839095Y-171944380D02*
X110648619Y-171944380D01*
X110553380Y-171992000D01*
X110458142Y-172087238D01*
X110410523Y-172277714D01*
X110410523Y-172611047D01*
X110458142Y-172801523D01*
X110553380Y-172896761D01*
X110648619Y-172944380D01*
X110839095Y-172944380D01*
X110934333Y-172896761D01*
X111029571Y-172801523D01*
X111077190Y-172611047D01*
X111077190Y-172277714D01*
X111029571Y-172087238D01*
X110934333Y-171992000D01*
X110839095Y-171944380D01*
X109981952Y-171944380D02*
X109981952Y-172753904D01*
X109934333Y-172849142D01*
X109886714Y-172896761D01*
X109791476Y-172944380D01*
X109601000Y-172944380D01*
X109505761Y-172896761D01*
X109458142Y-172849142D01*
X109410523Y-172753904D01*
X109410523Y-171944380D01*
X109077190Y-171944380D02*
X108505761Y-171944380D01*
X108791476Y-172944380D02*
X108791476Y-171944380D01*
X107696238Y-171944380D02*
X108172428Y-171944380D01*
X108220047Y-172420571D01*
X108172428Y-172372952D01*
X108077190Y-172325333D01*
X107839095Y-172325333D01*
X107743857Y-172372952D01*
X107696238Y-172420571D01*
X107648619Y-172515809D01*
X107648619Y-172753904D01*
X107696238Y-172849142D01*
X107743857Y-172896761D01*
X107839095Y-172944380D01*
X108077190Y-172944380D01*
X108172428Y-172896761D01*
X108220047Y-172849142D01*
%TO.C,J16*%
X89656523Y-173976380D02*
X89656523Y-174690666D01*
X89704142Y-174833523D01*
X89799380Y-174928761D01*
X89942238Y-174976380D01*
X90037476Y-174976380D01*
X88656523Y-174976380D02*
X89227952Y-174976380D01*
X88942238Y-174976380D02*
X88942238Y-173976380D01*
X89037476Y-174119238D01*
X89132714Y-174214476D01*
X89227952Y-174262095D01*
X87799380Y-173976380D02*
X87989857Y-173976380D01*
X88085095Y-174024000D01*
X88132714Y-174071619D01*
X88227952Y-174214476D01*
X88275571Y-174404952D01*
X88275571Y-174785904D01*
X88227952Y-174881142D01*
X88180333Y-174928761D01*
X88085095Y-174976380D01*
X87894619Y-174976380D01*
X87799380Y-174928761D01*
X87751761Y-174881142D01*
X87704142Y-174785904D01*
X87704142Y-174547809D01*
X87751761Y-174452571D01*
X87799380Y-174404952D01*
X87894619Y-174357333D01*
X88085095Y-174357333D01*
X88180333Y-174404952D01*
X88227952Y-174452571D01*
X88275571Y-174547809D01*
X92577190Y-172944380D02*
X92910523Y-172468190D01*
X93148619Y-172944380D02*
X93148619Y-171944380D01*
X92767666Y-171944380D01*
X92672428Y-171992000D01*
X92624809Y-172039619D01*
X92577190Y-172134857D01*
X92577190Y-172277714D01*
X92624809Y-172372952D01*
X92672428Y-172420571D01*
X92767666Y-172468190D01*
X93148619Y-172468190D01*
X92196238Y-172658666D02*
X91720047Y-172658666D01*
X92291476Y-172944380D02*
X91958142Y-171944380D01*
X91624809Y-172944380D01*
X91291476Y-172944380D02*
X91291476Y-171944380D01*
X90958142Y-172658666D01*
X90624809Y-171944380D01*
X90624809Y-172944380D01*
X90148619Y-172944380D02*
X90148619Y-171944380D01*
X89767666Y-171944380D01*
X89672428Y-171992000D01*
X89624809Y-172039619D01*
X89577190Y-172134857D01*
X89577190Y-172277714D01*
X89624809Y-172372952D01*
X89672428Y-172420571D01*
X89767666Y-172468190D01*
X90148619Y-172468190D01*
X89386714Y-173039619D02*
X88624809Y-173039619D01*
X88196238Y-171944380D02*
X88005761Y-171944380D01*
X87910523Y-171992000D01*
X87815285Y-172087238D01*
X87767666Y-172277714D01*
X87767666Y-172611047D01*
X87815285Y-172801523D01*
X87910523Y-172896761D01*
X88005761Y-172944380D01*
X88196238Y-172944380D01*
X88291476Y-172896761D01*
X88386714Y-172801523D01*
X88434333Y-172611047D01*
X88434333Y-172277714D01*
X88386714Y-172087238D01*
X88291476Y-171992000D01*
X88196238Y-171944380D01*
X87339095Y-171944380D02*
X87339095Y-172753904D01*
X87291476Y-172849142D01*
X87243857Y-172896761D01*
X87148619Y-172944380D01*
X86958142Y-172944380D01*
X86862904Y-172896761D01*
X86815285Y-172849142D01*
X86767666Y-172753904D01*
X86767666Y-171944380D01*
X86434333Y-171944380D02*
X85862904Y-171944380D01*
X86148619Y-172944380D02*
X86148619Y-171944380D01*
X85053380Y-171944380D02*
X85529571Y-171944380D01*
X85577190Y-172420571D01*
X85529571Y-172372952D01*
X85434333Y-172325333D01*
X85196238Y-172325333D01*
X85101000Y-172372952D01*
X85053380Y-172420571D01*
X85005761Y-172515809D01*
X85005761Y-172753904D01*
X85053380Y-172849142D01*
X85101000Y-172896761D01*
X85196238Y-172944380D01*
X85434333Y-172944380D01*
X85529571Y-172896761D01*
X85577190Y-172849142D01*
%TO.C,J15*%
X62179523Y-154074380D02*
X62179523Y-154788666D01*
X62227142Y-154931523D01*
X62322380Y-155026761D01*
X62465238Y-155074380D01*
X62560476Y-155074380D01*
X61179523Y-155074380D02*
X61750952Y-155074380D01*
X61465238Y-155074380D02*
X61465238Y-154074380D01*
X61560476Y-154217238D01*
X61655714Y-154312476D01*
X61750952Y-154360095D01*
X60274761Y-154074380D02*
X60750952Y-154074380D01*
X60798571Y-154550571D01*
X60750952Y-154502952D01*
X60655714Y-154455333D01*
X60417619Y-154455333D01*
X60322380Y-154502952D01*
X60274761Y-154550571D01*
X60227142Y-154645809D01*
X60227142Y-154883904D01*
X60274761Y-154979142D01*
X60322380Y-155026761D01*
X60417619Y-155074380D01*
X60655714Y-155074380D01*
X60750952Y-155026761D01*
X60798571Y-154979142D01*
X70186714Y-148591000D02*
X70281952Y-148543380D01*
X70424809Y-148543380D01*
X70567666Y-148591000D01*
X70662904Y-148686238D01*
X70710523Y-148781476D01*
X70758142Y-148971952D01*
X70758142Y-149114809D01*
X70710523Y-149305285D01*
X70662904Y-149400523D01*
X70567666Y-149495761D01*
X70424809Y-149543380D01*
X70329571Y-149543380D01*
X70186714Y-149495761D01*
X70139095Y-149448142D01*
X70139095Y-149114809D01*
X70329571Y-149114809D01*
X69758142Y-149257666D02*
X69281952Y-149257666D01*
X69853380Y-149543380D02*
X69520047Y-148543380D01*
X69186714Y-149543380D01*
X68996238Y-148543380D02*
X68424809Y-148543380D01*
X68710523Y-149543380D02*
X68710523Y-148543380D01*
X68091476Y-149019571D02*
X67758142Y-149019571D01*
X67615285Y-149543380D02*
X68091476Y-149543380D01*
X68091476Y-148543380D01*
X67615285Y-148543380D01*
X67424809Y-149638619D02*
X66662904Y-149638619D01*
X66234333Y-148543380D02*
X66043857Y-148543380D01*
X65948619Y-148591000D01*
X65853380Y-148686238D01*
X65805761Y-148876714D01*
X65805761Y-149210047D01*
X65853380Y-149400523D01*
X65948619Y-149495761D01*
X66043857Y-149543380D01*
X66234333Y-149543380D01*
X66329571Y-149495761D01*
X66424809Y-149400523D01*
X66472428Y-149210047D01*
X66472428Y-148876714D01*
X66424809Y-148686238D01*
X66329571Y-148591000D01*
X66234333Y-148543380D01*
X65377190Y-148543380D02*
X65377190Y-149352904D01*
X65329571Y-149448142D01*
X65281952Y-149495761D01*
X65186714Y-149543380D01*
X64996238Y-149543380D01*
X64901000Y-149495761D01*
X64853380Y-149448142D01*
X64805761Y-149352904D01*
X64805761Y-148543380D01*
X64472428Y-148543380D02*
X63901000Y-148543380D01*
X64186714Y-149543380D02*
X64186714Y-148543380D01*
X63139095Y-148876714D02*
X63139095Y-149543380D01*
X63377190Y-148495761D02*
X63615285Y-149210047D01*
X62996238Y-149210047D01*
%TO.C,J14*%
X112656523Y-150976380D02*
X112656523Y-151690666D01*
X112704142Y-151833523D01*
X112799380Y-151928761D01*
X112942238Y-151976380D01*
X113037476Y-151976380D01*
X111656523Y-151976380D02*
X112227952Y-151976380D01*
X111942238Y-151976380D02*
X111942238Y-150976380D01*
X112037476Y-151119238D01*
X112132714Y-151214476D01*
X112227952Y-151262095D01*
X110799380Y-151309714D02*
X110799380Y-151976380D01*
X111037476Y-150928761D02*
X111275571Y-151643047D01*
X110656523Y-151643047D01*
X116505761Y-149944380D02*
X116505761Y-148944380D01*
X116124809Y-148944380D01*
X116029571Y-148992000D01*
X115981952Y-149039619D01*
X115934333Y-149134857D01*
X115934333Y-149277714D01*
X115981952Y-149372952D01*
X116029571Y-149420571D01*
X116124809Y-149468190D01*
X116505761Y-149468190D01*
X115505761Y-148944380D02*
X115505761Y-149753904D01*
X115458142Y-149849142D01*
X115410523Y-149896761D01*
X115315285Y-149944380D01*
X115124809Y-149944380D01*
X115029571Y-149896761D01*
X114981952Y-149849142D01*
X114934333Y-149753904D01*
X114934333Y-148944380D01*
X113981952Y-149944380D02*
X114458142Y-149944380D01*
X114458142Y-148944380D01*
X113696238Y-149896761D02*
X113553380Y-149944380D01*
X113315285Y-149944380D01*
X113220047Y-149896761D01*
X113172428Y-149849142D01*
X113124809Y-149753904D01*
X113124809Y-149658666D01*
X113172428Y-149563428D01*
X113220047Y-149515809D01*
X113315285Y-149468190D01*
X113505761Y-149420571D01*
X113601000Y-149372952D01*
X113648619Y-149325333D01*
X113696238Y-149230095D01*
X113696238Y-149134857D01*
X113648619Y-149039619D01*
X113601000Y-148992000D01*
X113505761Y-148944380D01*
X113267666Y-148944380D01*
X113124809Y-148992000D01*
X112696238Y-149420571D02*
X112362904Y-149420571D01*
X112220047Y-149944380D02*
X112696238Y-149944380D01*
X112696238Y-148944380D01*
X112220047Y-148944380D01*
X112029571Y-150039619D02*
X111267666Y-150039619D01*
X110839095Y-148944380D02*
X110648619Y-148944380D01*
X110553380Y-148992000D01*
X110458142Y-149087238D01*
X110410523Y-149277714D01*
X110410523Y-149611047D01*
X110458142Y-149801523D01*
X110553380Y-149896761D01*
X110648619Y-149944380D01*
X110839095Y-149944380D01*
X110934333Y-149896761D01*
X111029571Y-149801523D01*
X111077190Y-149611047D01*
X111077190Y-149277714D01*
X111029571Y-149087238D01*
X110934333Y-148992000D01*
X110839095Y-148944380D01*
X109981952Y-148944380D02*
X109981952Y-149753904D01*
X109934333Y-149849142D01*
X109886714Y-149896761D01*
X109791476Y-149944380D01*
X109601000Y-149944380D01*
X109505761Y-149896761D01*
X109458142Y-149849142D01*
X109410523Y-149753904D01*
X109410523Y-148944380D01*
X109077190Y-148944380D02*
X108505761Y-148944380D01*
X108791476Y-149944380D02*
X108791476Y-148944380D01*
X107743857Y-149277714D02*
X107743857Y-149944380D01*
X107981952Y-148896761D02*
X108220047Y-149611047D01*
X107601000Y-149611047D01*
%TO.C,J13*%
X89656523Y-150976380D02*
X89656523Y-151690666D01*
X89704142Y-151833523D01*
X89799380Y-151928761D01*
X89942238Y-151976380D01*
X90037476Y-151976380D01*
X88656523Y-151976380D02*
X89227952Y-151976380D01*
X88942238Y-151976380D02*
X88942238Y-150976380D01*
X89037476Y-151119238D01*
X89132714Y-151214476D01*
X89227952Y-151262095D01*
X88323190Y-150976380D02*
X87704142Y-150976380D01*
X88037476Y-151357333D01*
X87894619Y-151357333D01*
X87799380Y-151404952D01*
X87751761Y-151452571D01*
X87704142Y-151547809D01*
X87704142Y-151785904D01*
X87751761Y-151881142D01*
X87799380Y-151928761D01*
X87894619Y-151976380D01*
X88180333Y-151976380D01*
X88275571Y-151928761D01*
X88323190Y-151881142D01*
X92577190Y-149944380D02*
X92910523Y-149468190D01*
X93148619Y-149944380D02*
X93148619Y-148944380D01*
X92767666Y-148944380D01*
X92672428Y-148992000D01*
X92624809Y-149039619D01*
X92577190Y-149134857D01*
X92577190Y-149277714D01*
X92624809Y-149372952D01*
X92672428Y-149420571D01*
X92767666Y-149468190D01*
X93148619Y-149468190D01*
X92196238Y-149658666D02*
X91720047Y-149658666D01*
X92291476Y-149944380D02*
X91958142Y-148944380D01*
X91624809Y-149944380D01*
X91291476Y-149944380D02*
X91291476Y-148944380D01*
X90958142Y-149658666D01*
X90624809Y-148944380D01*
X90624809Y-149944380D01*
X90148619Y-149944380D02*
X90148619Y-148944380D01*
X89767666Y-148944380D01*
X89672428Y-148992000D01*
X89624809Y-149039619D01*
X89577190Y-149134857D01*
X89577190Y-149277714D01*
X89624809Y-149372952D01*
X89672428Y-149420571D01*
X89767666Y-149468190D01*
X90148619Y-149468190D01*
X89386714Y-150039619D02*
X88624809Y-150039619D01*
X88196238Y-148944380D02*
X88005761Y-148944380D01*
X87910523Y-148992000D01*
X87815285Y-149087238D01*
X87767666Y-149277714D01*
X87767666Y-149611047D01*
X87815285Y-149801523D01*
X87910523Y-149896761D01*
X88005761Y-149944380D01*
X88196238Y-149944380D01*
X88291476Y-149896761D01*
X88386714Y-149801523D01*
X88434333Y-149611047D01*
X88434333Y-149277714D01*
X88386714Y-149087238D01*
X88291476Y-148992000D01*
X88196238Y-148944380D01*
X87339095Y-148944380D02*
X87339095Y-149753904D01*
X87291476Y-149849142D01*
X87243857Y-149896761D01*
X87148619Y-149944380D01*
X86958142Y-149944380D01*
X86862904Y-149896761D01*
X86815285Y-149849142D01*
X86767666Y-149753904D01*
X86767666Y-148944380D01*
X86434333Y-148944380D02*
X85862904Y-148944380D01*
X86148619Y-149944380D02*
X86148619Y-148944380D01*
X85101000Y-149277714D02*
X85101000Y-149944380D01*
X85339095Y-148896761D02*
X85577190Y-149611047D01*
X84958142Y-149611047D01*
%TO.C,J12*%
X66656523Y-127976380D02*
X66656523Y-128690666D01*
X66704142Y-128833523D01*
X66799380Y-128928761D01*
X66942238Y-128976380D01*
X67037476Y-128976380D01*
X65656523Y-128976380D02*
X66227952Y-128976380D01*
X65942238Y-128976380D02*
X65942238Y-127976380D01*
X66037476Y-128119238D01*
X66132714Y-128214476D01*
X66227952Y-128262095D01*
X65275571Y-128071619D02*
X65227952Y-128024000D01*
X65132714Y-127976380D01*
X64894619Y-127976380D01*
X64799380Y-128024000D01*
X64751761Y-128071619D01*
X64704142Y-128166857D01*
X64704142Y-128262095D01*
X64751761Y-128404952D01*
X65323190Y-128976380D01*
X64704142Y-128976380D01*
X69811715Y-127643999D02*
X69906953Y-127596379D01*
X70049810Y-127596379D01*
X70192667Y-127643999D01*
X70287905Y-127739237D01*
X70335524Y-127834475D01*
X70383143Y-128024951D01*
X70383143Y-128167808D01*
X70335524Y-128358284D01*
X70287905Y-128453522D01*
X70192667Y-128548760D01*
X70049810Y-128596379D01*
X69954572Y-128596379D01*
X69811715Y-128548760D01*
X69764096Y-128501141D01*
X69764096Y-128167808D01*
X69954572Y-128167808D01*
X69383143Y-128310665D02*
X68906953Y-128310665D01*
X69478381Y-128596379D02*
X69145048Y-127596379D01*
X68811715Y-128596379D01*
X68621239Y-127596379D02*
X68049810Y-127596379D01*
X68335524Y-128596379D02*
X68335524Y-127596379D01*
X67716477Y-128072570D02*
X67383143Y-128072570D01*
X67240286Y-128596379D02*
X67716477Y-128596379D01*
X67716477Y-127596379D01*
X67240286Y-127596379D01*
X67049810Y-128691618D02*
X66287905Y-128691618D01*
X65859334Y-127596379D02*
X65668858Y-127596379D01*
X65573620Y-127643999D01*
X65478381Y-127739237D01*
X65430762Y-127929713D01*
X65430762Y-128263046D01*
X65478381Y-128453522D01*
X65573620Y-128548760D01*
X65668858Y-128596379D01*
X65859334Y-128596379D01*
X65954572Y-128548760D01*
X66049810Y-128453522D01*
X66097429Y-128263046D01*
X66097429Y-127929713D01*
X66049810Y-127739237D01*
X65954572Y-127643999D01*
X65859334Y-127596379D01*
X65002191Y-127596379D02*
X65002191Y-128405903D01*
X64954572Y-128501141D01*
X64906953Y-128548760D01*
X64811715Y-128596379D01*
X64621239Y-128596379D01*
X64526001Y-128548760D01*
X64478381Y-128501141D01*
X64430762Y-128405903D01*
X64430762Y-127596379D01*
X64097429Y-127596379D02*
X63526001Y-127596379D01*
X63811715Y-128596379D02*
X63811715Y-127596379D01*
X63287905Y-127596379D02*
X62668858Y-127596379D01*
X63002191Y-127977332D01*
X62859334Y-127977332D01*
X62764096Y-128024951D01*
X62716477Y-128072570D01*
X62668858Y-128167808D01*
X62668858Y-128405903D01*
X62716477Y-128501141D01*
X62764096Y-128548760D01*
X62859334Y-128596379D01*
X63145048Y-128596379D01*
X63240286Y-128548760D01*
X63287905Y-128501141D01*
%TO.C,J11*%
X112656523Y-127976380D02*
X112656523Y-128690666D01*
X112704142Y-128833523D01*
X112799380Y-128928761D01*
X112942238Y-128976380D01*
X113037476Y-128976380D01*
X111656523Y-128976380D02*
X112227952Y-128976380D01*
X111942238Y-128976380D02*
X111942238Y-127976380D01*
X112037476Y-128119238D01*
X112132714Y-128214476D01*
X112227952Y-128262095D01*
X110704142Y-128976380D02*
X111275571Y-128976380D01*
X110989857Y-128976380D02*
X110989857Y-127976380D01*
X111085095Y-128119238D01*
X111180333Y-128214476D01*
X111275571Y-128262095D01*
X116505761Y-126944380D02*
X116505761Y-125944380D01*
X116124809Y-125944380D01*
X116029571Y-125992000D01*
X115981952Y-126039619D01*
X115934333Y-126134857D01*
X115934333Y-126277714D01*
X115981952Y-126372952D01*
X116029571Y-126420571D01*
X116124809Y-126468190D01*
X116505761Y-126468190D01*
X115505761Y-125944380D02*
X115505761Y-126753904D01*
X115458142Y-126849142D01*
X115410523Y-126896761D01*
X115315285Y-126944380D01*
X115124809Y-126944380D01*
X115029571Y-126896761D01*
X114981952Y-126849142D01*
X114934333Y-126753904D01*
X114934333Y-125944380D01*
X113981952Y-126944380D02*
X114458142Y-126944380D01*
X114458142Y-125944380D01*
X113696238Y-126896761D02*
X113553380Y-126944380D01*
X113315285Y-126944380D01*
X113220047Y-126896761D01*
X113172428Y-126849142D01*
X113124809Y-126753904D01*
X113124809Y-126658666D01*
X113172428Y-126563428D01*
X113220047Y-126515809D01*
X113315285Y-126468190D01*
X113505761Y-126420571D01*
X113601000Y-126372952D01*
X113648619Y-126325333D01*
X113696238Y-126230095D01*
X113696238Y-126134857D01*
X113648619Y-126039619D01*
X113601000Y-125992000D01*
X113505761Y-125944380D01*
X113267666Y-125944380D01*
X113124809Y-125992000D01*
X112696238Y-126420571D02*
X112362904Y-126420571D01*
X112220047Y-126944380D02*
X112696238Y-126944380D01*
X112696238Y-125944380D01*
X112220047Y-125944380D01*
X112029571Y-127039619D02*
X111267666Y-127039619D01*
X110839095Y-125944380D02*
X110648619Y-125944380D01*
X110553380Y-125992000D01*
X110458142Y-126087238D01*
X110410523Y-126277714D01*
X110410523Y-126611047D01*
X110458142Y-126801523D01*
X110553380Y-126896761D01*
X110648619Y-126944380D01*
X110839095Y-126944380D01*
X110934333Y-126896761D01*
X111029571Y-126801523D01*
X111077190Y-126611047D01*
X111077190Y-126277714D01*
X111029571Y-126087238D01*
X110934333Y-125992000D01*
X110839095Y-125944380D01*
X109981952Y-125944380D02*
X109981952Y-126753904D01*
X109934333Y-126849142D01*
X109886714Y-126896761D01*
X109791476Y-126944380D01*
X109601000Y-126944380D01*
X109505761Y-126896761D01*
X109458142Y-126849142D01*
X109410523Y-126753904D01*
X109410523Y-125944380D01*
X109077190Y-125944380D02*
X108505761Y-125944380D01*
X108791476Y-126944380D02*
X108791476Y-125944380D01*
X108267666Y-125944380D02*
X107648619Y-125944380D01*
X107981952Y-126325333D01*
X107839095Y-126325333D01*
X107743857Y-126372952D01*
X107696238Y-126420571D01*
X107648619Y-126515809D01*
X107648619Y-126753904D01*
X107696238Y-126849142D01*
X107743857Y-126896761D01*
X107839095Y-126944380D01*
X108124809Y-126944380D01*
X108220047Y-126896761D01*
X108267666Y-126849142D01*
%TO.C,J10*%
X89656523Y-127976380D02*
X89656523Y-128690666D01*
X89704142Y-128833523D01*
X89799380Y-128928761D01*
X89942238Y-128976380D01*
X90037476Y-128976380D01*
X88656523Y-128976380D02*
X89227952Y-128976380D01*
X88942238Y-128976380D02*
X88942238Y-127976380D01*
X89037476Y-128119238D01*
X89132714Y-128214476D01*
X89227952Y-128262095D01*
X88037476Y-127976380D02*
X87942238Y-127976380D01*
X87847000Y-128024000D01*
X87799380Y-128071619D01*
X87751761Y-128166857D01*
X87704142Y-128357333D01*
X87704142Y-128595428D01*
X87751761Y-128785904D01*
X87799380Y-128881142D01*
X87847000Y-128928761D01*
X87942238Y-128976380D01*
X88037476Y-128976380D01*
X88132714Y-128928761D01*
X88180333Y-128881142D01*
X88227952Y-128785904D01*
X88275571Y-128595428D01*
X88275571Y-128357333D01*
X88227952Y-128166857D01*
X88180333Y-128071619D01*
X88132714Y-128024000D01*
X88037476Y-127976380D01*
X92577190Y-126944380D02*
X92910523Y-126468190D01*
X93148619Y-126944380D02*
X93148619Y-125944380D01*
X92767666Y-125944380D01*
X92672428Y-125992000D01*
X92624809Y-126039619D01*
X92577190Y-126134857D01*
X92577190Y-126277714D01*
X92624809Y-126372952D01*
X92672428Y-126420571D01*
X92767666Y-126468190D01*
X93148619Y-126468190D01*
X92196238Y-126658666D02*
X91720047Y-126658666D01*
X92291476Y-126944380D02*
X91958142Y-125944380D01*
X91624809Y-126944380D01*
X91291476Y-126944380D02*
X91291476Y-125944380D01*
X90958142Y-126658666D01*
X90624809Y-125944380D01*
X90624809Y-126944380D01*
X90148619Y-126944380D02*
X90148619Y-125944380D01*
X89767666Y-125944380D01*
X89672428Y-125992000D01*
X89624809Y-126039619D01*
X89577190Y-126134857D01*
X89577190Y-126277714D01*
X89624809Y-126372952D01*
X89672428Y-126420571D01*
X89767666Y-126468190D01*
X90148619Y-126468190D01*
X89386714Y-127039619D02*
X88624809Y-127039619D01*
X88196238Y-125944380D02*
X88005761Y-125944380D01*
X87910523Y-125992000D01*
X87815285Y-126087238D01*
X87767666Y-126277714D01*
X87767666Y-126611047D01*
X87815285Y-126801523D01*
X87910523Y-126896761D01*
X88005761Y-126944380D01*
X88196238Y-126944380D01*
X88291476Y-126896761D01*
X88386714Y-126801523D01*
X88434333Y-126611047D01*
X88434333Y-126277714D01*
X88386714Y-126087238D01*
X88291476Y-125992000D01*
X88196238Y-125944380D01*
X87339095Y-125944380D02*
X87339095Y-126753904D01*
X87291476Y-126849142D01*
X87243857Y-126896761D01*
X87148619Y-126944380D01*
X86958142Y-126944380D01*
X86862904Y-126896761D01*
X86815285Y-126849142D01*
X86767666Y-126753904D01*
X86767666Y-125944380D01*
X86434333Y-125944380D02*
X85862904Y-125944380D01*
X86148619Y-126944380D02*
X86148619Y-125944380D01*
X85624809Y-125944380D02*
X85005761Y-125944380D01*
X85339095Y-126325333D01*
X85196238Y-126325333D01*
X85101000Y-126372952D01*
X85053380Y-126420571D01*
X85005761Y-126515809D01*
X85005761Y-126753904D01*
X85053380Y-126849142D01*
X85101000Y-126896761D01*
X85196238Y-126944380D01*
X85481952Y-126944380D01*
X85577190Y-126896761D01*
X85624809Y-126849142D01*
%TO.C,J9*%
X66180333Y-104976380D02*
X66180333Y-105690666D01*
X66227952Y-105833523D01*
X66323190Y-105928761D01*
X66466047Y-105976380D01*
X66561285Y-105976380D01*
X65656523Y-105976380D02*
X65466047Y-105976380D01*
X65370809Y-105928761D01*
X65323190Y-105881142D01*
X65227952Y-105738285D01*
X65180333Y-105547809D01*
X65180333Y-105166857D01*
X65227952Y-105071619D01*
X65275571Y-105024000D01*
X65370809Y-104976380D01*
X65561285Y-104976380D01*
X65656523Y-105024000D01*
X65704142Y-105071619D01*
X65751761Y-105166857D01*
X65751761Y-105404952D01*
X65704142Y-105500190D01*
X65656523Y-105547809D01*
X65561285Y-105595428D01*
X65370809Y-105595428D01*
X65275571Y-105547809D01*
X65227952Y-105500190D01*
X65180333Y-105404952D01*
X69466715Y-104319999D02*
X69561953Y-104272379D01*
X69704810Y-104272379D01*
X69847667Y-104319999D01*
X69942905Y-104415237D01*
X69990524Y-104510475D01*
X70038143Y-104700951D01*
X70038143Y-104843808D01*
X69990524Y-105034284D01*
X69942905Y-105129522D01*
X69847667Y-105224760D01*
X69704810Y-105272379D01*
X69609572Y-105272379D01*
X69466715Y-105224760D01*
X69419096Y-105177141D01*
X69419096Y-104843808D01*
X69609572Y-104843808D01*
X69038143Y-104986665D02*
X68561953Y-104986665D01*
X69133381Y-105272379D02*
X68800048Y-104272379D01*
X68466715Y-105272379D01*
X68276239Y-104272379D02*
X67704810Y-104272379D01*
X67990524Y-105272379D02*
X67990524Y-104272379D01*
X67371477Y-104748570D02*
X67038143Y-104748570D01*
X66895286Y-105272379D02*
X67371477Y-105272379D01*
X67371477Y-104272379D01*
X66895286Y-104272379D01*
X66704810Y-105367618D02*
X65942905Y-105367618D01*
X65514334Y-104272379D02*
X65323858Y-104272379D01*
X65228620Y-104319999D01*
X65133381Y-104415237D01*
X65085762Y-104605713D01*
X65085762Y-104939046D01*
X65133381Y-105129522D01*
X65228620Y-105224760D01*
X65323858Y-105272379D01*
X65514334Y-105272379D01*
X65609572Y-105224760D01*
X65704810Y-105129522D01*
X65752429Y-104939046D01*
X65752429Y-104605713D01*
X65704810Y-104415237D01*
X65609572Y-104319999D01*
X65514334Y-104272379D01*
X64657191Y-104272379D02*
X64657191Y-105081903D01*
X64609572Y-105177141D01*
X64561953Y-105224760D01*
X64466715Y-105272379D01*
X64276239Y-105272379D01*
X64181001Y-105224760D01*
X64133381Y-105177141D01*
X64085762Y-105081903D01*
X64085762Y-104272379D01*
X63752429Y-104272379D02*
X63181001Y-104272379D01*
X63466715Y-105272379D02*
X63466715Y-104272379D01*
X62895286Y-104367618D02*
X62847667Y-104319999D01*
X62752429Y-104272379D01*
X62514334Y-104272379D01*
X62419096Y-104319999D01*
X62371477Y-104367618D01*
X62323858Y-104462856D01*
X62323858Y-104558094D01*
X62371477Y-104700951D01*
X62942905Y-105272379D01*
X62323858Y-105272379D01*
%TO.C,J8*%
X112180333Y-104976380D02*
X112180333Y-105690666D01*
X112227952Y-105833523D01*
X112323190Y-105928761D01*
X112466047Y-105976380D01*
X112561285Y-105976380D01*
X111561285Y-105404952D02*
X111656523Y-105357333D01*
X111704142Y-105309714D01*
X111751761Y-105214476D01*
X111751761Y-105166857D01*
X111704142Y-105071619D01*
X111656523Y-105024000D01*
X111561285Y-104976380D01*
X111370809Y-104976380D01*
X111275571Y-105024000D01*
X111227952Y-105071619D01*
X111180333Y-105166857D01*
X111180333Y-105214476D01*
X111227952Y-105309714D01*
X111275571Y-105357333D01*
X111370809Y-105404952D01*
X111561285Y-105404952D01*
X111656523Y-105452571D01*
X111704142Y-105500190D01*
X111751761Y-105595428D01*
X111751761Y-105785904D01*
X111704142Y-105881142D01*
X111656523Y-105928761D01*
X111561285Y-105976380D01*
X111370809Y-105976380D01*
X111275571Y-105928761D01*
X111227952Y-105881142D01*
X111180333Y-105785904D01*
X111180333Y-105595428D01*
X111227952Y-105500190D01*
X111275571Y-105452571D01*
X111370809Y-105404952D01*
X116505761Y-103944380D02*
X116505761Y-102944380D01*
X116124809Y-102944380D01*
X116029571Y-102992000D01*
X115981952Y-103039619D01*
X115934333Y-103134857D01*
X115934333Y-103277714D01*
X115981952Y-103372952D01*
X116029571Y-103420571D01*
X116124809Y-103468190D01*
X116505761Y-103468190D01*
X115505761Y-102944380D02*
X115505761Y-103753904D01*
X115458142Y-103849142D01*
X115410523Y-103896761D01*
X115315285Y-103944380D01*
X115124809Y-103944380D01*
X115029571Y-103896761D01*
X114981952Y-103849142D01*
X114934333Y-103753904D01*
X114934333Y-102944380D01*
X113981952Y-103944380D02*
X114458142Y-103944380D01*
X114458142Y-102944380D01*
X113696238Y-103896761D02*
X113553380Y-103944380D01*
X113315285Y-103944380D01*
X113220047Y-103896761D01*
X113172428Y-103849142D01*
X113124809Y-103753904D01*
X113124809Y-103658666D01*
X113172428Y-103563428D01*
X113220047Y-103515809D01*
X113315285Y-103468190D01*
X113505761Y-103420571D01*
X113601000Y-103372952D01*
X113648619Y-103325333D01*
X113696238Y-103230095D01*
X113696238Y-103134857D01*
X113648619Y-103039619D01*
X113601000Y-102992000D01*
X113505761Y-102944380D01*
X113267666Y-102944380D01*
X113124809Y-102992000D01*
X112696238Y-103420571D02*
X112362904Y-103420571D01*
X112220047Y-103944380D02*
X112696238Y-103944380D01*
X112696238Y-102944380D01*
X112220047Y-102944380D01*
X112029571Y-104039619D02*
X111267666Y-104039619D01*
X110839095Y-102944380D02*
X110648619Y-102944380D01*
X110553380Y-102992000D01*
X110458142Y-103087238D01*
X110410523Y-103277714D01*
X110410523Y-103611047D01*
X110458142Y-103801523D01*
X110553380Y-103896761D01*
X110648619Y-103944380D01*
X110839095Y-103944380D01*
X110934333Y-103896761D01*
X111029571Y-103801523D01*
X111077190Y-103611047D01*
X111077190Y-103277714D01*
X111029571Y-103087238D01*
X110934333Y-102992000D01*
X110839095Y-102944380D01*
X109981952Y-102944380D02*
X109981952Y-103753904D01*
X109934333Y-103849142D01*
X109886714Y-103896761D01*
X109791476Y-103944380D01*
X109601000Y-103944380D01*
X109505761Y-103896761D01*
X109458142Y-103849142D01*
X109410523Y-103753904D01*
X109410523Y-102944380D01*
X109077190Y-102944380D02*
X108505761Y-102944380D01*
X108791476Y-103944380D02*
X108791476Y-102944380D01*
X108220047Y-103039619D02*
X108172428Y-102992000D01*
X108077190Y-102944380D01*
X107839095Y-102944380D01*
X107743857Y-102992000D01*
X107696238Y-103039619D01*
X107648619Y-103134857D01*
X107648619Y-103230095D01*
X107696238Y-103372952D01*
X108267666Y-103944380D01*
X107648619Y-103944380D01*
%TO.C,J7*%
X89180333Y-104976380D02*
X89180333Y-105690666D01*
X89227952Y-105833523D01*
X89323190Y-105928761D01*
X89466047Y-105976380D01*
X89561285Y-105976380D01*
X88799380Y-104976380D02*
X88132714Y-104976380D01*
X88561285Y-105976380D01*
X92577190Y-103944380D02*
X92910523Y-103468190D01*
X93148619Y-103944380D02*
X93148619Y-102944380D01*
X92767666Y-102944380D01*
X92672428Y-102992000D01*
X92624809Y-103039619D01*
X92577190Y-103134857D01*
X92577190Y-103277714D01*
X92624809Y-103372952D01*
X92672428Y-103420571D01*
X92767666Y-103468190D01*
X93148619Y-103468190D01*
X92196238Y-103658666D02*
X91720047Y-103658666D01*
X92291476Y-103944380D02*
X91958142Y-102944380D01*
X91624809Y-103944380D01*
X91291476Y-103944380D02*
X91291476Y-102944380D01*
X90958142Y-103658666D01*
X90624809Y-102944380D01*
X90624809Y-103944380D01*
X90148619Y-103944380D02*
X90148619Y-102944380D01*
X89767666Y-102944380D01*
X89672428Y-102992000D01*
X89624809Y-103039619D01*
X89577190Y-103134857D01*
X89577190Y-103277714D01*
X89624809Y-103372952D01*
X89672428Y-103420571D01*
X89767666Y-103468190D01*
X90148619Y-103468190D01*
X89386714Y-104039619D02*
X88624809Y-104039619D01*
X88196238Y-102944380D02*
X88005761Y-102944380D01*
X87910523Y-102992000D01*
X87815285Y-103087238D01*
X87767666Y-103277714D01*
X87767666Y-103611047D01*
X87815285Y-103801523D01*
X87910523Y-103896761D01*
X88005761Y-103944380D01*
X88196238Y-103944380D01*
X88291476Y-103896761D01*
X88386714Y-103801523D01*
X88434333Y-103611047D01*
X88434333Y-103277714D01*
X88386714Y-103087238D01*
X88291476Y-102992000D01*
X88196238Y-102944380D01*
X87339095Y-102944380D02*
X87339095Y-103753904D01*
X87291476Y-103849142D01*
X87243857Y-103896761D01*
X87148619Y-103944380D01*
X86958142Y-103944380D01*
X86862904Y-103896761D01*
X86815285Y-103849142D01*
X86767666Y-103753904D01*
X86767666Y-102944380D01*
X86434333Y-102944380D02*
X85862904Y-102944380D01*
X86148619Y-103944380D02*
X86148619Y-102944380D01*
X85577190Y-103039619D02*
X85529571Y-102992000D01*
X85434333Y-102944380D01*
X85196238Y-102944380D01*
X85101000Y-102992000D01*
X85053380Y-103039619D01*
X85005761Y-103134857D01*
X85005761Y-103230095D01*
X85053380Y-103372952D01*
X85624809Y-103944380D01*
X85005761Y-103944380D01*
%TO.C,J6*%
X66180333Y-81976380D02*
X66180333Y-82690666D01*
X66227952Y-82833523D01*
X66323190Y-82928761D01*
X66466047Y-82976380D01*
X66561285Y-82976380D01*
X65275571Y-81976380D02*
X65466047Y-81976380D01*
X65561285Y-82024000D01*
X65608904Y-82071619D01*
X65704142Y-82214476D01*
X65751761Y-82404952D01*
X65751761Y-82785904D01*
X65704142Y-82881142D01*
X65656523Y-82928761D01*
X65561285Y-82976380D01*
X65370809Y-82976380D01*
X65275571Y-82928761D01*
X65227952Y-82881142D01*
X65180333Y-82785904D01*
X65180333Y-82547809D01*
X65227952Y-82452571D01*
X65275571Y-82404952D01*
X65370809Y-82357333D01*
X65561285Y-82357333D01*
X65656523Y-82404952D01*
X65704142Y-82452571D01*
X65751761Y-82547809D01*
X69386714Y-79992000D02*
X69481952Y-79944380D01*
X69624809Y-79944380D01*
X69767666Y-79992000D01*
X69862904Y-80087238D01*
X69910523Y-80182476D01*
X69958142Y-80372952D01*
X69958142Y-80515809D01*
X69910523Y-80706285D01*
X69862904Y-80801523D01*
X69767666Y-80896761D01*
X69624809Y-80944380D01*
X69529571Y-80944380D01*
X69386714Y-80896761D01*
X69339095Y-80849142D01*
X69339095Y-80515809D01*
X69529571Y-80515809D01*
X68958142Y-80658666D02*
X68481952Y-80658666D01*
X69053380Y-80944380D02*
X68720047Y-79944380D01*
X68386714Y-80944380D01*
X68196238Y-79944380D02*
X67624809Y-79944380D01*
X67910523Y-80944380D02*
X67910523Y-79944380D01*
X67291476Y-80420571D02*
X66958142Y-80420571D01*
X66815285Y-80944380D02*
X67291476Y-80944380D01*
X67291476Y-79944380D01*
X66815285Y-79944380D01*
X66624809Y-81039619D02*
X65862904Y-81039619D01*
X65434333Y-79944380D02*
X65243857Y-79944380D01*
X65148619Y-79992000D01*
X65053380Y-80087238D01*
X65005761Y-80277714D01*
X65005761Y-80611047D01*
X65053380Y-80801523D01*
X65148619Y-80896761D01*
X65243857Y-80944380D01*
X65434333Y-80944380D01*
X65529571Y-80896761D01*
X65624809Y-80801523D01*
X65672428Y-80611047D01*
X65672428Y-80277714D01*
X65624809Y-80087238D01*
X65529571Y-79992000D01*
X65434333Y-79944380D01*
X64577190Y-79944380D02*
X64577190Y-80753904D01*
X64529571Y-80849142D01*
X64481952Y-80896761D01*
X64386714Y-80944380D01*
X64196238Y-80944380D01*
X64101000Y-80896761D01*
X64053380Y-80849142D01*
X64005761Y-80753904D01*
X64005761Y-79944380D01*
X63672428Y-79944380D02*
X63101000Y-79944380D01*
X63386714Y-80944380D02*
X63386714Y-79944380D01*
X62243857Y-80944380D02*
X62815285Y-80944380D01*
X62529571Y-80944380D02*
X62529571Y-79944380D01*
X62624809Y-80087238D01*
X62720047Y-80182476D01*
X62815285Y-80230095D01*
%TO.C,J5*%
X112180333Y-81976380D02*
X112180333Y-82690666D01*
X112227952Y-82833523D01*
X112323190Y-82928761D01*
X112466047Y-82976380D01*
X112561285Y-82976380D01*
X111227952Y-81976380D02*
X111704142Y-81976380D01*
X111751761Y-82452571D01*
X111704142Y-82404952D01*
X111608904Y-82357333D01*
X111370809Y-82357333D01*
X111275571Y-82404952D01*
X111227952Y-82452571D01*
X111180333Y-82547809D01*
X111180333Y-82785904D01*
X111227952Y-82881142D01*
X111275571Y-82928761D01*
X111370809Y-82976380D01*
X111608904Y-82976380D01*
X111704142Y-82928761D01*
X111751761Y-82881142D01*
X116505761Y-80944380D02*
X116505761Y-79944380D01*
X116124809Y-79944380D01*
X116029571Y-79992000D01*
X115981952Y-80039619D01*
X115934333Y-80134857D01*
X115934333Y-80277714D01*
X115981952Y-80372952D01*
X116029571Y-80420571D01*
X116124809Y-80468190D01*
X116505761Y-80468190D01*
X115505761Y-79944380D02*
X115505761Y-80753904D01*
X115458142Y-80849142D01*
X115410523Y-80896761D01*
X115315285Y-80944380D01*
X115124809Y-80944380D01*
X115029571Y-80896761D01*
X114981952Y-80849142D01*
X114934333Y-80753904D01*
X114934333Y-79944380D01*
X113981952Y-80944380D02*
X114458142Y-80944380D01*
X114458142Y-79944380D01*
X113696238Y-80896761D02*
X113553380Y-80944380D01*
X113315285Y-80944380D01*
X113220047Y-80896761D01*
X113172428Y-80849142D01*
X113124809Y-80753904D01*
X113124809Y-80658666D01*
X113172428Y-80563428D01*
X113220047Y-80515809D01*
X113315285Y-80468190D01*
X113505761Y-80420571D01*
X113601000Y-80372952D01*
X113648619Y-80325333D01*
X113696238Y-80230095D01*
X113696238Y-80134857D01*
X113648619Y-80039619D01*
X113601000Y-79992000D01*
X113505761Y-79944380D01*
X113267666Y-79944380D01*
X113124809Y-79992000D01*
X112696238Y-80420571D02*
X112362904Y-80420571D01*
X112220047Y-80944380D02*
X112696238Y-80944380D01*
X112696238Y-79944380D01*
X112220047Y-79944380D01*
X112029571Y-81039619D02*
X111267666Y-81039619D01*
X110839095Y-79944380D02*
X110648619Y-79944380D01*
X110553380Y-79992000D01*
X110458142Y-80087238D01*
X110410523Y-80277714D01*
X110410523Y-80611047D01*
X110458142Y-80801523D01*
X110553380Y-80896761D01*
X110648619Y-80944380D01*
X110839095Y-80944380D01*
X110934333Y-80896761D01*
X111029571Y-80801523D01*
X111077190Y-80611047D01*
X111077190Y-80277714D01*
X111029571Y-80087238D01*
X110934333Y-79992000D01*
X110839095Y-79944380D01*
X109981952Y-79944380D02*
X109981952Y-80753904D01*
X109934333Y-80849142D01*
X109886714Y-80896761D01*
X109791476Y-80944380D01*
X109601000Y-80944380D01*
X109505761Y-80896761D01*
X109458142Y-80849142D01*
X109410523Y-80753904D01*
X109410523Y-79944380D01*
X109077190Y-79944380D02*
X108505761Y-79944380D01*
X108791476Y-80944380D02*
X108791476Y-79944380D01*
X107648619Y-80944380D02*
X108220047Y-80944380D01*
X107934333Y-80944380D02*
X107934333Y-79944380D01*
X108029571Y-80087238D01*
X108124809Y-80182476D01*
X108220047Y-80230095D01*
%TO.C,J4*%
X89180333Y-81976380D02*
X89180333Y-82690666D01*
X89227952Y-82833523D01*
X89323190Y-82928761D01*
X89466047Y-82976380D01*
X89561285Y-82976380D01*
X88275571Y-82309714D02*
X88275571Y-82976380D01*
X88513666Y-81928761D02*
X88751761Y-82643047D01*
X88132714Y-82643047D01*
X92577190Y-80944380D02*
X92910523Y-80468190D01*
X93148619Y-80944380D02*
X93148619Y-79944380D01*
X92767666Y-79944380D01*
X92672428Y-79992000D01*
X92624809Y-80039619D01*
X92577190Y-80134857D01*
X92577190Y-80277714D01*
X92624809Y-80372952D01*
X92672428Y-80420571D01*
X92767666Y-80468190D01*
X93148619Y-80468190D01*
X92196238Y-80658666D02*
X91720047Y-80658666D01*
X92291476Y-80944380D02*
X91958142Y-79944380D01*
X91624809Y-80944380D01*
X91291476Y-80944380D02*
X91291476Y-79944380D01*
X90958142Y-80658666D01*
X90624809Y-79944380D01*
X90624809Y-80944380D01*
X90148619Y-80944380D02*
X90148619Y-79944380D01*
X89767666Y-79944380D01*
X89672428Y-79992000D01*
X89624809Y-80039619D01*
X89577190Y-80134857D01*
X89577190Y-80277714D01*
X89624809Y-80372952D01*
X89672428Y-80420571D01*
X89767666Y-80468190D01*
X90148619Y-80468190D01*
X89386714Y-81039619D02*
X88624809Y-81039619D01*
X88196238Y-79944380D02*
X88005761Y-79944380D01*
X87910523Y-79992000D01*
X87815285Y-80087238D01*
X87767666Y-80277714D01*
X87767666Y-80611047D01*
X87815285Y-80801523D01*
X87910523Y-80896761D01*
X88005761Y-80944380D01*
X88196238Y-80944380D01*
X88291476Y-80896761D01*
X88386714Y-80801523D01*
X88434333Y-80611047D01*
X88434333Y-80277714D01*
X88386714Y-80087238D01*
X88291476Y-79992000D01*
X88196238Y-79944380D01*
X87339095Y-79944380D02*
X87339095Y-80753904D01*
X87291476Y-80849142D01*
X87243857Y-80896761D01*
X87148619Y-80944380D01*
X86958142Y-80944380D01*
X86862904Y-80896761D01*
X86815285Y-80849142D01*
X86767666Y-80753904D01*
X86767666Y-79944380D01*
X86434333Y-79944380D02*
X85862904Y-79944380D01*
X86148619Y-80944380D02*
X86148619Y-79944380D01*
X85005761Y-80944380D02*
X85577190Y-80944380D01*
X85291476Y-80944380D02*
X85291476Y-79944380D01*
X85386714Y-80087238D01*
X85481952Y-80182476D01*
X85577190Y-80230095D01*
%TO.C,J3*%
X66180333Y-58976380D02*
X66180333Y-59690666D01*
X66227952Y-59833523D01*
X66323190Y-59928761D01*
X66466047Y-59976380D01*
X66561285Y-59976380D01*
X65799380Y-58976380D02*
X65180333Y-58976380D01*
X65513666Y-59357333D01*
X65370809Y-59357333D01*
X65275571Y-59404952D01*
X65227952Y-59452571D01*
X65180333Y-59547809D01*
X65180333Y-59785904D01*
X65227952Y-59881142D01*
X65275571Y-59928761D01*
X65370809Y-59976380D01*
X65656523Y-59976380D01*
X65751761Y-59928761D01*
X65799380Y-59881142D01*
X69386714Y-56992000D02*
X69481952Y-56944380D01*
X69624809Y-56944380D01*
X69767666Y-56992000D01*
X69862904Y-57087238D01*
X69910523Y-57182476D01*
X69958142Y-57372952D01*
X69958142Y-57515809D01*
X69910523Y-57706285D01*
X69862904Y-57801523D01*
X69767666Y-57896761D01*
X69624809Y-57944380D01*
X69529571Y-57944380D01*
X69386714Y-57896761D01*
X69339095Y-57849142D01*
X69339095Y-57515809D01*
X69529571Y-57515809D01*
X68958142Y-57658666D02*
X68481952Y-57658666D01*
X69053380Y-57944380D02*
X68720047Y-56944380D01*
X68386714Y-57944380D01*
X68196238Y-56944380D02*
X67624809Y-56944380D01*
X67910523Y-57944380D02*
X67910523Y-56944380D01*
X67291476Y-57420571D02*
X66958142Y-57420571D01*
X66815285Y-57944380D02*
X67291476Y-57944380D01*
X67291476Y-56944380D01*
X66815285Y-56944380D01*
X66624809Y-58039619D02*
X65862904Y-58039619D01*
X65434333Y-56944380D02*
X65243857Y-56944380D01*
X65148619Y-56992000D01*
X65053380Y-57087238D01*
X65005761Y-57277714D01*
X65005761Y-57611047D01*
X65053380Y-57801523D01*
X65148619Y-57896761D01*
X65243857Y-57944380D01*
X65434333Y-57944380D01*
X65529571Y-57896761D01*
X65624809Y-57801523D01*
X65672428Y-57611047D01*
X65672428Y-57277714D01*
X65624809Y-57087238D01*
X65529571Y-56992000D01*
X65434333Y-56944380D01*
X64577190Y-56944380D02*
X64577190Y-57753904D01*
X64529571Y-57849142D01*
X64481952Y-57896761D01*
X64386714Y-57944380D01*
X64196238Y-57944380D01*
X64101000Y-57896761D01*
X64053380Y-57849142D01*
X64005761Y-57753904D01*
X64005761Y-56944380D01*
X63672428Y-56944380D02*
X63101000Y-56944380D01*
X63386714Y-57944380D02*
X63386714Y-56944380D01*
X62577190Y-56944380D02*
X62481952Y-56944380D01*
X62386714Y-56992000D01*
X62339095Y-57039619D01*
X62291476Y-57134857D01*
X62243857Y-57325333D01*
X62243857Y-57563428D01*
X62291476Y-57753904D01*
X62339095Y-57849142D01*
X62386714Y-57896761D01*
X62481952Y-57944380D01*
X62577190Y-57944380D01*
X62672428Y-57896761D01*
X62720047Y-57849142D01*
X62767666Y-57753904D01*
X62815285Y-57563428D01*
X62815285Y-57325333D01*
X62767666Y-57134857D01*
X62720047Y-57039619D01*
X62672428Y-56992000D01*
X62577190Y-56944380D01*
%TO.C,J2*%
X112180333Y-58976380D02*
X112180333Y-59690666D01*
X112227952Y-59833523D01*
X112323190Y-59928761D01*
X112466047Y-59976380D01*
X112561285Y-59976380D01*
X111751761Y-59071619D02*
X111704142Y-59024000D01*
X111608904Y-58976380D01*
X111370809Y-58976380D01*
X111275571Y-59024000D01*
X111227952Y-59071619D01*
X111180333Y-59166857D01*
X111180333Y-59262095D01*
X111227952Y-59404952D01*
X111799380Y-59976380D01*
X111180333Y-59976380D01*
X116505761Y-57944380D02*
X116505761Y-56944380D01*
X116124809Y-56944380D01*
X116029571Y-56992000D01*
X115981952Y-57039619D01*
X115934333Y-57134857D01*
X115934333Y-57277714D01*
X115981952Y-57372952D01*
X116029571Y-57420571D01*
X116124809Y-57468190D01*
X116505761Y-57468190D01*
X115505761Y-56944380D02*
X115505761Y-57753904D01*
X115458142Y-57849142D01*
X115410523Y-57896761D01*
X115315285Y-57944380D01*
X115124809Y-57944380D01*
X115029571Y-57896761D01*
X114981952Y-57849142D01*
X114934333Y-57753904D01*
X114934333Y-56944380D01*
X113981952Y-57944380D02*
X114458142Y-57944380D01*
X114458142Y-56944380D01*
X113696238Y-57896761D02*
X113553380Y-57944380D01*
X113315285Y-57944380D01*
X113220047Y-57896761D01*
X113172428Y-57849142D01*
X113124809Y-57753904D01*
X113124809Y-57658666D01*
X113172428Y-57563428D01*
X113220047Y-57515809D01*
X113315285Y-57468190D01*
X113505761Y-57420571D01*
X113601000Y-57372952D01*
X113648619Y-57325333D01*
X113696238Y-57230095D01*
X113696238Y-57134857D01*
X113648619Y-57039619D01*
X113601000Y-56992000D01*
X113505761Y-56944380D01*
X113267666Y-56944380D01*
X113124809Y-56992000D01*
X112696238Y-57420571D02*
X112362904Y-57420571D01*
X112220047Y-57944380D02*
X112696238Y-57944380D01*
X112696238Y-56944380D01*
X112220047Y-56944380D01*
X112029571Y-58039619D02*
X111267666Y-58039619D01*
X110839095Y-56944380D02*
X110648619Y-56944380D01*
X110553380Y-56992000D01*
X110458142Y-57087238D01*
X110410523Y-57277714D01*
X110410523Y-57611047D01*
X110458142Y-57801523D01*
X110553380Y-57896761D01*
X110648619Y-57944380D01*
X110839095Y-57944380D01*
X110934333Y-57896761D01*
X111029571Y-57801523D01*
X111077190Y-57611047D01*
X111077190Y-57277714D01*
X111029571Y-57087238D01*
X110934333Y-56992000D01*
X110839095Y-56944380D01*
X109981952Y-56944380D02*
X109981952Y-57753904D01*
X109934333Y-57849142D01*
X109886714Y-57896761D01*
X109791476Y-57944380D01*
X109601000Y-57944380D01*
X109505761Y-57896761D01*
X109458142Y-57849142D01*
X109410523Y-57753904D01*
X109410523Y-56944380D01*
X109077190Y-56944380D02*
X108505761Y-56944380D01*
X108791476Y-57944380D02*
X108791476Y-56944380D01*
X107981952Y-56944380D02*
X107886714Y-56944380D01*
X107791476Y-56992000D01*
X107743857Y-57039619D01*
X107696238Y-57134857D01*
X107648619Y-57325333D01*
X107648619Y-57563428D01*
X107696238Y-57753904D01*
X107743857Y-57849142D01*
X107791476Y-57896761D01*
X107886714Y-57944380D01*
X107981952Y-57944380D01*
X108077190Y-57896761D01*
X108124809Y-57849142D01*
X108172428Y-57753904D01*
X108220047Y-57563428D01*
X108220047Y-57325333D01*
X108172428Y-57134857D01*
X108124809Y-57039619D01*
X108077190Y-56992000D01*
X107981952Y-56944380D01*
%TO.C,J1*%
X89180333Y-58976380D02*
X89180333Y-59690666D01*
X89227952Y-59833523D01*
X89323190Y-59928761D01*
X89466047Y-59976380D01*
X89561285Y-59976380D01*
X88180333Y-59976380D02*
X88751761Y-59976380D01*
X88466047Y-59976380D02*
X88466047Y-58976380D01*
X88561285Y-59119238D01*
X88656523Y-59214476D01*
X88751761Y-59262095D01*
X86922191Y-67473379D02*
X87255524Y-66997189D01*
X87493620Y-67473379D02*
X87493620Y-66473379D01*
X87112667Y-66473379D01*
X87017429Y-66520999D01*
X86969810Y-66568618D01*
X86922191Y-66663856D01*
X86922191Y-66806713D01*
X86969810Y-66901951D01*
X87017429Y-66949570D01*
X87112667Y-66997189D01*
X87493620Y-66997189D01*
X86541239Y-67187665D02*
X86065048Y-67187665D01*
X86636477Y-67473379D02*
X86303143Y-66473379D01*
X85969810Y-67473379D01*
X85636477Y-67473379D02*
X85636477Y-66473379D01*
X85303143Y-67187665D01*
X84969810Y-66473379D01*
X84969810Y-67473379D01*
X84493620Y-67473379D02*
X84493620Y-66473379D01*
X84112667Y-66473379D01*
X84017429Y-66520999D01*
X83969810Y-66568618D01*
X83922191Y-66663856D01*
X83922191Y-66806713D01*
X83969810Y-66901951D01*
X84017429Y-66949570D01*
X84112667Y-66997189D01*
X84493620Y-66997189D01*
X83731715Y-67568618D02*
X82969810Y-67568618D01*
X82541239Y-66473379D02*
X82350762Y-66473379D01*
X82255524Y-66520999D01*
X82160286Y-66616237D01*
X82112667Y-66806713D01*
X82112667Y-67140046D01*
X82160286Y-67330522D01*
X82255524Y-67425760D01*
X82350762Y-67473379D01*
X82541239Y-67473379D01*
X82636477Y-67425760D01*
X82731715Y-67330522D01*
X82779334Y-67140046D01*
X82779334Y-66806713D01*
X82731715Y-66616237D01*
X82636477Y-66520999D01*
X82541239Y-66473379D01*
X81684096Y-66473379D02*
X81684096Y-67282903D01*
X81636477Y-67378141D01*
X81588858Y-67425760D01*
X81493620Y-67473379D01*
X81303143Y-67473379D01*
X81207905Y-67425760D01*
X81160286Y-67378141D01*
X81112667Y-67282903D01*
X81112667Y-66473379D01*
X80779334Y-66473379D02*
X80207905Y-66473379D01*
X80493620Y-67473379D02*
X80493620Y-66473379D01*
X79684096Y-66473379D02*
X79588858Y-66473379D01*
X79493620Y-66520999D01*
X79446001Y-66568618D01*
X79398381Y-66663856D01*
X79350762Y-66854332D01*
X79350762Y-67092427D01*
X79398381Y-67282903D01*
X79446001Y-67378141D01*
X79493620Y-67425760D01*
X79588858Y-67473379D01*
X79684096Y-67473379D01*
X79779334Y-67425760D01*
X79826953Y-67378141D01*
X79874572Y-67282903D01*
X79922191Y-67092427D01*
X79922191Y-66854332D01*
X79874572Y-66663856D01*
X79826953Y-66568618D01*
X79779334Y-66520999D01*
X79684096Y-66473379D01*
%TD*%
M02*
