%TF.GenerationSoftware,KiCad,Pcbnew,(5.1.7)-1*%
%TF.CreationDate,2023-03-06T21:23:01+00:00*%
%TF.ProjectId,KOSMO-POLY6-JACKS,4b4f534d-4f2d-4504-9f4c-59362d4a4143,v0.1.1*%
%TF.SameCoordinates,Original*%
%TF.FileFunction,Legend,Top*%
%TF.FilePolarity,Positive*%
%FSLAX46Y46*%
G04 Gerber Fmt 4.6, Leading zero omitted, Abs format (unit mm)*
G04 Created by KiCad (PCBNEW (5.1.7)-1) date 2023-03-06 21:23:01*
%MOMM*%
%LPD*%
G01*
G04 APERTURE LIST*
%ADD10C,0.150000*%
%ADD11C,0.100000*%
%ADD12C,0.120000*%
G04 APERTURE END LIST*
D10*
X55244380Y-107531714D02*
X54244380Y-107531714D01*
X55244380Y-108103142D02*
X54672952Y-107674571D01*
X54244380Y-108103142D02*
X54815809Y-107531714D01*
X54244380Y-108722190D02*
X54244380Y-108912666D01*
X54292000Y-109007904D01*
X54387238Y-109103142D01*
X54577714Y-109150761D01*
X54911047Y-109150761D01*
X55101523Y-109103142D01*
X55196761Y-109007904D01*
X55244380Y-108912666D01*
X55244380Y-108722190D01*
X55196761Y-108626952D01*
X55101523Y-108531714D01*
X54911047Y-108484095D01*
X54577714Y-108484095D01*
X54387238Y-108531714D01*
X54292000Y-108626952D01*
X54244380Y-108722190D01*
X55196761Y-109531714D02*
X55244380Y-109674571D01*
X55244380Y-109912666D01*
X55196761Y-110007904D01*
X55149142Y-110055523D01*
X55053904Y-110103142D01*
X54958666Y-110103142D01*
X54863428Y-110055523D01*
X54815809Y-110007904D01*
X54768190Y-109912666D01*
X54720571Y-109722190D01*
X54672952Y-109626952D01*
X54625333Y-109579333D01*
X54530095Y-109531714D01*
X54434857Y-109531714D01*
X54339619Y-109579333D01*
X54292000Y-109626952D01*
X54244380Y-109722190D01*
X54244380Y-109960285D01*
X54292000Y-110103142D01*
X55244380Y-110531714D02*
X54244380Y-110531714D01*
X54958666Y-110865047D01*
X54244380Y-111198380D01*
X55244380Y-111198380D01*
X54244380Y-111865047D02*
X54244380Y-112055523D01*
X54292000Y-112150761D01*
X54387238Y-112246000D01*
X54577714Y-112293619D01*
X54911047Y-112293619D01*
X55101523Y-112246000D01*
X55196761Y-112150761D01*
X55244380Y-112055523D01*
X55244380Y-111865047D01*
X55196761Y-111769809D01*
X55101523Y-111674571D01*
X54911047Y-111626952D01*
X54577714Y-111626952D01*
X54387238Y-111674571D01*
X54292000Y-111769809D01*
X54244380Y-111865047D01*
X54863428Y-112722190D02*
X54863428Y-113484095D01*
X55244380Y-113960285D02*
X54244380Y-113960285D01*
X54244380Y-114341238D01*
X54292000Y-114436476D01*
X54339619Y-114484095D01*
X54434857Y-114531714D01*
X54577714Y-114531714D01*
X54672952Y-114484095D01*
X54720571Y-114436476D01*
X54768190Y-114341238D01*
X54768190Y-113960285D01*
X54244380Y-115150761D02*
X54244380Y-115341238D01*
X54292000Y-115436476D01*
X54387238Y-115531714D01*
X54577714Y-115579333D01*
X54911047Y-115579333D01*
X55101523Y-115531714D01*
X55196761Y-115436476D01*
X55244380Y-115341238D01*
X55244380Y-115150761D01*
X55196761Y-115055523D01*
X55101523Y-114960285D01*
X54911047Y-114912666D01*
X54577714Y-114912666D01*
X54387238Y-114960285D01*
X54292000Y-115055523D01*
X54244380Y-115150761D01*
X55244380Y-116484095D02*
X55244380Y-116007904D01*
X54244380Y-116007904D01*
X54768190Y-117007904D02*
X55244380Y-117007904D01*
X54244380Y-116674571D02*
X54768190Y-117007904D01*
X54244380Y-117341238D01*
X54244380Y-118103142D02*
X54244380Y-117912666D01*
X54292000Y-117817428D01*
X54339619Y-117769809D01*
X54482476Y-117674571D01*
X54672952Y-117626952D01*
X55053904Y-117626952D01*
X55149142Y-117674571D01*
X55196761Y-117722190D01*
X55244380Y-117817428D01*
X55244380Y-118007904D01*
X55196761Y-118103142D01*
X55149142Y-118150761D01*
X55053904Y-118198380D01*
X54815809Y-118198380D01*
X54720571Y-118150761D01*
X54672952Y-118103142D01*
X54625333Y-118007904D01*
X54625333Y-117817428D01*
X54672952Y-117722190D01*
X54720571Y-117674571D01*
X54815809Y-117626952D01*
X54863428Y-118626952D02*
X54863428Y-119388857D01*
X54244380Y-120150761D02*
X54958666Y-120150761D01*
X55101523Y-120103142D01*
X55196761Y-120007904D01*
X55244380Y-119865047D01*
X55244380Y-119769809D01*
X54958666Y-120579333D02*
X54958666Y-121055523D01*
X55244380Y-120484095D02*
X54244380Y-120817428D01*
X55244380Y-121150761D01*
X55149142Y-122055523D02*
X55196761Y-122007904D01*
X55244380Y-121865047D01*
X55244380Y-121769809D01*
X55196761Y-121626952D01*
X55101523Y-121531714D01*
X55006285Y-121484095D01*
X54815809Y-121436476D01*
X54672952Y-121436476D01*
X54482476Y-121484095D01*
X54387238Y-121531714D01*
X54292000Y-121626952D01*
X54244380Y-121769809D01*
X54244380Y-121865047D01*
X54292000Y-122007904D01*
X54339619Y-122055523D01*
X55244380Y-122484095D02*
X54244380Y-122484095D01*
X55244380Y-123055523D02*
X54672952Y-122626952D01*
X54244380Y-123055523D02*
X54815809Y-122484095D01*
X55196761Y-123436476D02*
X55244380Y-123579333D01*
X55244380Y-123817428D01*
X55196761Y-123912666D01*
X55149142Y-123960285D01*
X55053904Y-124007904D01*
X54958666Y-124007904D01*
X54863428Y-123960285D01*
X54815809Y-123912666D01*
X54768190Y-123817428D01*
X54720571Y-123626952D01*
X54672952Y-123531714D01*
X54625333Y-123484095D01*
X54530095Y-123436476D01*
X54434857Y-123436476D01*
X54339619Y-123484095D01*
X54292000Y-123531714D01*
X54244380Y-123626952D01*
X54244380Y-123865047D01*
X54292000Y-124007904D01*
X54244380Y-125055523D02*
X55244380Y-125388857D01*
X54244380Y-125722190D01*
X54244380Y-126246000D02*
X54244380Y-126341238D01*
X54292000Y-126436476D01*
X54339619Y-126484095D01*
X54434857Y-126531714D01*
X54625333Y-126579333D01*
X54863428Y-126579333D01*
X55053904Y-126531714D01*
X55149142Y-126484095D01*
X55196761Y-126436476D01*
X55244380Y-126341238D01*
X55244380Y-126246000D01*
X55196761Y-126150761D01*
X55149142Y-126103142D01*
X55053904Y-126055523D01*
X54863428Y-126007904D01*
X54625333Y-126007904D01*
X54434857Y-126055523D01*
X54339619Y-126103142D01*
X54292000Y-126150761D01*
X54244380Y-126246000D01*
X55149142Y-127007904D02*
X55196761Y-127055523D01*
X55244380Y-127007904D01*
X55196761Y-126960285D01*
X55149142Y-127007904D01*
X55244380Y-127007904D01*
X55244380Y-128007904D02*
X55244380Y-127436476D01*
X55244380Y-127722190D02*
X54244380Y-127722190D01*
X54387238Y-127626952D01*
X54482476Y-127531714D01*
X54530095Y-127436476D01*
X55149142Y-128436476D02*
X55196761Y-128484095D01*
X55244380Y-128436476D01*
X55196761Y-128388857D01*
X55149142Y-128436476D01*
X55244380Y-128436476D01*
X55244380Y-129436476D02*
X55244380Y-128865047D01*
X55244380Y-129150761D02*
X54244380Y-129150761D01*
X54387238Y-129055523D01*
X54482476Y-128960285D01*
X54530095Y-128865047D01*
X54720571Y-130960285D02*
X54768190Y-131103142D01*
X54815809Y-131150761D01*
X54911047Y-131198380D01*
X55053904Y-131198380D01*
X55149142Y-131150761D01*
X55196761Y-131103142D01*
X55244380Y-131007904D01*
X55244380Y-130626952D01*
X54244380Y-130626952D01*
X54244380Y-130960285D01*
X54292000Y-131055523D01*
X54339619Y-131103142D01*
X54434857Y-131150761D01*
X54530095Y-131150761D01*
X54625333Y-131103142D01*
X54672952Y-131055523D01*
X54720571Y-130960285D01*
X54720571Y-130626952D01*
X54577714Y-131531714D02*
X55244380Y-131769809D01*
X54577714Y-132007904D02*
X55244380Y-131769809D01*
X55482476Y-131674571D01*
X55530095Y-131626952D01*
X55577714Y-131531714D01*
X54244380Y-133007904D02*
X54244380Y-133579333D01*
X55244380Y-133293619D02*
X54244380Y-133293619D01*
X54577714Y-133817428D02*
X55244380Y-134007904D01*
X54768190Y-134198380D01*
X55244380Y-134388857D01*
X54577714Y-134579333D01*
X55244380Y-134960285D02*
X54577714Y-134960285D01*
X54244380Y-134960285D02*
X54292000Y-134912666D01*
X54339619Y-134960285D01*
X54292000Y-135007904D01*
X54244380Y-134960285D01*
X54339619Y-134960285D01*
X54577714Y-135436476D02*
X55244380Y-135436476D01*
X54672952Y-135436476D02*
X54625333Y-135484095D01*
X54577714Y-135579333D01*
X54577714Y-135722190D01*
X54625333Y-135817428D01*
X54720571Y-135865047D01*
X55244380Y-135865047D01*
X54244380Y-136198380D02*
X54244380Y-136769809D01*
X55244380Y-136484095D02*
X54244380Y-136484095D01*
X54577714Y-137531714D02*
X55244380Y-137531714D01*
X54577714Y-137103142D02*
X55101523Y-137103142D01*
X55196761Y-137150761D01*
X55244380Y-137246000D01*
X55244380Y-137388857D01*
X55196761Y-137484095D01*
X55149142Y-137531714D01*
X55244380Y-138007904D02*
X54577714Y-138007904D01*
X54768190Y-138007904D02*
X54672952Y-138055523D01*
X54625333Y-138103142D01*
X54577714Y-138198380D01*
X54577714Y-138293619D01*
X55244380Y-138626952D02*
X54244380Y-138626952D01*
X54625333Y-138626952D02*
X54577714Y-138722190D01*
X54577714Y-138912666D01*
X54625333Y-139007904D01*
X54672952Y-139055523D01*
X54768190Y-139103142D01*
X55053904Y-139103142D01*
X55149142Y-139055523D01*
X55196761Y-139007904D01*
X55244380Y-138912666D01*
X55244380Y-138722190D01*
X55196761Y-138626952D01*
X55244380Y-139674571D02*
X55196761Y-139579333D01*
X55149142Y-139531714D01*
X55053904Y-139484095D01*
X54768190Y-139484095D01*
X54672952Y-139531714D01*
X54625333Y-139579333D01*
X54577714Y-139674571D01*
X54577714Y-139817428D01*
X54625333Y-139912666D01*
X54672952Y-139960285D01*
X54768190Y-140007904D01*
X55053904Y-140007904D01*
X55149142Y-139960285D01*
X55196761Y-139912666D01*
X55244380Y-139817428D01*
X55244380Y-139674571D01*
D11*
%TO.C,PowerOUT1*%
X94268000Y-190237000D02*
X93268000Y-189237000D01*
X93268000Y-189237000D02*
X93268000Y-181337000D01*
X93268000Y-181337000D02*
X108548000Y-181337000D01*
X108548000Y-181337000D02*
X108548000Y-190237000D01*
X108548000Y-190237000D02*
X94268000Y-190237000D01*
X98858000Y-190237000D02*
X98858000Y-189037000D01*
X98858000Y-189037000D02*
X94458000Y-189037000D01*
X94458000Y-189037000D02*
X94458000Y-182537000D01*
X94458000Y-182537000D02*
X107358000Y-182537000D01*
X107358000Y-182537000D02*
X107358000Y-189037000D01*
X107358000Y-189037000D02*
X102958000Y-189037000D01*
X102958000Y-189037000D02*
X102958000Y-189037000D01*
X102958000Y-189037000D02*
X102958000Y-190237000D01*
D12*
X93158000Y-190347000D02*
X93158000Y-181227000D01*
X93158000Y-181227000D02*
X108658000Y-181227000D01*
X108658000Y-181227000D02*
X108658000Y-190347000D01*
X108658000Y-190347000D02*
X93158000Y-190347000D01*
X98858000Y-190347000D02*
X98858000Y-189037000D01*
X98858000Y-189037000D02*
X94458000Y-189037000D01*
X94458000Y-189037000D02*
X94458000Y-182537000D01*
X94458000Y-182537000D02*
X107358000Y-182537000D01*
X107358000Y-182537000D02*
X107358000Y-189037000D01*
X107358000Y-189037000D02*
X102958000Y-189037000D01*
X102958000Y-189037000D02*
X102958000Y-189037000D01*
X102958000Y-189037000D02*
X102958000Y-190347000D01*
X98368000Y-190737000D02*
X97868000Y-191737000D01*
X97868000Y-191737000D02*
X98868000Y-191737000D01*
X98868000Y-191737000D02*
X98368000Y-190737000D01*
D11*
%TO.C,PowerIN1*%
X68873000Y-190168000D02*
X67873000Y-189168000D01*
X67873000Y-189168000D02*
X67873000Y-181268000D01*
X67873000Y-181268000D02*
X83153000Y-181268000D01*
X83153000Y-181268000D02*
X83153000Y-190168000D01*
X83153000Y-190168000D02*
X68873000Y-190168000D01*
X73463000Y-190168000D02*
X73463000Y-188968000D01*
X73463000Y-188968000D02*
X69063000Y-188968000D01*
X69063000Y-188968000D02*
X69063000Y-182468000D01*
X69063000Y-182468000D02*
X81963000Y-182468000D01*
X81963000Y-182468000D02*
X81963000Y-188968000D01*
X81963000Y-188968000D02*
X77563000Y-188968000D01*
X77563000Y-188968000D02*
X77563000Y-188968000D01*
X77563000Y-188968000D02*
X77563000Y-190168000D01*
D12*
X67763000Y-190278000D02*
X67763000Y-181158000D01*
X67763000Y-181158000D02*
X83263000Y-181158000D01*
X83263000Y-181158000D02*
X83263000Y-190278000D01*
X83263000Y-190278000D02*
X67763000Y-190278000D01*
X73463000Y-190278000D02*
X73463000Y-188968000D01*
X73463000Y-188968000D02*
X69063000Y-188968000D01*
X69063000Y-188968000D02*
X69063000Y-182468000D01*
X69063000Y-182468000D02*
X81963000Y-182468000D01*
X81963000Y-182468000D02*
X81963000Y-188968000D01*
X81963000Y-188968000D02*
X77563000Y-188968000D01*
X77563000Y-188968000D02*
X77563000Y-188968000D01*
X77563000Y-188968000D02*
X77563000Y-190278000D01*
X72973000Y-190668000D02*
X72473000Y-191668000D01*
X72473000Y-191668000D02*
X73473000Y-191668000D01*
X73473000Y-191668000D02*
X72973000Y-190668000D01*
%TO.C,RAMP_OUT1*%
X64858000Y-31935000D02*
X65858000Y-31435000D01*
X64858000Y-30935000D02*
X64858000Y-31935000D01*
X65858000Y-31435000D02*
X64858000Y-30935000D01*
X67558000Y-37295000D02*
X66248000Y-37295000D01*
X67558000Y-37295000D02*
X67558000Y-37295000D01*
X67558000Y-42965000D02*
X67558000Y-37295000D01*
X74058000Y-42965000D02*
X67558000Y-42965000D01*
X74058000Y-27525000D02*
X74058000Y-42965000D01*
X67558000Y-27525000D02*
X74058000Y-27525000D01*
X67558000Y-33195000D02*
X67558000Y-27525000D01*
X66248000Y-33195000D02*
X67558000Y-33195000D01*
X66248000Y-44265000D02*
X66248000Y-26225000D01*
X75368000Y-44265000D02*
X66248000Y-44265000D01*
X75368000Y-26225000D02*
X75368000Y-44265000D01*
X66248000Y-26225000D02*
X75368000Y-26225000D01*
D11*
X67558000Y-37295000D02*
X66358000Y-37295000D01*
X67558000Y-37295000D02*
X67558000Y-37295000D01*
X67558000Y-42965000D02*
X67558000Y-37295000D01*
X74058000Y-42965000D02*
X67558000Y-42965000D01*
X74058000Y-27525000D02*
X74058000Y-42965000D01*
X67558000Y-27525000D02*
X74058000Y-27525000D01*
X67558000Y-33195000D02*
X67558000Y-27525000D01*
X66358000Y-33195000D02*
X67558000Y-33195000D01*
X66358000Y-44155000D02*
X66358000Y-27335000D01*
X75258000Y-44155000D02*
X66358000Y-44155000D01*
X75258000Y-26335000D02*
X75258000Y-44155000D01*
X67358000Y-26335000D02*
X75258000Y-26335000D01*
X66358000Y-27335000D02*
X67358000Y-26335000D01*
D12*
%TO.C,RAMP_IN1*%
X100063000Y-31935000D02*
X101063000Y-31435000D01*
X100063000Y-30935000D02*
X100063000Y-31935000D01*
X101063000Y-31435000D02*
X100063000Y-30935000D01*
X102763000Y-37295000D02*
X101453000Y-37295000D01*
X102763000Y-37295000D02*
X102763000Y-37295000D01*
X102763000Y-42965000D02*
X102763000Y-37295000D01*
X109263000Y-42965000D02*
X102763000Y-42965000D01*
X109263000Y-27525000D02*
X109263000Y-42965000D01*
X102763000Y-27525000D02*
X109263000Y-27525000D01*
X102763000Y-33195000D02*
X102763000Y-27525000D01*
X101453000Y-33195000D02*
X102763000Y-33195000D01*
X101453000Y-44265000D02*
X101453000Y-26225000D01*
X110573000Y-44265000D02*
X101453000Y-44265000D01*
X110573000Y-26225000D02*
X110573000Y-44265000D01*
X101453000Y-26225000D02*
X110573000Y-26225000D01*
D11*
X102763000Y-37295000D02*
X101563000Y-37295000D01*
X102763000Y-37295000D02*
X102763000Y-37295000D01*
X102763000Y-42965000D02*
X102763000Y-37295000D01*
X109263000Y-42965000D02*
X102763000Y-42965000D01*
X109263000Y-27525000D02*
X109263000Y-42965000D01*
X102763000Y-27525000D02*
X109263000Y-27525000D01*
X102763000Y-33195000D02*
X102763000Y-27525000D01*
X101563000Y-33195000D02*
X102763000Y-33195000D01*
X101563000Y-44155000D02*
X101563000Y-27335000D01*
X110463000Y-44155000D02*
X101563000Y-44155000D01*
X110463000Y-26335000D02*
X110463000Y-44155000D01*
X102563000Y-26335000D02*
X110463000Y-26335000D01*
X101563000Y-27335000D02*
X102563000Y-26335000D01*
D12*
%TO.C,PULSE_OUT1*%
X75858000Y-31935000D02*
X76858000Y-31435000D01*
X75858000Y-30935000D02*
X75858000Y-31935000D01*
X76858000Y-31435000D02*
X75858000Y-30935000D01*
X78558000Y-37295000D02*
X77248000Y-37295000D01*
X78558000Y-37295000D02*
X78558000Y-37295000D01*
X78558000Y-42965000D02*
X78558000Y-37295000D01*
X85058000Y-42965000D02*
X78558000Y-42965000D01*
X85058000Y-27525000D02*
X85058000Y-42965000D01*
X78558000Y-27525000D02*
X85058000Y-27525000D01*
X78558000Y-33195000D02*
X78558000Y-27525000D01*
X77248000Y-33195000D02*
X78558000Y-33195000D01*
X77248000Y-44265000D02*
X77248000Y-26225000D01*
X86368000Y-44265000D02*
X77248000Y-44265000D01*
X86368000Y-26225000D02*
X86368000Y-44265000D01*
X77248000Y-26225000D02*
X86368000Y-26225000D01*
D11*
X78558000Y-37295000D02*
X77358000Y-37295000D01*
X78558000Y-37295000D02*
X78558000Y-37295000D01*
X78558000Y-42965000D02*
X78558000Y-37295000D01*
X85058000Y-42965000D02*
X78558000Y-42965000D01*
X85058000Y-27525000D02*
X85058000Y-42965000D01*
X78558000Y-27525000D02*
X85058000Y-27525000D01*
X78558000Y-33195000D02*
X78558000Y-27525000D01*
X77358000Y-33195000D02*
X78558000Y-33195000D01*
X77358000Y-44155000D02*
X77358000Y-27335000D01*
X86258000Y-44155000D02*
X77358000Y-44155000D01*
X86258000Y-26335000D02*
X86258000Y-44155000D01*
X78358000Y-26335000D02*
X86258000Y-26335000D01*
X77358000Y-27335000D02*
X78358000Y-26335000D01*
D12*
%TO.C,PULSE_IN1*%
X111063000Y-31935000D02*
X112063000Y-31435000D01*
X111063000Y-30935000D02*
X111063000Y-31935000D01*
X112063000Y-31435000D02*
X111063000Y-30935000D01*
X113763000Y-37295000D02*
X112453000Y-37295000D01*
X113763000Y-37295000D02*
X113763000Y-37295000D01*
X113763000Y-42965000D02*
X113763000Y-37295000D01*
X120263000Y-42965000D02*
X113763000Y-42965000D01*
X120263000Y-27525000D02*
X120263000Y-42965000D01*
X113763000Y-27525000D02*
X120263000Y-27525000D01*
X113763000Y-33195000D02*
X113763000Y-27525000D01*
X112453000Y-33195000D02*
X113763000Y-33195000D01*
X112453000Y-44265000D02*
X112453000Y-26225000D01*
X121573000Y-44265000D02*
X112453000Y-44265000D01*
X121573000Y-26225000D02*
X121573000Y-44265000D01*
X112453000Y-26225000D02*
X121573000Y-26225000D01*
D11*
X113763000Y-37295000D02*
X112563000Y-37295000D01*
X113763000Y-37295000D02*
X113763000Y-37295000D01*
X113763000Y-42965000D02*
X113763000Y-37295000D01*
X120263000Y-42965000D02*
X113763000Y-42965000D01*
X120263000Y-27525000D02*
X120263000Y-42965000D01*
X113763000Y-27525000D02*
X120263000Y-27525000D01*
X113763000Y-33195000D02*
X113763000Y-27525000D01*
X112563000Y-33195000D02*
X113763000Y-33195000D01*
X112563000Y-44155000D02*
X112563000Y-27335000D01*
X121463000Y-44155000D02*
X112563000Y-44155000D01*
X121463000Y-26335000D02*
X121463000Y-44155000D01*
X113563000Y-26335000D02*
X121463000Y-26335000D01*
X112563000Y-27335000D02*
X113563000Y-26335000D01*
D12*
%TO.C,GATE_OUT1*%
X53858000Y-31935000D02*
X54858000Y-31435000D01*
X53858000Y-30935000D02*
X53858000Y-31935000D01*
X54858000Y-31435000D02*
X53858000Y-30935000D01*
X56558000Y-37295000D02*
X55248000Y-37295000D01*
X56558000Y-37295000D02*
X56558000Y-37295000D01*
X56558000Y-42965000D02*
X56558000Y-37295000D01*
X63058000Y-42965000D02*
X56558000Y-42965000D01*
X63058000Y-27525000D02*
X63058000Y-42965000D01*
X56558000Y-27525000D02*
X63058000Y-27525000D01*
X56558000Y-33195000D02*
X56558000Y-27525000D01*
X55248000Y-33195000D02*
X56558000Y-33195000D01*
X55248000Y-44265000D02*
X55248000Y-26225000D01*
X64368000Y-44265000D02*
X55248000Y-44265000D01*
X64368000Y-26225000D02*
X64368000Y-44265000D01*
X55248000Y-26225000D02*
X64368000Y-26225000D01*
D11*
X56558000Y-37295000D02*
X55358000Y-37295000D01*
X56558000Y-37295000D02*
X56558000Y-37295000D01*
X56558000Y-42965000D02*
X56558000Y-37295000D01*
X63058000Y-42965000D02*
X56558000Y-42965000D01*
X63058000Y-27525000D02*
X63058000Y-42965000D01*
X56558000Y-27525000D02*
X63058000Y-27525000D01*
X56558000Y-33195000D02*
X56558000Y-27525000D01*
X55358000Y-33195000D02*
X56558000Y-33195000D01*
X55358000Y-44155000D02*
X55358000Y-27335000D01*
X64258000Y-44155000D02*
X55358000Y-44155000D01*
X64258000Y-26335000D02*
X64258000Y-44155000D01*
X56358000Y-26335000D02*
X64258000Y-26335000D01*
X55358000Y-27335000D02*
X56358000Y-26335000D01*
D12*
%TO.C,GATE_IN1*%
X89063000Y-31935000D02*
X90063000Y-31435000D01*
X89063000Y-30935000D02*
X89063000Y-31935000D01*
X90063000Y-31435000D02*
X89063000Y-30935000D01*
X91763000Y-37295000D02*
X90453000Y-37295000D01*
X91763000Y-37295000D02*
X91763000Y-37295000D01*
X91763000Y-42965000D02*
X91763000Y-37295000D01*
X98263000Y-42965000D02*
X91763000Y-42965000D01*
X98263000Y-27525000D02*
X98263000Y-42965000D01*
X91763000Y-27525000D02*
X98263000Y-27525000D01*
X91763000Y-33195000D02*
X91763000Y-27525000D01*
X90453000Y-33195000D02*
X91763000Y-33195000D01*
X90453000Y-44265000D02*
X90453000Y-26225000D01*
X99573000Y-44265000D02*
X90453000Y-44265000D01*
X99573000Y-26225000D02*
X99573000Y-44265000D01*
X90453000Y-26225000D02*
X99573000Y-26225000D01*
D11*
X91763000Y-37295000D02*
X90563000Y-37295000D01*
X91763000Y-37295000D02*
X91763000Y-37295000D01*
X91763000Y-42965000D02*
X91763000Y-37295000D01*
X98263000Y-42965000D02*
X91763000Y-42965000D01*
X98263000Y-27525000D02*
X98263000Y-42965000D01*
X91763000Y-27525000D02*
X98263000Y-27525000D01*
X91763000Y-33195000D02*
X91763000Y-27525000D01*
X90563000Y-33195000D02*
X91763000Y-33195000D01*
X90563000Y-44155000D02*
X90563000Y-27335000D01*
X99463000Y-44155000D02*
X90563000Y-44155000D01*
X99463000Y-26335000D02*
X99463000Y-44155000D01*
X91563000Y-26335000D02*
X99463000Y-26335000D01*
X90563000Y-27335000D02*
X91563000Y-26335000D01*
%TO.C,H2*%
D10*
X56778095Y-15054380D02*
X56778095Y-14054380D01*
X56778095Y-14530571D02*
X57349523Y-14530571D01*
X57349523Y-15054380D02*
X57349523Y-14054380D01*
X57778095Y-14149619D02*
X57825714Y-14102000D01*
X57920952Y-14054380D01*
X58159047Y-14054380D01*
X58254285Y-14102000D01*
X58301904Y-14149619D01*
X58349523Y-14244857D01*
X58349523Y-14340095D01*
X58301904Y-14482952D01*
X57730476Y-15054380D01*
X58349523Y-15054380D01*
X37926571Y-25388380D02*
X37926571Y-24388380D01*
X38259904Y-25102666D01*
X38593238Y-24388380D01*
X38593238Y-25388380D01*
X39212285Y-25388380D02*
X39117047Y-25340761D01*
X39069428Y-25293142D01*
X39021809Y-25197904D01*
X39021809Y-24912190D01*
X39069428Y-24816952D01*
X39117047Y-24769333D01*
X39212285Y-24721714D01*
X39355142Y-24721714D01*
X39450380Y-24769333D01*
X39497999Y-24816952D01*
X39545619Y-24912190D01*
X39545619Y-25197904D01*
X39497999Y-25293142D01*
X39450380Y-25340761D01*
X39355142Y-25388380D01*
X39212285Y-25388380D01*
X40402761Y-24721714D02*
X40402761Y-25388380D01*
X39974190Y-24721714D02*
X39974190Y-25245523D01*
X40021809Y-25340761D01*
X40117047Y-25388380D01*
X40259904Y-25388380D01*
X40355142Y-25340761D01*
X40402761Y-25293142D01*
X40878952Y-24721714D02*
X40878952Y-25388380D01*
X40878952Y-24816952D02*
X40926571Y-24769333D01*
X41021809Y-24721714D01*
X41164666Y-24721714D01*
X41259904Y-24769333D01*
X41307523Y-24864571D01*
X41307523Y-25388380D01*
X41640857Y-24721714D02*
X42021809Y-24721714D01*
X41783714Y-24388380D02*
X41783714Y-25245523D01*
X41831333Y-25340761D01*
X41926571Y-25388380D01*
X42021809Y-25388380D01*
X42355142Y-25388380D02*
X42355142Y-24721714D01*
X42355142Y-24388380D02*
X42307523Y-24436000D01*
X42355142Y-24483619D01*
X42402761Y-24436000D01*
X42355142Y-24388380D01*
X42355142Y-24483619D01*
X42831333Y-24721714D02*
X42831333Y-25388380D01*
X42831333Y-24816952D02*
X42878952Y-24769333D01*
X42974190Y-24721714D01*
X43117047Y-24721714D01*
X43212285Y-24769333D01*
X43259904Y-24864571D01*
X43259904Y-25388380D01*
X44164666Y-24721714D02*
X44164666Y-25531238D01*
X44117047Y-25626476D01*
X44069428Y-25674095D01*
X43974190Y-25721714D01*
X43831333Y-25721714D01*
X43736095Y-25674095D01*
X44164666Y-25340761D02*
X44069428Y-25388380D01*
X43878952Y-25388380D01*
X43783714Y-25340761D01*
X43736095Y-25293142D01*
X43688476Y-25197904D01*
X43688476Y-24912190D01*
X43736095Y-24816952D01*
X43783714Y-24769333D01*
X43878952Y-24721714D01*
X44069428Y-24721714D01*
X44164666Y-24769333D01*
X44640857Y-25388380D02*
X44640857Y-24388380D01*
X44640857Y-24864571D02*
X45212285Y-24864571D01*
X45212285Y-25388380D02*
X45212285Y-24388380D01*
X45831333Y-25388380D02*
X45736095Y-25340761D01*
X45688476Y-25293142D01*
X45640857Y-25197904D01*
X45640857Y-24912190D01*
X45688476Y-24816952D01*
X45736095Y-24769333D01*
X45831333Y-24721714D01*
X45974190Y-24721714D01*
X46069428Y-24769333D01*
X46117047Y-24816952D01*
X46164666Y-24912190D01*
X46164666Y-25197904D01*
X46117047Y-25293142D01*
X46069428Y-25340761D01*
X45974190Y-25388380D01*
X45831333Y-25388380D01*
X46736095Y-25388380D02*
X46640857Y-25340761D01*
X46593238Y-25245523D01*
X46593238Y-24388380D01*
X47497999Y-25340761D02*
X47402761Y-25388380D01*
X47212285Y-25388380D01*
X47117047Y-25340761D01*
X47069428Y-25245523D01*
X47069428Y-24864571D01*
X47117047Y-24769333D01*
X47212285Y-24721714D01*
X47402761Y-24721714D01*
X47497999Y-24769333D01*
X47545619Y-24864571D01*
X47545619Y-24959809D01*
X47069428Y-25055047D01*
X47736095Y-25483619D02*
X48497999Y-25483619D01*
X48736095Y-25388380D02*
X48736095Y-24388380D01*
X49117047Y-24388380D01*
X49212285Y-24436000D01*
X49259904Y-24483619D01*
X49307523Y-24578857D01*
X49307523Y-24721714D01*
X49259904Y-24816952D01*
X49212285Y-24864571D01*
X49117047Y-24912190D01*
X48736095Y-24912190D01*
X50164666Y-25388380D02*
X50164666Y-24864571D01*
X50117047Y-24769333D01*
X50021809Y-24721714D01*
X49831333Y-24721714D01*
X49736095Y-24769333D01*
X50164666Y-25340761D02*
X50069428Y-25388380D01*
X49831333Y-25388380D01*
X49736095Y-25340761D01*
X49688476Y-25245523D01*
X49688476Y-25150285D01*
X49736095Y-25055047D01*
X49831333Y-25007428D01*
X50069428Y-25007428D01*
X50164666Y-24959809D01*
X51069428Y-25388380D02*
X51069428Y-24388380D01*
X51069428Y-25340761D02*
X50974190Y-25388380D01*
X50783714Y-25388380D01*
X50688476Y-25340761D01*
X50640857Y-25293142D01*
X50593238Y-25197904D01*
X50593238Y-24912190D01*
X50640857Y-24816952D01*
X50688476Y-24769333D01*
X50783714Y-24721714D01*
X50974190Y-24721714D01*
X51069428Y-24769333D01*
X57195095Y-20289380D02*
X57195095Y-19289380D01*
X57195095Y-19765571D02*
X57766523Y-19765571D01*
X57766523Y-20289380D02*
X57766523Y-19289380D01*
X58195095Y-19384619D02*
X58242714Y-19337000D01*
X58337952Y-19289380D01*
X58576047Y-19289380D01*
X58671285Y-19337000D01*
X58718904Y-19384619D01*
X58766523Y-19479857D01*
X58766523Y-19575095D01*
X58718904Y-19717952D01*
X58147476Y-20289380D01*
X58766523Y-20289380D01*
%TO.C,PowerOUT1*%
X92720380Y-189667952D02*
X91720380Y-189667952D01*
X91720380Y-189287000D01*
X91768000Y-189191761D01*
X91815619Y-189144142D01*
X91910857Y-189096523D01*
X92053714Y-189096523D01*
X92148952Y-189144142D01*
X92196571Y-189191761D01*
X92244190Y-189287000D01*
X92244190Y-189667952D01*
X92720380Y-188525095D02*
X92672761Y-188620333D01*
X92625142Y-188667952D01*
X92529904Y-188715571D01*
X92244190Y-188715571D01*
X92148952Y-188667952D01*
X92101333Y-188620333D01*
X92053714Y-188525095D01*
X92053714Y-188382238D01*
X92101333Y-188287000D01*
X92148952Y-188239380D01*
X92244190Y-188191761D01*
X92529904Y-188191761D01*
X92625142Y-188239380D01*
X92672761Y-188287000D01*
X92720380Y-188382238D01*
X92720380Y-188525095D01*
X92053714Y-187858428D02*
X92720380Y-187667952D01*
X92244190Y-187477476D01*
X92720380Y-187287000D01*
X92053714Y-187096523D01*
X92672761Y-186334619D02*
X92720380Y-186429857D01*
X92720380Y-186620333D01*
X92672761Y-186715571D01*
X92577523Y-186763190D01*
X92196571Y-186763190D01*
X92101333Y-186715571D01*
X92053714Y-186620333D01*
X92053714Y-186429857D01*
X92101333Y-186334619D01*
X92196571Y-186287000D01*
X92291809Y-186287000D01*
X92387047Y-186763190D01*
X92720380Y-185858428D02*
X92053714Y-185858428D01*
X92244190Y-185858428D02*
X92148952Y-185810809D01*
X92101333Y-185763190D01*
X92053714Y-185667952D01*
X92053714Y-185572714D01*
X91720380Y-185048904D02*
X91720380Y-184858428D01*
X91768000Y-184763190D01*
X91863238Y-184667952D01*
X92053714Y-184620333D01*
X92387047Y-184620333D01*
X92577523Y-184667952D01*
X92672761Y-184763190D01*
X92720380Y-184858428D01*
X92720380Y-185048904D01*
X92672761Y-185144142D01*
X92577523Y-185239380D01*
X92387047Y-185287000D01*
X92053714Y-185287000D01*
X91863238Y-185239380D01*
X91768000Y-185144142D01*
X91720380Y-185048904D01*
X91720380Y-184191761D02*
X92529904Y-184191761D01*
X92625142Y-184144142D01*
X92672761Y-184096523D01*
X92720380Y-184001285D01*
X92720380Y-183810809D01*
X92672761Y-183715571D01*
X92625142Y-183667952D01*
X92529904Y-183620333D01*
X91720380Y-183620333D01*
X91720380Y-183287000D02*
X91720380Y-182715571D01*
X92720380Y-183001285D02*
X91720380Y-183001285D01*
X92720380Y-181858428D02*
X92720380Y-182429857D01*
X92720380Y-182144142D02*
X91720380Y-182144142D01*
X91863238Y-182239380D01*
X91958476Y-182334619D01*
X92006095Y-182429857D01*
X109905142Y-193429857D02*
X109952761Y-193477476D01*
X110000380Y-193620333D01*
X110000380Y-193715571D01*
X109952761Y-193858428D01*
X109857523Y-193953666D01*
X109762285Y-194001285D01*
X109571809Y-194048904D01*
X109428952Y-194048904D01*
X109238476Y-194001285D01*
X109143238Y-193953666D01*
X109048000Y-193858428D01*
X109000380Y-193715571D01*
X109000380Y-193620333D01*
X109048000Y-193477476D01*
X109095619Y-193429857D01*
X110000380Y-192858428D02*
X109952761Y-192953666D01*
X109905142Y-193001285D01*
X109809904Y-193048904D01*
X109524190Y-193048904D01*
X109428952Y-193001285D01*
X109381333Y-192953666D01*
X109333714Y-192858428D01*
X109333714Y-192715571D01*
X109381333Y-192620333D01*
X109428952Y-192572714D01*
X109524190Y-192525095D01*
X109809904Y-192525095D01*
X109905142Y-192572714D01*
X109952761Y-192620333D01*
X110000380Y-192715571D01*
X110000380Y-192858428D01*
X109333714Y-192096523D02*
X110000380Y-192096523D01*
X109428952Y-192096523D02*
X109381333Y-192048904D01*
X109333714Y-191953666D01*
X109333714Y-191810809D01*
X109381333Y-191715571D01*
X109476571Y-191667952D01*
X110000380Y-191667952D01*
X109333714Y-191191761D02*
X110000380Y-191191761D01*
X109428952Y-191191761D02*
X109381333Y-191144142D01*
X109333714Y-191048904D01*
X109333714Y-190906047D01*
X109381333Y-190810809D01*
X109476571Y-190763190D01*
X110000380Y-190763190D01*
X110095619Y-190525095D02*
X110095619Y-189763190D01*
X109000380Y-189334619D02*
X109000380Y-189239380D01*
X109048000Y-189144142D01*
X109095619Y-189096523D01*
X109190857Y-189048904D01*
X109381333Y-189001285D01*
X109619428Y-189001285D01*
X109809904Y-189048904D01*
X109905142Y-189096523D01*
X109952761Y-189144142D01*
X110000380Y-189239380D01*
X110000380Y-189334619D01*
X109952761Y-189429857D01*
X109905142Y-189477476D01*
X109809904Y-189525095D01*
X109619428Y-189572714D01*
X109381333Y-189572714D01*
X109190857Y-189525095D01*
X109095619Y-189477476D01*
X109048000Y-189429857D01*
X109000380Y-189334619D01*
X109095619Y-188620333D02*
X109048000Y-188572714D01*
X109000380Y-188477476D01*
X109000380Y-188239380D01*
X109048000Y-188144142D01*
X109095619Y-188096523D01*
X109190857Y-188048904D01*
X109286095Y-188048904D01*
X109428952Y-188096523D01*
X110000380Y-188667952D01*
X110000380Y-188048904D01*
X110000380Y-187715571D02*
X109333714Y-187191761D01*
X109333714Y-187715571D02*
X110000380Y-187191761D01*
X109000380Y-186620333D02*
X109000380Y-186525095D01*
X109048000Y-186429857D01*
X109095619Y-186382238D01*
X109190857Y-186334619D01*
X109381333Y-186287000D01*
X109619428Y-186287000D01*
X109809904Y-186334619D01*
X109905142Y-186382238D01*
X109952761Y-186429857D01*
X110000380Y-186525095D01*
X110000380Y-186620333D01*
X109952761Y-186715571D01*
X109905142Y-186763190D01*
X109809904Y-186810809D01*
X109619428Y-186858428D01*
X109381333Y-186858428D01*
X109190857Y-186810809D01*
X109095619Y-186763190D01*
X109048000Y-186715571D01*
X109000380Y-186620333D01*
X109000380Y-185953666D02*
X109000380Y-185334619D01*
X109381333Y-185667952D01*
X109381333Y-185525095D01*
X109428952Y-185429857D01*
X109476571Y-185382238D01*
X109571809Y-185334619D01*
X109809904Y-185334619D01*
X109905142Y-185382238D01*
X109952761Y-185429857D01*
X110000380Y-185525095D01*
X110000380Y-185810809D01*
X109952761Y-185906047D01*
X109905142Y-185953666D01*
X110095619Y-185144142D02*
X110095619Y-184382238D01*
X109000380Y-183953666D02*
X109000380Y-183763190D01*
X109048000Y-183667952D01*
X109143238Y-183572714D01*
X109333714Y-183525095D01*
X109667047Y-183525095D01*
X109857523Y-183572714D01*
X109952761Y-183667952D01*
X110000380Y-183763190D01*
X110000380Y-183953666D01*
X109952761Y-184048904D01*
X109857523Y-184144142D01*
X109667047Y-184191761D01*
X109333714Y-184191761D01*
X109143238Y-184144142D01*
X109048000Y-184048904D01*
X109000380Y-183953666D01*
X110000380Y-182667952D02*
X109000380Y-182667952D01*
X109952761Y-182667952D02*
X110000380Y-182763190D01*
X110000380Y-182953666D01*
X109952761Y-183048904D01*
X109905142Y-183096523D01*
X109809904Y-183144142D01*
X109524190Y-183144142D01*
X109428952Y-183096523D01*
X109381333Y-183048904D01*
X109333714Y-182953666D01*
X109333714Y-182763190D01*
X109381333Y-182667952D01*
X110000380Y-181763190D02*
X109000380Y-181763190D01*
X109952761Y-181763190D02*
X110000380Y-181858428D01*
X110000380Y-182048904D01*
X109952761Y-182144142D01*
X109905142Y-182191761D01*
X109809904Y-182239380D01*
X109524190Y-182239380D01*
X109428952Y-182191761D01*
X109381333Y-182144142D01*
X109333714Y-182048904D01*
X109333714Y-181858428D01*
X109381333Y-181763190D01*
X110095619Y-181525095D02*
X110095619Y-180763190D01*
X109476571Y-180525095D02*
X109476571Y-180191761D01*
X110000380Y-180048904D02*
X110000380Y-180525095D01*
X109000380Y-180525095D01*
X109000380Y-180048904D01*
X109333714Y-179715571D02*
X110000380Y-179477476D01*
X109333714Y-179239380D01*
X109952761Y-178477476D02*
X110000380Y-178572714D01*
X110000380Y-178763190D01*
X109952761Y-178858428D01*
X109857523Y-178906047D01*
X109476571Y-178906047D01*
X109381333Y-178858428D01*
X109333714Y-178763190D01*
X109333714Y-178572714D01*
X109381333Y-178477476D01*
X109476571Y-178429857D01*
X109571809Y-178429857D01*
X109667047Y-178906047D01*
X109333714Y-178001285D02*
X110000380Y-178001285D01*
X109428952Y-178001285D02*
X109381333Y-177953666D01*
X109333714Y-177858428D01*
X109333714Y-177715571D01*
X109381333Y-177620333D01*
X109476571Y-177572714D01*
X110000380Y-177572714D01*
X97027047Y-186239380D02*
X97027047Y-185239380D01*
X97408000Y-185239380D01*
X97503238Y-185287000D01*
X97550857Y-185334619D01*
X97598476Y-185429857D01*
X97598476Y-185572714D01*
X97550857Y-185667952D01*
X97503238Y-185715571D01*
X97408000Y-185763190D01*
X97027047Y-185763190D01*
X98169904Y-186239380D02*
X98074666Y-186191761D01*
X98027047Y-186144142D01*
X97979428Y-186048904D01*
X97979428Y-185763190D01*
X98027047Y-185667952D01*
X98074666Y-185620333D01*
X98169904Y-185572714D01*
X98312761Y-185572714D01*
X98408000Y-185620333D01*
X98455619Y-185667952D01*
X98503238Y-185763190D01*
X98503238Y-186048904D01*
X98455619Y-186144142D01*
X98408000Y-186191761D01*
X98312761Y-186239380D01*
X98169904Y-186239380D01*
X98836571Y-185572714D02*
X99027047Y-186239380D01*
X99217523Y-185763190D01*
X99408000Y-186239380D01*
X99598476Y-185572714D01*
X100360380Y-186191761D02*
X100265142Y-186239380D01*
X100074666Y-186239380D01*
X99979428Y-186191761D01*
X99931809Y-186096523D01*
X99931809Y-185715571D01*
X99979428Y-185620333D01*
X100074666Y-185572714D01*
X100265142Y-185572714D01*
X100360380Y-185620333D01*
X100408000Y-185715571D01*
X100408000Y-185810809D01*
X99931809Y-185906047D01*
X100836571Y-186239380D02*
X100836571Y-185572714D01*
X100836571Y-185763190D02*
X100884190Y-185667952D01*
X100931809Y-185620333D01*
X101027047Y-185572714D01*
X101122285Y-185572714D01*
X101646095Y-185239380D02*
X101836571Y-185239380D01*
X101931809Y-185287000D01*
X102027047Y-185382238D01*
X102074666Y-185572714D01*
X102074666Y-185906047D01*
X102027047Y-186096523D01*
X101931809Y-186191761D01*
X101836571Y-186239380D01*
X101646095Y-186239380D01*
X101550857Y-186191761D01*
X101455619Y-186096523D01*
X101408000Y-185906047D01*
X101408000Y-185572714D01*
X101455619Y-185382238D01*
X101550857Y-185287000D01*
X101646095Y-185239380D01*
X102503238Y-185239380D02*
X102503238Y-186048904D01*
X102550857Y-186144142D01*
X102598476Y-186191761D01*
X102693714Y-186239380D01*
X102884190Y-186239380D01*
X102979428Y-186191761D01*
X103027047Y-186144142D01*
X103074666Y-186048904D01*
X103074666Y-185239380D01*
X103408000Y-185239380D02*
X103979428Y-185239380D01*
X103693714Y-186239380D02*
X103693714Y-185239380D01*
X104836571Y-186239380D02*
X104265142Y-186239380D01*
X104550857Y-186239380D02*
X104550857Y-185239380D01*
X104455619Y-185382238D01*
X104360380Y-185477476D01*
X104265142Y-185525095D01*
%TO.C,PowerIN1*%
X67325380Y-188932285D02*
X66325380Y-188932285D01*
X66325380Y-188551333D01*
X66373000Y-188456095D01*
X66420619Y-188408476D01*
X66515857Y-188360857D01*
X66658714Y-188360857D01*
X66753952Y-188408476D01*
X66801571Y-188456095D01*
X66849190Y-188551333D01*
X66849190Y-188932285D01*
X67325380Y-187789428D02*
X67277761Y-187884666D01*
X67230142Y-187932285D01*
X67134904Y-187979904D01*
X66849190Y-187979904D01*
X66753952Y-187932285D01*
X66706333Y-187884666D01*
X66658714Y-187789428D01*
X66658714Y-187646571D01*
X66706333Y-187551333D01*
X66753952Y-187503714D01*
X66849190Y-187456095D01*
X67134904Y-187456095D01*
X67230142Y-187503714D01*
X67277761Y-187551333D01*
X67325380Y-187646571D01*
X67325380Y-187789428D01*
X66658714Y-187122761D02*
X67325380Y-186932285D01*
X66849190Y-186741809D01*
X67325380Y-186551333D01*
X66658714Y-186360857D01*
X67277761Y-185598952D02*
X67325380Y-185694190D01*
X67325380Y-185884666D01*
X67277761Y-185979904D01*
X67182523Y-186027523D01*
X66801571Y-186027523D01*
X66706333Y-185979904D01*
X66658714Y-185884666D01*
X66658714Y-185694190D01*
X66706333Y-185598952D01*
X66801571Y-185551333D01*
X66896809Y-185551333D01*
X66992047Y-186027523D01*
X67325380Y-185122761D02*
X66658714Y-185122761D01*
X66849190Y-185122761D02*
X66753952Y-185075142D01*
X66706333Y-185027523D01*
X66658714Y-184932285D01*
X66658714Y-184837047D01*
X67325380Y-184503714D02*
X66325380Y-184503714D01*
X67325380Y-184027523D02*
X66325380Y-184027523D01*
X67325380Y-183456095D01*
X66325380Y-183456095D01*
X67325380Y-182456095D02*
X67325380Y-183027523D01*
X67325380Y-182741809D02*
X66325380Y-182741809D01*
X66468238Y-182837047D01*
X66563476Y-182932285D01*
X66611095Y-183027523D01*
X84510142Y-193360857D02*
X84557761Y-193408476D01*
X84605380Y-193551333D01*
X84605380Y-193646571D01*
X84557761Y-193789428D01*
X84462523Y-193884666D01*
X84367285Y-193932285D01*
X84176809Y-193979904D01*
X84033952Y-193979904D01*
X83843476Y-193932285D01*
X83748238Y-193884666D01*
X83653000Y-193789428D01*
X83605380Y-193646571D01*
X83605380Y-193551333D01*
X83653000Y-193408476D01*
X83700619Y-193360857D01*
X84605380Y-192789428D02*
X84557761Y-192884666D01*
X84510142Y-192932285D01*
X84414904Y-192979904D01*
X84129190Y-192979904D01*
X84033952Y-192932285D01*
X83986333Y-192884666D01*
X83938714Y-192789428D01*
X83938714Y-192646571D01*
X83986333Y-192551333D01*
X84033952Y-192503714D01*
X84129190Y-192456095D01*
X84414904Y-192456095D01*
X84510142Y-192503714D01*
X84557761Y-192551333D01*
X84605380Y-192646571D01*
X84605380Y-192789428D01*
X83938714Y-192027523D02*
X84605380Y-192027523D01*
X84033952Y-192027523D02*
X83986333Y-191979904D01*
X83938714Y-191884666D01*
X83938714Y-191741809D01*
X83986333Y-191646571D01*
X84081571Y-191598952D01*
X84605380Y-191598952D01*
X83938714Y-191122761D02*
X84605380Y-191122761D01*
X84033952Y-191122761D02*
X83986333Y-191075142D01*
X83938714Y-190979904D01*
X83938714Y-190837047D01*
X83986333Y-190741809D01*
X84081571Y-190694190D01*
X84605380Y-190694190D01*
X84700619Y-190456095D02*
X84700619Y-189694190D01*
X83605380Y-189265619D02*
X83605380Y-189170380D01*
X83653000Y-189075142D01*
X83700619Y-189027523D01*
X83795857Y-188979904D01*
X83986333Y-188932285D01*
X84224428Y-188932285D01*
X84414904Y-188979904D01*
X84510142Y-189027523D01*
X84557761Y-189075142D01*
X84605380Y-189170380D01*
X84605380Y-189265619D01*
X84557761Y-189360857D01*
X84510142Y-189408476D01*
X84414904Y-189456095D01*
X84224428Y-189503714D01*
X83986333Y-189503714D01*
X83795857Y-189456095D01*
X83700619Y-189408476D01*
X83653000Y-189360857D01*
X83605380Y-189265619D01*
X83700619Y-188551333D02*
X83653000Y-188503714D01*
X83605380Y-188408476D01*
X83605380Y-188170380D01*
X83653000Y-188075142D01*
X83700619Y-188027523D01*
X83795857Y-187979904D01*
X83891095Y-187979904D01*
X84033952Y-188027523D01*
X84605380Y-188598952D01*
X84605380Y-187979904D01*
X84605380Y-187646571D02*
X83938714Y-187122761D01*
X83938714Y-187646571D02*
X84605380Y-187122761D01*
X83605380Y-186551333D02*
X83605380Y-186456095D01*
X83653000Y-186360857D01*
X83700619Y-186313238D01*
X83795857Y-186265619D01*
X83986333Y-186218000D01*
X84224428Y-186218000D01*
X84414904Y-186265619D01*
X84510142Y-186313238D01*
X84557761Y-186360857D01*
X84605380Y-186456095D01*
X84605380Y-186551333D01*
X84557761Y-186646571D01*
X84510142Y-186694190D01*
X84414904Y-186741809D01*
X84224428Y-186789428D01*
X83986333Y-186789428D01*
X83795857Y-186741809D01*
X83700619Y-186694190D01*
X83653000Y-186646571D01*
X83605380Y-186551333D01*
X83605380Y-185884666D02*
X83605380Y-185265619D01*
X83986333Y-185598952D01*
X83986333Y-185456095D01*
X84033952Y-185360857D01*
X84081571Y-185313238D01*
X84176809Y-185265619D01*
X84414904Y-185265619D01*
X84510142Y-185313238D01*
X84557761Y-185360857D01*
X84605380Y-185456095D01*
X84605380Y-185741809D01*
X84557761Y-185837047D01*
X84510142Y-185884666D01*
X84700619Y-185075142D02*
X84700619Y-184313238D01*
X83605380Y-183884666D02*
X83605380Y-183694190D01*
X83653000Y-183598952D01*
X83748238Y-183503714D01*
X83938714Y-183456095D01*
X84272047Y-183456095D01*
X84462523Y-183503714D01*
X84557761Y-183598952D01*
X84605380Y-183694190D01*
X84605380Y-183884666D01*
X84557761Y-183979904D01*
X84462523Y-184075142D01*
X84272047Y-184122761D01*
X83938714Y-184122761D01*
X83748238Y-184075142D01*
X83653000Y-183979904D01*
X83605380Y-183884666D01*
X84605380Y-182598952D02*
X83605380Y-182598952D01*
X84557761Y-182598952D02*
X84605380Y-182694190D01*
X84605380Y-182884666D01*
X84557761Y-182979904D01*
X84510142Y-183027523D01*
X84414904Y-183075142D01*
X84129190Y-183075142D01*
X84033952Y-183027523D01*
X83986333Y-182979904D01*
X83938714Y-182884666D01*
X83938714Y-182694190D01*
X83986333Y-182598952D01*
X84605380Y-181694190D02*
X83605380Y-181694190D01*
X84557761Y-181694190D02*
X84605380Y-181789428D01*
X84605380Y-181979904D01*
X84557761Y-182075142D01*
X84510142Y-182122761D01*
X84414904Y-182170380D01*
X84129190Y-182170380D01*
X84033952Y-182122761D01*
X83986333Y-182075142D01*
X83938714Y-181979904D01*
X83938714Y-181789428D01*
X83986333Y-181694190D01*
X84700619Y-181456095D02*
X84700619Y-180694190D01*
X84081571Y-180456095D02*
X84081571Y-180122761D01*
X84605380Y-179979904D02*
X84605380Y-180456095D01*
X83605380Y-180456095D01*
X83605380Y-179979904D01*
X83938714Y-179646571D02*
X84605380Y-179408476D01*
X83938714Y-179170380D01*
X84557761Y-178408476D02*
X84605380Y-178503714D01*
X84605380Y-178694190D01*
X84557761Y-178789428D01*
X84462523Y-178837047D01*
X84081571Y-178837047D01*
X83986333Y-178789428D01*
X83938714Y-178694190D01*
X83938714Y-178503714D01*
X83986333Y-178408476D01*
X84081571Y-178360857D01*
X84176809Y-178360857D01*
X84272047Y-178837047D01*
X83938714Y-177932285D02*
X84605380Y-177932285D01*
X84033952Y-177932285D02*
X83986333Y-177884666D01*
X83938714Y-177789428D01*
X83938714Y-177646571D01*
X83986333Y-177551333D01*
X84081571Y-177503714D01*
X84605380Y-177503714D01*
X72298714Y-186170380D02*
X72298714Y-185170380D01*
X72679666Y-185170380D01*
X72774904Y-185218000D01*
X72822523Y-185265619D01*
X72870142Y-185360857D01*
X72870142Y-185503714D01*
X72822523Y-185598952D01*
X72774904Y-185646571D01*
X72679666Y-185694190D01*
X72298714Y-185694190D01*
X73441571Y-186170380D02*
X73346333Y-186122761D01*
X73298714Y-186075142D01*
X73251095Y-185979904D01*
X73251095Y-185694190D01*
X73298714Y-185598952D01*
X73346333Y-185551333D01*
X73441571Y-185503714D01*
X73584428Y-185503714D01*
X73679666Y-185551333D01*
X73727285Y-185598952D01*
X73774904Y-185694190D01*
X73774904Y-185979904D01*
X73727285Y-186075142D01*
X73679666Y-186122761D01*
X73584428Y-186170380D01*
X73441571Y-186170380D01*
X74108238Y-185503714D02*
X74298714Y-186170380D01*
X74489190Y-185694190D01*
X74679666Y-186170380D01*
X74870142Y-185503714D01*
X75632047Y-186122761D02*
X75536809Y-186170380D01*
X75346333Y-186170380D01*
X75251095Y-186122761D01*
X75203476Y-186027523D01*
X75203476Y-185646571D01*
X75251095Y-185551333D01*
X75346333Y-185503714D01*
X75536809Y-185503714D01*
X75632047Y-185551333D01*
X75679666Y-185646571D01*
X75679666Y-185741809D01*
X75203476Y-185837047D01*
X76108238Y-186170380D02*
X76108238Y-185503714D01*
X76108238Y-185694190D02*
X76155857Y-185598952D01*
X76203476Y-185551333D01*
X76298714Y-185503714D01*
X76393952Y-185503714D01*
X76727285Y-186170380D02*
X76727285Y-185170380D01*
X77203476Y-186170380D02*
X77203476Y-185170380D01*
X77774904Y-186170380D01*
X77774904Y-185170380D01*
X78774904Y-186170380D02*
X78203476Y-186170380D01*
X78489190Y-186170380D02*
X78489190Y-185170380D01*
X78393952Y-185313238D01*
X78298714Y-185408476D01*
X78203476Y-185456095D01*
%TO.C,H4*%
X118893095Y-183481380D02*
X118893095Y-182481380D01*
X118893095Y-182957571D02*
X119464523Y-182957571D01*
X119464523Y-183481380D02*
X119464523Y-182481380D01*
X120369285Y-182814714D02*
X120369285Y-183481380D01*
X120131190Y-182433761D02*
X119893095Y-183148047D01*
X120512142Y-183148047D01*
X113083571Y-191081380D02*
X113083571Y-190081380D01*
X113416904Y-190795666D01*
X113750238Y-190081380D01*
X113750238Y-191081380D01*
X114369285Y-191081380D02*
X114274047Y-191033761D01*
X114226428Y-190986142D01*
X114178809Y-190890904D01*
X114178809Y-190605190D01*
X114226428Y-190509952D01*
X114274047Y-190462333D01*
X114369285Y-190414714D01*
X114512142Y-190414714D01*
X114607380Y-190462333D01*
X114655000Y-190509952D01*
X114702619Y-190605190D01*
X114702619Y-190890904D01*
X114655000Y-190986142D01*
X114607380Y-191033761D01*
X114512142Y-191081380D01*
X114369285Y-191081380D01*
X115559761Y-190414714D02*
X115559761Y-191081380D01*
X115131190Y-190414714D02*
X115131190Y-190938523D01*
X115178809Y-191033761D01*
X115274047Y-191081380D01*
X115416904Y-191081380D01*
X115512142Y-191033761D01*
X115559761Y-190986142D01*
X116035952Y-190414714D02*
X116035952Y-191081380D01*
X116035952Y-190509952D02*
X116083571Y-190462333D01*
X116178809Y-190414714D01*
X116321666Y-190414714D01*
X116416904Y-190462333D01*
X116464523Y-190557571D01*
X116464523Y-191081380D01*
X116797857Y-190414714D02*
X117178809Y-190414714D01*
X116940714Y-190081380D02*
X116940714Y-190938523D01*
X116988333Y-191033761D01*
X117083571Y-191081380D01*
X117178809Y-191081380D01*
X117512142Y-191081380D02*
X117512142Y-190414714D01*
X117512142Y-190081380D02*
X117464523Y-190129000D01*
X117512142Y-190176619D01*
X117559761Y-190129000D01*
X117512142Y-190081380D01*
X117512142Y-190176619D01*
X117988333Y-190414714D02*
X117988333Y-191081380D01*
X117988333Y-190509952D02*
X118035952Y-190462333D01*
X118131190Y-190414714D01*
X118274047Y-190414714D01*
X118369285Y-190462333D01*
X118416904Y-190557571D01*
X118416904Y-191081380D01*
X119321666Y-190414714D02*
X119321666Y-191224238D01*
X119274047Y-191319476D01*
X119226428Y-191367095D01*
X119131190Y-191414714D01*
X118988333Y-191414714D01*
X118893095Y-191367095D01*
X119321666Y-191033761D02*
X119226428Y-191081380D01*
X119035952Y-191081380D01*
X118940714Y-191033761D01*
X118893095Y-190986142D01*
X118845476Y-190890904D01*
X118845476Y-190605190D01*
X118893095Y-190509952D01*
X118940714Y-190462333D01*
X119035952Y-190414714D01*
X119226428Y-190414714D01*
X119321666Y-190462333D01*
X119797857Y-191081380D02*
X119797857Y-190081380D01*
X119797857Y-190557571D02*
X120369285Y-190557571D01*
X120369285Y-191081380D02*
X120369285Y-190081380D01*
X120988333Y-191081380D02*
X120893095Y-191033761D01*
X120845476Y-190986142D01*
X120797857Y-190890904D01*
X120797857Y-190605190D01*
X120845476Y-190509952D01*
X120893095Y-190462333D01*
X120988333Y-190414714D01*
X121131190Y-190414714D01*
X121226428Y-190462333D01*
X121274047Y-190509952D01*
X121321666Y-190605190D01*
X121321666Y-190890904D01*
X121274047Y-190986142D01*
X121226428Y-191033761D01*
X121131190Y-191081380D01*
X120988333Y-191081380D01*
X121893095Y-191081380D02*
X121797857Y-191033761D01*
X121750238Y-190938523D01*
X121750238Y-190081380D01*
X122655000Y-191033761D02*
X122559761Y-191081380D01*
X122369285Y-191081380D01*
X122274047Y-191033761D01*
X122226428Y-190938523D01*
X122226428Y-190557571D01*
X122274047Y-190462333D01*
X122369285Y-190414714D01*
X122559761Y-190414714D01*
X122655000Y-190462333D01*
X122702619Y-190557571D01*
X122702619Y-190652809D01*
X122226428Y-190748047D01*
X122893095Y-191176619D02*
X123655000Y-191176619D01*
X123893095Y-191081380D02*
X123893095Y-190081380D01*
X124274047Y-190081380D01*
X124369285Y-190129000D01*
X124416904Y-190176619D01*
X124464523Y-190271857D01*
X124464523Y-190414714D01*
X124416904Y-190509952D01*
X124369285Y-190557571D01*
X124274047Y-190605190D01*
X123893095Y-190605190D01*
X125321666Y-191081380D02*
X125321666Y-190557571D01*
X125274047Y-190462333D01*
X125178809Y-190414714D01*
X124988333Y-190414714D01*
X124893095Y-190462333D01*
X125321666Y-191033761D02*
X125226428Y-191081380D01*
X124988333Y-191081380D01*
X124893095Y-191033761D01*
X124845476Y-190938523D01*
X124845476Y-190843285D01*
X124893095Y-190748047D01*
X124988333Y-190700428D01*
X125226428Y-190700428D01*
X125321666Y-190652809D01*
X126226428Y-191081380D02*
X126226428Y-190081380D01*
X126226428Y-191033761D02*
X126131190Y-191081380D01*
X125940714Y-191081380D01*
X125845476Y-191033761D01*
X125797857Y-190986142D01*
X125750238Y-190890904D01*
X125750238Y-190605190D01*
X125797857Y-190509952D01*
X125845476Y-190462333D01*
X125940714Y-190414714D01*
X126131190Y-190414714D01*
X126226428Y-190462333D01*
X119193095Y-187281380D02*
X119193095Y-186281380D01*
X119193095Y-186757571D02*
X119764523Y-186757571D01*
X119764523Y-187281380D02*
X119764523Y-186281380D01*
X120669285Y-186614714D02*
X120669285Y-187281380D01*
X120431190Y-186233761D02*
X120193095Y-186948047D01*
X120812142Y-186948047D01*
%TO.C,H3*%
X56907095Y-183483380D02*
X56907095Y-182483380D01*
X56907095Y-182959571D02*
X57478523Y-182959571D01*
X57478523Y-183483380D02*
X57478523Y-182483380D01*
X57859476Y-182483380D02*
X58478523Y-182483380D01*
X58145190Y-182864333D01*
X58288047Y-182864333D01*
X58383285Y-182911952D01*
X58430904Y-182959571D01*
X58478523Y-183054809D01*
X58478523Y-183292904D01*
X58430904Y-183388142D01*
X58383285Y-183435761D01*
X58288047Y-183483380D01*
X58002333Y-183483380D01*
X57907095Y-183435761D01*
X57859476Y-183388142D01*
X51097571Y-191083380D02*
X51097571Y-190083380D01*
X51430904Y-190797666D01*
X51764238Y-190083380D01*
X51764238Y-191083380D01*
X52383285Y-191083380D02*
X52288047Y-191035761D01*
X52240428Y-190988142D01*
X52192809Y-190892904D01*
X52192809Y-190607190D01*
X52240428Y-190511952D01*
X52288047Y-190464333D01*
X52383285Y-190416714D01*
X52526142Y-190416714D01*
X52621380Y-190464333D01*
X52668999Y-190511952D01*
X52716619Y-190607190D01*
X52716619Y-190892904D01*
X52668999Y-190988142D01*
X52621380Y-191035761D01*
X52526142Y-191083380D01*
X52383285Y-191083380D01*
X53573761Y-190416714D02*
X53573761Y-191083380D01*
X53145190Y-190416714D02*
X53145190Y-190940523D01*
X53192809Y-191035761D01*
X53288047Y-191083380D01*
X53430904Y-191083380D01*
X53526142Y-191035761D01*
X53573761Y-190988142D01*
X54049952Y-190416714D02*
X54049952Y-191083380D01*
X54049952Y-190511952D02*
X54097571Y-190464333D01*
X54192809Y-190416714D01*
X54335666Y-190416714D01*
X54430904Y-190464333D01*
X54478523Y-190559571D01*
X54478523Y-191083380D01*
X54811857Y-190416714D02*
X55192809Y-190416714D01*
X54954714Y-190083380D02*
X54954714Y-190940523D01*
X55002333Y-191035761D01*
X55097571Y-191083380D01*
X55192809Y-191083380D01*
X55526142Y-191083380D02*
X55526142Y-190416714D01*
X55526142Y-190083380D02*
X55478523Y-190131000D01*
X55526142Y-190178619D01*
X55573761Y-190131000D01*
X55526142Y-190083380D01*
X55526142Y-190178619D01*
X56002333Y-190416714D02*
X56002333Y-191083380D01*
X56002333Y-190511952D02*
X56049952Y-190464333D01*
X56145190Y-190416714D01*
X56288047Y-190416714D01*
X56383285Y-190464333D01*
X56430904Y-190559571D01*
X56430904Y-191083380D01*
X57335666Y-190416714D02*
X57335666Y-191226238D01*
X57288047Y-191321476D01*
X57240428Y-191369095D01*
X57145190Y-191416714D01*
X57002333Y-191416714D01*
X56907095Y-191369095D01*
X57335666Y-191035761D02*
X57240428Y-191083380D01*
X57049952Y-191083380D01*
X56954714Y-191035761D01*
X56907095Y-190988142D01*
X56859476Y-190892904D01*
X56859476Y-190607190D01*
X56907095Y-190511952D01*
X56954714Y-190464333D01*
X57049952Y-190416714D01*
X57240428Y-190416714D01*
X57335666Y-190464333D01*
X57811857Y-191083380D02*
X57811857Y-190083380D01*
X57811857Y-190559571D02*
X58383285Y-190559571D01*
X58383285Y-191083380D02*
X58383285Y-190083380D01*
X59002333Y-191083380D02*
X58907095Y-191035761D01*
X58859476Y-190988142D01*
X58811857Y-190892904D01*
X58811857Y-190607190D01*
X58859476Y-190511952D01*
X58907095Y-190464333D01*
X59002333Y-190416714D01*
X59145190Y-190416714D01*
X59240428Y-190464333D01*
X59288047Y-190511952D01*
X59335666Y-190607190D01*
X59335666Y-190892904D01*
X59288047Y-190988142D01*
X59240428Y-191035761D01*
X59145190Y-191083380D01*
X59002333Y-191083380D01*
X59907095Y-191083380D02*
X59811857Y-191035761D01*
X59764238Y-190940523D01*
X59764238Y-190083380D01*
X60668999Y-191035761D02*
X60573761Y-191083380D01*
X60383285Y-191083380D01*
X60288047Y-191035761D01*
X60240428Y-190940523D01*
X60240428Y-190559571D01*
X60288047Y-190464333D01*
X60383285Y-190416714D01*
X60573761Y-190416714D01*
X60668999Y-190464333D01*
X60716619Y-190559571D01*
X60716619Y-190654809D01*
X60240428Y-190750047D01*
X60907095Y-191178619D02*
X61668999Y-191178619D01*
X61907095Y-191083380D02*
X61907095Y-190083380D01*
X62288047Y-190083380D01*
X62383285Y-190131000D01*
X62430904Y-190178619D01*
X62478523Y-190273857D01*
X62478523Y-190416714D01*
X62430904Y-190511952D01*
X62383285Y-190559571D01*
X62288047Y-190607190D01*
X61907095Y-190607190D01*
X63335666Y-191083380D02*
X63335666Y-190559571D01*
X63288047Y-190464333D01*
X63192809Y-190416714D01*
X63002333Y-190416714D01*
X62907095Y-190464333D01*
X63335666Y-191035761D02*
X63240428Y-191083380D01*
X63002333Y-191083380D01*
X62907095Y-191035761D01*
X62859476Y-190940523D01*
X62859476Y-190845285D01*
X62907095Y-190750047D01*
X63002333Y-190702428D01*
X63240428Y-190702428D01*
X63335666Y-190654809D01*
X64240428Y-191083380D02*
X64240428Y-190083380D01*
X64240428Y-191035761D02*
X64145190Y-191083380D01*
X63954714Y-191083380D01*
X63859476Y-191035761D01*
X63811857Y-190988142D01*
X63764238Y-190892904D01*
X63764238Y-190607190D01*
X63811857Y-190511952D01*
X63859476Y-190464333D01*
X63954714Y-190416714D01*
X64145190Y-190416714D01*
X64240428Y-190464333D01*
X57207095Y-187283380D02*
X57207095Y-186283380D01*
X57207095Y-186759571D02*
X57778523Y-186759571D01*
X57778523Y-187283380D02*
X57778523Y-186283380D01*
X58159476Y-186283380D02*
X58778523Y-186283380D01*
X58445190Y-186664333D01*
X58588047Y-186664333D01*
X58683285Y-186711952D01*
X58730904Y-186759571D01*
X58778523Y-186854809D01*
X58778523Y-187092904D01*
X58730904Y-187188142D01*
X58683285Y-187235761D01*
X58588047Y-187283380D01*
X58302333Y-187283380D01*
X58207095Y-187235761D01*
X58159476Y-187188142D01*
%TO.C,H1*%
X119101095Y-15166380D02*
X119101095Y-14166380D01*
X119101095Y-14642571D02*
X119672523Y-14642571D01*
X119672523Y-15166380D02*
X119672523Y-14166380D01*
X120672523Y-15166380D02*
X120101095Y-15166380D01*
X120386809Y-15166380D02*
X120386809Y-14166380D01*
X120291571Y-14309238D01*
X120196333Y-14404476D01*
X120101095Y-14452095D01*
X125103571Y-20679380D02*
X125103571Y-19679380D01*
X125436904Y-20393666D01*
X125770238Y-19679380D01*
X125770238Y-20679380D01*
X126389285Y-20679380D02*
X126294047Y-20631761D01*
X126246428Y-20584142D01*
X126198809Y-20488904D01*
X126198809Y-20203190D01*
X126246428Y-20107952D01*
X126294047Y-20060333D01*
X126389285Y-20012714D01*
X126532142Y-20012714D01*
X126627380Y-20060333D01*
X126675000Y-20107952D01*
X126722619Y-20203190D01*
X126722619Y-20488904D01*
X126675000Y-20584142D01*
X126627380Y-20631761D01*
X126532142Y-20679380D01*
X126389285Y-20679380D01*
X127579761Y-20012714D02*
X127579761Y-20679380D01*
X127151190Y-20012714D02*
X127151190Y-20536523D01*
X127198809Y-20631761D01*
X127294047Y-20679380D01*
X127436904Y-20679380D01*
X127532142Y-20631761D01*
X127579761Y-20584142D01*
X128055952Y-20012714D02*
X128055952Y-20679380D01*
X128055952Y-20107952D02*
X128103571Y-20060333D01*
X128198809Y-20012714D01*
X128341666Y-20012714D01*
X128436904Y-20060333D01*
X128484523Y-20155571D01*
X128484523Y-20679380D01*
X128817857Y-20012714D02*
X129198809Y-20012714D01*
X128960714Y-19679380D02*
X128960714Y-20536523D01*
X129008333Y-20631761D01*
X129103571Y-20679380D01*
X129198809Y-20679380D01*
X129532142Y-20679380D02*
X129532142Y-20012714D01*
X129532142Y-19679380D02*
X129484523Y-19727000D01*
X129532142Y-19774619D01*
X129579761Y-19727000D01*
X129532142Y-19679380D01*
X129532142Y-19774619D01*
X130008333Y-20012714D02*
X130008333Y-20679380D01*
X130008333Y-20107952D02*
X130055952Y-20060333D01*
X130151190Y-20012714D01*
X130294047Y-20012714D01*
X130389285Y-20060333D01*
X130436904Y-20155571D01*
X130436904Y-20679380D01*
X131341666Y-20012714D02*
X131341666Y-20822238D01*
X131294047Y-20917476D01*
X131246428Y-20965095D01*
X131151190Y-21012714D01*
X131008333Y-21012714D01*
X130913095Y-20965095D01*
X131341666Y-20631761D02*
X131246428Y-20679380D01*
X131055952Y-20679380D01*
X130960714Y-20631761D01*
X130913095Y-20584142D01*
X130865476Y-20488904D01*
X130865476Y-20203190D01*
X130913095Y-20107952D01*
X130960714Y-20060333D01*
X131055952Y-20012714D01*
X131246428Y-20012714D01*
X131341666Y-20060333D01*
X131817857Y-20679380D02*
X131817857Y-19679380D01*
X131817857Y-20155571D02*
X132389285Y-20155571D01*
X132389285Y-20679380D02*
X132389285Y-19679380D01*
X133008333Y-20679380D02*
X132913095Y-20631761D01*
X132865476Y-20584142D01*
X132817857Y-20488904D01*
X132817857Y-20203190D01*
X132865476Y-20107952D01*
X132913095Y-20060333D01*
X133008333Y-20012714D01*
X133151190Y-20012714D01*
X133246428Y-20060333D01*
X133294047Y-20107952D01*
X133341666Y-20203190D01*
X133341666Y-20488904D01*
X133294047Y-20584142D01*
X133246428Y-20631761D01*
X133151190Y-20679380D01*
X133008333Y-20679380D01*
X133913095Y-20679380D02*
X133817857Y-20631761D01*
X133770238Y-20536523D01*
X133770238Y-19679380D01*
X134675000Y-20631761D02*
X134579761Y-20679380D01*
X134389285Y-20679380D01*
X134294047Y-20631761D01*
X134246428Y-20536523D01*
X134246428Y-20155571D01*
X134294047Y-20060333D01*
X134389285Y-20012714D01*
X134579761Y-20012714D01*
X134675000Y-20060333D01*
X134722619Y-20155571D01*
X134722619Y-20250809D01*
X134246428Y-20346047D01*
X134913095Y-20774619D02*
X135675000Y-20774619D01*
X135913095Y-20679380D02*
X135913095Y-19679380D01*
X136294047Y-19679380D01*
X136389285Y-19727000D01*
X136436904Y-19774619D01*
X136484523Y-19869857D01*
X136484523Y-20012714D01*
X136436904Y-20107952D01*
X136389285Y-20155571D01*
X136294047Y-20203190D01*
X135913095Y-20203190D01*
X137341666Y-20679380D02*
X137341666Y-20155571D01*
X137294047Y-20060333D01*
X137198809Y-20012714D01*
X137008333Y-20012714D01*
X136913095Y-20060333D01*
X137341666Y-20631761D02*
X137246428Y-20679380D01*
X137008333Y-20679380D01*
X136913095Y-20631761D01*
X136865476Y-20536523D01*
X136865476Y-20441285D01*
X136913095Y-20346047D01*
X137008333Y-20298428D01*
X137246428Y-20298428D01*
X137341666Y-20250809D01*
X138246428Y-20679380D02*
X138246428Y-19679380D01*
X138246428Y-20631761D02*
X138151190Y-20679380D01*
X137960714Y-20679380D01*
X137865476Y-20631761D01*
X137817857Y-20584142D01*
X137770238Y-20488904D01*
X137770238Y-20203190D01*
X137817857Y-20107952D01*
X137865476Y-20060333D01*
X137960714Y-20012714D01*
X138151190Y-20012714D01*
X138246428Y-20060333D01*
X119195095Y-20287380D02*
X119195095Y-19287380D01*
X119195095Y-19763571D02*
X119766523Y-19763571D01*
X119766523Y-20287380D02*
X119766523Y-19287380D01*
X120766523Y-20287380D02*
X120195095Y-20287380D01*
X120480809Y-20287380D02*
X120480809Y-19287380D01*
X120385571Y-19430238D01*
X120290333Y-19525476D01*
X120195095Y-19573095D01*
%TO.C,RAMP_OUT1*%
X67331809Y-25787380D02*
X66998476Y-25311190D01*
X66760380Y-25787380D02*
X66760380Y-24787380D01*
X67141333Y-24787380D01*
X67236571Y-24835000D01*
X67284190Y-24882619D01*
X67331809Y-24977857D01*
X67331809Y-25120714D01*
X67284190Y-25215952D01*
X67236571Y-25263571D01*
X67141333Y-25311190D01*
X66760380Y-25311190D01*
X67712761Y-25501666D02*
X68188952Y-25501666D01*
X67617523Y-25787380D02*
X67950857Y-24787380D01*
X68284190Y-25787380D01*
X68617523Y-25787380D02*
X68617523Y-24787380D01*
X68950857Y-25501666D01*
X69284190Y-24787380D01*
X69284190Y-25787380D01*
X69760380Y-25787380D02*
X69760380Y-24787380D01*
X70141333Y-24787380D01*
X70236571Y-24835000D01*
X70284190Y-24882619D01*
X70331809Y-24977857D01*
X70331809Y-25120714D01*
X70284190Y-25215952D01*
X70236571Y-25263571D01*
X70141333Y-25311190D01*
X69760380Y-25311190D01*
X70522285Y-25882619D02*
X71284190Y-25882619D01*
X71712761Y-24787380D02*
X71903238Y-24787380D01*
X71998476Y-24835000D01*
X72093714Y-24930238D01*
X72141333Y-25120714D01*
X72141333Y-25454047D01*
X72093714Y-25644523D01*
X71998476Y-25739761D01*
X71903238Y-25787380D01*
X71712761Y-25787380D01*
X71617523Y-25739761D01*
X71522285Y-25644523D01*
X71474666Y-25454047D01*
X71474666Y-25120714D01*
X71522285Y-24930238D01*
X71617523Y-24835000D01*
X71712761Y-24787380D01*
X72569904Y-24787380D02*
X72569904Y-25596904D01*
X72617523Y-25692142D01*
X72665142Y-25739761D01*
X72760380Y-25787380D01*
X72950857Y-25787380D01*
X73046095Y-25739761D01*
X73093714Y-25692142D01*
X73141333Y-25596904D01*
X73141333Y-24787380D01*
X73474666Y-24787380D02*
X74046095Y-24787380D01*
X73760380Y-25787380D02*
X73760380Y-24787380D01*
X74903238Y-25787380D02*
X74331809Y-25787380D01*
X74617523Y-25787380D02*
X74617523Y-24787380D01*
X74522285Y-24930238D01*
X74427047Y-25025476D01*
X74331809Y-25073095D01*
X137115142Y-31926142D02*
X137067523Y-31973761D01*
X136924666Y-32021380D01*
X136829428Y-32021380D01*
X136686571Y-31973761D01*
X136591333Y-31878523D01*
X136543714Y-31783285D01*
X136496095Y-31592809D01*
X136496095Y-31449952D01*
X136543714Y-31259476D01*
X136591333Y-31164238D01*
X136686571Y-31069000D01*
X136829428Y-31021380D01*
X136924666Y-31021380D01*
X137067523Y-31069000D01*
X137115142Y-31116619D01*
X137686571Y-32021380D02*
X137591333Y-31973761D01*
X137543714Y-31926142D01*
X137496095Y-31830904D01*
X137496095Y-31545190D01*
X137543714Y-31449952D01*
X137591333Y-31402333D01*
X137686571Y-31354714D01*
X137829428Y-31354714D01*
X137924666Y-31402333D01*
X137972285Y-31449952D01*
X138019904Y-31545190D01*
X138019904Y-31830904D01*
X137972285Y-31926142D01*
X137924666Y-31973761D01*
X137829428Y-32021380D01*
X137686571Y-32021380D01*
X138448476Y-31354714D02*
X138448476Y-32021380D01*
X138448476Y-31449952D02*
X138496095Y-31402333D01*
X138591333Y-31354714D01*
X138734190Y-31354714D01*
X138829428Y-31402333D01*
X138877047Y-31497571D01*
X138877047Y-32021380D01*
X139353238Y-31354714D02*
X139353238Y-32021380D01*
X139353238Y-31449952D02*
X139400857Y-31402333D01*
X139496095Y-31354714D01*
X139638952Y-31354714D01*
X139734190Y-31402333D01*
X139781809Y-31497571D01*
X139781809Y-32021380D01*
X140019904Y-32116619D02*
X140781809Y-32116619D01*
X141210380Y-31021380D02*
X141305619Y-31021380D01*
X141400857Y-31069000D01*
X141448476Y-31116619D01*
X141496095Y-31211857D01*
X141543714Y-31402333D01*
X141543714Y-31640428D01*
X141496095Y-31830904D01*
X141448476Y-31926142D01*
X141400857Y-31973761D01*
X141305619Y-32021380D01*
X141210380Y-32021380D01*
X141115142Y-31973761D01*
X141067523Y-31926142D01*
X141019904Y-31830904D01*
X140972285Y-31640428D01*
X140972285Y-31402333D01*
X141019904Y-31211857D01*
X141067523Y-31116619D01*
X141115142Y-31069000D01*
X141210380Y-31021380D01*
X141924666Y-31116619D02*
X141972285Y-31069000D01*
X142067523Y-31021380D01*
X142305619Y-31021380D01*
X142400857Y-31069000D01*
X142448476Y-31116619D01*
X142496095Y-31211857D01*
X142496095Y-31307095D01*
X142448476Y-31449952D01*
X141877047Y-32021380D01*
X142496095Y-32021380D01*
X142829428Y-32021380D02*
X143353238Y-31354714D01*
X142829428Y-31354714D02*
X143353238Y-32021380D01*
X143924666Y-31021380D02*
X144019904Y-31021380D01*
X144115142Y-31069000D01*
X144162761Y-31116619D01*
X144210380Y-31211857D01*
X144258000Y-31402333D01*
X144258000Y-31640428D01*
X144210380Y-31830904D01*
X144162761Y-31926142D01*
X144115142Y-31973761D01*
X144019904Y-32021380D01*
X143924666Y-32021380D01*
X143829428Y-31973761D01*
X143781809Y-31926142D01*
X143734190Y-31830904D01*
X143686571Y-31640428D01*
X143686571Y-31402333D01*
X143734190Y-31211857D01*
X143781809Y-31116619D01*
X143829428Y-31069000D01*
X143924666Y-31021380D01*
X145115142Y-31354714D02*
X145115142Y-32021380D01*
X144877047Y-30973761D02*
X144638952Y-31688047D01*
X145258000Y-31688047D01*
X145400857Y-32116619D02*
X146162761Y-32116619D01*
X146591333Y-31021380D02*
X146781809Y-31021380D01*
X146877047Y-31069000D01*
X146972285Y-31164238D01*
X147019904Y-31354714D01*
X147019904Y-31688047D01*
X146972285Y-31878523D01*
X146877047Y-31973761D01*
X146781809Y-32021380D01*
X146591333Y-32021380D01*
X146496095Y-31973761D01*
X146400857Y-31878523D01*
X146353238Y-31688047D01*
X146353238Y-31354714D01*
X146400857Y-31164238D01*
X146496095Y-31069000D01*
X146591333Y-31021380D01*
X147877047Y-32021380D02*
X147877047Y-31021380D01*
X147877047Y-31973761D02*
X147781809Y-32021380D01*
X147591333Y-32021380D01*
X147496095Y-31973761D01*
X147448476Y-31926142D01*
X147400857Y-31830904D01*
X147400857Y-31545190D01*
X147448476Y-31449952D01*
X147496095Y-31402333D01*
X147591333Y-31354714D01*
X147781809Y-31354714D01*
X147877047Y-31402333D01*
X148781809Y-32021380D02*
X148781809Y-31021380D01*
X148781809Y-31973761D02*
X148686571Y-32021380D01*
X148496095Y-32021380D01*
X148400857Y-31973761D01*
X148353238Y-31926142D01*
X148305619Y-31830904D01*
X148305619Y-31545190D01*
X148353238Y-31449952D01*
X148400857Y-31402333D01*
X148496095Y-31354714D01*
X148686571Y-31354714D01*
X148781809Y-31402333D01*
X149019904Y-32116619D02*
X149781809Y-32116619D01*
X150019904Y-31497571D02*
X150353238Y-31497571D01*
X150496095Y-32021380D02*
X150019904Y-32021380D01*
X150019904Y-31021380D01*
X150496095Y-31021380D01*
X150829428Y-31354714D02*
X151067523Y-32021380D01*
X151305619Y-31354714D01*
X152067523Y-31973761D02*
X151972285Y-32021380D01*
X151781809Y-32021380D01*
X151686571Y-31973761D01*
X151638952Y-31878523D01*
X151638952Y-31497571D01*
X151686571Y-31402333D01*
X151781809Y-31354714D01*
X151972285Y-31354714D01*
X152067523Y-31402333D01*
X152115142Y-31497571D01*
X152115142Y-31592809D01*
X151638952Y-31688047D01*
X152543714Y-31354714D02*
X152543714Y-32021380D01*
X152543714Y-31449952D02*
X152591333Y-31402333D01*
X152686571Y-31354714D01*
X152829428Y-31354714D01*
X152924666Y-31402333D01*
X152972285Y-31497571D01*
X152972285Y-32021380D01*
X71260380Y-38721190D02*
X70784190Y-39054523D01*
X71260380Y-39292619D02*
X70260380Y-39292619D01*
X70260380Y-38911666D01*
X70308000Y-38816428D01*
X70355619Y-38768809D01*
X70450857Y-38721190D01*
X70593714Y-38721190D01*
X70688952Y-38768809D01*
X70736571Y-38816428D01*
X70784190Y-38911666D01*
X70784190Y-39292619D01*
X70974666Y-38340238D02*
X70974666Y-37864047D01*
X71260380Y-38435476D02*
X70260380Y-38102142D01*
X71260380Y-37768809D01*
X71260380Y-37435476D02*
X70260380Y-37435476D01*
X70974666Y-37102142D01*
X70260380Y-36768809D01*
X71260380Y-36768809D01*
X71260380Y-36292619D02*
X70260380Y-36292619D01*
X70260380Y-35911666D01*
X70308000Y-35816428D01*
X70355619Y-35768809D01*
X70450857Y-35721190D01*
X70593714Y-35721190D01*
X70688952Y-35768809D01*
X70736571Y-35816428D01*
X70784190Y-35911666D01*
X70784190Y-36292619D01*
X71355619Y-35530714D02*
X71355619Y-34768809D01*
X70260380Y-34340238D02*
X70260380Y-34149761D01*
X70308000Y-34054523D01*
X70403238Y-33959285D01*
X70593714Y-33911666D01*
X70927047Y-33911666D01*
X71117523Y-33959285D01*
X71212761Y-34054523D01*
X71260380Y-34149761D01*
X71260380Y-34340238D01*
X71212761Y-34435476D01*
X71117523Y-34530714D01*
X70927047Y-34578333D01*
X70593714Y-34578333D01*
X70403238Y-34530714D01*
X70308000Y-34435476D01*
X70260380Y-34340238D01*
X70260380Y-33483095D02*
X71069904Y-33483095D01*
X71165142Y-33435476D01*
X71212761Y-33387857D01*
X71260380Y-33292619D01*
X71260380Y-33102142D01*
X71212761Y-33006904D01*
X71165142Y-32959285D01*
X71069904Y-32911666D01*
X70260380Y-32911666D01*
X70260380Y-32578333D02*
X70260380Y-32006904D01*
X71260380Y-32292619D02*
X70260380Y-32292619D01*
X71260380Y-31149761D02*
X71260380Y-31721190D01*
X71260380Y-31435476D02*
X70260380Y-31435476D01*
X70403238Y-31530714D01*
X70498476Y-31625952D01*
X70546095Y-31721190D01*
%TO.C,RAMP_IN1*%
X102979476Y-45858380D02*
X102646142Y-45382190D01*
X102408047Y-45858380D02*
X102408047Y-44858380D01*
X102789000Y-44858380D01*
X102884238Y-44906000D01*
X102931857Y-44953619D01*
X102979476Y-45048857D01*
X102979476Y-45191714D01*
X102931857Y-45286952D01*
X102884238Y-45334571D01*
X102789000Y-45382190D01*
X102408047Y-45382190D01*
X103360428Y-45572666D02*
X103836619Y-45572666D01*
X103265190Y-45858380D02*
X103598523Y-44858380D01*
X103931857Y-45858380D01*
X104265190Y-45858380D02*
X104265190Y-44858380D01*
X104598523Y-45572666D01*
X104931857Y-44858380D01*
X104931857Y-45858380D01*
X105408047Y-45858380D02*
X105408047Y-44858380D01*
X105789000Y-44858380D01*
X105884238Y-44906000D01*
X105931857Y-44953619D01*
X105979476Y-45048857D01*
X105979476Y-45191714D01*
X105931857Y-45286952D01*
X105884238Y-45334571D01*
X105789000Y-45382190D01*
X105408047Y-45382190D01*
X106169952Y-45953619D02*
X106931857Y-45953619D01*
X107169952Y-45858380D02*
X107169952Y-44858380D01*
X107646142Y-45858380D02*
X107646142Y-44858380D01*
X108217571Y-45858380D01*
X108217571Y-44858380D01*
X109217571Y-45858380D02*
X108646142Y-45858380D01*
X108931857Y-45858380D02*
X108931857Y-44858380D01*
X108836619Y-45001238D01*
X108741380Y-45096476D01*
X108646142Y-45144095D01*
X71510142Y-47402142D02*
X71462523Y-47449761D01*
X71319666Y-47497380D01*
X71224428Y-47497380D01*
X71081571Y-47449761D01*
X70986333Y-47354523D01*
X70938714Y-47259285D01*
X70891095Y-47068809D01*
X70891095Y-46925952D01*
X70938714Y-46735476D01*
X70986333Y-46640238D01*
X71081571Y-46545000D01*
X71224428Y-46497380D01*
X71319666Y-46497380D01*
X71462523Y-46545000D01*
X71510142Y-46592619D01*
X72081571Y-47497380D02*
X71986333Y-47449761D01*
X71938714Y-47402142D01*
X71891095Y-47306904D01*
X71891095Y-47021190D01*
X71938714Y-46925952D01*
X71986333Y-46878333D01*
X72081571Y-46830714D01*
X72224428Y-46830714D01*
X72319666Y-46878333D01*
X72367285Y-46925952D01*
X72414904Y-47021190D01*
X72414904Y-47306904D01*
X72367285Y-47402142D01*
X72319666Y-47449761D01*
X72224428Y-47497380D01*
X72081571Y-47497380D01*
X72843476Y-46830714D02*
X72843476Y-47497380D01*
X72843476Y-46925952D02*
X72891095Y-46878333D01*
X72986333Y-46830714D01*
X73129190Y-46830714D01*
X73224428Y-46878333D01*
X73272047Y-46973571D01*
X73272047Y-47497380D01*
X73748238Y-46830714D02*
X73748238Y-47497380D01*
X73748238Y-46925952D02*
X73795857Y-46878333D01*
X73891095Y-46830714D01*
X74033952Y-46830714D01*
X74129190Y-46878333D01*
X74176809Y-46973571D01*
X74176809Y-47497380D01*
X74414904Y-47592619D02*
X75176809Y-47592619D01*
X75605380Y-46497380D02*
X75700619Y-46497380D01*
X75795857Y-46545000D01*
X75843476Y-46592619D01*
X75891095Y-46687857D01*
X75938714Y-46878333D01*
X75938714Y-47116428D01*
X75891095Y-47306904D01*
X75843476Y-47402142D01*
X75795857Y-47449761D01*
X75700619Y-47497380D01*
X75605380Y-47497380D01*
X75510142Y-47449761D01*
X75462523Y-47402142D01*
X75414904Y-47306904D01*
X75367285Y-47116428D01*
X75367285Y-46878333D01*
X75414904Y-46687857D01*
X75462523Y-46592619D01*
X75510142Y-46545000D01*
X75605380Y-46497380D01*
X76319666Y-46592619D02*
X76367285Y-46545000D01*
X76462523Y-46497380D01*
X76700619Y-46497380D01*
X76795857Y-46545000D01*
X76843476Y-46592619D01*
X76891095Y-46687857D01*
X76891095Y-46783095D01*
X76843476Y-46925952D01*
X76272047Y-47497380D01*
X76891095Y-47497380D01*
X77224428Y-47497380D02*
X77748238Y-46830714D01*
X77224428Y-46830714D02*
X77748238Y-47497380D01*
X78319666Y-46497380D02*
X78414904Y-46497380D01*
X78510142Y-46545000D01*
X78557761Y-46592619D01*
X78605380Y-46687857D01*
X78653000Y-46878333D01*
X78653000Y-47116428D01*
X78605380Y-47306904D01*
X78557761Y-47402142D01*
X78510142Y-47449761D01*
X78414904Y-47497380D01*
X78319666Y-47497380D01*
X78224428Y-47449761D01*
X78176809Y-47402142D01*
X78129190Y-47306904D01*
X78081571Y-47116428D01*
X78081571Y-46878333D01*
X78129190Y-46687857D01*
X78176809Y-46592619D01*
X78224428Y-46545000D01*
X78319666Y-46497380D01*
X79510142Y-46830714D02*
X79510142Y-47497380D01*
X79272047Y-46449761D02*
X79033952Y-47164047D01*
X79653000Y-47164047D01*
X79795857Y-47592619D02*
X80557761Y-47592619D01*
X80986333Y-46497380D02*
X81176809Y-46497380D01*
X81272047Y-46545000D01*
X81367285Y-46640238D01*
X81414904Y-46830714D01*
X81414904Y-47164047D01*
X81367285Y-47354523D01*
X81272047Y-47449761D01*
X81176809Y-47497380D01*
X80986333Y-47497380D01*
X80891095Y-47449761D01*
X80795857Y-47354523D01*
X80748238Y-47164047D01*
X80748238Y-46830714D01*
X80795857Y-46640238D01*
X80891095Y-46545000D01*
X80986333Y-46497380D01*
X82272047Y-47497380D02*
X82272047Y-46497380D01*
X82272047Y-47449761D02*
X82176809Y-47497380D01*
X81986333Y-47497380D01*
X81891095Y-47449761D01*
X81843476Y-47402142D01*
X81795857Y-47306904D01*
X81795857Y-47021190D01*
X81843476Y-46925952D01*
X81891095Y-46878333D01*
X81986333Y-46830714D01*
X82176809Y-46830714D01*
X82272047Y-46878333D01*
X83176809Y-47497380D02*
X83176809Y-46497380D01*
X83176809Y-47449761D02*
X83081571Y-47497380D01*
X82891095Y-47497380D01*
X82795857Y-47449761D01*
X82748238Y-47402142D01*
X82700619Y-47306904D01*
X82700619Y-47021190D01*
X82748238Y-46925952D01*
X82795857Y-46878333D01*
X82891095Y-46830714D01*
X83081571Y-46830714D01*
X83176809Y-46878333D01*
X83414904Y-47592619D02*
X84176809Y-47592619D01*
X84414904Y-46973571D02*
X84748238Y-46973571D01*
X84891095Y-47497380D02*
X84414904Y-47497380D01*
X84414904Y-46497380D01*
X84891095Y-46497380D01*
X85224428Y-46830714D02*
X85462523Y-47497380D01*
X85700619Y-46830714D01*
X86462523Y-47449761D02*
X86367285Y-47497380D01*
X86176809Y-47497380D01*
X86081571Y-47449761D01*
X86033952Y-47354523D01*
X86033952Y-46973571D01*
X86081571Y-46878333D01*
X86176809Y-46830714D01*
X86367285Y-46830714D01*
X86462523Y-46878333D01*
X86510142Y-46973571D01*
X86510142Y-47068809D01*
X86033952Y-47164047D01*
X86938714Y-46830714D02*
X86938714Y-47497380D01*
X86938714Y-46925952D02*
X86986333Y-46878333D01*
X87081571Y-46830714D01*
X87224428Y-46830714D01*
X87319666Y-46878333D01*
X87367285Y-46973571D01*
X87367285Y-47497380D01*
X106465380Y-38054523D02*
X105989190Y-38387857D01*
X106465380Y-38625952D02*
X105465380Y-38625952D01*
X105465380Y-38245000D01*
X105513000Y-38149761D01*
X105560619Y-38102142D01*
X105655857Y-38054523D01*
X105798714Y-38054523D01*
X105893952Y-38102142D01*
X105941571Y-38149761D01*
X105989190Y-38245000D01*
X105989190Y-38625952D01*
X106179666Y-37673571D02*
X106179666Y-37197380D01*
X106465380Y-37768809D02*
X105465380Y-37435476D01*
X106465380Y-37102142D01*
X106465380Y-36768809D02*
X105465380Y-36768809D01*
X106179666Y-36435476D01*
X105465380Y-36102142D01*
X106465380Y-36102142D01*
X106465380Y-35625952D02*
X105465380Y-35625952D01*
X105465380Y-35245000D01*
X105513000Y-35149761D01*
X105560619Y-35102142D01*
X105655857Y-35054523D01*
X105798714Y-35054523D01*
X105893952Y-35102142D01*
X105941571Y-35149761D01*
X105989190Y-35245000D01*
X105989190Y-35625952D01*
X106560619Y-34864047D02*
X106560619Y-34102142D01*
X106465380Y-33864047D02*
X105465380Y-33864047D01*
X106465380Y-33387857D02*
X105465380Y-33387857D01*
X106465380Y-32816428D01*
X105465380Y-32816428D01*
X106465380Y-31816428D02*
X106465380Y-32387857D01*
X106465380Y-32102142D02*
X105465380Y-32102142D01*
X105608238Y-32197380D01*
X105703476Y-32292619D01*
X105751095Y-32387857D01*
%TO.C,PULSE_OUT1*%
X77403238Y-25787380D02*
X77403238Y-24787380D01*
X77784190Y-24787380D01*
X77879428Y-24835000D01*
X77927047Y-24882619D01*
X77974666Y-24977857D01*
X77974666Y-25120714D01*
X77927047Y-25215952D01*
X77879428Y-25263571D01*
X77784190Y-25311190D01*
X77403238Y-25311190D01*
X78403238Y-24787380D02*
X78403238Y-25596904D01*
X78450857Y-25692142D01*
X78498476Y-25739761D01*
X78593714Y-25787380D01*
X78784190Y-25787380D01*
X78879428Y-25739761D01*
X78927047Y-25692142D01*
X78974666Y-25596904D01*
X78974666Y-24787380D01*
X79927047Y-25787380D02*
X79450857Y-25787380D01*
X79450857Y-24787380D01*
X80212761Y-25739761D02*
X80355619Y-25787380D01*
X80593714Y-25787380D01*
X80688952Y-25739761D01*
X80736571Y-25692142D01*
X80784190Y-25596904D01*
X80784190Y-25501666D01*
X80736571Y-25406428D01*
X80688952Y-25358809D01*
X80593714Y-25311190D01*
X80403238Y-25263571D01*
X80308000Y-25215952D01*
X80260380Y-25168333D01*
X80212761Y-25073095D01*
X80212761Y-24977857D01*
X80260380Y-24882619D01*
X80308000Y-24835000D01*
X80403238Y-24787380D01*
X80641333Y-24787380D01*
X80784190Y-24835000D01*
X81212761Y-25263571D02*
X81546095Y-25263571D01*
X81688952Y-25787380D02*
X81212761Y-25787380D01*
X81212761Y-24787380D01*
X81688952Y-24787380D01*
X81879428Y-25882619D02*
X82641333Y-25882619D01*
X83069904Y-24787380D02*
X83260380Y-24787380D01*
X83355619Y-24835000D01*
X83450857Y-24930238D01*
X83498476Y-25120714D01*
X83498476Y-25454047D01*
X83450857Y-25644523D01*
X83355619Y-25739761D01*
X83260380Y-25787380D01*
X83069904Y-25787380D01*
X82974666Y-25739761D01*
X82879428Y-25644523D01*
X82831809Y-25454047D01*
X82831809Y-25120714D01*
X82879428Y-24930238D01*
X82974666Y-24835000D01*
X83069904Y-24787380D01*
X83927047Y-24787380D02*
X83927047Y-25596904D01*
X83974666Y-25692142D01*
X84022285Y-25739761D01*
X84117523Y-25787380D01*
X84308000Y-25787380D01*
X84403238Y-25739761D01*
X84450857Y-25692142D01*
X84498476Y-25596904D01*
X84498476Y-24787380D01*
X84831809Y-24787380D02*
X85403238Y-24787380D01*
X85117523Y-25787380D02*
X85117523Y-24787380D01*
X86260380Y-25787380D02*
X85688952Y-25787380D01*
X85974666Y-25787380D02*
X85974666Y-24787380D01*
X85879428Y-24930238D01*
X85784190Y-25025476D01*
X85688952Y-25073095D01*
X137444142Y-29476142D02*
X137396523Y-29523761D01*
X137253666Y-29571380D01*
X137158428Y-29571380D01*
X137015571Y-29523761D01*
X136920333Y-29428523D01*
X136872714Y-29333285D01*
X136825095Y-29142809D01*
X136825095Y-28999952D01*
X136872714Y-28809476D01*
X136920333Y-28714238D01*
X137015571Y-28619000D01*
X137158428Y-28571380D01*
X137253666Y-28571380D01*
X137396523Y-28619000D01*
X137444142Y-28666619D01*
X138015571Y-29571380D02*
X137920333Y-29523761D01*
X137872714Y-29476142D01*
X137825095Y-29380904D01*
X137825095Y-29095190D01*
X137872714Y-28999952D01*
X137920333Y-28952333D01*
X138015571Y-28904714D01*
X138158428Y-28904714D01*
X138253666Y-28952333D01*
X138301285Y-28999952D01*
X138348904Y-29095190D01*
X138348904Y-29380904D01*
X138301285Y-29476142D01*
X138253666Y-29523761D01*
X138158428Y-29571380D01*
X138015571Y-29571380D01*
X138777476Y-28904714D02*
X138777476Y-29571380D01*
X138777476Y-28999952D02*
X138825095Y-28952333D01*
X138920333Y-28904714D01*
X139063190Y-28904714D01*
X139158428Y-28952333D01*
X139206047Y-29047571D01*
X139206047Y-29571380D01*
X139682238Y-28904714D02*
X139682238Y-29571380D01*
X139682238Y-28999952D02*
X139729857Y-28952333D01*
X139825095Y-28904714D01*
X139967952Y-28904714D01*
X140063190Y-28952333D01*
X140110809Y-29047571D01*
X140110809Y-29571380D01*
X140348904Y-29666619D02*
X141110809Y-29666619D01*
X141539380Y-28571380D02*
X141634619Y-28571380D01*
X141729857Y-28619000D01*
X141777476Y-28666619D01*
X141825095Y-28761857D01*
X141872714Y-28952333D01*
X141872714Y-29190428D01*
X141825095Y-29380904D01*
X141777476Y-29476142D01*
X141729857Y-29523761D01*
X141634619Y-29571380D01*
X141539380Y-29571380D01*
X141444142Y-29523761D01*
X141396523Y-29476142D01*
X141348904Y-29380904D01*
X141301285Y-29190428D01*
X141301285Y-28952333D01*
X141348904Y-28761857D01*
X141396523Y-28666619D01*
X141444142Y-28619000D01*
X141539380Y-28571380D01*
X142253666Y-28666619D02*
X142301285Y-28619000D01*
X142396523Y-28571380D01*
X142634619Y-28571380D01*
X142729857Y-28619000D01*
X142777476Y-28666619D01*
X142825095Y-28761857D01*
X142825095Y-28857095D01*
X142777476Y-28999952D01*
X142206047Y-29571380D01*
X142825095Y-29571380D01*
X143158428Y-29571380D02*
X143682238Y-28904714D01*
X143158428Y-28904714D02*
X143682238Y-29571380D01*
X144253666Y-28571380D02*
X144348904Y-28571380D01*
X144444142Y-28619000D01*
X144491761Y-28666619D01*
X144539380Y-28761857D01*
X144587000Y-28952333D01*
X144587000Y-29190428D01*
X144539380Y-29380904D01*
X144491761Y-29476142D01*
X144444142Y-29523761D01*
X144348904Y-29571380D01*
X144253666Y-29571380D01*
X144158428Y-29523761D01*
X144110809Y-29476142D01*
X144063190Y-29380904D01*
X144015571Y-29190428D01*
X144015571Y-28952333D01*
X144063190Y-28761857D01*
X144110809Y-28666619D01*
X144158428Y-28619000D01*
X144253666Y-28571380D01*
X145444142Y-28904714D02*
X145444142Y-29571380D01*
X145206047Y-28523761D02*
X144967952Y-29238047D01*
X145587000Y-29238047D01*
X145729857Y-29666619D02*
X146491761Y-29666619D01*
X146920333Y-28571380D02*
X147110809Y-28571380D01*
X147206047Y-28619000D01*
X147301285Y-28714238D01*
X147348904Y-28904714D01*
X147348904Y-29238047D01*
X147301285Y-29428523D01*
X147206047Y-29523761D01*
X147110809Y-29571380D01*
X146920333Y-29571380D01*
X146825095Y-29523761D01*
X146729857Y-29428523D01*
X146682238Y-29238047D01*
X146682238Y-28904714D01*
X146729857Y-28714238D01*
X146825095Y-28619000D01*
X146920333Y-28571380D01*
X148206047Y-29571380D02*
X148206047Y-28571380D01*
X148206047Y-29523761D02*
X148110809Y-29571380D01*
X147920333Y-29571380D01*
X147825095Y-29523761D01*
X147777476Y-29476142D01*
X147729857Y-29380904D01*
X147729857Y-29095190D01*
X147777476Y-28999952D01*
X147825095Y-28952333D01*
X147920333Y-28904714D01*
X148110809Y-28904714D01*
X148206047Y-28952333D01*
X149110809Y-29571380D02*
X149110809Y-28571380D01*
X149110809Y-29523761D02*
X149015571Y-29571380D01*
X148825095Y-29571380D01*
X148729857Y-29523761D01*
X148682238Y-29476142D01*
X148634619Y-29380904D01*
X148634619Y-29095190D01*
X148682238Y-28999952D01*
X148729857Y-28952333D01*
X148825095Y-28904714D01*
X149015571Y-28904714D01*
X149110809Y-28952333D01*
X149348904Y-29666619D02*
X150110809Y-29666619D01*
X150348904Y-29047571D02*
X150682238Y-29047571D01*
X150825095Y-29571380D02*
X150348904Y-29571380D01*
X150348904Y-28571380D01*
X150825095Y-28571380D01*
X151158428Y-28904714D02*
X151396523Y-29571380D01*
X151634619Y-28904714D01*
X152396523Y-29523761D02*
X152301285Y-29571380D01*
X152110809Y-29571380D01*
X152015571Y-29523761D01*
X151967952Y-29428523D01*
X151967952Y-29047571D01*
X152015571Y-28952333D01*
X152110809Y-28904714D01*
X152301285Y-28904714D01*
X152396523Y-28952333D01*
X152444142Y-29047571D01*
X152444142Y-29142809D01*
X151967952Y-29238047D01*
X152872714Y-28904714D02*
X152872714Y-29571380D01*
X152872714Y-28999952D02*
X152920333Y-28952333D01*
X153015571Y-28904714D01*
X153158428Y-28904714D01*
X153253666Y-28952333D01*
X153301285Y-29047571D01*
X153301285Y-29571380D01*
X82260380Y-39649761D02*
X81260380Y-39649761D01*
X81260380Y-39268809D01*
X81308000Y-39173571D01*
X81355619Y-39125952D01*
X81450857Y-39078333D01*
X81593714Y-39078333D01*
X81688952Y-39125952D01*
X81736571Y-39173571D01*
X81784190Y-39268809D01*
X81784190Y-39649761D01*
X81260380Y-38649761D02*
X82069904Y-38649761D01*
X82165142Y-38602142D01*
X82212761Y-38554523D01*
X82260380Y-38459285D01*
X82260380Y-38268809D01*
X82212761Y-38173571D01*
X82165142Y-38125952D01*
X82069904Y-38078333D01*
X81260380Y-38078333D01*
X82260380Y-37125952D02*
X82260380Y-37602142D01*
X81260380Y-37602142D01*
X82212761Y-36840238D02*
X82260380Y-36697380D01*
X82260380Y-36459285D01*
X82212761Y-36364047D01*
X82165142Y-36316428D01*
X82069904Y-36268809D01*
X81974666Y-36268809D01*
X81879428Y-36316428D01*
X81831809Y-36364047D01*
X81784190Y-36459285D01*
X81736571Y-36649761D01*
X81688952Y-36745000D01*
X81641333Y-36792619D01*
X81546095Y-36840238D01*
X81450857Y-36840238D01*
X81355619Y-36792619D01*
X81308000Y-36745000D01*
X81260380Y-36649761D01*
X81260380Y-36411666D01*
X81308000Y-36268809D01*
X81736571Y-35840238D02*
X81736571Y-35506904D01*
X82260380Y-35364047D02*
X82260380Y-35840238D01*
X81260380Y-35840238D01*
X81260380Y-35364047D01*
X82355619Y-35173571D02*
X82355619Y-34411666D01*
X81260380Y-33983095D02*
X81260380Y-33792619D01*
X81308000Y-33697380D01*
X81403238Y-33602142D01*
X81593714Y-33554523D01*
X81927047Y-33554523D01*
X82117523Y-33602142D01*
X82212761Y-33697380D01*
X82260380Y-33792619D01*
X82260380Y-33983095D01*
X82212761Y-34078333D01*
X82117523Y-34173571D01*
X81927047Y-34221190D01*
X81593714Y-34221190D01*
X81403238Y-34173571D01*
X81308000Y-34078333D01*
X81260380Y-33983095D01*
X81260380Y-33125952D02*
X82069904Y-33125952D01*
X82165142Y-33078333D01*
X82212761Y-33030714D01*
X82260380Y-32935476D01*
X82260380Y-32745000D01*
X82212761Y-32649761D01*
X82165142Y-32602142D01*
X82069904Y-32554523D01*
X81260380Y-32554523D01*
X81260380Y-32221190D02*
X81260380Y-31649761D01*
X82260380Y-31935476D02*
X81260380Y-31935476D01*
X82260380Y-30792619D02*
X82260380Y-31364047D01*
X82260380Y-31078333D02*
X81260380Y-31078333D01*
X81403238Y-31173571D01*
X81498476Y-31268809D01*
X81546095Y-31364047D01*
%TO.C,PULSE_IN1*%
X113619904Y-45937380D02*
X113619904Y-44937380D01*
X114000857Y-44937380D01*
X114096095Y-44985000D01*
X114143714Y-45032619D01*
X114191333Y-45127857D01*
X114191333Y-45270714D01*
X114143714Y-45365952D01*
X114096095Y-45413571D01*
X114000857Y-45461190D01*
X113619904Y-45461190D01*
X114619904Y-44937380D02*
X114619904Y-45746904D01*
X114667523Y-45842142D01*
X114715142Y-45889761D01*
X114810380Y-45937380D01*
X115000857Y-45937380D01*
X115096095Y-45889761D01*
X115143714Y-45842142D01*
X115191333Y-45746904D01*
X115191333Y-44937380D01*
X116143714Y-45937380D02*
X115667523Y-45937380D01*
X115667523Y-44937380D01*
X116429428Y-45889761D02*
X116572285Y-45937380D01*
X116810380Y-45937380D01*
X116905619Y-45889761D01*
X116953238Y-45842142D01*
X117000857Y-45746904D01*
X117000857Y-45651666D01*
X116953238Y-45556428D01*
X116905619Y-45508809D01*
X116810380Y-45461190D01*
X116619904Y-45413571D01*
X116524666Y-45365952D01*
X116477047Y-45318333D01*
X116429428Y-45223095D01*
X116429428Y-45127857D01*
X116477047Y-45032619D01*
X116524666Y-44985000D01*
X116619904Y-44937380D01*
X116858000Y-44937380D01*
X117000857Y-44985000D01*
X117429428Y-45413571D02*
X117762761Y-45413571D01*
X117905619Y-45937380D02*
X117429428Y-45937380D01*
X117429428Y-44937380D01*
X117905619Y-44937380D01*
X118096095Y-46032619D02*
X118858000Y-46032619D01*
X119096095Y-45937380D02*
X119096095Y-44937380D01*
X119572285Y-45937380D02*
X119572285Y-44937380D01*
X120143714Y-45937380D01*
X120143714Y-44937380D01*
X121143714Y-45937380D02*
X120572285Y-45937380D01*
X120858000Y-45937380D02*
X120858000Y-44937380D01*
X120762761Y-45080238D01*
X120667523Y-45175476D01*
X120572285Y-45223095D01*
X93577142Y-48897142D02*
X93529523Y-48944761D01*
X93386666Y-48992380D01*
X93291428Y-48992380D01*
X93148571Y-48944761D01*
X93053333Y-48849523D01*
X93005714Y-48754285D01*
X92958095Y-48563809D01*
X92958095Y-48420952D01*
X93005714Y-48230476D01*
X93053333Y-48135238D01*
X93148571Y-48040000D01*
X93291428Y-47992380D01*
X93386666Y-47992380D01*
X93529523Y-48040000D01*
X93577142Y-48087619D01*
X94148571Y-48992380D02*
X94053333Y-48944761D01*
X94005714Y-48897142D01*
X93958095Y-48801904D01*
X93958095Y-48516190D01*
X94005714Y-48420952D01*
X94053333Y-48373333D01*
X94148571Y-48325714D01*
X94291428Y-48325714D01*
X94386666Y-48373333D01*
X94434285Y-48420952D01*
X94481904Y-48516190D01*
X94481904Y-48801904D01*
X94434285Y-48897142D01*
X94386666Y-48944761D01*
X94291428Y-48992380D01*
X94148571Y-48992380D01*
X94910476Y-48325714D02*
X94910476Y-48992380D01*
X94910476Y-48420952D02*
X94958095Y-48373333D01*
X95053333Y-48325714D01*
X95196190Y-48325714D01*
X95291428Y-48373333D01*
X95339047Y-48468571D01*
X95339047Y-48992380D01*
X95815238Y-48325714D02*
X95815238Y-48992380D01*
X95815238Y-48420952D02*
X95862857Y-48373333D01*
X95958095Y-48325714D01*
X96100952Y-48325714D01*
X96196190Y-48373333D01*
X96243809Y-48468571D01*
X96243809Y-48992380D01*
X96481904Y-49087619D02*
X97243809Y-49087619D01*
X97672380Y-47992380D02*
X97767619Y-47992380D01*
X97862857Y-48040000D01*
X97910476Y-48087619D01*
X97958095Y-48182857D01*
X98005714Y-48373333D01*
X98005714Y-48611428D01*
X97958095Y-48801904D01*
X97910476Y-48897142D01*
X97862857Y-48944761D01*
X97767619Y-48992380D01*
X97672380Y-48992380D01*
X97577142Y-48944761D01*
X97529523Y-48897142D01*
X97481904Y-48801904D01*
X97434285Y-48611428D01*
X97434285Y-48373333D01*
X97481904Y-48182857D01*
X97529523Y-48087619D01*
X97577142Y-48040000D01*
X97672380Y-47992380D01*
X98386666Y-48087619D02*
X98434285Y-48040000D01*
X98529523Y-47992380D01*
X98767619Y-47992380D01*
X98862857Y-48040000D01*
X98910476Y-48087619D01*
X98958095Y-48182857D01*
X98958095Y-48278095D01*
X98910476Y-48420952D01*
X98339047Y-48992380D01*
X98958095Y-48992380D01*
X99291428Y-48992380D02*
X99815238Y-48325714D01*
X99291428Y-48325714D02*
X99815238Y-48992380D01*
X100386666Y-47992380D02*
X100481904Y-47992380D01*
X100577142Y-48040000D01*
X100624761Y-48087619D01*
X100672380Y-48182857D01*
X100720000Y-48373333D01*
X100720000Y-48611428D01*
X100672380Y-48801904D01*
X100624761Y-48897142D01*
X100577142Y-48944761D01*
X100481904Y-48992380D01*
X100386666Y-48992380D01*
X100291428Y-48944761D01*
X100243809Y-48897142D01*
X100196190Y-48801904D01*
X100148571Y-48611428D01*
X100148571Y-48373333D01*
X100196190Y-48182857D01*
X100243809Y-48087619D01*
X100291428Y-48040000D01*
X100386666Y-47992380D01*
X101577142Y-48325714D02*
X101577142Y-48992380D01*
X101339047Y-47944761D02*
X101100952Y-48659047D01*
X101720000Y-48659047D01*
X101862857Y-49087619D02*
X102624761Y-49087619D01*
X103053333Y-47992380D02*
X103243809Y-47992380D01*
X103339047Y-48040000D01*
X103434285Y-48135238D01*
X103481904Y-48325714D01*
X103481904Y-48659047D01*
X103434285Y-48849523D01*
X103339047Y-48944761D01*
X103243809Y-48992380D01*
X103053333Y-48992380D01*
X102958095Y-48944761D01*
X102862857Y-48849523D01*
X102815238Y-48659047D01*
X102815238Y-48325714D01*
X102862857Y-48135238D01*
X102958095Y-48040000D01*
X103053333Y-47992380D01*
X104339047Y-48992380D02*
X104339047Y-47992380D01*
X104339047Y-48944761D02*
X104243809Y-48992380D01*
X104053333Y-48992380D01*
X103958095Y-48944761D01*
X103910476Y-48897142D01*
X103862857Y-48801904D01*
X103862857Y-48516190D01*
X103910476Y-48420952D01*
X103958095Y-48373333D01*
X104053333Y-48325714D01*
X104243809Y-48325714D01*
X104339047Y-48373333D01*
X105243809Y-48992380D02*
X105243809Y-47992380D01*
X105243809Y-48944761D02*
X105148571Y-48992380D01*
X104958095Y-48992380D01*
X104862857Y-48944761D01*
X104815238Y-48897142D01*
X104767619Y-48801904D01*
X104767619Y-48516190D01*
X104815238Y-48420952D01*
X104862857Y-48373333D01*
X104958095Y-48325714D01*
X105148571Y-48325714D01*
X105243809Y-48373333D01*
X105481904Y-49087619D02*
X106243809Y-49087619D01*
X106481904Y-48468571D02*
X106815238Y-48468571D01*
X106958095Y-48992380D02*
X106481904Y-48992380D01*
X106481904Y-47992380D01*
X106958095Y-47992380D01*
X107291428Y-48325714D02*
X107529523Y-48992380D01*
X107767619Y-48325714D01*
X108529523Y-48944761D02*
X108434285Y-48992380D01*
X108243809Y-48992380D01*
X108148571Y-48944761D01*
X108100952Y-48849523D01*
X108100952Y-48468571D01*
X108148571Y-48373333D01*
X108243809Y-48325714D01*
X108434285Y-48325714D01*
X108529523Y-48373333D01*
X108577142Y-48468571D01*
X108577142Y-48563809D01*
X108100952Y-48659047D01*
X109005714Y-48325714D02*
X109005714Y-48992380D01*
X109005714Y-48420952D02*
X109053333Y-48373333D01*
X109148571Y-48325714D01*
X109291428Y-48325714D01*
X109386666Y-48373333D01*
X109434285Y-48468571D01*
X109434285Y-48992380D01*
X117465380Y-38983095D02*
X116465380Y-38983095D01*
X116465380Y-38602142D01*
X116513000Y-38506904D01*
X116560619Y-38459285D01*
X116655857Y-38411666D01*
X116798714Y-38411666D01*
X116893952Y-38459285D01*
X116941571Y-38506904D01*
X116989190Y-38602142D01*
X116989190Y-38983095D01*
X116465380Y-37983095D02*
X117274904Y-37983095D01*
X117370142Y-37935476D01*
X117417761Y-37887857D01*
X117465380Y-37792619D01*
X117465380Y-37602142D01*
X117417761Y-37506904D01*
X117370142Y-37459285D01*
X117274904Y-37411666D01*
X116465380Y-37411666D01*
X117465380Y-36459285D02*
X117465380Y-36935476D01*
X116465380Y-36935476D01*
X117417761Y-36173571D02*
X117465380Y-36030714D01*
X117465380Y-35792619D01*
X117417761Y-35697380D01*
X117370142Y-35649761D01*
X117274904Y-35602142D01*
X117179666Y-35602142D01*
X117084428Y-35649761D01*
X117036809Y-35697380D01*
X116989190Y-35792619D01*
X116941571Y-35983095D01*
X116893952Y-36078333D01*
X116846333Y-36125952D01*
X116751095Y-36173571D01*
X116655857Y-36173571D01*
X116560619Y-36125952D01*
X116513000Y-36078333D01*
X116465380Y-35983095D01*
X116465380Y-35745000D01*
X116513000Y-35602142D01*
X116941571Y-35173571D02*
X116941571Y-34840238D01*
X117465380Y-34697380D02*
X117465380Y-35173571D01*
X116465380Y-35173571D01*
X116465380Y-34697380D01*
X117560619Y-34506904D02*
X117560619Y-33745000D01*
X117465380Y-33506904D02*
X116465380Y-33506904D01*
X117465380Y-33030714D02*
X116465380Y-33030714D01*
X117465380Y-32459285D01*
X116465380Y-32459285D01*
X117465380Y-31459285D02*
X117465380Y-32030714D01*
X117465380Y-31745000D02*
X116465380Y-31745000D01*
X116608238Y-31840238D01*
X116703476Y-31935476D01*
X116751095Y-32030714D01*
%TO.C,GATE_OUT1*%
X56522285Y-24835000D02*
X56427047Y-24787380D01*
X56284190Y-24787380D01*
X56141333Y-24835000D01*
X56046095Y-24930238D01*
X55998476Y-25025476D01*
X55950857Y-25215952D01*
X55950857Y-25358809D01*
X55998476Y-25549285D01*
X56046095Y-25644523D01*
X56141333Y-25739761D01*
X56284190Y-25787380D01*
X56379428Y-25787380D01*
X56522285Y-25739761D01*
X56569904Y-25692142D01*
X56569904Y-25358809D01*
X56379428Y-25358809D01*
X56950857Y-25501666D02*
X57427047Y-25501666D01*
X56855619Y-25787380D02*
X57188952Y-24787380D01*
X57522285Y-25787380D01*
X57712761Y-24787380D02*
X58284190Y-24787380D01*
X57998476Y-25787380D02*
X57998476Y-24787380D01*
X58617523Y-25263571D02*
X58950857Y-25263571D01*
X59093714Y-25787380D02*
X58617523Y-25787380D01*
X58617523Y-24787380D01*
X59093714Y-24787380D01*
X59284190Y-25882619D02*
X60046095Y-25882619D01*
X60474666Y-24787380D02*
X60665142Y-24787380D01*
X60760380Y-24835000D01*
X60855619Y-24930238D01*
X60903238Y-25120714D01*
X60903238Y-25454047D01*
X60855619Y-25644523D01*
X60760380Y-25739761D01*
X60665142Y-25787380D01*
X60474666Y-25787380D01*
X60379428Y-25739761D01*
X60284190Y-25644523D01*
X60236571Y-25454047D01*
X60236571Y-25120714D01*
X60284190Y-24930238D01*
X60379428Y-24835000D01*
X60474666Y-24787380D01*
X61331809Y-24787380D02*
X61331809Y-25596904D01*
X61379428Y-25692142D01*
X61427047Y-25739761D01*
X61522285Y-25787380D01*
X61712761Y-25787380D01*
X61808000Y-25739761D01*
X61855619Y-25692142D01*
X61903238Y-25596904D01*
X61903238Y-24787380D01*
X62236571Y-24787380D02*
X62808000Y-24787380D01*
X62522285Y-25787380D02*
X62522285Y-24787380D01*
X63665142Y-25787380D02*
X63093714Y-25787380D01*
X63379428Y-25787380D02*
X63379428Y-24787380D01*
X63284190Y-24930238D01*
X63188952Y-25025476D01*
X63093714Y-25073095D01*
X103983142Y-27458142D02*
X103935523Y-27505761D01*
X103792666Y-27553380D01*
X103697428Y-27553380D01*
X103554571Y-27505761D01*
X103459333Y-27410523D01*
X103411714Y-27315285D01*
X103364095Y-27124809D01*
X103364095Y-26981952D01*
X103411714Y-26791476D01*
X103459333Y-26696238D01*
X103554571Y-26601000D01*
X103697428Y-26553380D01*
X103792666Y-26553380D01*
X103935523Y-26601000D01*
X103983142Y-26648619D01*
X104554571Y-27553380D02*
X104459333Y-27505761D01*
X104411714Y-27458142D01*
X104364095Y-27362904D01*
X104364095Y-27077190D01*
X104411714Y-26981952D01*
X104459333Y-26934333D01*
X104554571Y-26886714D01*
X104697428Y-26886714D01*
X104792666Y-26934333D01*
X104840285Y-26981952D01*
X104887904Y-27077190D01*
X104887904Y-27362904D01*
X104840285Y-27458142D01*
X104792666Y-27505761D01*
X104697428Y-27553380D01*
X104554571Y-27553380D01*
X105316476Y-26886714D02*
X105316476Y-27553380D01*
X105316476Y-26981952D02*
X105364095Y-26934333D01*
X105459333Y-26886714D01*
X105602190Y-26886714D01*
X105697428Y-26934333D01*
X105745047Y-27029571D01*
X105745047Y-27553380D01*
X106221238Y-26886714D02*
X106221238Y-27553380D01*
X106221238Y-26981952D02*
X106268857Y-26934333D01*
X106364095Y-26886714D01*
X106506952Y-26886714D01*
X106602190Y-26934333D01*
X106649809Y-27029571D01*
X106649809Y-27553380D01*
X106887904Y-27648619D02*
X107649809Y-27648619D01*
X108078380Y-26553380D02*
X108173619Y-26553380D01*
X108268857Y-26601000D01*
X108316476Y-26648619D01*
X108364095Y-26743857D01*
X108411714Y-26934333D01*
X108411714Y-27172428D01*
X108364095Y-27362904D01*
X108316476Y-27458142D01*
X108268857Y-27505761D01*
X108173619Y-27553380D01*
X108078380Y-27553380D01*
X107983142Y-27505761D01*
X107935523Y-27458142D01*
X107887904Y-27362904D01*
X107840285Y-27172428D01*
X107840285Y-26934333D01*
X107887904Y-26743857D01*
X107935523Y-26648619D01*
X107983142Y-26601000D01*
X108078380Y-26553380D01*
X108792666Y-26648619D02*
X108840285Y-26601000D01*
X108935523Y-26553380D01*
X109173619Y-26553380D01*
X109268857Y-26601000D01*
X109316476Y-26648619D01*
X109364095Y-26743857D01*
X109364095Y-26839095D01*
X109316476Y-26981952D01*
X108745047Y-27553380D01*
X109364095Y-27553380D01*
X109697428Y-27553380D02*
X110221238Y-26886714D01*
X109697428Y-26886714D02*
X110221238Y-27553380D01*
X110792666Y-26553380D02*
X110887904Y-26553380D01*
X110983142Y-26601000D01*
X111030761Y-26648619D01*
X111078380Y-26743857D01*
X111126000Y-26934333D01*
X111126000Y-27172428D01*
X111078380Y-27362904D01*
X111030761Y-27458142D01*
X110983142Y-27505761D01*
X110887904Y-27553380D01*
X110792666Y-27553380D01*
X110697428Y-27505761D01*
X110649809Y-27458142D01*
X110602190Y-27362904D01*
X110554571Y-27172428D01*
X110554571Y-26934333D01*
X110602190Y-26743857D01*
X110649809Y-26648619D01*
X110697428Y-26601000D01*
X110792666Y-26553380D01*
X111983142Y-26886714D02*
X111983142Y-27553380D01*
X111745047Y-26505761D02*
X111506952Y-27220047D01*
X112126000Y-27220047D01*
X112268857Y-27648619D02*
X113030761Y-27648619D01*
X113459333Y-26553380D02*
X113649809Y-26553380D01*
X113745047Y-26601000D01*
X113840285Y-26696238D01*
X113887904Y-26886714D01*
X113887904Y-27220047D01*
X113840285Y-27410523D01*
X113745047Y-27505761D01*
X113649809Y-27553380D01*
X113459333Y-27553380D01*
X113364095Y-27505761D01*
X113268857Y-27410523D01*
X113221238Y-27220047D01*
X113221238Y-26886714D01*
X113268857Y-26696238D01*
X113364095Y-26601000D01*
X113459333Y-26553380D01*
X114745047Y-27553380D02*
X114745047Y-26553380D01*
X114745047Y-27505761D02*
X114649809Y-27553380D01*
X114459333Y-27553380D01*
X114364095Y-27505761D01*
X114316476Y-27458142D01*
X114268857Y-27362904D01*
X114268857Y-27077190D01*
X114316476Y-26981952D01*
X114364095Y-26934333D01*
X114459333Y-26886714D01*
X114649809Y-26886714D01*
X114745047Y-26934333D01*
X115649809Y-27553380D02*
X115649809Y-26553380D01*
X115649809Y-27505761D02*
X115554571Y-27553380D01*
X115364095Y-27553380D01*
X115268857Y-27505761D01*
X115221238Y-27458142D01*
X115173619Y-27362904D01*
X115173619Y-27077190D01*
X115221238Y-26981952D01*
X115268857Y-26934333D01*
X115364095Y-26886714D01*
X115554571Y-26886714D01*
X115649809Y-26934333D01*
X115887904Y-27648619D02*
X116649809Y-27648619D01*
X116887904Y-27029571D02*
X117221238Y-27029571D01*
X117364095Y-27553380D02*
X116887904Y-27553380D01*
X116887904Y-26553380D01*
X117364095Y-26553380D01*
X117697428Y-26886714D02*
X117935523Y-27553380D01*
X118173619Y-26886714D01*
X118935523Y-27505761D02*
X118840285Y-27553380D01*
X118649809Y-27553380D01*
X118554571Y-27505761D01*
X118506952Y-27410523D01*
X118506952Y-27029571D01*
X118554571Y-26934333D01*
X118649809Y-26886714D01*
X118840285Y-26886714D01*
X118935523Y-26934333D01*
X118983142Y-27029571D01*
X118983142Y-27124809D01*
X118506952Y-27220047D01*
X119411714Y-26886714D02*
X119411714Y-27553380D01*
X119411714Y-26981952D02*
X119459333Y-26934333D01*
X119554571Y-26886714D01*
X119697428Y-26886714D01*
X119792666Y-26934333D01*
X119840285Y-27029571D01*
X119840285Y-27553380D01*
X59308000Y-38530714D02*
X59260380Y-38625952D01*
X59260380Y-38768809D01*
X59308000Y-38911666D01*
X59403238Y-39006904D01*
X59498476Y-39054523D01*
X59688952Y-39102142D01*
X59831809Y-39102142D01*
X60022285Y-39054523D01*
X60117523Y-39006904D01*
X60212761Y-38911666D01*
X60260380Y-38768809D01*
X60260380Y-38673571D01*
X60212761Y-38530714D01*
X60165142Y-38483095D01*
X59831809Y-38483095D01*
X59831809Y-38673571D01*
X59974666Y-38102142D02*
X59974666Y-37625952D01*
X60260380Y-38197380D02*
X59260380Y-37864047D01*
X60260380Y-37530714D01*
X59260380Y-37340238D02*
X59260380Y-36768809D01*
X60260380Y-37054523D02*
X59260380Y-37054523D01*
X59736571Y-36435476D02*
X59736571Y-36102142D01*
X60260380Y-35959285D02*
X60260380Y-36435476D01*
X59260380Y-36435476D01*
X59260380Y-35959285D01*
X60355619Y-35768809D02*
X60355619Y-35006904D01*
X59260380Y-34578333D02*
X59260380Y-34387857D01*
X59308000Y-34292619D01*
X59403238Y-34197380D01*
X59593714Y-34149761D01*
X59927047Y-34149761D01*
X60117523Y-34197380D01*
X60212761Y-34292619D01*
X60260380Y-34387857D01*
X60260380Y-34578333D01*
X60212761Y-34673571D01*
X60117523Y-34768809D01*
X59927047Y-34816428D01*
X59593714Y-34816428D01*
X59403238Y-34768809D01*
X59308000Y-34673571D01*
X59260380Y-34578333D01*
X59260380Y-33721190D02*
X60069904Y-33721190D01*
X60165142Y-33673571D01*
X60212761Y-33625952D01*
X60260380Y-33530714D01*
X60260380Y-33340238D01*
X60212761Y-33245000D01*
X60165142Y-33197380D01*
X60069904Y-33149761D01*
X59260380Y-33149761D01*
X59260380Y-32816428D02*
X59260380Y-32245000D01*
X60260380Y-32530714D02*
X59260380Y-32530714D01*
X60260380Y-31387857D02*
X60260380Y-31959285D01*
X60260380Y-31673571D02*
X59260380Y-31673571D01*
X59403238Y-31768809D01*
X59498476Y-31864047D01*
X59546095Y-31959285D01*
%TO.C,GATE_IN1*%
X92232952Y-44985000D02*
X92137714Y-44937380D01*
X91994857Y-44937380D01*
X91852000Y-44985000D01*
X91756761Y-45080238D01*
X91709142Y-45175476D01*
X91661523Y-45365952D01*
X91661523Y-45508809D01*
X91709142Y-45699285D01*
X91756761Y-45794523D01*
X91852000Y-45889761D01*
X91994857Y-45937380D01*
X92090095Y-45937380D01*
X92232952Y-45889761D01*
X92280571Y-45842142D01*
X92280571Y-45508809D01*
X92090095Y-45508809D01*
X92661523Y-45651666D02*
X93137714Y-45651666D01*
X92566285Y-45937380D02*
X92899619Y-44937380D01*
X93232952Y-45937380D01*
X93423428Y-44937380D02*
X93994857Y-44937380D01*
X93709142Y-45937380D02*
X93709142Y-44937380D01*
X94328190Y-45413571D02*
X94661523Y-45413571D01*
X94804380Y-45937380D02*
X94328190Y-45937380D01*
X94328190Y-44937380D01*
X94804380Y-44937380D01*
X94994857Y-46032619D02*
X95756761Y-46032619D01*
X95994857Y-45937380D02*
X95994857Y-44937380D01*
X96471047Y-45937380D02*
X96471047Y-44937380D01*
X97042476Y-45937380D01*
X97042476Y-44937380D01*
X98042476Y-45937380D02*
X97471047Y-45937380D01*
X97756761Y-45937380D02*
X97756761Y-44937380D01*
X97661523Y-45080238D01*
X97566285Y-45175476D01*
X97471047Y-45223095D01*
X49802142Y-45504142D02*
X49754523Y-45551761D01*
X49611666Y-45599380D01*
X49516428Y-45599380D01*
X49373571Y-45551761D01*
X49278333Y-45456523D01*
X49230714Y-45361285D01*
X49183095Y-45170809D01*
X49183095Y-45027952D01*
X49230714Y-44837476D01*
X49278333Y-44742238D01*
X49373571Y-44647000D01*
X49516428Y-44599380D01*
X49611666Y-44599380D01*
X49754523Y-44647000D01*
X49802142Y-44694619D01*
X50373571Y-45599380D02*
X50278333Y-45551761D01*
X50230714Y-45504142D01*
X50183095Y-45408904D01*
X50183095Y-45123190D01*
X50230714Y-45027952D01*
X50278333Y-44980333D01*
X50373571Y-44932714D01*
X50516428Y-44932714D01*
X50611666Y-44980333D01*
X50659285Y-45027952D01*
X50706904Y-45123190D01*
X50706904Y-45408904D01*
X50659285Y-45504142D01*
X50611666Y-45551761D01*
X50516428Y-45599380D01*
X50373571Y-45599380D01*
X51135476Y-44932714D02*
X51135476Y-45599380D01*
X51135476Y-45027952D02*
X51183095Y-44980333D01*
X51278333Y-44932714D01*
X51421190Y-44932714D01*
X51516428Y-44980333D01*
X51564047Y-45075571D01*
X51564047Y-45599380D01*
X52040238Y-44932714D02*
X52040238Y-45599380D01*
X52040238Y-45027952D02*
X52087857Y-44980333D01*
X52183095Y-44932714D01*
X52325952Y-44932714D01*
X52421190Y-44980333D01*
X52468809Y-45075571D01*
X52468809Y-45599380D01*
X52706904Y-45694619D02*
X53468809Y-45694619D01*
X53897380Y-44599380D02*
X53992619Y-44599380D01*
X54087857Y-44647000D01*
X54135476Y-44694619D01*
X54183095Y-44789857D01*
X54230714Y-44980333D01*
X54230714Y-45218428D01*
X54183095Y-45408904D01*
X54135476Y-45504142D01*
X54087857Y-45551761D01*
X53992619Y-45599380D01*
X53897380Y-45599380D01*
X53802142Y-45551761D01*
X53754523Y-45504142D01*
X53706904Y-45408904D01*
X53659285Y-45218428D01*
X53659285Y-44980333D01*
X53706904Y-44789857D01*
X53754523Y-44694619D01*
X53802142Y-44647000D01*
X53897380Y-44599380D01*
X54611666Y-44694619D02*
X54659285Y-44647000D01*
X54754523Y-44599380D01*
X54992619Y-44599380D01*
X55087857Y-44647000D01*
X55135476Y-44694619D01*
X55183095Y-44789857D01*
X55183095Y-44885095D01*
X55135476Y-45027952D01*
X54564047Y-45599380D01*
X55183095Y-45599380D01*
X55516428Y-45599380D02*
X56040238Y-44932714D01*
X55516428Y-44932714D02*
X56040238Y-45599380D01*
X56611666Y-44599380D02*
X56706904Y-44599380D01*
X56802142Y-44647000D01*
X56849761Y-44694619D01*
X56897380Y-44789857D01*
X56945000Y-44980333D01*
X56945000Y-45218428D01*
X56897380Y-45408904D01*
X56849761Y-45504142D01*
X56802142Y-45551761D01*
X56706904Y-45599380D01*
X56611666Y-45599380D01*
X56516428Y-45551761D01*
X56468809Y-45504142D01*
X56421190Y-45408904D01*
X56373571Y-45218428D01*
X56373571Y-44980333D01*
X56421190Y-44789857D01*
X56468809Y-44694619D01*
X56516428Y-44647000D01*
X56611666Y-44599380D01*
X57802142Y-44932714D02*
X57802142Y-45599380D01*
X57564047Y-44551761D02*
X57325952Y-45266047D01*
X57945000Y-45266047D01*
X58087857Y-45694619D02*
X58849761Y-45694619D01*
X59278333Y-44599380D02*
X59468809Y-44599380D01*
X59564047Y-44647000D01*
X59659285Y-44742238D01*
X59706904Y-44932714D01*
X59706904Y-45266047D01*
X59659285Y-45456523D01*
X59564047Y-45551761D01*
X59468809Y-45599380D01*
X59278333Y-45599380D01*
X59183095Y-45551761D01*
X59087857Y-45456523D01*
X59040238Y-45266047D01*
X59040238Y-44932714D01*
X59087857Y-44742238D01*
X59183095Y-44647000D01*
X59278333Y-44599380D01*
X60564047Y-45599380D02*
X60564047Y-44599380D01*
X60564047Y-45551761D02*
X60468809Y-45599380D01*
X60278333Y-45599380D01*
X60183095Y-45551761D01*
X60135476Y-45504142D01*
X60087857Y-45408904D01*
X60087857Y-45123190D01*
X60135476Y-45027952D01*
X60183095Y-44980333D01*
X60278333Y-44932714D01*
X60468809Y-44932714D01*
X60564047Y-44980333D01*
X61468809Y-45599380D02*
X61468809Y-44599380D01*
X61468809Y-45551761D02*
X61373571Y-45599380D01*
X61183095Y-45599380D01*
X61087857Y-45551761D01*
X61040238Y-45504142D01*
X60992619Y-45408904D01*
X60992619Y-45123190D01*
X61040238Y-45027952D01*
X61087857Y-44980333D01*
X61183095Y-44932714D01*
X61373571Y-44932714D01*
X61468809Y-44980333D01*
X61706904Y-45694619D02*
X62468809Y-45694619D01*
X62706904Y-45075571D02*
X63040238Y-45075571D01*
X63183095Y-45599380D02*
X62706904Y-45599380D01*
X62706904Y-44599380D01*
X63183095Y-44599380D01*
X63516428Y-44932714D02*
X63754523Y-45599380D01*
X63992619Y-44932714D01*
X64754523Y-45551761D02*
X64659285Y-45599380D01*
X64468809Y-45599380D01*
X64373571Y-45551761D01*
X64325952Y-45456523D01*
X64325952Y-45075571D01*
X64373571Y-44980333D01*
X64468809Y-44932714D01*
X64659285Y-44932714D01*
X64754523Y-44980333D01*
X64802142Y-45075571D01*
X64802142Y-45170809D01*
X64325952Y-45266047D01*
X65230714Y-44932714D02*
X65230714Y-45599380D01*
X65230714Y-45027952D02*
X65278333Y-44980333D01*
X65373571Y-44932714D01*
X65516428Y-44932714D01*
X65611666Y-44980333D01*
X65659285Y-45075571D01*
X65659285Y-45599380D01*
X94513000Y-37864047D02*
X94465380Y-37959285D01*
X94465380Y-38102142D01*
X94513000Y-38245000D01*
X94608238Y-38340238D01*
X94703476Y-38387857D01*
X94893952Y-38435476D01*
X95036809Y-38435476D01*
X95227285Y-38387857D01*
X95322523Y-38340238D01*
X95417761Y-38245000D01*
X95465380Y-38102142D01*
X95465380Y-38006904D01*
X95417761Y-37864047D01*
X95370142Y-37816428D01*
X95036809Y-37816428D01*
X95036809Y-38006904D01*
X95179666Y-37435476D02*
X95179666Y-36959285D01*
X95465380Y-37530714D02*
X94465380Y-37197380D01*
X95465380Y-36864047D01*
X94465380Y-36673571D02*
X94465380Y-36102142D01*
X95465380Y-36387857D02*
X94465380Y-36387857D01*
X94941571Y-35768809D02*
X94941571Y-35435476D01*
X95465380Y-35292619D02*
X95465380Y-35768809D01*
X94465380Y-35768809D01*
X94465380Y-35292619D01*
X95560619Y-35102142D02*
X95560619Y-34340238D01*
X95465380Y-34102142D02*
X94465380Y-34102142D01*
X95465380Y-33625952D02*
X94465380Y-33625952D01*
X95465380Y-33054523D01*
X94465380Y-33054523D01*
X95465380Y-32054523D02*
X95465380Y-32625952D01*
X95465380Y-32340238D02*
X94465380Y-32340238D01*
X94608238Y-32435476D01*
X94703476Y-32530714D01*
X94751095Y-32625952D01*
%TD*%
M02*
