%TF.GenerationSoftware,KiCad,Pcbnew,(5.1.7)-1*%
%TF.CreationDate,2023-03-06T21:23:01+00:00*%
%TF.ProjectId,KOSMO-POLY6-JACKS,4b4f534d-4f2d-4504-9f4c-59362d4a4143,v0.1.1*%
%TF.SameCoordinates,Original*%
%TF.FileFunction,Soldermask,Top*%
%TF.FilePolarity,Negative*%
%FSLAX46Y46*%
G04 Gerber Fmt 4.6, Leading zero omitted, Abs format (unit mm)*
G04 Created by KiCad (PCBNEW (5.1.7)-1) date 2023-03-06 21:23:01*
%MOMM*%
%LPD*%
G01*
G04 APERTURE LIST*
%ADD10C,5.600000*%
%ADD11C,1.700000*%
%ADD12R,4.500000X4.500000*%
%ADD13C,4.500000*%
G04 APERTURE END LIST*
D10*
%TO.C,H2*%
X57657000Y-19837000D03*
%TD*%
D11*
%TO.C,PowerOUT1*%
X103448000Y-184517000D03*
X100908000Y-184517000D03*
X98368000Y-184517000D03*
X103448000Y-187057000D03*
X100908000Y-187057000D03*
G36*
G01*
X98968000Y-187907000D02*
X97768000Y-187907000D01*
G75*
G02*
X97518000Y-187657000I0J250000D01*
G01*
X97518000Y-186457000D01*
G75*
G02*
X97768000Y-186207000I250000J0D01*
G01*
X98968000Y-186207000D01*
G75*
G02*
X99218000Y-186457000I0J-250000D01*
G01*
X99218000Y-187657000D01*
G75*
G02*
X98968000Y-187907000I-250000J0D01*
G01*
G37*
%TD*%
%TO.C,PowerIN1*%
X78053000Y-184448000D03*
X75513000Y-184448000D03*
X72973000Y-184448000D03*
X78053000Y-186988000D03*
X75513000Y-186988000D03*
G36*
G01*
X73573000Y-187838000D02*
X72373000Y-187838000D01*
G75*
G02*
X72123000Y-187588000I0J250000D01*
G01*
X72123000Y-186388000D01*
G75*
G02*
X72373000Y-186138000I250000J0D01*
G01*
X73573000Y-186138000D01*
G75*
G02*
X73823000Y-186388000I0J-250000D01*
G01*
X73823000Y-187588000D01*
G75*
G02*
X73573000Y-187838000I-250000J0D01*
G01*
G37*
%TD*%
D10*
%TO.C,H4*%
X119655000Y-186829000D03*
%TD*%
%TO.C,H3*%
X57669000Y-186831000D03*
%TD*%
%TO.C,H1*%
X119657000Y-19835000D03*
%TD*%
D11*
%TO.C,RAMP_OUT1*%
X72078000Y-39055000D03*
X72078000Y-36515000D03*
X72078000Y-33975000D03*
X72078000Y-31435000D03*
X69538000Y-39055000D03*
X69538000Y-36515000D03*
X69538000Y-33975000D03*
G36*
G01*
X68688000Y-32035000D02*
X68688000Y-30835000D01*
G75*
G02*
X68938000Y-30585000I250000J0D01*
G01*
X70138000Y-30585000D01*
G75*
G02*
X70388000Y-30835000I0J-250000D01*
G01*
X70388000Y-32035000D01*
G75*
G02*
X70138000Y-32285000I-250000J0D01*
G01*
X68938000Y-32285000D01*
G75*
G02*
X68688000Y-32035000I0J250000D01*
G01*
G37*
%TD*%
%TO.C,RAMP_IN1*%
X107283000Y-39055000D03*
X107283000Y-36515000D03*
X107283000Y-33975000D03*
X107283000Y-31435000D03*
X104743000Y-39055000D03*
X104743000Y-36515000D03*
X104743000Y-33975000D03*
G36*
G01*
X103893000Y-32035000D02*
X103893000Y-30835000D01*
G75*
G02*
X104143000Y-30585000I250000J0D01*
G01*
X105343000Y-30585000D01*
G75*
G02*
X105593000Y-30835000I0J-250000D01*
G01*
X105593000Y-32035000D01*
G75*
G02*
X105343000Y-32285000I-250000J0D01*
G01*
X104143000Y-32285000D01*
G75*
G02*
X103893000Y-32035000I0J250000D01*
G01*
G37*
%TD*%
%TO.C,PULSE_OUT1*%
X83078000Y-39055000D03*
X83078000Y-36515000D03*
X83078000Y-33975000D03*
X83078000Y-31435000D03*
X80538000Y-39055000D03*
X80538000Y-36515000D03*
X80538000Y-33975000D03*
G36*
G01*
X79688000Y-32035000D02*
X79688000Y-30835000D01*
G75*
G02*
X79938000Y-30585000I250000J0D01*
G01*
X81138000Y-30585000D01*
G75*
G02*
X81388000Y-30835000I0J-250000D01*
G01*
X81388000Y-32035000D01*
G75*
G02*
X81138000Y-32285000I-250000J0D01*
G01*
X79938000Y-32285000D01*
G75*
G02*
X79688000Y-32035000I0J250000D01*
G01*
G37*
%TD*%
%TO.C,PULSE_IN1*%
X118283000Y-39055000D03*
X118283000Y-36515000D03*
X118283000Y-33975000D03*
X118283000Y-31435000D03*
X115743000Y-39055000D03*
X115743000Y-36515000D03*
X115743000Y-33975000D03*
G36*
G01*
X114893000Y-32035000D02*
X114893000Y-30835000D01*
G75*
G02*
X115143000Y-30585000I250000J0D01*
G01*
X116343000Y-30585000D01*
G75*
G02*
X116593000Y-30835000I0J-250000D01*
G01*
X116593000Y-32035000D01*
G75*
G02*
X116343000Y-32285000I-250000J0D01*
G01*
X115143000Y-32285000D01*
G75*
G02*
X114893000Y-32035000I0J250000D01*
G01*
G37*
%TD*%
D12*
%TO.C,J18*%
X71181000Y-167666000D03*
D13*
X66101000Y-178334000D03*
X60132000Y-171476000D03*
X72197000Y-174778000D03*
X64069000Y-166142000D03*
%TD*%
D12*
%TO.C,J17*%
X117181000Y-167666000D03*
D13*
X112101000Y-178334000D03*
X106132000Y-171476000D03*
X118197000Y-174778000D03*
X110069000Y-166142000D03*
%TD*%
D12*
%TO.C,J16*%
X94181000Y-167666000D03*
D13*
X89101000Y-178334000D03*
X83132000Y-171476000D03*
X95197000Y-174778000D03*
X87069000Y-166142000D03*
%TD*%
D12*
%TO.C,J15*%
X71181000Y-144666000D03*
D13*
X66101000Y-155334000D03*
X60132000Y-148476000D03*
X72197000Y-151778000D03*
X64069000Y-143142000D03*
%TD*%
D12*
%TO.C,J14*%
X117181000Y-144666000D03*
D13*
X112101000Y-155334000D03*
X106132000Y-148476000D03*
X118197000Y-151778000D03*
X110069000Y-143142000D03*
%TD*%
D12*
%TO.C,J13*%
X94181000Y-144666000D03*
D13*
X89101000Y-155334000D03*
X83132000Y-148476000D03*
X95197000Y-151778000D03*
X87069000Y-143142000D03*
%TD*%
D12*
%TO.C,J12*%
X71181000Y-121666000D03*
D13*
X66101000Y-132334000D03*
X60132000Y-125476000D03*
X72197000Y-128778000D03*
X64069000Y-120142000D03*
%TD*%
D12*
%TO.C,J11*%
X117181000Y-121666000D03*
D13*
X112101000Y-132334000D03*
X106132000Y-125476000D03*
X118197000Y-128778000D03*
X110069000Y-120142000D03*
%TD*%
D12*
%TO.C,J10*%
X94181000Y-121666000D03*
D13*
X89101000Y-132334000D03*
X83132000Y-125476000D03*
X95197000Y-128778000D03*
X87069000Y-120142000D03*
%TD*%
D12*
%TO.C,J9*%
X71181000Y-98666000D03*
D13*
X66101000Y-109334000D03*
X60132000Y-102476000D03*
X72197000Y-105778000D03*
X64069000Y-97142000D03*
%TD*%
D12*
%TO.C,J8*%
X117181000Y-98666000D03*
D13*
X112101000Y-109334000D03*
X106132000Y-102476000D03*
X118197000Y-105778000D03*
X110069000Y-97142000D03*
%TD*%
D12*
%TO.C,J7*%
X94181000Y-98666000D03*
D13*
X89101000Y-109334000D03*
X83132000Y-102476000D03*
X95197000Y-105778000D03*
X87069000Y-97142000D03*
%TD*%
D12*
%TO.C,J6*%
X71181000Y-75666000D03*
D13*
X66101000Y-86334000D03*
X60132000Y-79476000D03*
X72197000Y-82778000D03*
X64069000Y-74142000D03*
%TD*%
D12*
%TO.C,J5*%
X117181000Y-75666000D03*
D13*
X112101000Y-86334000D03*
X106132000Y-79476000D03*
X118197000Y-82778000D03*
X110069000Y-74142000D03*
%TD*%
D12*
%TO.C,J4*%
X94181000Y-75666000D03*
D13*
X89101000Y-86334000D03*
X83132000Y-79476000D03*
X95197000Y-82778000D03*
X87069000Y-74142000D03*
%TD*%
D12*
%TO.C,J3*%
X71181000Y-52666000D03*
D13*
X66101000Y-63334000D03*
X60132000Y-56476000D03*
X72197000Y-59778000D03*
X64069000Y-51142000D03*
%TD*%
D12*
%TO.C,J2*%
X117181000Y-52666000D03*
D13*
X112101000Y-63334000D03*
X106132000Y-56476000D03*
X118197000Y-59778000D03*
X110069000Y-51142000D03*
%TD*%
D12*
%TO.C,J1*%
X94181000Y-52666000D03*
D13*
X89101000Y-63334000D03*
X83132000Y-56476000D03*
X95197000Y-59778000D03*
X87069000Y-51142000D03*
%TD*%
D11*
%TO.C,GATE_OUT1*%
X61078000Y-39055000D03*
X61078000Y-36515000D03*
X61078000Y-33975000D03*
X61078000Y-31435000D03*
X58538000Y-39055000D03*
X58538000Y-36515000D03*
X58538000Y-33975000D03*
G36*
G01*
X57688000Y-32035000D02*
X57688000Y-30835000D01*
G75*
G02*
X57938000Y-30585000I250000J0D01*
G01*
X59138000Y-30585000D01*
G75*
G02*
X59388000Y-30835000I0J-250000D01*
G01*
X59388000Y-32035000D01*
G75*
G02*
X59138000Y-32285000I-250000J0D01*
G01*
X57938000Y-32285000D01*
G75*
G02*
X57688000Y-32035000I0J250000D01*
G01*
G37*
%TD*%
%TO.C,GATE_IN1*%
X96283000Y-39055000D03*
X96283000Y-36515000D03*
X96283000Y-33975000D03*
X96283000Y-31435000D03*
X93743000Y-39055000D03*
X93743000Y-36515000D03*
X93743000Y-33975000D03*
G36*
G01*
X92893000Y-32035000D02*
X92893000Y-30835000D01*
G75*
G02*
X93143000Y-30585000I250000J0D01*
G01*
X94343000Y-30585000D01*
G75*
G02*
X94593000Y-30835000I0J-250000D01*
G01*
X94593000Y-32035000D01*
G75*
G02*
X94343000Y-32285000I-250000J0D01*
G01*
X93143000Y-32285000D01*
G75*
G02*
X92893000Y-32035000I0J250000D01*
G01*
G37*
%TD*%
M02*
