%TF.GenerationSoftware,KiCad,Pcbnew,7.0.1*%
%TF.CreationDate,2023-03-13T20:41:13+00:00*%
%TF.ProjectId,KOSMO-POLY6-JACKS,4b4f534d-4f2d-4504-9f4c-59362d4a4143,v0.1.1*%
%TF.SameCoordinates,Original*%
%TF.FileFunction,Copper,L2,Bot*%
%TF.FilePolarity,Positive*%
%FSLAX46Y46*%
G04 Gerber Fmt 4.6, Leading zero omitted, Abs format (unit mm)*
G04 Created by KiCad (PCBNEW 7.0.1) date 2023-03-13 20:41:13*
%MOMM*%
%LPD*%
G01*
G04 APERTURE LIST*
G04 Aperture macros list*
%AMRoundRect*
0 Rectangle with rounded corners*
0 $1 Rounding radius*
0 $2 $3 $4 $5 $6 $7 $8 $9 X,Y pos of 4 corners*
0 Add a 4 corners polygon primitive as box body*
4,1,4,$2,$3,$4,$5,$6,$7,$8,$9,$2,$3,0*
0 Add four circle primitives for the rounded corners*
1,1,$1+$1,$2,$3*
1,1,$1+$1,$4,$5*
1,1,$1+$1,$6,$7*
1,1,$1+$1,$8,$9*
0 Add four rect primitives between the rounded corners*
20,1,$1+$1,$2,$3,$4,$5,0*
20,1,$1+$1,$4,$5,$6,$7,0*
20,1,$1+$1,$6,$7,$8,$9,0*
20,1,$1+$1,$8,$9,$2,$3,0*%
G04 Aperture macros list end*
%TA.AperFunction,ComponentPad*%
%ADD10RoundRect,0.250000X-0.600000X-0.600000X0.600000X-0.600000X0.600000X0.600000X-0.600000X0.600000X0*%
%TD*%
%TA.AperFunction,ComponentPad*%
%ADD11C,1.700000*%
%TD*%
%TA.AperFunction,ComponentPad*%
%ADD12C,5.600000*%
%TD*%
%TA.AperFunction,ComponentPad*%
%ADD13RoundRect,0.250000X0.600000X-0.600000X0.600000X0.600000X-0.600000X0.600000X-0.600000X-0.600000X0*%
%TD*%
%TA.AperFunction,ComponentPad*%
%ADD14R,4.500000X4.500000*%
%TD*%
%TA.AperFunction,ComponentPad*%
%ADD15C,4.500000*%
%TD*%
%TA.AperFunction,Conductor*%
%ADD16C,0.250000*%
%TD*%
G04 APERTURE END LIST*
D10*
%TO.P,GATE_OUT1,1*%
%TO.N,GATE_OUT0-N*%
X58538000Y-31435000D03*
D11*
%TO.P,GATE_OUT1,2*%
%TO.N,GATE_OUT3-N*%
X61078000Y-31435000D03*
%TO.P,GATE_OUT1,3*%
%TO.N,GATE_OUT1-N*%
X58538000Y-33975000D03*
%TO.P,GATE_OUT1,4*%
X61078000Y-33975000D03*
%TO.P,GATE_OUT1,5*%
%TO.N,GATE_OUT2-N*%
X58538000Y-36515000D03*
%TO.P,GATE_OUT1,6*%
X61078000Y-36515000D03*
%TO.P,GATE_OUT1,7*%
%TO.N,GND-S*%
X58538000Y-39055000D03*
%TO.P,GATE_OUT1,8*%
X61078000Y-39055000D03*
%TD*%
D12*
%TO.P,H1,1*%
%TO.N,GND-S*%
X119657000Y-19835000D03*
%TD*%
%TO.P,H2,1*%
%TO.N,GND-S*%
X57657000Y-19837000D03*
%TD*%
%TO.P,H3,1*%
%TO.N,GND-S*%
X57669000Y-186831000D03*
%TD*%
%TO.P,H4,1*%
%TO.N,GND-S*%
X119655000Y-186829000D03*
%TD*%
D10*
%TO.P,PULSE_IN1,1*%
%TO.N,PULSE_OUT0-S*%
X115743000Y-31435000D03*
D11*
%TO.P,PULSE_IN1,2*%
%TO.N,PULSE_OUT3-S*%
X118283000Y-31435000D03*
%TO.P,PULSE_IN1,3*%
%TO.N,PULSE_OUT1-S*%
X115743000Y-33975000D03*
%TO.P,PULSE_IN1,4*%
%TO.N,PULSE_OUT4-S*%
X118283000Y-33975000D03*
%TO.P,PULSE_IN1,5*%
%TO.N,PULSE_OUT2-S*%
X115743000Y-36515000D03*
%TO.P,PULSE_IN1,6*%
%TO.N,PULSE_OUT5-S*%
X118283000Y-36515000D03*
%TO.P,PULSE_IN1,7*%
%TO.N,GND-S*%
X115743000Y-39055000D03*
%TO.P,PULSE_IN1,8*%
X118283000Y-39055000D03*
%TD*%
D10*
%TO.P,PULSE_OUT1,1*%
%TO.N,PULSE_OUT0-N*%
X80538000Y-31435000D03*
D11*
%TO.P,PULSE_OUT1,2*%
%TO.N,PULSE_OUT3-N*%
X83078000Y-31435000D03*
%TO.P,PULSE_OUT1,3*%
%TO.N,PULSE_OUT1-N*%
X80538000Y-33975000D03*
%TO.P,PULSE_OUT1,4*%
%TO.N,PULSE_OUT4-N*%
X83078000Y-33975000D03*
%TO.P,PULSE_OUT1,5*%
%TO.N,PULSE_OUT2-N*%
X80538000Y-36515000D03*
%TO.P,PULSE_OUT1,6*%
%TO.N,PULSE_OUT5-N*%
X83078000Y-36515000D03*
%TO.P,PULSE_OUT1,7*%
%TO.N,GND-S*%
X80538000Y-39055000D03*
%TO.P,PULSE_OUT1,8*%
X83078000Y-39055000D03*
%TD*%
D10*
%TO.P,RAMP_IN1,1*%
%TO.N,RAMP_OUT0-S*%
X104743000Y-31435000D03*
D11*
%TO.P,RAMP_IN1,2*%
%TO.N,RAMP_OUT3-S*%
X107283000Y-31435000D03*
%TO.P,RAMP_IN1,3*%
%TO.N,RAMP_OUT1-S*%
X104743000Y-33975000D03*
%TO.P,RAMP_IN1,4*%
%TO.N,RAMP_OUT4-S*%
X107283000Y-33975000D03*
%TO.P,RAMP_IN1,5*%
%TO.N,RAMP_OUT2-S*%
X104743000Y-36515000D03*
%TO.P,RAMP_IN1,6*%
%TO.N,RAMP_OUT5-S*%
X107283000Y-36515000D03*
%TO.P,RAMP_IN1,7*%
%TO.N,GND-S*%
X104743000Y-39055000D03*
%TO.P,RAMP_IN1,8*%
X107283000Y-39055000D03*
%TD*%
D10*
%TO.P,RAMP_OUT1,1*%
%TO.N,RAMP_OUT0-N*%
X69538000Y-31435000D03*
D11*
%TO.P,RAMP_OUT1,2*%
%TO.N,RAMP_OUT3-N*%
X72078000Y-31435000D03*
%TO.P,RAMP_OUT1,3*%
%TO.N,RAMP_OUT1-N*%
X69538000Y-33975000D03*
%TO.P,RAMP_OUT1,4*%
%TO.N,RAMP_OUT4-N*%
X72078000Y-33975000D03*
%TO.P,RAMP_OUT1,5*%
%TO.N,RAMP_OUT2-N*%
X69538000Y-36515000D03*
%TO.P,RAMP_OUT1,6*%
%TO.N,RAMP_OUT5-N*%
X72078000Y-36515000D03*
%TO.P,RAMP_OUT1,7*%
%TO.N,GND-S*%
X69538000Y-39055000D03*
%TO.P,RAMP_OUT1,8*%
X72078000Y-39055000D03*
%TD*%
D13*
%TO.P,PowerIN1,1*%
%TO.N,+12V*%
X72973000Y-186988000D03*
D11*
%TO.P,PowerIN1,2*%
%TO.N,-12V*%
X72973000Y-184448000D03*
%TO.P,PowerIN1,3*%
%TO.N,+5V*%
X75513000Y-186988000D03*
%TO.P,PowerIN1,4*%
%TO.N,+3V3*%
X75513000Y-184448000D03*
%TO.P,PowerIN1,5*%
%TO.N,GND-S*%
X78053000Y-186988000D03*
%TO.P,PowerIN1,6*%
X78053000Y-184448000D03*
%TD*%
D13*
%TO.P,PowerOUT1,1*%
%TO.N,+12V*%
X98368000Y-187057000D03*
D11*
%TO.P,PowerOUT1,2*%
%TO.N,-12V*%
X98368000Y-184517000D03*
%TO.P,PowerOUT1,3*%
%TO.N,+5V*%
X100908000Y-187057000D03*
%TO.P,PowerOUT1,4*%
%TO.N,+3V3*%
X100908000Y-184517000D03*
%TO.P,PowerOUT1,5*%
%TO.N,GND-S*%
X103448000Y-187057000D03*
%TO.P,PowerOUT1,6*%
X103448000Y-184517000D03*
%TD*%
D10*
%TO.P,GATE_IN1,1*%
%TO.N,GATE_OUT0-S*%
X93743000Y-31435000D03*
D11*
%TO.P,GATE_IN1,2*%
%TO.N,GATE_OUT3-S*%
X96283000Y-31435000D03*
%TO.P,GATE_IN1,3*%
%TO.N,GATE_OUT1-S*%
X93743000Y-33975000D03*
%TO.P,GATE_IN1,4*%
X96283000Y-33975000D03*
%TO.P,GATE_IN1,5*%
%TO.N,GATE_OUT2-S*%
X93743000Y-36515000D03*
%TO.P,GATE_IN1,6*%
X96283000Y-36515000D03*
%TO.P,GATE_IN1,7*%
%TO.N,GND-S*%
X93743000Y-39055000D03*
%TO.P,GATE_IN1,8*%
X96283000Y-39055000D03*
%TD*%
D14*
%TO.P,J1,G*%
%TO.N,GND-S*%
X94181000Y-52666000D03*
D15*
%TO.P,J1,S*%
%TO.N,Net-(J1-PadS)*%
X89101000Y-63334000D03*
%TO.P,J1,SN*%
%TO.N,Net-(J1-PadSN)*%
X95197000Y-59778000D03*
%TO.P,J1,T*%
%TO.N,RAMP_OUT0-S*%
X83132000Y-56476000D03*
%TO.P,J1,TN*%
%TO.N,RAMP_OUT0-N*%
X87069000Y-51142000D03*
%TD*%
D14*
%TO.P,J2,G*%
%TO.N,GND-S*%
X117181000Y-52666000D03*
D15*
%TO.P,J2,S*%
%TO.N,Net-(J2-PadS)*%
X112101000Y-63334000D03*
%TO.P,J2,SN*%
%TO.N,Net-(J2-PadSN)*%
X118197000Y-59778000D03*
%TO.P,J2,T*%
%TO.N,PULSE_OUT0-S*%
X106132000Y-56476000D03*
%TO.P,J2,TN*%
%TO.N,PULSE_OUT0-N*%
X110069000Y-51142000D03*
%TD*%
D14*
%TO.P,J3,G*%
%TO.N,GND-S*%
X71181000Y-52666000D03*
D15*
%TO.P,J3,S*%
%TO.N,Net-(J3-PadS)*%
X66101000Y-63334000D03*
%TO.P,J3,SN*%
%TO.N,Net-(J3-PadSN)*%
X72197000Y-59778000D03*
%TO.P,J3,T*%
%TO.N,GATE_OUT0-S*%
X60132000Y-56476000D03*
%TO.P,J3,TN*%
%TO.N,GATE_OUT0-N*%
X64069000Y-51142000D03*
%TD*%
D14*
%TO.P,J4,G*%
%TO.N,GND-S*%
X94181000Y-75666000D03*
D15*
%TO.P,J4,S*%
%TO.N,Net-(J4-PadS)*%
X89101000Y-86334000D03*
%TO.P,J4,SN*%
%TO.N,Net-(J4-PadSN)*%
X95197000Y-82778000D03*
%TO.P,J4,T*%
%TO.N,RAMP_OUT1-S*%
X83132000Y-79476000D03*
%TO.P,J4,TN*%
%TO.N,RAMP_OUT1-N*%
X87069000Y-74142000D03*
%TD*%
D14*
%TO.P,J5,G*%
%TO.N,GND-S*%
X117181000Y-75666000D03*
D15*
%TO.P,J5,S*%
%TO.N,Net-(J5-PadS)*%
X112101000Y-86334000D03*
%TO.P,J5,SN*%
%TO.N,Net-(J5-PadSN)*%
X118197000Y-82778000D03*
%TO.P,J5,T*%
%TO.N,PULSE_OUT1-S*%
X106132000Y-79476000D03*
%TO.P,J5,TN*%
%TO.N,PULSE_OUT1-N*%
X110069000Y-74142000D03*
%TD*%
D14*
%TO.P,J6,G*%
%TO.N,GND-S*%
X71181000Y-75666000D03*
D15*
%TO.P,J6,S*%
%TO.N,Net-(J6-PadS)*%
X66101000Y-86334000D03*
%TO.P,J6,SN*%
%TO.N,Net-(J6-PadSN)*%
X72197000Y-82778000D03*
%TO.P,J6,T*%
%TO.N,GATE_OUT1-S*%
X60132000Y-79476000D03*
%TO.P,J6,TN*%
%TO.N,GATE_OUT1-N*%
X64069000Y-74142000D03*
%TD*%
D14*
%TO.P,J7,G*%
%TO.N,GND-S*%
X94181000Y-98666000D03*
D15*
%TO.P,J7,S*%
%TO.N,Net-(J7-PadS)*%
X89101000Y-109334000D03*
%TO.P,J7,SN*%
%TO.N,Net-(J7-PadSN)*%
X95197000Y-105778000D03*
%TO.P,J7,T*%
%TO.N,RAMP_OUT2-S*%
X83132000Y-102476000D03*
%TO.P,J7,TN*%
%TO.N,RAMP_OUT2-N*%
X87069000Y-97142000D03*
%TD*%
D14*
%TO.P,J8,G*%
%TO.N,GND-S*%
X117181000Y-98666000D03*
D15*
%TO.P,J8,S*%
%TO.N,Net-(J8-PadS)*%
X112101000Y-109334000D03*
%TO.P,J8,SN*%
%TO.N,Net-(J8-PadSN)*%
X118197000Y-105778000D03*
%TO.P,J8,T*%
%TO.N,PULSE_OUT2-S*%
X106132000Y-102476000D03*
%TO.P,J8,TN*%
%TO.N,PULSE_OUT2-N*%
X110069000Y-97142000D03*
%TD*%
D14*
%TO.P,J9,G*%
%TO.N,GND-S*%
X71181000Y-98666000D03*
D15*
%TO.P,J9,S*%
%TO.N,Net-(J9-PadS)*%
X66101000Y-109334000D03*
%TO.P,J9,SN*%
%TO.N,Net-(J9-PadSN)*%
X72197000Y-105778000D03*
%TO.P,J9,T*%
%TO.N,GATE_OUT2-S*%
X60132000Y-102476000D03*
%TO.P,J9,TN*%
%TO.N,GATE_OUT2-N*%
X64069000Y-97142000D03*
%TD*%
D14*
%TO.P,J10,G*%
%TO.N,GND-S*%
X94181000Y-121666000D03*
D15*
%TO.P,J10,S*%
%TO.N,Net-(J10-PadS)*%
X89101000Y-132334000D03*
%TO.P,J10,SN*%
%TO.N,Net-(J10-PadSN)*%
X95197000Y-128778000D03*
%TO.P,J10,T*%
%TO.N,RAMP_OUT3-S*%
X83132000Y-125476000D03*
%TO.P,J10,TN*%
%TO.N,RAMP_OUT3-N*%
X87069000Y-120142000D03*
%TD*%
D14*
%TO.P,J11,G*%
%TO.N,GND-S*%
X117181000Y-121666000D03*
D15*
%TO.P,J11,S*%
%TO.N,Net-(J11-PadS)*%
X112101000Y-132334000D03*
%TO.P,J11,SN*%
%TO.N,Net-(J11-PadSN)*%
X118197000Y-128778000D03*
%TO.P,J11,T*%
%TO.N,PULSE_OUT3-S*%
X106132000Y-125476000D03*
%TO.P,J11,TN*%
%TO.N,PULSE_OUT3-N*%
X110069000Y-120142000D03*
%TD*%
D14*
%TO.P,J12,G*%
%TO.N,GND-S*%
X71181000Y-121666000D03*
D15*
%TO.P,J12,S*%
%TO.N,Net-(J12-PadS)*%
X66101000Y-132334000D03*
%TO.P,J12,SN*%
%TO.N,Net-(J12-PadSN)*%
X72197000Y-128778000D03*
%TO.P,J12,T*%
%TO.N,GATE_OUT3-S*%
X60132000Y-125476000D03*
%TO.P,J12,TN*%
%TO.N,GATE_OUT3-N*%
X64069000Y-120142000D03*
%TD*%
D14*
%TO.P,J13,G*%
%TO.N,GND-S*%
X94181000Y-144666000D03*
D15*
%TO.P,J13,S*%
%TO.N,Net-(J13-PadS)*%
X89101000Y-155334000D03*
%TO.P,J13,SN*%
%TO.N,Net-(J13-PadSN)*%
X95197000Y-151778000D03*
%TO.P,J13,T*%
%TO.N,RAMP_OUT4-S*%
X83132000Y-148476000D03*
%TO.P,J13,TN*%
%TO.N,RAMP_OUT4-N*%
X87069000Y-143142000D03*
%TD*%
D14*
%TO.P,J14,G*%
%TO.N,GND-S*%
X117181000Y-144666000D03*
D15*
%TO.P,J14,S*%
%TO.N,Net-(J14-PadS)*%
X112101000Y-155334000D03*
%TO.P,J14,SN*%
%TO.N,Net-(J14-PadSN)*%
X118197000Y-151778000D03*
%TO.P,J14,T*%
%TO.N,PULSE_OUT4-S*%
X106132000Y-148476000D03*
%TO.P,J14,TN*%
%TO.N,PULSE_OUT4-N*%
X110069000Y-143142000D03*
%TD*%
D14*
%TO.P,J15,G*%
%TO.N,GND-S*%
X71181000Y-144666000D03*
D15*
%TO.P,J15,S*%
%TO.N,Net-(J15-PadS)*%
X66101000Y-155334000D03*
%TO.P,J15,SN*%
%TO.N,Net-(J15-PadSN)*%
X72197000Y-151778000D03*
%TO.P,J15,T*%
%TO.N,GATE_OUT1-S*%
X60132000Y-148476000D03*
%TO.P,J15,TN*%
%TO.N,GATE_OUT1-N*%
X64069000Y-143142000D03*
%TD*%
D14*
%TO.P,J16,G*%
%TO.N,GND-S*%
X94181000Y-167666000D03*
D15*
%TO.P,J16,S*%
%TO.N,Net-(J16-PadS)*%
X89101000Y-178334000D03*
%TO.P,J16,SN*%
%TO.N,Net-(J16-PadSN)*%
X95197000Y-174778000D03*
%TO.P,J16,T*%
%TO.N,RAMP_OUT5-S*%
X83132000Y-171476000D03*
%TO.P,J16,TN*%
%TO.N,RAMP_OUT5-N*%
X87069000Y-166142000D03*
%TD*%
D14*
%TO.P,J17,G*%
%TO.N,GND-S*%
X117181000Y-167666000D03*
D15*
%TO.P,J17,S*%
%TO.N,Net-(J17-PadS)*%
X112101000Y-178334000D03*
%TO.P,J17,SN*%
%TO.N,Net-(J17-PadSN)*%
X118197000Y-174778000D03*
%TO.P,J17,T*%
%TO.N,PULSE_OUT5-S*%
X106132000Y-171476000D03*
%TO.P,J17,TN*%
%TO.N,PULSE_OUT5-N*%
X110069000Y-166142000D03*
%TD*%
D14*
%TO.P,J18,G*%
%TO.N,GND-S*%
X71181000Y-167666000D03*
D15*
%TO.P,J18,S*%
%TO.N,Net-(J18-PadS)*%
X66101000Y-178334000D03*
%TO.P,J18,SN*%
%TO.N,Net-(J18-PadSN)*%
X72197000Y-174778000D03*
%TO.P,J18,T*%
%TO.N,GATE_OUT2-S*%
X60132000Y-171476000D03*
%TO.P,J18,TN*%
%TO.N,GATE_OUT2-N*%
X64069000Y-166142000D03*
%TD*%
D16*
%TO.N,GND-S*%
X69621600Y-56800700D02*
X69621600Y-71531300D01*
X71181000Y-142090700D02*
X69610000Y-140519700D01*
X94181000Y-121666000D02*
X96756300Y-121666000D01*
X113543700Y-145728000D02*
X114605700Y-144666000D01*
X103448000Y-174700700D02*
X103448000Y-184517000D01*
X94181000Y-167666000D02*
X91605700Y-167666000D01*
X94181000Y-98666000D02*
X96756300Y-98666000D01*
X71181000Y-144666000D02*
X71181000Y-142090700D01*
X117181000Y-121666000D02*
X114605700Y-121666000D01*
X83078000Y-39055000D02*
X80538000Y-39055000D01*
X117181000Y-144666000D02*
X114605700Y-144666000D01*
X117181000Y-39055000D02*
X118283000Y-39055000D01*
X82319400Y-176952300D02*
X91605700Y-167666000D01*
X71181000Y-170241300D02*
X71342000Y-170241300D01*
X71181000Y-52666000D02*
X71181000Y-55241300D01*
X117181000Y-50090700D02*
X117181000Y-39055000D01*
X69610000Y-140519700D02*
X69610000Y-125812300D01*
X117181000Y-98666000D02*
X114605700Y-98666000D01*
X117181000Y-167666000D02*
X114605700Y-167666000D01*
X113543700Y-122728000D02*
X114605700Y-121666000D01*
X96283000Y-39055000D02*
X93743000Y-39055000D01*
X71181000Y-75666000D02*
X71181000Y-73090700D01*
X69610000Y-125812300D02*
X71181000Y-124241300D01*
X97818300Y-145728000D02*
X113543700Y-145728000D01*
X107571000Y-174700700D02*
X103448000Y-174700700D01*
X117107600Y-39055000D02*
X117181000Y-39055000D01*
X69621600Y-71531300D02*
X71181000Y-73090700D01*
X117107600Y-22384400D02*
X119657000Y-19835000D01*
X78053000Y-176952300D02*
X82319400Y-176952300D01*
X97818300Y-122728000D02*
X113543700Y-122728000D01*
X71181000Y-167666000D02*
X71181000Y-170241300D01*
X78053000Y-176952300D02*
X78053000Y-184448000D01*
X94181000Y-167666000D02*
X96756300Y-167666000D01*
X71181000Y-55241300D02*
X69621600Y-56800700D01*
X94181000Y-144666000D02*
X96756300Y-144666000D01*
X97818300Y-99728000D02*
X113543700Y-99728000D01*
X114605700Y-167666000D02*
X107571000Y-174700700D01*
X96756300Y-98666000D02*
X97818300Y-99728000D01*
X80538000Y-39055000D02*
X72078000Y-39055000D01*
X96756300Y-144666000D02*
X97818300Y-145728000D01*
X93743000Y-39055000D02*
X83078000Y-39055000D01*
X117181000Y-52666000D02*
X117181000Y-50090700D01*
X96756300Y-121666000D02*
X97818300Y-122728000D01*
X96756300Y-168009000D02*
X96756300Y-167666000D01*
X117107600Y-39055000D02*
X117107600Y-22384400D01*
X61078000Y-39055000D02*
X58538000Y-39055000D01*
X71181000Y-121666000D02*
X71181000Y-124241300D01*
X104743000Y-39055000D02*
X107283000Y-39055000D01*
X71342000Y-170241300D02*
X78053000Y-176952300D01*
X103448000Y-174700700D02*
X96756300Y-168009000D01*
X115743000Y-39055000D02*
X117107600Y-39055000D01*
X113543700Y-99728000D02*
X114605700Y-98666000D01*
%TO.N,GATE_OUT2-S*%
X93413400Y-41148400D02*
X95889000Y-41148400D01*
X82119000Y-76841100D02*
X88035500Y-76841100D01*
X60132000Y-102476000D02*
X62377600Y-102476000D01*
X89650500Y-75226100D02*
X89650500Y-68695900D01*
X88035500Y-76841100D02*
X89650500Y-75226100D01*
X89650500Y-68695900D02*
X80556600Y-59602000D01*
X80556600Y-59602000D02*
X80556600Y-54005200D01*
X79483800Y-85369800D02*
X79483800Y-79476300D01*
X97477000Y-39560400D02*
X97477000Y-37709000D01*
X79483800Y-79476300D02*
X82119000Y-76841100D01*
X62377600Y-102476000D02*
X79483800Y-85369800D01*
X80556600Y-54005200D02*
X93413400Y-41148400D01*
X97477000Y-37709000D02*
X96283000Y-36515000D01*
X95889000Y-41148400D02*
X97477000Y-39560400D01*
%TO.N,GATE_OUT1-S*%
X92567600Y-32799600D02*
X69023500Y-32799600D01*
X69023500Y-32799600D02*
X68319200Y-33503900D01*
X68319200Y-33503900D02*
X68319200Y-58591800D01*
X93743000Y-33975000D02*
X92567600Y-32799600D01*
X68451100Y-67571100D02*
X68451100Y-73470900D01*
X68451100Y-73470900D02*
X62446000Y-79476000D01*
X68735900Y-67286300D02*
X68451100Y-67571100D01*
X68319200Y-58591800D02*
X68735900Y-59008500D01*
X93743000Y-33975000D02*
X96283000Y-33975000D01*
X62446000Y-79476000D02*
X60132000Y-79476000D01*
X68735900Y-59008500D02*
X68735900Y-67286300D01*
%TO.N,GATE_OUT3-S*%
X60132000Y-125476000D02*
X56905000Y-122249000D01*
X56905000Y-31037900D02*
X58202500Y-29740400D01*
X58202500Y-29740400D02*
X94588400Y-29740400D01*
X94588400Y-29740400D02*
X96283000Y-31435000D01*
X56905000Y-122249000D02*
X56905000Y-31037900D01*
%TO.N,GATE_OUT0-S*%
X62405100Y-56476000D02*
X67774300Y-51106800D01*
X67774300Y-51106800D02*
X67774300Y-31179100D01*
X67774300Y-31179100D02*
X68700800Y-30252600D01*
X68700800Y-30252600D02*
X92560600Y-30252600D01*
X92560600Y-30252600D02*
X93743000Y-31435000D01*
X60132000Y-56476000D02*
X62405100Y-56476000D01*
%TO.N,RAMP_OUT0-S*%
X83132000Y-56476000D02*
X85398200Y-56476000D01*
X98730300Y-43143900D02*
X98730300Y-37447700D01*
X85398200Y-56476000D02*
X98730300Y-43143900D01*
X98730300Y-37447700D02*
X104743000Y-31435000D01*
%TO.N,PULSE_OUT0-S*%
X113207200Y-42699500D02*
X113207200Y-33970800D01*
X113207200Y-33970800D02*
X115743000Y-31435000D01*
X106132000Y-49774700D02*
X113207200Y-42699500D01*
X106132000Y-56476000D02*
X106132000Y-49774700D01*
%TO.N,RAMP_OUT1-S*%
X104743000Y-33975000D02*
X99539100Y-39178900D01*
X99539100Y-39178900D02*
X99539100Y-64700600D01*
X99539100Y-64700600D02*
X90789100Y-73450600D01*
X90789100Y-73450600D02*
X90789100Y-74724400D01*
X90789100Y-74724400D02*
X86037500Y-79476000D01*
X86037500Y-79476000D02*
X83132000Y-79476000D01*
%TO.N,PULSE_OUT1-S*%
X106132000Y-63334000D02*
X114087200Y-55378800D01*
X114087200Y-35630800D02*
X115743000Y-33975000D01*
X114087200Y-55378800D02*
X114087200Y-35630800D01*
X106132000Y-79476000D02*
X106132000Y-63334000D01*
%TO.N,RAMP_OUT2-S*%
X83132000Y-85171500D02*
X91464400Y-76839100D01*
X91464400Y-73412300D02*
X99989500Y-64887200D01*
X99989500Y-64887200D02*
X99989500Y-41268500D01*
X91464400Y-76839100D02*
X91464400Y-73412300D01*
X99989500Y-41268500D02*
X104743000Y-36515000D01*
X83132000Y-102476000D02*
X83132000Y-85171500D01*
%TO.N,RAMP_OUT3-S*%
X91512000Y-101495400D02*
X91512000Y-95799900D01*
X103077800Y-47994100D02*
X108922700Y-42149200D01*
X103077800Y-84234100D02*
X103077800Y-47994100D01*
X91512000Y-95799900D02*
X103077800Y-84234100D01*
X108922700Y-33074700D02*
X107283000Y-31435000D01*
X83132000Y-109875400D02*
X91512000Y-101495400D01*
X108922700Y-42149200D02*
X108922700Y-33074700D01*
X83132000Y-125476000D02*
X83132000Y-109875400D01*
%TO.N,RAMP_OUT4-S*%
X91061700Y-95613300D02*
X102429700Y-84245300D01*
X102429700Y-45738700D02*
X108458800Y-39709600D01*
X91061700Y-100231000D02*
X91061700Y-95613300D01*
X83132000Y-148476000D02*
X80554400Y-145898400D01*
X108458800Y-39709600D02*
X108458800Y-35150800D01*
X80554400Y-145898400D02*
X80554400Y-110738300D01*
X80554400Y-110738300D02*
X91061700Y-100231000D01*
X108458800Y-35150800D02*
X107283000Y-33975000D01*
X102429700Y-84245300D02*
X102429700Y-45738700D01*
%TO.N,PULSE_OUT5-S*%
X108421000Y-171476000D02*
X113991500Y-165905500D01*
X113991500Y-165905500D02*
X113991500Y-161817900D01*
X106132000Y-171476000D02*
X108421000Y-171476000D01*
X120819900Y-39051900D02*
X118283000Y-36515000D01*
X120819900Y-154989500D02*
X120819900Y-39051900D01*
X113991500Y-161817900D02*
X120819900Y-154989500D01*
%TO.N,RAMP_OUT5-S*%
X106013000Y-37785000D02*
X107283000Y-36515000D01*
X83132000Y-171476000D02*
X80104000Y-168448000D01*
X80104000Y-109914900D02*
X89644400Y-100374500D01*
X101365500Y-81919500D02*
X101365500Y-40766100D01*
X101365500Y-40766100D02*
X104346600Y-37785000D01*
X89644400Y-93640600D02*
X101365500Y-81919500D01*
X89644400Y-100374500D02*
X89644400Y-93640600D01*
X80104000Y-168448000D02*
X80104000Y-109914900D01*
X104346600Y-37785000D02*
X106013000Y-37785000D01*
%TO.N,GATE_OUT2-N*%
X58538000Y-36515000D02*
X61078000Y-36515000D01*
%TO.N,GATE_OUT1-N*%
X57355400Y-67428400D02*
X57355400Y-35157600D01*
X58538000Y-33975000D02*
X61078000Y-33975000D01*
X64069000Y-74142000D02*
X57355400Y-67428400D01*
X57355400Y-35157600D02*
X58538000Y-33975000D01*
%TO.N,GATE_OUT0-N*%
X64069000Y-35280400D02*
X61493600Y-32705000D01*
X64069000Y-51142000D02*
X64069000Y-35280400D01*
X61493600Y-32705000D02*
X59808000Y-32705000D01*
X59808000Y-32705000D02*
X58538000Y-31435000D01*
%TO.N,RAMP_OUT1-N*%
X70808000Y-41662600D02*
X70808000Y-35245000D01*
X87069000Y-74142000D02*
X78729400Y-65802400D01*
X70808000Y-35245000D02*
X69538000Y-33975000D01*
X78729400Y-65802400D02*
X78729400Y-49584000D01*
X78729400Y-49584000D02*
X70808000Y-41662600D01*
%TO.N,PULSE_OUT2-N*%
X110069000Y-97142000D02*
X103555300Y-90628300D01*
X81808000Y-35245000D02*
X80538000Y-36515000D01*
X109404900Y-31869900D02*
X107743900Y-30208900D01*
X103555300Y-50159300D02*
X109404900Y-44309700D01*
X97382200Y-35245000D02*
X81808000Y-35245000D01*
X103555300Y-90628300D02*
X103555300Y-50159300D01*
X107743900Y-30208900D02*
X102418300Y-30208900D01*
X109404900Y-44309700D02*
X109404900Y-31869900D01*
X102418300Y-30208900D02*
X97382200Y-35245000D01*
%TO.N,-12V*%
X97256400Y-185628600D02*
X98368000Y-184517000D01*
X74153600Y-185628600D02*
X97256400Y-185628600D01*
X72973000Y-184448000D02*
X74153600Y-185628600D01*
%TO.N,+12V*%
X72973000Y-186988000D02*
X74164900Y-188179900D01*
X97245100Y-188179900D02*
X98368000Y-187057000D01*
X74164900Y-188179900D02*
X97245100Y-188179900D01*
%TD*%
M02*
