M48
; DRILL file {KiCad 7.0.1} date Mon Mar 13 20:42:11 2023
; FORMAT={-:-/ absolute / inch / decimal}
; #@! TF.CreationDate,2023-03-13T20:42:11+00:00
; #@! TF.GenerationSoftware,Kicad,Pcbnew,7.0.1
; #@! TF.FileFunction,Plated,1,2,PTH
FMAT,2
INCH
; #@! TA.AperFunction,Plated,PTH,ComponentDrill
T1C0.0394
; #@! TA.AperFunction,Plated,PTH,ComponentDrill
T2C0.1063
; #@! TA.AperFunction,Plated,PTH,ComponentDrill
T3C0.1260
%
G90
G05
T1
X2.3046Y-1.2376
X2.3046Y-1.3376
X2.3046Y-1.4376
X2.3046Y-1.5376
X2.4046Y-1.2376
X2.4046Y-1.3376
X2.4046Y-1.4376
X2.4046Y-1.5376
X2.7377Y-1.2376
X2.7377Y-1.3376
X2.7377Y-1.4376
X2.7377Y-1.5376
X2.8377Y-1.2376
X2.8377Y-1.3376
X2.8377Y-1.4376
X2.8377Y-1.5376
X2.873Y-7.2617
X2.873Y-7.3617
X2.973Y-7.2617
X2.973Y-7.3617
X3.073Y-7.2617
X3.073Y-7.3617
X3.1708Y-1.2376
X3.1708Y-1.3376
X3.1708Y-1.4376
X3.1708Y-1.5376
X3.2708Y-1.2376
X3.2708Y-1.3376
X3.2708Y-1.4376
X3.2708Y-1.5376
X3.6907Y-1.2376
X3.6907Y-1.3376
X3.6907Y-1.4376
X3.6907Y-1.5376
X3.7907Y-1.2376
X3.7907Y-1.3376
X3.7907Y-1.4376
X3.7907Y-1.5376
X3.8728Y-7.2644
X3.8728Y-7.3644
X3.9728Y-7.2644
X3.9728Y-7.3644
X4.0728Y-7.2644
X4.0728Y-7.3644
X4.1237Y-1.2376
X4.1237Y-1.3376
X4.1237Y-1.4376
X4.1237Y-1.5376
X4.2237Y-1.2376
X4.2237Y-1.3376
X4.2237Y-1.4376
X4.2237Y-1.5376
X4.5568Y-1.2376
X4.5568Y-1.3376
X4.5568Y-1.4376
X4.5568Y-1.5376
X4.6568Y-1.2376
X4.6568Y-1.3376
X4.6568Y-1.4376
X4.6568Y-1.5376
T2
X2.3674Y-2.2235
X2.3674Y-3.129
X2.3674Y-4.0345
X2.3674Y-4.94
X2.3674Y-5.8455
X2.3674Y-6.751
X2.5224Y-2.0135
X2.5224Y-2.919
X2.5224Y-3.8245
X2.5224Y-4.73
X2.5224Y-5.6355
X2.5224Y-6.541
X2.6024Y-2.4935
X2.6024Y-3.399
X2.6024Y-4.3045
X2.6024Y-5.21
X2.6024Y-6.1155
X2.6024Y-7.021
X2.8024Y-2.0735
X2.8024Y-2.979
X2.8024Y-3.8845
X2.8024Y-4.79
X2.8024Y-5.6955
X2.8024Y-6.601
X2.8424Y-2.3535
X2.8424Y-3.259
X2.8424Y-4.1645
X2.8424Y-5.07
X2.8424Y-5.9755
X2.8424Y-6.881
X3.2729Y-2.2235
X3.2729Y-3.129
X3.2729Y-4.0345
X3.2729Y-4.94
X3.2729Y-5.8455
X3.2729Y-6.751
X3.4279Y-2.0135
X3.4279Y-2.919
X3.4279Y-3.8245
X3.4279Y-4.73
X3.4279Y-5.6355
X3.4279Y-6.541
X3.5079Y-2.4935
X3.5079Y-3.399
X3.5079Y-4.3045
X3.5079Y-5.21
X3.5079Y-6.1155
X3.5079Y-7.021
X3.7079Y-2.0735
X3.7079Y-2.979
X3.7079Y-3.8845
X3.7079Y-4.79
X3.7079Y-5.6955
X3.7079Y-6.601
X3.7479Y-2.3535
X3.7479Y-3.259
X3.7479Y-4.1645
X3.7479Y-5.07
X3.7479Y-5.9755
X3.7479Y-6.881
X4.1784Y-2.2235
X4.1784Y-3.129
X4.1784Y-4.0345
X4.1784Y-4.94
X4.1784Y-5.8455
X4.1784Y-6.751
X4.3334Y-2.0135
X4.3334Y-2.919
X4.3334Y-3.8245
X4.3334Y-4.73
X4.3334Y-5.6355
X4.3334Y-6.541
X4.4134Y-2.4935
X4.4134Y-3.399
X4.4134Y-4.3045
X4.4134Y-5.21
X4.4134Y-6.1155
X4.4134Y-7.021
X4.6134Y-2.0735
X4.6134Y-2.979
X4.6134Y-3.8845
X4.6134Y-4.79
X4.6134Y-5.6955
X4.6134Y-6.601
X4.6534Y-2.3535
X4.6534Y-3.259
X4.6534Y-4.1645
X4.6534Y-5.07
X4.6534Y-5.9755
X4.6534Y-6.881
T3
X2.27Y-0.781
X2.2704Y-7.3556
X4.7108Y-7.3555
X4.7109Y-0.7809
T0
M30
