G04 #@! TF.GenerationSoftware,KiCad,Pcbnew,(5.1.7)-1*
G04 #@! TF.CreationDate,2023-03-06T19:58:30+00:00*
G04 #@! TF.ProjectId,KOSMO-POLY6-JACKS,4b4f534d-4f2d-4504-9f4c-59362d4a4143,V0.1.0*
G04 #@! TF.SameCoordinates,Original*
G04 #@! TF.FileFunction,Copper,L2,Bot*
G04 #@! TF.FilePolarity,Positive*
%FSLAX46Y46*%
G04 Gerber Fmt 4.6, Leading zero omitted, Abs format (unit mm)*
G04 Created by KiCad (PCBNEW (5.1.7)-1) date 2023-03-06 19:58:30*
%MOMM*%
%LPD*%
G01*
G04 APERTURE LIST*
G04 #@! TA.AperFunction,NonConductor*
%ADD10C,0.300000*%
G04 #@! TD*
G04 #@! TA.AperFunction,NonConductor*
%ADD11C,0.500000*%
G04 #@! TD*
G04 #@! TA.AperFunction,ComponentPad*
%ADD12C,14.000000*%
G04 #@! TD*
G04 #@! TA.AperFunction,ComponentPad*
%ADD13O,10.600000X5.600000*%
G04 #@! TD*
G04 #@! TA.AperFunction,Conductor*
%ADD14C,0.254000*%
G04 #@! TD*
G04 #@! TA.AperFunction,Conductor*
%ADD15C,0.100000*%
G04 #@! TD*
G04 APERTURE END LIST*
D10*
X109094714Y-84082071D02*
X109166142Y-84001714D01*
X109237571Y-83778500D01*
X109237571Y-83635642D01*
X109166142Y-83430285D01*
X109023285Y-83305285D01*
X108880428Y-83251714D01*
X108594714Y-83216000D01*
X108380428Y-83242785D01*
X108094714Y-83349928D01*
X107951857Y-83439214D01*
X107809000Y-83599928D01*
X107737571Y-83823142D01*
X107737571Y-83966000D01*
X107809000Y-84171357D01*
X107880428Y-84233857D01*
X109237571Y-85421357D02*
X109237571Y-84707071D01*
X107737571Y-84894571D01*
X108809000Y-85903500D02*
X108809000Y-86617785D01*
X109237571Y-85707071D02*
X107737571Y-86394571D01*
X109237571Y-86707071D01*
X108523285Y-87582071D02*
X109237571Y-87492785D01*
X107737571Y-87180285D02*
X108523285Y-87582071D01*
X107737571Y-88180285D01*
X107737571Y-88466000D02*
X107737571Y-89323142D01*
X109237571Y-88707071D02*
X107737571Y-88894571D01*
X107737571Y-89823142D02*
X108951857Y-89671357D01*
X109094714Y-89724928D01*
X109166142Y-89787428D01*
X109237571Y-89921357D01*
X109237571Y-90207071D01*
X109166142Y-90358857D01*
X109094714Y-90439214D01*
X108951857Y-90528500D01*
X107737571Y-90680285D01*
X109237571Y-91207071D02*
X107737571Y-91394571D01*
X109237571Y-92064214D01*
X107737571Y-92251714D01*
X108451857Y-92876714D02*
X108451857Y-93376714D01*
X109237571Y-93492785D02*
X109237571Y-92778500D01*
X107737571Y-92966000D01*
X107737571Y-93680285D01*
X108666142Y-95349928D02*
X108666142Y-96492785D01*
X109237571Y-98278500D02*
X107737571Y-98466000D01*
X109237571Y-99135642D02*
X108380428Y-98599928D01*
X107737571Y-99323142D02*
X108594714Y-98358857D01*
X107737571Y-100251714D02*
X107737571Y-100537428D01*
X107809000Y-100671357D01*
X107951857Y-100796357D01*
X108237571Y-100832071D01*
X108737571Y-100769571D01*
X109023285Y-100662428D01*
X109166142Y-100501714D01*
X109237571Y-100349928D01*
X109237571Y-100064214D01*
X109166142Y-99930285D01*
X109023285Y-99805285D01*
X108737571Y-99769571D01*
X108237571Y-99832071D01*
X107951857Y-99939214D01*
X107809000Y-100099928D01*
X107737571Y-100251714D01*
X109166142Y-101287428D02*
X109237571Y-101492785D01*
X109237571Y-101849928D01*
X109166142Y-102001714D01*
X109094714Y-102082071D01*
X108951857Y-102171357D01*
X108809000Y-102189214D01*
X108666142Y-102135642D01*
X108594714Y-102073142D01*
X108523285Y-101939214D01*
X108451857Y-101662428D01*
X108380428Y-101528500D01*
X108309000Y-101466000D01*
X108166142Y-101412428D01*
X108023285Y-101430285D01*
X107880428Y-101519571D01*
X107809000Y-101599928D01*
X107737571Y-101751714D01*
X107737571Y-102108857D01*
X107809000Y-102314214D01*
X109237571Y-102778500D02*
X107737571Y-102966000D01*
X108809000Y-103332071D01*
X107737571Y-103966000D01*
X109237571Y-103778500D01*
X107737571Y-104966000D02*
X107737571Y-105251714D01*
X107809000Y-105385642D01*
X107951857Y-105510642D01*
X108237571Y-105546357D01*
X108737571Y-105483857D01*
X109023285Y-105376714D01*
X109166142Y-105216000D01*
X109237571Y-105064214D01*
X109237571Y-104778500D01*
X109166142Y-104644571D01*
X109023285Y-104519571D01*
X108737571Y-104483857D01*
X108237571Y-104546357D01*
X107951857Y-104653500D01*
X107809000Y-104814214D01*
X107737571Y-104966000D01*
X108666142Y-106135642D02*
X108666142Y-107278500D01*
X109237571Y-107921357D02*
X107737571Y-108108857D01*
X107737571Y-108680285D01*
X107809000Y-108814214D01*
X107880428Y-108876714D01*
X108023285Y-108930285D01*
X108237571Y-108903500D01*
X108380428Y-108814214D01*
X108451857Y-108733857D01*
X108523285Y-108582071D01*
X108523285Y-108010642D01*
X107737571Y-109894571D02*
X107737571Y-110180285D01*
X107809000Y-110314214D01*
X107951857Y-110439214D01*
X108237571Y-110474928D01*
X108737571Y-110412428D01*
X109023285Y-110305285D01*
X109166142Y-110144571D01*
X109237571Y-109992785D01*
X109237571Y-109707071D01*
X109166142Y-109573142D01*
X109023285Y-109448142D01*
X108737571Y-109412428D01*
X108237571Y-109474928D01*
X107951857Y-109582071D01*
X107809000Y-109742785D01*
X107737571Y-109894571D01*
X109237571Y-111707071D02*
X109237571Y-110992785D01*
X107737571Y-111180285D01*
X108523285Y-112582071D02*
X109237571Y-112492785D01*
X107737571Y-112180285D02*
X108523285Y-112582071D01*
X107737571Y-113180285D01*
X107737571Y-114323142D02*
X107737571Y-114037428D01*
X107809000Y-113885642D01*
X107880428Y-113805285D01*
X108094714Y-113635642D01*
X108380428Y-113528500D01*
X108951857Y-113457071D01*
X109094714Y-113510642D01*
X109166142Y-113573142D01*
X109237571Y-113707071D01*
X109237571Y-113992785D01*
X109166142Y-114144571D01*
X109094714Y-114224928D01*
X108951857Y-114314214D01*
X108594714Y-114358857D01*
X108451857Y-114305285D01*
X108380428Y-114242785D01*
X108309000Y-114108857D01*
X108309000Y-113823142D01*
X108380428Y-113671357D01*
X108451857Y-113591000D01*
X108594714Y-113501714D01*
X108666142Y-114992785D02*
X108666142Y-116135642D01*
X107737571Y-117394571D02*
X108809000Y-117260642D01*
X109023285Y-117162428D01*
X109166142Y-117001714D01*
X109237571Y-116778500D01*
X109237571Y-116635642D01*
X108809000Y-117903500D02*
X108809000Y-118617785D01*
X109237571Y-117707071D02*
X107737571Y-118394571D01*
X109237571Y-118707071D01*
X109094714Y-120082071D02*
X109166142Y-120001714D01*
X109237571Y-119778500D01*
X109237571Y-119635642D01*
X109166142Y-119430285D01*
X109023285Y-119305285D01*
X108880428Y-119251714D01*
X108594714Y-119216000D01*
X108380428Y-119242785D01*
X108094714Y-119349928D01*
X107951857Y-119439214D01*
X107809000Y-119599928D01*
X107737571Y-119823142D01*
X107737571Y-119966000D01*
X107809000Y-120171357D01*
X107880428Y-120233857D01*
X109237571Y-120707071D02*
X107737571Y-120894571D01*
X109237571Y-121564214D02*
X108380428Y-121028500D01*
X107737571Y-121751714D02*
X108594714Y-120787428D01*
X109166142Y-122144571D02*
X109237571Y-122349928D01*
X109237571Y-122707071D01*
X109166142Y-122858857D01*
X109094714Y-122939214D01*
X108951857Y-123028500D01*
X108809000Y-123046357D01*
X108666142Y-122992785D01*
X108594714Y-122930285D01*
X108523285Y-122796357D01*
X108451857Y-122519571D01*
X108380428Y-122385642D01*
X108309000Y-122323142D01*
X108166142Y-122269571D01*
X108023285Y-122287428D01*
X107880428Y-122376714D01*
X107809000Y-122457071D01*
X107737571Y-122608857D01*
X107737571Y-122966000D01*
X107809000Y-123171357D01*
X107737571Y-125894571D02*
X109237571Y-126207071D01*
X107737571Y-126894571D01*
X107737571Y-127680285D02*
X107737571Y-127823142D01*
X107809000Y-127957071D01*
X107880428Y-128019571D01*
X108023285Y-128073142D01*
X108309000Y-128108857D01*
X108666142Y-128064214D01*
X108951857Y-127957071D01*
X109094714Y-127867785D01*
X109166142Y-127787428D01*
X109237571Y-127635642D01*
X109237571Y-127492785D01*
X109166142Y-127358857D01*
X109094714Y-127296357D01*
X108951857Y-127242785D01*
X108666142Y-127207071D01*
X108309000Y-127251714D01*
X108023285Y-127358857D01*
X107880428Y-127448142D01*
X107809000Y-127528500D01*
X107737571Y-127680285D01*
X109094714Y-128653500D02*
X109166142Y-128716000D01*
X109237571Y-128635642D01*
X109166142Y-128573142D01*
X109094714Y-128653500D01*
X109237571Y-128635642D01*
X109237571Y-130135642D02*
X109237571Y-129278500D01*
X109237571Y-129707071D02*
X107737571Y-129894571D01*
X107951857Y-129724928D01*
X108094714Y-129564214D01*
X108166142Y-129412428D01*
X109094714Y-130796357D02*
X109166142Y-130858857D01*
X109237571Y-130778500D01*
X109166142Y-130716000D01*
X109094714Y-130796357D01*
X109237571Y-130778500D01*
X107737571Y-131966000D02*
X107737571Y-132108857D01*
X107809000Y-132242785D01*
X107880428Y-132305285D01*
X108023285Y-132358857D01*
X108309000Y-132394571D01*
X108666142Y-132349928D01*
X108951857Y-132242785D01*
X109094714Y-132153500D01*
X109166142Y-132073142D01*
X109237571Y-131921357D01*
X109237571Y-131778500D01*
X109166142Y-131644571D01*
X109094714Y-131582071D01*
X108951857Y-131528500D01*
X108666142Y-131492785D01*
X108309000Y-131537428D01*
X108023285Y-131644571D01*
X107880428Y-131733857D01*
X107809000Y-131814214D01*
X107737571Y-131966000D01*
X108666142Y-134135642D02*
X108666142Y-135278500D01*
X108451857Y-137662428D02*
X108523285Y-137867785D01*
X108594714Y-137930285D01*
X108737571Y-137983857D01*
X108951857Y-137957071D01*
X109094714Y-137867785D01*
X109166142Y-137787428D01*
X109237571Y-137635642D01*
X109237571Y-137064214D01*
X107737571Y-137251714D01*
X107737571Y-137751714D01*
X107809000Y-137885642D01*
X107880428Y-137948142D01*
X108023285Y-138001714D01*
X108166142Y-137983857D01*
X108309000Y-137894571D01*
X108380428Y-137814214D01*
X108451857Y-137662428D01*
X108451857Y-137162428D01*
X108237571Y-138546357D02*
X109237571Y-138778500D01*
X108237571Y-139260642D02*
X109237571Y-138778500D01*
X109594714Y-138591000D01*
X109666142Y-138510642D01*
X109737571Y-138358857D01*
X107737571Y-140823142D02*
X107737571Y-141680285D01*
X109237571Y-141064214D02*
X107737571Y-141251714D01*
X108237571Y-141974928D02*
X109237571Y-142135642D01*
X108523285Y-142510642D01*
X109237571Y-142707071D01*
X108237571Y-143117785D01*
X109237571Y-143564214D02*
X108237571Y-143689214D01*
X107737571Y-143751714D02*
X107809000Y-143671357D01*
X107880428Y-143733857D01*
X107809000Y-143814214D01*
X107737571Y-143751714D01*
X107880428Y-143733857D01*
X108237571Y-144403500D02*
X109237571Y-144278500D01*
X108380428Y-144385642D02*
X108309000Y-144466000D01*
X108237571Y-144617785D01*
X108237571Y-144832071D01*
X108309000Y-144966000D01*
X108451857Y-145019571D01*
X109237571Y-144921357D01*
X107737571Y-145608857D02*
X107737571Y-146466000D01*
X109237571Y-145849928D02*
X107737571Y-146037428D01*
X108237571Y-147546357D02*
X109237571Y-147421357D01*
X108237571Y-146903500D02*
X109023285Y-146805285D01*
X109166142Y-146858857D01*
X109237571Y-146992785D01*
X109237571Y-147207071D01*
X109166142Y-147358857D01*
X109094714Y-147439214D01*
X109237571Y-148135642D02*
X108237571Y-148260642D01*
X108523285Y-148224928D02*
X108380428Y-148314214D01*
X108309000Y-148394571D01*
X108237571Y-148546357D01*
X108237571Y-148689214D01*
X109237571Y-149064214D02*
X107737571Y-149251714D01*
X108309000Y-149180285D02*
X108237571Y-149332071D01*
X108237571Y-149617785D01*
X108309000Y-149751714D01*
X108380428Y-149814214D01*
X108523285Y-149867785D01*
X108951857Y-149814214D01*
X109094714Y-149724928D01*
X109166142Y-149644571D01*
X109237571Y-149492785D01*
X109237571Y-149207071D01*
X109166142Y-149073142D01*
X109237571Y-150635642D02*
X109166142Y-150501714D01*
X109094714Y-150439214D01*
X108951857Y-150385642D01*
X108523285Y-150439214D01*
X108380428Y-150528500D01*
X108309000Y-150608857D01*
X108237571Y-150760642D01*
X108237571Y-150974928D01*
X108309000Y-151108857D01*
X108380428Y-151171357D01*
X108523285Y-151224928D01*
X108951857Y-151171357D01*
X109094714Y-151082071D01*
X109166142Y-151001714D01*
X109237571Y-150849928D01*
X109237571Y-150635642D01*
D11*
X132748333Y-8295142D02*
X133415000Y-8295142D01*
X133415000Y-9342761D02*
X133415000Y-7342761D01*
X132462619Y-7342761D01*
X131415000Y-9342761D02*
X131605476Y-9247523D01*
X131700714Y-9152285D01*
X131795952Y-8961809D01*
X131795952Y-8390380D01*
X131700714Y-8199904D01*
X131605476Y-8104666D01*
X131415000Y-8009428D01*
X131129285Y-8009428D01*
X130938809Y-8104666D01*
X130843571Y-8199904D01*
X130748333Y-8390380D01*
X130748333Y-8961809D01*
X130843571Y-9152285D01*
X130938809Y-9247523D01*
X131129285Y-9342761D01*
X131415000Y-9342761D01*
X129891190Y-9342761D02*
X129891190Y-8009428D01*
X129891190Y-8390380D02*
X129795952Y-8199904D01*
X129700714Y-8104666D01*
X129510238Y-8009428D01*
X129319761Y-8009428D01*
X127129285Y-9342761D02*
X127129285Y-7342761D01*
X125986428Y-9342761D02*
X126843571Y-8199904D01*
X125986428Y-7342761D02*
X127129285Y-8485619D01*
X124272142Y-9342761D02*
X124272142Y-8295142D01*
X124367380Y-8104666D01*
X124557857Y-8009428D01*
X124938809Y-8009428D01*
X125129285Y-8104666D01*
X124272142Y-9247523D02*
X124462619Y-9342761D01*
X124938809Y-9342761D01*
X125129285Y-9247523D01*
X125224523Y-9057047D01*
X125224523Y-8866571D01*
X125129285Y-8676095D01*
X124938809Y-8580857D01*
X124462619Y-8580857D01*
X124272142Y-8485619D01*
X123605476Y-8009428D02*
X122843571Y-8009428D01*
X123319761Y-7342761D02*
X123319761Y-9057047D01*
X123224523Y-9247523D01*
X123034047Y-9342761D01*
X122843571Y-9342761D01*
X121415000Y-9247523D02*
X121605476Y-9342761D01*
X121986428Y-9342761D01*
X122176904Y-9247523D01*
X122272142Y-9057047D01*
X122272142Y-8295142D01*
X122176904Y-8104666D01*
X121986428Y-8009428D01*
X121605476Y-8009428D01*
X121415000Y-8104666D01*
X121319761Y-8295142D01*
X121319761Y-8485619D01*
X122272142Y-8676095D01*
X128795952Y-11795142D02*
X128510238Y-11890380D01*
X128415000Y-11985619D01*
X128319761Y-12176095D01*
X128319761Y-12461809D01*
X128415000Y-12652285D01*
X128510238Y-12747523D01*
X128700714Y-12842761D01*
X129462619Y-12842761D01*
X129462619Y-10842761D01*
X128795952Y-10842761D01*
X128605476Y-10938000D01*
X128510238Y-11033238D01*
X128415000Y-11223714D01*
X128415000Y-11414190D01*
X128510238Y-11604666D01*
X128605476Y-11699904D01*
X128795952Y-11795142D01*
X129462619Y-11795142D01*
X127653095Y-11509428D02*
X127176904Y-12842761D01*
X126700714Y-11509428D02*
X127176904Y-12842761D01*
X127367380Y-13318952D01*
X127462619Y-13414190D01*
X127653095Y-13509428D01*
X134510238Y-14342761D02*
X133367380Y-14342761D01*
X133938809Y-16342761D02*
X133938809Y-14342761D01*
X132891190Y-15009428D02*
X132510238Y-16342761D01*
X132129285Y-15390380D01*
X131748333Y-16342761D01*
X131367380Y-15009428D01*
X130605476Y-16342761D02*
X130605476Y-15009428D01*
X130605476Y-14342761D02*
X130700714Y-14438000D01*
X130605476Y-14533238D01*
X130510238Y-14438000D01*
X130605476Y-14342761D01*
X130605476Y-14533238D01*
X129653095Y-15009428D02*
X129653095Y-16342761D01*
X129653095Y-15199904D02*
X129557857Y-15104666D01*
X129367380Y-15009428D01*
X129081666Y-15009428D01*
X128891190Y-15104666D01*
X128795952Y-15295142D01*
X128795952Y-16342761D01*
X128129285Y-14342761D02*
X126986428Y-14342761D01*
X127557857Y-16342761D02*
X127557857Y-14342761D01*
X125462619Y-15009428D02*
X125462619Y-16342761D01*
X126319761Y-15009428D02*
X126319761Y-16057047D01*
X126224523Y-16247523D01*
X126034047Y-16342761D01*
X125748333Y-16342761D01*
X125557857Y-16247523D01*
X125462619Y-16152285D01*
X124510238Y-16342761D02*
X124510238Y-15009428D01*
X124510238Y-15390380D02*
X124415000Y-15199904D01*
X124319761Y-15104666D01*
X124129285Y-15009428D01*
X123938809Y-15009428D01*
X123272142Y-16342761D02*
X123272142Y-14342761D01*
X123272142Y-15104666D02*
X123081666Y-15009428D01*
X122700714Y-15009428D01*
X122510238Y-15104666D01*
X122415000Y-15199904D01*
X122319761Y-15390380D01*
X122319761Y-15961809D01*
X122415000Y-16152285D01*
X122510238Y-16247523D01*
X122700714Y-16342761D01*
X123081666Y-16342761D01*
X123272142Y-16247523D01*
X121176904Y-16342761D02*
X121367380Y-16247523D01*
X121462619Y-16152285D01*
X121557857Y-15961809D01*
X121557857Y-15390380D01*
X121462619Y-15199904D01*
X121367380Y-15104666D01*
X121176904Y-15009428D01*
X120891190Y-15009428D01*
X120700714Y-15104666D01*
X120605476Y-15199904D01*
X120510238Y-15390380D01*
X120510238Y-15961809D01*
X120605476Y-16152285D01*
X120700714Y-16247523D01*
X120891190Y-16342761D01*
X121176904Y-16342761D01*
D12*
X119885000Y-173421000D03*
X165885000Y-150421000D03*
X142885000Y-150421000D03*
X119885000Y-150421000D03*
X165885000Y-173421000D03*
X165885000Y-127421000D03*
X142885000Y-173421000D03*
X142885000Y-127421000D03*
X119885000Y-127421000D03*
X119885000Y-104421000D03*
X165885000Y-104421000D03*
X142885000Y-104421000D03*
X165885000Y-81421000D03*
X142885000Y-81421000D03*
X119885000Y-81421000D03*
X165885000Y-58421000D03*
X142885000Y-58421000D03*
X119885000Y-58421000D03*
D13*
X174539000Y-201282000D03*
X111539000Y-201282000D03*
X111539000Y-8282000D03*
X174539000Y-8282000D03*
D14*
X170025020Y-5496460D02*
X169520286Y-5942891D01*
X169112345Y-6479213D01*
X168816874Y-7084815D01*
X168668478Y-7619579D01*
X168765212Y-8155000D01*
X174412000Y-8155000D01*
X174412000Y-8135000D01*
X174666000Y-8135000D01*
X174666000Y-8155000D01*
X174686000Y-8155000D01*
X174686000Y-8409000D01*
X174666000Y-8409000D01*
X174666000Y-11717000D01*
X177166000Y-11717000D01*
X177833695Y-11626221D01*
X178470850Y-11406925D01*
X179052980Y-11067540D01*
X179557714Y-10621109D01*
X179879001Y-10198711D01*
X179879000Y-199327929D01*
X179479664Y-198841336D01*
X178956617Y-198412083D01*
X178359878Y-198093119D01*
X177712378Y-197896702D01*
X177207746Y-197847000D01*
X171870254Y-197847000D01*
X171365622Y-197896702D01*
X170718122Y-198093119D01*
X170121383Y-198412083D01*
X169598336Y-198841336D01*
X169169083Y-199364383D01*
X168850119Y-199961122D01*
X168653702Y-200608622D01*
X168587380Y-201282000D01*
X168653702Y-201955378D01*
X168850119Y-202602878D01*
X169169083Y-203199617D01*
X169598336Y-203722664D01*
X170084929Y-204122000D01*
X115993071Y-204122000D01*
X116479664Y-203722664D01*
X116908917Y-203199617D01*
X117227881Y-202602878D01*
X117424298Y-201955378D01*
X117490620Y-201282000D01*
X117424298Y-200608622D01*
X117227881Y-199961122D01*
X116908917Y-199364383D01*
X116479664Y-198841336D01*
X115956617Y-198412083D01*
X115359878Y-198093119D01*
X114712378Y-197896702D01*
X114207746Y-197847000D01*
X108870254Y-197847000D01*
X108365622Y-197896702D01*
X107718122Y-198093119D01*
X107121383Y-198412083D01*
X106598336Y-198841336D01*
X106199000Y-199327929D01*
X106199000Y-178822674D01*
X114662932Y-178822674D01*
X115478908Y-179701530D01*
X116788840Y-180440437D01*
X118217756Y-180909591D01*
X119710743Y-181090963D01*
X121210428Y-180977583D01*
X122659176Y-180573807D01*
X124001314Y-179895153D01*
X124291092Y-179701530D01*
X125107068Y-178822674D01*
X137662932Y-178822674D01*
X138478908Y-179701530D01*
X139788840Y-180440437D01*
X141217756Y-180909591D01*
X142710743Y-181090963D01*
X144210428Y-180977583D01*
X145659176Y-180573807D01*
X147001314Y-179895153D01*
X147291092Y-179701530D01*
X148107068Y-178822674D01*
X160662932Y-178822674D01*
X161478908Y-179701530D01*
X162788840Y-180440437D01*
X164217756Y-180909591D01*
X165710743Y-181090963D01*
X167210428Y-180977583D01*
X168659176Y-180573807D01*
X170001314Y-179895153D01*
X170291092Y-179701530D01*
X171107068Y-178822674D01*
X165885000Y-173600605D01*
X160662932Y-178822674D01*
X148107068Y-178822674D01*
X142885000Y-173600605D01*
X137662932Y-178822674D01*
X125107068Y-178822674D01*
X119885000Y-173600605D01*
X114662932Y-178822674D01*
X106199000Y-178822674D01*
X106199000Y-173246743D01*
X112215037Y-173246743D01*
X112328417Y-174746428D01*
X112732193Y-176195176D01*
X113410847Y-177537314D01*
X113604470Y-177827092D01*
X114483326Y-178643068D01*
X119705395Y-173421000D01*
X120064605Y-173421000D01*
X125286674Y-178643068D01*
X126165530Y-177827092D01*
X126904437Y-176517160D01*
X127373591Y-175088244D01*
X127554963Y-173595257D01*
X127528615Y-173246743D01*
X135215037Y-173246743D01*
X135328417Y-174746428D01*
X135732193Y-176195176D01*
X136410847Y-177537314D01*
X136604470Y-177827092D01*
X137483326Y-178643068D01*
X142705395Y-173421000D01*
X143064605Y-173421000D01*
X148286674Y-178643068D01*
X149165530Y-177827092D01*
X149904437Y-176517160D01*
X150373591Y-175088244D01*
X150554963Y-173595257D01*
X150528615Y-173246743D01*
X158215037Y-173246743D01*
X158328417Y-174746428D01*
X158732193Y-176195176D01*
X159410847Y-177537314D01*
X159604470Y-177827092D01*
X160483326Y-178643068D01*
X165705395Y-173421000D01*
X166064605Y-173421000D01*
X171286674Y-178643068D01*
X172165530Y-177827092D01*
X172904437Y-176517160D01*
X173373591Y-175088244D01*
X173554963Y-173595257D01*
X173441583Y-172095572D01*
X173037807Y-170646824D01*
X172359153Y-169304686D01*
X172165530Y-169014908D01*
X171286674Y-168198932D01*
X166064605Y-173421000D01*
X165705395Y-173421000D01*
X160483326Y-168198932D01*
X159604470Y-169014908D01*
X158865563Y-170324840D01*
X158396409Y-171753756D01*
X158215037Y-173246743D01*
X150528615Y-173246743D01*
X150441583Y-172095572D01*
X150037807Y-170646824D01*
X149359153Y-169304686D01*
X149165530Y-169014908D01*
X148286674Y-168198932D01*
X143064605Y-173421000D01*
X142705395Y-173421000D01*
X137483326Y-168198932D01*
X136604470Y-169014908D01*
X135865563Y-170324840D01*
X135396409Y-171753756D01*
X135215037Y-173246743D01*
X127528615Y-173246743D01*
X127441583Y-172095572D01*
X127037807Y-170646824D01*
X126359153Y-169304686D01*
X126165530Y-169014908D01*
X125286674Y-168198932D01*
X120064605Y-173421000D01*
X119705395Y-173421000D01*
X114483326Y-168198932D01*
X113604470Y-169014908D01*
X112865563Y-170324840D01*
X112396409Y-171753756D01*
X112215037Y-173246743D01*
X106199000Y-173246743D01*
X106199000Y-168019326D01*
X114662932Y-168019326D01*
X119885000Y-173241395D01*
X125107068Y-168019326D01*
X137662932Y-168019326D01*
X142885000Y-173241395D01*
X148107068Y-168019326D01*
X160662932Y-168019326D01*
X165885000Y-173241395D01*
X171107068Y-168019326D01*
X170291092Y-167140470D01*
X168981160Y-166401563D01*
X167552244Y-165932409D01*
X166059257Y-165751037D01*
X164559572Y-165864417D01*
X163110824Y-166268193D01*
X161768686Y-166946847D01*
X161478908Y-167140470D01*
X160662932Y-168019326D01*
X148107068Y-168019326D01*
X147291092Y-167140470D01*
X145981160Y-166401563D01*
X144552244Y-165932409D01*
X143059257Y-165751037D01*
X141559572Y-165864417D01*
X140110824Y-166268193D01*
X138768686Y-166946847D01*
X138478908Y-167140470D01*
X137662932Y-168019326D01*
X125107068Y-168019326D01*
X124291092Y-167140470D01*
X122981160Y-166401563D01*
X121552244Y-165932409D01*
X120059257Y-165751037D01*
X118559572Y-165864417D01*
X117110824Y-166268193D01*
X115768686Y-166946847D01*
X115478908Y-167140470D01*
X114662932Y-168019326D01*
X106199000Y-168019326D01*
X106199000Y-155822674D01*
X114662932Y-155822674D01*
X115478908Y-156701530D01*
X116788840Y-157440437D01*
X118217756Y-157909591D01*
X119710743Y-158090963D01*
X121210428Y-157977583D01*
X122659176Y-157573807D01*
X124001314Y-156895153D01*
X124291092Y-156701530D01*
X125107068Y-155822674D01*
X137662932Y-155822674D01*
X138478908Y-156701530D01*
X139788840Y-157440437D01*
X141217756Y-157909591D01*
X142710743Y-158090963D01*
X144210428Y-157977583D01*
X145659176Y-157573807D01*
X147001314Y-156895153D01*
X147291092Y-156701530D01*
X148107068Y-155822674D01*
X160662932Y-155822674D01*
X161478908Y-156701530D01*
X162788840Y-157440437D01*
X164217756Y-157909591D01*
X165710743Y-158090963D01*
X167210428Y-157977583D01*
X168659176Y-157573807D01*
X170001314Y-156895153D01*
X170291092Y-156701530D01*
X171107068Y-155822674D01*
X165885000Y-150600605D01*
X160662932Y-155822674D01*
X148107068Y-155822674D01*
X142885000Y-150600605D01*
X137662932Y-155822674D01*
X125107068Y-155822674D01*
X119885000Y-150600605D01*
X114662932Y-155822674D01*
X106199000Y-155822674D01*
X106199000Y-82221000D01*
X106769000Y-82221000D01*
X106769000Y-155791000D01*
X110589000Y-155791000D01*
X110589000Y-150246743D01*
X112215037Y-150246743D01*
X112328417Y-151746428D01*
X112732193Y-153195176D01*
X113410847Y-154537314D01*
X113604470Y-154827092D01*
X114483326Y-155643068D01*
X119705395Y-150421000D01*
X120064605Y-150421000D01*
X125286674Y-155643068D01*
X126165530Y-154827092D01*
X126904437Y-153517160D01*
X127373591Y-152088244D01*
X127554963Y-150595257D01*
X127528615Y-150246743D01*
X135215037Y-150246743D01*
X135328417Y-151746428D01*
X135732193Y-153195176D01*
X136410847Y-154537314D01*
X136604470Y-154827092D01*
X137483326Y-155643068D01*
X142705395Y-150421000D01*
X143064605Y-150421000D01*
X148286674Y-155643068D01*
X149165530Y-154827092D01*
X149904437Y-153517160D01*
X150373591Y-152088244D01*
X150554963Y-150595257D01*
X150528615Y-150246743D01*
X158215037Y-150246743D01*
X158328417Y-151746428D01*
X158732193Y-153195176D01*
X159410847Y-154537314D01*
X159604470Y-154827092D01*
X160483326Y-155643068D01*
X165705395Y-150421000D01*
X166064605Y-150421000D01*
X171286674Y-155643068D01*
X172165530Y-154827092D01*
X172904437Y-153517160D01*
X173373591Y-152088244D01*
X173554963Y-150595257D01*
X173441583Y-149095572D01*
X173037807Y-147646824D01*
X172359153Y-146304686D01*
X172165530Y-146014908D01*
X171286674Y-145198932D01*
X166064605Y-150421000D01*
X165705395Y-150421000D01*
X160483326Y-145198932D01*
X159604470Y-146014908D01*
X158865563Y-147324840D01*
X158396409Y-148753756D01*
X158215037Y-150246743D01*
X150528615Y-150246743D01*
X150441583Y-149095572D01*
X150037807Y-147646824D01*
X149359153Y-146304686D01*
X149165530Y-146014908D01*
X148286674Y-145198932D01*
X143064605Y-150421000D01*
X142705395Y-150421000D01*
X137483326Y-145198932D01*
X136604470Y-146014908D01*
X135865563Y-147324840D01*
X135396409Y-148753756D01*
X135215037Y-150246743D01*
X127528615Y-150246743D01*
X127441583Y-149095572D01*
X127037807Y-147646824D01*
X126359153Y-146304686D01*
X126165530Y-146014908D01*
X125286674Y-145198932D01*
X120064605Y-150421000D01*
X119705395Y-150421000D01*
X114483326Y-145198932D01*
X113604470Y-146014908D01*
X112865563Y-147324840D01*
X112396409Y-148753756D01*
X112215037Y-150246743D01*
X110589000Y-150246743D01*
X110589000Y-145019326D01*
X114662932Y-145019326D01*
X119885000Y-150241395D01*
X125107068Y-145019326D01*
X137662932Y-145019326D01*
X142885000Y-150241395D01*
X148107068Y-145019326D01*
X160662932Y-145019326D01*
X165885000Y-150241395D01*
X171107068Y-145019326D01*
X170291092Y-144140470D01*
X168981160Y-143401563D01*
X167552244Y-142932409D01*
X166059257Y-142751037D01*
X164559572Y-142864417D01*
X163110824Y-143268193D01*
X161768686Y-143946847D01*
X161478908Y-144140470D01*
X160662932Y-145019326D01*
X148107068Y-145019326D01*
X147291092Y-144140470D01*
X145981160Y-143401563D01*
X144552244Y-142932409D01*
X143059257Y-142751037D01*
X141559572Y-142864417D01*
X140110824Y-143268193D01*
X138768686Y-143946847D01*
X138478908Y-144140470D01*
X137662932Y-145019326D01*
X125107068Y-145019326D01*
X124291092Y-144140470D01*
X122981160Y-143401563D01*
X121552244Y-142932409D01*
X120059257Y-142751037D01*
X118559572Y-142864417D01*
X117110824Y-143268193D01*
X115768686Y-143946847D01*
X115478908Y-144140470D01*
X114662932Y-145019326D01*
X110589000Y-145019326D01*
X110589000Y-132822674D01*
X114662932Y-132822674D01*
X115478908Y-133701530D01*
X116788840Y-134440437D01*
X118217756Y-134909591D01*
X119710743Y-135090963D01*
X121210428Y-134977583D01*
X122659176Y-134573807D01*
X124001314Y-133895153D01*
X124291092Y-133701530D01*
X125107068Y-132822674D01*
X137662932Y-132822674D01*
X138478908Y-133701530D01*
X139788840Y-134440437D01*
X141217756Y-134909591D01*
X142710743Y-135090963D01*
X144210428Y-134977583D01*
X145659176Y-134573807D01*
X147001314Y-133895153D01*
X147291092Y-133701530D01*
X148107068Y-132822674D01*
X160662932Y-132822674D01*
X161478908Y-133701530D01*
X162788840Y-134440437D01*
X164217756Y-134909591D01*
X165710743Y-135090963D01*
X167210428Y-134977583D01*
X168659176Y-134573807D01*
X170001314Y-133895153D01*
X170291092Y-133701530D01*
X171107068Y-132822674D01*
X165885000Y-127600605D01*
X160662932Y-132822674D01*
X148107068Y-132822674D01*
X142885000Y-127600605D01*
X137662932Y-132822674D01*
X125107068Y-132822674D01*
X119885000Y-127600605D01*
X114662932Y-132822674D01*
X110589000Y-132822674D01*
X110589000Y-127246743D01*
X112215037Y-127246743D01*
X112328417Y-128746428D01*
X112732193Y-130195176D01*
X113410847Y-131537314D01*
X113604470Y-131827092D01*
X114483326Y-132643068D01*
X119705395Y-127421000D01*
X120064605Y-127421000D01*
X125286674Y-132643068D01*
X126165530Y-131827092D01*
X126904437Y-130517160D01*
X127373591Y-129088244D01*
X127554963Y-127595257D01*
X127528615Y-127246743D01*
X135215037Y-127246743D01*
X135328417Y-128746428D01*
X135732193Y-130195176D01*
X136410847Y-131537314D01*
X136604470Y-131827092D01*
X137483326Y-132643068D01*
X142705395Y-127421000D01*
X143064605Y-127421000D01*
X148286674Y-132643068D01*
X149165530Y-131827092D01*
X149904437Y-130517160D01*
X150373591Y-129088244D01*
X150554963Y-127595257D01*
X150528615Y-127246743D01*
X158215037Y-127246743D01*
X158328417Y-128746428D01*
X158732193Y-130195176D01*
X159410847Y-131537314D01*
X159604470Y-131827092D01*
X160483326Y-132643068D01*
X165705395Y-127421000D01*
X166064605Y-127421000D01*
X171286674Y-132643068D01*
X172165530Y-131827092D01*
X172904437Y-130517160D01*
X173373591Y-129088244D01*
X173554963Y-127595257D01*
X173441583Y-126095572D01*
X173037807Y-124646824D01*
X172359153Y-123304686D01*
X172165530Y-123014908D01*
X171286674Y-122198932D01*
X166064605Y-127421000D01*
X165705395Y-127421000D01*
X160483326Y-122198932D01*
X159604470Y-123014908D01*
X158865563Y-124324840D01*
X158396409Y-125753756D01*
X158215037Y-127246743D01*
X150528615Y-127246743D01*
X150441583Y-126095572D01*
X150037807Y-124646824D01*
X149359153Y-123304686D01*
X149165530Y-123014908D01*
X148286674Y-122198932D01*
X143064605Y-127421000D01*
X142705395Y-127421000D01*
X137483326Y-122198932D01*
X136604470Y-123014908D01*
X135865563Y-124324840D01*
X135396409Y-125753756D01*
X135215037Y-127246743D01*
X127528615Y-127246743D01*
X127441583Y-126095572D01*
X127037807Y-124646824D01*
X126359153Y-123304686D01*
X126165530Y-123014908D01*
X125286674Y-122198932D01*
X120064605Y-127421000D01*
X119705395Y-127421000D01*
X114483326Y-122198932D01*
X113604470Y-123014908D01*
X112865563Y-124324840D01*
X112396409Y-125753756D01*
X112215037Y-127246743D01*
X110589000Y-127246743D01*
X110589000Y-122019326D01*
X114662932Y-122019326D01*
X119885000Y-127241395D01*
X125107068Y-122019326D01*
X137662932Y-122019326D01*
X142885000Y-127241395D01*
X148107068Y-122019326D01*
X160662932Y-122019326D01*
X165885000Y-127241395D01*
X171107068Y-122019326D01*
X170291092Y-121140470D01*
X168981160Y-120401563D01*
X167552244Y-119932409D01*
X166059257Y-119751037D01*
X164559572Y-119864417D01*
X163110824Y-120268193D01*
X161768686Y-120946847D01*
X161478908Y-121140470D01*
X160662932Y-122019326D01*
X148107068Y-122019326D01*
X147291092Y-121140470D01*
X145981160Y-120401563D01*
X144552244Y-119932409D01*
X143059257Y-119751037D01*
X141559572Y-119864417D01*
X140110824Y-120268193D01*
X138768686Y-120946847D01*
X138478908Y-121140470D01*
X137662932Y-122019326D01*
X125107068Y-122019326D01*
X124291092Y-121140470D01*
X122981160Y-120401563D01*
X121552244Y-119932409D01*
X120059257Y-119751037D01*
X118559572Y-119864417D01*
X117110824Y-120268193D01*
X115768686Y-120946847D01*
X115478908Y-121140470D01*
X114662932Y-122019326D01*
X110589000Y-122019326D01*
X110589000Y-109822674D01*
X114662932Y-109822674D01*
X115478908Y-110701530D01*
X116788840Y-111440437D01*
X118217756Y-111909591D01*
X119710743Y-112090963D01*
X121210428Y-111977583D01*
X122659176Y-111573807D01*
X124001314Y-110895153D01*
X124291092Y-110701530D01*
X125107068Y-109822674D01*
X137662932Y-109822674D01*
X138478908Y-110701530D01*
X139788840Y-111440437D01*
X141217756Y-111909591D01*
X142710743Y-112090963D01*
X144210428Y-111977583D01*
X145659176Y-111573807D01*
X147001314Y-110895153D01*
X147291092Y-110701530D01*
X148107068Y-109822674D01*
X160662932Y-109822674D01*
X161478908Y-110701530D01*
X162788840Y-111440437D01*
X164217756Y-111909591D01*
X165710743Y-112090963D01*
X167210428Y-111977583D01*
X168659176Y-111573807D01*
X170001314Y-110895153D01*
X170291092Y-110701530D01*
X171107068Y-109822674D01*
X165885000Y-104600605D01*
X160662932Y-109822674D01*
X148107068Y-109822674D01*
X142885000Y-104600605D01*
X137662932Y-109822674D01*
X125107068Y-109822674D01*
X119885000Y-104600605D01*
X114662932Y-109822674D01*
X110589000Y-109822674D01*
X110589000Y-104246743D01*
X112215037Y-104246743D01*
X112328417Y-105746428D01*
X112732193Y-107195176D01*
X113410847Y-108537314D01*
X113604470Y-108827092D01*
X114483326Y-109643068D01*
X119705395Y-104421000D01*
X120064605Y-104421000D01*
X125286674Y-109643068D01*
X126165530Y-108827092D01*
X126904437Y-107517160D01*
X127373591Y-106088244D01*
X127554963Y-104595257D01*
X127528615Y-104246743D01*
X135215037Y-104246743D01*
X135328417Y-105746428D01*
X135732193Y-107195176D01*
X136410847Y-108537314D01*
X136604470Y-108827092D01*
X137483326Y-109643068D01*
X142705395Y-104421000D01*
X143064605Y-104421000D01*
X148286674Y-109643068D01*
X149165530Y-108827092D01*
X149904437Y-107517160D01*
X150373591Y-106088244D01*
X150554963Y-104595257D01*
X150528615Y-104246743D01*
X158215037Y-104246743D01*
X158328417Y-105746428D01*
X158732193Y-107195176D01*
X159410847Y-108537314D01*
X159604470Y-108827092D01*
X160483326Y-109643068D01*
X165705395Y-104421000D01*
X166064605Y-104421000D01*
X171286674Y-109643068D01*
X172165530Y-108827092D01*
X172904437Y-107517160D01*
X173373591Y-106088244D01*
X173554963Y-104595257D01*
X173441583Y-103095572D01*
X173037807Y-101646824D01*
X172359153Y-100304686D01*
X172165530Y-100014908D01*
X171286674Y-99198932D01*
X166064605Y-104421000D01*
X165705395Y-104421000D01*
X160483326Y-99198932D01*
X159604470Y-100014908D01*
X158865563Y-101324840D01*
X158396409Y-102753756D01*
X158215037Y-104246743D01*
X150528615Y-104246743D01*
X150441583Y-103095572D01*
X150037807Y-101646824D01*
X149359153Y-100304686D01*
X149165530Y-100014908D01*
X148286674Y-99198932D01*
X143064605Y-104421000D01*
X142705395Y-104421000D01*
X137483326Y-99198932D01*
X136604470Y-100014908D01*
X135865563Y-101324840D01*
X135396409Y-102753756D01*
X135215037Y-104246743D01*
X127528615Y-104246743D01*
X127441583Y-103095572D01*
X127037807Y-101646824D01*
X126359153Y-100304686D01*
X126165530Y-100014908D01*
X125286674Y-99198932D01*
X120064605Y-104421000D01*
X119705395Y-104421000D01*
X114483326Y-99198932D01*
X113604470Y-100014908D01*
X112865563Y-101324840D01*
X112396409Y-102753756D01*
X112215037Y-104246743D01*
X110589000Y-104246743D01*
X110589000Y-99019326D01*
X114662932Y-99019326D01*
X119885000Y-104241395D01*
X125107068Y-99019326D01*
X137662932Y-99019326D01*
X142885000Y-104241395D01*
X148107068Y-99019326D01*
X160662932Y-99019326D01*
X165885000Y-104241395D01*
X171107068Y-99019326D01*
X170291092Y-98140470D01*
X168981160Y-97401563D01*
X167552244Y-96932409D01*
X166059257Y-96751037D01*
X164559572Y-96864417D01*
X163110824Y-97268193D01*
X161768686Y-97946847D01*
X161478908Y-98140470D01*
X160662932Y-99019326D01*
X148107068Y-99019326D01*
X147291092Y-98140470D01*
X145981160Y-97401563D01*
X144552244Y-96932409D01*
X143059257Y-96751037D01*
X141559572Y-96864417D01*
X140110824Y-97268193D01*
X138768686Y-97946847D01*
X138478908Y-98140470D01*
X137662932Y-99019326D01*
X125107068Y-99019326D01*
X124291092Y-98140470D01*
X122981160Y-97401563D01*
X121552244Y-96932409D01*
X120059257Y-96751037D01*
X118559572Y-96864417D01*
X117110824Y-97268193D01*
X115768686Y-97946847D01*
X115478908Y-98140470D01*
X114662932Y-99019326D01*
X110589000Y-99019326D01*
X110589000Y-86822674D01*
X114662932Y-86822674D01*
X115478908Y-87701530D01*
X116788840Y-88440437D01*
X118217756Y-88909591D01*
X119710743Y-89090963D01*
X121210428Y-88977583D01*
X122659176Y-88573807D01*
X124001314Y-87895153D01*
X124291092Y-87701530D01*
X125107068Y-86822674D01*
X137662932Y-86822674D01*
X138478908Y-87701530D01*
X139788840Y-88440437D01*
X141217756Y-88909591D01*
X142710743Y-89090963D01*
X144210428Y-88977583D01*
X145659176Y-88573807D01*
X147001314Y-87895153D01*
X147291092Y-87701530D01*
X148107068Y-86822674D01*
X160662932Y-86822674D01*
X161478908Y-87701530D01*
X162788840Y-88440437D01*
X164217756Y-88909591D01*
X165710743Y-89090963D01*
X167210428Y-88977583D01*
X168659176Y-88573807D01*
X170001314Y-87895153D01*
X170291092Y-87701530D01*
X171107068Y-86822674D01*
X165885000Y-81600605D01*
X160662932Y-86822674D01*
X148107068Y-86822674D01*
X142885000Y-81600605D01*
X137662932Y-86822674D01*
X125107068Y-86822674D01*
X119885000Y-81600605D01*
X114662932Y-86822674D01*
X110589000Y-86822674D01*
X110589000Y-82221000D01*
X106769000Y-82221000D01*
X106199000Y-82221000D01*
X106199000Y-81246743D01*
X112215037Y-81246743D01*
X112328417Y-82746428D01*
X112732193Y-84195176D01*
X113410847Y-85537314D01*
X113604470Y-85827092D01*
X114483326Y-86643068D01*
X119705395Y-81421000D01*
X120064605Y-81421000D01*
X125286674Y-86643068D01*
X126165530Y-85827092D01*
X126904437Y-84517160D01*
X127373591Y-83088244D01*
X127554963Y-81595257D01*
X127528615Y-81246743D01*
X135215037Y-81246743D01*
X135328417Y-82746428D01*
X135732193Y-84195176D01*
X136410847Y-85537314D01*
X136604470Y-85827092D01*
X137483326Y-86643068D01*
X142705395Y-81421000D01*
X143064605Y-81421000D01*
X148286674Y-86643068D01*
X149165530Y-85827092D01*
X149904437Y-84517160D01*
X150373591Y-83088244D01*
X150554963Y-81595257D01*
X150528615Y-81246743D01*
X158215037Y-81246743D01*
X158328417Y-82746428D01*
X158732193Y-84195176D01*
X159410847Y-85537314D01*
X159604470Y-85827092D01*
X160483326Y-86643068D01*
X165705395Y-81421000D01*
X166064605Y-81421000D01*
X171286674Y-86643068D01*
X172165530Y-85827092D01*
X172904437Y-84517160D01*
X173373591Y-83088244D01*
X173554963Y-81595257D01*
X173441583Y-80095572D01*
X173037807Y-78646824D01*
X172359153Y-77304686D01*
X172165530Y-77014908D01*
X171286674Y-76198932D01*
X166064605Y-81421000D01*
X165705395Y-81421000D01*
X160483326Y-76198932D01*
X159604470Y-77014908D01*
X158865563Y-78324840D01*
X158396409Y-79753756D01*
X158215037Y-81246743D01*
X150528615Y-81246743D01*
X150441583Y-80095572D01*
X150037807Y-78646824D01*
X149359153Y-77304686D01*
X149165530Y-77014908D01*
X148286674Y-76198932D01*
X143064605Y-81421000D01*
X142705395Y-81421000D01*
X137483326Y-76198932D01*
X136604470Y-77014908D01*
X135865563Y-78324840D01*
X135396409Y-79753756D01*
X135215037Y-81246743D01*
X127528615Y-81246743D01*
X127441583Y-80095572D01*
X127037807Y-78646824D01*
X126359153Y-77304686D01*
X126165530Y-77014908D01*
X125286674Y-76198932D01*
X120064605Y-81421000D01*
X119705395Y-81421000D01*
X114483326Y-76198932D01*
X113604470Y-77014908D01*
X112865563Y-78324840D01*
X112396409Y-79753756D01*
X112215037Y-81246743D01*
X106199000Y-81246743D01*
X106199000Y-76019326D01*
X114662932Y-76019326D01*
X119885000Y-81241395D01*
X125107068Y-76019326D01*
X137662932Y-76019326D01*
X142885000Y-81241395D01*
X148107068Y-76019326D01*
X160662932Y-76019326D01*
X165885000Y-81241395D01*
X171107068Y-76019326D01*
X170291092Y-75140470D01*
X168981160Y-74401563D01*
X167552244Y-73932409D01*
X166059257Y-73751037D01*
X164559572Y-73864417D01*
X163110824Y-74268193D01*
X161768686Y-74946847D01*
X161478908Y-75140470D01*
X160662932Y-76019326D01*
X148107068Y-76019326D01*
X147291092Y-75140470D01*
X145981160Y-74401563D01*
X144552244Y-73932409D01*
X143059257Y-73751037D01*
X141559572Y-73864417D01*
X140110824Y-74268193D01*
X138768686Y-74946847D01*
X138478908Y-75140470D01*
X137662932Y-76019326D01*
X125107068Y-76019326D01*
X124291092Y-75140470D01*
X122981160Y-74401563D01*
X121552244Y-73932409D01*
X120059257Y-73751037D01*
X118559572Y-73864417D01*
X117110824Y-74268193D01*
X115768686Y-74946847D01*
X115478908Y-75140470D01*
X114662932Y-76019326D01*
X106199000Y-76019326D01*
X106199000Y-63822674D01*
X114662932Y-63822674D01*
X115478908Y-64701530D01*
X116788840Y-65440437D01*
X118217756Y-65909591D01*
X119710743Y-66090963D01*
X121210428Y-65977583D01*
X122659176Y-65573807D01*
X124001314Y-64895153D01*
X124291092Y-64701530D01*
X125107068Y-63822674D01*
X137662932Y-63822674D01*
X138478908Y-64701530D01*
X139788840Y-65440437D01*
X141217756Y-65909591D01*
X142710743Y-66090963D01*
X144210428Y-65977583D01*
X145659176Y-65573807D01*
X147001314Y-64895153D01*
X147291092Y-64701530D01*
X148107068Y-63822674D01*
X160662932Y-63822674D01*
X161478908Y-64701530D01*
X162788840Y-65440437D01*
X164217756Y-65909591D01*
X165710743Y-66090963D01*
X167210428Y-65977583D01*
X168659176Y-65573807D01*
X170001314Y-64895153D01*
X170291092Y-64701530D01*
X171107068Y-63822674D01*
X165885000Y-58600605D01*
X160662932Y-63822674D01*
X148107068Y-63822674D01*
X142885000Y-58600605D01*
X137662932Y-63822674D01*
X125107068Y-63822674D01*
X119885000Y-58600605D01*
X114662932Y-63822674D01*
X106199000Y-63822674D01*
X106199000Y-58246743D01*
X112215037Y-58246743D01*
X112328417Y-59746428D01*
X112732193Y-61195176D01*
X113410847Y-62537314D01*
X113604470Y-62827092D01*
X114483326Y-63643068D01*
X119705395Y-58421000D01*
X120064605Y-58421000D01*
X125286674Y-63643068D01*
X126165530Y-62827092D01*
X126904437Y-61517160D01*
X127373591Y-60088244D01*
X127554963Y-58595257D01*
X127528615Y-58246743D01*
X135215037Y-58246743D01*
X135328417Y-59746428D01*
X135732193Y-61195176D01*
X136410847Y-62537314D01*
X136604470Y-62827092D01*
X137483326Y-63643068D01*
X142705395Y-58421000D01*
X143064605Y-58421000D01*
X148286674Y-63643068D01*
X149165530Y-62827092D01*
X149904437Y-61517160D01*
X150373591Y-60088244D01*
X150554963Y-58595257D01*
X150528615Y-58246743D01*
X158215037Y-58246743D01*
X158328417Y-59746428D01*
X158732193Y-61195176D01*
X159410847Y-62537314D01*
X159604470Y-62827092D01*
X160483326Y-63643068D01*
X165705395Y-58421000D01*
X166064605Y-58421000D01*
X171286674Y-63643068D01*
X172165530Y-62827092D01*
X172904437Y-61517160D01*
X173373591Y-60088244D01*
X173554963Y-58595257D01*
X173441583Y-57095572D01*
X173037807Y-55646824D01*
X172359153Y-54304686D01*
X172165530Y-54014908D01*
X171286674Y-53198932D01*
X166064605Y-58421000D01*
X165705395Y-58421000D01*
X160483326Y-53198932D01*
X159604470Y-54014908D01*
X158865563Y-55324840D01*
X158396409Y-56753756D01*
X158215037Y-58246743D01*
X150528615Y-58246743D01*
X150441583Y-57095572D01*
X150037807Y-55646824D01*
X149359153Y-54304686D01*
X149165530Y-54014908D01*
X148286674Y-53198932D01*
X143064605Y-58421000D01*
X142705395Y-58421000D01*
X137483326Y-53198932D01*
X136604470Y-54014908D01*
X135865563Y-55324840D01*
X135396409Y-56753756D01*
X135215037Y-58246743D01*
X127528615Y-58246743D01*
X127441583Y-57095572D01*
X127037807Y-55646824D01*
X126359153Y-54304686D01*
X126165530Y-54014908D01*
X125286674Y-53198932D01*
X120064605Y-58421000D01*
X119705395Y-58421000D01*
X114483326Y-53198932D01*
X113604470Y-54014908D01*
X112865563Y-55324840D01*
X112396409Y-56753756D01*
X112215037Y-58246743D01*
X106199000Y-58246743D01*
X106199000Y-53019326D01*
X114662932Y-53019326D01*
X119885000Y-58241395D01*
X125107068Y-53019326D01*
X137662932Y-53019326D01*
X142885000Y-58241395D01*
X148107068Y-53019326D01*
X160662932Y-53019326D01*
X165885000Y-58241395D01*
X171107068Y-53019326D01*
X170291092Y-52140470D01*
X168981160Y-51401563D01*
X167552244Y-50932409D01*
X166059257Y-50751037D01*
X164559572Y-50864417D01*
X163110824Y-51268193D01*
X161768686Y-51946847D01*
X161478908Y-52140470D01*
X160662932Y-53019326D01*
X148107068Y-53019326D01*
X147291092Y-52140470D01*
X145981160Y-51401563D01*
X144552244Y-50932409D01*
X143059257Y-50751037D01*
X141559572Y-50864417D01*
X140110824Y-51268193D01*
X138768686Y-51946847D01*
X138478908Y-52140470D01*
X137662932Y-53019326D01*
X125107068Y-53019326D01*
X124291092Y-52140470D01*
X122981160Y-51401563D01*
X121552244Y-50932409D01*
X120059257Y-50751037D01*
X118559572Y-50864417D01*
X117110824Y-51268193D01*
X115768686Y-51946847D01*
X115478908Y-52140470D01*
X114662932Y-53019326D01*
X106199000Y-53019326D01*
X106199000Y-10198713D01*
X106520286Y-10621109D01*
X107025020Y-11067540D01*
X107607150Y-11406925D01*
X108244305Y-11626221D01*
X108912000Y-11717000D01*
X111412000Y-11717000D01*
X111412000Y-8409000D01*
X111666000Y-8409000D01*
X111666000Y-11717000D01*
X114166000Y-11717000D01*
X114833695Y-11626221D01*
X115470850Y-11406925D01*
X116052980Y-11067540D01*
X116557714Y-10621109D01*
X116965655Y-10084787D01*
X117261126Y-9479185D01*
X117409522Y-8944421D01*
X117312788Y-8409000D01*
X111666000Y-8409000D01*
X111412000Y-8409000D01*
X111392000Y-8409000D01*
X111392000Y-8155000D01*
X111412000Y-8155000D01*
X111412000Y-8135000D01*
X111666000Y-8135000D01*
X111666000Y-8155000D01*
X117312788Y-8155000D01*
X117409522Y-7619579D01*
X117261126Y-7084815D01*
X116965655Y-6479213D01*
X116782182Y-6238000D01*
X119244286Y-6238000D01*
X119244286Y-18008000D01*
X135585715Y-18008000D01*
X135585715Y-8944421D01*
X168668478Y-8944421D01*
X168816874Y-9479185D01*
X169112345Y-10084787D01*
X169520286Y-10621109D01*
X170025020Y-11067540D01*
X170607150Y-11406925D01*
X171244305Y-11626221D01*
X171912000Y-11717000D01*
X174412000Y-11717000D01*
X174412000Y-8409000D01*
X168765212Y-8409000D01*
X168668478Y-8944421D01*
X135585715Y-8944421D01*
X135585715Y-6238000D01*
X119244286Y-6238000D01*
X116782182Y-6238000D01*
X116557714Y-5942891D01*
X116052980Y-5496460D01*
X115959568Y-5442000D01*
X170118432Y-5442000D01*
X170025020Y-5496460D01*
G04 #@! TA.AperFunction,Conductor*
D15*
G36*
X170025020Y-5496460D02*
G01*
X169520286Y-5942891D01*
X169112345Y-6479213D01*
X168816874Y-7084815D01*
X168668478Y-7619579D01*
X168765212Y-8155000D01*
X174412000Y-8155000D01*
X174412000Y-8135000D01*
X174666000Y-8135000D01*
X174666000Y-8155000D01*
X174686000Y-8155000D01*
X174686000Y-8409000D01*
X174666000Y-8409000D01*
X174666000Y-11717000D01*
X177166000Y-11717000D01*
X177833695Y-11626221D01*
X178470850Y-11406925D01*
X179052980Y-11067540D01*
X179557714Y-10621109D01*
X179879001Y-10198711D01*
X179879000Y-199327929D01*
X179479664Y-198841336D01*
X178956617Y-198412083D01*
X178359878Y-198093119D01*
X177712378Y-197896702D01*
X177207746Y-197847000D01*
X171870254Y-197847000D01*
X171365622Y-197896702D01*
X170718122Y-198093119D01*
X170121383Y-198412083D01*
X169598336Y-198841336D01*
X169169083Y-199364383D01*
X168850119Y-199961122D01*
X168653702Y-200608622D01*
X168587380Y-201282000D01*
X168653702Y-201955378D01*
X168850119Y-202602878D01*
X169169083Y-203199617D01*
X169598336Y-203722664D01*
X170084929Y-204122000D01*
X115993071Y-204122000D01*
X116479664Y-203722664D01*
X116908917Y-203199617D01*
X117227881Y-202602878D01*
X117424298Y-201955378D01*
X117490620Y-201282000D01*
X117424298Y-200608622D01*
X117227881Y-199961122D01*
X116908917Y-199364383D01*
X116479664Y-198841336D01*
X115956617Y-198412083D01*
X115359878Y-198093119D01*
X114712378Y-197896702D01*
X114207746Y-197847000D01*
X108870254Y-197847000D01*
X108365622Y-197896702D01*
X107718122Y-198093119D01*
X107121383Y-198412083D01*
X106598336Y-198841336D01*
X106199000Y-199327929D01*
X106199000Y-178822674D01*
X114662932Y-178822674D01*
X115478908Y-179701530D01*
X116788840Y-180440437D01*
X118217756Y-180909591D01*
X119710743Y-181090963D01*
X121210428Y-180977583D01*
X122659176Y-180573807D01*
X124001314Y-179895153D01*
X124291092Y-179701530D01*
X125107068Y-178822674D01*
X137662932Y-178822674D01*
X138478908Y-179701530D01*
X139788840Y-180440437D01*
X141217756Y-180909591D01*
X142710743Y-181090963D01*
X144210428Y-180977583D01*
X145659176Y-180573807D01*
X147001314Y-179895153D01*
X147291092Y-179701530D01*
X148107068Y-178822674D01*
X160662932Y-178822674D01*
X161478908Y-179701530D01*
X162788840Y-180440437D01*
X164217756Y-180909591D01*
X165710743Y-181090963D01*
X167210428Y-180977583D01*
X168659176Y-180573807D01*
X170001314Y-179895153D01*
X170291092Y-179701530D01*
X171107068Y-178822674D01*
X165885000Y-173600605D01*
X160662932Y-178822674D01*
X148107068Y-178822674D01*
X142885000Y-173600605D01*
X137662932Y-178822674D01*
X125107068Y-178822674D01*
X119885000Y-173600605D01*
X114662932Y-178822674D01*
X106199000Y-178822674D01*
X106199000Y-173246743D01*
X112215037Y-173246743D01*
X112328417Y-174746428D01*
X112732193Y-176195176D01*
X113410847Y-177537314D01*
X113604470Y-177827092D01*
X114483326Y-178643068D01*
X119705395Y-173421000D01*
X120064605Y-173421000D01*
X125286674Y-178643068D01*
X126165530Y-177827092D01*
X126904437Y-176517160D01*
X127373591Y-175088244D01*
X127554963Y-173595257D01*
X127528615Y-173246743D01*
X135215037Y-173246743D01*
X135328417Y-174746428D01*
X135732193Y-176195176D01*
X136410847Y-177537314D01*
X136604470Y-177827092D01*
X137483326Y-178643068D01*
X142705395Y-173421000D01*
X143064605Y-173421000D01*
X148286674Y-178643068D01*
X149165530Y-177827092D01*
X149904437Y-176517160D01*
X150373591Y-175088244D01*
X150554963Y-173595257D01*
X150528615Y-173246743D01*
X158215037Y-173246743D01*
X158328417Y-174746428D01*
X158732193Y-176195176D01*
X159410847Y-177537314D01*
X159604470Y-177827092D01*
X160483326Y-178643068D01*
X165705395Y-173421000D01*
X166064605Y-173421000D01*
X171286674Y-178643068D01*
X172165530Y-177827092D01*
X172904437Y-176517160D01*
X173373591Y-175088244D01*
X173554963Y-173595257D01*
X173441583Y-172095572D01*
X173037807Y-170646824D01*
X172359153Y-169304686D01*
X172165530Y-169014908D01*
X171286674Y-168198932D01*
X166064605Y-173421000D01*
X165705395Y-173421000D01*
X160483326Y-168198932D01*
X159604470Y-169014908D01*
X158865563Y-170324840D01*
X158396409Y-171753756D01*
X158215037Y-173246743D01*
X150528615Y-173246743D01*
X150441583Y-172095572D01*
X150037807Y-170646824D01*
X149359153Y-169304686D01*
X149165530Y-169014908D01*
X148286674Y-168198932D01*
X143064605Y-173421000D01*
X142705395Y-173421000D01*
X137483326Y-168198932D01*
X136604470Y-169014908D01*
X135865563Y-170324840D01*
X135396409Y-171753756D01*
X135215037Y-173246743D01*
X127528615Y-173246743D01*
X127441583Y-172095572D01*
X127037807Y-170646824D01*
X126359153Y-169304686D01*
X126165530Y-169014908D01*
X125286674Y-168198932D01*
X120064605Y-173421000D01*
X119705395Y-173421000D01*
X114483326Y-168198932D01*
X113604470Y-169014908D01*
X112865563Y-170324840D01*
X112396409Y-171753756D01*
X112215037Y-173246743D01*
X106199000Y-173246743D01*
X106199000Y-168019326D01*
X114662932Y-168019326D01*
X119885000Y-173241395D01*
X125107068Y-168019326D01*
X137662932Y-168019326D01*
X142885000Y-173241395D01*
X148107068Y-168019326D01*
X160662932Y-168019326D01*
X165885000Y-173241395D01*
X171107068Y-168019326D01*
X170291092Y-167140470D01*
X168981160Y-166401563D01*
X167552244Y-165932409D01*
X166059257Y-165751037D01*
X164559572Y-165864417D01*
X163110824Y-166268193D01*
X161768686Y-166946847D01*
X161478908Y-167140470D01*
X160662932Y-168019326D01*
X148107068Y-168019326D01*
X147291092Y-167140470D01*
X145981160Y-166401563D01*
X144552244Y-165932409D01*
X143059257Y-165751037D01*
X141559572Y-165864417D01*
X140110824Y-166268193D01*
X138768686Y-166946847D01*
X138478908Y-167140470D01*
X137662932Y-168019326D01*
X125107068Y-168019326D01*
X124291092Y-167140470D01*
X122981160Y-166401563D01*
X121552244Y-165932409D01*
X120059257Y-165751037D01*
X118559572Y-165864417D01*
X117110824Y-166268193D01*
X115768686Y-166946847D01*
X115478908Y-167140470D01*
X114662932Y-168019326D01*
X106199000Y-168019326D01*
X106199000Y-155822674D01*
X114662932Y-155822674D01*
X115478908Y-156701530D01*
X116788840Y-157440437D01*
X118217756Y-157909591D01*
X119710743Y-158090963D01*
X121210428Y-157977583D01*
X122659176Y-157573807D01*
X124001314Y-156895153D01*
X124291092Y-156701530D01*
X125107068Y-155822674D01*
X137662932Y-155822674D01*
X138478908Y-156701530D01*
X139788840Y-157440437D01*
X141217756Y-157909591D01*
X142710743Y-158090963D01*
X144210428Y-157977583D01*
X145659176Y-157573807D01*
X147001314Y-156895153D01*
X147291092Y-156701530D01*
X148107068Y-155822674D01*
X160662932Y-155822674D01*
X161478908Y-156701530D01*
X162788840Y-157440437D01*
X164217756Y-157909591D01*
X165710743Y-158090963D01*
X167210428Y-157977583D01*
X168659176Y-157573807D01*
X170001314Y-156895153D01*
X170291092Y-156701530D01*
X171107068Y-155822674D01*
X165885000Y-150600605D01*
X160662932Y-155822674D01*
X148107068Y-155822674D01*
X142885000Y-150600605D01*
X137662932Y-155822674D01*
X125107068Y-155822674D01*
X119885000Y-150600605D01*
X114662932Y-155822674D01*
X106199000Y-155822674D01*
X106199000Y-82221000D01*
X106769000Y-82221000D01*
X106769000Y-155791000D01*
X110589000Y-155791000D01*
X110589000Y-150246743D01*
X112215037Y-150246743D01*
X112328417Y-151746428D01*
X112732193Y-153195176D01*
X113410847Y-154537314D01*
X113604470Y-154827092D01*
X114483326Y-155643068D01*
X119705395Y-150421000D01*
X120064605Y-150421000D01*
X125286674Y-155643068D01*
X126165530Y-154827092D01*
X126904437Y-153517160D01*
X127373591Y-152088244D01*
X127554963Y-150595257D01*
X127528615Y-150246743D01*
X135215037Y-150246743D01*
X135328417Y-151746428D01*
X135732193Y-153195176D01*
X136410847Y-154537314D01*
X136604470Y-154827092D01*
X137483326Y-155643068D01*
X142705395Y-150421000D01*
X143064605Y-150421000D01*
X148286674Y-155643068D01*
X149165530Y-154827092D01*
X149904437Y-153517160D01*
X150373591Y-152088244D01*
X150554963Y-150595257D01*
X150528615Y-150246743D01*
X158215037Y-150246743D01*
X158328417Y-151746428D01*
X158732193Y-153195176D01*
X159410847Y-154537314D01*
X159604470Y-154827092D01*
X160483326Y-155643068D01*
X165705395Y-150421000D01*
X166064605Y-150421000D01*
X171286674Y-155643068D01*
X172165530Y-154827092D01*
X172904437Y-153517160D01*
X173373591Y-152088244D01*
X173554963Y-150595257D01*
X173441583Y-149095572D01*
X173037807Y-147646824D01*
X172359153Y-146304686D01*
X172165530Y-146014908D01*
X171286674Y-145198932D01*
X166064605Y-150421000D01*
X165705395Y-150421000D01*
X160483326Y-145198932D01*
X159604470Y-146014908D01*
X158865563Y-147324840D01*
X158396409Y-148753756D01*
X158215037Y-150246743D01*
X150528615Y-150246743D01*
X150441583Y-149095572D01*
X150037807Y-147646824D01*
X149359153Y-146304686D01*
X149165530Y-146014908D01*
X148286674Y-145198932D01*
X143064605Y-150421000D01*
X142705395Y-150421000D01*
X137483326Y-145198932D01*
X136604470Y-146014908D01*
X135865563Y-147324840D01*
X135396409Y-148753756D01*
X135215037Y-150246743D01*
X127528615Y-150246743D01*
X127441583Y-149095572D01*
X127037807Y-147646824D01*
X126359153Y-146304686D01*
X126165530Y-146014908D01*
X125286674Y-145198932D01*
X120064605Y-150421000D01*
X119705395Y-150421000D01*
X114483326Y-145198932D01*
X113604470Y-146014908D01*
X112865563Y-147324840D01*
X112396409Y-148753756D01*
X112215037Y-150246743D01*
X110589000Y-150246743D01*
X110589000Y-145019326D01*
X114662932Y-145019326D01*
X119885000Y-150241395D01*
X125107068Y-145019326D01*
X137662932Y-145019326D01*
X142885000Y-150241395D01*
X148107068Y-145019326D01*
X160662932Y-145019326D01*
X165885000Y-150241395D01*
X171107068Y-145019326D01*
X170291092Y-144140470D01*
X168981160Y-143401563D01*
X167552244Y-142932409D01*
X166059257Y-142751037D01*
X164559572Y-142864417D01*
X163110824Y-143268193D01*
X161768686Y-143946847D01*
X161478908Y-144140470D01*
X160662932Y-145019326D01*
X148107068Y-145019326D01*
X147291092Y-144140470D01*
X145981160Y-143401563D01*
X144552244Y-142932409D01*
X143059257Y-142751037D01*
X141559572Y-142864417D01*
X140110824Y-143268193D01*
X138768686Y-143946847D01*
X138478908Y-144140470D01*
X137662932Y-145019326D01*
X125107068Y-145019326D01*
X124291092Y-144140470D01*
X122981160Y-143401563D01*
X121552244Y-142932409D01*
X120059257Y-142751037D01*
X118559572Y-142864417D01*
X117110824Y-143268193D01*
X115768686Y-143946847D01*
X115478908Y-144140470D01*
X114662932Y-145019326D01*
X110589000Y-145019326D01*
X110589000Y-132822674D01*
X114662932Y-132822674D01*
X115478908Y-133701530D01*
X116788840Y-134440437D01*
X118217756Y-134909591D01*
X119710743Y-135090963D01*
X121210428Y-134977583D01*
X122659176Y-134573807D01*
X124001314Y-133895153D01*
X124291092Y-133701530D01*
X125107068Y-132822674D01*
X137662932Y-132822674D01*
X138478908Y-133701530D01*
X139788840Y-134440437D01*
X141217756Y-134909591D01*
X142710743Y-135090963D01*
X144210428Y-134977583D01*
X145659176Y-134573807D01*
X147001314Y-133895153D01*
X147291092Y-133701530D01*
X148107068Y-132822674D01*
X160662932Y-132822674D01*
X161478908Y-133701530D01*
X162788840Y-134440437D01*
X164217756Y-134909591D01*
X165710743Y-135090963D01*
X167210428Y-134977583D01*
X168659176Y-134573807D01*
X170001314Y-133895153D01*
X170291092Y-133701530D01*
X171107068Y-132822674D01*
X165885000Y-127600605D01*
X160662932Y-132822674D01*
X148107068Y-132822674D01*
X142885000Y-127600605D01*
X137662932Y-132822674D01*
X125107068Y-132822674D01*
X119885000Y-127600605D01*
X114662932Y-132822674D01*
X110589000Y-132822674D01*
X110589000Y-127246743D01*
X112215037Y-127246743D01*
X112328417Y-128746428D01*
X112732193Y-130195176D01*
X113410847Y-131537314D01*
X113604470Y-131827092D01*
X114483326Y-132643068D01*
X119705395Y-127421000D01*
X120064605Y-127421000D01*
X125286674Y-132643068D01*
X126165530Y-131827092D01*
X126904437Y-130517160D01*
X127373591Y-129088244D01*
X127554963Y-127595257D01*
X127528615Y-127246743D01*
X135215037Y-127246743D01*
X135328417Y-128746428D01*
X135732193Y-130195176D01*
X136410847Y-131537314D01*
X136604470Y-131827092D01*
X137483326Y-132643068D01*
X142705395Y-127421000D01*
X143064605Y-127421000D01*
X148286674Y-132643068D01*
X149165530Y-131827092D01*
X149904437Y-130517160D01*
X150373591Y-129088244D01*
X150554963Y-127595257D01*
X150528615Y-127246743D01*
X158215037Y-127246743D01*
X158328417Y-128746428D01*
X158732193Y-130195176D01*
X159410847Y-131537314D01*
X159604470Y-131827092D01*
X160483326Y-132643068D01*
X165705395Y-127421000D01*
X166064605Y-127421000D01*
X171286674Y-132643068D01*
X172165530Y-131827092D01*
X172904437Y-130517160D01*
X173373591Y-129088244D01*
X173554963Y-127595257D01*
X173441583Y-126095572D01*
X173037807Y-124646824D01*
X172359153Y-123304686D01*
X172165530Y-123014908D01*
X171286674Y-122198932D01*
X166064605Y-127421000D01*
X165705395Y-127421000D01*
X160483326Y-122198932D01*
X159604470Y-123014908D01*
X158865563Y-124324840D01*
X158396409Y-125753756D01*
X158215037Y-127246743D01*
X150528615Y-127246743D01*
X150441583Y-126095572D01*
X150037807Y-124646824D01*
X149359153Y-123304686D01*
X149165530Y-123014908D01*
X148286674Y-122198932D01*
X143064605Y-127421000D01*
X142705395Y-127421000D01*
X137483326Y-122198932D01*
X136604470Y-123014908D01*
X135865563Y-124324840D01*
X135396409Y-125753756D01*
X135215037Y-127246743D01*
X127528615Y-127246743D01*
X127441583Y-126095572D01*
X127037807Y-124646824D01*
X126359153Y-123304686D01*
X126165530Y-123014908D01*
X125286674Y-122198932D01*
X120064605Y-127421000D01*
X119705395Y-127421000D01*
X114483326Y-122198932D01*
X113604470Y-123014908D01*
X112865563Y-124324840D01*
X112396409Y-125753756D01*
X112215037Y-127246743D01*
X110589000Y-127246743D01*
X110589000Y-122019326D01*
X114662932Y-122019326D01*
X119885000Y-127241395D01*
X125107068Y-122019326D01*
X137662932Y-122019326D01*
X142885000Y-127241395D01*
X148107068Y-122019326D01*
X160662932Y-122019326D01*
X165885000Y-127241395D01*
X171107068Y-122019326D01*
X170291092Y-121140470D01*
X168981160Y-120401563D01*
X167552244Y-119932409D01*
X166059257Y-119751037D01*
X164559572Y-119864417D01*
X163110824Y-120268193D01*
X161768686Y-120946847D01*
X161478908Y-121140470D01*
X160662932Y-122019326D01*
X148107068Y-122019326D01*
X147291092Y-121140470D01*
X145981160Y-120401563D01*
X144552244Y-119932409D01*
X143059257Y-119751037D01*
X141559572Y-119864417D01*
X140110824Y-120268193D01*
X138768686Y-120946847D01*
X138478908Y-121140470D01*
X137662932Y-122019326D01*
X125107068Y-122019326D01*
X124291092Y-121140470D01*
X122981160Y-120401563D01*
X121552244Y-119932409D01*
X120059257Y-119751037D01*
X118559572Y-119864417D01*
X117110824Y-120268193D01*
X115768686Y-120946847D01*
X115478908Y-121140470D01*
X114662932Y-122019326D01*
X110589000Y-122019326D01*
X110589000Y-109822674D01*
X114662932Y-109822674D01*
X115478908Y-110701530D01*
X116788840Y-111440437D01*
X118217756Y-111909591D01*
X119710743Y-112090963D01*
X121210428Y-111977583D01*
X122659176Y-111573807D01*
X124001314Y-110895153D01*
X124291092Y-110701530D01*
X125107068Y-109822674D01*
X137662932Y-109822674D01*
X138478908Y-110701530D01*
X139788840Y-111440437D01*
X141217756Y-111909591D01*
X142710743Y-112090963D01*
X144210428Y-111977583D01*
X145659176Y-111573807D01*
X147001314Y-110895153D01*
X147291092Y-110701530D01*
X148107068Y-109822674D01*
X160662932Y-109822674D01*
X161478908Y-110701530D01*
X162788840Y-111440437D01*
X164217756Y-111909591D01*
X165710743Y-112090963D01*
X167210428Y-111977583D01*
X168659176Y-111573807D01*
X170001314Y-110895153D01*
X170291092Y-110701530D01*
X171107068Y-109822674D01*
X165885000Y-104600605D01*
X160662932Y-109822674D01*
X148107068Y-109822674D01*
X142885000Y-104600605D01*
X137662932Y-109822674D01*
X125107068Y-109822674D01*
X119885000Y-104600605D01*
X114662932Y-109822674D01*
X110589000Y-109822674D01*
X110589000Y-104246743D01*
X112215037Y-104246743D01*
X112328417Y-105746428D01*
X112732193Y-107195176D01*
X113410847Y-108537314D01*
X113604470Y-108827092D01*
X114483326Y-109643068D01*
X119705395Y-104421000D01*
X120064605Y-104421000D01*
X125286674Y-109643068D01*
X126165530Y-108827092D01*
X126904437Y-107517160D01*
X127373591Y-106088244D01*
X127554963Y-104595257D01*
X127528615Y-104246743D01*
X135215037Y-104246743D01*
X135328417Y-105746428D01*
X135732193Y-107195176D01*
X136410847Y-108537314D01*
X136604470Y-108827092D01*
X137483326Y-109643068D01*
X142705395Y-104421000D01*
X143064605Y-104421000D01*
X148286674Y-109643068D01*
X149165530Y-108827092D01*
X149904437Y-107517160D01*
X150373591Y-106088244D01*
X150554963Y-104595257D01*
X150528615Y-104246743D01*
X158215037Y-104246743D01*
X158328417Y-105746428D01*
X158732193Y-107195176D01*
X159410847Y-108537314D01*
X159604470Y-108827092D01*
X160483326Y-109643068D01*
X165705395Y-104421000D01*
X166064605Y-104421000D01*
X171286674Y-109643068D01*
X172165530Y-108827092D01*
X172904437Y-107517160D01*
X173373591Y-106088244D01*
X173554963Y-104595257D01*
X173441583Y-103095572D01*
X173037807Y-101646824D01*
X172359153Y-100304686D01*
X172165530Y-100014908D01*
X171286674Y-99198932D01*
X166064605Y-104421000D01*
X165705395Y-104421000D01*
X160483326Y-99198932D01*
X159604470Y-100014908D01*
X158865563Y-101324840D01*
X158396409Y-102753756D01*
X158215037Y-104246743D01*
X150528615Y-104246743D01*
X150441583Y-103095572D01*
X150037807Y-101646824D01*
X149359153Y-100304686D01*
X149165530Y-100014908D01*
X148286674Y-99198932D01*
X143064605Y-104421000D01*
X142705395Y-104421000D01*
X137483326Y-99198932D01*
X136604470Y-100014908D01*
X135865563Y-101324840D01*
X135396409Y-102753756D01*
X135215037Y-104246743D01*
X127528615Y-104246743D01*
X127441583Y-103095572D01*
X127037807Y-101646824D01*
X126359153Y-100304686D01*
X126165530Y-100014908D01*
X125286674Y-99198932D01*
X120064605Y-104421000D01*
X119705395Y-104421000D01*
X114483326Y-99198932D01*
X113604470Y-100014908D01*
X112865563Y-101324840D01*
X112396409Y-102753756D01*
X112215037Y-104246743D01*
X110589000Y-104246743D01*
X110589000Y-99019326D01*
X114662932Y-99019326D01*
X119885000Y-104241395D01*
X125107068Y-99019326D01*
X137662932Y-99019326D01*
X142885000Y-104241395D01*
X148107068Y-99019326D01*
X160662932Y-99019326D01*
X165885000Y-104241395D01*
X171107068Y-99019326D01*
X170291092Y-98140470D01*
X168981160Y-97401563D01*
X167552244Y-96932409D01*
X166059257Y-96751037D01*
X164559572Y-96864417D01*
X163110824Y-97268193D01*
X161768686Y-97946847D01*
X161478908Y-98140470D01*
X160662932Y-99019326D01*
X148107068Y-99019326D01*
X147291092Y-98140470D01*
X145981160Y-97401563D01*
X144552244Y-96932409D01*
X143059257Y-96751037D01*
X141559572Y-96864417D01*
X140110824Y-97268193D01*
X138768686Y-97946847D01*
X138478908Y-98140470D01*
X137662932Y-99019326D01*
X125107068Y-99019326D01*
X124291092Y-98140470D01*
X122981160Y-97401563D01*
X121552244Y-96932409D01*
X120059257Y-96751037D01*
X118559572Y-96864417D01*
X117110824Y-97268193D01*
X115768686Y-97946847D01*
X115478908Y-98140470D01*
X114662932Y-99019326D01*
X110589000Y-99019326D01*
X110589000Y-86822674D01*
X114662932Y-86822674D01*
X115478908Y-87701530D01*
X116788840Y-88440437D01*
X118217756Y-88909591D01*
X119710743Y-89090963D01*
X121210428Y-88977583D01*
X122659176Y-88573807D01*
X124001314Y-87895153D01*
X124291092Y-87701530D01*
X125107068Y-86822674D01*
X137662932Y-86822674D01*
X138478908Y-87701530D01*
X139788840Y-88440437D01*
X141217756Y-88909591D01*
X142710743Y-89090963D01*
X144210428Y-88977583D01*
X145659176Y-88573807D01*
X147001314Y-87895153D01*
X147291092Y-87701530D01*
X148107068Y-86822674D01*
X160662932Y-86822674D01*
X161478908Y-87701530D01*
X162788840Y-88440437D01*
X164217756Y-88909591D01*
X165710743Y-89090963D01*
X167210428Y-88977583D01*
X168659176Y-88573807D01*
X170001314Y-87895153D01*
X170291092Y-87701530D01*
X171107068Y-86822674D01*
X165885000Y-81600605D01*
X160662932Y-86822674D01*
X148107068Y-86822674D01*
X142885000Y-81600605D01*
X137662932Y-86822674D01*
X125107068Y-86822674D01*
X119885000Y-81600605D01*
X114662932Y-86822674D01*
X110589000Y-86822674D01*
X110589000Y-82221000D01*
X106769000Y-82221000D01*
X106199000Y-82221000D01*
X106199000Y-81246743D01*
X112215037Y-81246743D01*
X112328417Y-82746428D01*
X112732193Y-84195176D01*
X113410847Y-85537314D01*
X113604470Y-85827092D01*
X114483326Y-86643068D01*
X119705395Y-81421000D01*
X120064605Y-81421000D01*
X125286674Y-86643068D01*
X126165530Y-85827092D01*
X126904437Y-84517160D01*
X127373591Y-83088244D01*
X127554963Y-81595257D01*
X127528615Y-81246743D01*
X135215037Y-81246743D01*
X135328417Y-82746428D01*
X135732193Y-84195176D01*
X136410847Y-85537314D01*
X136604470Y-85827092D01*
X137483326Y-86643068D01*
X142705395Y-81421000D01*
X143064605Y-81421000D01*
X148286674Y-86643068D01*
X149165530Y-85827092D01*
X149904437Y-84517160D01*
X150373591Y-83088244D01*
X150554963Y-81595257D01*
X150528615Y-81246743D01*
X158215037Y-81246743D01*
X158328417Y-82746428D01*
X158732193Y-84195176D01*
X159410847Y-85537314D01*
X159604470Y-85827092D01*
X160483326Y-86643068D01*
X165705395Y-81421000D01*
X166064605Y-81421000D01*
X171286674Y-86643068D01*
X172165530Y-85827092D01*
X172904437Y-84517160D01*
X173373591Y-83088244D01*
X173554963Y-81595257D01*
X173441583Y-80095572D01*
X173037807Y-78646824D01*
X172359153Y-77304686D01*
X172165530Y-77014908D01*
X171286674Y-76198932D01*
X166064605Y-81421000D01*
X165705395Y-81421000D01*
X160483326Y-76198932D01*
X159604470Y-77014908D01*
X158865563Y-78324840D01*
X158396409Y-79753756D01*
X158215037Y-81246743D01*
X150528615Y-81246743D01*
X150441583Y-80095572D01*
X150037807Y-78646824D01*
X149359153Y-77304686D01*
X149165530Y-77014908D01*
X148286674Y-76198932D01*
X143064605Y-81421000D01*
X142705395Y-81421000D01*
X137483326Y-76198932D01*
X136604470Y-77014908D01*
X135865563Y-78324840D01*
X135396409Y-79753756D01*
X135215037Y-81246743D01*
X127528615Y-81246743D01*
X127441583Y-80095572D01*
X127037807Y-78646824D01*
X126359153Y-77304686D01*
X126165530Y-77014908D01*
X125286674Y-76198932D01*
X120064605Y-81421000D01*
X119705395Y-81421000D01*
X114483326Y-76198932D01*
X113604470Y-77014908D01*
X112865563Y-78324840D01*
X112396409Y-79753756D01*
X112215037Y-81246743D01*
X106199000Y-81246743D01*
X106199000Y-76019326D01*
X114662932Y-76019326D01*
X119885000Y-81241395D01*
X125107068Y-76019326D01*
X137662932Y-76019326D01*
X142885000Y-81241395D01*
X148107068Y-76019326D01*
X160662932Y-76019326D01*
X165885000Y-81241395D01*
X171107068Y-76019326D01*
X170291092Y-75140470D01*
X168981160Y-74401563D01*
X167552244Y-73932409D01*
X166059257Y-73751037D01*
X164559572Y-73864417D01*
X163110824Y-74268193D01*
X161768686Y-74946847D01*
X161478908Y-75140470D01*
X160662932Y-76019326D01*
X148107068Y-76019326D01*
X147291092Y-75140470D01*
X145981160Y-74401563D01*
X144552244Y-73932409D01*
X143059257Y-73751037D01*
X141559572Y-73864417D01*
X140110824Y-74268193D01*
X138768686Y-74946847D01*
X138478908Y-75140470D01*
X137662932Y-76019326D01*
X125107068Y-76019326D01*
X124291092Y-75140470D01*
X122981160Y-74401563D01*
X121552244Y-73932409D01*
X120059257Y-73751037D01*
X118559572Y-73864417D01*
X117110824Y-74268193D01*
X115768686Y-74946847D01*
X115478908Y-75140470D01*
X114662932Y-76019326D01*
X106199000Y-76019326D01*
X106199000Y-63822674D01*
X114662932Y-63822674D01*
X115478908Y-64701530D01*
X116788840Y-65440437D01*
X118217756Y-65909591D01*
X119710743Y-66090963D01*
X121210428Y-65977583D01*
X122659176Y-65573807D01*
X124001314Y-64895153D01*
X124291092Y-64701530D01*
X125107068Y-63822674D01*
X137662932Y-63822674D01*
X138478908Y-64701530D01*
X139788840Y-65440437D01*
X141217756Y-65909591D01*
X142710743Y-66090963D01*
X144210428Y-65977583D01*
X145659176Y-65573807D01*
X147001314Y-64895153D01*
X147291092Y-64701530D01*
X148107068Y-63822674D01*
X160662932Y-63822674D01*
X161478908Y-64701530D01*
X162788840Y-65440437D01*
X164217756Y-65909591D01*
X165710743Y-66090963D01*
X167210428Y-65977583D01*
X168659176Y-65573807D01*
X170001314Y-64895153D01*
X170291092Y-64701530D01*
X171107068Y-63822674D01*
X165885000Y-58600605D01*
X160662932Y-63822674D01*
X148107068Y-63822674D01*
X142885000Y-58600605D01*
X137662932Y-63822674D01*
X125107068Y-63822674D01*
X119885000Y-58600605D01*
X114662932Y-63822674D01*
X106199000Y-63822674D01*
X106199000Y-58246743D01*
X112215037Y-58246743D01*
X112328417Y-59746428D01*
X112732193Y-61195176D01*
X113410847Y-62537314D01*
X113604470Y-62827092D01*
X114483326Y-63643068D01*
X119705395Y-58421000D01*
X120064605Y-58421000D01*
X125286674Y-63643068D01*
X126165530Y-62827092D01*
X126904437Y-61517160D01*
X127373591Y-60088244D01*
X127554963Y-58595257D01*
X127528615Y-58246743D01*
X135215037Y-58246743D01*
X135328417Y-59746428D01*
X135732193Y-61195176D01*
X136410847Y-62537314D01*
X136604470Y-62827092D01*
X137483326Y-63643068D01*
X142705395Y-58421000D01*
X143064605Y-58421000D01*
X148286674Y-63643068D01*
X149165530Y-62827092D01*
X149904437Y-61517160D01*
X150373591Y-60088244D01*
X150554963Y-58595257D01*
X150528615Y-58246743D01*
X158215037Y-58246743D01*
X158328417Y-59746428D01*
X158732193Y-61195176D01*
X159410847Y-62537314D01*
X159604470Y-62827092D01*
X160483326Y-63643068D01*
X165705395Y-58421000D01*
X166064605Y-58421000D01*
X171286674Y-63643068D01*
X172165530Y-62827092D01*
X172904437Y-61517160D01*
X173373591Y-60088244D01*
X173554963Y-58595257D01*
X173441583Y-57095572D01*
X173037807Y-55646824D01*
X172359153Y-54304686D01*
X172165530Y-54014908D01*
X171286674Y-53198932D01*
X166064605Y-58421000D01*
X165705395Y-58421000D01*
X160483326Y-53198932D01*
X159604470Y-54014908D01*
X158865563Y-55324840D01*
X158396409Y-56753756D01*
X158215037Y-58246743D01*
X150528615Y-58246743D01*
X150441583Y-57095572D01*
X150037807Y-55646824D01*
X149359153Y-54304686D01*
X149165530Y-54014908D01*
X148286674Y-53198932D01*
X143064605Y-58421000D01*
X142705395Y-58421000D01*
X137483326Y-53198932D01*
X136604470Y-54014908D01*
X135865563Y-55324840D01*
X135396409Y-56753756D01*
X135215037Y-58246743D01*
X127528615Y-58246743D01*
X127441583Y-57095572D01*
X127037807Y-55646824D01*
X126359153Y-54304686D01*
X126165530Y-54014908D01*
X125286674Y-53198932D01*
X120064605Y-58421000D01*
X119705395Y-58421000D01*
X114483326Y-53198932D01*
X113604470Y-54014908D01*
X112865563Y-55324840D01*
X112396409Y-56753756D01*
X112215037Y-58246743D01*
X106199000Y-58246743D01*
X106199000Y-53019326D01*
X114662932Y-53019326D01*
X119885000Y-58241395D01*
X125107068Y-53019326D01*
X137662932Y-53019326D01*
X142885000Y-58241395D01*
X148107068Y-53019326D01*
X160662932Y-53019326D01*
X165885000Y-58241395D01*
X171107068Y-53019326D01*
X170291092Y-52140470D01*
X168981160Y-51401563D01*
X167552244Y-50932409D01*
X166059257Y-50751037D01*
X164559572Y-50864417D01*
X163110824Y-51268193D01*
X161768686Y-51946847D01*
X161478908Y-52140470D01*
X160662932Y-53019326D01*
X148107068Y-53019326D01*
X147291092Y-52140470D01*
X145981160Y-51401563D01*
X144552244Y-50932409D01*
X143059257Y-50751037D01*
X141559572Y-50864417D01*
X140110824Y-51268193D01*
X138768686Y-51946847D01*
X138478908Y-52140470D01*
X137662932Y-53019326D01*
X125107068Y-53019326D01*
X124291092Y-52140470D01*
X122981160Y-51401563D01*
X121552244Y-50932409D01*
X120059257Y-50751037D01*
X118559572Y-50864417D01*
X117110824Y-51268193D01*
X115768686Y-51946847D01*
X115478908Y-52140470D01*
X114662932Y-53019326D01*
X106199000Y-53019326D01*
X106199000Y-10198713D01*
X106520286Y-10621109D01*
X107025020Y-11067540D01*
X107607150Y-11406925D01*
X108244305Y-11626221D01*
X108912000Y-11717000D01*
X111412000Y-11717000D01*
X111412000Y-8409000D01*
X111666000Y-8409000D01*
X111666000Y-11717000D01*
X114166000Y-11717000D01*
X114833695Y-11626221D01*
X115470850Y-11406925D01*
X116052980Y-11067540D01*
X116557714Y-10621109D01*
X116965655Y-10084787D01*
X117261126Y-9479185D01*
X117409522Y-8944421D01*
X117312788Y-8409000D01*
X111666000Y-8409000D01*
X111412000Y-8409000D01*
X111392000Y-8409000D01*
X111392000Y-8155000D01*
X111412000Y-8155000D01*
X111412000Y-8135000D01*
X111666000Y-8135000D01*
X111666000Y-8155000D01*
X117312788Y-8155000D01*
X117409522Y-7619579D01*
X117261126Y-7084815D01*
X116965655Y-6479213D01*
X116782182Y-6238000D01*
X119244286Y-6238000D01*
X119244286Y-18008000D01*
X135585715Y-18008000D01*
X135585715Y-8944421D01*
X168668478Y-8944421D01*
X168816874Y-9479185D01*
X169112345Y-10084787D01*
X169520286Y-10621109D01*
X170025020Y-11067540D01*
X170607150Y-11406925D01*
X171244305Y-11626221D01*
X171912000Y-11717000D01*
X174412000Y-11717000D01*
X174412000Y-8409000D01*
X168765212Y-8409000D01*
X168668478Y-8944421D01*
X135585715Y-8944421D01*
X135585715Y-6238000D01*
X119244286Y-6238000D01*
X116782182Y-6238000D01*
X116557714Y-5942891D01*
X116052980Y-5496460D01*
X115959568Y-5442000D01*
X170118432Y-5442000D01*
X170025020Y-5496460D01*
G37*
G04 #@! TD.AperFunction*
M02*
