G04 #@! TF.GenerationSoftware,KiCad,Pcbnew,(5.1.7)-1*
G04 #@! TF.CreationDate,2023-03-06T19:58:31+00:00*
G04 #@! TF.ProjectId,KOSMO-POLY6-JACKS,4b4f534d-4f2d-4504-9f4c-59362d4a4143,V0.1.0*
G04 #@! TF.SameCoordinates,Original*
G04 #@! TF.FileFunction,Legend,Bot*
G04 #@! TF.FilePolarity,Positive*
%FSLAX46Y46*%
G04 Gerber Fmt 4.6, Leading zero omitted, Abs format (unit mm)*
G04 Created by KiCad (PCBNEW (5.1.7)-1) date 2023-03-06 19:58:31*
%MOMM*%
%LPD*%
G01*
G04 APERTURE LIST*
%ADD10C,0.150000*%
G04 APERTURE END LIST*
D10*
X107729380Y-55729952D02*
X108443666Y-55729952D01*
X108586523Y-55682333D01*
X108681761Y-55587095D01*
X108729380Y-55444238D01*
X108729380Y-55349000D01*
X108729380Y-56682333D02*
X108729380Y-56206142D01*
X107729380Y-56206142D01*
X108634142Y-57587095D02*
X108681761Y-57539476D01*
X108729380Y-57396619D01*
X108729380Y-57301380D01*
X108681761Y-57158523D01*
X108586523Y-57063285D01*
X108491285Y-57015666D01*
X108300809Y-56968047D01*
X108157952Y-56968047D01*
X107967476Y-57015666D01*
X107872238Y-57063285D01*
X107777000Y-57158523D01*
X107729380Y-57301380D01*
X107729380Y-57396619D01*
X107777000Y-57539476D01*
X107824619Y-57587095D01*
X107729380Y-58301380D02*
X108443666Y-58301380D01*
X108586523Y-58253761D01*
X108681761Y-58158523D01*
X108729380Y-58015666D01*
X108729380Y-57920428D01*
X108729380Y-59253761D02*
X108729380Y-58777571D01*
X107729380Y-58777571D01*
X108634142Y-60158523D02*
X108681761Y-60110904D01*
X108729380Y-59968047D01*
X108729380Y-59872809D01*
X108681761Y-59729952D01*
X108586523Y-59634714D01*
X108491285Y-59587095D01*
X108300809Y-59539476D01*
X108157952Y-59539476D01*
X107967476Y-59587095D01*
X107872238Y-59634714D01*
X107777000Y-59729952D01*
X107729380Y-59872809D01*
X107729380Y-59968047D01*
X107777000Y-60110904D01*
X107824619Y-60158523D01*
X107729380Y-60872809D02*
X108443666Y-60872809D01*
X108586523Y-60825190D01*
X108681761Y-60729952D01*
X108729380Y-60587095D01*
X108729380Y-60491857D01*
X108729380Y-61825190D02*
X108729380Y-61349000D01*
X107729380Y-61349000D01*
X108634142Y-62729952D02*
X108681761Y-62682333D01*
X108729380Y-62539476D01*
X108729380Y-62444238D01*
X108681761Y-62301380D01*
X108586523Y-62206142D01*
X108491285Y-62158523D01*
X108300809Y-62110904D01*
X108157952Y-62110904D01*
X107967476Y-62158523D01*
X107872238Y-62206142D01*
X107777000Y-62301380D01*
X107729380Y-62444238D01*
X107729380Y-62539476D01*
X107777000Y-62682333D01*
X107824619Y-62729952D01*
X107729380Y-63444238D02*
X108443666Y-63444238D01*
X108586523Y-63396619D01*
X108681761Y-63301380D01*
X108729380Y-63158523D01*
X108729380Y-63063285D01*
X108729380Y-64396619D02*
X108729380Y-63920428D01*
X107729380Y-63920428D01*
X108634142Y-65301380D02*
X108681761Y-65253761D01*
X108729380Y-65110904D01*
X108729380Y-65015666D01*
X108681761Y-64872809D01*
X108586523Y-64777571D01*
X108491285Y-64729952D01*
X108300809Y-64682333D01*
X108157952Y-64682333D01*
X107967476Y-64729952D01*
X107872238Y-64777571D01*
X107777000Y-64872809D01*
X107729380Y-65015666D01*
X107729380Y-65110904D01*
X107777000Y-65253761D01*
X107824619Y-65301380D01*
M02*
