G04 #@! TF.GenerationSoftware,KiCad,Pcbnew,(5.1.7)-1*
G04 #@! TF.CreationDate,2023-03-06T19:58:32+00:00*
G04 #@! TF.ProjectId,KOSMO-POLY6-JACKS,4b4f534d-4f2d-4504-9f4c-59362d4a4143,V0.1.0*
G04 #@! TF.SameCoordinates,Original*
G04 #@! TF.FileFunction,Other,Fab,Top*
%FSLAX46Y46*%
G04 Gerber Fmt 4.6, Leading zero omitted, Abs format (unit mm)*
G04 Created by KiCad (PCBNEW (5.1.7)-1) date 2023-03-06 19:58:32*
%MOMM*%
%LPD*%
G01*
G04 APERTURE LIST*
%ADD10C,0.150000*%
G04 APERTURE END LIST*
D10*
X118053142Y-104827000D02*
G75*
G03*
X118053142Y-104827000I-14142J0D01*
G01*
X118621000Y-174387380D02*
X118621000Y-173387380D01*
X119097190Y-174387380D02*
X119097190Y-173387380D01*
X119668619Y-174387380D01*
X119668619Y-173387380D01*
X120097190Y-173482619D02*
X120144809Y-173435000D01*
X120240047Y-173387380D01*
X120478142Y-173387380D01*
X120573380Y-173435000D01*
X120621000Y-173482619D01*
X120668619Y-173577857D01*
X120668619Y-173673095D01*
X120621000Y-173815952D01*
X120049571Y-174387380D01*
X120668619Y-174387380D01*
X164621000Y-151387380D02*
X164621000Y-150387380D01*
X165097190Y-151387380D02*
X165097190Y-150387380D01*
X165668619Y-151387380D01*
X165668619Y-150387380D01*
X166097190Y-150482619D02*
X166144809Y-150435000D01*
X166240047Y-150387380D01*
X166478142Y-150387380D01*
X166573380Y-150435000D01*
X166621000Y-150482619D01*
X166668619Y-150577857D01*
X166668619Y-150673095D01*
X166621000Y-150815952D01*
X166049571Y-151387380D01*
X166668619Y-151387380D01*
X141621000Y-151387380D02*
X141621000Y-150387380D01*
X142097190Y-151387380D02*
X142097190Y-150387380D01*
X142668619Y-151387380D01*
X142668619Y-150387380D01*
X143097190Y-150482619D02*
X143144809Y-150435000D01*
X143240047Y-150387380D01*
X143478142Y-150387380D01*
X143573380Y-150435000D01*
X143621000Y-150482619D01*
X143668619Y-150577857D01*
X143668619Y-150673095D01*
X143621000Y-150815952D01*
X143049571Y-151387380D01*
X143668619Y-151387380D01*
X118621000Y-151387380D02*
X118621000Y-150387380D01*
X119097190Y-151387380D02*
X119097190Y-150387380D01*
X119668619Y-151387380D01*
X119668619Y-150387380D01*
X120097190Y-150482619D02*
X120144809Y-150435000D01*
X120240047Y-150387380D01*
X120478142Y-150387380D01*
X120573380Y-150435000D01*
X120621000Y-150482619D01*
X120668619Y-150577857D01*
X120668619Y-150673095D01*
X120621000Y-150815952D01*
X120049571Y-151387380D01*
X120668619Y-151387380D01*
X164621000Y-174387380D02*
X164621000Y-173387380D01*
X165097190Y-174387380D02*
X165097190Y-173387380D01*
X165668619Y-174387380D01*
X165668619Y-173387380D01*
X166097190Y-173482619D02*
X166144809Y-173435000D01*
X166240047Y-173387380D01*
X166478142Y-173387380D01*
X166573380Y-173435000D01*
X166621000Y-173482619D01*
X166668619Y-173577857D01*
X166668619Y-173673095D01*
X166621000Y-173815952D01*
X166049571Y-174387380D01*
X166668619Y-174387380D01*
X164621000Y-128387380D02*
X164621000Y-127387380D01*
X165097190Y-128387380D02*
X165097190Y-127387380D01*
X165668619Y-128387380D01*
X165668619Y-127387380D01*
X166097190Y-127482619D02*
X166144809Y-127435000D01*
X166240047Y-127387380D01*
X166478142Y-127387380D01*
X166573380Y-127435000D01*
X166621000Y-127482619D01*
X166668619Y-127577857D01*
X166668619Y-127673095D01*
X166621000Y-127815952D01*
X166049571Y-128387380D01*
X166668619Y-128387380D01*
X141621000Y-174387380D02*
X141621000Y-173387380D01*
X142097190Y-174387380D02*
X142097190Y-173387380D01*
X142668619Y-174387380D01*
X142668619Y-173387380D01*
X143097190Y-173482619D02*
X143144809Y-173435000D01*
X143240047Y-173387380D01*
X143478142Y-173387380D01*
X143573380Y-173435000D01*
X143621000Y-173482619D01*
X143668619Y-173577857D01*
X143668619Y-173673095D01*
X143621000Y-173815952D01*
X143049571Y-174387380D01*
X143668619Y-174387380D01*
X141621000Y-128387380D02*
X141621000Y-127387380D01*
X142097190Y-128387380D02*
X142097190Y-127387380D01*
X142668619Y-128387380D01*
X142668619Y-127387380D01*
X143097190Y-127482619D02*
X143144809Y-127435000D01*
X143240047Y-127387380D01*
X143478142Y-127387380D01*
X143573380Y-127435000D01*
X143621000Y-127482619D01*
X143668619Y-127577857D01*
X143668619Y-127673095D01*
X143621000Y-127815952D01*
X143049571Y-128387380D01*
X143668619Y-128387380D01*
X118621000Y-128387380D02*
X118621000Y-127387380D01*
X119097190Y-128387380D02*
X119097190Y-127387380D01*
X119668619Y-128387380D01*
X119668619Y-127387380D01*
X120097190Y-127482619D02*
X120144809Y-127435000D01*
X120240047Y-127387380D01*
X120478142Y-127387380D01*
X120573380Y-127435000D01*
X120621000Y-127482619D01*
X120668619Y-127577857D01*
X120668619Y-127673095D01*
X120621000Y-127815952D01*
X120049571Y-128387380D01*
X120668619Y-128387380D01*
X118621000Y-105387380D02*
X118621000Y-104387380D01*
X119097190Y-105387380D02*
X119097190Y-104387380D01*
X119668619Y-105387380D01*
X119668619Y-104387380D01*
X120097190Y-104482619D02*
X120144809Y-104435000D01*
X120240047Y-104387380D01*
X120478142Y-104387380D01*
X120573380Y-104435000D01*
X120621000Y-104482619D01*
X120668619Y-104577857D01*
X120668619Y-104673095D01*
X120621000Y-104815952D01*
X120049571Y-105387380D01*
X120668619Y-105387380D01*
X164621000Y-105387380D02*
X164621000Y-104387380D01*
X165097190Y-105387380D02*
X165097190Y-104387380D01*
X165668619Y-105387380D01*
X165668619Y-104387380D01*
X166097190Y-104482619D02*
X166144809Y-104435000D01*
X166240047Y-104387380D01*
X166478142Y-104387380D01*
X166573380Y-104435000D01*
X166621000Y-104482619D01*
X166668619Y-104577857D01*
X166668619Y-104673095D01*
X166621000Y-104815952D01*
X166049571Y-105387380D01*
X166668619Y-105387380D01*
X141621000Y-105387380D02*
X141621000Y-104387380D01*
X142097190Y-105387380D02*
X142097190Y-104387380D01*
X142668619Y-105387380D01*
X142668619Y-104387380D01*
X143097190Y-104482619D02*
X143144809Y-104435000D01*
X143240047Y-104387380D01*
X143478142Y-104387380D01*
X143573380Y-104435000D01*
X143621000Y-104482619D01*
X143668619Y-104577857D01*
X143668619Y-104673095D01*
X143621000Y-104815952D01*
X143049571Y-105387380D01*
X143668619Y-105387380D01*
X164621000Y-82387380D02*
X164621000Y-81387380D01*
X165097190Y-82387380D02*
X165097190Y-81387380D01*
X165668619Y-82387380D01*
X165668619Y-81387380D01*
X166097190Y-81482619D02*
X166144809Y-81435000D01*
X166240047Y-81387380D01*
X166478142Y-81387380D01*
X166573380Y-81435000D01*
X166621000Y-81482619D01*
X166668619Y-81577857D01*
X166668619Y-81673095D01*
X166621000Y-81815952D01*
X166049571Y-82387380D01*
X166668619Y-82387380D01*
X141621000Y-82387380D02*
X141621000Y-81387380D01*
X142097190Y-82387380D02*
X142097190Y-81387380D01*
X142668619Y-82387380D01*
X142668619Y-81387380D01*
X143097190Y-81482619D02*
X143144809Y-81435000D01*
X143240047Y-81387380D01*
X143478142Y-81387380D01*
X143573380Y-81435000D01*
X143621000Y-81482619D01*
X143668619Y-81577857D01*
X143668619Y-81673095D01*
X143621000Y-81815952D01*
X143049571Y-82387380D01*
X143668619Y-82387380D01*
X118621000Y-82387380D02*
X118621000Y-81387380D01*
X119097190Y-82387380D02*
X119097190Y-81387380D01*
X119668619Y-82387380D01*
X119668619Y-81387380D01*
X120097190Y-81482619D02*
X120144809Y-81435000D01*
X120240047Y-81387380D01*
X120478142Y-81387380D01*
X120573380Y-81435000D01*
X120621000Y-81482619D01*
X120668619Y-81577857D01*
X120668619Y-81673095D01*
X120621000Y-81815952D01*
X120049571Y-82387380D01*
X120668619Y-82387380D01*
X164621000Y-59387380D02*
X164621000Y-58387380D01*
X165097190Y-59387380D02*
X165097190Y-58387380D01*
X165668619Y-59387380D01*
X165668619Y-58387380D01*
X166097190Y-58482619D02*
X166144809Y-58435000D01*
X166240047Y-58387380D01*
X166478142Y-58387380D01*
X166573380Y-58435000D01*
X166621000Y-58482619D01*
X166668619Y-58577857D01*
X166668619Y-58673095D01*
X166621000Y-58815952D01*
X166049571Y-59387380D01*
X166668619Y-59387380D01*
X141621000Y-59387380D02*
X141621000Y-58387380D01*
X142097190Y-59387380D02*
X142097190Y-58387380D01*
X142668619Y-59387380D01*
X142668619Y-58387380D01*
X143097190Y-58482619D02*
X143144809Y-58435000D01*
X143240047Y-58387380D01*
X143478142Y-58387380D01*
X143573380Y-58435000D01*
X143621000Y-58482619D01*
X143668619Y-58577857D01*
X143668619Y-58673095D01*
X143621000Y-58815952D01*
X143049571Y-59387380D01*
X143668619Y-59387380D01*
X118621000Y-59387380D02*
X118621000Y-58387380D01*
X119097190Y-59387380D02*
X119097190Y-58387380D01*
X119668619Y-59387380D01*
X119668619Y-58387380D01*
X120097190Y-58482619D02*
X120144809Y-58435000D01*
X120240047Y-58387380D01*
X120478142Y-58387380D01*
X120573380Y-58435000D01*
X120621000Y-58482619D01*
X120668619Y-58577857D01*
X120668619Y-58673095D01*
X120621000Y-58815952D01*
X120049571Y-59387380D01*
X120668619Y-59387380D01*
X195080571Y-191598380D02*
X195080571Y-190598380D01*
X195413904Y-191312666D01*
X195747238Y-190598380D01*
X195747238Y-191598380D01*
X196366285Y-191598380D02*
X196271047Y-191550761D01*
X196223428Y-191503142D01*
X196175809Y-191407904D01*
X196175809Y-191122190D01*
X196223428Y-191026952D01*
X196271047Y-190979333D01*
X196366285Y-190931714D01*
X196509142Y-190931714D01*
X196604380Y-190979333D01*
X196652000Y-191026952D01*
X196699619Y-191122190D01*
X196699619Y-191407904D01*
X196652000Y-191503142D01*
X196604380Y-191550761D01*
X196509142Y-191598380D01*
X196366285Y-191598380D01*
X197556761Y-190931714D02*
X197556761Y-191598380D01*
X197128190Y-190931714D02*
X197128190Y-191455523D01*
X197175809Y-191550761D01*
X197271047Y-191598380D01*
X197413904Y-191598380D01*
X197509142Y-191550761D01*
X197556761Y-191503142D01*
X198032952Y-190931714D02*
X198032952Y-191598380D01*
X198032952Y-191026952D02*
X198080571Y-190979333D01*
X198175809Y-190931714D01*
X198318666Y-190931714D01*
X198413904Y-190979333D01*
X198461523Y-191074571D01*
X198461523Y-191598380D01*
X198794857Y-190931714D02*
X199175809Y-190931714D01*
X198937714Y-190598380D02*
X198937714Y-191455523D01*
X198985333Y-191550761D01*
X199080571Y-191598380D01*
X199175809Y-191598380D01*
X199509142Y-191598380D02*
X199509142Y-190931714D01*
X199509142Y-190598380D02*
X199461523Y-190646000D01*
X199509142Y-190693619D01*
X199556761Y-190646000D01*
X199509142Y-190598380D01*
X199509142Y-190693619D01*
X199985333Y-190931714D02*
X199985333Y-191598380D01*
X199985333Y-191026952D02*
X200032952Y-190979333D01*
X200128190Y-190931714D01*
X200271047Y-190931714D01*
X200366285Y-190979333D01*
X200413904Y-191074571D01*
X200413904Y-191598380D01*
X201318666Y-190931714D02*
X201318666Y-191741238D01*
X201271047Y-191836476D01*
X201223428Y-191884095D01*
X201128190Y-191931714D01*
X200985333Y-191931714D01*
X200890095Y-191884095D01*
X201318666Y-191550761D02*
X201223428Y-191598380D01*
X201032952Y-191598380D01*
X200937714Y-191550761D01*
X200890095Y-191503142D01*
X200842476Y-191407904D01*
X200842476Y-191122190D01*
X200890095Y-191026952D01*
X200937714Y-190979333D01*
X201032952Y-190931714D01*
X201223428Y-190931714D01*
X201318666Y-190979333D01*
X201794857Y-191598380D02*
X201794857Y-190598380D01*
X201794857Y-191074571D02*
X202366285Y-191074571D01*
X202366285Y-191598380D02*
X202366285Y-190598380D01*
X202985333Y-191598380D02*
X202890095Y-191550761D01*
X202842476Y-191503142D01*
X202794857Y-191407904D01*
X202794857Y-191122190D01*
X202842476Y-191026952D01*
X202890095Y-190979333D01*
X202985333Y-190931714D01*
X203128190Y-190931714D01*
X203223428Y-190979333D01*
X203271047Y-191026952D01*
X203318666Y-191122190D01*
X203318666Y-191407904D01*
X203271047Y-191503142D01*
X203223428Y-191550761D01*
X203128190Y-191598380D01*
X202985333Y-191598380D01*
X203890095Y-191598380D02*
X203794857Y-191550761D01*
X203747238Y-191455523D01*
X203747238Y-190598380D01*
X204652000Y-191550761D02*
X204556761Y-191598380D01*
X204366285Y-191598380D01*
X204271047Y-191550761D01*
X204223428Y-191455523D01*
X204223428Y-191074571D01*
X204271047Y-190979333D01*
X204366285Y-190931714D01*
X204556761Y-190931714D01*
X204652000Y-190979333D01*
X204699619Y-191074571D01*
X204699619Y-191169809D01*
X204223428Y-191265047D01*
X204890095Y-191693619D02*
X205652000Y-191693619D01*
X205890095Y-191598380D02*
X205890095Y-190598380D01*
X206271047Y-190598380D01*
X206366285Y-190646000D01*
X206413904Y-190693619D01*
X206461523Y-190788857D01*
X206461523Y-190931714D01*
X206413904Y-191026952D01*
X206366285Y-191074571D01*
X206271047Y-191122190D01*
X205890095Y-191122190D01*
X207318666Y-191598380D02*
X207318666Y-191074571D01*
X207271047Y-190979333D01*
X207175809Y-190931714D01*
X206985333Y-190931714D01*
X206890095Y-190979333D01*
X207318666Y-191550761D02*
X207223428Y-191598380D01*
X206985333Y-191598380D01*
X206890095Y-191550761D01*
X206842476Y-191455523D01*
X206842476Y-191360285D01*
X206890095Y-191265047D01*
X206985333Y-191217428D01*
X207223428Y-191217428D01*
X207318666Y-191169809D01*
X208223428Y-191598380D02*
X208223428Y-190598380D01*
X208223428Y-191550761D02*
X208128190Y-191598380D01*
X207937714Y-191598380D01*
X207842476Y-191550761D01*
X207794857Y-191503142D01*
X207747238Y-191407904D01*
X207747238Y-191122190D01*
X207794857Y-191026952D01*
X207842476Y-190979333D01*
X207937714Y-190931714D01*
X208128190Y-190931714D01*
X208223428Y-190979333D01*
X174077095Y-201734380D02*
X174077095Y-200734380D01*
X174077095Y-201210571D02*
X174648523Y-201210571D01*
X174648523Y-201734380D02*
X174648523Y-200734380D01*
X175648523Y-201734380D02*
X175077095Y-201734380D01*
X175362809Y-201734380D02*
X175362809Y-200734380D01*
X175267571Y-200877238D01*
X175172333Y-200972476D01*
X175077095Y-201020095D01*
X88775571Y-199752380D02*
X88775571Y-198752380D01*
X89108904Y-199466666D01*
X89442238Y-198752380D01*
X89442238Y-199752380D01*
X90061285Y-199752380D02*
X89966047Y-199704761D01*
X89918428Y-199657142D01*
X89870809Y-199561904D01*
X89870809Y-199276190D01*
X89918428Y-199180952D01*
X89966047Y-199133333D01*
X90061285Y-199085714D01*
X90204142Y-199085714D01*
X90299380Y-199133333D01*
X90347000Y-199180952D01*
X90394619Y-199276190D01*
X90394619Y-199561904D01*
X90347000Y-199657142D01*
X90299380Y-199704761D01*
X90204142Y-199752380D01*
X90061285Y-199752380D01*
X91251761Y-199085714D02*
X91251761Y-199752380D01*
X90823190Y-199085714D02*
X90823190Y-199609523D01*
X90870809Y-199704761D01*
X90966047Y-199752380D01*
X91108904Y-199752380D01*
X91204142Y-199704761D01*
X91251761Y-199657142D01*
X91727952Y-199085714D02*
X91727952Y-199752380D01*
X91727952Y-199180952D02*
X91775571Y-199133333D01*
X91870809Y-199085714D01*
X92013666Y-199085714D01*
X92108904Y-199133333D01*
X92156523Y-199228571D01*
X92156523Y-199752380D01*
X92489857Y-199085714D02*
X92870809Y-199085714D01*
X92632714Y-198752380D02*
X92632714Y-199609523D01*
X92680333Y-199704761D01*
X92775571Y-199752380D01*
X92870809Y-199752380D01*
X93204142Y-199752380D02*
X93204142Y-199085714D01*
X93204142Y-198752380D02*
X93156523Y-198800000D01*
X93204142Y-198847619D01*
X93251761Y-198800000D01*
X93204142Y-198752380D01*
X93204142Y-198847619D01*
X93680333Y-199085714D02*
X93680333Y-199752380D01*
X93680333Y-199180952D02*
X93727952Y-199133333D01*
X93823190Y-199085714D01*
X93966047Y-199085714D01*
X94061285Y-199133333D01*
X94108904Y-199228571D01*
X94108904Y-199752380D01*
X95013666Y-199085714D02*
X95013666Y-199895238D01*
X94966047Y-199990476D01*
X94918428Y-200038095D01*
X94823190Y-200085714D01*
X94680333Y-200085714D01*
X94585095Y-200038095D01*
X95013666Y-199704761D02*
X94918428Y-199752380D01*
X94727952Y-199752380D01*
X94632714Y-199704761D01*
X94585095Y-199657142D01*
X94537476Y-199561904D01*
X94537476Y-199276190D01*
X94585095Y-199180952D01*
X94632714Y-199133333D01*
X94727952Y-199085714D01*
X94918428Y-199085714D01*
X95013666Y-199133333D01*
X95489857Y-199752380D02*
X95489857Y-198752380D01*
X95489857Y-199228571D02*
X96061285Y-199228571D01*
X96061285Y-199752380D02*
X96061285Y-198752380D01*
X96680333Y-199752380D02*
X96585095Y-199704761D01*
X96537476Y-199657142D01*
X96489857Y-199561904D01*
X96489857Y-199276190D01*
X96537476Y-199180952D01*
X96585095Y-199133333D01*
X96680333Y-199085714D01*
X96823190Y-199085714D01*
X96918428Y-199133333D01*
X96966047Y-199180952D01*
X97013666Y-199276190D01*
X97013666Y-199561904D01*
X96966047Y-199657142D01*
X96918428Y-199704761D01*
X96823190Y-199752380D01*
X96680333Y-199752380D01*
X97585095Y-199752380D02*
X97489857Y-199704761D01*
X97442238Y-199609523D01*
X97442238Y-198752380D01*
X98347000Y-199704761D02*
X98251761Y-199752380D01*
X98061285Y-199752380D01*
X97966047Y-199704761D01*
X97918428Y-199609523D01*
X97918428Y-199228571D01*
X97966047Y-199133333D01*
X98061285Y-199085714D01*
X98251761Y-199085714D01*
X98347000Y-199133333D01*
X98394619Y-199228571D01*
X98394619Y-199323809D01*
X97918428Y-199419047D01*
X98585095Y-199847619D02*
X99347000Y-199847619D01*
X99585095Y-199752380D02*
X99585095Y-198752380D01*
X99966047Y-198752380D01*
X100061285Y-198800000D01*
X100108904Y-198847619D01*
X100156523Y-198942857D01*
X100156523Y-199085714D01*
X100108904Y-199180952D01*
X100061285Y-199228571D01*
X99966047Y-199276190D01*
X99585095Y-199276190D01*
X101013666Y-199752380D02*
X101013666Y-199228571D01*
X100966047Y-199133333D01*
X100870809Y-199085714D01*
X100680333Y-199085714D01*
X100585095Y-199133333D01*
X101013666Y-199704761D02*
X100918428Y-199752380D01*
X100680333Y-199752380D01*
X100585095Y-199704761D01*
X100537476Y-199609523D01*
X100537476Y-199514285D01*
X100585095Y-199419047D01*
X100680333Y-199371428D01*
X100918428Y-199371428D01*
X101013666Y-199323809D01*
X101918428Y-199752380D02*
X101918428Y-198752380D01*
X101918428Y-199704761D02*
X101823190Y-199752380D01*
X101632714Y-199752380D01*
X101537476Y-199704761D01*
X101489857Y-199657142D01*
X101442238Y-199561904D01*
X101442238Y-199276190D01*
X101489857Y-199180952D01*
X101537476Y-199133333D01*
X101632714Y-199085714D01*
X101823190Y-199085714D01*
X101918428Y-199133333D01*
X111077095Y-201734380D02*
X111077095Y-200734380D01*
X111077095Y-201210571D02*
X111648523Y-201210571D01*
X111648523Y-201734380D02*
X111648523Y-200734380D01*
X112648523Y-201734380D02*
X112077095Y-201734380D01*
X112362809Y-201734380D02*
X112362809Y-200734380D01*
X112267571Y-200877238D01*
X112172333Y-200972476D01*
X112077095Y-201020095D01*
X88775571Y-6752380D02*
X88775571Y-5752380D01*
X89108904Y-6466666D01*
X89442238Y-5752380D01*
X89442238Y-6752380D01*
X90061285Y-6752380D02*
X89966047Y-6704761D01*
X89918428Y-6657142D01*
X89870809Y-6561904D01*
X89870809Y-6276190D01*
X89918428Y-6180952D01*
X89966047Y-6133333D01*
X90061285Y-6085714D01*
X90204142Y-6085714D01*
X90299380Y-6133333D01*
X90347000Y-6180952D01*
X90394619Y-6276190D01*
X90394619Y-6561904D01*
X90347000Y-6657142D01*
X90299380Y-6704761D01*
X90204142Y-6752380D01*
X90061285Y-6752380D01*
X91251761Y-6085714D02*
X91251761Y-6752380D01*
X90823190Y-6085714D02*
X90823190Y-6609523D01*
X90870809Y-6704761D01*
X90966047Y-6752380D01*
X91108904Y-6752380D01*
X91204142Y-6704761D01*
X91251761Y-6657142D01*
X91727952Y-6085714D02*
X91727952Y-6752380D01*
X91727952Y-6180952D02*
X91775571Y-6133333D01*
X91870809Y-6085714D01*
X92013666Y-6085714D01*
X92108904Y-6133333D01*
X92156523Y-6228571D01*
X92156523Y-6752380D01*
X92489857Y-6085714D02*
X92870809Y-6085714D01*
X92632714Y-5752380D02*
X92632714Y-6609523D01*
X92680333Y-6704761D01*
X92775571Y-6752380D01*
X92870809Y-6752380D01*
X93204142Y-6752380D02*
X93204142Y-6085714D01*
X93204142Y-5752380D02*
X93156523Y-5800000D01*
X93204142Y-5847619D01*
X93251761Y-5800000D01*
X93204142Y-5752380D01*
X93204142Y-5847619D01*
X93680333Y-6085714D02*
X93680333Y-6752380D01*
X93680333Y-6180952D02*
X93727952Y-6133333D01*
X93823190Y-6085714D01*
X93966047Y-6085714D01*
X94061285Y-6133333D01*
X94108904Y-6228571D01*
X94108904Y-6752380D01*
X95013666Y-6085714D02*
X95013666Y-6895238D01*
X94966047Y-6990476D01*
X94918428Y-7038095D01*
X94823190Y-7085714D01*
X94680333Y-7085714D01*
X94585095Y-7038095D01*
X95013666Y-6704761D02*
X94918428Y-6752380D01*
X94727952Y-6752380D01*
X94632714Y-6704761D01*
X94585095Y-6657142D01*
X94537476Y-6561904D01*
X94537476Y-6276190D01*
X94585095Y-6180952D01*
X94632714Y-6133333D01*
X94727952Y-6085714D01*
X94918428Y-6085714D01*
X95013666Y-6133333D01*
X95489857Y-6752380D02*
X95489857Y-5752380D01*
X95489857Y-6228571D02*
X96061285Y-6228571D01*
X96061285Y-6752380D02*
X96061285Y-5752380D01*
X96680333Y-6752380D02*
X96585095Y-6704761D01*
X96537476Y-6657142D01*
X96489857Y-6561904D01*
X96489857Y-6276190D01*
X96537476Y-6180952D01*
X96585095Y-6133333D01*
X96680333Y-6085714D01*
X96823190Y-6085714D01*
X96918428Y-6133333D01*
X96966047Y-6180952D01*
X97013666Y-6276190D01*
X97013666Y-6561904D01*
X96966047Y-6657142D01*
X96918428Y-6704761D01*
X96823190Y-6752380D01*
X96680333Y-6752380D01*
X97585095Y-6752380D02*
X97489857Y-6704761D01*
X97442238Y-6609523D01*
X97442238Y-5752380D01*
X98347000Y-6704761D02*
X98251761Y-6752380D01*
X98061285Y-6752380D01*
X97966047Y-6704761D01*
X97918428Y-6609523D01*
X97918428Y-6228571D01*
X97966047Y-6133333D01*
X98061285Y-6085714D01*
X98251761Y-6085714D01*
X98347000Y-6133333D01*
X98394619Y-6228571D01*
X98394619Y-6323809D01*
X97918428Y-6419047D01*
X98585095Y-6847619D02*
X99347000Y-6847619D01*
X99585095Y-6752380D02*
X99585095Y-5752380D01*
X99966047Y-5752380D01*
X100061285Y-5800000D01*
X100108904Y-5847619D01*
X100156523Y-5942857D01*
X100156523Y-6085714D01*
X100108904Y-6180952D01*
X100061285Y-6228571D01*
X99966047Y-6276190D01*
X99585095Y-6276190D01*
X101013666Y-6752380D02*
X101013666Y-6228571D01*
X100966047Y-6133333D01*
X100870809Y-6085714D01*
X100680333Y-6085714D01*
X100585095Y-6133333D01*
X101013666Y-6704761D02*
X100918428Y-6752380D01*
X100680333Y-6752380D01*
X100585095Y-6704761D01*
X100537476Y-6609523D01*
X100537476Y-6514285D01*
X100585095Y-6419047D01*
X100680333Y-6371428D01*
X100918428Y-6371428D01*
X101013666Y-6323809D01*
X101918428Y-6752380D02*
X101918428Y-5752380D01*
X101918428Y-6704761D02*
X101823190Y-6752380D01*
X101632714Y-6752380D01*
X101537476Y-6704761D01*
X101489857Y-6657142D01*
X101442238Y-6561904D01*
X101442238Y-6276190D01*
X101489857Y-6180952D01*
X101537476Y-6133333D01*
X101632714Y-6085714D01*
X101823190Y-6085714D01*
X101918428Y-6133333D01*
X111077095Y-8734380D02*
X111077095Y-7734380D01*
X111077095Y-8210571D02*
X111648523Y-8210571D01*
X111648523Y-8734380D02*
X111648523Y-7734380D01*
X112648523Y-8734380D02*
X112077095Y-8734380D01*
X112362809Y-8734380D02*
X112362809Y-7734380D01*
X112267571Y-7877238D01*
X112172333Y-7972476D01*
X112077095Y-8020095D01*
X151775571Y-6752380D02*
X151775571Y-5752380D01*
X152108904Y-6466666D01*
X152442238Y-5752380D01*
X152442238Y-6752380D01*
X153061285Y-6752380D02*
X152966047Y-6704761D01*
X152918428Y-6657142D01*
X152870809Y-6561904D01*
X152870809Y-6276190D01*
X152918428Y-6180952D01*
X152966047Y-6133333D01*
X153061285Y-6085714D01*
X153204142Y-6085714D01*
X153299380Y-6133333D01*
X153347000Y-6180952D01*
X153394619Y-6276190D01*
X153394619Y-6561904D01*
X153347000Y-6657142D01*
X153299380Y-6704761D01*
X153204142Y-6752380D01*
X153061285Y-6752380D01*
X154251761Y-6085714D02*
X154251761Y-6752380D01*
X153823190Y-6085714D02*
X153823190Y-6609523D01*
X153870809Y-6704761D01*
X153966047Y-6752380D01*
X154108904Y-6752380D01*
X154204142Y-6704761D01*
X154251761Y-6657142D01*
X154727952Y-6085714D02*
X154727952Y-6752380D01*
X154727952Y-6180952D02*
X154775571Y-6133333D01*
X154870809Y-6085714D01*
X155013666Y-6085714D01*
X155108904Y-6133333D01*
X155156523Y-6228571D01*
X155156523Y-6752380D01*
X155489857Y-6085714D02*
X155870809Y-6085714D01*
X155632714Y-5752380D02*
X155632714Y-6609523D01*
X155680333Y-6704761D01*
X155775571Y-6752380D01*
X155870809Y-6752380D01*
X156204142Y-6752380D02*
X156204142Y-6085714D01*
X156204142Y-5752380D02*
X156156523Y-5800000D01*
X156204142Y-5847619D01*
X156251761Y-5800000D01*
X156204142Y-5752380D01*
X156204142Y-5847619D01*
X156680333Y-6085714D02*
X156680333Y-6752380D01*
X156680333Y-6180952D02*
X156727952Y-6133333D01*
X156823190Y-6085714D01*
X156966047Y-6085714D01*
X157061285Y-6133333D01*
X157108904Y-6228571D01*
X157108904Y-6752380D01*
X158013666Y-6085714D02*
X158013666Y-6895238D01*
X157966047Y-6990476D01*
X157918428Y-7038095D01*
X157823190Y-7085714D01*
X157680333Y-7085714D01*
X157585095Y-7038095D01*
X158013666Y-6704761D02*
X157918428Y-6752380D01*
X157727952Y-6752380D01*
X157632714Y-6704761D01*
X157585095Y-6657142D01*
X157537476Y-6561904D01*
X157537476Y-6276190D01*
X157585095Y-6180952D01*
X157632714Y-6133333D01*
X157727952Y-6085714D01*
X157918428Y-6085714D01*
X158013666Y-6133333D01*
X158489857Y-6752380D02*
X158489857Y-5752380D01*
X158489857Y-6228571D02*
X159061285Y-6228571D01*
X159061285Y-6752380D02*
X159061285Y-5752380D01*
X159680333Y-6752380D02*
X159585095Y-6704761D01*
X159537476Y-6657142D01*
X159489857Y-6561904D01*
X159489857Y-6276190D01*
X159537476Y-6180952D01*
X159585095Y-6133333D01*
X159680333Y-6085714D01*
X159823190Y-6085714D01*
X159918428Y-6133333D01*
X159966047Y-6180952D01*
X160013666Y-6276190D01*
X160013666Y-6561904D01*
X159966047Y-6657142D01*
X159918428Y-6704761D01*
X159823190Y-6752380D01*
X159680333Y-6752380D01*
X160585095Y-6752380D02*
X160489857Y-6704761D01*
X160442238Y-6609523D01*
X160442238Y-5752380D01*
X161347000Y-6704761D02*
X161251761Y-6752380D01*
X161061285Y-6752380D01*
X160966047Y-6704761D01*
X160918428Y-6609523D01*
X160918428Y-6228571D01*
X160966047Y-6133333D01*
X161061285Y-6085714D01*
X161251761Y-6085714D01*
X161347000Y-6133333D01*
X161394619Y-6228571D01*
X161394619Y-6323809D01*
X160918428Y-6419047D01*
X161585095Y-6847619D02*
X162347000Y-6847619D01*
X162585095Y-6752380D02*
X162585095Y-5752380D01*
X162966047Y-5752380D01*
X163061285Y-5800000D01*
X163108904Y-5847619D01*
X163156523Y-5942857D01*
X163156523Y-6085714D01*
X163108904Y-6180952D01*
X163061285Y-6228571D01*
X162966047Y-6276190D01*
X162585095Y-6276190D01*
X164013666Y-6752380D02*
X164013666Y-6228571D01*
X163966047Y-6133333D01*
X163870809Y-6085714D01*
X163680333Y-6085714D01*
X163585095Y-6133333D01*
X164013666Y-6704761D02*
X163918428Y-6752380D01*
X163680333Y-6752380D01*
X163585095Y-6704761D01*
X163537476Y-6609523D01*
X163537476Y-6514285D01*
X163585095Y-6419047D01*
X163680333Y-6371428D01*
X163918428Y-6371428D01*
X164013666Y-6323809D01*
X164918428Y-6752380D02*
X164918428Y-5752380D01*
X164918428Y-6704761D02*
X164823190Y-6752380D01*
X164632714Y-6752380D01*
X164537476Y-6704761D01*
X164489857Y-6657142D01*
X164442238Y-6561904D01*
X164442238Y-6276190D01*
X164489857Y-6180952D01*
X164537476Y-6133333D01*
X164632714Y-6085714D01*
X164823190Y-6085714D01*
X164918428Y-6133333D01*
X174077095Y-8734380D02*
X174077095Y-7734380D01*
X174077095Y-8210571D02*
X174648523Y-8210571D01*
X174648523Y-8734380D02*
X174648523Y-7734380D01*
X175648523Y-8734380D02*
X175077095Y-8734380D01*
X175362809Y-8734380D02*
X175362809Y-7734380D01*
X175267571Y-7877238D01*
X175172333Y-7972476D01*
X175077095Y-8020095D01*
M02*
