G04 #@! TF.GenerationSoftware,KiCad,Pcbnew,(5.1.7)-1*
G04 #@! TF.CreationDate,2023-03-06T19:58:32+00:00*
G04 #@! TF.ProjectId,KOSMO-POLY6-JACKS,4b4f534d-4f2d-4504-9f4c-59362d4a4143,V0.1.0*
G04 #@! TF.SameCoordinates,Original*
G04 #@! TF.FileFunction,OtherDrawing,Comment*
%FSLAX46Y46*%
G04 Gerber Fmt 4.6, Leading zero omitted, Abs format (unit mm)*
G04 Created by KiCad (PCBNEW (5.1.7)-1) date 2023-03-06 19:58:32*
%MOMM*%
%LPD*%
G01*
G04 APERTURE LIST*
%ADD10C,0.120000*%
G04 APERTURE END LIST*
D10*
X127749000Y-181301000D02*
X112001000Y-181301000D01*
X112001000Y-181301000D02*
X112001000Y-168601000D01*
X112001000Y-168601000D02*
X112001000Y-167585000D01*
X112001000Y-167585000D02*
X114541000Y-165553000D01*
X114541000Y-165553000D02*
X127749000Y-165553000D01*
X127749000Y-165553000D02*
X127749000Y-181301000D01*
X173749000Y-142553000D02*
X173749000Y-158301000D01*
X160541000Y-142553000D02*
X173749000Y-142553000D01*
X158001000Y-144585000D02*
X160541000Y-142553000D01*
X158001000Y-145601000D02*
X158001000Y-144585000D01*
X158001000Y-158301000D02*
X158001000Y-145601000D01*
X173749000Y-158301000D02*
X158001000Y-158301000D01*
X150749000Y-142553000D02*
X150749000Y-158301000D01*
X137541000Y-142553000D02*
X150749000Y-142553000D01*
X135001000Y-144585000D02*
X137541000Y-142553000D01*
X135001000Y-145601000D02*
X135001000Y-144585000D01*
X135001000Y-158301000D02*
X135001000Y-145601000D01*
X150749000Y-158301000D02*
X135001000Y-158301000D01*
X127749000Y-158301000D02*
X112001000Y-158301000D01*
X112001000Y-158301000D02*
X112001000Y-145601000D01*
X112001000Y-145601000D02*
X112001000Y-144585000D01*
X112001000Y-144585000D02*
X114541000Y-142553000D01*
X114541000Y-142553000D02*
X127749000Y-142553000D01*
X127749000Y-142553000D02*
X127749000Y-158301000D01*
X173749000Y-165553000D02*
X173749000Y-181301000D01*
X160541000Y-165553000D02*
X173749000Y-165553000D01*
X158001000Y-167585000D02*
X160541000Y-165553000D01*
X158001000Y-168601000D02*
X158001000Y-167585000D01*
X158001000Y-181301000D02*
X158001000Y-168601000D01*
X173749000Y-181301000D02*
X158001000Y-181301000D01*
X173749000Y-135301000D02*
X158001000Y-135301000D01*
X158001000Y-135301000D02*
X158001000Y-122601000D01*
X158001000Y-122601000D02*
X158001000Y-121585000D01*
X158001000Y-121585000D02*
X160541000Y-119553000D01*
X160541000Y-119553000D02*
X173749000Y-119553000D01*
X173749000Y-119553000D02*
X173749000Y-135301000D01*
X150749000Y-181301000D02*
X135001000Y-181301000D01*
X135001000Y-181301000D02*
X135001000Y-168601000D01*
X135001000Y-168601000D02*
X135001000Y-167585000D01*
X135001000Y-167585000D02*
X137541000Y-165553000D01*
X137541000Y-165553000D02*
X150749000Y-165553000D01*
X150749000Y-165553000D02*
X150749000Y-181301000D01*
X150749000Y-119553000D02*
X150749000Y-135301000D01*
X137541000Y-119553000D02*
X150749000Y-119553000D01*
X135001000Y-121585000D02*
X137541000Y-119553000D01*
X135001000Y-122601000D02*
X135001000Y-121585000D01*
X135001000Y-135301000D02*
X135001000Y-122601000D01*
X150749000Y-135301000D02*
X135001000Y-135301000D01*
X127749000Y-135301000D02*
X112001000Y-135301000D01*
X112001000Y-135301000D02*
X112001000Y-122601000D01*
X112001000Y-122601000D02*
X112001000Y-121585000D01*
X112001000Y-121585000D02*
X114541000Y-119553000D01*
X114541000Y-119553000D02*
X127749000Y-119553000D01*
X127749000Y-119553000D02*
X127749000Y-135301000D01*
X127749000Y-96553000D02*
X127749000Y-112301000D01*
X114541000Y-96553000D02*
X127749000Y-96553000D01*
X112001000Y-98585000D02*
X114541000Y-96553000D01*
X112001000Y-99601000D02*
X112001000Y-98585000D01*
X112001000Y-112301000D02*
X112001000Y-99601000D01*
X127749000Y-112301000D02*
X112001000Y-112301000D01*
X173749000Y-96553000D02*
X173749000Y-112301000D01*
X160541000Y-96553000D02*
X173749000Y-96553000D01*
X158001000Y-98585000D02*
X160541000Y-96553000D01*
X158001000Y-99601000D02*
X158001000Y-98585000D01*
X158001000Y-112301000D02*
X158001000Y-99601000D01*
X173749000Y-112301000D02*
X158001000Y-112301000D01*
X150749000Y-112301000D02*
X135001000Y-112301000D01*
X135001000Y-112301000D02*
X135001000Y-99601000D01*
X135001000Y-99601000D02*
X135001000Y-98585000D01*
X135001000Y-98585000D02*
X137541000Y-96553000D01*
X137541000Y-96553000D02*
X150749000Y-96553000D01*
X150749000Y-96553000D02*
X150749000Y-112301000D01*
X173749000Y-73553000D02*
X173749000Y-89301000D01*
X160541000Y-73553000D02*
X173749000Y-73553000D01*
X158001000Y-75585000D02*
X160541000Y-73553000D01*
X158001000Y-76601000D02*
X158001000Y-75585000D01*
X158001000Y-89301000D02*
X158001000Y-76601000D01*
X173749000Y-89301000D02*
X158001000Y-89301000D01*
X150749000Y-89301000D02*
X135001000Y-89301000D01*
X135001000Y-89301000D02*
X135001000Y-76601000D01*
X135001000Y-76601000D02*
X135001000Y-75585000D01*
X135001000Y-75585000D02*
X137541000Y-73553000D01*
X137541000Y-73553000D02*
X150749000Y-73553000D01*
X150749000Y-73553000D02*
X150749000Y-89301000D01*
X127749000Y-73553000D02*
X127749000Y-89301000D01*
X114541000Y-73553000D02*
X127749000Y-73553000D01*
X112001000Y-75585000D02*
X114541000Y-73553000D01*
X112001000Y-76601000D02*
X112001000Y-75585000D01*
X112001000Y-89301000D02*
X112001000Y-76601000D01*
X127749000Y-89301000D02*
X112001000Y-89301000D01*
X173749000Y-66301000D02*
X158001000Y-66301000D01*
X158001000Y-66301000D02*
X158001000Y-53601000D01*
X158001000Y-53601000D02*
X158001000Y-52585000D01*
X158001000Y-52585000D02*
X160541000Y-50553000D01*
X160541000Y-50553000D02*
X173749000Y-50553000D01*
X173749000Y-50553000D02*
X173749000Y-66301000D01*
X150749000Y-50553000D02*
X150749000Y-66301000D01*
X137541000Y-50553000D02*
X150749000Y-50553000D01*
X135001000Y-52585000D02*
X137541000Y-50553000D01*
X135001000Y-53601000D02*
X135001000Y-52585000D01*
X135001000Y-66301000D02*
X135001000Y-53601000D01*
X150749000Y-66301000D02*
X135001000Y-66301000D01*
X127749000Y-66301000D02*
X112001000Y-66301000D01*
X112001000Y-66301000D02*
X112001000Y-53601000D01*
X112001000Y-53601000D02*
X112001000Y-52585000D01*
X112001000Y-52585000D02*
X114541000Y-50553000D01*
X114541000Y-50553000D02*
X127749000Y-50553000D01*
X127749000Y-50553000D02*
X127749000Y-66301000D01*
M02*
