G04 #@! TF.GenerationSoftware,KiCad,Pcbnew,(5.1.7)-1*
G04 #@! TF.CreationDate,2023-03-06T19:58:30+00:00*
G04 #@! TF.ProjectId,KOSMO-POLY6-JACKS,4b4f534d-4f2d-4504-9f4c-59362d4a4143,V0.1.0*
G04 #@! TF.SameCoordinates,Original*
G04 #@! TF.FileFunction,Legend,Top*
G04 #@! TF.FilePolarity,Positive*
%FSLAX46Y46*%
G04 Gerber Fmt 4.6, Leading zero omitted, Abs format (unit mm)*
G04 Created by KiCad (PCBNEW (5.1.7)-1) date 2023-03-06 19:58:30*
%MOMM*%
%LPD*%
G01*
G04 APERTURE LIST*
%ADD10C,0.300000*%
%ADD11C,1.500000*%
%ADD12C,1.000000*%
G04 APERTURE END LIST*
D10*
X149011000Y-43635857D02*
X149225285Y-43707285D01*
X149296714Y-43778714D01*
X149368142Y-43921571D01*
X149368142Y-44135857D01*
X149296714Y-44278714D01*
X149225285Y-44350142D01*
X149082428Y-44421571D01*
X148511000Y-44421571D01*
X148511000Y-42921571D01*
X149011000Y-42921571D01*
X149153857Y-42993000D01*
X149225285Y-43064428D01*
X149296714Y-43207285D01*
X149296714Y-43350142D01*
X149225285Y-43493000D01*
X149153857Y-43564428D01*
X149011000Y-43635857D01*
X148511000Y-43635857D01*
X149868142Y-43421571D02*
X150225285Y-44421571D01*
X150582428Y-43421571D02*
X150225285Y-44421571D01*
X150082428Y-44778714D01*
X150011000Y-44850142D01*
X149868142Y-44921571D01*
X152082428Y-42921571D02*
X152939571Y-42921571D01*
X152511000Y-44421571D02*
X152511000Y-42921571D01*
X153296714Y-43421571D02*
X153582428Y-44421571D01*
X153868142Y-43707285D01*
X154153857Y-44421571D01*
X154439571Y-43421571D01*
X155011000Y-44421571D02*
X155011000Y-43421571D01*
X155011000Y-42921571D02*
X154939571Y-42993000D01*
X155011000Y-43064428D01*
X155082428Y-42993000D01*
X155011000Y-42921571D01*
X155011000Y-43064428D01*
X155725285Y-43421571D02*
X155725285Y-44421571D01*
X155725285Y-43564428D02*
X155796714Y-43493000D01*
X155939571Y-43421571D01*
X156153857Y-43421571D01*
X156296714Y-43493000D01*
X156368142Y-43635857D01*
X156368142Y-44421571D01*
X156868142Y-42921571D02*
X157725285Y-42921571D01*
X157296714Y-44421571D02*
X157296714Y-42921571D01*
X158868142Y-43421571D02*
X158868142Y-44421571D01*
X158225285Y-43421571D02*
X158225285Y-44207285D01*
X158296714Y-44350142D01*
X158439571Y-44421571D01*
X158653857Y-44421571D01*
X158796714Y-44350142D01*
X158868142Y-44278714D01*
X159582428Y-44421571D02*
X159582428Y-43421571D01*
X159582428Y-43707285D02*
X159653857Y-43564428D01*
X159725285Y-43493000D01*
X159868142Y-43421571D01*
X160011000Y-43421571D01*
X160511000Y-44421571D02*
X160511000Y-42921571D01*
X160511000Y-43493000D02*
X160653857Y-43421571D01*
X160939571Y-43421571D01*
X161082428Y-43493000D01*
X161153857Y-43564428D01*
X161225285Y-43707285D01*
X161225285Y-44135857D01*
X161153857Y-44278714D01*
X161082428Y-44350142D01*
X160939571Y-44421571D01*
X160653857Y-44421571D01*
X160511000Y-44350142D01*
X162082428Y-44421571D02*
X161939571Y-44350142D01*
X161868142Y-44278714D01*
X161796714Y-44135857D01*
X161796714Y-43707285D01*
X161868142Y-43564428D01*
X161939571Y-43493000D01*
X162082428Y-43421571D01*
X162296714Y-43421571D01*
X162439571Y-43493000D01*
X162511000Y-43564428D01*
X162582428Y-43707285D01*
X162582428Y-44135857D01*
X162511000Y-44278714D01*
X162439571Y-44350142D01*
X162296714Y-44421571D01*
X162082428Y-44421571D01*
X116083714Y-186286571D02*
X116369428Y-186286571D01*
X116512285Y-186358000D01*
X116655142Y-186500857D01*
X116726571Y-186786571D01*
X116726571Y-187286571D01*
X116655142Y-187572285D01*
X116512285Y-187715142D01*
X116369428Y-187786571D01*
X116083714Y-187786571D01*
X115940857Y-187715142D01*
X115797999Y-187572285D01*
X115726571Y-187286571D01*
X115726571Y-186786571D01*
X115797999Y-186500857D01*
X115940857Y-186358000D01*
X116083714Y-186286571D01*
X117369428Y-186286571D02*
X117369428Y-187500857D01*
X117440857Y-187643714D01*
X117512285Y-187715142D01*
X117655142Y-187786571D01*
X117940857Y-187786571D01*
X118083714Y-187715142D01*
X118155142Y-187643714D01*
X118226571Y-187500857D01*
X118226571Y-186286571D01*
X118726571Y-186286571D02*
X119583714Y-186286571D01*
X119155142Y-187786571D02*
X119155142Y-186286571D01*
X120083714Y-187786571D02*
X120083714Y-186286571D01*
X120655142Y-186286571D01*
X120797999Y-186358000D01*
X120869428Y-186429428D01*
X120940857Y-186572285D01*
X120940857Y-186786571D01*
X120869428Y-186929428D01*
X120797999Y-187000857D01*
X120655142Y-187072285D01*
X120083714Y-187072285D01*
X121583714Y-186286571D02*
X121583714Y-187500857D01*
X121655142Y-187643714D01*
X121726571Y-187715142D01*
X121869428Y-187786571D01*
X122155142Y-187786571D01*
X122297999Y-187715142D01*
X122369428Y-187643714D01*
X122440857Y-187500857D01*
X122440857Y-186286571D01*
X122940857Y-186286571D02*
X123797999Y-186286571D01*
X123369428Y-187786571D02*
X123369428Y-186286571D01*
X124226571Y-187715142D02*
X124440857Y-187786571D01*
X124797999Y-187786571D01*
X124940857Y-187715142D01*
X125012285Y-187643714D01*
X125083714Y-187500857D01*
X125083714Y-187358000D01*
X125012285Y-187215142D01*
X124940857Y-187143714D01*
X124797999Y-187072285D01*
X124512285Y-187000857D01*
X124369428Y-186929428D01*
X124297999Y-186858000D01*
X124226571Y-186715142D01*
X124226571Y-186572285D01*
X124297999Y-186429428D01*
X124369428Y-186358000D01*
X124512285Y-186286571D01*
X124869428Y-186286571D01*
X125083714Y-186358000D01*
X126797999Y-187358000D02*
X127512285Y-187358000D01*
X126655142Y-187786571D02*
X127155142Y-186286571D01*
X127655142Y-187786571D01*
X129012285Y-187786571D02*
X128512285Y-187072285D01*
X128155142Y-187786571D02*
X128155142Y-186286571D01*
X128726571Y-186286571D01*
X128869428Y-186358000D01*
X128940857Y-186429428D01*
X129012285Y-186572285D01*
X129012285Y-186786571D01*
X128940857Y-186929428D01*
X128869428Y-187000857D01*
X128726571Y-187072285D01*
X128155142Y-187072285D01*
X129655142Y-187000857D02*
X130155142Y-187000857D01*
X130369428Y-187786571D02*
X129655142Y-187786571D01*
X129655142Y-186286571D01*
X130369428Y-186286571D01*
X132155142Y-187786571D02*
X132155142Y-186286571D01*
X133012285Y-187786571D01*
X133012285Y-186286571D01*
X134012285Y-186286571D02*
X134298000Y-186286571D01*
X134440857Y-186358000D01*
X134583714Y-186500857D01*
X134655142Y-186786571D01*
X134655142Y-187286571D01*
X134583714Y-187572285D01*
X134440857Y-187715142D01*
X134298000Y-187786571D01*
X134012285Y-187786571D01*
X133869428Y-187715142D01*
X133726571Y-187572285D01*
X133655142Y-187286571D01*
X133655142Y-186786571D01*
X133726571Y-186500857D01*
X133869428Y-186358000D01*
X134012285Y-186286571D01*
X136155142Y-187786571D02*
X135655142Y-187072285D01*
X135298000Y-187786571D02*
X135298000Y-186286571D01*
X135869428Y-186286571D01*
X136012285Y-186358000D01*
X136083714Y-186429428D01*
X136155142Y-186572285D01*
X136155142Y-186786571D01*
X136083714Y-186929428D01*
X136012285Y-187000857D01*
X135869428Y-187072285D01*
X135298000Y-187072285D01*
X136798000Y-187786571D02*
X136798000Y-186286571D01*
X137298000Y-187358000D01*
X137798000Y-186286571D01*
X137798000Y-187786571D01*
X138440857Y-187358000D02*
X139155142Y-187358000D01*
X138298000Y-187786571D02*
X138798000Y-186286571D01*
X139298000Y-187786571D01*
X140512285Y-187786571D02*
X139798000Y-187786571D01*
X139798000Y-186286571D01*
X141940857Y-186286571D02*
X142798000Y-186286571D01*
X142369428Y-187786571D02*
X142369428Y-186286571D01*
X143298000Y-187786571D02*
X143298000Y-186286571D01*
X143298000Y-187000857D02*
X144155142Y-187000857D01*
X144155142Y-187786571D02*
X144155142Y-186286571D01*
X145726571Y-187786571D02*
X145226571Y-187072285D01*
X144869428Y-187786571D02*
X144869428Y-186286571D01*
X145440857Y-186286571D01*
X145583714Y-186358000D01*
X145655142Y-186429428D01*
X145726571Y-186572285D01*
X145726571Y-186786571D01*
X145655142Y-186929428D01*
X145583714Y-187000857D01*
X145440857Y-187072285D01*
X144869428Y-187072285D01*
X146655142Y-186286571D02*
X146940857Y-186286571D01*
X147083714Y-186358000D01*
X147226571Y-186500857D01*
X147298000Y-186786571D01*
X147298000Y-187286571D01*
X147226571Y-187572285D01*
X147083714Y-187715142D01*
X146940857Y-187786571D01*
X146655142Y-187786571D01*
X146512285Y-187715142D01*
X146369428Y-187572285D01*
X146298000Y-187286571D01*
X146298000Y-186786571D01*
X146369428Y-186500857D01*
X146512285Y-186358000D01*
X146655142Y-186286571D01*
X147940857Y-186286571D02*
X147940857Y-187500857D01*
X148012285Y-187643714D01*
X148083714Y-187715142D01*
X148226571Y-187786571D01*
X148512285Y-187786571D01*
X148655142Y-187715142D01*
X148726571Y-187643714D01*
X148797999Y-187500857D01*
X148797999Y-186286571D01*
X150298000Y-186358000D02*
X150155142Y-186286571D01*
X149940857Y-186286571D01*
X149726571Y-186358000D01*
X149583714Y-186500857D01*
X149512285Y-186643714D01*
X149440857Y-186929428D01*
X149440857Y-187143714D01*
X149512285Y-187429428D01*
X149583714Y-187572285D01*
X149726571Y-187715142D01*
X149940857Y-187786571D01*
X150083714Y-187786571D01*
X150298000Y-187715142D01*
X150369428Y-187643714D01*
X150369428Y-187143714D01*
X150083714Y-187143714D01*
X151012285Y-187786571D02*
X151012285Y-186286571D01*
X151012285Y-187000857D02*
X151869428Y-187000857D01*
X151869428Y-187786571D02*
X151869428Y-186286571D01*
X153583714Y-186286571D02*
X153940857Y-187786571D01*
X154226571Y-186715142D01*
X154512285Y-187786571D01*
X154869428Y-186286571D01*
X155440857Y-187786571D02*
X155440857Y-186286571D01*
X155440857Y-187000857D02*
X156298000Y-187000857D01*
X156298000Y-187786571D02*
X156298000Y-186286571D01*
X157012285Y-187000857D02*
X157512285Y-187000857D01*
X157726571Y-187786571D02*
X157012285Y-187786571D01*
X157012285Y-186286571D01*
X157726571Y-186286571D01*
X158369428Y-187786571D02*
X158369428Y-186286571D01*
X159226571Y-187786571D01*
X159226571Y-186286571D01*
X161083714Y-186286571D02*
X161083714Y-187500857D01*
X161155142Y-187643714D01*
X161226571Y-187715142D01*
X161369428Y-187786571D01*
X161655142Y-187786571D01*
X161798000Y-187715142D01*
X161869428Y-187643714D01*
X161940857Y-187500857D01*
X161940857Y-186286571D01*
X162655142Y-187786571D02*
X162655142Y-186286571D01*
X163512285Y-187786571D01*
X163512285Y-186286571D01*
X164655142Y-186286571D02*
X164655142Y-187358000D01*
X164583714Y-187572285D01*
X164440857Y-187715142D01*
X164226571Y-187786571D01*
X164083714Y-187786571D01*
X165298000Y-187358000D02*
X166012285Y-187358000D01*
X165155142Y-187786571D02*
X165655142Y-186286571D01*
X166155142Y-187786571D01*
X167512285Y-187643714D02*
X167440857Y-187715142D01*
X167226571Y-187786571D01*
X167083714Y-187786571D01*
X166869428Y-187715142D01*
X166726571Y-187572285D01*
X166655142Y-187429428D01*
X166583714Y-187143714D01*
X166583714Y-186929428D01*
X166655142Y-186643714D01*
X166726571Y-186500857D01*
X166869428Y-186358000D01*
X167083714Y-186286571D01*
X167226571Y-186286571D01*
X167440857Y-186358000D01*
X167512285Y-186429428D01*
X168155142Y-187786571D02*
X168155142Y-186286571D01*
X169012285Y-187786571D02*
X168369428Y-186929428D01*
X169012285Y-186286571D02*
X168155142Y-187143714D01*
X169655142Y-187000857D02*
X170155142Y-187000857D01*
X170369428Y-187786571D02*
X169655142Y-187786571D01*
X169655142Y-186286571D01*
X170369428Y-186286571D01*
X171012285Y-187786571D02*
X171012285Y-186286571D01*
X171369428Y-186286571D01*
X171583714Y-186358000D01*
X171726571Y-186500857D01*
X171798000Y-186643714D01*
X171869428Y-186929428D01*
X171869428Y-187143714D01*
X171798000Y-187429428D01*
X171726571Y-187572285D01*
X171583714Y-187715142D01*
X171369428Y-187786571D01*
X171012285Y-187786571D01*
D11*
X103426000Y-185106000D02*
X183626000Y-185106000D01*
X103076000Y-164578000D02*
X183276000Y-164578000D01*
X103659000Y-141446000D02*
X183859000Y-141446000D01*
X104696000Y-118559000D02*
X184896000Y-118559000D01*
X104210000Y-95527000D02*
X184410000Y-95527000D01*
X103703000Y-72349000D02*
X183903000Y-72349000D01*
D10*
X112499714Y-68224571D02*
X112499714Y-66724571D01*
X113071142Y-66724571D01*
X113214000Y-66796000D01*
X113285428Y-66867428D01*
X113356857Y-67010285D01*
X113356857Y-67224571D01*
X113285428Y-67367428D01*
X113214000Y-67438857D01*
X113071142Y-67510285D01*
X112499714Y-67510285D01*
X113999714Y-66724571D02*
X113999714Y-67938857D01*
X114071142Y-68081714D01*
X114142571Y-68153142D01*
X114285428Y-68224571D01*
X114571142Y-68224571D01*
X114714000Y-68153142D01*
X114785428Y-68081714D01*
X114856857Y-67938857D01*
X114856857Y-66724571D01*
X116285428Y-68224571D02*
X115571142Y-68224571D01*
X115571142Y-66724571D01*
X116714000Y-68153142D02*
X116928285Y-68224571D01*
X117285428Y-68224571D01*
X117428285Y-68153142D01*
X117499714Y-68081714D01*
X117571142Y-67938857D01*
X117571142Y-67796000D01*
X117499714Y-67653142D01*
X117428285Y-67581714D01*
X117285428Y-67510285D01*
X116999714Y-67438857D01*
X116856857Y-67367428D01*
X116785428Y-67296000D01*
X116714000Y-67153142D01*
X116714000Y-67010285D01*
X116785428Y-66867428D01*
X116856857Y-66796000D01*
X116999714Y-66724571D01*
X117356857Y-66724571D01*
X117571142Y-66796000D01*
X118214000Y-67438857D02*
X118714000Y-67438857D01*
X118928285Y-68224571D02*
X118214000Y-68224571D01*
X118214000Y-66724571D01*
X118928285Y-66724571D01*
X120999714Y-66724571D02*
X121285428Y-66724571D01*
X121428285Y-66796000D01*
X121571142Y-66938857D01*
X121642571Y-67224571D01*
X121642571Y-67724571D01*
X121571142Y-68010285D01*
X121428285Y-68153142D01*
X121285428Y-68224571D01*
X120999714Y-68224571D01*
X120856857Y-68153142D01*
X120714000Y-68010285D01*
X120642571Y-67724571D01*
X120642571Y-67224571D01*
X120714000Y-66938857D01*
X120856857Y-66796000D01*
X120999714Y-66724571D01*
X122285428Y-66724571D02*
X122285428Y-67938857D01*
X122356857Y-68081714D01*
X122428285Y-68153142D01*
X122571142Y-68224571D01*
X122856857Y-68224571D01*
X122999714Y-68153142D01*
X123071142Y-68081714D01*
X123142571Y-67938857D01*
X123142571Y-66724571D01*
X123642571Y-66724571D02*
X124499714Y-66724571D01*
X124071142Y-68224571D02*
X124071142Y-66724571D01*
X126428285Y-66724571D02*
X126571142Y-66724571D01*
X126714000Y-66796000D01*
X126785428Y-66867428D01*
X126856857Y-67010285D01*
X126928285Y-67296000D01*
X126928285Y-67653142D01*
X126856857Y-67938857D01*
X126785428Y-68081714D01*
X126714000Y-68153142D01*
X126571142Y-68224571D01*
X126428285Y-68224571D01*
X126285428Y-68153142D01*
X126214000Y-68081714D01*
X126142571Y-67938857D01*
X126071142Y-67653142D01*
X126071142Y-67296000D01*
X126142571Y-67010285D01*
X126214000Y-66867428D01*
X126285428Y-66796000D01*
X126428285Y-66724571D01*
X137571142Y-68224571D02*
X137071142Y-67510285D01*
X136714000Y-68224571D02*
X136714000Y-66724571D01*
X137285428Y-66724571D01*
X137428285Y-66796000D01*
X137499714Y-66867428D01*
X137571142Y-67010285D01*
X137571142Y-67224571D01*
X137499714Y-67367428D01*
X137428285Y-67438857D01*
X137285428Y-67510285D01*
X136714000Y-67510285D01*
X138142571Y-67796000D02*
X138856857Y-67796000D01*
X137999714Y-68224571D02*
X138499714Y-66724571D01*
X138999714Y-68224571D01*
X139499714Y-68224571D02*
X139499714Y-66724571D01*
X139999714Y-67796000D01*
X140499714Y-66724571D01*
X140499714Y-68224571D01*
X141214000Y-68224571D02*
X141214000Y-66724571D01*
X141785428Y-66724571D01*
X141928285Y-66796000D01*
X141999714Y-66867428D01*
X142071142Y-67010285D01*
X142071142Y-67224571D01*
X141999714Y-67367428D01*
X141928285Y-67438857D01*
X141785428Y-67510285D01*
X141214000Y-67510285D01*
X144142571Y-66724571D02*
X144428285Y-66724571D01*
X144571142Y-66796000D01*
X144714000Y-66938857D01*
X144785428Y-67224571D01*
X144785428Y-67724571D01*
X144714000Y-68010285D01*
X144571142Y-68153142D01*
X144428285Y-68224571D01*
X144142571Y-68224571D01*
X143999714Y-68153142D01*
X143856857Y-68010285D01*
X143785428Y-67724571D01*
X143785428Y-67224571D01*
X143856857Y-66938857D01*
X143999714Y-66796000D01*
X144142571Y-66724571D01*
X145428285Y-66724571D02*
X145428285Y-67938857D01*
X145499714Y-68081714D01*
X145571142Y-68153142D01*
X145714000Y-68224571D01*
X145999714Y-68224571D01*
X146142571Y-68153142D01*
X146214000Y-68081714D01*
X146285428Y-67938857D01*
X146285428Y-66724571D01*
X146785428Y-66724571D02*
X147642571Y-66724571D01*
X147214000Y-68224571D02*
X147214000Y-66724571D01*
X149571142Y-66724571D02*
X149714000Y-66724571D01*
X149856857Y-66796000D01*
X149928285Y-66867428D01*
X149999714Y-67010285D01*
X150071142Y-67296000D01*
X150071142Y-67653142D01*
X149999714Y-67938857D01*
X149928285Y-68081714D01*
X149856857Y-68153142D01*
X149714000Y-68224571D01*
X149571142Y-68224571D01*
X149428285Y-68153142D01*
X149356857Y-68081714D01*
X149285428Y-67938857D01*
X149214000Y-67653142D01*
X149214000Y-67296000D01*
X149285428Y-67010285D01*
X149356857Y-66867428D01*
X149428285Y-66796000D01*
X149571142Y-66724571D01*
X160642571Y-66796000D02*
X160499714Y-66724571D01*
X160285428Y-66724571D01*
X160071142Y-66796000D01*
X159928285Y-66938857D01*
X159856857Y-67081714D01*
X159785428Y-67367428D01*
X159785428Y-67581714D01*
X159856857Y-67867428D01*
X159928285Y-68010285D01*
X160071142Y-68153142D01*
X160285428Y-68224571D01*
X160428285Y-68224571D01*
X160642571Y-68153142D01*
X160714000Y-68081714D01*
X160714000Y-67581714D01*
X160428285Y-67581714D01*
X161285428Y-67796000D02*
X161999714Y-67796000D01*
X161142571Y-68224571D02*
X161642571Y-66724571D01*
X162142571Y-68224571D01*
X162428285Y-66724571D02*
X163285428Y-66724571D01*
X162856857Y-68224571D02*
X162856857Y-66724571D01*
X163785428Y-67438857D02*
X164285428Y-67438857D01*
X164499714Y-68224571D02*
X163785428Y-68224571D01*
X163785428Y-66724571D01*
X164499714Y-66724571D01*
X166571142Y-66724571D02*
X166856857Y-66724571D01*
X166999714Y-66796000D01*
X167142571Y-66938857D01*
X167213999Y-67224571D01*
X167213999Y-67724571D01*
X167142571Y-68010285D01*
X166999714Y-68153142D01*
X166856857Y-68224571D01*
X166571142Y-68224571D01*
X166428285Y-68153142D01*
X166285428Y-68010285D01*
X166213999Y-67724571D01*
X166213999Y-67224571D01*
X166285428Y-66938857D01*
X166428285Y-66796000D01*
X166571142Y-66724571D01*
X167856857Y-66724571D02*
X167856857Y-67938857D01*
X167928285Y-68081714D01*
X167999714Y-68153142D01*
X168142571Y-68224571D01*
X168428285Y-68224571D01*
X168571142Y-68153142D01*
X168642571Y-68081714D01*
X168714000Y-67938857D01*
X168714000Y-66724571D01*
X169214000Y-66724571D02*
X170071142Y-66724571D01*
X169642571Y-68224571D02*
X169642571Y-66724571D01*
X171999714Y-66724571D02*
X172142571Y-66724571D01*
X172285428Y-66796000D01*
X172356857Y-66867428D01*
X172428285Y-67010285D01*
X172499714Y-67296000D01*
X172499714Y-67653142D01*
X172428285Y-67938857D01*
X172356857Y-68081714D01*
X172285428Y-68153142D01*
X172142571Y-68224571D01*
X171999714Y-68224571D01*
X171856857Y-68153142D01*
X171785428Y-68081714D01*
X171714000Y-67938857D01*
X171642571Y-67653142D01*
X171642571Y-67296000D01*
X171714000Y-67010285D01*
X171785428Y-66867428D01*
X171856857Y-66796000D01*
X171999714Y-66724571D01*
X112365714Y-91472571D02*
X112365714Y-89972571D01*
X112937142Y-89972571D01*
X113080000Y-90044000D01*
X113151428Y-90115428D01*
X113222857Y-90258285D01*
X113222857Y-90472571D01*
X113151428Y-90615428D01*
X113080000Y-90686857D01*
X112937142Y-90758285D01*
X112365714Y-90758285D01*
X113865714Y-89972571D02*
X113865714Y-91186857D01*
X113937142Y-91329714D01*
X114008571Y-91401142D01*
X114151428Y-91472571D01*
X114437142Y-91472571D01*
X114580000Y-91401142D01*
X114651428Y-91329714D01*
X114722857Y-91186857D01*
X114722857Y-89972571D01*
X116151428Y-91472571D02*
X115437142Y-91472571D01*
X115437142Y-89972571D01*
X116580000Y-91401142D02*
X116794285Y-91472571D01*
X117151428Y-91472571D01*
X117294285Y-91401142D01*
X117365714Y-91329714D01*
X117437142Y-91186857D01*
X117437142Y-91044000D01*
X117365714Y-90901142D01*
X117294285Y-90829714D01*
X117151428Y-90758285D01*
X116865714Y-90686857D01*
X116722857Y-90615428D01*
X116651428Y-90544000D01*
X116580000Y-90401142D01*
X116580000Y-90258285D01*
X116651428Y-90115428D01*
X116722857Y-90044000D01*
X116865714Y-89972571D01*
X117222857Y-89972571D01*
X117437142Y-90044000D01*
X118080000Y-90686857D02*
X118580000Y-90686857D01*
X118794285Y-91472571D02*
X118080000Y-91472571D01*
X118080000Y-89972571D01*
X118794285Y-89972571D01*
X120865714Y-89972571D02*
X121151428Y-89972571D01*
X121294285Y-90044000D01*
X121437142Y-90186857D01*
X121508571Y-90472571D01*
X121508571Y-90972571D01*
X121437142Y-91258285D01*
X121294285Y-91401142D01*
X121151428Y-91472571D01*
X120865714Y-91472571D01*
X120722857Y-91401142D01*
X120580000Y-91258285D01*
X120508571Y-90972571D01*
X120508571Y-90472571D01*
X120580000Y-90186857D01*
X120722857Y-90044000D01*
X120865714Y-89972571D01*
X122151428Y-89972571D02*
X122151428Y-91186857D01*
X122222857Y-91329714D01*
X122294285Y-91401142D01*
X122437142Y-91472571D01*
X122722857Y-91472571D01*
X122865714Y-91401142D01*
X122937142Y-91329714D01*
X123008571Y-91186857D01*
X123008571Y-89972571D01*
X123508571Y-89972571D02*
X124365714Y-89972571D01*
X123937142Y-91472571D02*
X123937142Y-89972571D01*
X126794285Y-91472571D02*
X125937142Y-91472571D01*
X126365714Y-91472571D02*
X126365714Y-89972571D01*
X126222857Y-90186857D01*
X126080000Y-90329714D01*
X125937142Y-90401142D01*
X137437142Y-91472571D02*
X136937142Y-90758285D01*
X136580000Y-91472571D02*
X136580000Y-89972571D01*
X137151428Y-89972571D01*
X137294285Y-90044000D01*
X137365714Y-90115428D01*
X137437142Y-90258285D01*
X137437142Y-90472571D01*
X137365714Y-90615428D01*
X137294285Y-90686857D01*
X137151428Y-90758285D01*
X136580000Y-90758285D01*
X138008571Y-91044000D02*
X138722857Y-91044000D01*
X137865714Y-91472571D02*
X138365714Y-89972571D01*
X138865714Y-91472571D01*
X139365714Y-91472571D02*
X139365714Y-89972571D01*
X139865714Y-91044000D01*
X140365714Y-89972571D01*
X140365714Y-91472571D01*
X141080000Y-91472571D02*
X141080000Y-89972571D01*
X141651428Y-89972571D01*
X141794285Y-90044000D01*
X141865714Y-90115428D01*
X141937142Y-90258285D01*
X141937142Y-90472571D01*
X141865714Y-90615428D01*
X141794285Y-90686857D01*
X141651428Y-90758285D01*
X141080000Y-90758285D01*
X144008571Y-89972571D02*
X144294285Y-89972571D01*
X144437142Y-90044000D01*
X144580000Y-90186857D01*
X144651428Y-90472571D01*
X144651428Y-90972571D01*
X144580000Y-91258285D01*
X144437142Y-91401142D01*
X144294285Y-91472571D01*
X144008571Y-91472571D01*
X143865714Y-91401142D01*
X143722857Y-91258285D01*
X143651428Y-90972571D01*
X143651428Y-90472571D01*
X143722857Y-90186857D01*
X143865714Y-90044000D01*
X144008571Y-89972571D01*
X145294285Y-89972571D02*
X145294285Y-91186857D01*
X145365714Y-91329714D01*
X145437142Y-91401142D01*
X145580000Y-91472571D01*
X145865714Y-91472571D01*
X146008571Y-91401142D01*
X146080000Y-91329714D01*
X146151428Y-91186857D01*
X146151428Y-89972571D01*
X146651428Y-89972571D02*
X147508571Y-89972571D01*
X147080000Y-91472571D02*
X147080000Y-89972571D01*
X149937142Y-91472571D02*
X149080000Y-91472571D01*
X149508571Y-91472571D02*
X149508571Y-89972571D01*
X149365714Y-90186857D01*
X149222857Y-90329714D01*
X149080000Y-90401142D01*
X160508571Y-90044000D02*
X160365714Y-89972571D01*
X160151428Y-89972571D01*
X159937142Y-90044000D01*
X159794285Y-90186857D01*
X159722857Y-90329714D01*
X159651428Y-90615428D01*
X159651428Y-90829714D01*
X159722857Y-91115428D01*
X159794285Y-91258285D01*
X159937142Y-91401142D01*
X160151428Y-91472571D01*
X160294285Y-91472571D01*
X160508571Y-91401142D01*
X160580000Y-91329714D01*
X160580000Y-90829714D01*
X160294285Y-90829714D01*
X161151428Y-91044000D02*
X161865714Y-91044000D01*
X161008571Y-91472571D02*
X161508571Y-89972571D01*
X162008571Y-91472571D01*
X162294285Y-89972571D02*
X163151428Y-89972571D01*
X162722857Y-91472571D02*
X162722857Y-89972571D01*
X163651428Y-90686857D02*
X164151428Y-90686857D01*
X164365714Y-91472571D02*
X163651428Y-91472571D01*
X163651428Y-89972571D01*
X164365714Y-89972571D01*
X166437142Y-89972571D02*
X166722857Y-89972571D01*
X166865714Y-90044000D01*
X167008571Y-90186857D01*
X167079999Y-90472571D01*
X167079999Y-90972571D01*
X167008571Y-91258285D01*
X166865714Y-91401142D01*
X166722857Y-91472571D01*
X166437142Y-91472571D01*
X166294285Y-91401142D01*
X166151428Y-91258285D01*
X166079999Y-90972571D01*
X166079999Y-90472571D01*
X166151428Y-90186857D01*
X166294285Y-90044000D01*
X166437142Y-89972571D01*
X167722857Y-89972571D02*
X167722857Y-91186857D01*
X167794285Y-91329714D01*
X167865714Y-91401142D01*
X168008571Y-91472571D01*
X168294285Y-91472571D01*
X168437142Y-91401142D01*
X168508571Y-91329714D01*
X168580000Y-91186857D01*
X168580000Y-89972571D01*
X169080000Y-89972571D02*
X169937142Y-89972571D01*
X169508571Y-91472571D02*
X169508571Y-89972571D01*
X172365714Y-91472571D02*
X171508571Y-91472571D01*
X171937142Y-91472571D02*
X171937142Y-89972571D01*
X171794285Y-90186857D01*
X171651428Y-90329714D01*
X171508571Y-90401142D01*
X112321714Y-114616571D02*
X112321714Y-113116571D01*
X112893142Y-113116571D01*
X113036000Y-113188000D01*
X113107428Y-113259428D01*
X113178857Y-113402285D01*
X113178857Y-113616571D01*
X113107428Y-113759428D01*
X113036000Y-113830857D01*
X112893142Y-113902285D01*
X112321714Y-113902285D01*
X113821714Y-113116571D02*
X113821714Y-114330857D01*
X113893142Y-114473714D01*
X113964571Y-114545142D01*
X114107428Y-114616571D01*
X114393142Y-114616571D01*
X114536000Y-114545142D01*
X114607428Y-114473714D01*
X114678857Y-114330857D01*
X114678857Y-113116571D01*
X116107428Y-114616571D02*
X115393142Y-114616571D01*
X115393142Y-113116571D01*
X116536000Y-114545142D02*
X116750285Y-114616571D01*
X117107428Y-114616571D01*
X117250285Y-114545142D01*
X117321714Y-114473714D01*
X117393142Y-114330857D01*
X117393142Y-114188000D01*
X117321714Y-114045142D01*
X117250285Y-113973714D01*
X117107428Y-113902285D01*
X116821714Y-113830857D01*
X116678857Y-113759428D01*
X116607428Y-113688000D01*
X116536000Y-113545142D01*
X116536000Y-113402285D01*
X116607428Y-113259428D01*
X116678857Y-113188000D01*
X116821714Y-113116571D01*
X117178857Y-113116571D01*
X117393142Y-113188000D01*
X118036000Y-113830857D02*
X118536000Y-113830857D01*
X118750285Y-114616571D02*
X118036000Y-114616571D01*
X118036000Y-113116571D01*
X118750285Y-113116571D01*
X120821714Y-113116571D02*
X121107428Y-113116571D01*
X121250285Y-113188000D01*
X121393142Y-113330857D01*
X121464571Y-113616571D01*
X121464571Y-114116571D01*
X121393142Y-114402285D01*
X121250285Y-114545142D01*
X121107428Y-114616571D01*
X120821714Y-114616571D01*
X120678857Y-114545142D01*
X120536000Y-114402285D01*
X120464571Y-114116571D01*
X120464571Y-113616571D01*
X120536000Y-113330857D01*
X120678857Y-113188000D01*
X120821714Y-113116571D01*
X122107428Y-113116571D02*
X122107428Y-114330857D01*
X122178857Y-114473714D01*
X122250285Y-114545142D01*
X122393142Y-114616571D01*
X122678857Y-114616571D01*
X122821714Y-114545142D01*
X122893142Y-114473714D01*
X122964571Y-114330857D01*
X122964571Y-113116571D01*
X123464571Y-113116571D02*
X124321714Y-113116571D01*
X123893142Y-114616571D02*
X123893142Y-113116571D01*
X125893142Y-113259428D02*
X125964571Y-113188000D01*
X126107428Y-113116571D01*
X126464571Y-113116571D01*
X126607428Y-113188000D01*
X126678857Y-113259428D01*
X126750285Y-113402285D01*
X126750285Y-113545142D01*
X126678857Y-113759428D01*
X125821714Y-114616571D01*
X126750285Y-114616571D01*
X137393142Y-114616571D02*
X136893142Y-113902285D01*
X136536000Y-114616571D02*
X136536000Y-113116571D01*
X137107428Y-113116571D01*
X137250285Y-113188000D01*
X137321714Y-113259428D01*
X137393142Y-113402285D01*
X137393142Y-113616571D01*
X137321714Y-113759428D01*
X137250285Y-113830857D01*
X137107428Y-113902285D01*
X136536000Y-113902285D01*
X137964571Y-114188000D02*
X138678857Y-114188000D01*
X137821714Y-114616571D02*
X138321714Y-113116571D01*
X138821714Y-114616571D01*
X139321714Y-114616571D02*
X139321714Y-113116571D01*
X139821714Y-114188000D01*
X140321714Y-113116571D01*
X140321714Y-114616571D01*
X141036000Y-114616571D02*
X141036000Y-113116571D01*
X141607428Y-113116571D01*
X141750285Y-113188000D01*
X141821714Y-113259428D01*
X141893142Y-113402285D01*
X141893142Y-113616571D01*
X141821714Y-113759428D01*
X141750285Y-113830857D01*
X141607428Y-113902285D01*
X141036000Y-113902285D01*
X143964571Y-113116571D02*
X144250285Y-113116571D01*
X144393142Y-113188000D01*
X144536000Y-113330857D01*
X144607428Y-113616571D01*
X144607428Y-114116571D01*
X144536000Y-114402285D01*
X144393142Y-114545142D01*
X144250285Y-114616571D01*
X143964571Y-114616571D01*
X143821714Y-114545142D01*
X143678857Y-114402285D01*
X143607428Y-114116571D01*
X143607428Y-113616571D01*
X143678857Y-113330857D01*
X143821714Y-113188000D01*
X143964571Y-113116571D01*
X145250285Y-113116571D02*
X145250285Y-114330857D01*
X145321714Y-114473714D01*
X145393142Y-114545142D01*
X145536000Y-114616571D01*
X145821714Y-114616571D01*
X145964571Y-114545142D01*
X146036000Y-114473714D01*
X146107428Y-114330857D01*
X146107428Y-113116571D01*
X146607428Y-113116571D02*
X147464571Y-113116571D01*
X147036000Y-114616571D02*
X147036000Y-113116571D01*
X149036000Y-113259428D02*
X149107428Y-113188000D01*
X149250285Y-113116571D01*
X149607428Y-113116571D01*
X149750285Y-113188000D01*
X149821714Y-113259428D01*
X149893142Y-113402285D01*
X149893142Y-113545142D01*
X149821714Y-113759428D01*
X148964571Y-114616571D01*
X149893142Y-114616571D01*
X160464571Y-113188000D02*
X160321714Y-113116571D01*
X160107428Y-113116571D01*
X159893142Y-113188000D01*
X159750285Y-113330857D01*
X159678857Y-113473714D01*
X159607428Y-113759428D01*
X159607428Y-113973714D01*
X159678857Y-114259428D01*
X159750285Y-114402285D01*
X159893142Y-114545142D01*
X160107428Y-114616571D01*
X160250285Y-114616571D01*
X160464571Y-114545142D01*
X160536000Y-114473714D01*
X160536000Y-113973714D01*
X160250285Y-113973714D01*
X161107428Y-114188000D02*
X161821714Y-114188000D01*
X160964571Y-114616571D02*
X161464571Y-113116571D01*
X161964571Y-114616571D01*
X162250285Y-113116571D02*
X163107428Y-113116571D01*
X162678857Y-114616571D02*
X162678857Y-113116571D01*
X163607428Y-113830857D02*
X164107428Y-113830857D01*
X164321714Y-114616571D02*
X163607428Y-114616571D01*
X163607428Y-113116571D01*
X164321714Y-113116571D01*
X166393142Y-113116571D02*
X166678857Y-113116571D01*
X166821714Y-113188000D01*
X166964571Y-113330857D01*
X167035999Y-113616571D01*
X167035999Y-114116571D01*
X166964571Y-114402285D01*
X166821714Y-114545142D01*
X166678857Y-114616571D01*
X166393142Y-114616571D01*
X166250285Y-114545142D01*
X166107428Y-114402285D01*
X166035999Y-114116571D01*
X166035999Y-113616571D01*
X166107428Y-113330857D01*
X166250285Y-113188000D01*
X166393142Y-113116571D01*
X167678857Y-113116571D02*
X167678857Y-114330857D01*
X167750285Y-114473714D01*
X167821714Y-114545142D01*
X167964571Y-114616571D01*
X168250285Y-114616571D01*
X168393142Y-114545142D01*
X168464571Y-114473714D01*
X168536000Y-114330857D01*
X168536000Y-113116571D01*
X169036000Y-113116571D02*
X169893142Y-113116571D01*
X169464571Y-114616571D02*
X169464571Y-113116571D01*
X171464571Y-113259428D02*
X171536000Y-113188000D01*
X171678857Y-113116571D01*
X172036000Y-113116571D01*
X172178857Y-113188000D01*
X172250285Y-113259428D01*
X172321714Y-113402285D01*
X172321714Y-113545142D01*
X172250285Y-113759428D01*
X171393142Y-114616571D01*
X172321714Y-114616571D01*
X112321714Y-137504571D02*
X112321714Y-136004571D01*
X112893142Y-136004571D01*
X113036000Y-136076000D01*
X113107428Y-136147428D01*
X113178857Y-136290285D01*
X113178857Y-136504571D01*
X113107428Y-136647428D01*
X113036000Y-136718857D01*
X112893142Y-136790285D01*
X112321714Y-136790285D01*
X113821714Y-136004571D02*
X113821714Y-137218857D01*
X113893142Y-137361714D01*
X113964571Y-137433142D01*
X114107428Y-137504571D01*
X114393142Y-137504571D01*
X114536000Y-137433142D01*
X114607428Y-137361714D01*
X114678857Y-137218857D01*
X114678857Y-136004571D01*
X116107428Y-137504571D02*
X115393142Y-137504571D01*
X115393142Y-136004571D01*
X116536000Y-137433142D02*
X116750285Y-137504571D01*
X117107428Y-137504571D01*
X117250285Y-137433142D01*
X117321714Y-137361714D01*
X117393142Y-137218857D01*
X117393142Y-137076000D01*
X117321714Y-136933142D01*
X117250285Y-136861714D01*
X117107428Y-136790285D01*
X116821714Y-136718857D01*
X116678857Y-136647428D01*
X116607428Y-136576000D01*
X116536000Y-136433142D01*
X116536000Y-136290285D01*
X116607428Y-136147428D01*
X116678857Y-136076000D01*
X116821714Y-136004571D01*
X117178857Y-136004571D01*
X117393142Y-136076000D01*
X118036000Y-136718857D02*
X118536000Y-136718857D01*
X118750285Y-137504571D02*
X118036000Y-137504571D01*
X118036000Y-136004571D01*
X118750285Y-136004571D01*
X120821714Y-136004571D02*
X121107428Y-136004571D01*
X121250285Y-136076000D01*
X121393142Y-136218857D01*
X121464571Y-136504571D01*
X121464571Y-137004571D01*
X121393142Y-137290285D01*
X121250285Y-137433142D01*
X121107428Y-137504571D01*
X120821714Y-137504571D01*
X120678857Y-137433142D01*
X120536000Y-137290285D01*
X120464571Y-137004571D01*
X120464571Y-136504571D01*
X120536000Y-136218857D01*
X120678857Y-136076000D01*
X120821714Y-136004571D01*
X122107428Y-136004571D02*
X122107428Y-137218857D01*
X122178857Y-137361714D01*
X122250285Y-137433142D01*
X122393142Y-137504571D01*
X122678857Y-137504571D01*
X122821714Y-137433142D01*
X122893142Y-137361714D01*
X122964571Y-137218857D01*
X122964571Y-136004571D01*
X123464571Y-136004571D02*
X124321714Y-136004571D01*
X123893142Y-137504571D02*
X123893142Y-136004571D01*
X125821714Y-136004571D02*
X126750285Y-136004571D01*
X126250285Y-136576000D01*
X126464571Y-136576000D01*
X126607428Y-136647428D01*
X126678857Y-136718857D01*
X126750285Y-136861714D01*
X126750285Y-137218857D01*
X126678857Y-137361714D01*
X126607428Y-137433142D01*
X126464571Y-137504571D01*
X126036000Y-137504571D01*
X125893142Y-137433142D01*
X125821714Y-137361714D01*
X137393142Y-137504571D02*
X136893142Y-136790285D01*
X136536000Y-137504571D02*
X136536000Y-136004571D01*
X137107428Y-136004571D01*
X137250285Y-136076000D01*
X137321714Y-136147428D01*
X137393142Y-136290285D01*
X137393142Y-136504571D01*
X137321714Y-136647428D01*
X137250285Y-136718857D01*
X137107428Y-136790285D01*
X136536000Y-136790285D01*
X137964571Y-137076000D02*
X138678857Y-137076000D01*
X137821714Y-137504571D02*
X138321714Y-136004571D01*
X138821714Y-137504571D01*
X139321714Y-137504571D02*
X139321714Y-136004571D01*
X139821714Y-137076000D01*
X140321714Y-136004571D01*
X140321714Y-137504571D01*
X141036000Y-137504571D02*
X141036000Y-136004571D01*
X141607428Y-136004571D01*
X141750285Y-136076000D01*
X141821714Y-136147428D01*
X141893142Y-136290285D01*
X141893142Y-136504571D01*
X141821714Y-136647428D01*
X141750285Y-136718857D01*
X141607428Y-136790285D01*
X141036000Y-136790285D01*
X143964571Y-136004571D02*
X144250285Y-136004571D01*
X144393142Y-136076000D01*
X144536000Y-136218857D01*
X144607428Y-136504571D01*
X144607428Y-137004571D01*
X144536000Y-137290285D01*
X144393142Y-137433142D01*
X144250285Y-137504571D01*
X143964571Y-137504571D01*
X143821714Y-137433142D01*
X143678857Y-137290285D01*
X143607428Y-137004571D01*
X143607428Y-136504571D01*
X143678857Y-136218857D01*
X143821714Y-136076000D01*
X143964571Y-136004571D01*
X145250285Y-136004571D02*
X145250285Y-137218857D01*
X145321714Y-137361714D01*
X145393142Y-137433142D01*
X145536000Y-137504571D01*
X145821714Y-137504571D01*
X145964571Y-137433142D01*
X146036000Y-137361714D01*
X146107428Y-137218857D01*
X146107428Y-136004571D01*
X146607428Y-136004571D02*
X147464571Y-136004571D01*
X147036000Y-137504571D02*
X147036000Y-136004571D01*
X148964571Y-136004571D02*
X149893142Y-136004571D01*
X149393142Y-136576000D01*
X149607428Y-136576000D01*
X149750285Y-136647428D01*
X149821714Y-136718857D01*
X149893142Y-136861714D01*
X149893142Y-137218857D01*
X149821714Y-137361714D01*
X149750285Y-137433142D01*
X149607428Y-137504571D01*
X149178857Y-137504571D01*
X149036000Y-137433142D01*
X148964571Y-137361714D01*
X160464571Y-136076000D02*
X160321714Y-136004571D01*
X160107428Y-136004571D01*
X159893142Y-136076000D01*
X159750285Y-136218857D01*
X159678857Y-136361714D01*
X159607428Y-136647428D01*
X159607428Y-136861714D01*
X159678857Y-137147428D01*
X159750285Y-137290285D01*
X159893142Y-137433142D01*
X160107428Y-137504571D01*
X160250285Y-137504571D01*
X160464571Y-137433142D01*
X160536000Y-137361714D01*
X160536000Y-136861714D01*
X160250285Y-136861714D01*
X161107428Y-137076000D02*
X161821714Y-137076000D01*
X160964571Y-137504571D02*
X161464571Y-136004571D01*
X161964571Y-137504571D01*
X162250285Y-136004571D02*
X163107428Y-136004571D01*
X162678857Y-137504571D02*
X162678857Y-136004571D01*
X163607428Y-136718857D02*
X164107428Y-136718857D01*
X164321714Y-137504571D02*
X163607428Y-137504571D01*
X163607428Y-136004571D01*
X164321714Y-136004571D01*
X166393142Y-136004571D02*
X166678857Y-136004571D01*
X166821714Y-136076000D01*
X166964571Y-136218857D01*
X167035999Y-136504571D01*
X167035999Y-137004571D01*
X166964571Y-137290285D01*
X166821714Y-137433142D01*
X166678857Y-137504571D01*
X166393142Y-137504571D01*
X166250285Y-137433142D01*
X166107428Y-137290285D01*
X166035999Y-137004571D01*
X166035999Y-136504571D01*
X166107428Y-136218857D01*
X166250285Y-136076000D01*
X166393142Y-136004571D01*
X167678857Y-136004571D02*
X167678857Y-137218857D01*
X167750285Y-137361714D01*
X167821714Y-137433142D01*
X167964571Y-137504571D01*
X168250285Y-137504571D01*
X168393142Y-137433142D01*
X168464571Y-137361714D01*
X168536000Y-137218857D01*
X168536000Y-136004571D01*
X169036000Y-136004571D02*
X169893142Y-136004571D01*
X169464571Y-137504571D02*
X169464571Y-136004571D01*
X171393142Y-136004571D02*
X172321714Y-136004571D01*
X171821714Y-136576000D01*
X172036000Y-136576000D01*
X172178857Y-136647428D01*
X172250285Y-136718857D01*
X172321714Y-136861714D01*
X172321714Y-137218857D01*
X172250285Y-137361714D01*
X172178857Y-137433142D01*
X172036000Y-137504571D01*
X171607428Y-137504571D01*
X171464571Y-137433142D01*
X171393142Y-137361714D01*
X112210714Y-160437571D02*
X112210714Y-158937571D01*
X112782142Y-158937571D01*
X112925000Y-159009000D01*
X112996428Y-159080428D01*
X113067857Y-159223285D01*
X113067857Y-159437571D01*
X112996428Y-159580428D01*
X112925000Y-159651857D01*
X112782142Y-159723285D01*
X112210714Y-159723285D01*
X113710714Y-158937571D02*
X113710714Y-160151857D01*
X113782142Y-160294714D01*
X113853571Y-160366142D01*
X113996428Y-160437571D01*
X114282142Y-160437571D01*
X114425000Y-160366142D01*
X114496428Y-160294714D01*
X114567857Y-160151857D01*
X114567857Y-158937571D01*
X115996428Y-160437571D02*
X115282142Y-160437571D01*
X115282142Y-158937571D01*
X116425000Y-160366142D02*
X116639285Y-160437571D01*
X116996428Y-160437571D01*
X117139285Y-160366142D01*
X117210714Y-160294714D01*
X117282142Y-160151857D01*
X117282142Y-160009000D01*
X117210714Y-159866142D01*
X117139285Y-159794714D01*
X116996428Y-159723285D01*
X116710714Y-159651857D01*
X116567857Y-159580428D01*
X116496428Y-159509000D01*
X116425000Y-159366142D01*
X116425000Y-159223285D01*
X116496428Y-159080428D01*
X116567857Y-159009000D01*
X116710714Y-158937571D01*
X117067857Y-158937571D01*
X117282142Y-159009000D01*
X117925000Y-159651857D02*
X118425000Y-159651857D01*
X118639285Y-160437571D02*
X117925000Y-160437571D01*
X117925000Y-158937571D01*
X118639285Y-158937571D01*
X120710714Y-158937571D02*
X120996428Y-158937571D01*
X121139285Y-159009000D01*
X121282142Y-159151857D01*
X121353571Y-159437571D01*
X121353571Y-159937571D01*
X121282142Y-160223285D01*
X121139285Y-160366142D01*
X120996428Y-160437571D01*
X120710714Y-160437571D01*
X120567857Y-160366142D01*
X120425000Y-160223285D01*
X120353571Y-159937571D01*
X120353571Y-159437571D01*
X120425000Y-159151857D01*
X120567857Y-159009000D01*
X120710714Y-158937571D01*
X121996428Y-158937571D02*
X121996428Y-160151857D01*
X122067857Y-160294714D01*
X122139285Y-160366142D01*
X122282142Y-160437571D01*
X122567857Y-160437571D01*
X122710714Y-160366142D01*
X122782142Y-160294714D01*
X122853571Y-160151857D01*
X122853571Y-158937571D01*
X123353571Y-158937571D02*
X124210714Y-158937571D01*
X123782142Y-160437571D02*
X123782142Y-158937571D01*
X126496428Y-159437571D02*
X126496428Y-160437571D01*
X126139285Y-158866142D02*
X125782142Y-159937571D01*
X126710714Y-159937571D01*
X137282142Y-160437571D02*
X136782142Y-159723285D01*
X136425000Y-160437571D02*
X136425000Y-158937571D01*
X136996428Y-158937571D01*
X137139285Y-159009000D01*
X137210714Y-159080428D01*
X137282142Y-159223285D01*
X137282142Y-159437571D01*
X137210714Y-159580428D01*
X137139285Y-159651857D01*
X136996428Y-159723285D01*
X136425000Y-159723285D01*
X137853571Y-160009000D02*
X138567857Y-160009000D01*
X137710714Y-160437571D02*
X138210714Y-158937571D01*
X138710714Y-160437571D01*
X139210714Y-160437571D02*
X139210714Y-158937571D01*
X139710714Y-160009000D01*
X140210714Y-158937571D01*
X140210714Y-160437571D01*
X140925000Y-160437571D02*
X140925000Y-158937571D01*
X141496428Y-158937571D01*
X141639285Y-159009000D01*
X141710714Y-159080428D01*
X141782142Y-159223285D01*
X141782142Y-159437571D01*
X141710714Y-159580428D01*
X141639285Y-159651857D01*
X141496428Y-159723285D01*
X140925000Y-159723285D01*
X143853571Y-158937571D02*
X144139285Y-158937571D01*
X144282142Y-159009000D01*
X144425000Y-159151857D01*
X144496428Y-159437571D01*
X144496428Y-159937571D01*
X144425000Y-160223285D01*
X144282142Y-160366142D01*
X144139285Y-160437571D01*
X143853571Y-160437571D01*
X143710714Y-160366142D01*
X143567857Y-160223285D01*
X143496428Y-159937571D01*
X143496428Y-159437571D01*
X143567857Y-159151857D01*
X143710714Y-159009000D01*
X143853571Y-158937571D01*
X145139285Y-158937571D02*
X145139285Y-160151857D01*
X145210714Y-160294714D01*
X145282142Y-160366142D01*
X145425000Y-160437571D01*
X145710714Y-160437571D01*
X145853571Y-160366142D01*
X145925000Y-160294714D01*
X145996428Y-160151857D01*
X145996428Y-158937571D01*
X146496428Y-158937571D02*
X147353571Y-158937571D01*
X146925000Y-160437571D02*
X146925000Y-158937571D01*
X149639285Y-159437571D02*
X149639285Y-160437571D01*
X149282142Y-158866142D02*
X148925000Y-159937571D01*
X149853571Y-159937571D01*
X160353571Y-159009000D02*
X160210714Y-158937571D01*
X159996428Y-158937571D01*
X159782142Y-159009000D01*
X159639285Y-159151857D01*
X159567857Y-159294714D01*
X159496428Y-159580428D01*
X159496428Y-159794714D01*
X159567857Y-160080428D01*
X159639285Y-160223285D01*
X159782142Y-160366142D01*
X159996428Y-160437571D01*
X160139285Y-160437571D01*
X160353571Y-160366142D01*
X160425000Y-160294714D01*
X160425000Y-159794714D01*
X160139285Y-159794714D01*
X160996428Y-160009000D02*
X161710714Y-160009000D01*
X160853571Y-160437571D02*
X161353571Y-158937571D01*
X161853571Y-160437571D01*
X162139285Y-158937571D02*
X162996428Y-158937571D01*
X162567857Y-160437571D02*
X162567857Y-158937571D01*
X163496428Y-159651857D02*
X163996428Y-159651857D01*
X164210714Y-160437571D02*
X163496428Y-160437571D01*
X163496428Y-158937571D01*
X164210714Y-158937571D01*
X166282142Y-158937571D02*
X166567857Y-158937571D01*
X166710714Y-159009000D01*
X166853571Y-159151857D01*
X166924999Y-159437571D01*
X166924999Y-159937571D01*
X166853571Y-160223285D01*
X166710714Y-160366142D01*
X166567857Y-160437571D01*
X166282142Y-160437571D01*
X166139285Y-160366142D01*
X165996428Y-160223285D01*
X165924999Y-159937571D01*
X165924999Y-159437571D01*
X165996428Y-159151857D01*
X166139285Y-159009000D01*
X166282142Y-158937571D01*
X167567857Y-158937571D02*
X167567857Y-160151857D01*
X167639285Y-160294714D01*
X167710714Y-160366142D01*
X167853571Y-160437571D01*
X168139285Y-160437571D01*
X168282142Y-160366142D01*
X168353571Y-160294714D01*
X168425000Y-160151857D01*
X168425000Y-158937571D01*
X168925000Y-158937571D02*
X169782142Y-158937571D01*
X169353571Y-160437571D02*
X169353571Y-158937571D01*
X172067857Y-159437571D02*
X172067857Y-160437571D01*
X171710714Y-158866142D02*
X171353571Y-159937571D01*
X172282142Y-159937571D01*
X112321714Y-183348571D02*
X112321714Y-181848571D01*
X112893142Y-181848571D01*
X113036000Y-181920000D01*
X113107428Y-181991428D01*
X113178857Y-182134285D01*
X113178857Y-182348571D01*
X113107428Y-182491428D01*
X113036000Y-182562857D01*
X112893142Y-182634285D01*
X112321714Y-182634285D01*
X113821714Y-181848571D02*
X113821714Y-183062857D01*
X113893142Y-183205714D01*
X113964571Y-183277142D01*
X114107428Y-183348571D01*
X114393142Y-183348571D01*
X114536000Y-183277142D01*
X114607428Y-183205714D01*
X114678857Y-183062857D01*
X114678857Y-181848571D01*
X116107428Y-183348571D02*
X115393142Y-183348571D01*
X115393142Y-181848571D01*
X116536000Y-183277142D02*
X116750285Y-183348571D01*
X117107428Y-183348571D01*
X117250285Y-183277142D01*
X117321714Y-183205714D01*
X117393142Y-183062857D01*
X117393142Y-182920000D01*
X117321714Y-182777142D01*
X117250285Y-182705714D01*
X117107428Y-182634285D01*
X116821714Y-182562857D01*
X116678857Y-182491428D01*
X116607428Y-182420000D01*
X116536000Y-182277142D01*
X116536000Y-182134285D01*
X116607428Y-181991428D01*
X116678857Y-181920000D01*
X116821714Y-181848571D01*
X117178857Y-181848571D01*
X117393142Y-181920000D01*
X118036000Y-182562857D02*
X118536000Y-182562857D01*
X118750285Y-183348571D02*
X118036000Y-183348571D01*
X118036000Y-181848571D01*
X118750285Y-181848571D01*
X120821714Y-181848571D02*
X121107428Y-181848571D01*
X121250285Y-181920000D01*
X121393142Y-182062857D01*
X121464571Y-182348571D01*
X121464571Y-182848571D01*
X121393142Y-183134285D01*
X121250285Y-183277142D01*
X121107428Y-183348571D01*
X120821714Y-183348571D01*
X120678857Y-183277142D01*
X120536000Y-183134285D01*
X120464571Y-182848571D01*
X120464571Y-182348571D01*
X120536000Y-182062857D01*
X120678857Y-181920000D01*
X120821714Y-181848571D01*
X122107428Y-181848571D02*
X122107428Y-183062857D01*
X122178857Y-183205714D01*
X122250285Y-183277142D01*
X122393142Y-183348571D01*
X122678857Y-183348571D01*
X122821714Y-183277142D01*
X122893142Y-183205714D01*
X122964571Y-183062857D01*
X122964571Y-181848571D01*
X123464571Y-181848571D02*
X124321714Y-181848571D01*
X123893142Y-183348571D02*
X123893142Y-181848571D01*
X126678857Y-181848571D02*
X125964571Y-181848571D01*
X125893142Y-182562857D01*
X125964571Y-182491428D01*
X126107428Y-182420000D01*
X126464571Y-182420000D01*
X126607428Y-182491428D01*
X126678857Y-182562857D01*
X126750285Y-182705714D01*
X126750285Y-183062857D01*
X126678857Y-183205714D01*
X126607428Y-183277142D01*
X126464571Y-183348571D01*
X126107428Y-183348571D01*
X125964571Y-183277142D01*
X125893142Y-183205714D01*
X137393142Y-183348571D02*
X136893142Y-182634285D01*
X136536000Y-183348571D02*
X136536000Y-181848571D01*
X137107428Y-181848571D01*
X137250285Y-181920000D01*
X137321714Y-181991428D01*
X137393142Y-182134285D01*
X137393142Y-182348571D01*
X137321714Y-182491428D01*
X137250285Y-182562857D01*
X137107428Y-182634285D01*
X136536000Y-182634285D01*
X137964571Y-182920000D02*
X138678857Y-182920000D01*
X137821714Y-183348571D02*
X138321714Y-181848571D01*
X138821714Y-183348571D01*
X139321714Y-183348571D02*
X139321714Y-181848571D01*
X139821714Y-182920000D01*
X140321714Y-181848571D01*
X140321714Y-183348571D01*
X141036000Y-183348571D02*
X141036000Y-181848571D01*
X141607428Y-181848571D01*
X141750285Y-181920000D01*
X141821714Y-181991428D01*
X141893142Y-182134285D01*
X141893142Y-182348571D01*
X141821714Y-182491428D01*
X141750285Y-182562857D01*
X141607428Y-182634285D01*
X141036000Y-182634285D01*
X143964571Y-181848571D02*
X144250285Y-181848571D01*
X144393142Y-181920000D01*
X144536000Y-182062857D01*
X144607428Y-182348571D01*
X144607428Y-182848571D01*
X144536000Y-183134285D01*
X144393142Y-183277142D01*
X144250285Y-183348571D01*
X143964571Y-183348571D01*
X143821714Y-183277142D01*
X143678857Y-183134285D01*
X143607428Y-182848571D01*
X143607428Y-182348571D01*
X143678857Y-182062857D01*
X143821714Y-181920000D01*
X143964571Y-181848571D01*
X145250285Y-181848571D02*
X145250285Y-183062857D01*
X145321714Y-183205714D01*
X145393142Y-183277142D01*
X145536000Y-183348571D01*
X145821714Y-183348571D01*
X145964571Y-183277142D01*
X146036000Y-183205714D01*
X146107428Y-183062857D01*
X146107428Y-181848571D01*
X146607428Y-181848571D02*
X147464571Y-181848571D01*
X147036000Y-183348571D02*
X147036000Y-181848571D01*
X149821714Y-181848571D02*
X149107428Y-181848571D01*
X149036000Y-182562857D01*
X149107428Y-182491428D01*
X149250285Y-182420000D01*
X149607428Y-182420000D01*
X149750285Y-182491428D01*
X149821714Y-182562857D01*
X149893142Y-182705714D01*
X149893142Y-183062857D01*
X149821714Y-183205714D01*
X149750285Y-183277142D01*
X149607428Y-183348571D01*
X149250285Y-183348571D01*
X149107428Y-183277142D01*
X149036000Y-183205714D01*
X160464571Y-181920000D02*
X160321714Y-181848571D01*
X160107428Y-181848571D01*
X159893142Y-181920000D01*
X159750285Y-182062857D01*
X159678857Y-182205714D01*
X159607428Y-182491428D01*
X159607428Y-182705714D01*
X159678857Y-182991428D01*
X159750285Y-183134285D01*
X159893142Y-183277142D01*
X160107428Y-183348571D01*
X160250285Y-183348571D01*
X160464571Y-183277142D01*
X160536000Y-183205714D01*
X160536000Y-182705714D01*
X160250285Y-182705714D01*
X161107428Y-182920000D02*
X161821714Y-182920000D01*
X160964571Y-183348571D02*
X161464571Y-181848571D01*
X161964571Y-183348571D01*
X162250285Y-181848571D02*
X163107428Y-181848571D01*
X162678857Y-183348571D02*
X162678857Y-181848571D01*
X163607428Y-182562857D02*
X164107428Y-182562857D01*
X164321714Y-183348571D02*
X163607428Y-183348571D01*
X163607428Y-181848571D01*
X164321714Y-181848571D01*
X166393142Y-181848571D02*
X166678857Y-181848571D01*
X166821714Y-181920000D01*
X166964571Y-182062857D01*
X167035999Y-182348571D01*
X167035999Y-182848571D01*
X166964571Y-183134285D01*
X166821714Y-183277142D01*
X166678857Y-183348571D01*
X166393142Y-183348571D01*
X166250285Y-183277142D01*
X166107428Y-183134285D01*
X166035999Y-182848571D01*
X166035999Y-182348571D01*
X166107428Y-182062857D01*
X166250285Y-181920000D01*
X166393142Y-181848571D01*
X167678857Y-181848571D02*
X167678857Y-183062857D01*
X167750285Y-183205714D01*
X167821714Y-183277142D01*
X167964571Y-183348571D01*
X168250285Y-183348571D01*
X168393142Y-183277142D01*
X168464571Y-183205714D01*
X168536000Y-183062857D01*
X168536000Y-181848571D01*
X169036000Y-181848571D02*
X169893142Y-181848571D01*
X169464571Y-183348571D02*
X169464571Y-181848571D01*
X172250285Y-181848571D02*
X171536000Y-181848571D01*
X171464571Y-182562857D01*
X171536000Y-182491428D01*
X171678857Y-182420000D01*
X172036000Y-182420000D01*
X172178857Y-182491428D01*
X172250285Y-182562857D01*
X172321714Y-182705714D01*
X172321714Y-183062857D01*
X172250285Y-183205714D01*
X172178857Y-183277142D01*
X172036000Y-183348571D01*
X171678857Y-183348571D01*
X171536000Y-183277142D01*
X171464571Y-183205714D01*
D11*
X103418000Y-49381000D02*
X183618000Y-49381000D01*
D12*
X140836142Y-20946285D02*
X140836142Y-14946285D01*
X144264714Y-20946285D02*
X141693285Y-17517714D01*
X144264714Y-14946285D02*
X140836142Y-18374857D01*
X147979000Y-14946285D02*
X149121857Y-14946285D01*
X149693285Y-15232000D01*
X150264714Y-15803428D01*
X150550428Y-16946285D01*
X150550428Y-18946285D01*
X150264714Y-20089142D01*
X149693285Y-20660571D01*
X149121857Y-20946285D01*
X147979000Y-20946285D01*
X147407571Y-20660571D01*
X146836142Y-20089142D01*
X146550428Y-18946285D01*
X146550428Y-16946285D01*
X146836142Y-15803428D01*
X147407571Y-15232000D01*
X147979000Y-14946285D01*
X152836142Y-20660571D02*
X153693285Y-20946285D01*
X155121857Y-20946285D01*
X155693285Y-20660571D01*
X155979000Y-20374857D01*
X156264714Y-19803428D01*
X156264714Y-19232000D01*
X155979000Y-18660571D01*
X155693285Y-18374857D01*
X155121857Y-18089142D01*
X153979000Y-17803428D01*
X153407571Y-17517714D01*
X153121857Y-17232000D01*
X152836142Y-16660571D01*
X152836142Y-16089142D01*
X153121857Y-15517714D01*
X153407571Y-15232000D01*
X153979000Y-14946285D01*
X155407571Y-14946285D01*
X156264714Y-15232000D01*
X158836142Y-20946285D02*
X158836142Y-14946285D01*
X160836142Y-19232000D01*
X162836142Y-14946285D01*
X162836142Y-20946285D01*
X166836142Y-14946285D02*
X167979000Y-14946285D01*
X168550428Y-15232000D01*
X169121857Y-15803428D01*
X169407571Y-16946285D01*
X169407571Y-18946285D01*
X169121857Y-20089142D01*
X168550428Y-20660571D01*
X167979000Y-20946285D01*
X166836142Y-20946285D01*
X166264714Y-20660571D01*
X165693285Y-20089142D01*
X165407571Y-18946285D01*
X165407571Y-16946285D01*
X165693285Y-15803428D01*
X166264714Y-15232000D01*
X166836142Y-14946285D01*
X142407571Y-30946285D02*
X142407571Y-24946285D01*
X144693285Y-24946285D01*
X145264714Y-25232000D01*
X145550428Y-25517714D01*
X145836142Y-26089142D01*
X145836142Y-26946285D01*
X145550428Y-27517714D01*
X145264714Y-27803428D01*
X144693285Y-28089142D01*
X142407571Y-28089142D01*
X149550428Y-24946285D02*
X150693285Y-24946285D01*
X151264714Y-25232000D01*
X151836142Y-25803428D01*
X152121857Y-26946285D01*
X152121857Y-28946285D01*
X151836142Y-30089142D01*
X151264714Y-30660571D01*
X150693285Y-30946285D01*
X149550428Y-30946285D01*
X148979000Y-30660571D01*
X148407571Y-30089142D01*
X148121857Y-28946285D01*
X148121857Y-26946285D01*
X148407571Y-25803428D01*
X148979000Y-25232000D01*
X149550428Y-24946285D01*
X157550428Y-30946285D02*
X154693285Y-30946285D01*
X154693285Y-24946285D01*
X160693285Y-28089142D02*
X160693285Y-30946285D01*
X158693285Y-24946285D02*
X160693285Y-28089142D01*
X162693285Y-24946285D01*
X167264714Y-24946285D02*
X166121857Y-24946285D01*
X165550428Y-25232000D01*
X165264714Y-25517714D01*
X164693285Y-26374857D01*
X164407571Y-27517714D01*
X164407571Y-29803428D01*
X164693285Y-30374857D01*
X164979000Y-30660571D01*
X165550428Y-30946285D01*
X166693285Y-30946285D01*
X167264714Y-30660571D01*
X167550428Y-30374857D01*
X167836142Y-29803428D01*
X167836142Y-28374857D01*
X167550428Y-27803428D01*
X167264714Y-27517714D01*
X166693285Y-27232000D01*
X165550428Y-27232000D01*
X164979000Y-27517714D01*
X164693285Y-27803428D01*
X164407571Y-28374857D01*
X144407571Y-34946285D02*
X144407571Y-39232000D01*
X144121857Y-40089142D01*
X143550428Y-40660571D01*
X142693285Y-40946285D01*
X142121857Y-40946285D01*
X146979000Y-39232000D02*
X149836142Y-39232000D01*
X146407571Y-40946285D02*
X148407571Y-34946285D01*
X150407571Y-40946285D01*
X155836142Y-40374857D02*
X155550428Y-40660571D01*
X154693285Y-40946285D01*
X154121857Y-40946285D01*
X153264714Y-40660571D01*
X152693285Y-40089142D01*
X152407571Y-39517714D01*
X152121857Y-38374857D01*
X152121857Y-37517714D01*
X152407571Y-36374857D01*
X152693285Y-35803428D01*
X153264714Y-35232000D01*
X154121857Y-34946285D01*
X154693285Y-34946285D01*
X155550428Y-35232000D01*
X155836142Y-35517714D01*
X158407571Y-40946285D02*
X158407571Y-34946285D01*
X161836142Y-40946285D02*
X159264714Y-37517714D01*
X161836142Y-34946285D02*
X158407571Y-38374857D01*
X164121857Y-40660571D02*
X164979000Y-40946285D01*
X166407571Y-40946285D01*
X166979000Y-40660571D01*
X167264714Y-40374857D01*
X167550428Y-39803428D01*
X167550428Y-39232000D01*
X167264714Y-38660571D01*
X166979000Y-38374857D01*
X166407571Y-38089142D01*
X165264714Y-37803428D01*
X164693285Y-37517714D01*
X164407571Y-37232000D01*
X164121857Y-36660571D01*
X164121857Y-36089142D01*
X164407571Y-35517714D01*
X164693285Y-35232000D01*
X165264714Y-34946285D01*
X166693285Y-34946285D01*
X167550428Y-35232000D01*
M02*
