M48
; DRILL file {KiCad (5.1.7)-1} date 03/06/23 19:58:39
; FORMAT={-:-/ absolute / inch / decimal}
; #@! TF.CreationDate,2023-03-06T19:58:39+00:00
; #@! TF.GenerationSoftware,Kicad,Pcbnew,(5.1.7)-1
; #@! TF.FileFunction,Plated,1,2,PTH
FMAT,2
INCH
T1C0.1260
T2C0.3937
%
G90
G05
T2
X5.6254Y-2.3
X5.6254Y-5.0166
X4.7199Y-5.9221
X5.6254Y-3.2056
X5.6254Y-5.9221
X4.7199Y-4.1111
X5.6254Y-6.8276
X4.7199Y-5.0166
X5.6254Y-4.1111
X4.7199Y-3.2056
X6.5309Y-5.9221
X6.5309Y-3.2056
X4.7199Y-2.3
X6.5309Y-2.3
X4.7199Y-6.8276
X6.5309Y-4.1111
X6.5309Y-6.8276
X6.5309Y-5.0166
T1
G00X6.7732Y-7.9245
M15
G01X6.97Y-7.9245
M16
G05
G00X4.2929Y-7.9245
M15
G01X4.4897Y-7.9245
M16
G05
G00X6.7732Y-0.3261
M15
G01X6.97Y-0.3261
M16
G05
G00X4.2929Y-0.3261
M15
G01X4.4897Y-0.3261
M16
G05
T0
M30
