G04 #@! TF.GenerationSoftware,KiCad,Pcbnew,(5.1.7)-1*
G04 #@! TF.CreationDate,2023-03-06T19:58:32+00:00*
G04 #@! TF.ProjectId,KOSMO-POLY6-JACKS,4b4f534d-4f2d-4504-9f4c-59362d4a4143,V0.1.0*
G04 #@! TF.SameCoordinates,Original*
G04 #@! TF.FileFunction,Soldermask,Bot*
G04 #@! TF.FilePolarity,Negative*
%FSLAX46Y46*%
G04 Gerber Fmt 4.6, Leading zero omitted, Abs format (unit mm)*
G04 Created by KiCad (PCBNEW (5.1.7)-1) date 2023-03-06 19:58:32*
%MOMM*%
%LPD*%
G01*
G04 APERTURE LIST*
%ADD10C,0.010000*%
%ADD11C,14.102000*%
%ADD12O,10.702000X5.702000*%
G04 APERTURE END LIST*
D10*
G36*
X123987132Y-190583615D02*
G01*
X124150448Y-190739238D01*
X124299122Y-190909030D01*
X124471192Y-191116659D01*
X124235807Y-190909030D01*
X124116603Y-190805853D01*
X124055389Y-190764495D01*
X124055331Y-190797835D01*
X124119595Y-190918750D01*
X124251345Y-191140118D01*
X124320868Y-191255079D01*
X124545556Y-191650521D01*
X124758207Y-192078426D01*
X124963205Y-192551827D01*
X125164934Y-193083754D01*
X125367777Y-193687238D01*
X125576119Y-194375309D01*
X125794344Y-195160998D01*
X126026836Y-196057336D01*
X126273773Y-197059926D01*
X126455349Y-197762192D01*
X126633085Y-198350032D01*
X126804735Y-198817149D01*
X126968054Y-199157247D01*
X127079995Y-199320838D01*
X127188607Y-199425548D01*
X127358267Y-199567158D01*
X127442329Y-199632282D01*
X127585298Y-199732538D01*
X127714695Y-199792772D01*
X127871985Y-199822449D01*
X128098632Y-199831032D01*
X128307452Y-199829724D01*
X128621711Y-199817305D01*
X128895155Y-199781902D01*
X129179927Y-199713183D01*
X129528168Y-199600812D01*
X129613918Y-199570816D01*
X129934043Y-199460570D01*
X130152672Y-199394792D01*
X130297589Y-199368487D01*
X130396579Y-199376665D01*
X130477427Y-199414330D01*
X130479041Y-199415344D01*
X130623426Y-199485705D01*
X130849277Y-199574161D01*
X131081232Y-199652951D01*
X131755808Y-199866943D01*
X132309766Y-200048000D01*
X132755286Y-200202234D01*
X133104548Y-200335757D01*
X133369731Y-200454684D01*
X133563014Y-200565127D01*
X133696578Y-200673199D01*
X133782603Y-200785013D01*
X133833267Y-200906682D01*
X133860750Y-201044319D01*
X133861279Y-201048267D01*
X133859969Y-201151277D01*
X133803151Y-201224745D01*
X133661620Y-201293221D01*
X133503575Y-201348963D01*
X133307026Y-201403209D01*
X133005676Y-201471976D01*
X132631515Y-201548620D01*
X132216534Y-201626497D01*
X131916668Y-201678558D01*
X131524849Y-201745664D01*
X131182322Y-201807211D01*
X130911673Y-201858904D01*
X130735488Y-201896452D01*
X130676659Y-201914239D01*
X130715224Y-201935441D01*
X130852673Y-201947172D01*
X130910514Y-201947995D01*
X131072718Y-201961246D01*
X131121720Y-201997073D01*
X131112376Y-202010529D01*
X131028304Y-202028470D01*
X130828282Y-202046493D01*
X130534778Y-202063995D01*
X130170260Y-202080371D01*
X129757195Y-202095015D01*
X129318051Y-202107322D01*
X128875297Y-202116688D01*
X128451401Y-202122509D01*
X128068829Y-202124179D01*
X127750050Y-202121093D01*
X127517532Y-202112647D01*
X127465019Y-202108713D01*
X127273390Y-202080533D01*
X127154906Y-202042384D01*
X127136273Y-202021809D01*
X127079188Y-201958935D01*
X126940652Y-201883843D01*
X126929390Y-201879094D01*
X126707086Y-201737547D01*
X126469106Y-201507249D01*
X126251129Y-201227987D01*
X126090729Y-200943851D01*
X126037109Y-200794085D01*
X125956939Y-200532723D01*
X125856659Y-200182599D01*
X125742711Y-199766548D01*
X125621532Y-199307405D01*
X125545015Y-199008821D01*
X125399184Y-198442986D01*
X125275613Y-197989372D01*
X125166847Y-197625008D01*
X125065427Y-197326924D01*
X124963899Y-197072148D01*
X124854804Y-196837709D01*
X124814349Y-196757944D01*
X124574616Y-196347583D01*
X124317040Y-195999905D01*
X124055244Y-195725717D01*
X123802853Y-195535827D01*
X123573490Y-195441041D01*
X123380779Y-195452166D01*
X123270887Y-195533600D01*
X123252584Y-195621092D01*
X123233066Y-195830110D01*
X123212879Y-196143775D01*
X123192568Y-196545205D01*
X123172681Y-197017519D01*
X123153763Y-197543835D01*
X123136362Y-198107272D01*
X123121022Y-198690950D01*
X123108292Y-199277988D01*
X123098716Y-199851503D01*
X123092842Y-200394615D01*
X123091216Y-200890443D01*
X123091841Y-201065570D01*
X123092244Y-201393967D01*
X123085850Y-201608225D01*
X123068147Y-201732602D01*
X123034620Y-201791361D01*
X122980757Y-201808761D01*
X122953421Y-201809575D01*
X122916160Y-201806765D01*
X122886010Y-201789487D01*
X122862206Y-201744470D01*
X122843982Y-201658440D01*
X122830573Y-201518127D01*
X122821214Y-201310258D01*
X122815141Y-201021562D01*
X122811587Y-200638766D01*
X122809789Y-200148599D01*
X122808980Y-199537788D01*
X122808795Y-199300719D01*
X122802289Y-198369148D01*
X122784656Y-197499127D01*
X122756587Y-196702213D01*
X122718770Y-195989959D01*
X122671897Y-195373918D01*
X122616658Y-194865646D01*
X122553743Y-194476695D01*
X122509804Y-194295846D01*
X122469969Y-194003008D01*
X122485881Y-193619934D01*
X122550528Y-193179762D01*
X122656897Y-192715630D01*
X122665226Y-192688769D01*
X123618708Y-192688769D01*
X123618744Y-192886395D01*
X123730339Y-193072249D01*
X123942802Y-193221166D01*
X124065439Y-193268489D01*
X124328877Y-193340804D01*
X124475900Y-193359062D01*
X124506300Y-193339319D01*
X124466370Y-193204779D01*
X124363830Y-193008594D01*
X124224560Y-192795566D01*
X124104274Y-192643332D01*
X123965438Y-192492257D01*
X123878621Y-192432672D01*
X123806518Y-192450327D01*
X123740922Y-192504539D01*
X123618708Y-192688769D01*
X122665226Y-192688769D01*
X122797973Y-192260674D01*
X122966745Y-191848033D01*
X123069950Y-191649168D01*
X123187071Y-191458701D01*
X123338160Y-191232336D01*
X123502634Y-190998430D01*
X123659907Y-190785342D01*
X123789395Y-190621428D01*
X123870514Y-190535047D01*
X123883532Y-190528376D01*
X123987132Y-190583615D01*
G37*
X123987132Y-190583615D02*
X124150448Y-190739238D01*
X124299122Y-190909030D01*
X124471192Y-191116659D01*
X124235807Y-190909030D01*
X124116603Y-190805853D01*
X124055389Y-190764495D01*
X124055331Y-190797835D01*
X124119595Y-190918750D01*
X124251345Y-191140118D01*
X124320868Y-191255079D01*
X124545556Y-191650521D01*
X124758207Y-192078426D01*
X124963205Y-192551827D01*
X125164934Y-193083754D01*
X125367777Y-193687238D01*
X125576119Y-194375309D01*
X125794344Y-195160998D01*
X126026836Y-196057336D01*
X126273773Y-197059926D01*
X126455349Y-197762192D01*
X126633085Y-198350032D01*
X126804735Y-198817149D01*
X126968054Y-199157247D01*
X127079995Y-199320838D01*
X127188607Y-199425548D01*
X127358267Y-199567158D01*
X127442329Y-199632282D01*
X127585298Y-199732538D01*
X127714695Y-199792772D01*
X127871985Y-199822449D01*
X128098632Y-199831032D01*
X128307452Y-199829724D01*
X128621711Y-199817305D01*
X128895155Y-199781902D01*
X129179927Y-199713183D01*
X129528168Y-199600812D01*
X129613918Y-199570816D01*
X129934043Y-199460570D01*
X130152672Y-199394792D01*
X130297589Y-199368487D01*
X130396579Y-199376665D01*
X130477427Y-199414330D01*
X130479041Y-199415344D01*
X130623426Y-199485705D01*
X130849277Y-199574161D01*
X131081232Y-199652951D01*
X131755808Y-199866943D01*
X132309766Y-200048000D01*
X132755286Y-200202234D01*
X133104548Y-200335757D01*
X133369731Y-200454684D01*
X133563014Y-200565127D01*
X133696578Y-200673199D01*
X133782603Y-200785013D01*
X133833267Y-200906682D01*
X133860750Y-201044319D01*
X133861279Y-201048267D01*
X133859969Y-201151277D01*
X133803151Y-201224745D01*
X133661620Y-201293221D01*
X133503575Y-201348963D01*
X133307026Y-201403209D01*
X133005676Y-201471976D01*
X132631515Y-201548620D01*
X132216534Y-201626497D01*
X131916668Y-201678558D01*
X131524849Y-201745664D01*
X131182322Y-201807211D01*
X130911673Y-201858904D01*
X130735488Y-201896452D01*
X130676659Y-201914239D01*
X130715224Y-201935441D01*
X130852673Y-201947172D01*
X130910514Y-201947995D01*
X131072718Y-201961246D01*
X131121720Y-201997073D01*
X131112376Y-202010529D01*
X131028304Y-202028470D01*
X130828282Y-202046493D01*
X130534778Y-202063995D01*
X130170260Y-202080371D01*
X129757195Y-202095015D01*
X129318051Y-202107322D01*
X128875297Y-202116688D01*
X128451401Y-202122509D01*
X128068829Y-202124179D01*
X127750050Y-202121093D01*
X127517532Y-202112647D01*
X127465019Y-202108713D01*
X127273390Y-202080533D01*
X127154906Y-202042384D01*
X127136273Y-202021809D01*
X127079188Y-201958935D01*
X126940652Y-201883843D01*
X126929390Y-201879094D01*
X126707086Y-201737547D01*
X126469106Y-201507249D01*
X126251129Y-201227987D01*
X126090729Y-200943851D01*
X126037109Y-200794085D01*
X125956939Y-200532723D01*
X125856659Y-200182599D01*
X125742711Y-199766548D01*
X125621532Y-199307405D01*
X125545015Y-199008821D01*
X125399184Y-198442986D01*
X125275613Y-197989372D01*
X125166847Y-197625008D01*
X125065427Y-197326924D01*
X124963899Y-197072148D01*
X124854804Y-196837709D01*
X124814349Y-196757944D01*
X124574616Y-196347583D01*
X124317040Y-195999905D01*
X124055244Y-195725717D01*
X123802853Y-195535827D01*
X123573490Y-195441041D01*
X123380779Y-195452166D01*
X123270887Y-195533600D01*
X123252584Y-195621092D01*
X123233066Y-195830110D01*
X123212879Y-196143775D01*
X123192568Y-196545205D01*
X123172681Y-197017519D01*
X123153763Y-197543835D01*
X123136362Y-198107272D01*
X123121022Y-198690950D01*
X123108292Y-199277988D01*
X123098716Y-199851503D01*
X123092842Y-200394615D01*
X123091216Y-200890443D01*
X123091841Y-201065570D01*
X123092244Y-201393967D01*
X123085850Y-201608225D01*
X123068147Y-201732602D01*
X123034620Y-201791361D01*
X122980757Y-201808761D01*
X122953421Y-201809575D01*
X122916160Y-201806765D01*
X122886010Y-201789487D01*
X122862206Y-201744470D01*
X122843982Y-201658440D01*
X122830573Y-201518127D01*
X122821214Y-201310258D01*
X122815141Y-201021562D01*
X122811587Y-200638766D01*
X122809789Y-200148599D01*
X122808980Y-199537788D01*
X122808795Y-199300719D01*
X122802289Y-198369148D01*
X122784656Y-197499127D01*
X122756587Y-196702213D01*
X122718770Y-195989959D01*
X122671897Y-195373918D01*
X122616658Y-194865646D01*
X122553743Y-194476695D01*
X122509804Y-194295846D01*
X122469969Y-194003008D01*
X122485881Y-193619934D01*
X122550528Y-193179762D01*
X122656897Y-192715630D01*
X122665226Y-192688769D01*
X123618708Y-192688769D01*
X123618744Y-192886395D01*
X123730339Y-193072249D01*
X123942802Y-193221166D01*
X124065439Y-193268489D01*
X124328877Y-193340804D01*
X124475900Y-193359062D01*
X124506300Y-193339319D01*
X124466370Y-193204779D01*
X124363830Y-193008594D01*
X124224560Y-192795566D01*
X124104274Y-192643332D01*
X123965438Y-192492257D01*
X123878621Y-192432672D01*
X123806518Y-192450327D01*
X123740922Y-192504539D01*
X123618708Y-192688769D01*
X122665226Y-192688769D01*
X122797973Y-192260674D01*
X122966745Y-191848033D01*
X123069950Y-191649168D01*
X123187071Y-191458701D01*
X123338160Y-191232336D01*
X123502634Y-190998430D01*
X123659907Y-190785342D01*
X123789395Y-190621428D01*
X123870514Y-190535047D01*
X123883532Y-190528376D01*
X123987132Y-190583615D01*
G36*
X130153409Y-199197369D02*
G01*
X130162658Y-199198303D01*
X130228148Y-199211136D01*
X130168853Y-199220871D01*
X129998400Y-199225813D01*
X129939270Y-199226102D01*
X129737233Y-199223052D01*
X129637286Y-199214468D01*
X129655730Y-199202050D01*
X129678189Y-199198861D01*
X129907058Y-199187242D01*
X130153409Y-199197369D01*
G37*
X130153409Y-199197369D02*
X130162658Y-199198303D01*
X130228148Y-199211136D01*
X130168853Y-199220871D01*
X129998400Y-199225813D01*
X129939270Y-199226102D01*
X129737233Y-199223052D01*
X129637286Y-199214468D01*
X129655730Y-199202050D01*
X129678189Y-199198861D01*
X129907058Y-199187242D01*
X130153409Y-199197369D01*
G36*
X128658888Y-199144997D02*
G01*
X128624283Y-199179602D01*
X128589679Y-199144997D01*
X128624283Y-199110392D01*
X128658888Y-199144997D01*
G37*
X128658888Y-199144997D02*
X128624283Y-199179602D01*
X128589679Y-199144997D01*
X128624283Y-199110392D01*
X128658888Y-199144997D01*
G36*
X126651804Y-195407668D02*
G01*
X126617199Y-195442273D01*
X126582594Y-195407668D01*
X126617199Y-195373063D01*
X126651804Y-195407668D01*
G37*
X126651804Y-195407668D02*
X126617199Y-195442273D01*
X126582594Y-195407668D01*
X126617199Y-195373063D01*
X126651804Y-195407668D01*
G36*
X126444174Y-194853989D02*
G01*
X126409570Y-194888594D01*
X126374965Y-194853989D01*
X126409570Y-194819384D01*
X126444174Y-194853989D01*
G37*
X126444174Y-194853989D02*
X126409570Y-194888594D01*
X126374965Y-194853989D01*
X126409570Y-194819384D01*
X126444174Y-194853989D01*
G36*
X126374965Y-194715570D02*
G01*
X126340360Y-194750174D01*
X126305755Y-194715570D01*
X126340360Y-194680965D01*
X126374965Y-194715570D01*
G37*
X126374965Y-194715570D02*
X126340360Y-194750174D01*
X126305755Y-194715570D01*
X126340360Y-194680965D01*
X126374965Y-194715570D01*
G36*
X126282685Y-194496405D02*
G01*
X126290968Y-194578541D01*
X126282685Y-194588685D01*
X126241540Y-194579185D01*
X126236545Y-194542545D01*
X126261868Y-194485578D01*
X126282685Y-194496405D01*
G37*
X126282685Y-194496405D02*
X126290968Y-194578541D01*
X126282685Y-194588685D01*
X126241540Y-194579185D01*
X126236545Y-194542545D01*
X126261868Y-194485578D01*
X126282685Y-194496405D01*
G36*
X126236545Y-194369521D02*
G01*
X126201940Y-194404125D01*
X126167335Y-194369521D01*
X126201940Y-194334916D01*
X126236545Y-194369521D01*
G37*
X126236545Y-194369521D02*
X126201940Y-194404125D01*
X126167335Y-194369521D01*
X126201940Y-194334916D01*
X126236545Y-194369521D01*
G36*
X126167335Y-194231101D02*
G01*
X126132730Y-194265706D01*
X126098125Y-194231101D01*
X126132730Y-194196496D01*
X126167335Y-194231101D01*
G37*
X126167335Y-194231101D02*
X126132730Y-194265706D01*
X126098125Y-194231101D01*
X126132730Y-194196496D01*
X126167335Y-194231101D01*
G36*
X126075056Y-194011937D02*
G01*
X126083339Y-194094072D01*
X126075056Y-194104216D01*
X126033910Y-194094716D01*
X126028916Y-194058076D01*
X126054238Y-194001109D01*
X126075056Y-194011937D01*
G37*
X126075056Y-194011937D02*
X126083339Y-194094072D01*
X126075056Y-194104216D01*
X126033910Y-194094716D01*
X126028916Y-194058076D01*
X126054238Y-194001109D01*
X126075056Y-194011937D01*
G36*
X126028916Y-193885052D02*
G01*
X125994311Y-193919657D01*
X125959706Y-193885052D01*
X125994311Y-193850447D01*
X126028916Y-193885052D01*
G37*
X126028916Y-193885052D02*
X125994311Y-193919657D01*
X125959706Y-193885052D01*
X125994311Y-193850447D01*
X126028916Y-193885052D01*
G36*
X125959706Y-193746632D02*
G01*
X125925101Y-193781237D01*
X125890496Y-193746632D01*
X125925101Y-193712027D01*
X125959706Y-193746632D01*
G37*
X125959706Y-193746632D02*
X125925101Y-193781237D01*
X125890496Y-193746632D01*
X125925101Y-193712027D01*
X125959706Y-193746632D01*
G36*
X125682867Y-193123744D02*
G01*
X125648262Y-193158349D01*
X125613657Y-193123744D01*
X125648262Y-193089139D01*
X125682867Y-193123744D01*
G37*
X125682867Y-193123744D02*
X125648262Y-193158349D01*
X125613657Y-193123744D01*
X125648262Y-193089139D01*
X125682867Y-193123744D01*
G36*
X125613657Y-192985324D02*
G01*
X125579052Y-193019929D01*
X125544447Y-192985324D01*
X125579052Y-192950719D01*
X125613657Y-192985324D01*
G37*
X125613657Y-192985324D02*
X125579052Y-193019929D01*
X125544447Y-192985324D01*
X125579052Y-192950719D01*
X125613657Y-192985324D01*
G36*
X125544447Y-192846905D02*
G01*
X125509842Y-192881510D01*
X125475237Y-192846905D01*
X125509842Y-192812300D01*
X125544447Y-192846905D01*
G37*
X125544447Y-192846905D02*
X125509842Y-192881510D01*
X125475237Y-192846905D01*
X125509842Y-192812300D01*
X125544447Y-192846905D01*
G36*
X125475237Y-192708485D02*
G01*
X125440632Y-192743090D01*
X125406027Y-192708485D01*
X125440632Y-192673880D01*
X125475237Y-192708485D01*
G37*
X125475237Y-192708485D02*
X125440632Y-192743090D01*
X125406027Y-192708485D01*
X125440632Y-192673880D01*
X125475237Y-192708485D01*
G36*
X125406027Y-192570065D02*
G01*
X125371422Y-192604670D01*
X125336818Y-192570065D01*
X125371422Y-192535461D01*
X125406027Y-192570065D01*
G37*
X125406027Y-192570065D02*
X125371422Y-192604670D01*
X125336818Y-192570065D01*
X125371422Y-192535461D01*
X125406027Y-192570065D01*
G36*
X124718676Y-191482335D02*
G01*
X124819823Y-191625530D01*
X124951971Y-191828434D01*
X124972232Y-191860665D01*
X125141726Y-192132090D01*
X125249374Y-192307313D01*
X125306976Y-192407337D01*
X125326332Y-192453162D01*
X125319243Y-192465788D01*
X125312501Y-192466251D01*
X125262861Y-192412019D01*
X125161714Y-192268825D01*
X125029566Y-192065920D01*
X125009305Y-192033689D01*
X124839811Y-191762265D01*
X124732163Y-191587041D01*
X124674561Y-191487017D01*
X124655205Y-191441193D01*
X124662294Y-191428566D01*
X124669036Y-191428104D01*
X124718676Y-191482335D01*
G37*
X124718676Y-191482335D02*
X124819823Y-191625530D01*
X124951971Y-191828434D01*
X124972232Y-191860665D01*
X125141726Y-192132090D01*
X125249374Y-192307313D01*
X125306976Y-192407337D01*
X125326332Y-192453162D01*
X125319243Y-192465788D01*
X125312501Y-192466251D01*
X125262861Y-192412019D01*
X125161714Y-192268825D01*
X125029566Y-192065920D01*
X125009305Y-192033689D01*
X124839811Y-191762265D01*
X124732163Y-191587041D01*
X124674561Y-191487017D01*
X124655205Y-191441193D01*
X124662294Y-191428566D01*
X124669036Y-191428104D01*
X124718676Y-191482335D01*
G36*
X124495606Y-191179260D02*
G01*
X124569323Y-191243597D01*
X124575510Y-191259164D01*
X124542664Y-191287610D01*
X124474281Y-191223869D01*
X124465086Y-191209781D01*
X124456929Y-191162421D01*
X124495606Y-191179260D01*
G37*
X124495606Y-191179260D02*
X124569323Y-191243597D01*
X124575510Y-191259164D01*
X124542664Y-191287610D01*
X124474281Y-191223869D01*
X124465086Y-191209781D01*
X124456929Y-191162421D01*
X124495606Y-191179260D01*
G36*
X123987132Y-190583615D02*
G01*
X124150448Y-190739238D01*
X124299122Y-190909030D01*
X124471192Y-191116659D01*
X124235807Y-190909030D01*
X124116603Y-190805853D01*
X124055389Y-190764495D01*
X124055331Y-190797835D01*
X124119595Y-190918750D01*
X124251345Y-191140118D01*
X124320868Y-191255079D01*
X124545556Y-191650521D01*
X124758207Y-192078426D01*
X124963205Y-192551827D01*
X125164934Y-193083754D01*
X125367777Y-193687238D01*
X125576119Y-194375309D01*
X125794344Y-195160998D01*
X126026836Y-196057336D01*
X126273773Y-197059926D01*
X126455349Y-197762192D01*
X126633085Y-198350032D01*
X126804735Y-198817149D01*
X126968054Y-199157247D01*
X127079995Y-199320838D01*
X127188607Y-199425548D01*
X127358267Y-199567158D01*
X127442329Y-199632282D01*
X127585298Y-199732538D01*
X127714695Y-199792772D01*
X127871985Y-199822449D01*
X128098632Y-199831032D01*
X128307452Y-199829724D01*
X128621711Y-199817305D01*
X128895155Y-199781902D01*
X129179927Y-199713183D01*
X129528168Y-199600812D01*
X129613918Y-199570816D01*
X129934043Y-199460570D01*
X130152672Y-199394792D01*
X130297589Y-199368487D01*
X130396579Y-199376665D01*
X130477427Y-199414330D01*
X130479041Y-199415344D01*
X130623426Y-199485705D01*
X130849277Y-199574161D01*
X131081232Y-199652951D01*
X131755808Y-199866943D01*
X132309766Y-200048000D01*
X132755286Y-200202234D01*
X133104548Y-200335757D01*
X133369731Y-200454684D01*
X133563014Y-200565127D01*
X133696578Y-200673199D01*
X133782603Y-200785013D01*
X133833267Y-200906682D01*
X133860750Y-201044319D01*
X133861279Y-201048267D01*
X133859969Y-201151277D01*
X133803151Y-201224745D01*
X133661620Y-201293221D01*
X133503575Y-201348963D01*
X133307026Y-201403209D01*
X133005676Y-201471976D01*
X132631515Y-201548620D01*
X132216534Y-201626497D01*
X131916668Y-201678558D01*
X131524849Y-201745664D01*
X131182322Y-201807211D01*
X130911673Y-201858904D01*
X130735488Y-201896452D01*
X130676659Y-201914239D01*
X130715224Y-201935441D01*
X130852673Y-201947172D01*
X130910514Y-201947995D01*
X131072718Y-201961246D01*
X131121720Y-201997073D01*
X131112376Y-202010529D01*
X131028304Y-202028470D01*
X130828282Y-202046493D01*
X130534778Y-202063995D01*
X130170260Y-202080371D01*
X129757195Y-202095015D01*
X129318051Y-202107322D01*
X128875297Y-202116688D01*
X128451401Y-202122509D01*
X128068829Y-202124179D01*
X127750050Y-202121093D01*
X127517532Y-202112647D01*
X127465019Y-202108713D01*
X127273390Y-202080533D01*
X127154906Y-202042384D01*
X127136273Y-202021809D01*
X127079188Y-201958935D01*
X126940652Y-201883843D01*
X126929390Y-201879094D01*
X126707086Y-201737547D01*
X126469106Y-201507249D01*
X126251129Y-201227987D01*
X126090729Y-200943851D01*
X126037109Y-200794085D01*
X125956939Y-200532723D01*
X125856659Y-200182599D01*
X125742711Y-199766548D01*
X125621532Y-199307405D01*
X125545015Y-199008821D01*
X125399184Y-198442986D01*
X125275613Y-197989372D01*
X125166847Y-197625008D01*
X125065427Y-197326924D01*
X124963899Y-197072148D01*
X124854804Y-196837709D01*
X124814349Y-196757944D01*
X124574616Y-196347583D01*
X124317040Y-195999905D01*
X124055244Y-195725717D01*
X123802853Y-195535827D01*
X123573490Y-195441041D01*
X123380779Y-195452166D01*
X123270887Y-195533600D01*
X123252584Y-195621092D01*
X123233066Y-195830110D01*
X123212879Y-196143775D01*
X123192568Y-196545205D01*
X123172681Y-197017519D01*
X123153763Y-197543835D01*
X123136362Y-198107272D01*
X123121022Y-198690950D01*
X123108292Y-199277988D01*
X123098716Y-199851503D01*
X123092842Y-200394615D01*
X123091216Y-200890443D01*
X123091841Y-201065570D01*
X123092244Y-201393967D01*
X123085850Y-201608225D01*
X123068147Y-201732602D01*
X123034620Y-201791361D01*
X122980757Y-201808761D01*
X122953421Y-201809575D01*
X122916160Y-201806765D01*
X122886010Y-201789487D01*
X122862206Y-201744470D01*
X122843982Y-201658440D01*
X122830573Y-201518127D01*
X122821214Y-201310258D01*
X122815141Y-201021562D01*
X122811587Y-200638766D01*
X122809789Y-200148599D01*
X122808980Y-199537788D01*
X122808795Y-199300719D01*
X122802289Y-198369148D01*
X122784656Y-197499127D01*
X122756587Y-196702213D01*
X122718770Y-195989959D01*
X122671897Y-195373918D01*
X122616658Y-194865646D01*
X122553743Y-194476695D01*
X122509804Y-194295846D01*
X122469969Y-194003008D01*
X122485881Y-193619934D01*
X122550528Y-193179762D01*
X122656897Y-192715630D01*
X122665226Y-192688769D01*
X123618708Y-192688769D01*
X123618744Y-192886395D01*
X123730339Y-193072249D01*
X123942802Y-193221166D01*
X124065439Y-193268489D01*
X124328877Y-193340804D01*
X124475900Y-193359062D01*
X124506300Y-193339319D01*
X124466370Y-193204779D01*
X124363830Y-193008594D01*
X124224560Y-192795566D01*
X124104274Y-192643332D01*
X123965438Y-192492257D01*
X123878621Y-192432672D01*
X123806518Y-192450327D01*
X123740922Y-192504539D01*
X123618708Y-192688769D01*
X122665226Y-192688769D01*
X122797973Y-192260674D01*
X122966745Y-191848033D01*
X123069950Y-191649168D01*
X123187071Y-191458701D01*
X123338160Y-191232336D01*
X123502634Y-190998430D01*
X123659907Y-190785342D01*
X123789395Y-190621428D01*
X123870514Y-190535047D01*
X123883532Y-190528376D01*
X123987132Y-190583615D01*
G37*
X123987132Y-190583615D02*
X124150448Y-190739238D01*
X124299122Y-190909030D01*
X124471192Y-191116659D01*
X124235807Y-190909030D01*
X124116603Y-190805853D01*
X124055389Y-190764495D01*
X124055331Y-190797835D01*
X124119595Y-190918750D01*
X124251345Y-191140118D01*
X124320868Y-191255079D01*
X124545556Y-191650521D01*
X124758207Y-192078426D01*
X124963205Y-192551827D01*
X125164934Y-193083754D01*
X125367777Y-193687238D01*
X125576119Y-194375309D01*
X125794344Y-195160998D01*
X126026836Y-196057336D01*
X126273773Y-197059926D01*
X126455349Y-197762192D01*
X126633085Y-198350032D01*
X126804735Y-198817149D01*
X126968054Y-199157247D01*
X127079995Y-199320838D01*
X127188607Y-199425548D01*
X127358267Y-199567158D01*
X127442329Y-199632282D01*
X127585298Y-199732538D01*
X127714695Y-199792772D01*
X127871985Y-199822449D01*
X128098632Y-199831032D01*
X128307452Y-199829724D01*
X128621711Y-199817305D01*
X128895155Y-199781902D01*
X129179927Y-199713183D01*
X129528168Y-199600812D01*
X129613918Y-199570816D01*
X129934043Y-199460570D01*
X130152672Y-199394792D01*
X130297589Y-199368487D01*
X130396579Y-199376665D01*
X130477427Y-199414330D01*
X130479041Y-199415344D01*
X130623426Y-199485705D01*
X130849277Y-199574161D01*
X131081232Y-199652951D01*
X131755808Y-199866943D01*
X132309766Y-200048000D01*
X132755286Y-200202234D01*
X133104548Y-200335757D01*
X133369731Y-200454684D01*
X133563014Y-200565127D01*
X133696578Y-200673199D01*
X133782603Y-200785013D01*
X133833267Y-200906682D01*
X133860750Y-201044319D01*
X133861279Y-201048267D01*
X133859969Y-201151277D01*
X133803151Y-201224745D01*
X133661620Y-201293221D01*
X133503575Y-201348963D01*
X133307026Y-201403209D01*
X133005676Y-201471976D01*
X132631515Y-201548620D01*
X132216534Y-201626497D01*
X131916668Y-201678558D01*
X131524849Y-201745664D01*
X131182322Y-201807211D01*
X130911673Y-201858904D01*
X130735488Y-201896452D01*
X130676659Y-201914239D01*
X130715224Y-201935441D01*
X130852673Y-201947172D01*
X130910514Y-201947995D01*
X131072718Y-201961246D01*
X131121720Y-201997073D01*
X131112376Y-202010529D01*
X131028304Y-202028470D01*
X130828282Y-202046493D01*
X130534778Y-202063995D01*
X130170260Y-202080371D01*
X129757195Y-202095015D01*
X129318051Y-202107322D01*
X128875297Y-202116688D01*
X128451401Y-202122509D01*
X128068829Y-202124179D01*
X127750050Y-202121093D01*
X127517532Y-202112647D01*
X127465019Y-202108713D01*
X127273390Y-202080533D01*
X127154906Y-202042384D01*
X127136273Y-202021809D01*
X127079188Y-201958935D01*
X126940652Y-201883843D01*
X126929390Y-201879094D01*
X126707086Y-201737547D01*
X126469106Y-201507249D01*
X126251129Y-201227987D01*
X126090729Y-200943851D01*
X126037109Y-200794085D01*
X125956939Y-200532723D01*
X125856659Y-200182599D01*
X125742711Y-199766548D01*
X125621532Y-199307405D01*
X125545015Y-199008821D01*
X125399184Y-198442986D01*
X125275613Y-197989372D01*
X125166847Y-197625008D01*
X125065427Y-197326924D01*
X124963899Y-197072148D01*
X124854804Y-196837709D01*
X124814349Y-196757944D01*
X124574616Y-196347583D01*
X124317040Y-195999905D01*
X124055244Y-195725717D01*
X123802853Y-195535827D01*
X123573490Y-195441041D01*
X123380779Y-195452166D01*
X123270887Y-195533600D01*
X123252584Y-195621092D01*
X123233066Y-195830110D01*
X123212879Y-196143775D01*
X123192568Y-196545205D01*
X123172681Y-197017519D01*
X123153763Y-197543835D01*
X123136362Y-198107272D01*
X123121022Y-198690950D01*
X123108292Y-199277988D01*
X123098716Y-199851503D01*
X123092842Y-200394615D01*
X123091216Y-200890443D01*
X123091841Y-201065570D01*
X123092244Y-201393967D01*
X123085850Y-201608225D01*
X123068147Y-201732602D01*
X123034620Y-201791361D01*
X122980757Y-201808761D01*
X122953421Y-201809575D01*
X122916160Y-201806765D01*
X122886010Y-201789487D01*
X122862206Y-201744470D01*
X122843982Y-201658440D01*
X122830573Y-201518127D01*
X122821214Y-201310258D01*
X122815141Y-201021562D01*
X122811587Y-200638766D01*
X122809789Y-200148599D01*
X122808980Y-199537788D01*
X122808795Y-199300719D01*
X122802289Y-198369148D01*
X122784656Y-197499127D01*
X122756587Y-196702213D01*
X122718770Y-195989959D01*
X122671897Y-195373918D01*
X122616658Y-194865646D01*
X122553743Y-194476695D01*
X122509804Y-194295846D01*
X122469969Y-194003008D01*
X122485881Y-193619934D01*
X122550528Y-193179762D01*
X122656897Y-192715630D01*
X122665226Y-192688769D01*
X123618708Y-192688769D01*
X123618744Y-192886395D01*
X123730339Y-193072249D01*
X123942802Y-193221166D01*
X124065439Y-193268489D01*
X124328877Y-193340804D01*
X124475900Y-193359062D01*
X124506300Y-193339319D01*
X124466370Y-193204779D01*
X124363830Y-193008594D01*
X124224560Y-192795566D01*
X124104274Y-192643332D01*
X123965438Y-192492257D01*
X123878621Y-192432672D01*
X123806518Y-192450327D01*
X123740922Y-192504539D01*
X123618708Y-192688769D01*
X122665226Y-192688769D01*
X122797973Y-192260674D01*
X122966745Y-191848033D01*
X123069950Y-191649168D01*
X123187071Y-191458701D01*
X123338160Y-191232336D01*
X123502634Y-190998430D01*
X123659907Y-190785342D01*
X123789395Y-190621428D01*
X123870514Y-190535047D01*
X123883532Y-190528376D01*
X123987132Y-190583615D01*
G36*
X130153409Y-199197369D02*
G01*
X130162658Y-199198303D01*
X130228148Y-199211136D01*
X130168853Y-199220871D01*
X129998400Y-199225813D01*
X129939270Y-199226102D01*
X129737233Y-199223052D01*
X129637286Y-199214468D01*
X129655730Y-199202050D01*
X129678189Y-199198861D01*
X129907058Y-199187242D01*
X130153409Y-199197369D01*
G37*
X130153409Y-199197369D02*
X130162658Y-199198303D01*
X130228148Y-199211136D01*
X130168853Y-199220871D01*
X129998400Y-199225813D01*
X129939270Y-199226102D01*
X129737233Y-199223052D01*
X129637286Y-199214468D01*
X129655730Y-199202050D01*
X129678189Y-199198861D01*
X129907058Y-199187242D01*
X130153409Y-199197369D01*
G36*
X128658888Y-199144997D02*
G01*
X128624283Y-199179602D01*
X128589679Y-199144997D01*
X128624283Y-199110392D01*
X128658888Y-199144997D01*
G37*
X128658888Y-199144997D02*
X128624283Y-199179602D01*
X128589679Y-199144997D01*
X128624283Y-199110392D01*
X128658888Y-199144997D01*
G36*
X126651804Y-195407668D02*
G01*
X126617199Y-195442273D01*
X126582594Y-195407668D01*
X126617199Y-195373063D01*
X126651804Y-195407668D01*
G37*
X126651804Y-195407668D02*
X126617199Y-195442273D01*
X126582594Y-195407668D01*
X126617199Y-195373063D01*
X126651804Y-195407668D01*
G36*
X126444174Y-194853989D02*
G01*
X126409570Y-194888594D01*
X126374965Y-194853989D01*
X126409570Y-194819384D01*
X126444174Y-194853989D01*
G37*
X126444174Y-194853989D02*
X126409570Y-194888594D01*
X126374965Y-194853989D01*
X126409570Y-194819384D01*
X126444174Y-194853989D01*
G36*
X126374965Y-194715570D02*
G01*
X126340360Y-194750174D01*
X126305755Y-194715570D01*
X126340360Y-194680965D01*
X126374965Y-194715570D01*
G37*
X126374965Y-194715570D02*
X126340360Y-194750174D01*
X126305755Y-194715570D01*
X126340360Y-194680965D01*
X126374965Y-194715570D01*
G36*
X126282685Y-194496405D02*
G01*
X126290968Y-194578541D01*
X126282685Y-194588685D01*
X126241540Y-194579185D01*
X126236545Y-194542545D01*
X126261868Y-194485578D01*
X126282685Y-194496405D01*
G37*
X126282685Y-194496405D02*
X126290968Y-194578541D01*
X126282685Y-194588685D01*
X126241540Y-194579185D01*
X126236545Y-194542545D01*
X126261868Y-194485578D01*
X126282685Y-194496405D01*
G36*
X126236545Y-194369521D02*
G01*
X126201940Y-194404125D01*
X126167335Y-194369521D01*
X126201940Y-194334916D01*
X126236545Y-194369521D01*
G37*
X126236545Y-194369521D02*
X126201940Y-194404125D01*
X126167335Y-194369521D01*
X126201940Y-194334916D01*
X126236545Y-194369521D01*
G36*
X126167335Y-194231101D02*
G01*
X126132730Y-194265706D01*
X126098125Y-194231101D01*
X126132730Y-194196496D01*
X126167335Y-194231101D01*
G37*
X126167335Y-194231101D02*
X126132730Y-194265706D01*
X126098125Y-194231101D01*
X126132730Y-194196496D01*
X126167335Y-194231101D01*
G36*
X126075056Y-194011937D02*
G01*
X126083339Y-194094072D01*
X126075056Y-194104216D01*
X126033910Y-194094716D01*
X126028916Y-194058076D01*
X126054238Y-194001109D01*
X126075056Y-194011937D01*
G37*
X126075056Y-194011937D02*
X126083339Y-194094072D01*
X126075056Y-194104216D01*
X126033910Y-194094716D01*
X126028916Y-194058076D01*
X126054238Y-194001109D01*
X126075056Y-194011937D01*
G36*
X126028916Y-193885052D02*
G01*
X125994311Y-193919657D01*
X125959706Y-193885052D01*
X125994311Y-193850447D01*
X126028916Y-193885052D01*
G37*
X126028916Y-193885052D02*
X125994311Y-193919657D01*
X125959706Y-193885052D01*
X125994311Y-193850447D01*
X126028916Y-193885052D01*
G36*
X125959706Y-193746632D02*
G01*
X125925101Y-193781237D01*
X125890496Y-193746632D01*
X125925101Y-193712027D01*
X125959706Y-193746632D01*
G37*
X125959706Y-193746632D02*
X125925101Y-193781237D01*
X125890496Y-193746632D01*
X125925101Y-193712027D01*
X125959706Y-193746632D01*
G36*
X125682867Y-193123744D02*
G01*
X125648262Y-193158349D01*
X125613657Y-193123744D01*
X125648262Y-193089139D01*
X125682867Y-193123744D01*
G37*
X125682867Y-193123744D02*
X125648262Y-193158349D01*
X125613657Y-193123744D01*
X125648262Y-193089139D01*
X125682867Y-193123744D01*
G36*
X125613657Y-192985324D02*
G01*
X125579052Y-193019929D01*
X125544447Y-192985324D01*
X125579052Y-192950719D01*
X125613657Y-192985324D01*
G37*
X125613657Y-192985324D02*
X125579052Y-193019929D01*
X125544447Y-192985324D01*
X125579052Y-192950719D01*
X125613657Y-192985324D01*
G36*
X125544447Y-192846905D02*
G01*
X125509842Y-192881510D01*
X125475237Y-192846905D01*
X125509842Y-192812300D01*
X125544447Y-192846905D01*
G37*
X125544447Y-192846905D02*
X125509842Y-192881510D01*
X125475237Y-192846905D01*
X125509842Y-192812300D01*
X125544447Y-192846905D01*
G36*
X125475237Y-192708485D02*
G01*
X125440632Y-192743090D01*
X125406027Y-192708485D01*
X125440632Y-192673880D01*
X125475237Y-192708485D01*
G37*
X125475237Y-192708485D02*
X125440632Y-192743090D01*
X125406027Y-192708485D01*
X125440632Y-192673880D01*
X125475237Y-192708485D01*
G36*
X125406027Y-192570065D02*
G01*
X125371422Y-192604670D01*
X125336818Y-192570065D01*
X125371422Y-192535461D01*
X125406027Y-192570065D01*
G37*
X125406027Y-192570065D02*
X125371422Y-192604670D01*
X125336818Y-192570065D01*
X125371422Y-192535461D01*
X125406027Y-192570065D01*
G36*
X124718676Y-191482335D02*
G01*
X124819823Y-191625530D01*
X124951971Y-191828434D01*
X124972232Y-191860665D01*
X125141726Y-192132090D01*
X125249374Y-192307313D01*
X125306976Y-192407337D01*
X125326332Y-192453162D01*
X125319243Y-192465788D01*
X125312501Y-192466251D01*
X125262861Y-192412019D01*
X125161714Y-192268825D01*
X125029566Y-192065920D01*
X125009305Y-192033689D01*
X124839811Y-191762265D01*
X124732163Y-191587041D01*
X124674561Y-191487017D01*
X124655205Y-191441193D01*
X124662294Y-191428566D01*
X124669036Y-191428104D01*
X124718676Y-191482335D01*
G37*
X124718676Y-191482335D02*
X124819823Y-191625530D01*
X124951971Y-191828434D01*
X124972232Y-191860665D01*
X125141726Y-192132090D01*
X125249374Y-192307313D01*
X125306976Y-192407337D01*
X125326332Y-192453162D01*
X125319243Y-192465788D01*
X125312501Y-192466251D01*
X125262861Y-192412019D01*
X125161714Y-192268825D01*
X125029566Y-192065920D01*
X125009305Y-192033689D01*
X124839811Y-191762265D01*
X124732163Y-191587041D01*
X124674561Y-191487017D01*
X124655205Y-191441193D01*
X124662294Y-191428566D01*
X124669036Y-191428104D01*
X124718676Y-191482335D01*
G36*
X124495606Y-191179260D02*
G01*
X124569323Y-191243597D01*
X124575510Y-191259164D01*
X124542664Y-191287610D01*
X124474281Y-191223869D01*
X124465086Y-191209781D01*
X124456929Y-191162421D01*
X124495606Y-191179260D01*
G37*
X124495606Y-191179260D02*
X124569323Y-191243597D01*
X124575510Y-191259164D01*
X124542664Y-191287610D01*
X124474281Y-191223869D01*
X124465086Y-191209781D01*
X124456929Y-191162421D01*
X124495606Y-191179260D01*
D11*
X119885000Y-173421000D03*
X165885000Y-150421000D03*
X142885000Y-150421000D03*
X119885000Y-150421000D03*
X165885000Y-173421000D03*
X165885000Y-127421000D03*
X142885000Y-173421000D03*
X142885000Y-127421000D03*
X119885000Y-127421000D03*
X119885000Y-104421000D03*
X165885000Y-104421000D03*
X142885000Y-104421000D03*
X165885000Y-81421000D03*
X142885000Y-81421000D03*
X119885000Y-81421000D03*
X165885000Y-58421000D03*
X142885000Y-58421000D03*
X119885000Y-58421000D03*
D12*
X174539000Y-201282000D03*
X111539000Y-201282000D03*
X111539000Y-8282000D03*
X174539000Y-8282000D03*
M02*
