%TF.GenerationSoftware,KiCad,Pcbnew,7.0.1*%
%TF.CreationDate,2023-03-13T20:41:13+00:00*%
%TF.ProjectId,KOSMO-POLY6-JACKS,4b4f534d-4f2d-4504-9f4c-59362d4a4143,v0.1.1*%
%TF.SameCoordinates,Original*%
%TF.FileFunction,Soldermask,Top*%
%TF.FilePolarity,Negative*%
%FSLAX46Y46*%
G04 Gerber Fmt 4.6, Leading zero omitted, Abs format (unit mm)*
G04 Created by KiCad (PCBNEW 7.0.1) date 2023-03-13 20:41:13*
%MOMM*%
%LPD*%
G01*
G04 APERTURE LIST*
G04 Aperture macros list*
%AMRoundRect*
0 Rectangle with rounded corners*
0 $1 Rounding radius*
0 $2 $3 $4 $5 $6 $7 $8 $9 X,Y pos of 4 corners*
0 Add a 4 corners polygon primitive as box body*
4,1,4,$2,$3,$4,$5,$6,$7,$8,$9,$2,$3,0*
0 Add four circle primitives for the rounded corners*
1,1,$1+$1,$2,$3*
1,1,$1+$1,$4,$5*
1,1,$1+$1,$6,$7*
1,1,$1+$1,$8,$9*
0 Add four rect primitives between the rounded corners*
20,1,$1+$1,$2,$3,$4,$5,0*
20,1,$1+$1,$4,$5,$6,$7,0*
20,1,$1+$1,$6,$7,$8,$9,0*
20,1,$1+$1,$8,$9,$2,$3,0*%
G04 Aperture macros list end*
%ADD10RoundRect,0.250000X-0.600000X-0.600000X0.600000X-0.600000X0.600000X0.600000X-0.600000X0.600000X0*%
%ADD11C,1.700000*%
%ADD12C,5.600000*%
%ADD13RoundRect,0.250000X0.600000X-0.600000X0.600000X0.600000X-0.600000X0.600000X-0.600000X-0.600000X0*%
%ADD14R,4.500000X4.500000*%
%ADD15C,4.500000*%
G04 APERTURE END LIST*
D10*
%TO.C,GATE_OUT1*%
X58538000Y-31435000D03*
D11*
X61078000Y-31435000D03*
X58538000Y-33975000D03*
X61078000Y-33975000D03*
X58538000Y-36515000D03*
X61078000Y-36515000D03*
X58538000Y-39055000D03*
X61078000Y-39055000D03*
%TD*%
D12*
%TO.C,H1*%
X119657000Y-19835000D03*
%TD*%
%TO.C,H2*%
X57657000Y-19837000D03*
%TD*%
%TO.C,H3*%
X57669000Y-186831000D03*
%TD*%
%TO.C,H4*%
X119655000Y-186829000D03*
%TD*%
D10*
%TO.C,PULSE_IN1*%
X115743000Y-31435000D03*
D11*
X118283000Y-31435000D03*
X115743000Y-33975000D03*
X118283000Y-33975000D03*
X115743000Y-36515000D03*
X118283000Y-36515000D03*
X115743000Y-39055000D03*
X118283000Y-39055000D03*
%TD*%
D10*
%TO.C,PULSE_OUT1*%
X80538000Y-31435000D03*
D11*
X83078000Y-31435000D03*
X80538000Y-33975000D03*
X83078000Y-33975000D03*
X80538000Y-36515000D03*
X83078000Y-36515000D03*
X80538000Y-39055000D03*
X83078000Y-39055000D03*
%TD*%
D10*
%TO.C,RAMP_IN1*%
X104743000Y-31435000D03*
D11*
X107283000Y-31435000D03*
X104743000Y-33975000D03*
X107283000Y-33975000D03*
X104743000Y-36515000D03*
X107283000Y-36515000D03*
X104743000Y-39055000D03*
X107283000Y-39055000D03*
%TD*%
D10*
%TO.C,RAMP_OUT1*%
X69538000Y-31435000D03*
D11*
X72078000Y-31435000D03*
X69538000Y-33975000D03*
X72078000Y-33975000D03*
X69538000Y-36515000D03*
X72078000Y-36515000D03*
X69538000Y-39055000D03*
X72078000Y-39055000D03*
%TD*%
D13*
%TO.C,PowerIN1*%
X72973000Y-186988000D03*
D11*
X72973000Y-184448000D03*
X75513000Y-186988000D03*
X75513000Y-184448000D03*
X78053000Y-186988000D03*
X78053000Y-184448000D03*
%TD*%
D13*
%TO.C,PowerOUT1*%
X98368000Y-187057000D03*
D11*
X98368000Y-184517000D03*
X100908000Y-187057000D03*
X100908000Y-184517000D03*
X103448000Y-187057000D03*
X103448000Y-184517000D03*
%TD*%
D10*
%TO.C,GATE_IN1*%
X93743000Y-31435000D03*
D11*
X96283000Y-31435000D03*
X93743000Y-33975000D03*
X96283000Y-33975000D03*
X93743000Y-36515000D03*
X96283000Y-36515000D03*
X93743000Y-39055000D03*
X96283000Y-39055000D03*
%TD*%
D14*
%TO.C,J1*%
X94181000Y-52666000D03*
D15*
X89101000Y-63334000D03*
X95197000Y-59778000D03*
X83132000Y-56476000D03*
X87069000Y-51142000D03*
%TD*%
D14*
%TO.C,J2*%
X117181000Y-52666000D03*
D15*
X112101000Y-63334000D03*
X118197000Y-59778000D03*
X106132000Y-56476000D03*
X110069000Y-51142000D03*
%TD*%
D14*
%TO.C,J3*%
X71181000Y-52666000D03*
D15*
X66101000Y-63334000D03*
X72197000Y-59778000D03*
X60132000Y-56476000D03*
X64069000Y-51142000D03*
%TD*%
D14*
%TO.C,J4*%
X94181000Y-75666000D03*
D15*
X89101000Y-86334000D03*
X95197000Y-82778000D03*
X83132000Y-79476000D03*
X87069000Y-74142000D03*
%TD*%
D14*
%TO.C,J5*%
X117181000Y-75666000D03*
D15*
X112101000Y-86334000D03*
X118197000Y-82778000D03*
X106132000Y-79476000D03*
X110069000Y-74142000D03*
%TD*%
D14*
%TO.C,J6*%
X71181000Y-75666000D03*
D15*
X66101000Y-86334000D03*
X72197000Y-82778000D03*
X60132000Y-79476000D03*
X64069000Y-74142000D03*
%TD*%
D14*
%TO.C,J7*%
X94181000Y-98666000D03*
D15*
X89101000Y-109334000D03*
X95197000Y-105778000D03*
X83132000Y-102476000D03*
X87069000Y-97142000D03*
%TD*%
D14*
%TO.C,J8*%
X117181000Y-98666000D03*
D15*
X112101000Y-109334000D03*
X118197000Y-105778000D03*
X106132000Y-102476000D03*
X110069000Y-97142000D03*
%TD*%
D14*
%TO.C,J9*%
X71181000Y-98666000D03*
D15*
X66101000Y-109334000D03*
X72197000Y-105778000D03*
X60132000Y-102476000D03*
X64069000Y-97142000D03*
%TD*%
D14*
%TO.C,J10*%
X94181000Y-121666000D03*
D15*
X89101000Y-132334000D03*
X95197000Y-128778000D03*
X83132000Y-125476000D03*
X87069000Y-120142000D03*
%TD*%
D14*
%TO.C,J11*%
X117181000Y-121666000D03*
D15*
X112101000Y-132334000D03*
X118197000Y-128778000D03*
X106132000Y-125476000D03*
X110069000Y-120142000D03*
%TD*%
D14*
%TO.C,J12*%
X71181000Y-121666000D03*
D15*
X66101000Y-132334000D03*
X72197000Y-128778000D03*
X60132000Y-125476000D03*
X64069000Y-120142000D03*
%TD*%
D14*
%TO.C,J13*%
X94181000Y-144666000D03*
D15*
X89101000Y-155334000D03*
X95197000Y-151778000D03*
X83132000Y-148476000D03*
X87069000Y-143142000D03*
%TD*%
D14*
%TO.C,J14*%
X117181000Y-144666000D03*
D15*
X112101000Y-155334000D03*
X118197000Y-151778000D03*
X106132000Y-148476000D03*
X110069000Y-143142000D03*
%TD*%
D14*
%TO.C,J15*%
X71181000Y-144666000D03*
D15*
X66101000Y-155334000D03*
X72197000Y-151778000D03*
X60132000Y-148476000D03*
X64069000Y-143142000D03*
%TD*%
D14*
%TO.C,J16*%
X94181000Y-167666000D03*
D15*
X89101000Y-178334000D03*
X95197000Y-174778000D03*
X83132000Y-171476000D03*
X87069000Y-166142000D03*
%TD*%
D14*
%TO.C,J17*%
X117181000Y-167666000D03*
D15*
X112101000Y-178334000D03*
X118197000Y-174778000D03*
X106132000Y-171476000D03*
X110069000Y-166142000D03*
%TD*%
D14*
%TO.C,J18*%
X71181000Y-167666000D03*
D15*
X66101000Y-178334000D03*
X72197000Y-174778000D03*
X60132000Y-171476000D03*
X64069000Y-166142000D03*
%TD*%
M02*
